<?xml version="1.0" encoding="UTF-8" standalone="no"?>
<svg
   id="Layer_1"
   data-name="Layer 1"
   viewBox="0 0 841.89 595.28"
   version="1.1"
   sodipodi:docname="թումանյանի տուն-01.svg"
   inkscape:version="1.2.1 (9c6d41e410, 2022-07-14, custom)"
   xmlns:inkscape="http://www.inkscape.org/namespaces/inkscape"
   xmlns:sodipodi="http://sodipodi.sourceforge.net/DTD/sodipodi-0.dtd"
   xmlns="http://www.w3.org/2000/svg"
   xmlns:svg="http://www.w3.org/2000/svg">
  <sodipodi:namedview
     id="namedview485"
     pagecolor="#ffffff"
     bordercolor="#000000"
     borderopacity="0.25"
     inkscape:showpageshadow="2"
     inkscape:pageopacity="0.0"
     inkscape:pagecheckerboard="0"
     inkscape:deskcolor="#d1d1d1"
     showgrid="false"
     inkscape:zoom="1.1213358"
     inkscape:cx="359.39279"
     inkscape:cy="294.29186"
     inkscape:window-width="1920"
     inkscape:window-height="1151"
     inkscape:window-x="0"
     inkscape:window-y="20"
     inkscape:window-maximized="1"
     inkscape:current-layer="Layer_1" />
  <defs
     id="defs4">
    <style
       id="style2">.cls-1{fill:#0e773d;}.cls-2{fill:#401a0f;}.cls-3{fill:#b76847;}.cls-4{fill:#dce4ef;}.cls-20,.cls-21,.cls-4,.cls-5{stroke:#603813;}.cls-12,.cls-13,.cls-14,.cls-16,.cls-17,.cls-18,.cls-19,.cls-20,.cls-21,.cls-22,.cls-25,.cls-26,.cls-28,.cls-29,.cls-31,.cls-34,.cls-35,.cls-4,.cls-5,.cls-6,.cls-7,.cls-8,.cls-9{stroke-miterlimit:10;}.cls-31,.cls-4,.cls-5{stroke-width:2.9px;}.cls-12,.cls-13,.cls-14,.cls-16,.cls-17,.cls-18,.cls-19,.cls-22,.cls-25,.cls-26,.cls-28,.cls-29,.cls-34,.cls-35,.cls-5,.cls-6,.cls-7,.cls-8,.cls-9{fill:none;}.cls-6,.cls-7,.cls-8{stroke:#666;}.cls-6{stroke-width:3.84px;}.cls-7{stroke-width:2.96px;}.cls-8{stroke-width:3.61px;}.cls-9{stroke:#c0bbb8;stroke-width:3.87px;}.cls-10,.cls-11{fill:#d9c0bb;}.cls-11{fill-rule:evenodd;}.cls-12,.cls-13{stroke:#7f6757;}.cls-12{stroke-width:38.05px;}.cls-13{stroke-width:37.24px;}.cls-14,.cls-18,.cls-34,.cls-35{stroke:#38312d;}.cls-14{stroke-width:0.97px;}.cls-15{fill:#db9b71;}.cls-16{stroke:#f4ae7f;stroke-width:58.02px;}.cls-17,.cls-19{stroke:#f2b186;}.cls-17{stroke-width:34.2px;}.cls-18,.cls-20{stroke-width:1.93px;}.cls-19{stroke-width:25.14px;}.cls-20,.cls-21{fill:#e0af8d;}.cls-21{stroke-width:2.19px;}.cls-22{stroke:#cc9f80;stroke-width:32.03px;}.cls-23{fill:#5a2708;}.cls-24{fill:#5c596a;}.cls-25,.cls-26,.cls-31{stroke:#201a24;}.cls-25{stroke-width:3.37px;}.cls-26{stroke-width:3.16px;}.cls-27{fill:#5c5a68;}.cls-28,.cls-29{stroke:#b78484;}.cls-28{stroke-width:2.86px;}.cls-29{stroke-width:3.49px;}.cls-30{fill:#c0bbb8;}.cls-31{fill:#746e72;}.cls-32{fill:#ada08d;}.cls-33{fill:#dbd0c1;}.cls-34{stroke-width:2.03px;}.cls-35{stroke-width:1.85px;}.cls-36{fill:#8a898e;}.cls-37{fill:#9f9fa3;}</style>
  </defs>
  <title
     id="title6">թումանյանի տուն</title>
  <rect
     class="cls-1"
     y="448.93494"
     width="841.89001"
     height="137.8"
     id="rect8"
     style="fill:#0e773d"
     x="0.12850221" />
  <path
     class="cls-2"
     d="m 707.1285,175.46494 -280.13,-36 -261.87,36 V 99.464944 h 542 z"
     id="path10"
     style="fill:#401a0f" />
  <path
     class="cls-3"
     d="m 719.7285,304.15494 h -567.25 v -151.4 c 145.38,-7.62 276.16,-14.59 276.1,-15 0,-0.09 -5.78,-0.3 -5.78,-0.3 l 296.93,15.3 z"
     id="path12"
     style="fill:#b76847" />
  <rect
     class="cls-4"
     x="181.19852"
     y="226.21495"
     width="41.810001"
     height="52.950001"
     id="rect14"
     style="fill:#dce4ef;stroke:#603813;stroke-width:2.9px;stroke-miterlimit:10" />
  <line
     class="cls-5"
     x1="181.19852"
     y1="247.01495"
     x2="223.0085"
     y2="247.01495"
     id="line16"
     style="fill:none;stroke:#603813;stroke-width:2.9px;stroke-miterlimit:10" />
  <line
     class="cls-5"
     x1="202.0985"
     y1="247.01495"
     x2="202.0985"
     y2="279.16495"
     id="line18"
     style="fill:none;stroke:#603813;stroke-width:2.9px;stroke-miterlimit:10" />
  <rect
     class="cls-4"
     x="241.6985"
     y="226.29495"
     width="41.810001"
     height="52.950001"
     id="rect20"
     style="fill:#dce4ef;stroke:#603813;stroke-width:2.9px;stroke-miterlimit:10" />
  <line
     class="cls-5"
     x1="241.6985"
     y1="247.09496"
     x2="283.50851"
     y2="247.09496"
     id="line22"
     style="fill:none;stroke:#603813;stroke-width:2.9px;stroke-miterlimit:10" />
  <line
     class="cls-5"
     x1="262.59851"
     y1="247.09496"
     x2="262.59851"
     y2="279.24493"
     id="line24"
     style="fill:none;stroke:#603813;stroke-width:2.9px;stroke-miterlimit:10" />
  <rect
     class="cls-4"
     x="342.34851"
     y="225.44495"
     width="41.810001"
     height="52.950001"
     id="rect26"
     style="fill:#dce4ef;stroke:#603813;stroke-width:2.9px;stroke-miterlimit:10" />
  <line
     class="cls-5"
     x1="342.34851"
     y1="246.24495"
     x2="384.15851"
     y2="246.24495"
     id="line28"
     style="fill:none;stroke:#603813;stroke-width:2.9px;stroke-miterlimit:10" />
  <line
     class="cls-5"
     x1="363.25851"
     y1="246.24495"
     x2="363.25851"
     y2="278.39493"
     id="line30"
     style="fill:none;stroke:#603813;stroke-width:2.9px;stroke-miterlimit:10" />
  <rect
     class="cls-4"
     x="408.8985"
     y="225.60495"
     width="41.810001"
     height="52.950001"
     id="rect32"
     style="fill:#dce4ef;stroke:#603813;stroke-width:2.9px;stroke-miterlimit:10" />
  <line
     class="cls-5"
     x1="408.8985"
     y1="246.40495"
     x2="450.7085"
     y2="246.40495"
     id="line34"
     style="fill:none;stroke:#603813;stroke-width:2.9px;stroke-miterlimit:10" />
  <line
     class="cls-5"
     x1="429.79852"
     y1="246.40495"
     x2="429.79852"
     y2="278.55493"
     id="line36"
     style="fill:none;stroke:#603813;stroke-width:2.9px;stroke-miterlimit:10" />
  <rect
     class="cls-4"
     x="474.75851"
     y="227.33495"
     width="41.810001"
     height="52.950001"
     id="rect38"
     style="fill:#dce4ef;stroke:#603813;stroke-width:2.9px;stroke-miterlimit:10" />
  <line
     class="cls-5"
     x1="474.75851"
     y1="248.13496"
     x2="516.57855"
     y2="248.13496"
     id="line40"
     style="fill:none;stroke:#603813;stroke-width:2.9px;stroke-miterlimit:10" />
  <line
     class="cls-5"
     x1="495.66852"
     y1="248.13496"
     x2="495.66852"
     y2="280.28494"
     id="line42"
     style="fill:none;stroke:#603813;stroke-width:2.9px;stroke-miterlimit:10" />
  <rect
     class="cls-4"
     x="573.17853"
     y="225.97495"
     width="41.810001"
     height="52.950001"
     id="rect44"
     style="fill:#dce4ef;stroke:#603813;stroke-width:2.9px;stroke-miterlimit:10" />
  <line
     class="cls-5"
     x1="573.17853"
     y1="246.77495"
     x2="614.98846"
     y2="246.77495"
     id="line46"
     style="fill:none;stroke:#603813;stroke-width:2.9px;stroke-miterlimit:10" />
  <line
     class="cls-5"
     x1="594.0885"
     y1="246.77495"
     x2="594.0885"
     y2="278.92493"
     id="line48"
     style="fill:none;stroke:#603813;stroke-width:2.9px;stroke-miterlimit:10" />
  <rect
     class="cls-4"
     x="637.15851"
     y="226.38495"
     width="41.810001"
     height="52.950001"
     id="rect50"
     style="fill:#dce4ef;stroke:#603813;stroke-width:2.9px;stroke-miterlimit:10" />
  <line
     class="cls-5"
     x1="637.15851"
     y1="247.18495"
     x2="678.96851"
     y2="247.18495"
     id="line52"
     style="fill:none;stroke:#603813;stroke-width:2.9px;stroke-miterlimit:10" />
  <line
     class="cls-5"
     x1="658.05847"
     y1="247.18495"
     x2="658.05847"
     y2="279.33493"
     id="line54"
     style="fill:none;stroke:#603813;stroke-width:2.9px;stroke-miterlimit:10" />
  <path
     class="cls-6"
     d="m 337.3085,260.62494 q 0,19.2 0,38.4"
     id="path56"
     style="fill:none;stroke:#666666;stroke-width:3.84px;stroke-miterlimit:10" />
  <path
     class="cls-6"
     d="m 345.9385,260.76494 c 0.1,12.74 0.14,25.47 0.34,38.21"
     id="path58"
     style="fill:none;stroke:#666666;stroke-width:3.84px;stroke-miterlimit:10" />
  <path
     class="cls-6"
     d="m 355.0485,260.30494 q -0.32,19.28 0,38.55"
     id="path60"
     style="fill:none;stroke:#666666;stroke-width:3.84px;stroke-miterlimit:10" />
  <path
     class="cls-6"
     d="m 363.0585,259.62495 c 0.43,13.07999 0.48,26.17 0.45,39.25999"
     id="path62"
     style="fill:none;stroke:#666666;stroke-width:3.84px;stroke-miterlimit:10" />
  <path
     class="cls-6"
     d="m 371.5785,260.03494 q -0.31,19.47 0,38.94"
     id="path64"
     style="fill:none;stroke:#666666;stroke-width:3.84px;stroke-miterlimit:10" />
  <path
     class="cls-6"
     d="m 380.7985,259.27494 q 0.34,19.85 0,39.7"
     id="path66"
     style="fill:none;stroke:#666666;stroke-width:3.84px;stroke-miterlimit:10" />
  <path
     class="cls-6"
     d="m 284.9885,260.77494 q 0,19.2 0,38.4"
     id="path68"
     style="fill:none;stroke:#666666;stroke-width:3.84px;stroke-miterlimit:10" />
  <path
     class="cls-6"
     d="m 293.6085,260.91494 c 0.1,12.74 0.14,25.47 0.35,38.21"
     id="path70"
     style="fill:none;stroke:#666666;stroke-width:3.84px;stroke-miterlimit:10" />
  <path
     class="cls-6"
     d="m 302.7285,260.46494 q -0.33,19.27 0,38.55"
     id="path72"
     style="fill:none;stroke:#666666;stroke-width:3.84px;stroke-miterlimit:10" />
  <path
     class="cls-6"
     d="m 310.7285,259.77494 c 0.44,13.08 0.49,26.17 0.46,39.26"
     id="path74"
     style="fill:none;stroke:#666666;stroke-width:3.84px;stroke-miterlimit:10" />
  <path
     class="cls-6"
     d="m 319.2485,260.18494 q -0.31,19.47001 0,38.94"
     id="path76"
     style="fill:none;stroke:#666666;stroke-width:3.84px;stroke-miterlimit:10" />
  <path
     class="cls-6"
     d="m 328.4685,259.46494 q 0.35,19.85 0,39.7"
     id="path78"
     style="fill:none;stroke:#666666;stroke-width:3.84px;stroke-miterlimit:10" />
  <path
     class="cls-6"
     d="m 389.9585,260.59494 q 0,19.22 0,38.41"
     id="path80"
     style="fill:none;stroke:#666666;stroke-width:3.84px;stroke-miterlimit:10" />
  <path
     class="cls-6"
     d="m 398.5785,260.73494 c 0.1,12.74 0.14,25.48 0.35,38.22"
     id="path82"
     style="fill:none;stroke:#666666;stroke-width:3.84px;stroke-miterlimit:10" />
  <path
     class="cls-6"
     d="m 407.6885,260.28494 q -0.31,19.26 0,38.54"
     id="path84"
     style="fill:none;stroke:#666666;stroke-width:3.84px;stroke-miterlimit:10" />
  <path
     class="cls-6"
     d="m 415.6985,259.59494 c 0.44,13.09 0.49,26.18 0.46,39.27"
     id="path86"
     style="fill:none;stroke:#666666;stroke-width:3.84px;stroke-miterlimit:10" />
  <path
     class="cls-6"
     d="m 424.2185,260.01495 q -0.31,19.46999 0,38.93999"
     id="path88"
     style="fill:none;stroke:#666666;stroke-width:3.84px;stroke-miterlimit:10" />
  <path
     class="cls-6"
     d="m 433.4385,259.24494 q 0.35,19.86 0,39.71"
     id="path90"
     style="fill:none;stroke:#666666;stroke-width:3.84px;stroke-miterlimit:10" />
  <path
     class="cls-6"
     d="m 443.5085,260.59494 q 0,19.22 0,38.41"
     id="path92"
     style="fill:none;stroke:#666666;stroke-width:3.84px;stroke-miterlimit:10" />
  <path
     class="cls-6"
     d="m 452.1285,260.73494 c 0.1,12.74 0.14,25.48 0.35,38.22"
     id="path94"
     style="fill:none;stroke:#666666;stroke-width:3.84px;stroke-miterlimit:10" />
  <path
     class="cls-6"
     d="m 461.2385,260.28494 q -0.32,19.26 0,38.54"
     id="path96"
     style="fill:none;stroke:#666666;stroke-width:3.84px;stroke-miterlimit:10" />
  <path
     class="cls-6"
     d="m 469.2485,259.59494 c 0.43,13.09 0.49,26.18 0.46,39.27"
     id="path98"
     style="fill:none;stroke:#666666;stroke-width:3.84px;stroke-miterlimit:10" />
  <path
     class="cls-6"
     d="m 477.7685,260.01495 q -0.31,19.46999 0,38.93999"
     id="path100"
     style="fill:none;stroke:#666666;stroke-width:3.84px;stroke-miterlimit:10" />
  <path
     class="cls-6"
     d="m 486.9885,259.24494 q 0.34,19.86 0,39.71"
     id="path102"
     style="fill:none;stroke:#666666;stroke-width:3.84px;stroke-miterlimit:10" />
  <path
     class="cls-6"
     d="m 496.9385,260.57494 q 0,19.2 0,38.4"
     id="path104"
     style="fill:none;stroke:#666666;stroke-width:3.84px;stroke-miterlimit:10" />
  <path
     class="cls-6"
     d="m 505.5685,260.71494 c 0.09,12.74 0.14,25.47 0.34,38.21"
     id="path106"
     style="fill:none;stroke:#666666;stroke-width:3.84px;stroke-miterlimit:10" />
  <path
     class="cls-6"
     d="m 514.6785,260.25494 q -0.33,19.27 0,38.55"
     id="path108"
     style="fill:none;stroke:#666666;stroke-width:3.84px;stroke-miterlimit:10" />
  <path
     class="cls-6"
     d="m 522.6785,259.57495 c 0.44,13.07999 0.49,26.16999 0.46,39.25999"
     id="path110"
     style="fill:none;stroke:#666666;stroke-width:3.84px;stroke-miterlimit:10" />
  <path
     class="cls-6"
     d="m 531.1985,259.98494 q -0.3,19.47 0,38.94"
     id="path112"
     style="fill:none;stroke:#666666;stroke-width:3.84px;stroke-miterlimit:10" />
  <path
     class="cls-6"
     d="m 540.4285,259.22494 q 0.33,19.85 0,39.7"
     id="path114"
     style="fill:none;stroke:#666666;stroke-width:3.84px;stroke-miterlimit:10" />
  <path
     class="cls-6"
     d="m 550.5985,261.46494 q 0,19.2 0,38.4"
     id="path116"
     style="fill:none;stroke:#666666;stroke-width:3.84px;stroke-miterlimit:10" />
  <path
     class="cls-6"
     d="m 559.2285,261.63494 c 0.09,12.74 0.13,25.48 0.34,38.21"
     id="path118"
     style="fill:none;stroke:#666666;stroke-width:3.84px;stroke-miterlimit:10" />
  <path
     class="cls-6"
     d="m 568.3385,261.17494 q -0.33,19.28 0,38.55"
     id="path120"
     style="fill:none;stroke:#666666;stroke-width:3.84px;stroke-miterlimit:10" />
  <path
     class="cls-6"
     d="m 576.3385,260.46494 c 0.44,13.08 0.49,26.17 0.46,39.26"
     id="path122"
     style="fill:none;stroke:#666666;stroke-width:3.84px;stroke-miterlimit:10" />
  <path
     class="cls-6"
     d="m 584.8585,260.90494 q -0.3,19.47 0,38.94"
     id="path124"
     style="fill:none;stroke:#666666;stroke-width:3.84px;stroke-miterlimit:10" />
  <path
     class="cls-6"
     d="m 594.1285,260.14494 q 0.33,19.85 0,39.7"
     id="path126"
     style="fill:none;stroke:#666666;stroke-width:3.84px;stroke-miterlimit:10" />
  <path
     class="cls-6"
     d="m 604.3185,260.59494 q 0,19.22 0,38.41"
     id="path128"
     style="fill:none;stroke:#666666;stroke-width:3.84px;stroke-miterlimit:10" />
  <path
     class="cls-6"
     d="m 612.9485,260.73494 c 0.1,12.74 0.14,25.48 0.35,38.22"
     id="path130"
     style="fill:none;stroke:#666666;stroke-width:3.84px;stroke-miterlimit:10" />
  <path
     class="cls-6"
     d="m 622.0585,260.28494 q -0.31,19.26 0,38.54"
     id="path132"
     style="fill:none;stroke:#666666;stroke-width:3.84px;stroke-miterlimit:10" />
  <path
     class="cls-6"
     d="m 630.0685,259.59494 c 0.43,13.09 0.49,26.18 0.46,39.27"
     id="path134"
     style="fill:none;stroke:#666666;stroke-width:3.84px;stroke-miterlimit:10" />
  <path
     class="cls-6"
     d="m 638.5885,260.01495 q -0.32,19.46999 0,38.93999"
     id="path136"
     style="fill:none;stroke:#666666;stroke-width:3.84px;stroke-miterlimit:10" />
  <path
     class="cls-6"
     d="m 647.8085,259.24494 q 0.35,19.86 0,39.71"
     id="path138"
     style="fill:none;stroke:#666666;stroke-width:3.84px;stroke-miterlimit:10" />
  <path
     class="cls-6"
     d="m 658.0585,260.55494 q 0,19.2 0,38.4"
     id="path140"
     style="fill:none;stroke:#666666;stroke-width:3.84px;stroke-miterlimit:10" />
  <path
     class="cls-6"
     d="m 666.6885,260.68494 c 0.1,12.74001 0.14,25.48001 0.34,38.22001"
     id="path142"
     style="fill:none;stroke:#666666;stroke-width:3.84px;stroke-miterlimit:10" />
  <path
     class="cls-6"
     d="m 675.7985,260.23494 q -0.33,19.26 0,38.54"
     id="path144"
     style="fill:none;stroke:#666666;stroke-width:3.84px;stroke-miterlimit:10" />
  <path
     class="cls-6"
     d="m 683.8085,259.54494 c 0.43,13.09 0.48,26.18 0.45,39.27"
     id="path146"
     style="fill:none;stroke:#666666;stroke-width:3.84px;stroke-miterlimit:10" />
  <path
     class="cls-6"
     d="m 692.3185,259.96494 q -0.3,19.47 0,38.94"
     id="path148"
     style="fill:none;stroke:#666666;stroke-width:3.84px;stroke-miterlimit:10" />
  <path
     class="cls-6"
     d="m 701.5485,259.19495 q 0.33,19.85999 0,39.70999"
     id="path150"
     style="fill:none;stroke:#666666;stroke-width:3.84px;stroke-miterlimit:10" />
  <path
     class="cls-6"
     d="m 708.5785,260.59494 q 0,19.22 0,38.41"
     id="path152"
     style="fill:none;stroke:#666666;stroke-width:3.84px;stroke-miterlimit:10" />
  <path
     class="cls-6"
     d="m 717.2085,260.73494 c 0.09,12.74 0.14,25.48 0.34,38.22"
     id="path154"
     style="fill:none;stroke:#666666;stroke-width:3.84px;stroke-miterlimit:10" />
  <path
     class="cls-6"
     d="m 726.3185,260.28494 q -0.33,19.26 0,38.54"
     id="path156"
     style="fill:none;stroke:#666666;stroke-width:3.84px;stroke-miterlimit:10" />
  <path
     class="cls-6"
     d="m 734.3185,259.59494 c 0.44,13.09 0.49,26.18 0.46,39.27"
     id="path158"
     style="fill:none;stroke:#666666;stroke-width:3.84px;stroke-miterlimit:10" />
  <path
     class="cls-6"
     d="m 742.8385,260.01495 q -0.3,19.46999 0,38.93999"
     id="path160"
     style="fill:none;stroke:#666666;stroke-width:3.84px;stroke-miterlimit:10" />
  <path
     class="cls-6"
     d="m 752.0685,259.24494 q 0.33,19.86 0,39.71"
     id="path162"
     style="fill:none;stroke:#666666;stroke-width:3.84px;stroke-miterlimit:10" />
  <path
     class="cls-6"
     d="m 129.2885,260.59494 q 0,19.22 0,38.41"
     id="path164"
     style="fill:none;stroke:#666666;stroke-width:3.84px;stroke-miterlimit:10" />
  <path
     class="cls-6"
     d="m 137.9185,260.73494 c 0.1,12.74 0.14,25.48 0.34,38.22"
     id="path166"
     style="fill:none;stroke:#666666;stroke-width:3.84px;stroke-miterlimit:10" />
  <path
     class="cls-6"
     d="m 147.0285,260.28494 q -0.33,19.26 0,38.54"
     id="path168"
     style="fill:none;stroke:#666666;stroke-width:3.84px;stroke-miterlimit:10" />
  <path
     class="cls-6"
     d="m 155.0385,259.59494 c 0.43,13.09 0.48,26.18 0.45,39.27"
     id="path170"
     style="fill:none;stroke:#666666;stroke-width:3.84px;stroke-miterlimit:10" />
  <path
     class="cls-6"
     d="m 163.5485,260.01495 q -0.3,19.46999 0,38.93999"
     id="path172"
     style="fill:none;stroke:#666666;stroke-width:3.84px;stroke-miterlimit:10" />
  <path
     class="cls-6"
     d="m 172.7785,259.24494 q 0.33,19.86 0,39.71"
     id="path174"
     style="fill:none;stroke:#666666;stroke-width:3.84px;stroke-miterlimit:10" />
  <path
     class="cls-7"
     d="m 179.9585,259.46494 q 0.61,20.71 1.24,41.44"
     id="path176"
     style="fill:none;stroke:#666666;stroke-width:2.96px;stroke-miterlimit:10" />
  <path
     class="cls-7"
     d="m 188.5385,260.29494 0.37,40.33"
     id="path178"
     style="fill:none;stroke:#666666;stroke-width:2.96px;stroke-miterlimit:10" />
  <path
     class="cls-7"
     d="m 197.7985,260.60494 q -0.24,21.08 -0.47,42.16"
     id="path180"
     style="fill:none;stroke:#666666;stroke-width:2.96px;stroke-miterlimit:10" />
  <path
     class="cls-7"
     d="m 205.5585,260.12494 q -0.15,20.2 -0.31,40.39"
     id="path182"
     style="fill:none;stroke:#666666;stroke-width:2.96px;stroke-miterlimit:10" />
  <path
     class="cls-7"
     d="m 214.2785,260.04494 q -0.09,20.21 -0.16,40.41"
     id="path184"
     style="fill:none;stroke:#666666;stroke-width:2.96px;stroke-miterlimit:10" />
  <path
     class="cls-7"
     d="m 223.0085,260.04494 q -0.06,20.18 -0.11,40.36"
     id="path186"
     style="fill:none;stroke:#666666;stroke-width:2.96px;stroke-miterlimit:10" />
  <path
     class="cls-8"
     d="m 232.4685,260.17494 q 0,19.13 0,38.23"
     id="path188"
     style="fill:none;stroke:#666666;stroke-width:3.61px;stroke-miterlimit:10" />
  <path
     class="cls-8"
     d="m 241.0685,259.46494 c 0.13,13.21 0.17,26.42 0.43,39.62"
     id="path190"
     style="fill:none;stroke:#666666;stroke-width:3.61px;stroke-miterlimit:10" />
  <path
     class="cls-8"
     d="m 250.2485,259.63495 q -0.42,19.6 0,39.22999"
     id="path192"
     style="fill:none;stroke:#666666;stroke-width:3.61px;stroke-miterlimit:10" />
  <path
     class="cls-8"
     d="m 258.0085,259.70495 c -0.05,13.15999 1.41,26.29999 0.81,39.47"
     id="path194"
     style="fill:none;stroke:#666666;stroke-width:3.61px;stroke-miterlimit:10" />
  <path
     class="cls-8"
     d="m 266.7885,259.61494 q -0.41,19.64 -0.06,39.27"
     id="path196"
     style="fill:none;stroke:#666666;stroke-width:3.61px;stroke-miterlimit:10" />
  <path
     class="cls-8"
     d="m 275.9085,259.52494 q 0.41,19.62 0.06,39.25"
     id="path198"
     style="fill:none;stroke:#666666;stroke-width:3.61px;stroke-miterlimit:10" />
  <line
     class="cls-9"
     x1="164.82851"
     y1="259.37494"
     x2="760.50848"
     y2="261.44495"
     id="line200"
     style="fill:none;stroke:#c0bbb8;stroke-width:3.87px;stroke-miterlimit:10" />
  <path
     class="cls-10"
     d="m 678.0285,295.01494 -495.4,3.35 -1.45,0.21 c -16.15,2.15 -32.79,3.66001 -49.43,5.07 -8.11,0.69 -16.27,1.36 -24.4,2.07 l -23.499999,144.13 H 786.9485 l -31.82,-141.21 c -24.48,-5.54 -51.4,-9.07 -77.1,-13.62 z"
     id="path202"
     style="fill:#d9c0bb" />
  <path
     class="cls-11"
     d="m 753.3385,100.66494 a 1781.07,1781.07 0 0 0 -650.59,-1.709996 l -9.089999,-17.67 L 431.2385,6.4649439 v 0 l 334.71,73.0000001 q -6.31,10.61 -12.61,21.199996 z"
     id="path204"
     style="fill:#d9c0bb;fill-rule:evenodd" />
  <path
     class="cls-12"
     d="m 298.4085,394.14494 -128.06,-1.39 v 0 c 0,0 7.13,-218.33999 7.13,-218.35999 v 0 c 0,-0.06 4.32,-21.17001 11.36,-32.7 9.33,-15.29 30.69,-25.56 51.18,-24.42 26.1,1.46 49.31,21.33 56,49.14 z"
     id="path206"
     style="fill:none;stroke:#7f6757;stroke-width:38.05px;stroke-miterlimit:10" />
  <path
     class="cls-12"
     d="m 684.5385,393.18494 -128.06,-1.38999 v 0 c 0,0 7.14,-218.33 7.14,-218.33 v 0 c 0,-0.06 4.32,-21.17 11.35,-32.7 9.33,-15.29 30.69,-25.56 51.19,-24.42 26.09,1.45 49.31,21.33 56,49.14 q 1.21,113.83999 2.38,227.69999 z"
     id="path208"
     style="fill:none;stroke:#7f6757;stroke-width:38.05px;stroke-miterlimit:10" />
  <path
     class="cls-13"
     d="m 534.0685,401.72494 -206.38,-2.83 q 3.24,-107.55 6.49,-215.08 c 1.53,-55.30999 41.53,-99.999996 89.88,-103.909996 52.54,-4.24 101.21,40.789996 104.64,100.999996 z"
     id="path210"
     style="fill:none;stroke:#7f6757;stroke-width:37.24px;stroke-miterlimit:10" />
  <line
     class="cls-14"
     x1="313.04852"
     y1="193.67496"
     x2="313.04852"
     y2="394.86493"
     id="line212"
     style="fill:none;stroke:#38312d;stroke-width:0.97px;stroke-miterlimit:10" />
  <line
     class="cls-14"
     x1="548.86853"
     y1="199.58495"
     x2="549.31854"
     y2="394.72495"
     id="line214"
     style="fill:none;stroke:#38312d;stroke-width:0.97px;stroke-miterlimit:10" />
  <path
     class="cls-15"
     d="m 709.9185,448.81494 c -2.6,-37 -6,-83 -10.5,-135.65999 -11.72,-138.59001 -19.29,-192.35 -48.29,-201.42001 -13.89,-4.34 -30.64,2.21 -42.72,6.92001 -33.29,13 -35,32.99999 -53.22,38.06999 -41.31,11.38 -72.06,-80.259996 -126.79,-79.589996 -51.55,0.63 -76.15,82.719996 -117.65,73.359996 -24.12,-5.43 -25.47,-35.34999 -54.62,-41.52999 -31.26,-6.61001 -61.64,21 -66.53,25.61 a 96.34,96.34 0 0 0 -7.25,7.88999 c -30.13,37.42001 -23.51,136.13 -22.16,161.69 1.82,34.59 1.86,84 -7,145.69 q -17.66,0.66 -36.41,0.7 -14,0 -27.309999,-0.34 c 0,0 15.379999,-324.20999 15.399999,-324.61999 q 1.41,-13.84 2.8,-27.690006 c 173.52,-37.43 244.17,-57.64 272.46,-69.22 l 53.92,-22.1400001 c 0,0 80.64,31.3200001 91,35.3000001 44,16.79 116,35.1 238.8,41.52 -4.53,12.11 -7,18.689996 -7,18.689996 0,0 29.41,348.16 29.41,348.16 z"
     id="path216"
     style="fill:#db9b71" />
  <path
     class="cls-16"
     d="m 334.2485,178.55494 c 11.14,-54.10999 47.67,-93.619996 90.11,-98.549996 48.84,-5.67 96.23,35.550006 109.71,98.549996"
     id="path218"
     style="fill:none;stroke:#f4ae7f;stroke-width:58.02px;stroke-miterlimit:10" />
  <path
     class="cls-17"
     d="m 174.8885,174.74494 c 7.11,-33.66999 30.41,-58.25999 57.48,-61.33 31.15,-3.53 61.38,22.13001 70,61.33"
     id="path220"
     style="fill:none;stroke:#f2b186;stroke-width:34.2px;stroke-miterlimit:10" />
  <path
     class="cls-17"
     d="m 560.9585,174.74494 c -1.23,-35.31 27.56,-64.45999 61.46,-64.64 35.14,-0.19 64.84,30.78001 62,67.32"
     id="path222"
     style="fill:none;stroke:#f2b186;stroke-width:34.2px;stroke-miterlimit:10" />
  <line
     class="cls-18"
     x1="701.72845"
     y1="183.17496"
     x2="701.72845"
     y2="352.60495"
     id="line224"
     style="fill:none;stroke:#38312d;stroke-width:1.93px;stroke-miterlimit:10" />
  <line
     class="cls-18"
     x1="157.59851"
     y1="195.50494"
     x2="157.59851"
     y2="364.93494"
     id="line226"
     style="fill:none;stroke:#38312d;stroke-width:1.93px;stroke-miterlimit:10" />
  <line
     class="cls-19"
     x1="534.84851"
     y1="187.12495"
     x2="534.06854"
     y2="407.41495"
     id="line228"
     style="fill:none;stroke:#f2b186;stroke-width:25.14px;stroke-miterlimit:10" />
  <line
     class="cls-19"
     x1="563.78851"
     y1="187.22495"
     x2="563.00854"
     y2="407.51492"
     id="line230"
     style="fill:none;stroke:#f2b186;stroke-width:25.14px;stroke-miterlimit:10" />
  <line
     class="cls-19"
     x1="299.13852"
     y1="187.17496"
     x2="298.35852"
     y2="407.46494"
     id="line232"
     style="fill:none;stroke:#f2b186;stroke-width:25.14px;stroke-miterlimit:10" />
  <line
     class="cls-19"
     x1="328.07852"
     y1="187.27495"
     x2="327.29852"
     y2="407.56494"
     id="line234"
     style="fill:none;stroke:#f2b186;stroke-width:25.14px;stroke-miterlimit:10" />
  <line
     class="cls-19"
     x1="171.07851"
     y1="184.86494"
     x2="170.29851"
     y2="405.15494"
     id="line236"
     style="fill:none;stroke:#f2b186;stroke-width:25.14px;stroke-miterlimit:10" />
  <line
     class="cls-19"
     x1="688.79846"
     y1="187.65495"
     x2="688.01849"
     y2="407.95493"
     id="line238"
     style="fill:none;stroke:#f2b186;stroke-width:25.14px;stroke-miterlimit:10" />
  <rect
     class="cls-20"
     x="271.5285"
     y="162.31496"
     width="90.93"
     height="38.02"
     id="rect240"
     style="fill:#e0af8d;stroke:#603813;stroke-width:1.93px;stroke-miterlimit:10" />
  <rect
     class="cls-21"
     x="497.72852"
     y="158.50494"
     width="94.540001"
     height="41.82"
     id="rect242"
     style="fill:#e0af8d;stroke:#603813;stroke-width:2.19px;stroke-miterlimit:10" />
  <rect
     class="cls-20"
     x="145.47852"
     y="162.31496"
     width="50.419998"
     height="32.48"
     id="rect244"
     style="fill:#e0af8d;stroke:#603813;stroke-width:1.93px;stroke-miterlimit:10" />
  <rect
     class="cls-20"
     x="663.19849"
     y="162.31496"
     width="50.419998"
     height="32.48"
     id="rect246"
     style="fill:#e0af8d;stroke:#603813;stroke-width:1.93px;stroke-miterlimit:10" />
  <path
     class="cls-22"
     d="m 97.858501,97.894944 331.939999,-72 329.14,67.83"
     id="path248"
     style="fill:none;stroke:#cc9f80;stroke-width:32.03px;stroke-miterlimit:10" />
  <rect
     class="cls-23"
     x="396.57852"
     y="329.07492"
     width="64.860001"
     height="64.110001"
     id="rect250"
     style="fill:#5a2708" />
  <rect
     class="cls-24"
     x="395.00851"
     y="329.07492"
     width="34"
     height="64.110001"
     id="rect252"
     style="fill:#5c596a" />
  <rect
     class="cls-25"
     x="402.48849"
     y="336.06494"
     width="19.32"
     height="36.25"
     id="rect254"
     style="fill:none;stroke:#201a24;stroke-width:3.37px;stroke-miterlimit:10" />
  <rect
     class="cls-26"
     x="402.48849"
     y="377.98492"
     width="19.32"
     height="12"
     id="rect256"
     style="fill:none;stroke:#201a24;stroke-width:3.16px;stroke-miterlimit:10" />
  <polygon
     class="cls-27"
     points="461.31,337.61 461.31,401.72 451.51,401.17 453.22,340.6 "
     id="polygon258"
     style="fill:#5c5a68"
     transform="translate(0.12850108,-8.5350561)" />
  <rect
     class="cls-28"
     x="384.2785"
     y="317.30493"
     width="91.25"
     height="76.839996"
     id="rect260"
     style="fill:none;stroke:#b78484;stroke-width:2.86px;stroke-miterlimit:10" />
  <rect
     class="cls-29"
     x="371.10852"
     y="302.39493"
     width="115.94"
     height="90.190002"
     id="rect262"
     style="fill:none;stroke:#b78484;stroke-width:3.49px;stroke-miterlimit:10" />
  <path
     class="cls-6"
     d="m 309.8385,355.59494 q 0,19.2 0,38.4"
     id="path264"
     style="fill:none;stroke:#666666;stroke-width:3.84px;stroke-miterlimit:10" />
  <path
     class="cls-6"
     d="m 318.4585,355.73494 c 0.1,12.73 0.14,25.47 0.35,38.21"
     id="path266"
     style="fill:none;stroke:#666666;stroke-width:3.84px;stroke-miterlimit:10" />
  <path
     class="cls-6"
     d="m 327.5785,355.27494 q -0.33,19.28 0,38.55"
     id="path268"
     style="fill:none;stroke:#666666;stroke-width:3.84px;stroke-miterlimit:10" />
  <path
     class="cls-6"
     d="m 335.5785,354.59494 c 0.44,13.08 0.49,26.17 0.46,39.26"
     id="path270"
     style="fill:none;stroke:#666666;stroke-width:3.84px;stroke-miterlimit:10" />
  <path
     class="cls-6"
     d="m 344.1285,355.00494 q -0.32,19.47 0,38.94"
     id="path272"
     style="fill:none;stroke:#666666;stroke-width:3.84px;stroke-miterlimit:10" />
  <path
     class="cls-6"
     d="m 353.3185,354.24494 q 0.35,19.85 0,39.7"
     id="path274"
     style="fill:none;stroke:#666666;stroke-width:3.84px;stroke-miterlimit:10" />
  <path
     class="cls-6"
     d="m 257.5085,355.74494 q 0,19.2 0,38.4"
     id="path276"
     style="fill:none;stroke:#666666;stroke-width:3.84px;stroke-miterlimit:10" />
  <path
     class="cls-6"
     d="m 266.1285,355.88494 c 0.09,12.73 0.14,25.47 0.34,38.21"
     id="path278"
     style="fill:none;stroke:#666666;stroke-width:3.84px;stroke-miterlimit:10" />
  <path
     class="cls-6"
     d="m 275.2485,355.46494 q -0.33,19.28 0,38.55"
     id="path280"
     style="fill:none;stroke:#666666;stroke-width:3.84px;stroke-miterlimit:10" />
  <path
     class="cls-6"
     d="m 283.2485,354.74494 c 0.44,13.08 0.49,26.17 0.46,39.26"
     id="path282"
     style="fill:none;stroke:#666666;stroke-width:3.84px;stroke-miterlimit:10" />
  <path
     class="cls-6"
     d="m 291.7685,355.15494 q -0.3,19.47 0,38.94"
     id="path284"
     style="fill:none;stroke:#666666;stroke-width:3.84px;stroke-miterlimit:10" />
  <path
     class="cls-6"
     d="m 300.9985,354.39494 q 0.33,19.85 0,39.7"
     id="path286"
     style="fill:none;stroke:#666666;stroke-width:3.84px;stroke-miterlimit:10" />
  <path
     class="cls-6"
     d="m 362.4785,355.56494 q 0,19.2 0,38.4"
     id="path288"
     style="fill:none;stroke:#666666;stroke-width:3.84px;stroke-miterlimit:10" />
  <path
     class="cls-6"
     d="m 371.1285,355.70494 c 0.09,12.74 0.14,25.48 0.34,38.21"
     id="path290"
     style="fill:none;stroke:#666666;stroke-width:3.84px;stroke-miterlimit:10" />
  <path
     class="cls-6"
     d="m 380.2185,355.24494 q -0.33,19.28 0,38.55"
     id="path292"
     style="fill:none;stroke:#666666;stroke-width:3.84px;stroke-miterlimit:10" />
  <path
     class="cls-6"
     d="m 388.2185,354.56494 c 0.44,13.08 0.49,26.18 0.46,39.27"
     id="path294"
     style="fill:none;stroke:#666666;stroke-width:3.84px;stroke-miterlimit:10" />
  <path
     class="cls-6"
     d="m 396.7385,354.97494 q -0.3,19.47 0,38.95"
     id="path296"
     style="fill:none;stroke:#666666;stroke-width:3.84px;stroke-miterlimit:10" />
  <path
     class="cls-6"
     d="m 405.9685,354.21494 q 0.33,19.85 0,39.7"
     id="path298"
     style="fill:none;stroke:#666666;stroke-width:3.84px;stroke-miterlimit:10" />
  <path
     class="cls-6"
     d="m 416.0285,355.56494 q 0,19.2 0,38.4"
     id="path300"
     style="fill:none;stroke:#666666;stroke-width:3.84px;stroke-miterlimit:10" />
  <path
     class="cls-6"
     d="m 424.6585,355.70494 c 0.09,12.74 0.13,25.48 0.34,38.21"
     id="path302"
     style="fill:none;stroke:#666666;stroke-width:3.84px;stroke-miterlimit:10" />
  <path
     class="cls-6"
     d="m 433.7685,355.24494 q -0.33,19.28 0,38.55"
     id="path304"
     style="fill:none;stroke:#666666;stroke-width:3.84px;stroke-miterlimit:10" />
  <path
     class="cls-6"
     d="m 441.7685,354.56494 c 0.44,13.08 0.49,26.18 0.46,39.27"
     id="path306"
     style="fill:none;stroke:#666666;stroke-width:3.84px;stroke-miterlimit:10" />
  <path
     class="cls-6"
     d="m 450.2885,354.97494 q -0.3,19.47 0,38.95"
     id="path308"
     style="fill:none;stroke:#666666;stroke-width:3.84px;stroke-miterlimit:10" />
  <path
     class="cls-6"
     d="m 459.5185,354.21494 q 0.33,19.85 0,39.7"
     id="path310"
     style="fill:none;stroke:#666666;stroke-width:3.84px;stroke-miterlimit:10" />
  <path
     class="cls-6"
     d="m 469.4585,355.54494 q 0,19.2 0,38.4"
     id="path312"
     style="fill:none;stroke:#666666;stroke-width:3.84px;stroke-miterlimit:10" />
  <path
     class="cls-6"
     d="m 478.1285,355.68494 c 0.1,12.73001 0.14,25.47001 0.34,38.21"
     id="path314"
     style="fill:none;stroke:#666666;stroke-width:3.84px;stroke-miterlimit:10" />
  <path
     class="cls-6"
     d="m 487.1985,355.22494 q -0.31,19.28 0,38.55"
     id="path316"
     style="fill:none;stroke:#666666;stroke-width:3.84px;stroke-miterlimit:10" />
  <path
     class="cls-6"
     d="m 495.2085,354.54494 c 0.43,13.08 0.48,26.17 0.45,39.26"
     id="path318"
     style="fill:none;stroke:#666666;stroke-width:3.84px;stroke-miterlimit:10" />
  <path
     class="cls-6"
     d="m 503.7185,354.95494 q -0.3,19.47001 0,38.94"
     id="path320"
     style="fill:none;stroke:#666666;stroke-width:3.84px;stroke-miterlimit:10" />
  <path
     class="cls-6"
     d="m 512.9485,354.19494 q 0.33,19.84 0,39.7"
     id="path322"
     style="fill:none;stroke:#666666;stroke-width:3.84px;stroke-miterlimit:10" />
  <path
     class="cls-6"
     d="m 523.1285,356.46494 q 0,19.2 0,38.4"
     id="path324"
     style="fill:none;stroke:#666666;stroke-width:3.84px;stroke-miterlimit:10" />
  <path
     class="cls-6"
     d="m 531.7485,356.60494 c 0.1,12.73 0.14,25.47 0.34,38.21"
     id="path326"
     style="fill:none;stroke:#666666;stroke-width:3.84px;stroke-miterlimit:10" />
  <path
     class="cls-6"
     d="m 540.8585,356.14494 q -0.33,19.27 0,38.55"
     id="path328"
     style="fill:none;stroke:#666666;stroke-width:3.84px;stroke-miterlimit:10" />
  <path
     class="cls-6"
     d="m 548.8685,355.46494 c 0.43,13.08 0.48,26.17 0.45,39.26"
     id="path330"
     style="fill:none;stroke:#666666;stroke-width:3.84px;stroke-miterlimit:10" />
  <path
     class="cls-6"
     d="m 557.3785,355.87494 q -0.3,19.47 0,38.94"
     id="path332"
     style="fill:none;stroke:#666666;stroke-width:3.84px;stroke-miterlimit:10" />
  <path
     class="cls-6"
     d="m 566.6085,355.11494 q 0.33,19.85 0,39.7"
     id="path334"
     style="fill:none;stroke:#666666;stroke-width:3.84px;stroke-miterlimit:10" />
  <path
     class="cls-6"
     d="m 576.8485,355.56494 q 0,19.2 0,38.4"
     id="path336"
     style="fill:none;stroke:#666666;stroke-width:3.84px;stroke-miterlimit:10" />
  <path
     class="cls-6"
     d="m 585.4785,355.70494 c 0.09,12.74 0.13,25.48 0.34,38.21"
     id="path338"
     style="fill:none;stroke:#666666;stroke-width:3.84px;stroke-miterlimit:10" />
  <path
     class="cls-6"
     d="m 594.5885,355.24494 q -0.33,19.28 0,38.55"
     id="path340"
     style="fill:none;stroke:#666666;stroke-width:3.84px;stroke-miterlimit:10" />
  <path
     class="cls-6"
     d="m 602.5885,354.56494 c 0.44,13.08 0.49,26.18 0.46,39.27"
     id="path342"
     style="fill:none;stroke:#666666;stroke-width:3.84px;stroke-miterlimit:10" />
  <path
     class="cls-6"
     d="m 611.1285,354.97494 q -0.32,19.47 0,38.95"
     id="path344"
     style="fill:none;stroke:#666666;stroke-width:3.84px;stroke-miterlimit:10" />
  <path
     class="cls-6"
     d="m 620.3285,354.21494 q 0.34,19.85 0,39.7"
     id="path346"
     style="fill:none;stroke:#666666;stroke-width:3.84px;stroke-miterlimit:10" />
  <path
     class="cls-6"
     d="m 630.5785,355.51494 q 0,19.2 0,38.4"
     id="path348"
     style="fill:none;stroke:#666666;stroke-width:3.84px;stroke-miterlimit:10" />
  <path
     class="cls-6"
     d="m 639.2085,355.65494 c 0.1,12.74 0.14,25.48 0.35,38.21"
     id="path350"
     style="fill:none;stroke:#666666;stroke-width:3.84px;stroke-miterlimit:10" />
  <path
     class="cls-6"
     d="m 648.3185,355.19494 q -0.32,19.27 0,38.55"
     id="path352"
     style="fill:none;stroke:#666666;stroke-width:3.84px;stroke-miterlimit:10" />
  <path
     class="cls-6"
     d="m 656.3285,354.51494 c 0.43,13.08 0.49,26.18 0.46,39.27"
     id="path354"
     style="fill:none;stroke:#666666;stroke-width:3.84px;stroke-miterlimit:10" />
  <path
     class="cls-6"
     d="m 664.8485,354.92494 q -0.32,19.47 0,39"
     id="path356"
     style="fill:none;stroke:#666666;stroke-width:3.84px;stroke-miterlimit:10" />
  <path
     class="cls-6"
     d="m 674.0685,354.16494 q 0.34,19.85 0,39.7"
     id="path358"
     style="fill:none;stroke:#666666;stroke-width:3.84px;stroke-miterlimit:10" />
  <path
     class="cls-6"
     d="m 681.1285,355.56494 q 0,19.2 0,38.4"
     id="path360"
     style="fill:none;stroke:#666666;stroke-width:3.84px;stroke-miterlimit:10" />
  <path
     class="cls-6"
     d="m 689.7285,355.70494 c 0.1,12.74 0.14,25.48 0.34,38.21"
     id="path362"
     style="fill:none;stroke:#666666;stroke-width:3.84px;stroke-miterlimit:10" />
  <path
     class="cls-6"
     d="m 698.8385,355.24494 q -0.32,19.28 0,38.55"
     id="path364"
     style="fill:none;stroke:#666666;stroke-width:3.84px;stroke-miterlimit:10" />
  <path
     class="cls-6"
     d="m 706.8485,354.56494 c 0.43,13.08 0.48,26.18 0.45,39.27"
     id="path366"
     style="fill:none;stroke:#666666;stroke-width:3.84px;stroke-miterlimit:10" />
  <path
     class="cls-6"
     d="m 715.3585,354.97494 q -0.3,19.47 0,38.95"
     id="path368"
     style="fill:none;stroke:#666666;stroke-width:3.84px;stroke-miterlimit:10" />
  <path
     class="cls-6"
     d="m 724.5885,354.21494 q 0.33,19.85 0,39.7"
     id="path370"
     style="fill:none;stroke:#666666;stroke-width:3.84px;stroke-miterlimit:10" />
  <path
     class="cls-6"
     d="m 101.8185,355.56494 q 0,19.2 0,38.4"
     id="path372"
     style="fill:none;stroke:#666666;stroke-width:3.84px;stroke-miterlimit:10" />
  <path
     class="cls-6"
     d="m 110.4385,355.70494 c 0.1,12.74 0.14,25.48 0.35,38.21"
     id="path374"
     style="fill:none;stroke:#666666;stroke-width:3.84px;stroke-miterlimit:10" />
  <path
     class="cls-6"
     d="m 119.5485,355.24494 q -0.32,19.28 0,38.55"
     id="path376"
     style="fill:none;stroke:#666666;stroke-width:3.84px;stroke-miterlimit:10" />
  <path
     class="cls-6"
     d="m 127.5585,354.56494 c 0.43,13.08 0.49,26.18 0.46,39.27"
     id="path378"
     style="fill:none;stroke:#666666;stroke-width:3.84px;stroke-miterlimit:10" />
  <path
     class="cls-6"
     d="m 136.1285,354.97494 q -0.31,19.47 0,38.95"
     id="path380"
     style="fill:none;stroke:#666666;stroke-width:3.84px;stroke-miterlimit:10" />
  <path
     class="cls-6"
     d="m 145.2985,354.21494 q 0.35,19.85 0,39.7"
     id="path382"
     style="fill:none;stroke:#666666;stroke-width:3.84px;stroke-miterlimit:10" />
  <path
     class="cls-7"
     d="m 152.4785,354.39494 v 27.56"
     id="path384"
     style="fill:none;stroke:#666666;stroke-width:2.96px;stroke-miterlimit:10" />
  <path
     class="cls-7"
     d="m 161.0685,355.26494 0.46,27.55"
     id="path386"
     style="fill:none;stroke:#666666;stroke-width:2.96px;stroke-miterlimit:10" />
  <path
     class="cls-7"
     d="m 170.3185,355.57494 q -0.47,13.67 -0.12,27.34"
     id="path388"
     style="fill:none;stroke:#666666;stroke-width:2.96px;stroke-miterlimit:10" />
  <path
     class="cls-7"
     d="m 178.1285,355.09494 c 0.51,9.24 0.6,18.5 0.64,27.75"
     id="path390"
     style="fill:none;stroke:#666666;stroke-width:2.96px;stroke-miterlimit:10" />
  <path
     class="cls-7"
     d="m 186.7985,355.01494 v 27.73"
     id="path392"
     style="fill:none;stroke:#666666;stroke-width:2.96px;stroke-miterlimit:10" />
  <path
     class="cls-7"
     d="m 195.8985,355.01494 v 28.93"
     id="path394"
     style="fill:none;stroke:#666666;stroke-width:2.96px;stroke-miterlimit:10" />
  <path
     class="cls-8"
     d="m 204.9985,355.14494 q 0,19.11 0,38.23"
     id="path396"
     style="fill:none;stroke:#666666;stroke-width:3.61px;stroke-miterlimit:10" />
  <path
     class="cls-8"
     d="m 213.5885,354.39494 c 0.13,13.2 0.17,26.41 0.44,39.62"
     id="path398"
     style="fill:none;stroke:#666666;stroke-width:3.61px;stroke-miterlimit:10" />
  <path
     class="cls-8"
     d="m 222.7685,354.60494 q -0.42,19.61 0,39.22"
     id="path400"
     style="fill:none;stroke:#666666;stroke-width:3.61px;stroke-miterlimit:10" />
  <path
     class="cls-8"
     d="m 230.5285,354.66494 c -0.05,13.17 1.41,26.31 0.81,39.48"
     id="path402"
     style="fill:none;stroke:#666666;stroke-width:3.61px;stroke-miterlimit:10" />
  <path
     class="cls-8"
     d="m 239.3185,354.58494 q -0.41,19.63 -0.07,39.27"
     id="path404"
     style="fill:none;stroke:#666666;stroke-width:3.61px;stroke-miterlimit:10" />
  <path
     class="cls-8"
     d="m 248.4285,354.46494 q 0.42,19.64 0.06,39.26"
     id="path406"
     style="fill:none;stroke:#666666;stroke-width:3.61px;stroke-miterlimit:10" />
  <line
     class="cls-9"
     x1="137.34851"
     y1="354.33493"
     x2="733.0285"
     y2="356.41495"
     id="line408"
     style="fill:none;stroke:#c0bbb8;stroke-width:3.87px;stroke-miterlimit:10" />
  <rect
     class="cls-30"
     x="195.8985"
     y="393.18494"
     width="443.64999"
     height="56.66"
     id="rect410"
     style="fill:#c0bbb8" />
  <path
     class="cls-31"
     d="m 241.6985,396.56494 -43.42,-1.38999 0.7,-30.45 -60.93,-0.7 v -25.56001 l -53.919999,-1.43 -1.4,-23.57 -49.72,1.38 v 135.7 H 240.2985 c -3.86,-9.27 1.4,-53.98 1.4,-53.98 z"
     id="path412"
     style="fill:#746e72;stroke:#201a24;stroke-width:2.9px;stroke-miterlimit:10" />
  <path
     class="cls-31"
     d="m 584.0685,396.56494 43.42,-1.38999 -0.7,-30.45 60.92,-0.7 v -25.56001 l 53.93,-1.38 1.4,-23.53 49.72,1.38 v 135.61 h -207.29 c 3.85,-9.27 -1.4,-53.98 -1.4,-53.98 z"
     id="path414"
     style="fill:#746e72;stroke:#201a24;stroke-width:2.9px;stroke-miterlimit:10" />
  <path
     class="cls-32"
     d="m 118.7785,565.76494 -81.579999,-0.15 q 1.68,-17.41999 3.37,-34.85 l 42.3,0.27 5,-35.2 32.259999,-1.37 4.49,-29.84 27.28,-1.59 3.37,-24 47.06,-2.64 24.35,18 q -28.8,31.45 -60.14,63.61 -24.04,24.65 -47.76,47.76 z"
     id="path416"
     style="fill:#ada08d" />
  <path
     class="cls-33"
     d="m 151.7085,462.30494 45.3,-1.11 q 0.76,-12.41 1.52,-24.8 l -44.84,2.79 z"
     id="path418"
     style="fill:#dbd0c1" />
  <path
     class="cls-33"
     d="m 121.9385,494.53494 42.76,-1.64 3.06,-29.56 -44.06,1.2 q -0.87,15 -1.76,30 z"
     id="path420"
     style="fill:#dbd0c1" />
  <path
     class="cls-33"
     d="m 83.578501,530.16495 39.489999,-0.14 2.58,-35.44 -39.129999,1.54 z"
     id="path422"
     style="fill:#dbd0c1" />
  <path
     class="cls-33"
     d="m 38.218501,564.46495 45.54,0.45 5,-34.3 -48.09,0.67 z"
     id="path424"
     style="fill:#dbd0c1" />
  <path
     class="cls-34"
     d="m 120.1285,494.46494 q 2.25,-14.93 4.49,-29.84 l 74.51,-1.16"
     id="path426"
     style="fill:none;stroke:#38312d;stroke-width:2.03px;stroke-miterlimit:10" />
  <path
     class="cls-34"
     d="m 83.258501,528.22495 4.59,-32.39001 77.449999,-3"
     id="path428"
     style="fill:none;stroke:#38312d;stroke-width:2.03px;stroke-miterlimit:10" />
  <path
     class="cls-34"
     d="m 37.198501,565.61494 v 0 l 2.64,-35.61 v 0 l 84.149999,-0.62"
     id="path430"
     style="fill:none;stroke:#38312d;stroke-width:2.03px;stroke-miterlimit:10" />
  <path
     class="cls-34"
     d="m 151.8985,463.00494 q 0.85,-12 1.7,-24.08999 v 0 l 45.62,-2.45001 q -1,13.51 -2.06,27"
     id="path432"
     style="fill:none;stroke:#38312d;stroke-width:2.03px;stroke-miterlimit:10" />
  <line
     class="cls-34"
     x1="167.8185"
     y1="462.52493"
     x2="165.29851"
     y2="492.87494"
     id="line434"
     style="fill:none;stroke:#38312d;stroke-width:2.03px;stroke-miterlimit:10" />
  <line
     class="cls-34"
     x1="127.4985"
     y1="494.06494"
     x2="123.3985"
     y2="529.38495"
     id="line436"
     style="fill:none;stroke:#38312d;stroke-width:2.03px;stroke-miterlimit:10" />
  <path
     class="cls-35"
     d="m 87.928501,529.46495 -4.17,35.46"
     id="path438"
     style="fill:none;stroke:#38312d;stroke-width:1.85px;stroke-miterlimit:10" />
  <path
     class="cls-32"
     d="m 724.5885,564.71495 81.58,-0.14 q -1.68,-17.43 -3.37,-34.85 l -42.29,0.26 -5,-35.20001 -32.28,-1.39 -4.48,-29.85 -27.29,-1.59 -3.37,-24 -47.05,-2.65 -24.36,18 q 28.82,31.46 60.15,63.61001 24.06,24.69 47.76,47.8 z"
     id="path440"
     style="fill:#ada08d" />
  <path
     class="cls-33"
     d="m 691.6585,461.25494 -45.3,-1.11 q -0.75,-12.39 -1.52,-24.8 l 44.85,2.79 q 0.99,11.57 1.97,23.12 z"
     id="path442"
     style="fill:#dbd0c1" />
  <path
     class="cls-33"
     d="m 721.4285,493.46494 -42.76,-1.63 q -1.53,-14.79 -3,-29.57 l 44,1.2 q 0.89,15 1.76,30 z"
     id="path444"
     style="fill:#dbd0c1" />
  <path
     class="cls-33"
     d="m 759.7885,529.12494 -39.49,-0.14999 q -1.29,-17.71001 -2.57,-35.44001 l 39.12,1.54 z"
     id="path446"
     style="fill:#dbd0c1" />
  <path
     class="cls-33"
     d="m 805.1285,563.46495 -45.54,0.45 -5,-34.3 48.09,0.67 z"
     id="path448"
     style="fill:#dbd0c1" />
  <path
     class="cls-34"
     d="m 723.2385,493.39494 q -2.24,-14.93 -4.48,-29.85 l -74.52,-1.08"
     id="path450"
     style="fill:none;stroke:#38312d;stroke-width:2.03px;stroke-miterlimit:10" />
  <path
     class="cls-34"
     d="m 760.1285,527.17495 -4.59,-32.39001 -77.41,-2.95"
     id="path452"
     style="fill:none;stroke:#38312d;stroke-width:2.03px;stroke-miterlimit:10" />
  <path
     class="cls-34"
     d="m 806.1285,564.57495 v 0 l -2.64,-35.62 v 0 l -84.15,-0.62"
     id="path454"
     style="fill:none;stroke:#38312d;stroke-width:2.03px;stroke-miterlimit:10" />
  <path
     class="cls-34"
     d="m 691.4685,461.95494 q -0.86,-12 -1.7,-24.09 v 0 l -45.64,-2.4 q 1,13.51 2.06,27.05"
     id="path456"
     style="fill:none;stroke:#38312d;stroke-width:2.03px;stroke-miterlimit:10" />
  <line
     class="cls-34"
     x1="675.54846"
     y1="461.47495"
     x2="678.07849"
     y2="491.83493"
     id="line458"
     style="fill:none;stroke:#38312d;stroke-width:2.03px;stroke-miterlimit:10" />
  <line
     class="cls-34"
     x1="715.86847"
     y1="493.01492"
     x2="719.97845"
     y2="528.33496"
     id="line460"
     style="fill:none;stroke:#38312d;stroke-width:2.03px;stroke-miterlimit:10" />
  <path
     class="cls-35"
     d="m 755.4385,528.46495 4.17,35.45"
     id="path462"
     style="fill:none;stroke:#38312d;stroke-width:1.85px;stroke-miterlimit:10" />
  <path
     class="cls-36"
     d="m 717.6185,551.60495 -575.23,-1.71001 89.39,-99.35 h 405.6 l 0.34,14.54 10.82,0.69 v 11.77 a 13.9,13.9 0 0 1 4.24,0 14.82,14.82 0 0 1 8.5,4.69 c 0.12,2.34 0.23,4.68 0.35,7 q -0.11,0 -0.12,0 -0.17,0.31 15.18,8.24 c -0.18,1.76 -0.35,3.53 -0.53,5.3 a 5.14,5.14 0 0 0 -1,1.8 5.64,5.64 0 0 0 0.52,4.37 l 10.37,-0.39 -2.28,8.41 v 0 l 13.61,5.53 -0.35,5.89 v 0 l 11.78,7.64 c -0.19,2.41 -0.38,4.83 -0.58,7.24 v 0 z"
     id="path464"
     style="fill:#8a898e" />
  <path
     class="cls-36"
     d="m 245.1785,525.92495 c 0,-25.12001 -0.63,-50.31001 1.3,-75.38 h -41.68 l -0.35,14.54 a 40,40 0 0 0 -13.1,2.08 v 0 c -0.12,3.45999 -0.23,6.92 -0.35,10.38 h -6.73 l -0.35,11.81 -8.68,-0.18 c -0.11,7.24 -0.17,11.05 -0.17,11.05 h -9.21 l -1.08,8.74999 -7.24,0.06 c -0.75,4.85 -1.24,8 -1.24,8 l -7.77,0.61 -0.46,10.65 a 16.67,16.67 0 0 0 -5,0.38 17,17 0 0 0 -8.44,5 c 0.13,0.78 0.25,1.6 0.35,2.45 a 37.63,37.63 0 0 1 0,8 l -7.7,0.25 a 8.48,8.48 0 0 0 -4.86,-0.12 c -4.13,1.18 -5.6,5.24 -5.76,5.68 h 128.6 c -0.03,-8.03 -0.08,-16.02 -0.08,-24.00999 z"
     id="path466"
     style="fill:#8a898e" />
  <path
     class="cls-37"
     d="m 186.7985,470.27494 h 462.9 q -2.75,-3.92 -5.46,-7.84 h -452.23 q -2.64,3.87 -5.21,7.84 z"
     id="path468"
     style="fill:#9f9fa3" />
  <path
     class="cls-37"
     d="m 180.1885,482.23494 h 483 q -3.51,-3.09 -7,-6.19 h -470 q -2.99,3.08 -6,6.19 z"
     id="path470"
     style="fill:#9f9fa3" />
  <path
     class="cls-37"
     d="m 154.6985,509.72494 531.29,-1.14 -8.86,-8.36 h -515.7 q -3.39,4.66 -6.73,9.5 z"
     id="path472"
     style="fill:#9f9fa3" />
  <path
     class="cls-37"
     d="m 167.4085,497.46494 h 509.25 c -2.64,-2.78 -5.24,-5.58 -7.83,-8.4 h -494.87 q -3.24,4.27 -6.55,8.4 z"
     id="path474"
     style="fill:#9f9fa3" />
  <path
     class="cls-37"
     d="m 688.6085,514.91495 h -536.16 c -3.21,2.61 -6.49,5.15 -9.88,7.61 h 554.75 q -4.36,-3.79 -8.71,-7.61 z"
     id="path476"
     style="fill:#9f9fa3" />
  <path
     class="cls-37"
     d="m 699.1285,528.46495 h -559.75 c -2.42,1.16999 -4.89,2.29999 -7.44,3.39 v 4.25 h 576.81 c -3.4,-2.49001 -6.62,-5.05 -9.62,-7.64 z"
     id="path478"
     style="fill:#9f9fa3" />
  <path
     class="cls-37"
     d="m 713.9585,540.87494 h -589.47 q -3.83,1.79 -7.84,3.43 v 4.29 h 607.48 c -3.57,-2.46 -6.95,-5.05 -10.17,-7.72 z"
     id="path480"
     style="fill:#9f9fa3" />
  <rect
     class="cls-36"
     x="119.3985"
     y="545.86499"
     width="605.19"
     height="18.85"
     id="rect482"
     style="fill:#8a898e" />
</svg>
