<?xml version="1.0" encoding="UTF-8" standalone="no"?>
<svg
   id="Layer_1"
   data-name="Layer 1"
   viewBox="0 0 841.89 595.28"
   version="1.1"
   sodipodi:docname="ժամով շենք-01.svg"
   inkscape:version="1.2.1 (9c6d41e410, 2022-07-14, custom)"
   xmlns:inkscape="http://www.inkscape.org/namespaces/inkscape"
   xmlns:sodipodi="http://sodipodi.sourceforge.net/DTD/sodipodi-0.dtd"
   xmlns="http://www.w3.org/2000/svg"
   xmlns:svg="http://www.w3.org/2000/svg">
  <sodipodi:namedview
     id="namedview369"
     pagecolor="#ffffff"
     bordercolor="#000000"
     borderopacity="0.25"
     inkscape:showpageshadow="2"
     inkscape:pageopacity="0.0"
     inkscape:pagecheckerboard="0"
     inkscape:deskcolor="#d1d1d1"
     showgrid="false"
     inkscape:zoom="1.1213358"
     inkscape:cx="406.65785"
     inkscape:cy="260.40371"
     inkscape:window-width="1920"
     inkscape:window-height="1151"
     inkscape:window-x="0"
     inkscape:window-y="20"
     inkscape:window-maximized="1"
     inkscape:current-layer="Layer_1" />
  <defs
     id="defs4">
    <style
       id="style2">.cls-1,.cls-2{fill:#be685c;}.cls-2{stroke:#c0584d;}.cls-10,.cls-12,.cls-13,.cls-14,.cls-16,.cls-17,.cls-18,.cls-19,.cls-2,.cls-20,.cls-21,.cls-22,.cls-23,.cls-24,.cls-25,.cls-26,.cls-27,.cls-29,.cls-31,.cls-32,.cls-35,.cls-36,.cls-38,.cls-40,.cls-41,.cls-42,.cls-46,.cls-8,.cls-9{stroke-miterlimit:10;}.cls-2,.cls-22,.cls-25,.cls-35,.cls-36,.cls-41,.cls-8,.cls-9{stroke-width:2px;}.cls-3{fill:#d07869;}.cls-4{fill:#a44538;}.cls-5{fill:#da8782;}.cls-6{fill:#602c22;}.cls-7{fill:#353d37;}.cls-10,.cls-12,.cls-13,.cls-14,.cls-16,.cls-17,.cls-18,.cls-19,.cls-20,.cls-21,.cls-22,.cls-24,.cls-27,.cls-29,.cls-35,.cls-36,.cls-38,.cls-40,.cls-41,.cls-42,.cls-46,.cls-8,.cls-9{fill:none;}.cls-8{stroke:#816c68;}.cls-9{stroke:#815e40;}.cls-10,.cls-13,.cls-20{stroke:#f3a8a1;}.cls-10,.cls-17,.cls-18{stroke-width:8px;}.cls-11{fill:#a26b5b;}.cls-12,.cls-18{stroke:#904e3c;}.cls-12{stroke-width:7px;}.cls-13,.cls-27{stroke-width:6px;}.cls-14{stroke:#da8e82;}.cls-14,.cls-19{stroke-width:10px;}.cls-15{fill:#5a3e33;}.cls-16,.cls-35{stroke:#5a3e33;}.cls-16{stroke-width:5px;}.cls-17,.cls-21,.cls-25,.cls-26{stroke:#9f5d4d;}.cls-19{stroke:#66372c;}.cls-20,.cls-21{stroke-width:9px;}.cls-22{stroke:#4c2928;}.cls-23,.cls-28{fill:#362c23;}.cls-23,.cls-24,.cls-31,.cls-32,.cls-42{stroke:#e78f8d;}.cls-25,.cls-26,.cls-30{fill:#f3a8a1;}.cls-26{stroke-width:0.75px;}.cls-27,.cls-29{stroke:#da8782;}.cls-29,.cls-42{stroke-width:4px;}.cls-31{fill:#4a4a48;}.cls-32,.cls-33{fill:#3e3e3c;}.cls-34{fill:#baac92;}.cls-36{stroke:#3e3e3c;}.cls-37{fill:#c6dcd8;}.cls-38{stroke:#000;}.cls-39{font-size:6.03px;font-family:MyriadPro-Regular, Myriad Pro;}.cls-40,.cls-41{stroke:#6d483d;}.cls-40{stroke-width:3px;}.cls-43{fill:#ed1c24;}.cls-44{fill:#0071bc;}.cls-45{fill:#fbb03b;}.cls-46{stroke:#66625f;}</style>
  </defs>
  <title
     id="title6">ժամով շենք</title>
  <path
     class="cls-1"
     d="m 346.03236,307.34169 q -84,8.91 -159.24001,16.53 -87.329989,8.85 -164.449994,16.15 l -2,218.25 323.360004,12.9"
     id="path8"
     style="fill:#be685c" />
  <path
     class="cls-2"
     d="m 344.17235,309.07169 v 262.19 h 483.72 c 0,0 -5.71,-319.25 -5.71,-319.28 q -11.73,-5.52 -24,-11.94 c -14.85,-7.81 -28.54,-15.8 -41.11,-23.74 q -21.72,2 -44.15,3.72 -14.57,1.08 -28.85,2 c -48.2,0.82 -67.16,2.54 -73.66,4.29 a 65,65 0 0 1 -11.16,1.93 51.62,51.62 0 0 1 -13.2,-0.48 c -5,-0.85 -9.15,-1.56 -10.08,-4 -1,-2.77 3.1,-4.62 2.47,-7.05 -1.67,-6.41 -34,-7.31 -36.23,-11.93 l -0.07,-0.16 c -0.15,-0.38 -0.16,-1.16 -0.24,-6.41 0,-1.63 -0.16,-9.48 -0.18,-10.93 0.09,-7.53 0.14,-11.59 0.14,-11.59 l 23.38,-11.56 c -5.2,-11.92 -10.36,-24.32 -15.39,-37.19 q -6.45,-16.48 -12,-32.29 l -98.4,10.16 -87.84,9 20.33,23.71 c 0.6,11.57 1,23.65 1,36.19 0,12.54 -0.22,24.67 -0.73,36.26 l -11.39,0.57 -13.13,0.65 c 0,0 0.29,18.39 0.15,34.73 -0.09,11.12 -0.29,10.53 -1.79,61.19 v 0.23"
     id="path10"
     style="fill:#be685c;stroke:#c0584d;stroke-width:2px;stroke-miterlimit:10" />
  <path
     class="cls-3"
     d="m 827.89235,571.26169 h -208.39 v -277.15 l 58.35,6.18 a 317.07,317.07 0 0 0 55.27,10.31 c 14.75,1.42 20.28,0.94 30.26,2.37 15,2.16 36.14,8.1 60.7,25.49 z"
     id="path12"
     style="fill:#d07869" />
  <path
     class="cls-4"
     d="m 511.51235,195.11169 30.64,9.43 q 0.53,-24.59 1,-49.17 c 1.47,-16.35 -5.37,-30.93 -17.51,-36.91 a 31.35,31.35 0 0 0 -16,-2.89 q 0.97,39.77 1.87,79.54 z"
     id="path14"
     style="fill:#a44538" />
  <polygon
     class="cls-5"
     points="812.24,275.13 817.28,582.81 746.62,583.2 744.01,229.24 "
     id="polygon16"
     style="fill:#da8782"
     transform="translate(10.612356,-11.548314)" />
  <path
     class="cls-6"
     d="m 511.51235,200.28169 -131.09,8.73 0.17,-77.18 130.88,-12.64 q 0.02,40.55 0.04,81.09 z"
     id="path18"
     style="fill:#602c22" />
  <path
     class="cls-7"
     d="m 503.11235,197.93169 -111,7.15 v -41 l 110.5,-9.91 q 0.23,21.89 0.5,43.76 z"
     id="path20"
     style="fill:#353d37" />
  <line
     class="cls-8"
     x1="390.43234"
     y1="175.63168"
     x2="503.11237"
     y2="167.0517"
     id="line22"
     style="fill:none;stroke:#816c68;stroke-width:2px;stroke-miterlimit:10" />
  <line
     class="cls-8"
     x1="403.65234"
     y1="163.0517"
     x2="403.63232"
     y2="201.81168"
     id="line24"
     style="fill:none;stroke:#816c68;stroke-width:2px;stroke-miterlimit:10" />
  <line
     class="cls-8"
     x1="477.62234"
     y1="156.4117"
     x2="477.62234"
     y2="197.8317"
     id="line26"
     style="fill:none;stroke:#816c68;stroke-width:2px;stroke-miterlimit:10" />
  <path
     class="cls-7"
     d="m 646.72235,292.32169 -22.11,1.45 q 0.09,-9.87 0.17,-19.74 l 21.83,-3.51 z"
     id="path28"
     style="fill:#353d37" />
  <path
     class="cls-9"
     d="m 631.30235,273.15169 -0.57,18.45"
     id="path30"
     style="fill:none;stroke:#815e40;stroke-width:2px;stroke-miterlimit:10" />
  <path
     class="cls-9"
     d="m 638.71235,272.52169 q -0.27,9.23 -0.55999,18.45"
     id="path32"
     style="fill:none;stroke:#815e40;stroke-width:2px;stroke-miterlimit:10" />
  <path
     class="cls-9"
     d="m 646.72235,292.32169 -22.11,1.45 q 0.09,-9.87 0.17,-19.74 l 21.83,-3.51 z"
     id="path34"
     style="fill:none;stroke:#815e40;stroke-width:2px;stroke-miterlimit:10" />
  <line
     class="cls-10"
     x1="525.96234"
     y1="120.21169"
     x2="525.63239"
     y2="196.78168"
     id="line36"
     style="fill:none;stroke:#f3a8a1;stroke-width:8px;stroke-miterlimit:10" />
  <path
     class="cls-10"
     d="m 541.08235,138.17169 c 0.08,21.21 -1.66999,42.44 -0.34,63.64"
     id="path38"
     style="fill:none;stroke:#f3a8a1;stroke-width:8px;stroke-miterlimit:10" />
  <path
     class="cls-10"
     d="m 550.34235,160.64169 q 0.22,20.61 0.44001,41.23"
     id="path40"
     style="fill:none;stroke:#f3a8a1;stroke-width:8px;stroke-miterlimit:10" />
  <path
     class="cls-11"
     d="m 526.75235,85.45169 -171.69,17.64 0.73,8.33 170.67,-14.81 q 12.15,5.34 13.41,3.61 1.53,-2.13 -13.12,-14.77 z"
     id="path42"
     style="fill:#a26b5b" />
  <path
     class="cls-11"
     d="m 538.48235,94.39169 -199.3,23 6.26,9.66 188,-17.12 z"
     id="path44"
     style="fill:#a26b5b" />
  <path
     class="cls-12"
     d="m 338.04235,115.21169 199.82,-20.63 27.4,69.48"
     id="path46"
     style="fill:none;stroke:#904e3c;stroke-width:7px;stroke-miterlimit:10" />
  <polygon
     class="cls-7"
     points="805.81,283.27 807.7,344.47 752.77,324.52 752.95,259.07 "
     id="polygon48"
     style="fill:#353d37"
     transform="translate(10.612356,-11.548314)" />
  <path
     class="cls-13"
     d="m 815.74235,269.70169 q 0,32.49 0,65"
     id="path50"
     style="fill:none;stroke:#f3a8a1;stroke-width:6px;stroke-miterlimit:10" />
  <path
     class="cls-13"
     d="m 768.51235,244.24169 q -0.54,36.25 0,72.53"
     id="path52"
     style="fill:none;stroke:#f3a8a1;stroke-width:6px;stroke-miterlimit:10" />
  <path
     class="cls-13"
     d="m 780.36235,249.95169 q 0.71,35.47 0,71"
     id="path54"
     style="fill:none;stroke:#f3a8a1;stroke-width:6px;stroke-miterlimit:10" />
  <path
     class="cls-13"
     d="m 792.18235,256.31169 q 0.4,34.39 -0.06,68.78"
     id="path56"
     style="fill:none;stroke:#f3a8a1;stroke-width:6px;stroke-miterlimit:10" />
  <path
     class="cls-13"
     d="m 804.13235,265.36169 q -0.07,32.8 0,65.6"
     id="path58"
     style="fill:none;stroke:#f3a8a1;stroke-width:6px;stroke-miterlimit:10" />
  <line
     class="cls-14"
     x1="354.91232"
     y1="134.62169"
     x2="354.91232"
     y2="209.01169"
     id="line60"
     style="fill:none;stroke:#da8e82;stroke-width:10px;stroke-miterlimit:10" />
  <line
     class="cls-14"
     x1="492.38232"
     y1="119.1917"
     x2="492.38232"
     y2="197.8317"
     id="line62"
     style="fill:none;stroke:#da8e82;stroke-width:10px;stroke-miterlimit:10" />
  <line
     class="cls-14"
     x1="457.99234"
     y1="123.4417"
     x2="457.99234"
     y2="197.8317"
     id="line64"
     style="fill:none;stroke:#da8e82;stroke-width:10px;stroke-miterlimit:10" />
  <line
     class="cls-14"
     x1="423.67233"
     y1="126.86169"
     x2="423.67233"
     y2="201.25168"
     id="line66"
     style="fill:none;stroke:#da8e82;stroke-width:10px;stroke-miterlimit:10" />
  <line
     class="cls-14"
     x1="388.66232"
     y1="132.13168"
     x2="388.66232"
     y2="206.51169"
     id="line68"
     style="fill:none;stroke:#da8e82;stroke-width:10px;stroke-miterlimit:10" />
  <path
     class="cls-15"
     d="m 709.09235,572.55169 h 0.3 l 47.84,-0.9 -0.82,-347.15 c -26.89,4.6 -30.48,5 -30.48,5 a 176.42,176.42 0 0 1 -42.65,0.05 q -0.18,16.11 -0.35,32.46 -0.21,19.15 -0.42,38.65 l 24.43,2.93 c 0,0 1.32,165.17 2.15,268.96 z"
     id="path70"
     style="fill:#5a3e33" />
  <path
     class="cls-16"
     d="m 689.61235,304.93169 1.14,266.33"
     id="path72"
     style="fill:none;stroke:#5a3e33;stroke-width:5px;stroke-miterlimit:10" />
  <path
     class="cls-16"
     d="m 540.53235,209.01169 q 0.2,181.13 0.37,362.25"
     id="path74"
     style="fill:none;stroke:#5a3e33;stroke-width:5px;stroke-miterlimit:10" />
  <path
     class="cls-16"
     d="m 344.32235,305.57169 1.2,268.08"
     id="path76"
     style="fill:none;stroke:#5a3e33;stroke-width:5px;stroke-miterlimit:10" />
  <path
     class="cls-17"
     d="m 341.39235,215.60169 195.63,-13.08 q 3.86,5.73 7.69,11.47 l 31.19001,2.46 q -3.74,7.27 -7.45001,14.55 a 258.56,258.56 0 0 0 51.16,2.04 258.39,258.39 0 0 0 49.32,-7.72 c 5.65,0.75 13,1.54 21.72001,1.94 a 216.17,216.17 0 0 0 36.53999,-1 c 10.24,-1.2 40.59001,-7.15 30.45001,-5.31 l 67.36,37.19"
     id="path78"
     style="fill:none;stroke:#9f5d4d;stroke-width:8px;stroke-miterlimit:10" />
  <path
     class="cls-18"
     d="m 335.75235,211.45169 205.53,-14.48 6.86,12.3 v 0 a 98.08,98.08 0 0 0 26.26,2 c 3.24,-0.18 6.29,-0.52 9.13,-1 a 25.55,25.55 0 0 1 -1.14,8.68 26.37,26.37 0 0 1 -3.8,7.6 l 34.25,-1.45 c 19,-0.73 28.44001,-1.32 39.21,-3.13 4.37,-0.73 10.24,-1.89 17.12,-3.74 a 166.23,166.23 0 0 0 87.92,-2 l 74.16,39.26"
     id="path80"
     style="fill:none;stroke:#904e3c;stroke-width:8px;stroke-miterlimit:10" />
  <path
     class="cls-19"
     d="m 346.03236,131.25169 184.21999,-17.37 q 11.16,27.75 22.36,55.48"
     id="path82"
     style="fill:none;stroke:#66372c;stroke-width:10px;stroke-miterlimit:10" />
  <path
     class="cls-20"
     d="m 560.70235,249.93169 a 166,166 0 0 0 53.79,2.41 163.44,163.44 0 0 0 56.33,-17.37"
     id="path84"
     style="fill:none;stroke:#f3a8a1;stroke-width:9px;stroke-miterlimit:10" />
  <line
     class="cls-10"
     x1="550.34235"
     y1="224.48169"
     x2="550.34235"
     y2="289.97168"
     id="line86"
     style="fill:none;stroke:#f3a8a1;stroke-width:8px;stroke-miterlimit:10" />
  <line
     class="cls-10"
     x1="561.97235"
     y1="224.48169"
     x2="561.97235"
     y2="289.97168"
     id="line88"
     style="fill:none;stroke:#f3a8a1;stroke-width:8px;stroke-miterlimit:10" />
  <line
     class="cls-10"
     x1="654.12238"
     y1="241.49167"
     x2="654.12238"
     y2="294.11169"
     id="line90"
     style="fill:none;stroke:#f3a8a1;stroke-width:8px;stroke-miterlimit:10" />
  <line
     class="cls-10"
     x1="606.74237"
     y1="251.98169"
     x2="606.74237"
     y2="291.42169"
     id="line92"
     style="fill:none;stroke:#f3a8a1;stroke-width:8px;stroke-miterlimit:10" />
  <line
     class="cls-10"
     x1="671.25238"
     y1="234.43167"
     x2="671.25238"
     y2="295.79169"
     id="line94"
     style="fill:none;stroke:#f3a8a1;stroke-width:8px;stroke-miterlimit:10" />
  <line
     class="cls-10"
     x1="681.53235"
     y1="234.43167"
     x2="681.53235"
     y2="299.92169"
     id="line96"
     style="fill:none;stroke:#f3a8a1;stroke-width:8px;stroke-miterlimit:10" />
  <path
     class="cls-21"
     d="m 540.24235,289.97169 h 71.84 l 66.23,6.48 30.69001,11.49 48.09,2.62 73.08,30.39"
     id="path98"
     style="fill:none;stroke:#9f5d4d;stroke-width:9px;stroke-miterlimit:10" />
  <path
     class="cls-22"
     d="m 566.03235,254.87169 a 164.93,164.93 0 0 0 99.15,-11.94"
     id="path100"
     style="fill:none;stroke:#4c2928;stroke-width:2px;stroke-miterlimit:10" />
  <polygon
     class="cls-23"
     points="791.41,496.23 791.84,530.2 776.41,530.2 776.41,494.02 "
     id="polygon102"
     style="fill:#362c23;stroke:#e78f8d;stroke-miterlimit:10"
     transform="translate(10.612356,-11.548314)" />
  <line
     class="cls-24"
     x1="794.74237"
     y1="483.61166"
     x2="794.74237"
     y2="518.65173"
     id="line104"
     style="fill:none;stroke:#e78f8d;stroke-miterlimit:10" />
  <line
     class="cls-24"
     x1="787.02234"
     y1="491.54166"
     x2="804.16235"
     y2="493.37167"
     id="line106"
     style="fill:none;stroke:#e78f8d;stroke-miterlimit:10" />
  <polygon
     class="cls-25"
     points="557.7,230.24 557.93,250.18 533.84,247.79 533.63,226.63 "
     id="polygon108"
     style="fill:#f3a8a1;stroke:#9f5d4d;stroke-width:2px;stroke-miterlimit:10"
     transform="translate(10.612356,-11.548314)" />
  <path
     class="cls-25"
     d="m 689.43235,247.50169 -22.89999,-1.9 -0.28,-20.76 23.86,4.35 q -0.34,9.15 -0.68001,18.31 z"
     id="path110"
     style="fill:#f3a8a1;stroke:#9f5d4d;stroke-width:2px;stroke-miterlimit:10" />
  <path
     class="cls-26"
     d="m 612.89235,262.29169 -13.23,0.27 c 0,-3.2 0.05,-6.39 0.07,-9.59 l 13,0.54 z"
     id="path112"
     style="fill:#f3a8a1;stroke:#9f5d4d;stroke-width:0.75px;stroke-miterlimit:10" />
  <line
     class="cls-27"
     x1="763.56238"
     y1="243.16168"
     x2="820.13239"
     y2="271.4317"
     id="line114"
     style="fill:none;stroke:#da8782;stroke-width:6px;stroke-miterlimit:10" />
  <path
     class="cls-28"
     d="m 807.21235,455.94169 -26.46,-4.59 q 0,-28.45 0,-56.91 c 1.22,-4.17 3.38,-6.61 5.38,-6.17 1.77,0.39 2.87,2.92 3.11,3.48 2,4.54 1.15,10.94 1.49,11 0.34,0.06 0.19,-9.1 3,-11.7 a 2.59,2.59 0 0 1 3.86,0.24 c 3,3.33 1.91,14.66 2.44001,14.71 0.52999,0.05 0.25,-9.8 3.13999,-12.3 a 2.1,2.1 0 0 1 3.14,0.12 c 1.15,1.47 1.46001,5.47 1.46001,5.47 v 0 c 0,0 0,1.38 0.09,4 z"
     id="path116"
     style="fill:#362c23" />
  <line
     class="cls-29"
     x1="790.16235"
     y1="393.54169"
     x2="789.67236"
     y2="455.94168"
     id="line118"
     style="fill:none;stroke:#da8782;stroke-width:4px;stroke-miterlimit:10" />
  <line
     class="cls-29"
     x1="799.78235"
     y1="397.72168"
     x2="799.31238"
     y2="457.30167"
     id="line120"
     style="fill:none;stroke:#da8782;stroke-width:4px;stroke-miterlimit:10" />
  <polygon
     class="cls-30"
     points="791.79,408.81 791.84,411.62 786.63,411.73 786.58,407.89 "
     id="polygon122"
     style="fill:#f3a8a1"
     transform="translate(10.612356,-11.548314)" />
  <polygon
     class="cls-30"
     points="781.62,404.97 781.68,407.78 776.46,407.89 776.41,404.06 "
     id="polygon124"
     style="fill:#f3a8a1"
     transform="translate(10.612356,-11.548314)" />
  <path
     class="cls-31"
     d="m 396.61235,369.10169 h -16.73 v -41.11 a 10.18,10.18 0 0 1 8.12,-4.72 9.71,9.71 0 0 1 8.63,4.72 z"
     id="path126"
     style="fill:#4a4a48;stroke:#e78f8d;stroke-miterlimit:10" />
  <line
     class="cls-24"
     x1="379.88232"
     y1="336.13168"
     x2="396.63232"
     y2="336.48169"
     id="line128"
     style="fill:none;stroke:#e78f8d;stroke-miterlimit:10" />
  <line
     class="cls-24"
     x1="388.19232"
     y1="336.88168"
     x2="388.32233"
     y2="369.10168"
     id="line130"
     style="fill:none;stroke:#e78f8d;stroke-miterlimit:10" />
  <path
     class="cls-31"
     d="m 500.61235,363.91169 h -16.74 v -41.11 a 10.18,10.18 0 0 1 8.12,-4.72 9.71,9.71 0 0 1 8.63,4.72 z"
     id="path132"
     style="fill:#4a4a48;stroke:#e78f8d;stroke-miterlimit:10" />
  <line
     class="cls-24"
     x1="483.87234"
     y1="330.94168"
     x2="500.62238"
     y2="331.29169"
     id="line134"
     style="fill:none;stroke:#e78f8d;stroke-miterlimit:10" />
  <line
     class="cls-24"
     x1="492.18237"
     y1="331.69168"
     x2="492.31238"
     y2="363.91168"
     id="line136"
     style="fill:none;stroke:#e78f8d;stroke-miterlimit:10" />
  <path
     class="cls-31"
     d="m 660.97235,368.14169 h -16.75 v -41.1 a 10.2,10.2 0 0 1 8.12,-4.73 9.7,9.7 0 0 1 8.63,4.73 z"
     id="path138"
     style="fill:#4a4a48;stroke:#e78f8d;stroke-miterlimit:10" />
  <line
     class="cls-24"
     x1="644.22235"
     y1="335.17169"
     x2="660.97235"
     y2="335.53168"
     id="line140"
     style="fill:none;stroke:#e78f8d;stroke-miterlimit:10" />
  <line
     class="cls-24"
     x1="652.53235"
     y1="335.92169"
     x2="652.66235"
     y2="368.14169"
     id="line142"
     style="fill:none;stroke:#e78f8d;stroke-miterlimit:10" />
  <path
     class="cls-32"
     d="m 666.76235,437.52169 h -28.33 v -47.76 h 27.83 q 0.26,23.88 0.5,47.76 z"
     id="path144"
     style="fill:#3e3e3c;stroke:#e78f8d;stroke-miterlimit:10" />
  <line
     class="cls-24"
     x1="647.10236"
     y1="390.13168"
     x2="647.48236"
     y2="438.09171"
     id="line146"
     style="fill:none;stroke:#e78f8d;stroke-miterlimit:10" />
  <line
     class="cls-24"
     x1="657.84235"
     y1="389.13168"
     x2="658.22235"
     y2="437.09171"
     id="line148"
     style="fill:none;stroke:#e78f8d;stroke-miterlimit:10" />
  <line
     class="cls-24"
     x1="638.43237"
     y1="400.1817"
     x2="666.37238"
     y2="400.1817"
     id="line150"
     style="fill:none;stroke:#e78f8d;stroke-miterlimit:10" />
  <path
     class="cls-32"
     d="m 666.61235,525.03169 h -28.37 v -47.76 h 27.83 q 0.25,23.88 0.54,47.76 z"
     id="path152"
     style="fill:#3e3e3c;stroke:#e78f8d;stroke-miterlimit:10" />
  <line
     class="cls-24"
     x1="646.90234"
     y1="477.6517"
     x2="647.28235"
     y2="525.61169"
     id="line154"
     style="fill:none;stroke:#e78f8d;stroke-miterlimit:10" />
  <line
     class="cls-24"
     x1="657.6424"
     y1="476.64169"
     x2="658.02234"
     y2="524.61169"
     id="line156"
     style="fill:none;stroke:#e78f8d;stroke-miterlimit:10" />
  <line
     class="cls-24"
     x1="638.24237"
     y1="487.69168"
     x2="666.18237"
     y2="487.69168"
     id="line158"
     style="fill:none;stroke:#e78f8d;stroke-miterlimit:10" />
  <path
     class="cls-33"
     d="m 483.30235,571.26169 h -95 q 0.18,-57.66 0.38,-115.32 c 3.31,-26.62 28.29001,-45 53.28001,-42.22 21.32999,2.39 39.26,19.85 41.68,42.22 q -0.17,57.66 -0.34001,115.32 z"
     id="path160"
     style="fill:#3e3e3c" />
  <path
     class="cls-34"
     d="m 483.48235,508.76169 c 0,-5.11 0.10001,-36.78 0.10001,-36.79 0,-0.01 0.11,-6.87 0,-14.23 0,0 -0.18,-9.74 -2.79001,-14.71 v 0 a 46.7,46.7 0 0 0 -2.43999,-4.27 14.8,14.8 0 0 0 -3.32,-1 c -10,-1.79 -20.68,7.16 -26.21,14.67 -6.66,9 -9.72,21.1 -9.72,21.1 0,0 -0.08,33.54 -0.25,97.73 h 44.47 z"
     id="path162"
     style="fill:#baac92" />
  <line
     class="cls-35"
     x1="439.08234"
     y1="473.53165"
     x2="481.86234"
     y2="471.97165"
     id="line164"
     style="fill:none;stroke:#5a3e33;stroke-width:2px;stroke-miterlimit:10" />
  <line
     class="cls-35"
     x1="461.23233"
     y1="440.98169"
     x2="461.32233"
     y2="571.26172"
     id="line166"
     style="fill:none;stroke:#5a3e33;stroke-width:2px;stroke-miterlimit:10" />
  <path
     class="cls-35"
     d="m 481.77236,508.76169 c 0,-5.11 0.09,-36.78 0.09,-36.79 0,-0.01 0.11001,-6.87 0,-14.23 0,0 -0.17,-9.74 -2.69,-14.71 v 0 a 43.74,43.74 0 0 0 -2.35,-4.27 13.56,13.56 0 0 0 -3.19,-1 c -9.66,-1.79 -19.88,7.16 -25.21,14.67 -6.38999,9 -9.33999,21.1 -9.33999,21.1 0,0 -0.08,33.54 -0.24,97.73 h 42.76999 q 0.08,-31.24 0.16001,-62.5 z"
     id="path168"
     style="fill:none;stroke:#5a3e33;stroke-width:2px;stroke-miterlimit:10" />
  <path
     class="cls-36"
     d="m 483.30235,571.26169 h -95 q 0.18,-57.66 0.38,-115.32 c 3.31,-26.62 28.29001,-45 53.28001,-42.22 21.32999,2.39 39.26,19.85 41.68,42.22 q -0.17,57.66 -0.34001,115.32 z"
     id="path170"
     style="fill:none;stroke:#3e3e3c;stroke-width:2px;stroke-miterlimit:10" />
  <ellipse
     class="cls-37"
     cx="438.83234"
     cy="262.56168"
     rx="28.360001"
     ry="26.959999"
     id="ellipse172"
     style="fill:#c6dcd8" />
  <line
     class="cls-38"
     x1="430.58234"
     y1="237.5217"
     x2="446.18234"
     y2="287.91168"
     id="line174"
     style="fill:none;stroke:#000000;stroke-miterlimit:10" />
  <line
     class="cls-38"
     x1="445.97232"
     y1="236.96167"
     x2="430.60233"
     y2="288.53168"
     id="line176"
     style="fill:none;stroke:#000000;stroke-miterlimit:10" />
  <text
     class="cls-39"
     transform="scale(1.0246951,0.97590006)"
     id="text178"
     style="font-size:6.17891px;font-family:MyriadPro-Regular, 'Myriad Pro';stroke-width:1.0247"
     x="424.66522"
     y="248.31609">12</text>
  <line
     class="cls-38"
     x1="464.56235"
     y1="255.56168"
     x2="412.73233"
     y2="271.09171"
     id="line180"
     style="fill:none;stroke:#000000;stroke-miterlimit:10" />
  <line
     class="cls-38"
     x1="465.54233"
     y1="269.66168"
     x2="411.68234"
     y2="256.82169"
     id="line182"
     style="fill:none;stroke:#000000;stroke-miterlimit:10" />
  <line
     class="cls-38"
     x1="458.17233"
     y1="281.47168"
     x2="418.39233"
     y2="243.65167"
     id="line184"
     style="fill:none;stroke:#000000;stroke-miterlimit:10" />
  <line
     class="cls-38"
     x1="417.89233"
     y1="281.09171"
     x2="459.22232"
     y2="244.81168"
     id="line186"
     style="fill:none;stroke:#000000;stroke-miterlimit:10" />
  <text
     class="cls-39"
     transform="scale(1.0246951,0.97590006)"
     id="text188"
     style="font-size:6.17891px;font-family:MyriadPro-Regular, 'Myriad Pro';stroke-width:1.0247"
     x="437.91794"
     y="252.53783">1</text>
  <text
     class="cls-39"
     transform="scale(1.0246951,0.97590006)"
     id="text190"
     style="font-size:6.17891px;font-family:MyriadPro-Regular, 'Myriad Pro';stroke-width:1.0247"
     x="445.84225"
     y="259.35208">2</text>
  <text
     class="cls-39"
     transform="scale(1.0246951,0.97590006)"
     id="text192"
     style="font-size:6.17891px;font-family:MyriadPro-Regular, 'Myriad Pro';stroke-width:1.0247"
     x="449.78488"
     y="270.74667">3</text>
  <text
     class="cls-39"
     transform="scale(1.0246951,0.97590006)"
     id="text194"
     style="font-size:6.17891px;font-family:MyriadPro-Regular, 'Myriad Pro';stroke-width:1.0247"
     x="446.20334"
     y="282.15152">4</text>
  <text
     class="cls-39"
     transform="scale(1.0246951,0.97590006)"
     id="text196"
     style="font-size:6.17891px;font-family:MyriadPro-Regular, 'Myriad Pro';stroke-width:1.0247"
     x="437.91794"
     y="290.12366">5</text>
  <text
     class="cls-39"
     transform="scale(1.0246951,0.97590006)"
     id="text198"
     style="font-size:6.17891px;font-family:MyriadPro-Regular, 'Myriad Pro';stroke-width:1.0247"
     x="426.46088"
     y="293.64862">6</text>
  <text
     class="cls-39"
     transform="scale(1.0246951,0.97590006)"
     id="text200"
     style="font-size:6.17891px;font-family:MyriadPro-Regular, 'Myriad Pro';stroke-width:1.0247"
     x="415.42343"
     y="290.12366">7</text>
  <text
     class="cls-39"
     transform="scale(1.0246951,0.97590006)"
     id="text202"
     style="font-size:6.17891px;font-family:MyriadPro-Regular, 'Myriad Pro';stroke-width:1.0247"
     x="407.62601"
     y="282.15152">8</text>
  <text
     class="cls-39"
     transform="scale(1.0246951,0.97590006)"
     id="text204"
     style="font-size:6.17891px;font-family:MyriadPro-Regular, 'Myriad Pro';stroke-width:1.0247"
     x="404.04446"
     y="271.77136">9</text>
  <text
     class="cls-39"
     transform="scale(1.0246951,0.97590006)"
     id="text206"
     style="font-size:6.17891px;font-family:MyriadPro-Regular, 'Myriad Pro';stroke-width:1.0247"
     x="405.51807"
     y="260.90961">10</text>
  <text
     class="cls-39"
     transform="scale(1.0246951,0.97590006)"
     id="text208"
     style="font-size:6.17891px;font-family:MyriadPro-Regular, 'Myriad Pro';stroke-width:1.0247"
     x="413.73514"
     y="252.53783">11</text>
  <ellipse
     class="cls-40"
     cx="438.26233"
     cy="262.75168"
     rx="27.790001"
     ry="26.959999"
     id="ellipse210"
     style="fill:none;stroke:#6d483d;stroke-width:3px;stroke-miterlimit:10" />
  <path
     d="m 438.76235,262.45169 c 0.71,-1.66 1.47,-3.29 2.21,-4.94 l 2.3,-4.89 a 41,41 0 0 1 2.39,-4.84 24.14,24.14 0 0 1 3.36,-4.32 l 0.17,0.09 a 24.16,24.16 0 0 1 -1.77,5.18 42.6,42.6 0 0 1 -2.74,4.65 l -2.82999,4.61 c -1,1.52 -1.92001,3.05 -2.92001,4.56 z"
     id="path212" />
  <path
     d="m 437.81235,263.45169 c 1.13,-0.8 2.28,-1.55 3.42,-2.33 l 3.47001,-2.25 a 24.81,24.81 0 0 1 3.51,-2.15 14.52,14.52 0 0 1 4,-1.2 l 0.1,0.18 a 14.79,14.79 0 0 1 -3.18,2.77 25.45,25.45 0 0 1 -3.71,1.81 l -3.76,1.72 c -1.27,0.54 -2.52,1.11 -3.8,1.63 z"
     id="path214" />
  <ellipse
     class="cls-41"
     cx="394.97449"
     cy="324.84924"
     rx="53.41"
     ry="46.759998"
     transform="rotate(-8.44)"
     id="ellipse216"
     style="fill:none;stroke:#6d483d;stroke-width:2px;stroke-miterlimit:10" />
  <path
     class="cls-31"
     d="m 176.28235,382.70169 -11.95,0.73 v -30.98 a 8.12,8.12 0 0 1 5.77001,-4.07 6.23,6.23 0 0 1 6.18,3 z"
     id="path218"
     style="fill:#4a4a48;stroke:#e78f8d;stroke-miterlimit:10" />
  <line
     class="cls-24"
     x1="164.33235"
     y1="358.61169"
     x2="176.28235"
     y2="357.91168"
     id="line220"
     style="fill:none;stroke:#e78f8d;stroke-miterlimit:10" />
  <line
     class="cls-24"
     x1="170.23235"
     y1="358.70169"
     x2="170.33235"
     y2="383.06168"
     id="line222"
     style="fill:none;stroke:#e78f8d;stroke-miterlimit:10" />
  <path
     class="cls-31"
     d="m 161.21235,383.62169 -11.67,0.72 v -30.59 a 7.92,7.92 0 0 1 5.63,-4 6.08,6.08 0 0 1 6,3 z"
     id="path224"
     style="fill:#4a4a48;stroke:#e78f8d;stroke-miterlimit:10" />
  <line
     class="cls-24"
     x1="149.54234"
     y1="359.8017"
     x2="161.21236"
     y2="359.1217"
     id="line226"
     style="fill:none;stroke:#e78f8d;stroke-miterlimit:10" />
  <line
     class="cls-24"
     x1="155.31235"
     y1="359.9017"
     x2="155.39235"
     y2="383.98169"
     id="line228"
     style="fill:none;stroke:#e78f8d;stroke-miterlimit:10" />
  <path
     class="cls-31"
     d="m 302.10236,373.31169 -14.4,0.9 v -34 a 9.76,9.76 0 0 1 7,-4.53 7.69,7.69 0 0 1 7.45,3.27 z"
     id="path230"
     style="fill:#4a4a48;stroke:#e78f8d;stroke-miterlimit:10" />
  <line
     class="cls-24"
     x1="287.70233"
     y1="346.97168"
     x2="302.10233"
     y2="346.0817"
     id="line232"
     style="fill:none;stroke:#e78f8d;stroke-miterlimit:10" />
  <line
     class="cls-24"
     x1="294.81235"
     y1="347.01169"
     x2="294.92233"
     y2="373.76169"
     id="line234"
     style="fill:none;stroke:#e78f8d;stroke-miterlimit:10" />
  <path
     class="cls-31"
     d="m 320.74235,372.14169 -14.77999,0.93 v -34.41 a 10,10 0 0 1 7.13,-4.6 8,8 0 0 1 7.64999,3.31 z"
     id="path236"
     style="fill:#4a4a48;stroke:#e78f8d;stroke-miterlimit:10" />
  <line
     class="cls-24"
     x1="305.96234"
     y1="345.47168"
     x2="320.74234"
     y2="344.56168"
     id="line238"
     style="fill:none;stroke:#e78f8d;stroke-miterlimit:10" />
  <line
     class="cls-24"
     x1="313.25235"
     y1="345.50168"
     x2="313.37234"
     y2="372.60168"
     id="line240"
     style="fill:none;stroke:#e78f8d;stroke-miterlimit:10" />
  <path
     class="cls-31"
     d="m 228.22236,379.51169 -12.94,0.79 v -32.19 a 8.8,8.8 0 0 1 6.24,-4.25 6.82,6.82 0 0 1 6.7,3.14 z"
     id="path242"
     style="fill:#4a4a48;stroke:#e78f8d;stroke-miterlimit:10" />
  <line
     class="cls-24"
     x1="215.28235"
     y1="354.48169"
     x2="228.22235"
     y2="353.72168"
     id="line244"
     style="fill:none;stroke:#e78f8d;stroke-miterlimit:10" />
  <line
     class="cls-24"
     x1="221.67235"
     y1="354.56168"
     x2="221.77235"
     y2="379.91168"
     id="line246"
     style="fill:none;stroke:#e78f8d;stroke-miterlimit:10" />
  <path
     class="cls-31"
     d="m 244.94235,378.45169 -13.25999,0.82 v -32.6 a 9,9 0 0 1 6.38999,-4.31 7,7 0 0 1 6.87,3.18 z"
     id="path248"
     style="fill:#4a4a48;stroke:#e78f8d;stroke-miterlimit:10" />
  <line
     class="cls-24"
     x1="231.68236"
     y1="353.16168"
     x2="244.94235"
     y2="352.3717"
     id="line250"
     style="fill:none;stroke:#e78f8d;stroke-miterlimit:10" />
  <line
     class="cls-24"
     x1="238.22235"
     y1="353.23169"
     x2="238.32236"
     y2="378.89169"
     id="line252"
     style="fill:none;stroke:#e78f8d;stroke-miterlimit:10" />
  <path
     class="cls-31"
     d="m 177.88236,447.34169 -26.81,0.29 v -33.89 c 0.18,-0.17 4.36,-4 12.85999,-4.42 5.71,-0.31 11.11,1 14,3.41 z"
     id="path254"
     style="fill:#4a4a48;stroke:#e78f8d;stroke-miterlimit:10" />
  <line
     class="cls-24"
     x1="151.07236"
     y1="420.45169"
     x2="177.88235"
     y2="419.8717"
     id="line256"
     style="fill:none;stroke:#e78f8d;stroke-miterlimit:10" />
  <line
     class="cls-24"
     x1="164.23235"
     y1="420.6517"
     x2="164.43236"
     y2="447.48166"
     id="line258"
     style="fill:none;stroke:#e78f8d;stroke-miterlimit:10" />
  <path
     class="cls-31"
     d="m 244.01235,446.62169 -29.60999,0.32 v -35.6 c 0.2,-0.18 4.81,-4.17 14.19,-4.67 6.31,-0.34 12.28999,1 15.41999,3.55 z"
     id="path260"
     style="fill:#4a4a48;stroke:#e78f8d;stroke-miterlimit:10" />
  <line
     class="cls-24"
     x1="214.40234"
     y1="418.39169"
     x2="244.01233"
     y2="417.7417"
     id="line262"
     style="fill:none;stroke:#e78f8d;stroke-miterlimit:10" />
  <line
     class="cls-24"
     x1="228.93236"
     y1="418.57169"
     x2="229.16235"
     y2="446.78165"
     id="line264"
     style="fill:none;stroke:#e78f8d;stroke-miterlimit:10" />
  <path
     class="cls-31"
     d="m 319.68235,445.80169 -33,0.35 v -37.54 c 0.22001,-0.2 5.36,-4.42 15.8,-5 7,-0.37 13.7,1.06 17.19,3.72 z"
     id="path266"
     style="fill:#4a4a48;stroke:#e78f8d;stroke-miterlimit:10" />
  <line
     class="cls-24"
     x1="286.69232"
     y1="416.04169"
     x2="319.68234"
     y2="415.3017"
     id="line268"
     style="fill:none;stroke:#e78f8d;stroke-miterlimit:10" />
  <line
     class="cls-24"
     x1="302.87234"
     y1="416.2117"
     x2="303.12234"
     y2="445.98166"
     id="line270"
     style="fill:none;stroke:#e78f8d;stroke-miterlimit:10" />
  <path
     class="cls-32"
     d="m 177.23235,526.53169 -26.34,-1.34 v -41.74 l 25.86,0.46 z"
     id="path272"
     style="fill:#3e3e3c;stroke:#e78f8d;stroke-miterlimit:10" />
  <line
     class="cls-24"
     x1="158.83235"
     y1="483.87167"
     x2="159.18236"
     y2="526.1217"
     id="line274"
     style="fill:none;stroke:#e78f8d;stroke-miterlimit:10" />
  <line
     class="cls-24"
     x1="168.81235"
     y1="483.16165"
     x2="169.17235"
     y2="525.7417"
     id="line276"
     style="fill:none;stroke:#e78f8d;stroke-miterlimit:10" />
  <line
     class="cls-24"
     x1="150.89235"
     y1="492.5217"
     x2="176.86235"
     y2="493.17166"
     id="line278"
     style="fill:none;stroke:#e78f8d;stroke-miterlimit:10" />
  <path
     class="cls-32"
     d="m 243.22236,530.37169 -30.84,-1.59 v -43.83 l 30.28999,0.54 q 0.27,22.44 0.55001,44.88 z"
     id="path280"
     style="fill:#3e3e3c;stroke:#e78f8d;stroke-miterlimit:10" />
  <line
     class="cls-24"
     x1="221.66235"
     y1="485.4617"
     x2="222.07236"
     y2="529.81171"
     id="line282"
     style="fill:none;stroke:#e78f8d;stroke-miterlimit:10" />
  <line
     class="cls-24"
     x1="233.35236"
     y1="484.74167"
     x2="233.77234"
     y2="529.48175"
     id="line284"
     style="fill:none;stroke:#e78f8d;stroke-miterlimit:10" />
  <line
     class="cls-24"
     x1="212.38235"
     y1="494.51169"
     x2="242.79233"
     y2="495.28165"
     id="line286"
     style="fill:none;stroke:#e78f8d;stroke-miterlimit:10" />
  <path
     class="cls-32"
     d="m 320.42235,533.33169 -34.43,-1.74 v -46.29 l 33.81,0.58 q 0.32,23.72 0.62,47.45 z"
     id="path288"
     style="fill:#3e3e3c;stroke:#e78f8d;stroke-miterlimit:10" />
  <line
     class="cls-24"
     x1="296.34235"
     y1="485.85165"
     x2="296.80234"
     y2="532.70172"
     id="line290"
     style="fill:none;stroke:#e78f8d;stroke-miterlimit:10" />
  <line
     class="cls-24"
     x1="309.39233"
     y1="485.0817"
     x2="309.86234"
     y2="532.3717"
     id="line292"
     style="fill:none;stroke:#e78f8d;stroke-miterlimit:10" />
  <line
     class="cls-24"
     x1="285.99234"
     y1="495.4017"
     x2="319.94232"
     y2="496.23166"
     id="line294"
     style="fill:none;stroke:#e78f8d;stroke-miterlimit:10" />
  <path
     class="cls-42"
     d="m 186.12235,557.80169 -42.84,-3.21 v -148.86 c 0.69,-0.83 9.1,-10.77 23,-10.61 a 27.62,27.62 0 0 1 19.86,8.71 z"
     id="path296"
     style="fill:none;stroke:#e78f8d;stroke-width:4px;stroke-miterlimit:10" />
  <path
     class="cls-42"
     d="m 253.48235,562.84169 -47.34,-3.54 v -156.36 c 0.76,-0.88 10,-11.35 25.38,-11.21 a 31,31 0 0 1 22,9.1 z"
     id="path298"
     style="fill:none;stroke:#e78f8d;stroke-width:4px;stroke-miterlimit:10" />
  <path
     class="cls-42"
     d="m 330.26235,569.59169 -52.74,-4 v -164.86 a 39.35,39.35 0 0 1 28.24,-11.88 35.4,35.4 0 0 1 24.5,9.57 z"
     id="path300"
     style="fill:none;stroke:#e78f8d;stroke-width:4px;stroke-miterlimit:10" />
  <path
     class="cls-31"
     d="m 104.19235,386.53169 -10.649999,0.66 v -29.22 c 0.07,-0.15 1.75,-3.42 5.14001,-3.82 a 5.51,5.51 0 0 1 5.509989,2.9 z"
     id="path302"
     style="fill:#4a4a48;stroke:#e78f8d;stroke-miterlimit:10" />
  <line
     class="cls-24"
     x1="93.542366"
     y1="363.75168"
     x2="104.19236"
     y2="363.14169"
     id="line304"
     style="fill:none;stroke:#e78f8d;stroke-miterlimit:10" />
  <line
     class="cls-24"
     x1="98.802361"
     y1="363.86169"
     x2="98.882355"
     y2="386.86169"
     id="line306"
     style="fill:none;stroke:#e78f8d;stroke-miterlimit:10" />
  <path
     class="cls-31"
     d="m 117.92235,385.68169 -10.89,0.68 v -29.56 c 0.08,-0.14 1.79001,-3.46 5.26,-3.86 a 5.61,5.61 0 0 1 5.63,2.93 z"
     id="path308"
     style="fill:#4a4a48;stroke:#e78f8d;stroke-miterlimit:10" />
  <line
     class="cls-24"
     x1="107.03236"
     y1="362.66168"
     x2="117.92236"
     y2="362.0217"
     id="line310"
     style="fill:none;stroke:#e78f8d;stroke-miterlimit:10" />
  <line
     class="cls-24"
     x1="112.41236"
     y1="362.76169"
     x2="112.50236"
     y2="386.0217"
     id="line312"
     style="fill:none;stroke:#e78f8d;stroke-miterlimit:10" />
  <path
     class="cls-31"
     d="m 49.232356,391.30169 -9.7,0.59 v -27.91 c 0.06,-0.14 1.59,-3.25 4.68,-3.62 a 5,5 0 0 1 5,2.8 z"
     id="path314"
     style="fill:#4a4a48;stroke:#e78f8d;stroke-miterlimit:10" />
  <line
     class="cls-24"
     x1="39.532356"
     y1="369.51169"
     x2="49.232353"
     y2="368.97168"
     id="line316"
     style="fill:none;stroke:#e78f8d;stroke-miterlimit:10" />
  <line
     class="cls-24"
     x1="44.322357"
     y1="369.64169"
     x2="44.402359"
     y2="391.59171"
     id="line318"
     style="fill:none;stroke:#e78f8d;stroke-miterlimit:10" />
  <path
     class="cls-31"
     d="m 61.742356,390.54169 -9.92,0.6 v -28.2 c 0.07,-0.14 1.63,-3.3 4.79,-3.66 a 5.09,5.09 0 0 1 5.13,2.81 z"
     id="path320"
     style="fill:#4a4a48;stroke:#e78f8d;stroke-miterlimit:10" />
  <line
     class="cls-24"
     x1="51.822357"
     y1="368.5217"
     x2="61.742355"
     y2="367.97168"
     id="line322"
     style="fill:none;stroke:#e78f8d;stroke-miterlimit:10" />
  <line
     class="cls-24"
     x1="56.722359"
     y1="368.6517"
     x2="56.802353"
     y2="390.84171"
     id="line324"
     style="fill:none;stroke:#e78f8d;stroke-miterlimit:10" />
  <path
     class="cls-31"
     d="m 61.742356,446.96169 -22.21,0.27 v -30.87 c 0.15,-0.16 3.62,-3.6 10.66,-4 4.73,-0.27 9.21,0.94 11.55,3.13 z"
     id="path326"
     style="fill:#4a4a48;stroke:#e78f8d;stroke-miterlimit:10" />
  <line
     class="cls-24"
     x1="39.532356"
     y1="422.47168"
     x2="61.742355"
     y2="421.9917"
     id="line328"
     style="fill:none;stroke:#e78f8d;stroke-miterlimit:10" />
  <line
     class="cls-24"
     x1="50.44236"
     y1="422.67169"
     x2="50.612358"
     y2="447.10165"
     id="line330"
     style="fill:none;stroke:#e78f8d;stroke-miterlimit:10" />
  <path
     class="cls-31"
     d="m 117.90235,446.27169 -24.379989,0.3 v -32.33 c 0.17,-0.16 4,-3.78 11.699999,-4.21 5.19,-0.3 10.10999,1 12.68,3.25 z"
     id="path332"
     style="fill:#4a4a48;stroke:#e78f8d;stroke-miterlimit:10" />
  <line
     class="cls-24"
     x1="93.522362"
     y1="420.64169"
     x2="117.90235"
     y2="420.10168"
     id="line334"
     style="fill:none;stroke:#e78f8d;stroke-miterlimit:10" />
  <line
     class="cls-24"
     x1="105.50236"
     y1="420.8317"
     x2="105.68235"
     y2="446.42166"
     id="line336"
     style="fill:none;stroke:#e78f8d;stroke-miterlimit:10" />
  <path
     class="cls-42"
     d="m 67.132356,549.30169 -35.41,-2.66 v -135.54 c 0.57,-0.76 7.54,-9.77 19,-9.56 a 22.17,22.17 0 0 1 16.38,8 z"
     id="path338"
     style="fill:none;stroke:#e78f8d;stroke-width:4px;stroke-miterlimit:10" />
  <path
     class="cls-42"
     d="m 123.83235,554.45169 -38.859999,-3 v -141.87 c 0.62,-0.79 8.26001,-10.24 20.869999,-10 a 24.67,24.67 0 0 1 18,8.35 z"
     id="path340"
     style="fill:none;stroke:#e78f8d;stroke-width:4px;stroke-miterlimit:10" />
  <path
     class="cls-32"
     d="m 60.852356,523.05169 -23.13,-1.22 v -38 l 22.71,0.44 z"
     id="path342"
     style="fill:#3e3e3c;stroke:#e78f8d;stroke-miterlimit:10" />
  <line
     class="cls-24"
     x1="44.69236"
     y1="484.25168"
     x2="45.002357"
     y2="522.67169"
     id="line344"
     style="fill:none;stroke:#e78f8d;stroke-miterlimit:10" />
  <line
     class="cls-24"
     x1="53.462357"
     y1="483.61166"
     x2="53.782356"
     y2="522.33173"
     id="line346"
     style="fill:none;stroke:#e78f8d;stroke-miterlimit:10" />
  <line
     class="cls-24"
     x1="37.722359"
     y1="492.10165"
     x2="60.522354"
     y2="492.72165"
     id="line348"
     style="fill:none;stroke:#e78f8d;stroke-miterlimit:10" />
  <path
     class="cls-32"
     d="m 118.12235,525.23169 -25.439989,-1.33 v -39.85 l 24.999989,0.48 q 0.21,20.34 0.44,40.7 z"
     id="path350"
     style="fill:#3e3e3c;stroke:#e78f8d;stroke-miterlimit:10" />
  <line
     class="cls-24"
     x1="100.35236"
     y1="484.51169"
     x2="100.69236"
     y2="524.81171"
     id="line352"
     style="fill:none;stroke:#e78f8d;stroke-miterlimit:10" />
  <line
     class="cls-24"
     x1="109.99235"
     y1="483.85165"
     x2="110.33236"
     y2="524.46173"
     id="line354"
     style="fill:none;stroke:#e78f8d;stroke-miterlimit:10" />
  <line
     class="cls-24"
     x1="92.682365"
     y1="492.75168"
     x2="117.76235"
     y2="493.41165"
     id="line356"
     style="fill:none;stroke:#e78f8d;stroke-miterlimit:10" />
  <polygon
     class="cls-4"
     points="336.16,321 336.17,313.85 20.69,346.08 10.1,353.21 "
     id="polygon358"
     style="fill:#a44538"
     transform="translate(10.612356,-11.548314)" />
  <path
     class="cls-43"
     d="m 484.76235,47.90169 c -15.47,1.06 -31.1,-2.2 -46.61,-2.71 0.06,-2.54 0.06,-5.09 0.15,-7.64 a 299.12,299.12 0 0 1 48.76,3.49 c -0.45,2.41 -1.55,4.54 -2.3,6.86 z"
     id="path360"
     style="fill:#ed1c24" />
  <path
     class="cls-44"
     d="m 487.08236,52.91169 c -13.36,4.71 -34.8,0.63 -49.24,-0.92 0.17,-2.27 0.26,-4.53 0.31,-6.8 15.51,0.51 31.13999,3.77 46.61,2.71 -0.71,2.48 -0.15,4.1 2.32,5.01 z"
     id="path362"
     style="fill:#0071bc" />
  <path
     class="cls-45"
     d="m 495.24235,55.99169 c -0.89,0.58 -0.95,0.67 -2.07,1.38 -0.56,0.35 -2,1.25 -3.08,1.78 -2.61999,1.31 -7.3,2.9 -9.99999,2.94 -8.67001,0.13 -16.05001,-2.16 -24.33,-1.7 -2.58,0.14 -4.63,0 -7,0 -2.37,0 -4.72001,-0.41 -6.89,-0.65 -0.9,-0.11 -1.88,-0.27 -2.41,-0.34 l -2.21,-0.29 c 0.23,-2.39 0.41,-4.79 0.6,-7.19 14.38,1.54 35.83,5.63 49.12,1 2.43,0.81 6.64,0.76 8.26999,3.07 z"
     id="path364"
     style="fill:#fbb03b" />
  <line
     class="cls-46"
     x1="435.89233"
     y1="96.08168"
     x2="438.19232"
     y2="35.141685"
     id="line366"
     style="fill:none;stroke:#66625f;stroke-miterlimit:10" />
</svg>
