<?xml version="1.0" encoding="UTF-8" standalone="no"?>
<svg
   id="Layer_1"
   data-name="Layer 1"
   viewBox="0 0 841.89 595.28"
   version="1.1"
   sodipodi:docname="Տւմանյանի տւն տանգարան-01.svg"
   inkscape:version="1.2.1 (9c6d41e410, 2022-07-14, custom)"
   xmlns:inkscape="http://www.inkscape.org/namespaces/inkscape"
   xmlns:sodipodi="http://sodipodi.sourceforge.net/DTD/sodipodi-0.dtd"
   xmlns="http://www.w3.org/2000/svg"
   xmlns:svg="http://www.w3.org/2000/svg">
  <sodipodi:namedview
     id="namedview483"
     pagecolor="#ffffff"
     bordercolor="#000000"
     borderopacity="0.25"
     inkscape:showpageshadow="2"
     inkscape:pageopacity="0.0"
     inkscape:pagecheckerboard="0"
     inkscape:deskcolor="#d1d1d1"
     showgrid="false"
     inkscape:zoom="1.1213358"
     inkscape:cx="430.73627"
     inkscape:cy="269.32165"
     inkscape:window-width="1920"
     inkscape:window-height="1151"
     inkscape:window-x="0"
     inkscape:window-y="20"
     inkscape:window-maximized="1"
     inkscape:current-layer="Layer_1" />
  <defs
     id="defs4">
    <style
       id="style2">.cls-1{fill:#401a0f;}.cls-2{fill:#b76847;}.cls-3{fill:#dce4ef;}.cls-19,.cls-20,.cls-3,.cls-4{stroke:#603813;}.cls-11,.cls-12,.cls-13,.cls-15,.cls-16,.cls-17,.cls-18,.cls-19,.cls-20,.cls-21,.cls-24,.cls-25,.cls-27,.cls-28,.cls-3,.cls-30,.cls-33,.cls-34,.cls-4,.cls-5,.cls-6,.cls-7,.cls-8{stroke-miterlimit:10;}.cls-3,.cls-30,.cls-4{stroke-width:2.9px;}.cls-11,.cls-12,.cls-13,.cls-15,.cls-16,.cls-17,.cls-18,.cls-21,.cls-24,.cls-25,.cls-27,.cls-28,.cls-33,.cls-34,.cls-4,.cls-5,.cls-6,.cls-7,.cls-8{fill:none;}.cls-5,.cls-6,.cls-7{stroke:#666;}.cls-5{stroke-width:3.84px;}.cls-6{stroke-width:2.96px;}.cls-7{stroke-width:3.61px;}.cls-8{stroke:#c0bbb8;stroke-width:3.87px;}.cls-10,.cls-9{fill:#d9c0bb;}.cls-10{fill-rule:evenodd;}.cls-11,.cls-12{stroke:#7f6757;}.cls-11{stroke-width:38.05px;}.cls-12{stroke-width:37.24px;}.cls-13,.cls-17,.cls-33,.cls-34{stroke:#38312d;}.cls-13{stroke-width:0.97px;}.cls-14{fill:#db9b71;}.cls-15{stroke:#f4ae7f;stroke-width:58.02px;}.cls-16,.cls-18{stroke:#f2b186;}.cls-16{stroke-width:34.2px;}.cls-17,.cls-19{stroke-width:1.93px;}.cls-18{stroke-width:25.14px;}.cls-19,.cls-20{fill:#e0af8d;}.cls-20{stroke-width:2.19px;}.cls-21{stroke:#cc9f80;stroke-width:32.03px;}.cls-22{fill:#5a2708;}.cls-23{fill:#5c596a;}.cls-24,.cls-25,.cls-30{stroke:#201a24;}.cls-24{stroke-width:3.37px;}.cls-25{stroke-width:3.16px;}.cls-26{fill:#5c5a68;}.cls-27,.cls-28{stroke:#b78484;}.cls-27{stroke-width:2.86px;}.cls-28{stroke-width:3.49px;}.cls-29{fill:#c0bbb8;}.cls-30{fill:#746e72;}.cls-31{fill:#ada08d;}.cls-32{fill:#dbd0c1;}.cls-33{stroke-width:2.03px;}.cls-34{stroke-width:1.85px;}.cls-35{fill:#8a898e;}.cls-36{fill:#9f9fa3;}</style>
  </defs>
  <title
     id="title6">Տւմանյանի տւն տանգարան</title>
  <path
     class="cls-1"
     d="m 719.35694,185.7749 -280.13,-36 -261.87,36 v -76 h 542 z"
     id="path8"
     style="fill:#401a0f" />
  <path
     class="cls-2"
     d="m 731.95694,314.4649 h -567.25 v -151.4 c 145.38,-7.62 276.16,-14.59 276.1,-15 0,-0.09 -5.78,-0.3 -5.78,-0.3 l 296.93,15.3 z"
     id="path10"
     style="fill:#b76847" />
  <rect
     class="cls-3"
     x="193.42696"
     y="236.52489"
     width="41.810001"
     height="52.950001"
     id="rect12"
     style="fill:#dce4ef;stroke:#603813;stroke-width:2.9px;stroke-miterlimit:10" />
  <line
     class="cls-4"
     x1="193.42696"
     y1="257.32489"
     x2="235.23695"
     y2="257.32489"
     id="line14"
     style="fill:none;stroke:#603813;stroke-width:2.9px;stroke-miterlimit:10" />
  <line
     class="cls-4"
     x1="214.32695"
     y1="257.32489"
     x2="214.32695"
     y2="289.47488"
     id="line16"
     style="fill:none;stroke:#603813;stroke-width:2.9px;stroke-miterlimit:10" />
  <rect
     class="cls-3"
     x="253.92696"
     y="236.6049"
     width="41.810001"
     height="52.950001"
     id="rect18"
     style="fill:#dce4ef;stroke:#603813;stroke-width:2.9px;stroke-miterlimit:10" />
  <line
     class="cls-4"
     x1="253.92696"
     y1="257.40488"
     x2="295.73694"
     y2="257.40488"
     id="line20"
     style="fill:none;stroke:#603813;stroke-width:2.9px;stroke-miterlimit:10" />
  <line
     class="cls-4"
     x1="274.82693"
     y1="257.40488"
     x2="274.82693"
     y2="289.55487"
     id="line22"
     style="fill:none;stroke:#603813;stroke-width:2.9px;stroke-miterlimit:10" />
  <rect
     class="cls-3"
     x="354.57693"
     y="235.7549"
     width="41.810001"
     height="52.950001"
     id="rect24"
     style="fill:#dce4ef;stroke:#603813;stroke-width:2.9px;stroke-miterlimit:10" />
  <line
     class="cls-4"
     x1="354.57693"
     y1="256.55487"
     x2="396.38693"
     y2="256.55487"
     id="line26"
     style="fill:none;stroke:#603813;stroke-width:2.9px;stroke-miterlimit:10" />
  <line
     class="cls-4"
     x1="375.48694"
     y1="256.55487"
     x2="375.48694"
     y2="288.70486"
     id="line28"
     style="fill:none;stroke:#603813;stroke-width:2.9px;stroke-miterlimit:10" />
  <rect
     class="cls-3"
     x="421.12692"
     y="235.9149"
     width="41.810001"
     height="52.950001"
     id="rect30"
     style="fill:#dce4ef;stroke:#603813;stroke-width:2.9px;stroke-miterlimit:10" />
  <line
     class="cls-4"
     x1="421.12692"
     y1="256.71487"
     x2="462.93692"
     y2="256.71487"
     id="line32"
     style="fill:none;stroke:#603813;stroke-width:2.9px;stroke-miterlimit:10" />
  <line
     class="cls-4"
     x1="442.02695"
     y1="256.71487"
     x2="442.02695"
     y2="288.86487"
     id="line34"
     style="fill:none;stroke:#603813;stroke-width:2.9px;stroke-miterlimit:10" />
  <rect
     class="cls-3"
     x="486.98691"
     y="237.64488"
     width="41.810001"
     height="52.950001"
     id="rect36"
     style="fill:#dce4ef;stroke:#603813;stroke-width:2.9px;stroke-miterlimit:10" />
  <line
     class="cls-4"
     x1="486.98691"
     y1="258.44489"
     x2="528.80695"
     y2="258.44489"
     id="line38"
     style="fill:none;stroke:#603813;stroke-width:2.9px;stroke-miterlimit:10" />
  <line
     class="cls-4"
     x1="507.89694"
     y1="258.44489"
     x2="507.89694"
     y2="290.59488"
     id="line40"
     style="fill:none;stroke:#603813;stroke-width:2.9px;stroke-miterlimit:10" />
  <rect
     class="cls-3"
     x="585.40692"
     y="236.2849"
     width="41.810001"
     height="52.950001"
     id="rect42"
     style="fill:#dce4ef;stroke:#603813;stroke-width:2.9px;stroke-miterlimit:10" />
  <line
     class="cls-4"
     x1="585.40692"
     y1="257.08487"
     x2="627.21692"
     y2="257.08487"
     id="line44"
     style="fill:none;stroke:#603813;stroke-width:2.9px;stroke-miterlimit:10" />
  <line
     class="cls-4"
     x1="606.31696"
     y1="257.08487"
     x2="606.31696"
     y2="289.23486"
     id="line46"
     style="fill:none;stroke:#603813;stroke-width:2.9px;stroke-miterlimit:10" />
  <rect
     class="cls-3"
     x="649.38696"
     y="236.6949"
     width="41.810001"
     height="52.950001"
     id="rect48"
     style="fill:#dce4ef;stroke:#603813;stroke-width:2.9px;stroke-miterlimit:10" />
  <line
     class="cls-4"
     x1="649.38696"
     y1="257.49487"
     x2="691.19696"
     y2="257.49487"
     id="line50"
     style="fill:none;stroke:#603813;stroke-width:2.9px;stroke-miterlimit:10" />
  <line
     class="cls-4"
     x1="670.28693"
     y1="257.49487"
     x2="670.28693"
     y2="289.64487"
     id="line52"
     style="fill:none;stroke:#603813;stroke-width:2.9px;stroke-miterlimit:10" />
  <path
     class="cls-5"
     d="m 349.53694,270.9349 q 0,19.2 0,38.4"
     id="path54"
     style="fill:none;stroke:#666666;stroke-width:3.84px;stroke-miterlimit:10" />
  <path
     class="cls-5"
     d="m 358.16694,271.0749 c 0.1,12.74 0.14,25.47 0.34,38.21"
     id="path56"
     style="fill:none;stroke:#666666;stroke-width:3.84px;stroke-miterlimit:10" />
  <path
     class="cls-5"
     d="m 367.27694,270.6149 q -0.32,19.28 0,38.55"
     id="path58"
     style="fill:none;stroke:#666666;stroke-width:3.84px;stroke-miterlimit:10" />
  <path
     class="cls-5"
     d="m 375.28694,269.9349 c 0.43,13.08 0.48,26.17 0.45,39.26"
     id="path60"
     style="fill:none;stroke:#666666;stroke-width:3.84px;stroke-miterlimit:10" />
  <path
     class="cls-5"
     d="m 383.80694,270.3449 q -0.31,19.47 0,38.94"
     id="path62"
     style="fill:none;stroke:#666666;stroke-width:3.84px;stroke-miterlimit:10" />
  <path
     class="cls-5"
     d="m 393.02694,269.5849 q 0.34,19.85 0,39.7"
     id="path64"
     style="fill:none;stroke:#666666;stroke-width:3.84px;stroke-miterlimit:10" />
  <path
     class="cls-5"
     d="m 297.21694,271.0849 q 0,19.2 0,38.4"
     id="path66"
     style="fill:none;stroke:#666666;stroke-width:3.84px;stroke-miterlimit:10" />
  <path
     class="cls-5"
     d="m 305.83694,271.2249 c 0.1,12.74 0.14,25.47 0.35,38.21"
     id="path68"
     style="fill:none;stroke:#666666;stroke-width:3.84px;stroke-miterlimit:10" />
  <path
     class="cls-5"
     d="m 314.95694,270.7749 q -0.33,19.27 0,38.55"
     id="path70"
     style="fill:none;stroke:#666666;stroke-width:3.84px;stroke-miterlimit:10" />
  <path
     class="cls-5"
     d="m 322.95694,270.0849 c 0.44,13.08 0.49,26.17 0.46,39.26"
     id="path72"
     style="fill:none;stroke:#666666;stroke-width:3.84px;stroke-miterlimit:10" />
  <path
     class="cls-5"
     d="m 331.47694,270.4949 q -0.31,19.47 0,38.94"
     id="path74"
     style="fill:none;stroke:#666666;stroke-width:3.84px;stroke-miterlimit:10" />
  <path
     class="cls-5"
     d="m 340.69694,269.7749 q 0.35,19.85 0,39.7"
     id="path76"
     style="fill:none;stroke:#666666;stroke-width:3.84px;stroke-miterlimit:10" />
  <path
     class="cls-5"
     d="m 402.18694,270.9049 q 0,19.22 0,38.41"
     id="path78"
     style="fill:none;stroke:#666666;stroke-width:3.84px;stroke-miterlimit:10" />
  <path
     class="cls-5"
     d="m 410.80694,271.0449 c 0.1,12.74 0.14,25.48 0.35,38.22"
     id="path80"
     style="fill:none;stroke:#666666;stroke-width:3.84px;stroke-miterlimit:10" />
  <path
     class="cls-5"
     d="m 419.91694,270.5949 q -0.31,19.26 0,38.54"
     id="path82"
     style="fill:none;stroke:#666666;stroke-width:3.84px;stroke-miterlimit:10" />
  <path
     class="cls-5"
     d="m 427.92694,269.9049 c 0.44,13.09 0.49,26.18 0.46,39.27"
     id="path84"
     style="fill:none;stroke:#666666;stroke-width:3.84px;stroke-miterlimit:10" />
  <path
     class="cls-5"
     d="m 436.44694,270.3249 q -0.31,19.47 0,38.94"
     id="path86"
     style="fill:none;stroke:#666666;stroke-width:3.84px;stroke-miterlimit:10" />
  <path
     class="cls-5"
     d="m 445.66694,269.5549 q 0.35,19.86 0,39.71"
     id="path88"
     style="fill:none;stroke:#666666;stroke-width:3.84px;stroke-miterlimit:10" />
  <path
     class="cls-5"
     d="m 455.73694,270.9049 q 0,19.22 0,38.41"
     id="path90"
     style="fill:none;stroke:#666666;stroke-width:3.84px;stroke-miterlimit:10" />
  <path
     class="cls-5"
     d="m 464.35694,271.0449 c 0.1,12.74 0.14,25.48 0.35,38.22"
     id="path92"
     style="fill:none;stroke:#666666;stroke-width:3.84px;stroke-miterlimit:10" />
  <path
     class="cls-5"
     d="m 473.46694,270.5949 q -0.32,19.26 0,38.54"
     id="path94"
     style="fill:none;stroke:#666666;stroke-width:3.84px;stroke-miterlimit:10" />
  <path
     class="cls-5"
     d="m 481.47694,269.9049 c 0.43,13.09 0.49,26.18 0.46,39.27"
     id="path96"
     style="fill:none;stroke:#666666;stroke-width:3.84px;stroke-miterlimit:10" />
  <path
     class="cls-5"
     d="m 489.99694,270.3249 q -0.31,19.47 0,38.94"
     id="path98"
     style="fill:none;stroke:#666666;stroke-width:3.84px;stroke-miterlimit:10" />
  <path
     class="cls-5"
     d="m 499.21694,269.5549 q 0.34,19.86 0,39.71"
     id="path100"
     style="fill:none;stroke:#666666;stroke-width:3.84px;stroke-miterlimit:10" />
  <path
     class="cls-5"
     d="m 509.16694,270.8849 q 0,19.2 0,38.4"
     id="path102"
     style="fill:none;stroke:#666666;stroke-width:3.84px;stroke-miterlimit:10" />
  <path
     class="cls-5"
     d="m 517.79694,271.0249 c 0.09,12.74 0.14,25.47 0.34,38.21"
     id="path104"
     style="fill:none;stroke:#666666;stroke-width:3.84px;stroke-miterlimit:10" />
  <path
     class="cls-5"
     d="m 526.90694,270.5649 q -0.33,19.27 0,38.55"
     id="path106"
     style="fill:none;stroke:#666666;stroke-width:3.84px;stroke-miterlimit:10" />
  <path
     class="cls-5"
     d="m 534.90694,269.8849 c 0.44,13.08 0.49,26.17 0.46,39.26"
     id="path108"
     style="fill:none;stroke:#666666;stroke-width:3.84px;stroke-miterlimit:10" />
  <path
     class="cls-5"
     d="m 543.42694,270.2949 q -0.3,19.47 0,38.94"
     id="path110"
     style="fill:none;stroke:#666666;stroke-width:3.84px;stroke-miterlimit:10" />
  <path
     class="cls-5"
     d="m 552.65694,269.5349 q 0.33,19.85 0,39.7"
     id="path112"
     style="fill:none;stroke:#666666;stroke-width:3.84px;stroke-miterlimit:10" />
  <path
     class="cls-5"
     d="m 562.82694,271.7749 q 0,19.2 0,38.4"
     id="path114"
     style="fill:none;stroke:#666666;stroke-width:3.84px;stroke-miterlimit:10" />
  <path
     class="cls-5"
     d="m 571.45694,271.9449 c 0.09,12.74 0.13,25.48 0.34,38.21"
     id="path116"
     style="fill:none;stroke:#666666;stroke-width:3.84px;stroke-miterlimit:10" />
  <path
     class="cls-5"
     d="m 580.56694,271.4849 q -0.33,19.28 0,38.55"
     id="path118"
     style="fill:none;stroke:#666666;stroke-width:3.84px;stroke-miterlimit:10" />
  <path
     class="cls-5"
     d="m 588.56694,270.7749 c 0.44,13.08 0.49,26.17 0.46,39.26"
     id="path120"
     style="fill:none;stroke:#666666;stroke-width:3.84px;stroke-miterlimit:10" />
  <path
     class="cls-5"
     d="m 597.08694,271.2149 q -0.3,19.47 0,38.94"
     id="path122"
     style="fill:none;stroke:#666666;stroke-width:3.84px;stroke-miterlimit:10" />
  <path
     class="cls-5"
     d="m 606.35694,270.4549 q 0.33,19.85 0,39.7"
     id="path124"
     style="fill:none;stroke:#666666;stroke-width:3.84px;stroke-miterlimit:10" />
  <path
     class="cls-5"
     d="m 616.54694,270.9049 q 0,19.22 0,38.41"
     id="path126"
     style="fill:none;stroke:#666666;stroke-width:3.84px;stroke-miterlimit:10" />
  <path
     class="cls-5"
     d="m 625.17694,271.0449 c 0.1,12.74 0.14,25.48 0.35,38.22"
     id="path128"
     style="fill:none;stroke:#666666;stroke-width:3.84px;stroke-miterlimit:10" />
  <path
     class="cls-5"
     d="m 634.28694,270.5949 q -0.31,19.26 0,38.54"
     id="path130"
     style="fill:none;stroke:#666666;stroke-width:3.84px;stroke-miterlimit:10" />
  <path
     class="cls-5"
     d="m 642.29694,269.9049 c 0.43,13.09 0.49,26.18 0.46,39.27"
     id="path132"
     style="fill:none;stroke:#666666;stroke-width:3.84px;stroke-miterlimit:10" />
  <path
     class="cls-5"
     d="m 650.81694,270.3249 q -0.32,19.47 0,38.94"
     id="path134"
     style="fill:none;stroke:#666666;stroke-width:3.84px;stroke-miterlimit:10" />
  <path
     class="cls-5"
     d="m 660.03694,269.5549 q 0.35,19.86 0,39.71"
     id="path136"
     style="fill:none;stroke:#666666;stroke-width:3.84px;stroke-miterlimit:10" />
  <path
     class="cls-5"
     d="m 670.28694,270.8649 q 0,19.2 0,38.4"
     id="path138"
     style="fill:none;stroke:#666666;stroke-width:3.84px;stroke-miterlimit:10" />
  <path
     class="cls-5"
     d="m 678.91694,270.9949 c 0.1,12.74 0.14,25.48 0.34,38.22"
     id="path140"
     style="fill:none;stroke:#666666;stroke-width:3.84px;stroke-miterlimit:10" />
  <path
     class="cls-5"
     d="m 688.02694,270.5449 q -0.33,19.26 0,38.54"
     id="path142"
     style="fill:none;stroke:#666666;stroke-width:3.84px;stroke-miterlimit:10" />
  <path
     class="cls-5"
     d="m 696.03694,269.8549 c 0.43,13.09 0.48,26.18 0.45,39.27"
     id="path144"
     style="fill:none;stroke:#666666;stroke-width:3.84px;stroke-miterlimit:10" />
  <path
     class="cls-5"
     d="m 704.54694,270.2749 q -0.3,19.47 0,38.94"
     id="path146"
     style="fill:none;stroke:#666666;stroke-width:3.84px;stroke-miterlimit:10" />
  <path
     class="cls-5"
     d="m 713.77694,269.5049 q 0.33,19.86 0,39.71"
     id="path148"
     style="fill:none;stroke:#666666;stroke-width:3.84px;stroke-miterlimit:10" />
  <path
     class="cls-5"
     d="m 720.80694,270.9049 q 0,19.22 0,38.41"
     id="path150"
     style="fill:none;stroke:#666666;stroke-width:3.84px;stroke-miterlimit:10" />
  <path
     class="cls-5"
     d="m 729.43694,271.0449 c 0.09,12.74 0.14,25.48 0.34,38.22"
     id="path152"
     style="fill:none;stroke:#666666;stroke-width:3.84px;stroke-miterlimit:10" />
  <path
     class="cls-5"
     d="m 738.54694,270.5949 q -0.33,19.26 0,38.54"
     id="path154"
     style="fill:none;stroke:#666666;stroke-width:3.84px;stroke-miterlimit:10" />
  <path
     class="cls-5"
     d="m 746.54694,269.9049 c 0.44,13.09 0.49,26.18 0.46,39.27"
     id="path156"
     style="fill:none;stroke:#666666;stroke-width:3.84px;stroke-miterlimit:10" />
  <path
     class="cls-5"
     d="m 755.06694,270.3249 q -0.3,19.47 0,38.94"
     id="path158"
     style="fill:none;stroke:#666666;stroke-width:3.84px;stroke-miterlimit:10" />
  <path
     class="cls-5"
     d="m 764.29694,269.5549 q 0.33,19.86 0,39.71"
     id="path160"
     style="fill:none;stroke:#666666;stroke-width:3.84px;stroke-miterlimit:10" />
  <path
     class="cls-5"
     d="m 141.51694,270.9049 q 0,19.22 0,38.41"
     id="path162"
     style="fill:none;stroke:#666666;stroke-width:3.84px;stroke-miterlimit:10" />
  <path
     class="cls-5"
     d="m 150.14694,271.0449 c 0.1,12.74 0.14,25.48 0.34,38.22"
     id="path164"
     style="fill:none;stroke:#666666;stroke-width:3.84px;stroke-miterlimit:10" />
  <path
     class="cls-5"
     d="m 159.25694,270.5949 q -0.33,19.26 0,38.54"
     id="path166"
     style="fill:none;stroke:#666666;stroke-width:3.84px;stroke-miterlimit:10" />
  <path
     class="cls-5"
     d="m 167.26694,269.9049 c 0.43,13.09 0.48,26.18 0.45,39.27"
     id="path168"
     style="fill:none;stroke:#666666;stroke-width:3.84px;stroke-miterlimit:10" />
  <path
     class="cls-5"
     d="m 175.77694,270.3249 q -0.3,19.47 0,38.94"
     id="path170"
     style="fill:none;stroke:#666666;stroke-width:3.84px;stroke-miterlimit:10" />
  <path
     class="cls-5"
     d="m 185.00694,269.5549 q 0.33,19.86 0,39.71"
     id="path172"
     style="fill:none;stroke:#666666;stroke-width:3.84px;stroke-miterlimit:10" />
  <path
     class="cls-6"
     d="m 192.18694,269.7749 q 0.61,20.71 1.24,41.44"
     id="path174"
     style="fill:none;stroke:#666666;stroke-width:2.96px;stroke-miterlimit:10" />
  <path
     class="cls-6"
     d="m 200.76694,270.6049 0.37,40.33"
     id="path176"
     style="fill:none;stroke:#666666;stroke-width:2.96px;stroke-miterlimit:10" />
  <path
     class="cls-6"
     d="m 210.02694,270.9149 q -0.24,21.08 -0.47,42.16"
     id="path178"
     style="fill:none;stroke:#666666;stroke-width:2.96px;stroke-miterlimit:10" />
  <path
     class="cls-6"
     d="m 217.78694,270.4349 q -0.15,20.2 -0.31,40.39"
     id="path180"
     style="fill:none;stroke:#666666;stroke-width:2.96px;stroke-miterlimit:10" />
  <path
     class="cls-6"
     d="m 226.50694,270.3549 q -0.09,20.21 -0.16,40.41"
     id="path182"
     style="fill:none;stroke:#666666;stroke-width:2.96px;stroke-miterlimit:10" />
  <path
     class="cls-6"
     d="m 235.23694,270.3549 q -0.06,20.18 -0.11,40.36"
     id="path184"
     style="fill:none;stroke:#666666;stroke-width:2.96px;stroke-miterlimit:10" />
  <path
     class="cls-7"
     d="m 244.69694,270.4849 q 0,19.13 0,38.23"
     id="path186"
     style="fill:none;stroke:#666666;stroke-width:3.61px;stroke-miterlimit:10" />
  <path
     class="cls-7"
     d="m 253.29694,269.7749 c 0.13,13.21 0.17,26.42 0.43,39.62"
     id="path188"
     style="fill:none;stroke:#666666;stroke-width:3.61px;stroke-miterlimit:10" />
  <path
     class="cls-7"
     d="m 262.47694,269.9449 q -0.42,19.6 0,39.23"
     id="path190"
     style="fill:none;stroke:#666666;stroke-width:3.61px;stroke-miterlimit:10" />
  <path
     class="cls-7"
     d="m 270.23694,270.0149 c -0.05,13.16 1.41,26.3 0.81,39.47"
     id="path192"
     style="fill:none;stroke:#666666;stroke-width:3.61px;stroke-miterlimit:10" />
  <path
     class="cls-7"
     d="m 279.01694,269.9249 q -0.41,19.64 -0.06,39.27"
     id="path194"
     style="fill:none;stroke:#666666;stroke-width:3.61px;stroke-miterlimit:10" />
  <path
     class="cls-7"
     d="m 288.13694,269.8349 q 0.41,19.62 0.06,39.25"
     id="path196"
     style="fill:none;stroke:#666666;stroke-width:3.61px;stroke-miterlimit:10" />
  <line
     class="cls-8"
     x1="177.05693"
     y1="269.68488"
     x2="772.73694"
     y2="271.75488"
     id="line198"
     style="fill:none;stroke:#c0bbb8;stroke-width:3.87px;stroke-miterlimit:10" />
  <path
     class="cls-9"
     d="m 690.25694,305.3249 -495.4,3.35 -1.45,0.21 c -16.15,2.15 -32.79,3.66 -49.43,5.07 -8.11,0.69 -16.27,1.36 -24.4,2.07 l -23.500002,144.13 H 799.17694 l -31.82,-141.21 c -24.48,-5.54 -51.4,-9.07 -77.1,-13.62 z"
     id="path200"
     style="fill:#d9c0bb" />
  <path
     class="cls-10"
     d="m 765.56694,110.9749 a 1781.07,1781.07 0 0 0 -650.59,-1.71 l -9.09,-17.670004 337.58,-74.82 v 0 l 334.71,73 q -6.31,10.610004 -12.61,21.200004 z"
     id="path202"
     style="fill:#d9c0bb;fill-rule:evenodd" />
  <path
     class="cls-11"
     d="m 310.63694,404.4549 -128.06,-1.39 v 0 c 0,0 7.13,-218.34 7.13,-218.36 v 0 c 0,-0.06 4.32,-21.17 11.36,-32.7 9.33,-15.29 30.69,-25.56 51.18,-24.42 26.1,1.46 49.31,21.33 56,49.14 z"
     id="path204"
     style="fill:none;stroke:#7f6757;stroke-width:38.05px;stroke-miterlimit:10" />
  <path
     class="cls-11"
     d="m 696.76694,403.4949 -128.06,-1.39 v 0 c 0,0 7.14,-218.33 7.14,-218.33 v 0 c 0,-0.06 4.32,-21.17 11.35,-32.7 9.33,-15.29 30.69,-25.56 51.19,-24.42 26.09,1.45 49.31,21.33 56,49.14 q 1.21,113.84 2.38,227.7 z"
     id="path206"
     style="fill:none;stroke:#7f6757;stroke-width:38.05px;stroke-miterlimit:10" />
  <path
     class="cls-12"
     d="m 546.29694,412.0349 -206.38,-2.83 q 3.24,-107.55 6.49,-215.08 c 1.53,-55.31 41.53,-100.000004 89.88,-103.910004 52.54,-4.24 101.21,40.790004 104.64,101.000004 z"
     id="path208"
     style="fill:none;stroke:#7f6757;stroke-width:37.24px;stroke-miterlimit:10" />
  <line
     class="cls-13"
     x1="325.27695"
     y1="203.98491"
     x2="325.27695"
     y2="405.1749"
     id="line210"
     style="fill:none;stroke:#38312d;stroke-width:0.97px;stroke-miterlimit:10" />
  <line
     class="cls-13"
     x1="561.09692"
     y1="209.89488"
     x2="561.54694"
     y2="405.03488"
     id="line212"
     style="fill:none;stroke:#38312d;stroke-width:0.97px;stroke-miterlimit:10" />
  <path
     class="cls-14"
     d="m 722.14694,459.1249 c -2.6,-37 -6,-83 -10.5,-135.66 -11.72,-138.59 -19.29,-192.35 -48.29,-201.42 -13.89,-4.34 -30.64,2.21 -42.72,6.92 -33.29,13 -35,33 -53.22,38.07 -41.31,11.38 -72.06,-80.260004 -126.79,-79.590004 -51.55,0.63 -76.15,82.720004 -117.65,73.360004 -24.12,-5.43 -25.47,-35.35 -54.62,-41.53 -31.26,-6.61 -61.64,21 -66.53,25.61 a 96.34,96.34 0 0 0 -7.25,7.89 c -30.13,37.42 -23.51,136.13 -22.16,161.69 1.82,34.59 1.86,84 -7,145.69 q -17.66,0.66 -36.41,0.7 -14,0 -27.31,-0.34 c 0,0 15.38,-324.21 15.4,-324.62 q 1.41,-13.84 2.8,-27.69 c 173.52,-37.430004 244.17,-57.640004 272.46,-69.220004 l 53.92,-22.14 c 0,0 80.64,31.32 91,35.3 44,16.79 116,35.1 238.8,41.52 -4.53,12.110004 -7,18.690004 -7,18.690004 0,0 29.41,348.16 29.41,348.16 z"
     id="path214"
     style="fill:#db9b71" />
  <path
     class="cls-15"
     d="m 346.47694,188.8649 c 11.14,-54.11 47.67,-93.620004 90.11,-98.550004 48.84,-5.67 96.23,35.550004 109.71,98.550004"
     id="path216"
     style="fill:none;stroke:#f4ae7f;stroke-width:58.02px;stroke-miterlimit:10" />
  <path
     class="cls-16"
     d="m 187.11694,185.0549 c 7.11,-33.67 30.41,-58.26 57.48,-61.33 31.15,-3.53 61.38,22.13 70,61.33"
     id="path218"
     style="fill:none;stroke:#f2b186;stroke-width:34.2px;stroke-miterlimit:10" />
  <path
     class="cls-16"
     d="m 573.18694,185.0549 c -1.23,-35.31 27.56,-64.46 61.46,-64.64 35.14,-0.19 64.84,30.78 62,67.32"
     id="path220"
     style="fill:none;stroke:#f2b186;stroke-width:34.2px;stroke-miterlimit:10" />
  <line
     class="cls-17"
     x1="713.95691"
     y1="193.48491"
     x2="713.95691"
     y2="362.91489"
     id="line222"
     style="fill:none;stroke:#38312d;stroke-width:1.93px;stroke-miterlimit:10" />
  <line
     class="cls-17"
     x1="169.82693"
     y1="205.8149"
     x2="169.82693"
     y2="375.2449"
     id="line224"
     style="fill:none;stroke:#38312d;stroke-width:1.93px;stroke-miterlimit:10" />
  <line
     class="cls-18"
     x1="547.0769"
     y1="197.43489"
     x2="546.29694"
     y2="417.72488"
     id="line226"
     style="fill:none;stroke:#f2b186;stroke-width:25.14px;stroke-miterlimit:10" />
  <line
     class="cls-18"
     x1="576.01691"
     y1="197.5349"
     x2="575.23694"
     y2="417.82486"
     id="line228"
     style="fill:none;stroke:#f2b186;stroke-width:25.14px;stroke-miterlimit:10" />
  <line
     class="cls-18"
     x1="311.36694"
     y1="197.48491"
     x2="310.58694"
     y2="417.77487"
     id="line230"
     style="fill:none;stroke:#f2b186;stroke-width:25.14px;stroke-miterlimit:10" />
  <line
     class="cls-18"
     x1="340.30695"
     y1="197.58488"
     x2="339.52695"
     y2="417.87491"
     id="line232"
     style="fill:none;stroke:#f2b186;stroke-width:25.14px;stroke-miterlimit:10" />
  <line
     class="cls-18"
     x1="183.30693"
     y1="195.17488"
     x2="182.52693"
     y2="415.46487"
     id="line234"
     style="fill:none;stroke:#f2b186;stroke-width:25.14px;stroke-miterlimit:10" />
  <line
     class="cls-18"
     x1="701.02692"
     y1="197.96489"
     x2="700.24695"
     y2="418.26486"
     id="line236"
     style="fill:none;stroke:#f2b186;stroke-width:25.14px;stroke-miterlimit:10" />
  <rect
     class="cls-19"
     x="283.75693"
     y="172.62489"
     width="90.93"
     height="38.02"
     id="rect238"
     style="fill:#e0af8d;stroke:#603813;stroke-width:1.93px;stroke-miterlimit:10" />
  <rect
     class="cls-20"
     x="509.95694"
     y="168.8149"
     width="94.540001"
     height="41.82"
     id="rect240"
     style="fill:#e0af8d;stroke:#603813;stroke-width:2.19px;stroke-miterlimit:10" />
  <rect
     class="cls-19"
     x="157.70694"
     y="172.62489"
     width="50.419998"
     height="32.48"
     id="rect242"
     style="fill:#e0af8d;stroke:#603813;stroke-width:1.93px;stroke-miterlimit:10" />
  <rect
     class="cls-19"
     x="675.42694"
     y="172.62489"
     width="50.419998"
     height="32.48"
     id="rect244"
     style="fill:#e0af8d;stroke:#603813;stroke-width:1.93px;stroke-miterlimit:10" />
  <path
     class="cls-21"
     d="m 110.08694,108.2049 331.94,-72.000004 329.14,67.830004"
     id="path246"
     style="fill:none;stroke:#cc9f80;stroke-width:32.03px;stroke-miterlimit:10" />
  <rect
     class="cls-22"
     x="408.80695"
     y="339.38486"
     width="64.860001"
     height="64.110001"
     id="rect248"
     style="fill:#5a2708" />
  <rect
     class="cls-23"
     x="407.23694"
     y="339.38486"
     width="34"
     height="64.110001"
     id="rect250"
     style="fill:#5c596a" />
  <rect
     class="cls-24"
     x="414.71692"
     y="346.37491"
     width="19.32"
     height="36.25"
     id="rect252"
     style="fill:none;stroke:#201a24;stroke-width:3.37px;stroke-miterlimit:10" />
  <rect
     class="cls-25"
     x="414.71692"
     y="388.29489"
     width="19.32"
     height="12"
     id="rect254"
     style="fill:none;stroke:#201a24;stroke-width:3.16px;stroke-miterlimit:10" />
  <polygon
     class="cls-26"
     points="461.31,337.61 461.31,401.72 451.51,401.17 453.22,340.6 "
     id="polygon256"
     style="fill:#5c5a68"
     transform="translate(12.356935,1.7748961)" />
  <rect
     class="cls-27"
     x="396.50693"
     y="327.6149"
     width="91.25"
     height="76.839996"
     id="rect258"
     style="fill:none;stroke:#b78484;stroke-width:2.86px;stroke-miterlimit:10" />
  <rect
     class="cls-28"
     x="383.33694"
     y="312.70486"
     width="115.94"
     height="90.190002"
     id="rect260"
     style="fill:none;stroke:#b78484;stroke-width:3.49px;stroke-miterlimit:10" />
  <path
     class="cls-5"
     d="m 322.06694,365.9049 q 0,19.2 0,38.4"
     id="path262"
     style="fill:none;stroke:#666666;stroke-width:3.84px;stroke-miterlimit:10" />
  <path
     class="cls-5"
     d="m 330.68694,366.0449 c 0.1,12.73 0.14,25.47 0.35,38.21"
     id="path264"
     style="fill:none;stroke:#666666;stroke-width:3.84px;stroke-miterlimit:10" />
  <path
     class="cls-5"
     d="m 339.80694,365.5849 q -0.33,19.28 0,38.55"
     id="path266"
     style="fill:none;stroke:#666666;stroke-width:3.84px;stroke-miterlimit:10" />
  <path
     class="cls-5"
     d="m 347.80694,364.9049 c 0.44,13.08 0.49,26.17 0.46,39.26"
     id="path268"
     style="fill:none;stroke:#666666;stroke-width:3.84px;stroke-miterlimit:10" />
  <path
     class="cls-5"
     d="m 356.35694,365.3149 q -0.32,19.47 0,38.94"
     id="path270"
     style="fill:none;stroke:#666666;stroke-width:3.84px;stroke-miterlimit:10" />
  <path
     class="cls-5"
     d="m 365.54694,364.5549 q 0.35,19.85 0,39.7"
     id="path272"
     style="fill:none;stroke:#666666;stroke-width:3.84px;stroke-miterlimit:10" />
  <path
     class="cls-5"
     d="m 269.73694,366.0549 q 0,19.2 0,38.4"
     id="path274"
     style="fill:none;stroke:#666666;stroke-width:3.84px;stroke-miterlimit:10" />
  <path
     class="cls-5"
     d="m 278.35694,366.1949 c 0.09,12.73 0.14,25.47 0.34,38.21"
     id="path276"
     style="fill:none;stroke:#666666;stroke-width:3.84px;stroke-miterlimit:10" />
  <path
     class="cls-5"
     d="m 287.47694,365.7749 q -0.33,19.28 0,38.55"
     id="path278"
     style="fill:none;stroke:#666666;stroke-width:3.84px;stroke-miterlimit:10" />
  <path
     class="cls-5"
     d="m 295.47694,365.0549 c 0.44,13.08 0.49,26.17 0.46,39.26"
     id="path280"
     style="fill:none;stroke:#666666;stroke-width:3.84px;stroke-miterlimit:10" />
  <path
     class="cls-5"
     d="m 303.99694,365.4649 q -0.3,19.47 0,38.94"
     id="path282"
     style="fill:none;stroke:#666666;stroke-width:3.84px;stroke-miterlimit:10" />
  <path
     class="cls-5"
     d="m 313.22694,364.7049 q 0.33,19.85 0,39.7"
     id="path284"
     style="fill:none;stroke:#666666;stroke-width:3.84px;stroke-miterlimit:10" />
  <path
     class="cls-5"
     d="m 374.70694,365.8749 q 0,19.2 0,38.4"
     id="path286"
     style="fill:none;stroke:#666666;stroke-width:3.84px;stroke-miterlimit:10" />
  <path
     class="cls-5"
     d="m 383.35694,366.0149 c 0.09,12.74 0.14,25.48 0.34,38.21"
     id="path288"
     style="fill:none;stroke:#666666;stroke-width:3.84px;stroke-miterlimit:10" />
  <path
     class="cls-5"
     d="m 392.44694,365.5549 q -0.33,19.28 0,38.55"
     id="path290"
     style="fill:none;stroke:#666666;stroke-width:3.84px;stroke-miterlimit:10" />
  <path
     class="cls-5"
     d="m 400.44694,364.8749 c 0.44,13.08 0.49,26.18 0.46,39.27"
     id="path292"
     style="fill:none;stroke:#666666;stroke-width:3.84px;stroke-miterlimit:10" />
  <path
     class="cls-5"
     d="m 408.96694,365.2849 q -0.3,19.47 0,38.95"
     id="path294"
     style="fill:none;stroke:#666666;stroke-width:3.84px;stroke-miterlimit:10" />
  <path
     class="cls-5"
     d="m 418.19694,364.5249 q 0.33,19.85 0,39.7"
     id="path296"
     style="fill:none;stroke:#666666;stroke-width:3.84px;stroke-miterlimit:10" />
  <path
     class="cls-5"
     d="m 428.25694,365.8749 q 0,19.2 0,38.4"
     id="path298"
     style="fill:none;stroke:#666666;stroke-width:3.84px;stroke-miterlimit:10" />
  <path
     class="cls-5"
     d="m 436.88694,366.0149 c 0.09,12.74 0.13,25.48 0.34,38.21"
     id="path300"
     style="fill:none;stroke:#666666;stroke-width:3.84px;stroke-miterlimit:10" />
  <path
     class="cls-5"
     d="m 445.99694,365.5549 q -0.33,19.28 0,38.55"
     id="path302"
     style="fill:none;stroke:#666666;stroke-width:3.84px;stroke-miterlimit:10" />
  <path
     class="cls-5"
     d="m 453.99694,364.8749 c 0.44,13.08 0.49,26.18 0.46,39.27"
     id="path304"
     style="fill:none;stroke:#666666;stroke-width:3.84px;stroke-miterlimit:10" />
  <path
     class="cls-5"
     d="m 462.51694,365.2849 q -0.3,19.47 0,38.95"
     id="path306"
     style="fill:none;stroke:#666666;stroke-width:3.84px;stroke-miterlimit:10" />
  <path
     class="cls-5"
     d="m 471.74694,364.5249 q 0.33,19.85 0,39.7"
     id="path308"
     style="fill:none;stroke:#666666;stroke-width:3.84px;stroke-miterlimit:10" />
  <path
     class="cls-5"
     d="m 481.68694,365.8549 q 0,19.2 0,38.4"
     id="path310"
     style="fill:none;stroke:#666666;stroke-width:3.84px;stroke-miterlimit:10" />
  <path
     class="cls-5"
     d="m 490.35694,365.9949 c 0.1,12.73 0.14,25.47 0.34,38.21"
     id="path312"
     style="fill:none;stroke:#666666;stroke-width:3.84px;stroke-miterlimit:10" />
  <path
     class="cls-5"
     d="m 499.42694,365.5349 q -0.31,19.28 0,38.55"
     id="path314"
     style="fill:none;stroke:#666666;stroke-width:3.84px;stroke-miterlimit:10" />
  <path
     class="cls-5"
     d="m 507.43694,364.8549 c 0.43,13.08 0.48,26.17 0.45,39.26"
     id="path316"
     style="fill:none;stroke:#666666;stroke-width:3.84px;stroke-miterlimit:10" />
  <path
     class="cls-5"
     d="m 515.94694,365.2649 q -0.3,19.47 0,38.94"
     id="path318"
     style="fill:none;stroke:#666666;stroke-width:3.84px;stroke-miterlimit:10" />
  <path
     class="cls-5"
     d="m 525.17694,364.5049 q 0.33,19.84 0,39.7"
     id="path320"
     style="fill:none;stroke:#666666;stroke-width:3.84px;stroke-miterlimit:10" />
  <path
     class="cls-5"
     d="m 535.35694,366.7749 q 0,19.2 0,38.4"
     id="path322"
     style="fill:none;stroke:#666666;stroke-width:3.84px;stroke-miterlimit:10" />
  <path
     class="cls-5"
     d="m 543.97694,366.9149 c 0.1,12.73 0.14,25.47 0.34,38.21"
     id="path324"
     style="fill:none;stroke:#666666;stroke-width:3.84px;stroke-miterlimit:10" />
  <path
     class="cls-5"
     d="m 553.08694,366.4549 q -0.33,19.27 0,38.55"
     id="path326"
     style="fill:none;stroke:#666666;stroke-width:3.84px;stroke-miterlimit:10" />
  <path
     class="cls-5"
     d="m 561.09694,365.7749 c 0.43,13.08 0.48,26.17 0.45,39.26"
     id="path328"
     style="fill:none;stroke:#666666;stroke-width:3.84px;stroke-miterlimit:10" />
  <path
     class="cls-5"
     d="m 569.60694,366.1849 q -0.3,19.47 0,38.94"
     id="path330"
     style="fill:none;stroke:#666666;stroke-width:3.84px;stroke-miterlimit:10" />
  <path
     class="cls-5"
     d="m 578.83694,365.4249 q 0.33,19.85 0,39.7"
     id="path332"
     style="fill:none;stroke:#666666;stroke-width:3.84px;stroke-miterlimit:10" />
  <path
     class="cls-5"
     d="m 589.07694,365.8749 q 0,19.2 0,38.4"
     id="path334"
     style="fill:none;stroke:#666666;stroke-width:3.84px;stroke-miterlimit:10" />
  <path
     class="cls-5"
     d="m 597.70694,366.0149 c 0.09,12.74 0.13,25.48 0.34,38.21"
     id="path336"
     style="fill:none;stroke:#666666;stroke-width:3.84px;stroke-miterlimit:10" />
  <path
     class="cls-5"
     d="m 606.81694,365.5549 q -0.33,19.28 0,38.55"
     id="path338"
     style="fill:none;stroke:#666666;stroke-width:3.84px;stroke-miterlimit:10" />
  <path
     class="cls-5"
     d="m 614.81694,364.8749 c 0.44,13.08 0.49,26.18 0.46,39.27"
     id="path340"
     style="fill:none;stroke:#666666;stroke-width:3.84px;stroke-miterlimit:10" />
  <path
     class="cls-5"
     d="m 623.35694,365.2849 q -0.32,19.47 0,38.95"
     id="path342"
     style="fill:none;stroke:#666666;stroke-width:3.84px;stroke-miterlimit:10" />
  <path
     class="cls-5"
     d="m 632.55694,364.5249 q 0.34,19.85 0,39.7"
     id="path344"
     style="fill:none;stroke:#666666;stroke-width:3.84px;stroke-miterlimit:10" />
  <path
     class="cls-5"
     d="m 642.80694,365.8249 q 0,19.2 0,38.4"
     id="path346"
     style="fill:none;stroke:#666666;stroke-width:3.84px;stroke-miterlimit:10" />
  <path
     class="cls-5"
     d="m 651.43694,365.9649 c 0.1,12.74 0.14,25.48 0.35,38.21"
     id="path348"
     style="fill:none;stroke:#666666;stroke-width:3.84px;stroke-miterlimit:10" />
  <path
     class="cls-5"
     d="m 660.54694,365.5049 q -0.32,19.27 0,38.55"
     id="path350"
     style="fill:none;stroke:#666666;stroke-width:3.84px;stroke-miterlimit:10" />
  <path
     class="cls-5"
     d="m 668.55694,364.8249 c 0.43,13.08 0.49,26.18 0.46,39.27"
     id="path352"
     style="fill:none;stroke:#666666;stroke-width:3.84px;stroke-miterlimit:10" />
  <path
     class="cls-5"
     d="m 677.07694,365.2349 q -0.32,19.47 0,39"
     id="path354"
     style="fill:none;stroke:#666666;stroke-width:3.84px;stroke-miterlimit:10" />
  <path
     class="cls-5"
     d="m 686.29694,364.4749 q 0.34,19.85 0,39.7"
     id="path356"
     style="fill:none;stroke:#666666;stroke-width:3.84px;stroke-miterlimit:10" />
  <path
     class="cls-5"
     d="m 693.35694,365.8749 q 0,19.2 0,38.4"
     id="path358"
     style="fill:none;stroke:#666666;stroke-width:3.84px;stroke-miterlimit:10" />
  <path
     class="cls-5"
     d="m 701.95694,366.0149 c 0.1,12.74 0.14,25.48 0.34,38.21"
     id="path360"
     style="fill:none;stroke:#666666;stroke-width:3.84px;stroke-miterlimit:10" />
  <path
     class="cls-5"
     d="m 711.06694,365.5549 q -0.32,19.28 0,38.55"
     id="path362"
     style="fill:none;stroke:#666666;stroke-width:3.84px;stroke-miterlimit:10" />
  <path
     class="cls-5"
     d="m 719.07694,364.8749 c 0.43,13.08 0.48,26.18 0.45,39.27"
     id="path364"
     style="fill:none;stroke:#666666;stroke-width:3.84px;stroke-miterlimit:10" />
  <path
     class="cls-5"
     d="m 727.58694,365.2849 q -0.3,19.47 0,38.95"
     id="path366"
     style="fill:none;stroke:#666666;stroke-width:3.84px;stroke-miterlimit:10" />
  <path
     class="cls-5"
     d="m 736.81694,364.5249 q 0.33,19.85 0,39.7"
     id="path368"
     style="fill:none;stroke:#666666;stroke-width:3.84px;stroke-miterlimit:10" />
  <path
     class="cls-5"
     d="m 114.04694,365.8749 q 0,19.2 0,38.4"
     id="path370"
     style="fill:none;stroke:#666666;stroke-width:3.84px;stroke-miterlimit:10" />
  <path
     class="cls-5"
     d="m 122.66694,366.0149 c 0.1,12.74 0.14,25.48 0.35,38.21"
     id="path372"
     style="fill:none;stroke:#666666;stroke-width:3.84px;stroke-miterlimit:10" />
  <path
     class="cls-5"
     d="m 131.77694,365.5549 q -0.32,19.28 0,38.55"
     id="path374"
     style="fill:none;stroke:#666666;stroke-width:3.84px;stroke-miterlimit:10" />
  <path
     class="cls-5"
     d="m 139.78694,364.8749 c 0.43,13.08 0.49,26.18 0.46,39.27"
     id="path376"
     style="fill:none;stroke:#666666;stroke-width:3.84px;stroke-miterlimit:10" />
  <path
     class="cls-5"
     d="m 148.35694,365.2849 q -0.31,19.47 0,38.95"
     id="path378"
     style="fill:none;stroke:#666666;stroke-width:3.84px;stroke-miterlimit:10" />
  <path
     class="cls-5"
     d="m 157.52694,364.5249 q 0.35,19.85 0,39.7"
     id="path380"
     style="fill:none;stroke:#666666;stroke-width:3.84px;stroke-miterlimit:10" />
  <path
     class="cls-6"
     d="m 164.70694,364.7049 v 27.56"
     id="path382"
     style="fill:none;stroke:#666666;stroke-width:2.96px;stroke-miterlimit:10" />
  <path
     class="cls-6"
     d="m 173.29694,365.5749 0.46,27.55"
     id="path384"
     style="fill:none;stroke:#666666;stroke-width:2.96px;stroke-miterlimit:10" />
  <path
     class="cls-6"
     d="m 182.54694,365.8849 q -0.47,13.67 -0.12,27.34"
     id="path386"
     style="fill:none;stroke:#666666;stroke-width:2.96px;stroke-miterlimit:10" />
  <path
     class="cls-6"
     d="m 190.35694,365.4049 c 0.51,9.24 0.6,18.5 0.64,27.75"
     id="path388"
     style="fill:none;stroke:#666666;stroke-width:2.96px;stroke-miterlimit:10" />
  <path
     class="cls-6"
     d="m 199.02694,365.3249 v 27.73"
     id="path390"
     style="fill:none;stroke:#666666;stroke-width:2.96px;stroke-miterlimit:10" />
  <path
     class="cls-6"
     d="m 208.12694,365.3249 v 28.93"
     id="path392"
     style="fill:none;stroke:#666666;stroke-width:2.96px;stroke-miterlimit:10" />
  <path
     class="cls-7"
     d="m 217.22694,365.4549 q 0,19.11 0,38.23"
     id="path394"
     style="fill:none;stroke:#666666;stroke-width:3.61px;stroke-miterlimit:10" />
  <path
     class="cls-7"
     d="m 225.81694,364.7049 c 0.13,13.2 0.17,26.41 0.44,39.62"
     id="path396"
     style="fill:none;stroke:#666666;stroke-width:3.61px;stroke-miterlimit:10" />
  <path
     class="cls-7"
     d="m 234.99694,364.9149 q -0.42,19.61 0,39.22"
     id="path398"
     style="fill:none;stroke:#666666;stroke-width:3.61px;stroke-miterlimit:10" />
  <path
     class="cls-7"
     d="m 242.75694,364.9749 c -0.05,13.17 1.41,26.31 0.81,39.48"
     id="path400"
     style="fill:none;stroke:#666666;stroke-width:3.61px;stroke-miterlimit:10" />
  <path
     class="cls-7"
     d="m 251.54694,364.8949 q -0.41,19.63 -0.07,39.27"
     id="path402"
     style="fill:none;stroke:#666666;stroke-width:3.61px;stroke-miterlimit:10" />
  <path
     class="cls-7"
     d="m 260.65694,364.7749 q 0.42,19.64 0.06,39.26"
     id="path404"
     style="fill:none;stroke:#666666;stroke-width:3.61px;stroke-miterlimit:10" />
  <line
     class="cls-8"
     x1="149.57693"
     y1="364.64487"
     x2="745.25696"
     y2="366.72488"
     id="line406"
     style="fill:none;stroke:#c0bbb8;stroke-width:3.87px;stroke-miterlimit:10" />
  <rect
     class="cls-29"
     x="208.12694"
     y="403.4949"
     width="443.64999"
     height="56.66"
     id="rect408"
     style="fill:#c0bbb8" />
  <path
     class="cls-30"
     d="m 253.92694,406.8749 -43.42,-1.39 0.7,-30.45 -60.93,-0.7 v -25.56 l -53.920002,-1.43 -1.4,-23.57 -49.72,1.38 v 135.7 H 252.52694 c -3.86,-9.27 1.4,-53.98 1.4,-53.98 z"
     id="path410"
     style="fill:#746e72;stroke:#201a24;stroke-width:2.9px;stroke-miterlimit:10" />
  <path
     class="cls-30"
     d="m 596.29694,406.8749 43.42,-1.39 -0.7,-30.45 60.92,-0.7 v -25.56 l 53.93,-1.38 1.4,-23.53 49.72,1.38 v 135.61 h -207.29 c 3.85,-9.27 -1.4,-53.98 -1.4,-53.98 z"
     id="path412"
     style="fill:#746e72;stroke:#201a24;stroke-width:2.9px;stroke-miterlimit:10" />
  <path
     class="cls-31"
     d="m 131.00694,576.0749 -81.580002,-0.15 q 1.68,-17.42 3.37,-34.85 l 42.3,0.27 5.000002,-35.2 32.26,-1.37 4.49,-29.84 27.28,-1.59 3.37,-24 47.06,-2.64 24.35,18 q -28.8,31.45 -60.14,63.61 -24.04,24.65 -47.76,47.76 z"
     id="path414"
     style="fill:#ada08d" />
  <path
     class="cls-32"
     d="m 163.93694,472.6149 45.3,-1.11 q 0.76,-12.41 1.52,-24.8 l -44.84,2.79 z"
     id="path416"
     style="fill:#dbd0c1" />
  <path
     class="cls-32"
     d="m 134.16694,504.8449 42.76,-1.64 3.06,-29.56 -44.06,1.2 q -0.87,15 -1.76,30 z"
     id="path418"
     style="fill:#dbd0c1" />
  <path
     class="cls-32"
     d="m 95.806938,540.4749 39.490002,-0.14 2.58,-35.44 -39.130002,1.54 z"
     id="path420"
     style="fill:#dbd0c1" />
  <path
     class="cls-32"
     d="m 50.446938,574.7749 45.54,0.45 5.000002,-34.3 -48.090002,0.67 z"
     id="path422"
     style="fill:#dbd0c1" />
  <path
     class="cls-33"
     d="m 132.35694,504.7749 q 2.25,-14.93 4.49,-29.84 l 74.51,-1.16"
     id="path424"
     style="fill:none;stroke:#38312d;stroke-width:2.03px;stroke-miterlimit:10" />
  <path
     class="cls-33"
     d="m 95.486938,538.5349 4.590002,-32.39 77.45,-3"
     id="path426"
     style="fill:none;stroke:#38312d;stroke-width:2.03px;stroke-miterlimit:10" />
  <path
     class="cls-33"
     d="m 49.426938,575.9249 v 0 l 2.64,-35.61 v 0 l 84.150002,-0.62"
     id="path428"
     style="fill:none;stroke:#38312d;stroke-width:2.03px;stroke-miterlimit:10" />
  <path
     class="cls-33"
     d="m 164.12694,473.3149 q 0.85,-12 1.7,-24.09 v 0 l 45.62,-2.45 q -1,13.51 -2.06,27"
     id="path430"
     style="fill:none;stroke:#38312d;stroke-width:2.03px;stroke-miterlimit:10" />
  <line
     class="cls-33"
     x1="180.04695"
     y1="472.83487"
     x2="177.52693"
     y2="503.18491"
     id="line432"
     style="fill:none;stroke:#38312d;stroke-width:2.03px;stroke-miterlimit:10" />
  <line
     class="cls-33"
     x1="139.72694"
     y1="504.37491"
     x2="135.62694"
     y2="539.69489"
     id="line434"
     style="fill:none;stroke:#38312d;stroke-width:2.03px;stroke-miterlimit:10" />
  <path
     class="cls-34"
     d="m 100.15694,539.7749 -4.170002,35.46"
     id="path436"
     style="fill:none;stroke:#38312d;stroke-width:1.85px;stroke-miterlimit:10" />
  <path
     class="cls-31"
     d="m 736.81694,575.0249 81.58,-0.14 q -1.68,-17.43 -3.37,-34.85 l -42.29,0.26 -5,-35.2 -32.28,-1.39 -4.48,-29.85 -27.29,-1.59 -3.37,-24 -47.05,-2.65 -24.36,18 q 28.82,31.46 60.15,63.61 24.06,24.69 47.76,47.8 z"
     id="path438"
     style="fill:#ada08d" />
  <path
     class="cls-32"
     d="m 703.88694,471.5649 -45.3,-1.11 q -0.75,-12.39 -1.52,-24.8 l 44.85,2.79 q 0.99,11.57 1.97,23.12 z"
     id="path440"
     style="fill:#dbd0c1" />
  <path
     class="cls-32"
     d="m 733.65694,503.7749 -42.76,-1.63 q -1.53,-14.79 -3,-29.57 l 44,1.2 q 0.89,15 1.76,30 z"
     id="path442"
     style="fill:#dbd0c1" />
  <path
     class="cls-32"
     d="m 772.01694,539.4349 -39.49,-0.15 q -1.29,-17.71 -2.57,-35.44 l 39.12,1.54 z"
     id="path444"
     style="fill:#dbd0c1" />
  <path
     class="cls-32"
     d="m 817.35694,573.7749 -45.54,0.45 -5,-34.3 48.09,0.67 z"
     id="path446"
     style="fill:#dbd0c1" />
  <path
     class="cls-33"
     d="m 735.46694,503.7049 q -2.24,-14.93 -4.48,-29.85 l -74.52,-1.08"
     id="path448"
     style="fill:none;stroke:#38312d;stroke-width:2.03px;stroke-miterlimit:10" />
  <path
     class="cls-33"
     d="m 772.35694,537.4849 -4.59,-32.39 -77.41,-2.95"
     id="path450"
     style="fill:none;stroke:#38312d;stroke-width:2.03px;stroke-miterlimit:10" />
  <path
     class="cls-33"
     d="m 818.35694,574.8849 v 0 l -2.64,-35.62 v 0 l -84.15,-0.62"
     id="path452"
     style="fill:none;stroke:#38312d;stroke-width:2.03px;stroke-miterlimit:10" />
  <path
     class="cls-33"
     d="m 703.69694,472.2649 q -0.86,-12 -1.7,-24.09 v 0 l -45.64,-2.4 q 1,13.51 2.06,27.05"
     id="path454"
     style="fill:none;stroke:#38312d;stroke-width:2.03px;stroke-miterlimit:10" />
  <line
     class="cls-33"
     x1="687.77692"
     y1="471.78488"
     x2="690.30695"
     y2="502.14487"
     id="line456"
     style="fill:none;stroke:#38312d;stroke-width:2.03px;stroke-miterlimit:10" />
  <line
     class="cls-33"
     x1="728.09692"
     y1="503.32486"
     x2="732.20691"
     y2="538.6449"
     id="line458"
     style="fill:none;stroke:#38312d;stroke-width:2.03px;stroke-miterlimit:10" />
  <path
     class="cls-34"
     d="m 767.66694,538.7749 4.17,35.45"
     id="path460"
     style="fill:none;stroke:#38312d;stroke-width:1.85px;stroke-miterlimit:10" />
  <path
     class="cls-35"
     d="m 729.84694,561.9149 -575.23,-1.71 89.39,-99.35 h 405.6 l 0.34,14.54 10.82,0.69 v 11.77 a 13.9,13.9 0 0 1 4.24,0 14.82,14.82 0 0 1 8.5,4.69 c 0.12,2.34 0.23,4.68 0.35,7 q -0.11,0 -0.12,0 -0.17,0.31 15.18,8.24 c -0.18,1.76 -0.35,3.53 -0.53,5.3 a 5.14,5.14 0 0 0 -1,1.8 5.64,5.64 0 0 0 0.52,4.37 l 10.37,-0.39 -2.28,8.41 v 0 l 13.61,5.53 -0.35,5.89 v 0 l 11.78,7.64 c -0.19,2.41 -0.38,4.83 -0.58,7.24 v 0 z"
     id="path462"
     style="fill:#8a898e" />
  <path
     class="cls-35"
     d="m 257.40694,536.2349 c 0,-25.12 -0.63,-50.31 1.3,-75.38 h -41.68 l -0.35,14.54 a 40,40 0 0 0 -13.1,2.08 v 0 c -0.12,3.46 -0.23,6.92 -0.35,10.38 h -6.73 l -0.35,11.81 -8.68,-0.18 c -0.11,7.24 -0.17,11.05 -0.17,11.05 h -9.21 l -1.08,8.75 -7.24,0.06 c -0.75,4.85 -1.24,8 -1.24,8 l -7.77,0.61 -0.46,10.65 a 16.67,16.67 0 0 0 -5,0.38 17,17 0 0 0 -8.44,5 c 0.13,0.78 0.25,1.6 0.35,2.45 a 37.63,37.63 0 0 1 0,8 l -7.7,0.25 a 8.48,8.48 0 0 0 -4.86,-0.12 c -4.13,1.18 -5.6,5.24 -5.76,5.68 h 128.6 c -0.03,-8.03 -0.08,-16.02 -0.08,-24.01 z"
     id="path464"
     style="fill:#8a898e" />
  <path
     class="cls-36"
     d="m 199.02694,480.5849 h 462.9 q -2.75,-3.92 -5.46,-7.84 h -452.23 q -2.64,3.87 -5.21,7.84 z"
     id="path466"
     style="fill:#9f9fa3" />
  <path
     class="cls-36"
     d="m 192.41694,492.5449 h 483 q -3.51,-3.09 -7,-6.19 h -470 q -2.99,3.08 -6,6.19 z"
     id="path468"
     style="fill:#9f9fa3" />
  <path
     class="cls-36"
     d="m 166.92694,520.0349 531.29,-1.14 -8.86,-8.36 h -515.7 q -3.39,4.66 -6.73,9.5 z"
     id="path470"
     style="fill:#9f9fa3" />
  <path
     class="cls-36"
     d="m 179.63694,507.7749 h 509.25 c -2.64,-2.78 -5.24,-5.58 -7.83,-8.4 h -494.87 q -3.24,4.27 -6.55,8.4 z"
     id="path472"
     style="fill:#9f9fa3" />
  <path
     class="cls-36"
     d="m 700.83694,525.2249 h -536.16 c -3.21,2.61 -6.49,5.15 -9.88,7.61 h 554.75 q -4.36,-3.79 -8.71,-7.61 z"
     id="path474"
     style="fill:#9f9fa3" />
  <path
     class="cls-36"
     d="m 711.35694,538.7749 h -559.75 c -2.42,1.17 -4.89,2.3 -7.44,3.39 v 4.25 h 576.81 c -3.4,-2.49 -6.62,-5.05 -9.62,-7.64 z"
     id="path476"
     style="fill:#9f9fa3" />
  <path
     class="cls-36"
     d="m 726.18694,551.1849 h -589.47 q -3.83,1.79 -7.84,3.43 v 4.29 h 607.48 c -3.57,-2.46 -6.95,-5.05 -10.17,-7.72 z"
     id="path478"
     style="fill:#9f9fa3" />
  <rect
     class="cls-35"
     x="131.62694"
     y="556.17493"
     width="605.19"
     height="18.85"
     id="rect480"
     style="fill:#8a898e" />
</svg>
