<svg id="svg5" xmlns="http://www.w3.org/2000/svg" viewBox="0 0 72.97 80.65"><defs><style>.cls-1{fill:#447821;}.cls-2{fill:#502d16;}.cls-3{fill:#338000;}</style></defs><title>green_apple 3</title><path class="cls-1" d="M216.9,75a56.24,56.24,0,0,0-9.5-15.5c-3.3-3.7-2.1-3.5,3.1.6,10.7,8.5,15.6,23,12.7,36.6h4.5c1.8-16.4-3-31.8-14.3-42.4C202.1,43.5,191.2,41,173.7,45c-4.3,1-8.1,1.7-8.3,1.5l-2.2-.1c0,.5-1.7.6-4,.5V96.6h61.4A60.21,60.21,0,0,0,216.9,75Z" transform="translate(-155.09 -16.05)"/><path class="cls-2" d="M164.6,22.7l-.8-2.9-4.3.5a38.55,38.55,0,0,0-4.4.7,41.59,41.59,0,0,0,2.5,6c2.1,4.6,5.5,16.3,5.6,19.4l2.2.1c-.2-.1-.1-2.4.2-5C166.4,36.4,165.9,27.2,164.6,22.7Z" transform="translate(-155.09 -16.05)"/><path id="path165-9" class="cls-3" d="M167.8,39.4c-1.8-.5-1.7-.9,1-5.1A40.17,40.17,0,0,1,206,16.2c7.9.7,8.2.9,5.5,5.1a43.9,43.9,0,0,1-21,16.6c-3.1,1.1-6.6,1.6-12.9,1.8a91.55,91.55,0,0,1-9.8-.3Z" transform="translate(-155.09 -16.05)"/></svg>