<?xml version="1.0" encoding="UTF-8" standalone="no"?>
<svg
   viewBox="0 0 155.13605 551.6654"
   version="1.1"
   id="svg14"
   sodipodi:docname="flag_meet_2.svg"
   width="155.13606"
   height="551.66541"
   inkscape:version="1.1.1 (c3084ef, 2021-09-22)"
   xmlns:inkscape="http://www.inkscape.org/namespaces/inkscape"
   xmlns:sodipodi="http://sodipodi.sourceforge.net/DTD/sodipodi-0.dtd"
   xmlns="http://www.w3.org/2000/svg"
   xmlns:svg="http://www.w3.org/2000/svg">
  <sodipodi:namedview
     id="namedview16"
     pagecolor="#ffffff"
     bordercolor="#000000"
     borderopacity="0.25"
     inkscape:showpageshadow="2"
     inkscape:pageopacity="0.0"
     inkscape:pagecheckerboard="0"
     inkscape:deskcolor="#d1d1d1"
     showgrid="false"
     inkscape:zoom="3.5966297"
     inkscape:cx="15.570132"
     inkscape:cy="122.19773"
     inkscape:window-width="1920"
     inkscape:window-height="1027"
     inkscape:window-x="0"
     inkscape:window-y="25"
     inkscape:window-maximized="1"
     inkscape:current-layer="svg14"
     inkscape:pageshadow="0" />
  <defs
     id="defs4">
    <style
       id="style2">.a{fill:#ffb730;stroke:#e6e7e8;stroke-miterlimit:10;}.b{fill:#fedb04;}.c{fill:#ffe771;}</style>
  </defs>
  <path
     class="a"
     d="m 109.52606,123.82 c -14.109999,4 -21.129999,11.42 -23.999999,15 -12,14.94 -10,34.95 -9,45 1.76,18.12 8.08,27.87 5,30 -2.06,1.43 -8.07,-0.7 -27,-20 -0.92,-2.71 -6,-16.72 -21,-24 a 41.64,41.64 0 0 0 -26.9999997,-3 c -6.77999999,-33 -5.99999999,-43 -5.99999999,-43 A 72.85,72.85 0 0 1 7.0060613,98.970003 c 9.9999997,-20.83 29.5199997,-28.47 45.6599997,-37.83 16.14,-9.36 37.66,-25.51 58.999999,-55.3200002 z"
     id="path6"
     style="fill:#ffb730;stroke:none;stroke-miterlimit:10" />
  <rect
     class="b"
     x="108.13607"
     y="0"
     width="7"
     height="514"
     id="rect8"
     style="fill:#fedb04" />
  <path
     class="b"
     d="m 155.13606,540.5 a 90.32,90.32 0 0 1 -86.999999,0 43.74,43.74 0 0 1 86.999999,0 z"
     id="path10"
     style="fill:#fedb04" />
  <path
     class="c"
     d="m 83.456061,516.03 c -2.36,2.25 -11.19,10.67 -8.82,18.72 0.48,1.65 1.89,4.82 3.78,4.86 3.9,0.09 3.5,-13.25 12.78,-23.4 7.89,-8.63 17.919999,-9.63 17.639999,-10.44 -0.34,-0.97 -14.769999,0.13 -25.379999,10.26 z"
     id="path12"
     style="fill:#ffe771" />
</svg>
