<?xml version="1.0" encoding="UTF-8" standalone="no"?>
<svg
   id="Layer_1"
   data-name="Layer 1"
   viewBox="0 0 444.76 432.88795"
   version="1.1"
   sodipodi:docname="football.svg"
   inkscape:version="1.2.2 (b0a8486541, 2022-12-01)"
   width="444.76001"
   height="432.88797"
   xmlns:inkscape="http://www.inkscape.org/namespaces/inkscape"
   xmlns:sodipodi="http://sodipodi.sourceforge.net/DTD/sodipodi-0.dtd"
   xmlns="http://www.w3.org/2000/svg"
   xmlns:svg="http://www.w3.org/2000/svg"
   xmlns:rdf="http://www.w3.org/1999/02/22-rdf-syntax-ns#"
   xmlns:cc="http://creativecommons.org/ns#"
   xmlns:dc="http://purl.org/dc/elements/1.1/">
  <sodipodi:namedview
     id="namedview37"
     pagecolor="#ffffff"
     bordercolor="#000000"
     borderopacity="0.25"
     inkscape:showpageshadow="2"
     inkscape:pageopacity="0.0"
     inkscape:pagecheckerboard="0"
     inkscape:deskcolor="#d1d1d1"
     showgrid="false"
     inkscape:zoom="1.5858083"
     inkscape:cx="333.89912"
     inkscape:cy="327.27789"
     inkscape:window-width="1920"
     inkscape:window-height="1011"
     inkscape:window-x="0"
     inkscape:window-y="32"
     inkscape:window-maximized="1"
     inkscape:current-layer="Layer_1" />
  <defs
     id="defs4">
    <style
       id="style2">.cls-1{fill:#eeedeb;}.cls-2{fill:none;stroke:#666;stroke-miterlimit:10;}.cls-3{fill:#29abe2;}</style>
  </defs>
  <title
     id="title6">բաց կապույտsvg</title>
  <ellipse
     class="cls-1"
     cx="222.38"
     cy="216.88795"
     rx="222.38"
     ry="216"
     id="ellipse8"
     style="fill:#ffd5d5" />
  <path
     class="cls-2"
     d="m 178.19998,13.927954 -51.44,45.32 c -17.71,33.309997 -45.729999,54.239996 -72.759999,51.879996 a 50.91,50.91 0 0 1 -20.52,-6.48"
     id="path10"
     style="fill:none;stroke:#666666;stroke-miterlimit:10" />
  <line
     class="cls-2"
     x1="268.76001"
     y1="13.217943"
     x2="312.73001"
     y2="59.24794"
     id="line12"
     style="fill:none;stroke:#666666;stroke-miterlimit:10" />
  <path
     class="cls-2"
     d="m 167.75998,112.93795 a 267.83,267.83 0 0 1 103.99997,0 c 17.5,15.1 44.6,43.44 40.39,73.79 -1,7.4 -6.8,18.61 -18.36,41 -14.22,27.59 -21.33,41.39 -26.99997,46.44 -25,22.23 -72.38,23.41 -98.28,2.16 -7.64,-6.26 -13.17,-16.69 -24.23,-37.55 -13.46,-25.35 -20.18,-38 -21.13,-52.09 -2.51,-36.85 34.82,-66.44 44.61,-73.75 z"
     id="path14"
     style="fill:none;stroke:#666666;stroke-miterlimit:10" />
  <line
     class="cls-2"
     x1="380.15991"
     y1="107.88795"
     x2="411.47986"
     y2="104.64796"
     id="line16"
     style="fill:none;stroke:#666666;stroke-miterlimit:10" />
  <line
     class="cls-2"
     x1="386.63989"
     y1="188.88795"
     x2="412.75989"
     y2="263.24796"
     id="line18"
     style="fill:none;stroke:#666666;stroke-miterlimit:10" />
  <path
     class="cls-2"
     d="m 51.839981,182.40795 a 439.2,439.2 0 0 0 -18.36,43.2 c -9,24.66 -13.44,37 -13,48.6 1.18,28.36 23.1,52.64 43.2,64.8 10.23,6.19 22.38,10.7 84.239999,10.8 87.67,0.15 96.72,-8.85 137.15997,-2.16 a 224.86,224.86 0 0 0 45.36,3.24 c 18.43,-0.56 32.15,-1 45.36,-7.56 26.19,-13.05 35.48,-42.9 38.39,-54.41"
     id="path20"
     style="fill:none;stroke:#666666;stroke-miterlimit:10" />
  <path
     class="cls-2"
     d="m 220.31998,388.68795 q 0,22.08 0,44.15"
     id="path22"
     style="fill:none;stroke:#666666;stroke-miterlimit:10" />
  <path
     class="cls-3"
     d="m 121.75998,193.24795 -70.999999,-5 a 126.09,126.09 0 0 1 -3,-30 127.76,127.76 0 0 1 11.29,-49.69 275.91,275.91 0 0 1 67.709999,-49.309996 v 0 l 22.48,30.15 q 9.25,12.429996 18.52,24.849996 a 174.78,174.78 0 0 0 -46,79 z"
     id="path24"
     style="fill:#29abe2" />
  <path
     class="cls-3"
     d="m 317.75995,193.24795 71,-5 a 125.57,125.57 0 0 0 3,-30 127.76,127.76 0 0 0 -11.29,-49.69 275.91,275.91 0 0 0 -67.71,-49.309996 v 0 l -22.5,30.15 -18.5,24.849996 a 174.78,174.78 0 0 1 46,79 z"
     id="path26"
     style="fill:#29abe2" />
  <path
     class="cls-3"
     d="m 265.75998,276.24795 q 13.40997,33.25 26.82997,66.5 a 126.68,126.68 0 0 1 -71.82997,56.5 247.46,247.46 0 0 1 -70.57,-49.42 162.05,162.05 0 0 1 19.49,-70.79 c 14.81,0.54 30.54,0.67 47.08,0.21 17.29,-0.48 33.65,-1.54 49,-3 z"
     id="path28"
     style="fill:#29abe2" />
  <path
     class="cls-3"
     d="m 5.069981,262.95795 a 52.06,52.06 0 0 1 19.69,2.29 c 11.84,31.31 20,45 20,45 11.74,19.72 28,37 28,37 0,0 0.87,8.89 2,18 0,0 0.55,4.47 2,15 v 0 a 209.82,209.82 0 0 1 -44,-49 204.58,204.58 0 0 1 -27.69,-68.29 z"
     id="path30"
     style="fill:#29abe2" />
  <path
     class="cls-3"
     d="m 441.75995,261.24795 a 66.19,66.19 0 0 1 -10.54,2.14 67.26,67.26 0 0 1 -16.05,0 c -11.14,22.17 -20.93,39.63 -27.92,51.64 -8.34,14.34 -22.79,38.3 -22.8,38.32 v 0 c 0,0 -1,9.52 -2.35,19.28 v 0 q -1,8 -2.34,16.06 a 145.64,145.64 0 0 0 28.81,-22.44 c 5.38,-5.42 13.26,-14.24 22.73,-30 15.75,-26.21 24.98,-53.37 30.46,-75 z"
     id="path32"
     style="fill:#29abe2" />
  <path
     class="cls-3"
     d="m 164.36998,6.6779536 13.83,6.4900004 v 0 c 27.19,-6.1000004 43.2,-6.4600004 43.2,-6.4600004 23.72,-0.53 47.36,5.6200004 47.36,5.6200004 v 0 c 0,0 11.19997,-1.73 11.31997,-3.7200004 0.14,-2.29 -14.38997,-5.69 -27.71997,-7.22 a 262.9,262.9 0 0 0 -32,-1.33999998 v 0 a 223.23,223.23 0 0 0 -32.78,2.09999998 c -10.88,1.59 -23.19,4.53 -23.19,4.53 z"
     id="path34"
     style="fill:#29abe2" />
  <metadata
     id="metadata961">
    <rdf:RDF>
      <cc:Work
         rdf:about="">
        <dc:title>բաց կապույտsvg</dc:title>
      </cc:Work>
    </rdf:RDF>
  </metadata>
</svg>
