<?xml version="1.0" encoding="UTF-8" standalone="no"?>
<svg
   id="Layer_2"
   data-name="Layer 2"
   viewBox="0 0 2691.3601 291.64092"
   version="1.1"
   sodipodi:docname="kamurj-02.svg"
   width="2691.3601"
   height="291.64093"
   inkscape:version="1.2 (1:1.2+202206011326+fc4e4096c5)"
   xmlns:inkscape="http://www.inkscape.org/namespaces/inkscape"
   xmlns:sodipodi="http://sodipodi.sourceforge.net/DTD/sodipodi-0.dtd"
   xmlns="http://www.w3.org/2000/svg"
   xmlns:svg="http://www.w3.org/2000/svg">
  <sodipodi:namedview
     id="namedview21"
     pagecolor="#ffffff"
     bordercolor="#000000"
     borderopacity="0.25"
     inkscape:showpageshadow="2"
     inkscape:pageopacity="0.0"
     inkscape:pagecheckerboard="0"
     inkscape:deskcolor="#d1d1d1"
     showgrid="false"
     inkscape:zoom="0.42694746"
     inkscape:cx="1201.553"
     inkscape:cy="-210.79877"
     inkscape:window-width="1920"
     inkscape:window-height="1007"
     inkscape:window-x="0"
     inkscape:window-y="0"
     inkscape:window-maximized="1"
     inkscape:current-layer="Layer_2" />
  <defs
     id="defs4">
    <style
       id="style2">.cls-1{fill:#a0a002;}.cls-2{fill:#c2c20e;}.cls-3{fill:none;stroke:#7a7a08;stroke-width:7px;}</style>
  </defs>
  <path
     class="cls-1"
     d="m 302.41,44.98 c 48.68,31.48 74,90.63 63.71,146.52 -12.52,67.94 -71.31,96.39 -76.68,98.87 H 501.12 C 458.12,275 425.49,237.87 416.88,192.66 405.75,134.22 436.39,71.22 492.49,43.73 Z"
     id="path6"
     style="fill:#a0a002" />
  <path
     class="cls-1"
     d="m 1339.24,42.46 c 17.92,57.68 18.68,103 16.1,133.56 -3.07,36.5 -24.84,144.39 -18.26,108.36 h 73.44 c -0.61,-2.23 -21.5,-64.7 -28.08,-110.16 -4.37,-30.21 -5.45,-73.79 10.8,-129.6 z"
     id="path8"
     style="fill:#a0a002" />
  <path
     class="cls-1"
     d="m 2221.92,43.9 c 53.25,30.54 81.6,91.75 70.92,149 -12.36,66.31 -71,94.8 -76.68,97.45 h 211.68 c -2.92,-1.06 -71,-27 -84.24,-96.3 -11.35,-59.53 22.92,-124.71 84.24,-150.34 z"
     id="path10"
     style="fill:#a0a002" />
  <path
     class="cls-1"
     d="m 1357.64,54.7 0.15,-20.87 q 0,-7.44 0.1,-14.89 L 7.09,23.02 q 0.08,9.09 0,18.42 C 7.02,48 6.71,60.86 6.71,60.86 v 0 z"
     id="path12"
     style="fill:#a0a002" />
  <path
     class="cls-1"
     d="m 2690.87,19.07 -1347.11,4.15 -10.93,31.62 1358.53,-0.83 q -0.24,-17.49 -0.49,-34.94 z"
     id="path14"
     style="fill:#a0a002" />
  <path
     class="cls-2"
     d="M 2690.87,19.07 0,21 V 0 h 2689.59 z"
     id="path16"
     style="fill:#c2c20e" />
  <path
     class="cls-3"
     d="m 7.09,23.02 2683.78,-4"
     id="path18"
     style="fill:none;stroke:#7a7a08;stroke-width:7px" />
</svg>
