<?xml version="1.0" encoding="UTF-8" standalone="no"?>
<svg
   id="Layer_1"
   data-name="Layer 1"
   viewBox="0 0 112.34468 135.40445"
   version="1.1"
   sodipodi:docname="yellow_apple.svg"
   width="112.34468"
   height="135.40445"
   inkscape:version="1.2.2 (b0a8486541, 2022-12-01)"
   xmlns:inkscape="http://www.inkscape.org/namespaces/inkscape"
   xmlns:sodipodi="http://sodipodi.sourceforge.net/DTD/sodipodi-0.dtd"
   xmlns="http://www.w3.org/2000/svg"
   xmlns:svg="http://www.w3.org/2000/svg">
  <sodipodi:namedview
     id="namedview31"
     pagecolor="#ffffff"
     bordercolor="#000000"
     borderopacity="0.25"
     inkscape:showpageshadow="2"
     inkscape:pageopacity="0.0"
     inkscape:pagecheckerboard="0"
     inkscape:deskcolor="#d1d1d1"
     showgrid="false"
     inkscape:zoom="3.0584718"
     inkscape:cx="41.360526"
     inkscape:cy="44.793613"
     inkscape:window-width="1920"
     inkscape:window-height="1011"
     inkscape:window-x="0"
     inkscape:window-y="32"
     inkscape:window-maximized="1"
     inkscape:current-layer="Layer_1" />
  <defs
     id="defs4">
    <style
       id="style2">.cls-1{fill:#f7ec37;stroke:#000;}.cls-1,.cls-7{stroke-miterlimit:10;}.cls-2{fill:#fbf185;opacity:0.85;}.cls-3{fill:#a0832f;opacity:0.47;}.cls-4{fill:#d6ba28;opacity:0.67;}.cls-5{fill:#231f20;}.cls-6{fill:#fff;}.cls-7{fill:#19b14b;stroke:#231f20;stroke-width:0.75px;}</style>
  </defs>
  <path
     class="cls-1"
     d="m 100.62535,42.241017 c 17,14.26 14.05,51.81 -4.590001,73.740013 -12.95,15.22999 -31,20 -34.69,18.70999 a 18.3,18.3 0 0 0 -9.94,-0.75 c -3.55,0.7 -19.38,-2.90999 -31.55,-13.91999 C -1.0746515,101.08103 -4.9846515,65.891027 7.9953485,45.541027 a 28.94,28.94 0 0 1 8.4200005,-9.17001 c 8.12,-5.52999 14.44,-3.20999 40.19,-3.29999 16.19,-0.06 20.79,-1 29.48,1.83 2.55,0.83999 9.48,3.11 14.540001,7.33999 z"
     id="path6"
     style="fill:#f7ec37;stroke:#000000;stroke-miterlimit:10" />
  <path
     class="cls-2"
     d="m 24.215349,35.651017 c 0.61,-1.51 4.48,-1.35999 11.83,-1.06999 11.8,0.47 13.8,2.47999 22.43,2.2 7.14,-0.23001 7,-1.64 13.78,-1.58 a 43.37,43.37 0 0 1 17.09,3.16999 37.91,37.91 0 0 1 17.640001,15.84001 c 8.44,14.89999 2.75,30.85999 0,38.57 A 61.46,61.46 0 0 1 92.055349,116.01102 c -12.93,12.54 -28.68,16.54 -29.24,15.56 -0.56,-0.97999 15.55,-5.89 23.72,-20.83999 5.78,-10.57 4.81,-21.090013 4.41,-24.830013 -0.56,-5.33 -2,-19.45 -12.67,-26.94 -8.72,-6.15 -14.25,-1.25 -30.32,-6.87 -13.37,-4.66 -24.99,-13.46 -23.74,-16.44 z"
     id="path8"
     style="opacity:0.85;fill:#fbf185" />
  <path
     class="cls-3"
     d="m 106.83535,88.141017 a 46,46 0 0 1 -32.850001,41.120003 36.07,36.07 0 0 1 -7,2.90001 37.45,37.45 0 0 1 -5,1.07999 6.75,6.75 0 0 0 -3.6,-2.15999 6.93,6.93 0 0 0 -4.32,0.71999 c -3.69,1.77001 -17.45,-1.78999 -27.36,-8.63999 -18.3600005,-12.68 -30.0000005,-41.160003 -22.3200005,-64.800003 2.73,-8.33 7.6000005,-15.28 9.0000005,-14.76 2.72,1 -12.53000046,28 -3.24,52.56 7.82,20.650003 28.72,28.389993 29.88,28.800003 20.21,7.12 37.54,-1.71 41,-3.6 19.660001,-10.63 24.980001,-29.990003 25.810001,-33.220013 z"
     id="path10"
     style="opacity:0.47;fill:#a0832f" />
  <path
     class="cls-4"
     d="m 22.495349,78.011017 c -0.24,11 -0.59,26.450003 9.85,38.360003 8.37,9.55 19.71,12.3 19.14,13.57 -0.57,1.27001 -12,-0.64 -22.27,-6.66999 A 56.86,56.86 0 0 1 5.9553485,95.971027 c -8.93,-23.40001 -0.81,-54.76 14.9000005,-59.58001 6.67,-1.99999 15.59,0.42 27,3.58001 2.24,0.62 9.64,2.66999 9.44,4 -0.15,1 -4.57,1.18 -5.05,1.19999 -9.19,0.29001 -12.68,-4.9 -16.84,-4.40999 -7.87,0.95 -12.56,21.53999 -12.91,37.24999 z"
     id="path12"
     style="opacity:0.67;fill:#d6ba28" />
  <path
     class="cls-5"
     d="m 40.965349,42.161027 a 42.82,42.82 0 0 0 28.22,0.72999 l 0.1,0.16 a 26.67,26.67 0 0 1 -28.43,-0.73 z"
     id="path14"
     style="fill:#231f20" />
  <path
     class="cls-6"
     d="m 76.005349,39.011017 v 0 c 0,0 3.12,0.59001 5.51,1.12 1.59,0.35001 18.07,6.94 23.840001,24.11 5.71,17 -3.27,31.88 -7.210001,38.420013 -4.31,7.16 -10,12.94999 -11,12.3 -1.27,-0.81 6.32,-10.58 9.4,-26.370003 1.38,-7 3.34,-17.07 -0.9,-28 -4.87,-12.41001 -15.01,-18.98001 -19.64,-21.58001 z"
     id="path16"
     style="fill:#ffffff" />
  <path
     class="cls-7"
     d="m 54.655349,45.911027 c -1.15,-1.10001 -2.88,-2.76001 -4.95,-4.81 -5.85,-5.78 -8.78,-8.67 -10.38,-10.65 a 29.7,29.7 0 0 1 -1.92,-2.66 c -6.45,-10 -6.05,-23.8000046 -9.95,-26.3300046 -0.19,-0.13 -1.19,-0.73999996 -1.09,-0.99999996 0.1,-0.26 1.91,0.13 2.46,0.38 17.39,8.17000496 23.28,21.43999456 23.28,21.43999456 a 40.45,40.45 0 0 1 2.55,23.63001 z"
     id="path18"
     style="fill:#19b14b;stroke:#231f20;stroke-width:0.75px;stroke-miterlimit:10" />
  <path
     class="cls-5"
     d="m 26.405349,0.45102244 c 13.77,11.65999456 25,27.46999456 28.31,45.44999456 h -0.11 a 119.86,119.86 0 0 0 -11,-24.65999 c -4.58,-7.75 -10.93,-14.7200046 -17.24,-20.81000456 z"
     id="path20"
     style="fill:#231f20" />
  <path
     class="cls-5"
     d="m 34.055349,13.751017 a 7.5,7.5 0 0 1 5.61,1.35 l -0.21,0.14 a 6.67,6.67 0 0 1 0.73,-5.3899996 9.48,9.48 0 0 0 -0.47,5.3199996 l 0.08,0.37001 a 7.89,7.89 0 0 0 -5.74,-1.79001 z"
     id="path22"
     style="fill:#231f20" />
  <path
     class="cls-5"
     d="m 35.915349,19.131027 c 3.7,-0.85 6.91,1.9 9.32,4.35 l -0.25,0.11 c -0.06,-2.68001 0,-5.37001 0.07,-8 0.24,2.59 0.21,5.37 0.22,8 v 0.36 l -0.25,-0.26001 c -2.34,-2.54 -5.46,-5.19 -9.11,-4.55 z"
     id="path24"
     style="fill:#231f20" />
  <path
     class="cls-5"
     d="m 40.685349,26.561027 c 2.36,-0.35 5.22,-0.61 7,1.32999 l -0.22,0.09 a 12.38,12.38 0 0 1 2,-7.25 18.25,18.25 0 0 0 -1.74,7.28 v 0.34 c -1.61,-2.18001 -4.69,-1.93001 -7,-1.75 z"
     id="path26"
     style="fill:#231f20" />
  <path
     class="cls-5"
     d="m 45.345349,31.691027 a 3.9,3.9 0 0 1 4.57,1.13 l -0.21,0.09 a 6.06,6.06 0 0 1 1.88,-5.62 7.92,7.92 0 0 0 -1.65,5.58 l 0.07,0.48 a 4,4 0 0 0 -4.66,-1.66 z"
     id="path28"
     style="fill:#231f20" />
</svg>
