<?xml version="1.0" encoding="UTF-8" standalone="no"?>
<svg
   viewBox="0 0 609.12 293.76998"
   version="1.1"
   id="svg40"
   sodipodi:docname="tray.svg"
   width="609.12"
   height="293.76999"
   inkscape:version="1.2.2 (b0a8486541, 2022-12-01)"
   xmlns:inkscape="http://www.inkscape.org/namespaces/inkscape"
   xmlns:sodipodi="http://sodipodi.sourceforge.net/DTD/sodipodi-0.dtd"
   xmlns="http://www.w3.org/2000/svg"
   xmlns:svg="http://www.w3.org/2000/svg">
  <sodipodi:namedview
     id="namedview42"
     pagecolor="#ffffff"
     bordercolor="#000000"
     borderopacity="0.25"
     inkscape:showpageshadow="2"
     inkscape:pageopacity="0.0"
     inkscape:pagecheckerboard="0"
     inkscape:deskcolor="#d1d1d1"
     showgrid="false"
     inkscape:zoom="1.3375752"
     inkscape:cx="365.96073"
     inkscape:cy="180.17678"
     inkscape:window-width="1920"
     inkscape:window-height="1011"
     inkscape:window-x="0"
     inkscape:window-y="0"
     inkscape:window-maximized="1"
     inkscape:current-layer="svg40" />
  <defs
     id="defs4">
    <style
       id="style2">.a{fill:#c8cacb;}.b{fill:#7a90a2;}.c{fill:#e0e3ed;}.d{fill:none;stroke:#7a90a2;stroke-miterlimit:10;}</style>
  </defs>
  <path
     class="a"
     d="m 282.39,156.48 c -0.86,3.42 6.6,5.86 7.19,14.17 a 19.26,19.26 0 0 1 -5.76,14.4 c -3.69,3.62 -10.08,6.48 -10.08,6.48 v 0 c 0.3,-5.51 -2.07,11.8 0.72,16.56 2.79,4.76 6.74,2.89 10.8,7.2 6,6.37 4.51,17.9 2.16,24.48 -3.66,10.28 -12.05,16 -16.56,18.72 -32.73,20.14 -79.17,21.75 -79.2,24.48 0,2.13 27.95,7.47 112.32,7.2 82.46,-0.25 118.12,-5.55 118.08,-7.92 -0.04,-2.37 -32.9,-2.17 -68.4,-18.72 -5.22,-2.43 -14.14,-6.92 -20.16,-16.56 -6.27,-10 -9.14,-25.26 -2.88,-31.68 3.62,-3.7 12.24,-6.48 12.24,-6.48 v 0 -19.44 0 c 0,0 -13.33,-5.2 -15.84,-13.68 -1.74,-5.91 1.88,-13.11 6.48,-16.56 4,-3 7.92,-2.45 7.94,-3.16 0.06,-2.74 -56.74,-8.69 -59.05,0.51 z"
     id="path6"
     style="fill:#c8cacb" />
  <path
     class="a"
     d="m 6.3399964,6.44 v 0 C 266.71,0 306.14,0 306.14,0 c 0,0 38.05,0.06 296.64,7.2 v 0 c 0,0 -78.44,23.61 -141.12,76.32 -34.25,28.81 -70.56,72 -70.56,72 L 225.5,157 A 424.65,424.65 0 0 0 6.3399964,6.44 Z"
     id="path8"
     style="fill:#c8cacb" />
  <rect
     class="b"
     x="0"
     y="0.7299937"
     width="609.12"
     height="8.6400003"
     rx="4.3200002"
     id="rect10"
     style="fill:#7a90a2" />
  <path
     class="b"
     d="m 422.78,290.18 c -35.36,2.24 -72.87,3.56 -112.32,3.59 -40.51,0 -79,-1.3 -115.19,-3.59 a 3.7,3.7 0 0 1 -2.55,-1.06 3.59,3.59 0 0 1 -1.06,-2.54 v 0 a 3.63,3.63 0 0 1 3.61,-3.61 c 37.74,2.4 77.9,3.76 120.23,3.6 37.56,-0.13 73.38,-1.44 107.28,-3.6 a 3.68,3.68 0 0 1 2.54,1.06 3.59,3.59 0 0 1 1.06,2.55 v 0 a 3.61,3.61 0 0 1 -3.6,3.6 z"
     id="path12"
     style="fill:#7a90a2" />
  <path
     class="b"
     d="m 309.74,157.37 1.44,-147.28 a 0.77,0.77 0 0 0 -0.07,-0.34 c -0.66,-1.54 -6,-0.54 -6.85,-0.38 2.07,23.53 3.67,48.21 4.62,74 0.95,25.79 1.18,50.42 0.86,74 z"
     id="path14"
     style="fill:#7a90a2" />
  <path
     class="b"
     d="m 319,156.63 v 0 A 331.25,331.25 0 0 1 377.44,7.37 0.74,0.74 0 0 1 377.84,7 a 0.7,0.7 0 0 1 0.55,0 l 1.74,0.86 a 0.74,0.74 0 0 1 0.33,1 354.39,354.39 0 0 0 -61.47,147.76 z"
     id="path16"
     style="fill:#7a90a2" />
  <path
     class="b"
     d="M 297.75,157.65 A 331.36,331.36 0 0 0 239.31,8.39 0.74,0.74 0 0 0 238.9,8.03 a 0.7,0.7 0 0 0 -0.55,0 l -1.74,0.85 a 0.74,0.74 0 0 0 -0.33,1 354.53,354.53 0 0 1 61.47,147.76 z"
     id="path18"
     style="fill:#7a90a2" />
  <path
     class="b"
     d="m 282.31,154.23 0.44,1.45 -0.44,-1.45 C 269.5,112.15 252.84,82.45 252.84,82.45 232.25,45.7 200.75,18.1 187.66,7.29 a 0.94,0.94 0 0 0 -0.54,-0.3 0.7,0.7 0 0 0 -0.54,0.15 l -1.46,1.27 a 0.79,0.79 0 0 0 0,1.1 328.56,328.56 0 0 1 30.72,29.13 287.71,287.71 0 0 1 33.68,43.1 c 0,0 20.67,32.64 32.79,72.49 z"
     id="path20"
     style="fill:#7a90a2" />
  <path
     class="b"
     d="m 337.84,154.23 -0.44,1.45 0.44,-1.45 c 12.81,-42.08 29.45,-71.78 29.45,-71.78 1.15,-1.72 3.74,-6.5 7.28,-12 10.35,-16 28.07,-39.21 57.89,-63.17 a 0.94,0.94 0 0 1 0.54,-0.3 0.72,0.72 0 0 1 0.55,0.15 l 1.46,1.27 a 0.78,0.78 0 0 1 0,1.1 328.62,328.62 0 0 0 -30.67,29.13 287.71,287.71 0 0 0 -33.68,43.1 c 0,0 -20.73,32.65 -32.82,72.5 z"
     id="path22"
     style="fill:#7a90a2" />
  <path
     class="b"
     d="m 350.84,154.17 -1.06,1.51 1.06,-1.51 a 595.32,595.32 0 0 1 60.53,-73.63 c 2,-1.71 6.68,-6.52 12.74,-12 17.68,-15.91 46.33,-38.57 88.66,-60.37 a 1.31,1.31 0 0 1 0.71,-0.25 0.63,0.63 0 0 1 0.54,0.24 l 1.13,1.58 c 0.23,0.32 0,0.85 -0.42,1.18 a 515.54,515.54 0 0 0 -45.29,27.29 451.11,451.11 0 0 0 -54.06,42 c 0,0 -35.62,32.49 -64.54,73.96 z"
     id="path24"
     style="fill:#7a90a2" />
  <path
     class="b"
     d="m 266.55,155.14 1.1,1.55 -1.1,-1.55 A 626.38,626.38 0 0 0 203.9,80 c -2,-1.75 -6.89,-6.68 -13.14,-12.26 C 172.54,51.44 143.05,28.18 99.629996,5.61 a 1.31,1.31 0 0 0 -0.73,-0.26 0.63,0.63 0 0 0 -0.55,0.23 l -1.12,1.58 c -0.23,0.32 0,0.86 0.44,1.2 A 541.05,541.05 0 0 1 144.17,36.52 475.69,475.69 0 0 1 199.84,79.65 c 0,0 36.68,33.25 66.71,75.49 z"
     id="path26"
     style="fill:#7a90a2" />
  <path
     class="c"
     d="m 391.92,157.35 a 764.9,764.9 0 0 1 -79.46,4.65 766.25,766.25 0 0 1 -89.21,-4.65 c -1.13,0 -2.07,-1.47 -2.07,-3.25 0,-1.78 0.93,-3.26 2.07,-3.26 a 549.62,549.62 0 0 0 90.45,6.51 549.69,549.69 0 0 0 78.22,-6.51 c 1.13,0 2.06,1.47 2.06,3.26 0,1.79 -0.93,3.25 -2.06,3.25 z"
     id="path28"
     style="fill:#e0e3ed" />
  <path
     class="d"
     d="m 297.75,211.72 c 0.66,3.28 5.81,31.44 -14,53.89 -15.27,17.27 -39.45,24.5 -62.55,18.82"
     id="path30"
     style="fill:none;stroke:#7a90a2;stroke-miterlimit:10" />
  <path
     class="d"
     d="M 306.84,211.71 Z"
     id="path32"
     style="fill:none;stroke:#7a90a2;stroke-miterlimit:10" />
  <path
     class="d"
     d="m 315.84,211.61 c -0.54,4.26 -3.71,33.2 17.27,55.88 17.49,18.91 45,26.15 70.92,18.85"
     id="path34"
     style="fill:none;stroke:#7a90a2;stroke-miterlimit:10" />
  <path
     class="c"
     d="m 341.84,209.63 a 267.75,267.75 0 0 1 -29.9,2.06 269.4,269.4 0 0 1 -37.1,-2.06 c -0.45,0 -0.82,-1.47 -0.82,-3.25 0,-1.78 0.37,-3.26 0.82,-3.26 a 239.92,239.92 0 0 0 67,0 z"
     id="path36"
     style="fill:#e0e3ed" />
  <path
     class="d"
     d="m 273.74,191.53 c 10.17,0.9 21.25,1.46 33.12,1.44 13,0 25,-0.71 36,-1.8"
     id="path38"
     style="fill:none;stroke:#7a90a2;stroke-miterlimit:10" />
</svg>
