<?xml version="1.0" encoding="UTF-8" standalone="no"?>
<svg
   id="Layer_1"
   data-name="Layer 1"
   viewBox="0 0 841.89 595.28"
   version="1.1"
   sodipodi:docname="getadzi_1.svg"
   inkscape:version="1.2.1 (9c6d41e410, 2022-07-14, custom)"
   xmlns:inkscape="http://www.inkscape.org/namespaces/inkscape"
   xmlns:sodipodi="http://sodipodi.sourceforge.net/DTD/sodipodi-0.dtd"
   xmlns="http://www.w3.org/2000/svg"
   xmlns:svg="http://www.w3.org/2000/svg">
  <sodipodi:namedview
     id="namedview497"
     pagecolor="#ffffff"
     bordercolor="#000000"
     borderopacity="0.25"
     inkscape:showpageshadow="2"
     inkscape:pageopacity="0.0"
     inkscape:pagecheckerboard="0"
     inkscape:deskcolor="#d1d1d1"
     showgrid="false"
     inkscape:zoom="2.2426716"
     inkscape:cx="628.71444"
     inkscape:cy="251.03988"
     inkscape:window-width="1920"
     inkscape:window-height="1151"
     inkscape:window-x="0"
     inkscape:window-y="20"
     inkscape:window-maximized="1"
     inkscape:current-layer="Layer_1" />
  <defs
     id="defs416">
    <style
       id="style414">.cls-1{fill:#606060;}.cls-2{fill:#adadad;}.cls-3{fill:#4d4d4d;}.cls-4{fill:#8a8a8a;}.cls-5{fill:#f9f5f4;}.cls-6{fill:none;stroke:#5c5b41;stroke-width:3px;}.cls-11,.cls-14,.cls-6,.cls-9{stroke-miterlimit:10;}.cls-7{fill:#454545;}.cls-11,.cls-8{fill:#3a3e3f;}.cls-9{fill:#5b5356;stroke:#686363;}.cls-10{fill:#686363;}.cls-11,.cls-14{stroke:#3a3e3f;}.cls-12{fill:#858585;}.cls-13{fill:#4b5052;}.cls-14{fill:#000607;}.cls-15{fill:#6b6163;}</style>
  </defs>
  <title
     id="title418">getadzi</title>
  <path
     class="cls-1"
     d="M59.63,218c11-28.67,27.9-46.83,36.72-56.16,24-25.37,48.27-37.29,71.28-48.6,30.21-14.84,57.29-28.15,94-29.16,6.07-.17,7.52.13,74.52,9.72,39.19,5.6,58.87,8.41,62.64,8.64C442,105,446.51,96.55,498.11,97c19.87.18,43.43.54,73.44,7.56,20.24,4.73,34,10.28,54,18.36,44.32,17.89,66.47,26.83,76.68,43.2a331.86,331.86,0,0,0,22.68,33.48c8.69,11.2,13.38,15.66,18.36,15.12,9.41-1,13.36-19.21,16.2-18.36s.27,20.33-1.08,30.24c-2.33,17.14-4,20.9-1.08,25.92,4.07,7,10.56,5.3,16.2,14,.93,1.44,5,8,4.32,16.2-.84,10.3-8.27,11.73-11.88,22.68-3.45,10.48-.31,20.31,2.16,28.08,3.54,11.08,9.29,18.45,15.12,25.92,9.13,11.69,11.3,10.25,16.2,18.36,2.7,4.47,9.15,16.66,7.56,32.4-1.12,11.14-5.76,18.92-8.64,23.76-2.75,4.61-6.2,10.27-13,15.12a44.16,44.16,0,0,1-14,6.48c-12.53,3.35-23.34.53-37.8-3.24a96.69,96.69,0,0,1-16.2-5.4,90.73,90.73,0,0,1-19.44-11.88c-1.71-1.37-27.3-22.29-33.48-45.36-.46-1.73-1.16-4.77-3.8-6.85-5.93-4.65-12.93,2.38-22.12.37-2.48-.55-3.84-1.47-24.84-25.92-3.31-3.87-7.47-8.72-14-13a63.69,63.69,0,0,0-10.8-5.4c-4.32-1.83-6.5-2.74-7.56-2.16-3.39,1.84.92,12.47,2.16,23.76,1.65,14.93-3.6,17.23-9.72,51.84-3.4,19.22-2.72,23.86-1.08,28.08,2,5.06,5.12,9,19.44,20.52,20,16.16,31.26,22.52,30.24,24.84-1.65,3.76-33.69-7.74-35.64-3.24-1.09,2.51,8.85,6.42,8.64,13-.23,7.29-13,14.65-24.84,15.12-7.19.28-8.12-2.2-21.6-5.4-18.92-4.5-22.42-.88-28.08-5.4-7.07-5.67-3.88-13.18-8.64-34.56-4.07-18.33-7-15.56-11.88-35.64a308.11,308.11,0,0,1-6.48-41s8.56-14.33,6.48-16.2-11.43,12.21-29.16,17.28c-12.15,3.47-15.29-1-29.16,2.16-12.71,2.9-17.31,8.33-28.08,14-14.69,7.79-27.36,8.95-47.52,10.8-13.75,1.26-44,3.72-77.76-8.64-35-12.82-51-33.26-59.4-27-4.77,3.56-3.18,13.17,0,32.4,2,12,4.55,26.65,14,43.2,6.46,11.26,11.74,20.48,22.68,27,13.63,8.12,26.5,6.38,27,10.8.48,4.2-10.84,8.94-17.28,10.8-13,3.74-24.42,1.13-29.16,0-6.8-1.64-6.31-2.67-18.36-6.48-14.27-4.52-15-3.06-19.44-5.4-16.19-8.47-20.56-34.57-18.36-35.64,1.34-.66,6.88,7.18,6.48,7.56-.64.6-22.12-13.73-30.24-36.72-4.69-13.31-2.77-23.45-5.4-23.76-3.2-.38-8.94,14.35-9.72,29.16-.38,7.21-1.32,25.12,10.8,37.8a45.17,45.17,0,0,0,17.28,10.8c11.38,3.91,20.62,1.76,21.39,4.59.63,2.31-4.88,6-9.51,8.37-20.38,10.22-43.78,3.1-54.36-.27-14.46-4.61-24.17-7.7-29.88-17-5.29-8.64-1.87-14-4.32-31.32C99.69,424.78,92.69,423.82,91,408.08c-2.5-22.66,11.42-26,13-50.76,2-32.58-20-60.93-25.92-59.4-2.73.7-1.87,7.7-7.56,10.8-4.5,2.45-10.06.8-11.88,0C44.89,302.66,44.79,256.55,59.63,218Z"
     id="path420"
     style="fill:#666666" />
  <path
     class="cls-2"
     d="M162.59,479.36a55.47,55.47,0,0,0,20.52,4.3c6.41.06,11-1.13,14,1.9,2.5,2.51,3.38,7.37,1.49,9.64-2.42,2.89-7.68-.49-14.5,3.27-2.35,1.3-1.81,1.75-3.89,2.84-3.93,2.05-8.53,1.19-17.59-.62-12.67-2.53-14.38-2.92-15.14-4.77-1.14-2.82.64-7.25,3.6-8.64,5-2.35,11.4,4.74,13.68,2.88C165.82,489.28,165.86,486.57,162.59,479.36Z"
     id="path422"
     style="fill:#b3b3b3" />
  <path
     class="cls-2"
     d="M595.61,467.35a54.4,54.4,0,0,0,21.79,5c6.8.06,11.65-1.32,14.85,2.2,2.65,2.93,3.59,8.58,1.58,11.21-2.57,3.37-8.16-.56-15.4,3.82-2.5,1.51-1.92,2-4.13,3.3-4.17,2.38-9.06,1.38-18.68-.72-13.44-2.94-15.27-3.4-16.07-5.56-1.21-3.27.68-8.42,3.83-10.05,5.28-2.73,12.09,5.52,14.52,3.35C599,478.91,599.07,475.74,595.61,467.35Z"
     id="path424"
     style="fill:#b3b3b3" />
  <path
     class="cls-2"
     d="M562.72,483.91A47.69,47.69,0,0,0,584,489.5c6.65.07,11.39-1.47,14.52,2.46,2.59,3.26,3.51,9.56,1.54,12.49-2.51,3.76-8-.62-15.05,4.25-2.44,1.69-1.87,2.27-4,3.68-4.08,2.65-8.86,1.54-18.26-.81-13.14-3.27-14.92-3.78-15.7-6.18-1.19-3.66.66-9.4,3.73-11.21,5.17-3,11.83,6.16,14.2,3.74C566.07,496.79,566.1,493.26,562.72,483.91Z"
     id="path426"
     style="fill:#b3b3b3" />
  <path
     class="cls-2"
     d="M257.07,479.36c8.64,4.51,15.67,5.5,20.52,5.55,6.41.07,11-1.46,14,2.45,2.5,3.24,3.38,9.51,1.49,12.43-2.42,3.73-7.68-.63-14.5,4.22-2.35,1.68-1.81,2.26-3.89,3.66-3.93,2.64-8.53,1.53-17.59-.8-12.67-3.26-14.38-3.76-15.14-6.16-1.14-3.63.64-9.34,3.6-11.14,5-3,11.4,6.12,13.68,3.72C260.3,492.16,260.34,488.65,257.07,479.36Z"
     id="path428"
     style="fill:#b3b3b3" />
  <path
     class="cls-3"
     d="M130.91,202.88C103,210.35,81.43,266,94.92,300.7c8,20.7,25.45,25.87,29.51,51.22,3,18.48-5,23.93-6.48,47.52-2.38,37.31,14.51,70,19.44,69.12,8.93-1.62-18.9-113.83,17.28-131.76,2.2-1.09,6.76-2.89,23.76,0C242,347.58,265.05,387.38,322.66,394c5.9.67,13.77.51,29.5.17,72.52-1.54,179.24-3.82,211.47-56.62,4.92-8.06,11.06-22.14,20.84-22.33,9.55-.18,14,13,28.12,25.93,15.21,13.87,28.78,15.66,43.2,21.6,57.14,23.5,59.77,83.94,97.2,84.24,20.14.16,37.5-17.2,36.18-20.68s-20.72,7.52-40.5,1.24c-22.84-7.26-24.37-30.62-45.36-58.32-29.53-39-52-26.47-79.92-60.48-35.89-43.82-22.69-94.12-38.7-97-18.85-3.33-24.85,68.6-77.06,110.05-58.83,46.71-159,41-227.68,6.35C188.23,281.93,169.31,192.59,130.91,202.88Z"
     id="path430"
     style="fill:#4d4d4d" />
  <path
     class="cls-4"
     d="M713,227.36c.32,4.81-1.61,11.53-6.84,14-5.63,2.7-12.87-.55-16.63-4.59-4.77-5.12-1.18-8.51-5.33-27.81-.62-2.89-1.26-5.44,0-6.48,2.66-2.19,11.27,4.37,14,6.48C706.52,215.28,712.54,219.86,713,227.36Z"
     id="path432"
     style="fill:#808080" />
  <path
     class="cls-5"
     d="M703.31,268.76c3.82-3,10.73.37,13.68,1.8s10.94,5.28,14.4,14.4c2.75,7.23,3.28,19.48-3.6,23.4s-16.85-2.57-21.6-8.28c-5.64-6.79-5.51-14.68-5.4-22S702.71,269.22,703.31,268.76Z"
     id="path434" />
  <path
     class="cls-6"
     d="M703.31,274.06c3.82-2.7,10.73.34,13.68,1.64s10.94,4.83,14.4,13.14c2.75,6.61,3.28,17.79-3.6,21.36s-16.85-2.35-21.6-7.56c-5.64-6.19-5.51-13.4-5.4-20S702.71,274.48,703.31,274.06Z"
     id="path436"
     style="fill:#ffffff" />
  <path
     class="cls-7"
     d="M72,199.28c.38,0-5.9,31.35,3.84,61.92A158.88,158.88,0,0,0,95,300.08c1.31,1.84,2.32,3.17,3.14,4.24,16,20.93,26.39,24.2,38.49,38.24,4.5,5.22,18.78,23,20.49,47.52.16,2.32,1.19,17-3.2,18.72-2.74,1.1-6.43-3.28-19.21-21.6-14.61-20.93-21.92-31.4-26.9-41-6.46-12.5-5.44-13.28-14.09-31s-13.17-24.06-16.65-31C58.38,247.13,71.51,199.24,72,199.28Z"
     id="path438"
     style="fill:#333333" />
  <path
     class="cls-7"
     d="M526.19,336.08c-4.2-5.64-31.49,15-74.16,28.08-29,8.89-51.94,15.92-80.64,17.28-50,2.35-88.53-13.93-109.44-23-66.49-29-100-79.4-105.12-74.88-2.88,2.54,9.51,16.74,23.06,43a15.64,15.64,0,0,1,3.63,1.11c10.12,4.48,17.21,12.13,22.6,21.23a2.57,2.57,0,0,1,.89-2.38c6.45-4.8,27.64,31.52,72.23,51.32,43.53,19.33,86.6,12.92,103,10.32,44.2-7.05,42.55-22.88,92.64-32.61,6.62-1.29,25.76-4.72,40.56-20C520.93,349.82,528.74,339.5,526.19,336.08Z"
     id="path440"
     style="fill:#4d4d4d" />
  <path
     class="cls-7"
     d="M568.67,344c-3.83-1-18,26.41-20.64,56.63-1.31,15.24.74,26.63,3.37,41.33,2.6,14.47,5,19.21,7.91,23,6.5,8.45,16.82,13.8,27,14,5.3.08,11.71-1.22,11.91-3.16.25-2.36-8.91-3.46-19.46-10.5a65.93,65.93,0,0,1-13-11.77c-15.71-19.49-9.86-47.43-9.35-49.73,2.66-11.86,6.17-11.48,10.08-26.64C570.23,362.73,571.61,344.77,568.67,344Z"
     id="path442"
     style="fill:#4d4d4d" />
  <path
     class="cls-7"
     d="M586.54,130.86a692.61,692.61,0,0,0,5.73,161.35c1.64,10.64,3.6,21.48,8.86,30.87"
     id="path444"
     style="fill:#4d4d4d" />
  <path
     class="cls-8"
     d="M483.72,374a112.92,112.92,0,0,0,26.2-5c2.09-.68,4.14-1.48,6.15-2.35s4-1.81,5.92-2.83a76.87,76.87,0,0,0,10.93-7.15c3.5-2.68,7-5.63,10.7-8.32a111.43,111.43,0,0,1,11.6-7.33c4-2.16,8.06-4.21,12.19-6.09s8.33-3.64,10.8-7a21.88,21.88,0,0,0,4.14-11.68,47.74,47.74,0,0,0-1-12.82c-.85-4.29-2.12-8.62-3.09-13.13s-1.73-9-2.28-13.55a175,175,0,0,1,2.54-54.41l.5.05c-.16,9.06-.27,18.06,0,27,.1,2.24.18,4.48.33,6.71l.19,3.34.26,3.34c.39,4.45.84,8.88,1.44,13.29s1.3,8.8,2.1,13.18,1.92,8.73,2.62,13.34a46.07,46.07,0,0,1,.35,14.13,24.26,24.26,0,0,1-6.05,13,18.87,18.87,0,0,1-5.87,4.15c-2.12,1-4.24,1.77-6.32,2.63s-4.14,1.76-6.15,2.75-4,2.06-5.92,3.18c-.94.59-1.87,1.22-2.81,1.82s-1.82,1.29-2.72,1.95c-1.77,1.37-3.48,2.79-5.12,4.3-3.29,3-6.34,6.31-9.8,9.39A51.41,51.41,0,0,1,524,367.71a64.39,64.39,0,0,1-13,5,72.76,72.76,0,0,1-27.32,1.82Z"
     id="path446"
     style="fill:#333333" />
  <path
     class="cls-7"
     d="M360.62,406.89a141.89,141.89,0,0,1-17.21,2.25c-2.89.25-5.79.34-8.7.4l-4.35,0c-1.46,0-2.91-.08-4.36-.13s-2.91-.13-4.36-.24-2.91-.15-4.36-.33l-4.34-.5c-1.45-.16-2.88-.42-4.33-.62-2.89-.37-5.73-1-8.59-1.61-1.43-.31-2.84-.68-4.25-1.06s-2.82-.73-4.21-1.19a169.84,169.84,0,0,1-31.84-14c-5.08-2.75-10-5.71-15-8.62-2.48-1.46-5-2.92-7.48-4.29s-5-2.72-7.59-3.86a20.68,20.68,0,0,0-7.67-2,6.14,6.14,0,0,0-5.47,3.27,17.52,17.52,0,0,0-1.82,7.36,50.59,50.59,0,0,0,.23,8.23,132.24,132.24,0,0,0,3,16.65c1.31,5.53,2.76,11,4.31,16.56s3.06,11.07,4.67,16.52,3.45,10.88,5.37,16.27c3.86,10.76,8.26,21.35,13.1,31.81l-.43.24a208.2,208.2,0,0,1-16.33-30.6q-3.48-8-6.32-16.23c-1-2.73-1.84-5.52-2.69-8.27l-2.5-8.29c-1.57-5.57-3.09-11.17-4.28-16.87a127.15,127.15,0,0,1-2.6-17.4,53.23,53.23,0,0,1,.07-9,20.46,20.46,0,0,1,2.83-9.1,10.43,10.43,0,0,1,3.87-3.55,9.65,9.65,0,0,1,5.11-1,16.41,16.41,0,0,1,4.64,1.09,35.58,35.58,0,0,1,4.1,1.87c5.23,2.75,9.89,6.13,14.78,9.16s9.78,6,14.88,8.64c10.19,5.29,21.19,8.7,32.2,11.44a218.8,218.8,0,0,0,33.57,5.7,297.15,297.15,0,0,0,34.33.81Z"
     id="path448"
     style="fill:#333333" />
  <path
     class="cls-8"
     d="M61.79,306.56A26.63,26.63,0,0,0,67,303.67a18,18,0,0,0,3.9-3.89A17.67,17.67,0,0,0,74,290a33.08,33.08,0,0,0-.25-5.33c-.12-.91-.27-1.8-.43-2.74s-.34-1.86-.54-2.64a17.21,17.21,0,0,0-.77-2.26c-.33-.77-.75-1.65-1.18-2.58-.85-1.87-1.64-3.84-2.36-5.78a79.53,79.53,0,0,1-5.16-24.19A52.37,52.37,0,0,1,68,220.37a108.57,108.57,0,0,0,1.62,23.44A140.15,140.15,0,0,0,76,266c.63,1.82,1.32,3.56,2.06,5.35.37.9.77,1.83,1.17,2.92a19.67,19.67,0,0,1,.95,3.48c.21,1.17.31,2.26.41,3.27s.15,2.13.17,3.22a30.27,30.27,0,0,1-.55,6.61A21.83,21.83,0,0,1,78,297.24a18.59,18.59,0,0,1-4.29,5.26A18.06,18.06,0,0,1,61.79,306.56Z"
     id="path450"
     style="fill:#333333" />
  <path
     class="cls-8"
     d="M171.15,307.6a169.59,169.59,0,0,0,29,29.94,215.88,215.88,0,0,0,34.62,22.73,350.59,350.59,0,0,0,37.77,17.24c1.6.65,3.23,1.26,4.85,1.86l4.88,1.83c3.25,1.2,6.54,2.33,9.81,3.49,6.58,2.27,13.12,4.43,19.7,6.1a170.27,170.27,0,0,0,20.06,3.83,186,186,0,0,0,20.44,1.61c3.42.1,6.85.1,10.33,0l10.46-.17a204.9,204.9,0,0,0,20.55-1.37,116.83,116.83,0,0,0,19.92-4.28c1.64-.49,3.25-1.05,4.86-1.63s3.2-1.2,4.81-1.83c3.21-1.29,6.47-2.7,9.83-3.94s6.79-2.32,10.24-3.24,6.91-1.72,10.41-2.31,7-1.11,10.52-1.47,7.05-.54,10.57-.56c-3.47.6-6.92,1.25-10.32,2s-6.79,1.66-10.13,2.67A129.89,129.89,0,0,0,435,387.57c-3.1,1.48-6.17,3.1-9.36,4.7-1.59.8-3.22,1.58-4.87,2.29s-3.31,1.45-5,2.09a100.38,100.38,0,0,1-10.31,3.42c-3.48,1-7,1.77-10.58,2.43a181.43,181.43,0,0,1-21.38,2.41c-3.55.22-7.05.4-10.58.55s-7.13.26-10.72.26a185.05,185.05,0,0,1-21.55-1.3,175.8,175.8,0,0,1-21.31-3.95c-7-1.83-13.81-4.09-20.48-6.48-3.32-1.24-6.65-2.44-10-3.73s-6.62-2.54-9.87-4a291.62,291.62,0,0,1-38.1-19.21,188.8,188.8,0,0,1-34-25.88A138.63,138.63,0,0,1,171.15,307.6Z"
     id="path452"
     style="fill:#333333" />
  <path
     class="cls-8"
     d="M579.52,238.84a158.28,158.28,0,0,1,25.33,60.64c1.07,5.35,2.3,10.6,3.76,15.83s3,10.53,4.58,15.71c.81,2.58,1.63,5.15,2.56,7.64a59.07,59.07,0,0,0,3.13,7.19,28.11,28.11,0,0,0,4.22,6.08,22.29,22.29,0,0,0,5.67,4.36,29.24,29.24,0,0,0,7,2.44,42,42,0,0,1,8.4,2.83,40.8,40.8,0,0,1,7.65,4.84,44.13,44.13,0,0,1,6.4,6.27,144.46,144.46,0,0,1,9.7,13.82c3,4.7,5.74,9.56,8.28,14.51s4.71,10,7.3,14.39A45.36,45.36,0,0,0,693.4,427a65.05,65.05,0,0,0,6.35,4.6,68.44,68.44,0,0,0,7,3.81,112,112,0,0,0,15.16,5.88l-.15.78a77.67,77.67,0,0,1-16.35-3.26,70.53,70.53,0,0,1-7.91-3.06,59.61,59.61,0,0,1-7.48-4.25,47.84,47.84,0,0,1-12.45-12.25,84.77,84.77,0,0,1-4.43-7.31c-1.35-2.42-2.64-4.8-4-7.13s-2.66-4.68-4.06-7-2.77-4.61-4.22-6.88-2.89-4.57-4.36-6.83-2.92-4.47-4.46-6.47a35.93,35.93,0,0,0-5-5.47,32.37,32.37,0,0,0-6-4.25,35.93,35.93,0,0,0-7-2.68,35.42,35.42,0,0,1-8.32-3.36,28.36,28.36,0,0,1-7.09-5.86,33.8,33.8,0,0,1-4.86-7.55,65,65,0,0,1-3.14-8c-.89-2.67-1.63-5.35-2.37-8-1.43-5.34-2.72-10.65-4-16s-2.36-10.83-3.25-16.25-1.82-10.7-3.13-16a152.44,152.44,0,0,0-4.73-15.57,163,163,0,0,0-14.2-29.38Z"
     id="path454"
     style="fill:#333333" />
  <path
     class="cls-8"
     d="M566,355A117.77,117.77,0,0,0,552,392.6a140.27,140.27,0,0,0-2.41,19.89c-.21,3.33-.26,6.67-.24,10,0,1.67.1,3.31.14,5s.2,3.3.39,4.93a79.5,79.5,0,0,0,4.27,19c.57,1.5,1.09,3,1.77,4.45.32.72.6,1.46,1,2.17s.72,1.4,1.06,2.11c.17.35.33.71.52,1.05l.59,1c.39.68.79,1.35,1.16,2l1.29,1.94.64,1,.71.9,1.41,1.84c.51.58,1,1.12,1.57,1.7a42,42,0,0,0,3.33,3.2c.58.51,1.22.94,1.84,1.42s1.22,1,1.89,1.37c1.34.85,2.77,1.7,4.25,2.6,2.95,1.78,6.16,3.86,8.48,7a14.75,14.75,0,0,1,2.46,5.09,10.54,10.54,0,0,1,.33,2.79,9,9,0,0,1-.51,2.7l-.78-.14a10.67,10.67,0,0,0-4.2-8c-2.28-2-5.21-3.13-8.3-4.39-1.56-.61-3.18-1.23-4.82-2-.84-.38-1.62-.87-2.43-1.32s-1.63-.88-2.4-1.4-1.51-1.09-2.26-1.64c-.36-.28-.76-.53-1.11-.84l-1-.93c-.69-.63-1.39-1.25-2-1.9l-1.87-2.06L555.7,472l-.82-1.11-1.64-2.23c-.5-.78-1-1.58-1.42-2.36l-.7-1.19c-.23-.4-.42-.81-.63-1.22-.41-.81-.79-1.64-1.18-2.47s-.68-1.68-1-2.52c-.7-1.67-1.17-3.41-1.71-5.13s-.85-3.47-1.25-5.21-.68-3.49-.88-5.24l-.37-2.62c-.11-.88-.17-1.75-.25-2.63-.2-1.75-.27-3.5-.35-5.25s-.09-3.5-.14-5.24,0-3.5.13-5.22c.16-3.46.39-6.91.79-10.35a145.8,145.8,0,0,1,3.82-20.34,115.53,115.53,0,0,1,17.29-37.16Z"
     id="path456"
     style="fill:#333333" />
  <path
     class="cls-8"
     d="M95.3,300.59A69.41,69.41,0,0,0,107.52,323a58.8,58.8,0,0,0,9.07,8.84c3.35,2.66,6.83,5.39,10.12,8.31l-.13-.12,1.55,1.41,1.39,1.3c.92.86,1.82,1.74,2.72,2.62,1.8,1.78,3.57,3.58,5.29,5.43a148.71,148.71,0,0,1,9.82,11.64,88.18,88.18,0,0,1,8.31,13.14,100.32,100.32,0,0,1,5.81,14.31c1.55,4.78,3,9.46,4.41,14.14s3,9.31,4.57,14c3.21,9.31,6.73,18.56,10.13,28l-.7.39a126.13,126.13,0,0,1-8.49-12.51c-2.62-4.31-5-8.76-7.2-13.31s-4.23-9.2-6-14-3.22-9.6-4.57-14.35a112.73,112.73,0,0,0-4.44-13.71,74.52,74.52,0,0,0-6.9-12.53,144.74,144.74,0,0,0-8.87-11.64c-1.58-1.87-3.18-3.73-4.83-5.56l-2.49-2.72-2.39-2.52-.14-.12c-3-3-6.22-5.84-9.44-8.83a62,62,0,0,1-8.85-9.95,66.68,66.68,0,0,1-6.57-11.47,72,72,0,0,1-4.2-12.44Z"
     id="path458"
     style="fill:#4d4d4d" />
  <path
     class="cls-4"
     d="M109.31,188.84c3.19,11.68,31.13,9.94,99.36,14,106.13,6.37,109.9,14.87,159.84,9.72,49.71-5.13,74.57-7.69,102.6-21.6,15.87-7.88,40.06-22.75,76.68-27a175.08,175.08,0,0,1,25.92-1.08c26.77.85,48.27,7.66,82.08,18.36,4.88,1.54,8.23,2.6,13,4.32,13.44,4.87,16.62,7.27,17.28,6.48,2.2-2.61-22.77-39.81-64.8-59.4-21.37-10-43.4-11.69-87.48-15.12-18.29-1.43-39.12-3.06-67-1.08-36.38,2.57-38.67,8-62.64,6.48-16.31-1.06-14.16-3.52-63.72-14-32.08-6.82-43.63-8-50.76-8.64-20.48-1.72-32.76-2.74-48.6,1.08-5.63,1.36-9.57,2.81-44.28,19.44-21.08,10.09-31.62,15.14-33.48,16.2C146.71,146.4,105.13,173.5,109.31,188.84Z"
     id="path460"
     style="fill:#b3b3b3" />
  <path
     class="cls-7"
     d="M697.07,239.6c-2.15-1.84-2.13-4.44-2.64-8.64-1.42-11.78-4.48-15.76-2.88-16.8,2.39-1.55,9.94,6.73,13.2,10.32,6,6.57,6,9,5.76,10.32-.51,2.8-3,5.12-5.76,6A8.27,8.27,0,0,1,697.07,239.6Z"
     id="path462"
     style="fill:#333333" />
  <path
     class="cls-3"
     d="M697,223.58c-.69.48.52,2.16,1.08,6.48.71,5.36-.57,7.27,1.08,9.18s4.6,1.76,4.89,1.74c1.68-.14,4.07-1,4.78-2.86.87-2.24-1.15-4.72-3.73-7.88S698.21,222.74,697,223.58Z"
     id="path464"
     style="fill:#4d4d4d" />
  <path
     class="cls-9"
     d="M759.47,196.4h0l-5,34.2h0s.58,15.47,1.33,15.48C757.11,246.12,759.47,196.4,759.47,196.4Z"
     id="path466"
     style="fill:#4d4d4d" />
  <path
     class="cls-10"
     d="M768.7,296.47A70.16,70.16,0,0,0,767.54,280a78.42,78.42,0,0,0-2.06-8,14.16,14.16,0,0,0-4.2-6.85l.05-.08a9.34,9.34,0,0,1,1.73,1.22,12.54,12.54,0,0,1,1.4,1.6,17,17,0,0,1,2,3.78,43.62,43.62,0,0,1,1.9,8.17,65.1,65.1,0,0,1,.47,16.65Z"
     id="path468"
     style="fill:#808080" />
  <path
     class="cls-10"
     d="M758.74,259a2.74,2.74,0,0,1,2.46.51c.72.48,1.35,1.05,2,1.58,1.3,1.09,2.57,2.22,3.77,3.44a20.42,20.42,0,0,1,5.3,8.75,45,45,0,0,1,.55,20.33l-.1,0a89.9,89.9,0,0,0,0-10.12,64.14,64.14,0,0,0-1.21-10,19.69,19.69,0,0,0-4.9-8.61,50.27,50.27,0,0,0-3.6-3.55c-.64-.56-1.25-1.16-1.92-1.64a2.61,2.61,0,0,0-2.31-.59Z"
     id="path470"
     style="fill:#808080" />
  <path
     class="cls-10"
     d="M706.46,262.5a9.77,9.77,0,0,1,4.75-.7A16.51,16.51,0,0,1,715.9,263a44.9,44.9,0,0,1,8.37,4.82,42.92,42.92,0,0,1,7.27,6.4,29.78,29.78,0,0,1,5.2,8.2,29.21,29.21,0,0,1,1.43,19.16,28.82,28.82,0,0,1-10.95,15.67l-.06-.08a30.88,30.88,0,0,0,10-15.85,29.87,29.87,0,0,0-1.2-18.6,29,29,0,0,0-5-8.07,42.69,42.69,0,0,0-7.07-6.42,43.63,43.63,0,0,0-8.2-5c-2.88-1.26-6.27-1.9-9.28-.68Z"
     id="path472"
     style="fill:#808080" />
  <path
     class="cls-10"
     d="M732.15,270.44a10.58,10.58,0,0,1,5,3.26,25.39,25.39,0,0,1,3.42,4.93,30.63,30.63,0,0,1,3.42,11.46,31.81,31.81,0,0,1-1,12,35.68,35.68,0,0,1-5.16,10.79l-.09-.05a49.38,49.38,0,0,0,4.28-11,37.12,37.12,0,0,0,1.18-11.64,30.34,30.34,0,0,0-3.07-11.3,25.16,25.16,0,0,0-3.2-5,10.38,10.38,0,0,0-4.76-3.36Z"
     id="path474"
     style="fill:#666666" />
  <path
     class="cls-3"
     d="M71.13,207a114.85,114.85,0,0,0,1.49,19.68c.57,3.19,1.23,6.33,2.09,9.4a70,70,0,0,0,3,8.89,115.85,115.85,0,0,0,8.72,16.75c1.66,2.69,3.44,5.32,5.23,7.93s3.7,5,5.67,7.47c7.95,9.73,17.13,19,26.3,28.41l13.84,14.13,6.89,7.15,3.49,3.64c1.2,1.26,2.42,2.58,3.61,3.94,2.36,2.72,4.6,5.61,6.7,8.58,1,1.49,2.07,3,3,4.53s1.95,3.16,2.82,4.75a129.67,129.67,0,0,1,8.57,19.59c1.14,3.34,2.18,6.66,3.1,10.07a96.76,96.76,0,0,1,2.32,10.59c.6,3.63.87,7.46,1.1,10.39a41.84,41.84,0,0,0,.5,4.21,42.4,42.4,0,0,0,.9,4.18,89.32,89.32,0,0,0,2.72,8.59,66.1,66.1,0,0,0,3.82,8.13c1.51,2.77,3.34,5.78,4.89,9a91.15,91.15,0,0,1,4.05,9.77,96.21,96.21,0,0,1,4.61,20.17,94.92,94.92,0,0,1,.26,20.28,167.12,167.12,0,0,0-5.68-19,116.58,116.58,0,0,0-8.15-17.43,89.19,89.19,0,0,0-5.06-7.89c-1.81-2.51-3.78-4.93-5.91-7.7a65.27,65.27,0,0,1-6-9.16,81.84,81.84,0,0,1-4.55-9.9c-.65-1.73-1.27-3.51-1.78-5.38s-.95-3.78-1.29-5.57c-.63-3.64-1-6.41-1.77-9.28a137.94,137.94,0,0,0-5.88-17.42,125.42,125.42,0,0,0-8-16.51c-.76-1.29-1.48-2.51-2.31-3.76s-1.67-2.48-2.54-3.7c-1.76-2.42-3.62-4.75-5.61-7-1-1.15-2-2.28-3.07-3.43L130,340.48c-2.26-2.42-4.55-4.82-6.8-7.27-4.47-4.92-9-9.79-13.39-14.83s-8.82-10.11-13-15.45a192,192,0,0,1-12.14-16.71c-1.92-2.92-3.63-6-5.3-9.11s-3.15-6.18-4.49-9.41a103.88,103.88,0,0,1-6.45-19.94A69.14,69.14,0,0,1,67,237.28a83.4,83.4,0,0,1,.06-10.37A76.65,76.65,0,0,1,71.13,207Z"
     id="path476"
     style="fill:#4d4d4d" />
  <path
     class="cls-10"
     d="M692.32,283.47a46.34,46.34,0,0,0,11.53,19.28,53.67,53.67,0,0,0,8.81,7,54.91,54.91,0,0,0,10.07,5.15l0,.1a37.52,37.52,0,0,1-10.57-4.4,42.08,42.08,0,0,1-8.85-7.32,45.44,45.44,0,0,1-11.06-19.8Z"
     id="path478"
     style="fill:#808080" />
  <path
     class="cls-10"
     d="M688.76,290.06a6.41,6.41,0,0,1,1,1.9l.76,2c.52,1.33,1.05,2.66,1.63,4a51.41,51.41,0,0,0,3.95,7.58,39.39,39.39,0,0,0,5.35,6.57,30.73,30.73,0,0,0,6.75,5.14l0,.09a21.17,21.17,0,0,1-7.4-4.51,28.91,28.91,0,0,1-5.34-6.87,53.28,53.28,0,0,1-3.74-7.81c-.51-1.34-1-2.7-1.44-4.06a14.89,14.89,0,0,0-1.6-3.95Z"
     id="path480"
     style="fill:#808080" />
  <path
     class="cls-8"
     d="M681.85,371.89a17.73,17.73,0,0,1,4,1.47,20.64,20.64,0,0,1,3.66,2.44,31.1,31.1,0,0,1,5.87,6.57,60.23,60.23,0,0,1,4.32,7.58c1.26,2.56,2.43,5.16,3.54,7.76,4.45,10.41,8.14,20.89,13.42,30.16.66,1.15,1.36,2.28,2,3.4s1.44,2.21,2.25,3.24,1.54,2.12,2.41,3.08l1.27,1.49,1.35,1.4a52.17,52.17,0,0,0,12.5,9.37,58,58,0,0,0,15,5.59,62.58,62.58,0,0,0,16.5,1.34,41,41,0,0,1-8.31,2.09,45.65,45.65,0,0,1-8.68.47,51.12,51.12,0,0,1-17.19-3.8,50.09,50.09,0,0,1-15.1-9.61,59.23,59.23,0,0,1-11-14.09c-5.84-10.31-9.06-21.34-12.36-32-.81-2.67-1.65-5.31-2.5-7.95A77.34,77.34,0,0,0,692,384.3a35.32,35.32,0,0,0-4-7A21.07,21.07,0,0,0,681.85,371.89Z"
     id="path482"
     style="fill:#333333" />
  <circle
     class="cls-11"
     cx="717.03"
     cy="291.9"
     r="11.12"
     id="circle484"
     style="fill:#4d4d4d" />
  <path
     class="cls-12"
     d="M773,388.56c1.14,0,7.94,0,12.4,5.22,5,5.8,4.14,14.73-.34,20.63a16,16,0,0,1-28.79-9.74c0-1.13.05-7.64,4.45-9.77,3.24-1.58,7.11.06,9.16,1.63,4.32,3.31,5.7,10.23,3.31,17.32"
     id="path486"
     style="fill:#808080" />
  <path
     class="cls-13"
     d="M743.11,382.72a54.42,54.42,0,0,1,6-1.75,41.18,41.18,0,0,1,6.3-.88,34,34,0,0,1,6.45.24,21,21,0,0,1,6.46,1.85,21.9,21.9,0,0,1,5.39,4.13,43.54,43.54,0,0,1,4.28,5,22.68,22.68,0,0,1,4.71,13,17.74,17.74,0,0,1-1.52,7.3,14,14,0,0,1-5.2,6.11,12.52,12.52,0,0,1-8.2,1.79A11.43,11.43,0,0,1,763.6,418a11.55,11.55,0,0,1-3.31-3,10.45,10.45,0,0,1-1.8-8.58,9.39,9.39,0,0,1,5.61-6.38,7.88,7.88,0,0,1,4.27-.45,6.44,6.44,0,0,1,2.12.79,4.67,4.67,0,0,1,1.7,1.69,4.86,4.86,0,0,1-2.11,6.76l-.41-.57c1.23-1.52.91-3.66-.07-4.32-.71-.52-2.35-.26-3.31.54a4.31,4.31,0,0,0-1.73,3.13,4.42,4.42,0,0,0,1.26,3.09,4.71,4.71,0,0,0,3,1.54,6.83,6.83,0,0,0,3.79-.59,7.26,7.26,0,0,0,3.11-2.89,10.72,10.72,0,0,0,1.45-4.67,12.82,12.82,0,0,0-.07-2.55,15.25,15.25,0,0,0-.57-2.61,22.84,22.84,0,0,0-2.35-5.09,39.85,39.85,0,0,0-3.41-4.79,18.22,18.22,0,0,0-4.1-3.83,17.43,17.43,0,0,0-5.27-2.12,31.43,31.43,0,0,0-5.91-.86,47.76,47.76,0,0,0-12.16,1.14Z"
     id="path488"
     style="fill:#4d4d4d" />
  <path
     class="cls-4"
     d="M702.35,273.92A42.83,42.83,0,0,1,714.59,278c5.95,3,12.32,6.2,15.84,13.2,4.3,8.55,1.65,17.41.75,20.06a28.05,28.05,0,0,0,5-20.78,27.43,27.43,0,0,0-8.85-15.71,28.83,28.83,0,0,0-19.63-7.07,29.74,29.74,0,0,0-17.12,6A40.74,40.74,0,0,1,702.35,273.92Z"
     id="path490"
     style="fill:#808080" />
  <circle
     class="cls-14"
     cx="716.21"
     cy="294.17"
     r="5.63"
     id="circle492"
     style="fill:#000000" />
  <path
     class="cls-15"
     d="M792.6,397.16a35.39,35.39,0,0,1,9.22,21.77c0,1,.1,2.07,0,3.11l-.06,1.56c0,.52-.12,1-.17,1.55a33.16,33.16,0,0,1-1.27,6.14,39.55,39.55,0,0,1-5.5,11.17,51.52,51.52,0,0,1-3.88,4.78l-1,1.09-1.06,1.07a31.06,31.06,0,0,1-2.32,2.11,26.74,26.74,0,0,1-5.35,3.55,27.61,27.61,0,0,1-6,2.21,29.15,29.15,0,0,1-6.19.83A28.31,28.31,0,0,1,766,458l-2.89-.25c-3.85-.37-7.7-.79-11.55-1.46,3.82-.85,7.64-1.44,11.46-2l2.87-.38c.94-.11,1.78-.25,2.67-.44A30.09,30.09,0,0,0,773.6,452a28.71,28.71,0,0,0,4.59-2.34,25.2,25.2,0,0,0,4-3.14c.62-.61,1.24-1.22,1.84-1.87l.92-1,.9-1a46.8,46.8,0,0,0,3.31-4.19,39.28,39.28,0,0,0,2.77-4.49,37.16,37.16,0,0,0,2.17-4.76,37.86,37.86,0,0,0,2.25-10.26,41.76,41.76,0,0,0-.6-10.83q-.5-2.73-1.27-5.48C793.94,400.79,793.3,399,792.6,397.16Z"
     id="path494"
     style="fill:#4d4d4d" />
</svg>
