<?xml version="1.0" encoding="UTF-8" standalone="no"?>
<svg
   id="Layer_1"
   data-name="Layer 1"
   viewBox="0 0 702.66613 236.4"
   version="1.1"
   sodipodi:docname="car_3.svg"
   width="702.66614"
   height="236.40001"
   inkscape:version="1.2 (1:1.2+202206011326+fc4e4096c5)"
   xmlns:inkscape="http://www.inkscape.org/namespaces/inkscape"
   xmlns:sodipodi="http://sodipodi.sourceforge.net/DTD/sodipodi-0.dtd"
   xmlns="http://www.w3.org/2000/svg"
   xmlns:svg="http://www.w3.org/2000/svg"
   xmlns:rdf="http://www.w3.org/1999/02/22-rdf-syntax-ns#"
   xmlns:cc="http://creativecommons.org/ns#"
   xmlns:dc="http://purl.org/dc/elements/1.1/">
  <sodipodi:namedview
     id="namedview131"
     pagecolor="#ffffff"
     bordercolor="#000000"
     borderopacity="0.25"
     inkscape:showpageshadow="2"
     inkscape:pageopacity="0.0"
     inkscape:pagecheckerboard="0"
     inkscape:deskcolor="#d1d1d1"
     showgrid="false"
     inkscape:zoom="1.3892621"
     inkscape:cx="409.21003"
     inkscape:cy="197.94681"
     inkscape:window-width="1920"
     inkscape:window-height="1007"
     inkscape:window-x="0"
     inkscape:window-y="0"
     inkscape:window-maximized="1"
     inkscape:current-layer="Layer_1" />
  <defs
     id="defs4">
    <style
       id="style2">.cls-1{fill:#c2c5b2;}.cls-2{fill:#878b8e;}.cls-3{fill:#dceffe;}.cls-10,.cls-16,.cls-4,.cls-8{fill:none;stroke-miterlimit:10;}.cls-10,.cls-4{stroke:#fff;}.cls-5{fill:#971f2b;}.cls-6{fill:#2d2c2a;}.cls-7{fill:#d6d8d7;}.cls-8{stroke:#484a49;stroke-width:4px;}.cls-9{fill:#000205;}.cls-10{stroke-width:3px;}.cls-11{fill:#484a49;}.cls-12{fill:#77181e;}.cls-13{fill:#fff;}.cls-14{fill:#7c2c35;}.cls-15{fill:#6b040c;}.cls-16{stroke:#f4e9e9;}.cls-17{fill:#f4e9e9;}.cls-18{fill:#bbbfe1;}.cls-19{fill:#de9745;}.cls-20{fill:#721311;}.cls-21{fill:#9e958e;}</style>
  </defs>
  <title
     id="title6">karmir meqena</title>
  <path
     class="cls-1"
     d="m 465.27841,5.72 c 11.79,10.11 24,21.3 36.51,33.64 11.91,11.78 22.77,23.37 32.64,34.56 v 0 c -22.36,16.21 -23.63,15.36 -26.16,13.68 -0.11,-0.08 -0.64,-0.43 -0.61,-0.49 0.03,-0.06 0.23,0.05 0.41,0.12 l -54.68,-74.32 z"
     id="path8"
     style="fill:#c2c5b2" />
  <path
     class="cls-2"
     d="m 108.66841,18.28 c -13.189996,7 -18.439996,17 -35.239996,42.76 -17.63,27.06 -18.88,26.83 -18.36,29.16 4.87,21.69 106.329996,6.74 236.519996,10.8 123.08,3.83 213.5,22.82 220.09,1.21 1.27,-4.16 -5.57,-14.19 -19.25,-34.25 -18.61,-27.29 -27.91,-40.94 -39.6,-49.68 -21.08,-15.78 -43.48,-12.13 -83.16,-10.8 -76.05,2.54 -185.92,-4.43 -243,5 a 56.3,56.3 0 0 0 -18,5.8 z"
     id="path10"
     style="fill:#878b8e" />
  <path
     class="cls-3"
     d="m 69.068414,79.17 c -1.58,-2.46 -0.12,-6.44 17.28,-32.85 14.349996,-21.79 17.409996,-25.24 22.999996,-27.51 6.3,-2.55 12.31,-2.2 23.76,-1.53 a 121.85,121.85 0 0 1 20.88,3.05 c -2.81,6.85 -6.89,16.36 -12.24,27.51 -12.33,25.78 -16.67,29.44 -20.8,31.33 -6.23,2.84 -7.61,-0.25 -25.919996,0 -18.2,0.26 -23.78,3.4 -25.96,0 z"
     id="path12"
     style="fill:#dceffe" />
  <path
     class="cls-3"
     d="m 183.54841,18.9 c 0,0 -14.3,5.27 -38.16,60.4 v 0 c 0.44,0 24.73,-1.55 50.4,-1.57 18.94,0 39.6,0.79 39.6,0.79 v 0 l 10.8,-60.41 v 0 a 317,317 0 0 0 -46.8,-0.78 c -9.34,0.59 -14.01,0.89 -15.84,1.57 z"
     id="path14"
     style="fill:#dceffe" />
  <path
     class="cls-3"
     d="m 256.94841,17.6 v 0 l -10.08,60.24 v 0 l 112.94,1.78 v 0 l 0.82,-62.82 v 0 z"
     id="path16"
     style="fill:#dceffe" />
  <path
     class="cls-3"
     d="m 368.58841,16.8 c 0.71,9.85 1,20.7 0.72,32.4 -0.29,10.61 -1.08,20.48 -2.16,29.52 q 32.48,-0.17 65.51,0 27.9,0.15 55.38,0.56 l -35.21,-60.23 z"
     id="path18"
     style="fill:#dceffe" />
  <line
     class="cls-4"
     x1="441.30841"
     y1="15.360001"
     x2="441.88843"
     y2="90.150002"
     id="line20"
     style="fill:none;stroke:#ffffff;stroke-miterlimit:10" />
  <path
     class="cls-5"
     d="m 129.06841,2.88 a 65.63,65.63 0 0 0 -17.28,6.72 53.45,53.45 0 0 0 -11,8.64 C 75.118414,43.76 62.278414,56.53 32.388414,94.56 c 2.8,0 5.77,0 8.87,-0.22 a 125.93,125.93 0 0 0 15.61,-1.94 c 19.67,-33.21 38,-55.86 47.519996,-63.36 a 80.15,80.15 0 0 1 15.12,-9.36 68.52,68.52 0 0 1 14.38,-4.6 c 9.24,-1.89 12.79,-0.71 28.82,-0.44 0,0 0.54,0 33.84,-0.72 v 0 q -4.6,16.68 -10.16,34.36 c -4.84,15.23 -9.9,29.71 -15.08,43.42 q 4.23,0.12 8.64,0.15 4.41,0.03 8.64,-0.06 c 4.78,-13.4 9.41,-27.84 13.68,-43.29 3.38,-12.23 6.23,-24 8.64,-35.28 q 28.53,-0.16 57.6,0 34,0.18 67.21,0.8 0.84,17.85 1.67,35.68 l 1.92,41 8.16,1.44 -1.44,-41.77 -1.26,-36.42 101.68,1.33 q 14.16,19.06 28.34,38.12 l 32,43.08 7.2,-1.92 -59.52,-81.12 c 0,0 11.55,-3.36 11.52,-6.72 0,-2.86 -8.44,-5.77 -8.43,-5.77 L 143.94841,0 v 0 a 136.45,136.45 0 0 0 -14.88,2.88 z"
     id="path22"
     style="fill:#971f2b" />
  <ellipse
     class="cls-6"
     cx="609.06842"
     cy="177.14"
     rx="56.880001"
     ry="52.060001"
     id="ellipse24"
     style="fill:#2d2c2a" />
  <ellipse
     class="cls-7"
     cx="609.69843"
     cy="175.71001"
     rx="34.360001"
     ry="31.42"
     id="ellipse26"
     style="fill:#d6d8d7" />
  <ellipse
     class="cls-8"
     cx="609.32843"
     cy="175.39"
     rx="26.950001"
     ry="25.219999"
     id="ellipse28"
     style="fill:none;stroke:#484a49;stroke-width:4px;stroke-miterlimit:10" />
  <ellipse
     class="cls-9"
     cx="599.00842"
     cy="151.26003"
     rx="2.6700001"
     ry="2.4400001"
     id="ellipse30"
     style="fill:#000205" />
  <ellipse
     class="cls-9"
     cx="634.68842"
     cy="181.10002"
     rx="2.6700001"
     ry="2.4400001"
     id="ellipse32"
     style="fill:#000205" />
  <ellipse
     class="cls-9"
     cx="636.31842"
     cy="170.56001"
     rx="2.6700001"
     ry="2.4400001"
     id="ellipse34"
     style="fill:#000205" />
  <ellipse
     class="cls-9"
     cx="632.01843"
     cy="160.02"
     rx="2.6700001"
     ry="2.4400001"
     id="ellipse36"
     style="fill:#000205" />
  <ellipse
     class="cls-9"
     cx="622.56842"
     cy="151.92003"
     rx="2.6700001"
     ry="2.4400001"
     id="ellipse38"
     style="fill:#000205" />
  <ellipse
     class="cls-9"
     cx="610.84845"
     cy="149.48003"
     rx="2.6700001"
     ry="2.4400001"
     id="ellipse40"
     style="fill:#000205" />
  <ellipse
     class="cls-9"
     cx="587.71844"
     cy="160.00002"
     rx="2.6700001"
     ry="2.4400001"
     id="ellipse42"
     style="fill:#000205" />
  <ellipse
     class="cls-9"
     cx="582.37842"
     cy="172.94002"
     rx="2.6700001"
     ry="2.4400001"
     id="ellipse44"
     style="fill:#000205" />
  <ellipse
     class="cls-9"
     cx="585.0484"
     cy="187.06001"
     rx="2.6700001"
     ry="2.4400001"
     id="ellipse46"
     style="fill:#000205" />
  <ellipse
     class="cls-9"
     cx="594.09845"
     cy="196.84001"
     rx="2.6700001"
     ry="2.4400001"
     id="ellipse48"
     style="fill:#000205" />
  <ellipse
     class="cls-9"
     cx="605.93842"
     cy="200.61"
     rx="2.6700001"
     ry="2.4400001"
     id="ellipse50"
     style="fill:#000205" />
  <ellipse
     class="cls-9"
     cx="620.33844"
     cy="198.16002"
     rx="2.6700001"
     ry="2.4400001"
     id="ellipse52"
     style="fill:#000205" />
  <ellipse
     class="cls-9"
     cx="629.77844"
     cy="191.95003"
     rx="2.6700001"
     ry="2.4400001"
     id="ellipse54"
     style="fill:#000205" />
  <ellipse
     class="cls-10"
     cx="609.69843"
     cy="175.39"
     rx="17.440001"
     ry="15.94"
     id="ellipse56"
     style="fill:none;stroke:#ffffff;stroke-width:3px;stroke-miterlimit:10" />
  <ellipse
     class="cls-11"
     cx="609.32843"
     cy="175.39"
     rx="7.0999999"
     ry="6.4899998"
     id="ellipse58"
     style="fill:#484a49" />
  <ellipse
     class="cls-6"
     cx="164.28842"
     cy="184.56001"
     rx="55.98"
     ry="51.84"
     id="ellipse60"
     style="fill:#2d2c2a" />
  <ellipse
     class="cls-7"
     cx="164.84842"
     cy="183.44002"
     rx="33.849998"
     ry="31.49"
     id="ellipse62"
     style="fill:#d6d8d7" />
  <ellipse
     class="cls-8"
     cx="164.48842"
     cy="183.12001"
     rx="26.549999"
     ry="25.27"
     id="ellipse64"
     style="fill:none;stroke:#484a49;stroke-width:4px;stroke-miterlimit:10" />
  <ellipse
     class="cls-9"
     cx="154.31842"
     cy="158.95003"
     rx="2.6300001"
     ry="2.45"
     id="ellipse66"
     style="fill:#000205" />
  <ellipse
     class="cls-9"
     cx="189.46841"
     cy="188.84001"
     rx="2.6300001"
     ry="2.45"
     id="ellipse68"
     style="fill:#000205" />
  <ellipse
     class="cls-9"
     cx="191.07843"
     cy="178.28001"
     rx="2.6300001"
     ry="2.45"
     id="ellipse70"
     style="fill:#000205" />
  <ellipse
     class="cls-9"
     cx="186.83842"
     cy="167.73003"
     rx="2.6300001"
     ry="2.45"
     id="ellipse72"
     style="fill:#000205" />
  <ellipse
     class="cls-9"
     cx="177.53842"
     cy="159.60002"
     rx="2.6300001"
     ry="2.45"
     id="ellipse74"
     style="fill:#000205" />
  <ellipse
     class="cls-9"
     cx="165.98842"
     cy="157.16002"
     rx="2.6300001"
     ry="2.45"
     id="ellipse76"
     style="fill:#000205" />
  <ellipse
     class="cls-9"
     cx="143.19843"
     cy="167.70003"
     rx="2.6300001"
     ry="2.45"
     id="ellipse78"
     style="fill:#000205" />
  <ellipse
     class="cls-9"
     cx="137.92842"
     cy="180.67003"
     rx="2.6300001"
     ry="2.45"
     id="ellipse80"
     style="fill:#000205" />
  <ellipse
     class="cls-9"
     cx="140.56842"
     cy="194.82002"
     rx="2.6300001"
     ry="2.45"
     id="ellipse82"
     style="fill:#000205" />
  <ellipse
     class="cls-9"
     cx="149.47842"
     cy="204.61"
     rx="2.6300001"
     ry="2.45"
     id="ellipse84"
     style="fill:#000205" />
  <ellipse
     class="cls-9"
     cx="161.14842"
     cy="208.39"
     rx="2.6300001"
     ry="2.45"
     id="ellipse86"
     style="fill:#000205" />
  <ellipse
     class="cls-9"
     cx="175.32843"
     cy="205.94002"
     rx="2.6300001"
     ry="2.45"
     id="ellipse88"
     style="fill:#000205" />
  <ellipse
     class="cls-9"
     cx="184.62842"
     cy="199.72002"
     rx="2.6300001"
     ry="2.45"
     id="ellipse90"
     style="fill:#000205" />
  <ellipse
     class="cls-10"
     cx="164.84842"
     cy="183.12001"
     rx="17.18"
     ry="15.98"
     id="ellipse92"
     style="fill:none;stroke:#ffffff;stroke-width:3px;stroke-miterlimit:10" />
  <ellipse
     class="cls-11"
     cx="164.48842"
     cy="183.12001"
     rx="6.9899998"
     ry="6.5"
     id="ellipse94"
     style="fill:#484a49" />
  <path
     class="cls-12"
     d="m 32.348414,94.56 c 0,0 -12.88,24.6 -15.6,51.63 -1.94,19.28 1.2,40.84 1.2,41.25 v 0 l 82.639996,3.32 v 0 c 0,0 4.83,-11.24 7.92,-18.72 2.24,-5.43 6.29,-15.27 12.24,-21.6 11.21,-12 29.39,-11.71 43.2,-11.52 12.9,0.17 27.47,0.36 41,9.36 0,0 4.06,2.69 13.17,16.31 a 394.78,394.78 0 0 1 20,34.09 c 34.14,0.4 61.77,1 79.92,1.44 68.14,1.66 110.87,3.84 148.32,3.6 34.16,-0.22 54.84,-2.39 64.81,-0.67 a 9,9 0 0 0 3.59,0 c 7.49,-1.72 9.48,-13.33 14.4,-25.92 2.83,-7.25 7.49,-19.16 16.56,-28.8 a 60.12,60.12 0 0 1 28.08,-16.56 c 16.78,-4.31 30.49,0.3 38.16,2.88 7.86,2.64 17.17,5.77 25.2,14.4 9,9.65 12.9,22.46 14.4,27.36 3,9.89 3.23,17 5.76,17.28 1.9,0.18 3.55,-3.69 7.2,-11.52 9.32,-20 8.44,-16 10.8,-22.32 a 111.54,111.54 0 0 0 7.2,-35.28 c 0.32,-9.58 0.41,-14.62 -2.88,-19.44 -5.32,-7.79 -15.52,-9.26 -20.88,-10.08 -19.87,-3.05 -39.07,-10 -59,-12.24 -45.06,-5.17 -86.4,-10.08 -86.4,-10.08 a 77.57,77.57 0 0 1 -14.41,10.03 c -5.4,2.9 -13.68,6.47 -13.68,6.48 -17.25,-0.06 -49.23,-0.13 -89.28,0 -200,0.61 -383.579996,5.32 -383.599996,5.32 z"
     id="path96"
     style="fill:#77181e" />
  <path
     class="cls-13"
     d="m 246.94841,193.28 c 11.56,0 23.1,0.21 34.65,0.33 l 34.6,1.34 8.65,0.33 8.66,0.15 17.31,0.3 34.62,0.57 q 34.62,0.25 69.25,-0.29 17.31,-0.25 34.61,-0.69 l 34.65,-0.04 c -11.52,0.8 -23.06,1.41 -34.6,2 q -17.31,0.43 -34.64,0.69 -34.63,0.52 -69.29,0.29 l -34.64,-0.57 -17.32,-0.3 -8.66,-0.15 -8.66,-0.33 -34.62,-1.33 c -11.57,-0.73 -23.05,-1.44 -34.57,-2.3 z"
     id="path98"
     style="fill:#ffffff" />
  <path
     class="cls-13"
     d="m 49.628414,94.14 14.12,-0.58 14.12,-0.51 28.249996,-1 56.5,-0.56 113,-1.15 113,-1.15 56.5,-0.57 c 18.84,0.31 37.68,0.51 56.53,0.93 -18.83,0.79 -37.67,1.37 -56.5,2.07 l -56.5,0.57 -113,1.15 -113,1.15 -56.5,0.59 -28.259996,-0.43 -14.13,-0.22 z"
     id="path100"
     style="fill:#ffffff" />
  <path
     class="cls-13"
     d="m 458.42841,13.64 c 4.86,5.68 9.8,11.32 13.7,17.65 l 12.46,18.49 24.92,37 -2,-0.45 6.26,-3.73 3.13,-1.87 c 0.52,-0.31 1,-0.62 1.56,-0.94 a 12.43,12.43 0 0 1 1.58,-0.91 l 6.61,-3.14 c 2.21,-1 4.44,-2.05 6.67,-3 -1.94,1.48 -3.89,3 -5.85,4.41 l -5.91,4.32 a 12.92,12.92 0 0 1 -1.55,1 c -0.53,0.29 -1,0.61 -1.57,0.92 l -3.13,1.86 -6.26,3.73 -1.22,0.73 -0.79,-1.18 -24.92,-37 -12.47,-18.57 c -4.41,-5.99 -7.77,-12.68 -11.22,-19.32 z"
     id="path102"
     style="fill:#ffffff" />
  <path
     class="cls-14"
     d="m 38.828414,96 c -5.79,3.17 -5.62,9.77 -10.8,31.68 -4.3,18.18 -6.53,22.54 -3.6,25.92 3.44,4 9.27,1.15 25.2,0 26.51,-1.92 34.37,4.1 43.92,-2.88 7.909996,-5.8 4.1,-11.1 11.519996,-18.72 6.19,-6.37 17.16,-11.21 64.08,-7.2 18,1.53 30.65,3.46 36.72,4.32 53.79,7.58 102.14,3.13 102.24,0.72 0.11,-2.81 -64.9,-5.68 -64.8,-9.36 0.1,-3.47 57.75,-5.27 99.36,-5 13.2,0.07 8.73,0.25 39.6,0.72 71.14,1.06 68.23,-0.34 83.52,1.44 35.4,4.11 47.41,11.18 64.08,8.64 2.07,-0.32 7.57,-1.3 13,1.44 10.21,5.18 12.39,19.8 13.68,19.44 1.29,-0.36 -5.76,-16.36 0.72,-25.2 3.43,-4.68 9.4,-5.64 22.14,-6.84 30.29,-2.87 39.78,-2.52 39.78,-2.52 24.65,0.89 59.72,1.92 59.76,1.44 0.04,-0.48 -32.58,-3.93 -81.36,-7.2 -18,-1.21 -45.68,-3 -82.08,-4.32 -122.1,-4.29 -305.17,-1 -378,-2.88 -53.759996,-1.39 -80.639996,-2.08 -82.799996,-2.88 -2.76,-1.07 -10.02,-3.98 -15.88,-0.76 z"
     id="path104"
     style="fill:#7c2c35" />
  <path
     class="cls-15"
     d="m 33.788414,92.28 166.389996,0.77 c 55.5,0.39 110.94,2.17 166.38,3 27.72,0.42 55.44,0.56 83.15,0.19 13.86,-0.15 27.71,-0.56 41.58,-0.91 13.87,-0.35 27.74,-0.51 41.62,-0.39 a 935.94,935.94 0 0 1 165.44,16.18 935,935 0 0 0 -165.4,-14.69 c -13.86,0 -27.71,0.29 -41.56,0.76 -13.85,0.47 -27.72,1 -41.59,1.29 -27.74,0.62 -55.48,0.73 -83.22,0.56 -55.48,-0.32 -110.94,-1.6 -166.36,-1.49 L 33.788414,98.28 Z"
     id="path106"
     style="fill:#6b040c" />
  <path
     class="cls-16"
     d="m 205.14841,16.8 a 417.17,417.17 0 0 1 -15.12,43.92 c -1.24,3 -4.19,12.81 -10.08,32.4 a 36.62,36.62 0 0 0 -1.44,18 c 0.51,2.64 1.44,7.51 5,11.52 4.89,5.44 11,5.13 17.28,7.2 8.24,2.69 13.41,9.23 23.76,22.32 a 154.38,154.38 0 0 1 20.88,35.28 v 0 c 16,0.27 41.43,0.74 72.72,1.44 49.84,1.11 65.51,1.72 93.6,2.16 23,0.35 57.12,0.62 99.36,0 0.9,-7.41 1.64,-15.1 2.16,-23 a 422,422 0 0 0 -1.44,-72"
     id="path108"
     style="fill:none;stroke:#f4e9e9;stroke-miterlimit:10" />
  <path
     class="cls-17"
     d="m 340.50841,16.08 1.16,21.66 0.65,21.69 c 0.43,14.46 1,28.92 1.07,43.38 l 0.61,43.39 0.3,21.7 -0.19,21.7 -0.81,-21.69 -0.3,-21.69 -0.61,-43.39 c -0.11,-14.46 -0.64,-28.91 -1.07,-43.37 l -0.65,-21.68 z"
     id="path110"
     style="fill:#f4e9e9" />
  <path
     class="cls-15"
     d="m 502.94841,92.57 -54.19,-75.84 0.94,0.49 -80.76,0.64 -80.77,0.55 -80.76,0.67 q -40.4,0.31 -80.77,-0.22 l 1.28,-0.31 a 147.8,147.8 0 0 0 -23.13,14.37 125.69,125.69 0 0 0 -19.729996,18.79 c -5.92,7 -11.32,14.49 -16.87,21.9 -5.55,7.41 -10.7,15.07 -16.18,22.55 l -0.5,-0.33 q 7.23,-11.85 14.69,-23.61 3.79,-5.82 7.71,-11.58 c 2.63,-3.83 5.3,-7.65 8.19,-11.34 a 123.17,123.17 0 0 1 19.699996,-20.16 142.81,142.81 0 0 1 23.56,-15.54 l 0.57,-0.3 h 0.71 q 40.38,-0.52 80.77,-0.21 l 80.76,0.66 80.78,0.53 80.76,0.64 h 0.61 l 0.33,0.49 52.81,76.8 z"
     id="path112"
     style="fill:#6b040c" />
  <polygon
     class="cls-18"
     points="258.36,286.42 258.36,279.42 289.32,282.92 "
     id="polygon114"
     style="fill:#bbbfe1"
     transform="translate(-69.051586,-179.72)" />
  <polygon
     class="cls-18"
     points="419.64,287.54 419.64,280.54 450.6,284.04 "
     id="polygon116"
     style="fill:#bbbfe1"
     transform="translate(-69.051586,-179.72)" />
  <circle
     class="cls-19"
     cx="687.5484"
     cy="117.73002"
     r="5.4000001"
     id="circle118"
     style="fill:#de9745" />
  <path
     class="cls-20"
     d="m 509.14841,157.2 c -0.64,-1.8 -8.24,-0.58 -9.72,-0.36 -10.38,1.49 -53.15,1.58 -153.24,-1.09 -0.74,11 0.89,21.13 1.06,32.06 q 60.76,1.43 117.62,0.35 c 6.65,-0.23 12.17,-0.15 16.2,0 4.47,0.15 9.93,0.47 10.08,-0.36 0.15,-0.83 -3.48,-0.95 -5.22,-3.32 -2.38,-3.25 -0.14,-9 2.34,-13.6 10.49,-5.22 21.68,-11.37 20.88,-13.68 z"
     id="path120"
     style="fill:#721311" />
  <path
     class="cls-20"
     d="m 341.25841,155.75 c -32,-0.86 -70,-2 -114.87,-3.51 3.35,4.35 6.82,9.24 10.26,14.68 a 192.9,192.9 0 0 1 9.57,16.92 q 46.26,2.71 95.27,3.95 h 0.82 c -0.16,-10.91 -1.77,-21.08 -1.05,-32.04 z"
     id="path122"
     style="fill:#721311" />
  <path
     class="cls-20"
     d="m 21.598414,151.49 a 34.21,34.21 0 0 0 -0.81,6.78 35,35 0 0 0 0.4,5.77 l 6.48,9 a 29.26,29.26 0 0 0 13.68,11.52 l 53.6,1.44 a 75.71,75.71 0 0 1 15.459996,-33.54 z"
     id="path124"
     style="fill:#721311" />
  <path
     class="cls-21"
     d="m 678.18841,175.92 c 1.67,-2.56 7.4,1.22 12.24,-1.44 7,-3.84 5,-17.17 7.2,-17.28 1.74,-0.1 4.91,8.38 4.21,17.27 a 81.08,81.08 0 0 1 -2.77,13.69 v 0 c 0,0 -11.23,1.59 -17.28,-3.6 -2.84,-2.46 -4.84,-6.69 -3.6,-8.64 z"
     id="path126"
     style="fill:#9e958e" />
  <path
     class="cls-21"
     d="m 6.4284135,155.04 c 3.47,-1.31 5.0000005,0.36 13.0000005,1.44 8.43,1.14 10.89,-0.17 13,2.16 2.32,2.59 2.3,7.64 0,10.08 -1.49,1.57 -3.05,1.1 -12.24,1.44 -7.6,0.27 -8.33,0.65 -10.8000005,0 -1,-0.27 -8.92999997,-2.39 -9.35999997,-7.2 -0.38,-3.37 3.11999997,-6.68 6.39999997,-7.92 z"
     id="path128"
     style="fill:#9e958e" />
  <metadata
     id="metadata689">
    <rdf:RDF>
      <cc:Work
         rdf:about="">
        <dc:title>karmir meqena</dc:title>
      </cc:Work>
    </rdf:RDF>
  </metadata>
</svg>
