<svg id="Layer_1" data-name="Layer 1" xmlns="http://www.w3.org/2000/svg" viewBox="0 0 841.89 595.28"><defs><style>.cls-1{fill:#bfe2e4;}.cls-2{fill:#10183f;}.cls-3{fill:#063992;}.cls-20,.cls-4{fill:#d03a00;}.cls-5{fill:#e77500;}.cls-6{fill:#064d9c;}.cls-7,.cls-9{fill:none;}.cls-7{stroke:#3e87e3;}.cls-13,.cls-20,.cls-7,.cls-9{stroke-miterlimit:10;}.cls-8{fill:#3e87e3;}.cls-9{stroke:#06c4ce;stroke-width:3px;}.cls-10{fill:#7c91c0;}.cls-11{fill:#868b8e;}.cls-12{fill:#000050;}.cls-13{fill:#282625;stroke:#000050;stroke-width:0.5px;}.cls-14{fill:#777776;}.cls-15{fill:#e0e0df;}.cls-16{fill:#d5e7f7;}.cls-17{fill:#032d6b;}.cls-18{fill:#fafbfc;}.cls-19{fill:#e6ecef;}.cls-20{stroke:#fff;stroke-width:2px;}</style></defs><title>kapuyt meqena</title><path class="cls-1" d="M231.68,249.48C228.89,241,259.46,222,285,212a176.3,176.3,0,0,1,50.52-11.5c.43,13.31.43,27.24-.12,41.74-.18,4.87-.43,9.67-.72,14.4-5.57-.42-13.9-1-24-1.52C252.06,252.08,233.71,255.68,231.68,249.48Z"/><path class="cls-1" d="M360.94,197q.71,14.81,1.08,30.24.38,16.17.36,31.68c98.09.62,108.94.62,130.66.62h-4.32l7,.49c-.07-.07-30.66-36.78-63.46-53C416.74,199.46,393.93,193,360.94,197Z"/><path class="cls-2" d="M365.6,210.6a223.17,223.17,0,0,0,4.32,53.28,23.39,23.39,0,0,1-17.28,0,23.06,23.06,0,0,1-10.8-9.36q13.2-27.47,5-37.44-16.61-20.33-121.68,31.68a170.33,170.33,0,0,1,30.24-25.2c36.82-24.06,73.18-27.22,94.32-28.8,32-2.4,59.49,2.22,74.16,7.92A251.75,251.75,0,0,1,448.4,214.2c6.72,3.64,10.09,5.47,14.4,8.64,10,7.34,10.38,11.08,20.88,20.88,11.61,10.83,20.37,14.92,19.44,17.28-1.16,2.92-15.12.71-15.12.72,12.25,11.21-25.46-23.36-32.4-28.08a126.74,126.74,0,0,0-31.67-15.84h0a163.52,163.52,0,0,0-32.39-7.19A125,125,0,0,0,365.6,210.6Z"/><path class="cls-3" d="M111.42,240.14l0,0C109.87,240,110,240,111.42,240.14Z"/><path class="cls-4" d="M102.8,259.56c3.46-2.56,10.54.83,14.4,3.6,13.87,9.94,15.34,32.88,11.52,34.56-2.92,1.28-6.51-10.93-19.44-14.4-5.55-1.5-9.92-.6-11.52-3.6-.89-1.68,0-2.91,2.16-11.52C101.63,261.51,101.57,260.46,102.8,259.56Z"/><path class="cls-5" d="M107.12,261.72c3.84-.4,10.08,6,8.64,13-1.64,7.9-12,10.38-15.12,7.92C96.33,279.17,101.29,262.32,107.12,261.72Z"/><path class="cls-3" d="M754.4,330.12a67.34,67.34,0,0,0-10.8-21.6,65.2,65.2,0,0,0-20.88-17.28C681.41,268.48,617.6,264.6,617.6,264.6c-8.05-.49-22.32-1.1-51.12-2.88-21.35-1.32-26.94-1.82-34.56-4.32-17.19-5.66-24.17-14.79-39.6-27.36-8.56-7-32.17-26.21-61.92-36-19.86-6.54-36.76-6.76-70.56-7.2A318.82,318.82,0,0,0,313.76,189c-17.72,2.17-33.55,3.38-51.12,10.8-29.57,12.47-37.41,28.5-70.56,37.44a163.45,163.45,0,0,1-31.68,5c-8.65.52-42.44-1.68-49-2.14-8.18,8.35-8.92,13-7.9,15.82,1.73,4.69,8.41,3.63,13.68,10.08,4.87,5.94,6.13,15.34,2.88,18-3.47,2.83-9.51-4.11-17.28-2.16s-11.55,11.31-13.68,16.56c-.67,1.65-9.56,24.58,2.88,43.92,8,12.44,20.49,16.93,27.36,19.44,11.42,4.16,24.13,3.13,36,5.76,0,0,.38-29.09,12.24-47.52,8.25-12.82,24.83-24.81,44.62-25.23,23.74-.51,44.54,15.79,51.14,32.43,3.91,9.84,5.76,27.16,6.48,33.84.17,1.54,1.44,13.67,1.44,13.68l291.6,1.44s-.37-31.42,12.24-53.28c2-3.48,13.31-23.09,35.44-28.95,25.61-6.78,54,7.94,66.08,27.51,13.76,22.32,10.8,58.32,10.8,58.32s14.53-.57,23.76-.72c29.6-.48,36.65,2.82,41.76-2.88,2.29-2.56,2.73-7,3.6-15.84C757.26,353.29,758.18,342.87,754.4,330.12Zm-419-135.36h0v59.76h0s-27.48-.35-51.84-.72c-9.45-.15-23.59-.38-41-.72a8.27,8.27,0,0,1-6.48-3.6,8.11,8.11,0,0,1-.82-6.54l8.74-9.3h0s31.69-20.64,68.4-29.52c18.41-4.46,33.24-4.79,44.64-5,8.43-.19,33.2-.74,56.16,5C454.76,214.59,482.89,244,496.64,261c-49.79-.61-79.63-.75-97.92-.75H359.84l-2.16-65.52H335.36Z"/><path class="cls-6" d="M267,299.88c-1.94,4.05,17.42,19.84,40.32,29.52,12.32,5.2,23.29,7.63,61.2,11.52,37.58,3.85,56.37,5.78,74.16,5.76,53-.07,47-9.24,77.76-5.76,6.4.72,17,2.28,26.64-3.6,10.36-6.3,19.05-20.72,15.12-28.08-6.08-11.38-37.39,3.35-108,6.48-24.8,1.09-48,.48-66.24,0-25.78-.69-38.66-1-53.28-2.88C291.69,307.38,269,295.72,267,299.88Z"/><path class="cls-7" d="M347.24,193.14l-.12,63.55-9.45,13.88h0l0,90.51"/><path class="cls-8" d="M111.67,246c-3.35,4.49-2.39,7.78-2.39,7.78a7.38,7.38,0,0,0,2.88,3.6c12.37,8.43,133.2,8.64,133.2,8.64,24.8,0,22.31,2,113.76,5.76l18,.72c94.35,3.49,111.82-.8,169.15,3.57,31.46,2.4,57.39,6.1,75.65,8.67C653.67,289.21,666,292,670.3,293c39.45,9.17,62.61,21.19,63.22,19.84.75-1.65-30.45-26-76.32-37.44-17.9-4.48-55.37-7.55-130.31-13.68h0c-14.23,1.87-33.69,4.11-56.88,5.76-58.1,4.12-59.17-1.19-119.16,1.08,0,0-63.58,2.4-119.16-9.36-3.24-.69-13-2.85-13.68-7.56-.53-3.43,4-6,19.8-17.64,14.45-10.67,14.88-11.65,20.88-15.12a126.33,126.33,0,0,1,21.6-9.72c51.83-18.19,94.32-15.48,94.32-15.48a206.8,206.8,0,0,1,64.08,14.4c43,17.47,66,44.62,66.24,44.28s-28.18-35.45-78.48-52.56c-20.77-7.07-37.54-8.46-52.92-9.72,0,0-53.35-4.41-101.16,11.88-10.2,3.47-17.54,6-26.28,11.88-8.3,5.6-12.09,10.38-25.2,19.44-6.43,4.44-11.66,7.53-13,8.28C177.14,259.17,119.76,235.17,111.67,246Z"/><path class="cls-9" d="M235.35,248.19c-2.77-8.67,26.53-26.82,49.61-36.15a163.49,163.49,0,0,1,50.52-11.5c.43,13.31.43,27.24-.12,41.74-.18,4.87-.43,9.67-.72,14.4-5.51-.39-13.86-1-24-1.52C251.9,251.84,237.19,253.93,235.35,248.19Z"/><path class="cls-9" d="M357,198.94q.71,14.81,1.08,30.24.38,15.63.36,30.62l137.76,1.68h0s-15.23-18.86-28.8-30.48c-14.65-12.56-29-18.06-39.12-22A162.62,162.62,0,0,0,357,198.94Z"/><path class="cls-10" d="M274,361.89c3-.25,6-.42,9-.63l9-.51c6-.34,11.93-.62,17.89-.91,11.89.51,23.78.85,35.67,1.21q35.67,1,71.35,1.42t71.38.22l17.84-.13,8.92-.1c1.49,0,3,0,4.46-.08a36.87,36.87,0,0,1,4.46,0l17.87,1.35c6,.47,11.92.94,17.89,1.53-5.94.82-11.88,1.53-17.82,2.23S530,368.72,524,369.35a37.05,37.05,0,0,1-4.47.08c-1.49,0-3,0-4.47,0l-8.94.1-17.87.13q-35.75.18-71.49-.22t-71.47-1.42l-35.73-1.14c-5.93-.76-11.87-1.51-17.79-2.32l-8.89-1.29C279.93,362.82,277,362.39,274,361.89Z"/><path class="cls-8" d="M153.92,368.28a77,77,0,0,1,.29-27.86c.52-2.3,1-4.62,1.76-6.87.37-1.12.64-2.29,1.1-3.38l1.28-3.34c.41-1.12,1-2.18,1.48-3.26s1-2.18,1.63-3.2l1.8-3.13c.64-1,1.34-2,2-3l1-1.48,1.14-1.42c.77-.93,1.5-1.9,2.31-2.8a58.46,58.46,0,0,1,5.21-5.11,60.45,60.45,0,0,1,5.77-4.52c1-.66,2.09-1.28,3.14-1.92a33.94,33.94,0,0,1,3.24-1.8,64.38,64.38,0,0,1,28.37-6.52,54.07,54.07,0,0,1,14.66,2.17,54.94,54.94,0,0,1,13.47,6.23,58.24,58.24,0,0,1,19.21,21.71,90.33,90.33,0,0,1,5.59,13.06c.74,2.18,1.5,4.44,2.12,6.72.32,1.14.62,2.29.87,3.44s.51,2.31.72,3.47a76.66,76.66,0,0,1-.13,27.85,93.67,93.67,0,0,0-3.69-27c-.33-1.07-.63-2.15-1-3.21s-.72-2.12-1.12-3.16c-.79-2.09-1.69-4.12-2.64-6.22a100.69,100.69,0,0,0-6.17-11.86c-4.64-7.48-10.55-14-17.82-18.43a48.81,48.81,0,0,0-11.6-5.05,47,47,0,0,0-12.55-1.76A55.07,55.07,0,0,0,202.64,298a61.93,61.93,0,0,0-12.28,4,28,28,0,0,0-2.83,1.45l-2.8,1.58a64.05,64.05,0,0,0-5.24,3.75,61.85,61.85,0,0,0-4.86,4.31c-.77.76-1.47,1.6-2.22,2.39l-1.11,1.21-1,1.28a68.72,68.72,0,0,0-7.21,11l-1.48,3c-.52,1-.87,2-1.32,3.07-.92,2-1.55,4.18-2.29,6.3A93.83,93.83,0,0,0,153.92,368.28Z"/><path class="cls-8" d="M562.88,376.2a95.88,95.88,0,0,1,.39-30.93c.22-1.29.47-2.57.77-3.84s.58-2.55.92-3.82c.64-2.53,1.44-5.05,2.2-7.48a111.12,111.12,0,0,1,5.58-14.7,55.2,55.2,0,0,1,9-13.55,48.9,48.9,0,0,1,6-5.63,57.58,57.58,0,0,1,6.94-4.5,53.29,53.29,0,0,1,15.51-5.45,69.15,69.15,0,0,1,16.22-1,106.07,106.07,0,0,1,15.76,2.3,59.55,59.55,0,0,1,15.42,5.33,46.29,46.29,0,0,1,7,4.41,36.23,36.23,0,0,1,3.21,2.58c1.07.87,2,1.88,3,2.84A55.18,55.18,0,0,1,680.2,316c.65,1.18,1.18,2.41,1.76,3.61s1.07,2.44,1.52,3.69c1,2.47,1.78,5,2.5,7.49.37,1.25.7,2.51,1,3.76s.65,2.49,1,3.78c.61,2.55,1.1,5.13,1.48,7.72a86,86,0,0,1-1.28,30.92,102.48,102.48,0,0,0-2.58-30.19c-.6-2.43-1.25-4.84-2-7.21-.39-1.18-.8-2.37-1.23-3.58s-.85-2.38-1.3-3.55A81.92,81.92,0,0,0,674.7,319a52.16,52.16,0,0,0-8.91-11.26c-.89-.79-1.73-1.63-2.69-2.34l-1.39-1.11c-.46-.37-1-.68-1.45-1a39.3,39.3,0,0,0-6.09-3.6,53.62,53.62,0,0,0-13.61-4.36l-3.69-.71c-1.22-.22-2.43-.42-3.64-.6q-3.65-.52-7.26-.74c-9.65-.55-19.36.89-27.78,5.17a49.53,49.53,0,0,0-6,3.66,45,45,0,0,0-5.35,4.61,51.83,51.83,0,0,0-8.49,11.58c-1.17,2.15-2.26,4.37-3.29,6.64s-2,4.61-3,7-1.91,4.68-2.73,7.05-1.56,4.76-2.25,7.17A117.54,117.54,0,0,0,562.88,376.2Z"/><path class="cls-6" d="M683.19,313.82c.06.11.13.21.19.33a6.82,6.82,0,0,1,.77,2.75c15,4.41,23.28,7.31,23.45,6.74C707.64,323.5,698.4,319.08,683.19,313.82Z"/><path class="cls-6" d="M170.84,296.27a4.35,4.35,0,0,1-6.05-.94,4.94,4.94,0,0,1-7.37,0c-6.88,2.12-14.5,3.08-21,4.77a4.45,4.45,0,0,1-2.8,1.76c-5.65,1.22-11.54,2-16.81,4.53a5,5,0,0,1-5.07-.34c-5.1,3.46-8.84,7.18-8.25,10.43,1.07,5.88,16,8.24,24.48,8.64,9.75.45,18-1.23,30.41-5.75a45.45,45.45,0,0,1,16.42-19.64c2.78-6.13,8.82-8.54,15.85-9.19v-.36C183.64,291.21,176.54,292.57,170.84,296.27Z"/><path class="cls-11" d="M81.2,330.84c3.68-1.94,6.63,2.46,15.8,3.93,6.37,1,7-.77,14.44.39,5.26.81,11.54,1.79,13,5.76,1.12,3.13-1.16,7.13-3.6,9.36-5.62,5.12-14.57,3.15-22.32,1.44S79.19,347.46,77.6,340.2C76.86,336.79,78.31,332.36,81.2,330.84Z"/><path class="cls-12" d="M352.64,283.21c3.06-.47,6.12-.83,9.18-1.2l4.59-.5,4.59-.4c1.53-.13,3.06-.37,4.59-.57a19.05,19.05,0,0,1,4.59,0,29.7,29.7,0,0,1,4.59.88,20.39,20.39,0,0,1,4.59,1.82v.6a20.39,20.39,0,0,1-4.59,1.82,30.93,30.93,0,0,1-4.59.88,19.05,19.05,0,0,1-4.59,0c-1.53-.2-3.06-.44-4.59-.57l-4.59-.41-4.59-.49c-3.06-.37-6.12-.73-9.18-1.2Z"/><circle class="cls-13" cx="215.48" cy="350.47" r="58.53"/><circle class="cls-14" cx="214.87" cy="348.86" r="35.03"/><path class="cls-15" d="M236.8,331.07c-1.25.78-1.53,2.34-3.41,7.42-3.45,9.33-4,8.07-6.95,16.37-3.27,9.19-2.22,9.62-4.62,14-.8,1.45-1.89,3.15-1.77,5,.17,2.82,3,3.84,3.5,4,3.89,1.28,8.08-2.45,9.32-3.56,5.34-4.76,7.8-11.78,9.59-16.87,2.24-6.38,4.16-11.87,3.06-17.42C244.29,333.8,239.68,329.25,236.8,331.07Z"/><circle class="cls-13" cx="625.87" cy="350.47" r="58.53"/><circle class="cls-14" cx="625.87" cy="348.86" r="35.03"/><path class="cls-15" d="M639.2,320c-1.5,1,7,11.5,3,18.45-1,1.74-3,3.72-2.5,6.18.36,1.67,1.5,1.64,2.39,3.45,2.12,4.3-1.5,10.4-2.16,11.52C639,361.18,637,364,637,364h0a15.36,15.36,0,0,0-6.42,4.86c-1.39,2-.58,2.7-1.77,5-2.32,4.45-7.14,5.31-6.93,6,.3,1,11.45,1.37,19.75-5.55,5.26-4.38,7.16-9.86,9.59-16.87,2.25-6.48,4-11.38,3.06-17.42C652.46,327.35,640.71,319,639.2,320Z"/><ellipse class="cls-16" cx="530.84" cy="281.49" rx="6.12" ry="3.26"/><path class="cls-17" d="M502.4,253.08c3.43,5,.58,13.84-5,18-5,3.69-12.74,4.15-14.4,1.44-1-1.67,1-3.27,5.76-13,3.39-6.92,4-9.48,6.48-10.07C497.86,248.84,500.91,250.88,502.4,253.08Z"/><path class="cls-18" d="M483.07,270.9a22.12,22.12,0,0,1,1.11-6.4,30.39,30.39,0,0,1,2.47-5.73,33.88,33.88,0,0,1,3.61-5.1,22.19,22.19,0,0,1,4.83-4.33l.26.16c-2,3.62-4.06,7.15-6.08,10.73-1,1.77-2,3.6-3,5.4s-2,3.61-3,5.4Z"/><path class="cls-11" d="M764.41,351.27c-1-1.48-3.68-2.21-18.65,1.17-14.2,3.2-19.41,5.57-22.56,7.2-5,2.55-10.54,5.43-10.08,7.68.81,4,20,3.42,22.08,3.36,7-.21,6.72-1,13.44-1,8.21,0,11.32,1.26,13.44-1,1.12-1.18.69-2,1.92-11C764.69,352.61,764.94,352.06,764.41,351.27Z"/><path class="cls-19" d="M713.09,366.19c11.82.15,23.7.3,35.42-.49,4.67-.32,9.42-.79,14-.34"/><path class="cls-19" d="M713.14,362.69c8.24.69,16.44,1.37,24.66,1.74,4.11.19,8.21.29,12.34.28a74.73,74.73,0,0,1,12.42.65,74.78,74.78,0,0,0-12.3,1.09c-4.1.6-8.23,1.08-12.37,1.48-8.28.8-16.58,1.28-24.84,1.76Z"/><path class="cls-20" d="M752.24,327.24c-1.44-2.44-3.86-3.88-19.44-7.92-12-3.12-18-4.68-19.44-2.88-3.07,3.88,5,18.12,17.28,25.2,9.64,5.57,23.06,6.8,25.2,2.88.35-.64.3-1.22-.36-4.32C753.84,332.43,753,328.55,752.24,327.24Z"/><path class="cls-5" d="M715.52,318.36c-1.85,2.68,3,9.19,6.24,12.48,6.08,6.18,13.73,7.23,17.22,7.71,3.92.53,7.17,1.57,10.14,0,.65-.35,2.44-1.32,2.76-3s-.78-3.25-3.6-5.76a41.63,41.63,0,0,0-11.16-7.2C729.63,319.6,717.86,315,715.52,318.36Z"/></svg>