<?xml version="1.0" encoding="UTF-8" standalone="no"?>
<svg
   id="Layer_1"
   data-name="Layer 1"
   viewBox="0 0 688.96996 335.36174"
   version="1.1"
   sodipodi:docname="car_4.svg"
   width="688.96997"
   height="335.36176"
   inkscape:version="1.2 (1:1.2+202206011326+fc4e4096c5)"
   xmlns:inkscape="http://www.inkscape.org/namespaces/inkscape"
   xmlns:sodipodi="http://sodipodi.sourceforge.net/DTD/sodipodi-0.dtd"
   xmlns="http://www.w3.org/2000/svg"
   xmlns:svg="http://www.w3.org/2000/svg"
   xmlns:rdf="http://www.w3.org/1999/02/22-rdf-syntax-ns#"
   xmlns:cc="http://creativecommons.org/ns#"
   xmlns:dc="http://purl.org/dc/elements/1.1/">
  <sodipodi:namedview
     id="namedview151"
     pagecolor="#ffffff"
     bordercolor="#000000"
     borderopacity="0.25"
     inkscape:showpageshadow="2"
     inkscape:pageopacity="0.0"
     inkscape:pagecheckerboard="0"
     inkscape:deskcolor="#d1d1d1"
     showgrid="false"
     inkscape:zoom="1.3892621"
     inkscape:cx="337.22938"
     inkscape:cy="102.21253"
     inkscape:window-width="1920"
     inkscape:window-height="1007"
     inkscape:window-x="0"
     inkscape:window-y="0"
     inkscape:window-maximized="1"
     inkscape:current-layer="Layer_1" />
  <defs
     id="defs4">
    <style
       id="style2">.cls-1{fill:#483f3a;}.cls-2{fill:#968f7f;}.cls-10,.cls-2,.cls-6{stroke:#fff;}.cls-10,.cls-11,.cls-15,.cls-17,.cls-19,.cls-2,.cls-20,.cls-22,.cls-23,.cls-5,.cls-6,.cls-9{stroke-miterlimit:10;}.cls-2,.cls-22,.cls-6{stroke-width:3px;}.cls-3{fill:#cac2af;}.cls-4{fill:#211d1a;}.cls-11,.cls-17,.cls-19,.cls-20,.cls-22,.cls-23,.cls-5,.cls-6,.cls-9{fill:none;}.cls-5{stroke:#4f4840;}.cls-5,.cls-9{stroke-width:5px;}.cls-7{fill:#5b524b;}.cls-8{fill:#edf1f4;}.cls-9{stroke:#b9c4af;}.cls-10{fill:#fff;}.cls-11,.cls-19,.cls-20{stroke:#4e4138;}.cls-11{stroke-width:2px;}.cls-12{fill:#d96d24;}.cls-13{fill:#45423b;}.cls-14{fill:#3b3932;}.cls-15{fill:#d5d7cc;opacity:0.74;}.cls-15,.cls-17{stroke:#dfd7ff;stroke-width:6px;}.cls-16{fill:#69574b;}.cls-18{fill:#675b4f;}.cls-19{stroke-width:16px;}.cls-21{fill:#4e4138;}.cls-22,.cls-23{stroke:#45423b;}.cls-23{stroke-width:4px;}</style>
  </defs>
  <title
     id="title6">spitak meqena</title>
  <path
     d="m 481.88001,236.00175 c 4.35,4.2 16.91,-12.47 48.56,-23.88 18.16,-6.54 53.24,-19.19 73.38,-2.64999 4.22,3.47 8.27,8.62 16,15.75 7.73,7.13 9,10.38999 12.41,10.39999 6.51,0 13.53,-10.06 13.6,-19.46999 0,-1.93 -0.22,-9.91001 -10.36,-19.57 -5.3,-5 -19.11,-14.89 -68,-18.19 -26.79,-1.81 -40.44,-2.57 -52.88,4.17 -25.93,14.08 -38.2,48.13 -32.71,53.43999 z"
     id="path8" />
  <path
     d="m 71.400013,250.18175 c 4.07,4.72001 15.8,-14 45.379997,-26.82 26.47,-11.47 54.33,-8.54 68.57,-3 14.24,5.54001 20.06,8.22001 20.06,8.22001 8.68,4 10.48,5.32 15.13,6.41 8.53,2 21,1.74 22.31,-2.94 2.19,-7.66 -26.07,-25 -27.92,-26.16 -9.65,-5.87 -31,-17.79 -63.53,-20.43 -25,-2 -37.79,-2.9 -49.41,4.68 -24.269997,15.83 -35.719997,54.08 -30.589997,60.03999 z"
     id="path10" />
  <circle
     class="cls-1"
     cx="568.73999"
     cy="251.25175"
     r="68.580002"
     id="circle12"
     style="fill:#483f3a" />
  <circle
     class="cls-2"
     cx="569.47998"
     cy="251.25175"
     r="42.119999"
     id="circle14"
     style="fill:#968f7f;stroke:#ffffff;stroke-width:3px;stroke-miterlimit:10" />
  <circle
     class="cls-3"
     cx="570.23999"
     cy="252.34178"
     r="9.6000004"
     id="circle16"
     style="fill:#cac2af" />
  <circle
     class="cls-4"
     cx="562.08997"
     cy="223.57176"
     r="3.1900001"
     id="circle18"
     style="fill:#211d1a" />
  <circle
     class="cls-4"
     cx="578.26001"
     cy="222.59178"
     r="3.1900001"
     id="circle20"
     style="fill:#211d1a" />
  <circle
     class="cls-4"
     cx="591.71997"
     cy="232.33177"
     r="3.1900001"
     id="circle22"
     style="fill:#211d1a" />
  <circle
     class="cls-4"
     cx="599.28003"
     cy="245.93178"
     r="3.1900001"
     id="circle24"
     style="fill:#211d1a" />
  <circle
     class="cls-4"
     cx="599.28003"
     cy="261.29175"
     r="3.1900001"
     id="circle26"
     style="fill:#211d1a" />
  <circle
     class="cls-4"
     cx="591.71997"
     cy="274.15176"
     r="3.1900001"
     id="circle28"
     style="fill:#211d1a" />
  <circle
     class="cls-4"
     cx="578.26001"
     cy="281.93176"
     r="3.1900001"
     id="circle30"
     style="fill:#211d1a" />
  <circle
     class="cls-4"
     cx="562.26001"
     cy="281.93176"
     r="3.1900001"
     id="circle32"
     style="fill:#211d1a" />
  <circle
     class="cls-4"
     cx="549.59998"
     cy="274.15176"
     r="3.1900001"
     id="circle34"
     style="fill:#211d1a" />
  <circle
     class="cls-4"
     cx="541.30005"
     cy="261.29175"
     r="3.1900001"
     id="circle36"
     style="fill:#211d1a" />
  <circle
     class="cls-4"
     cx="540.45996"
     cy="244.90178"
     r="3.1900001"
     id="circle38"
     style="fill:#211d1a" />
  <circle
     class="cls-4"
     cx="548.56006"
     cy="230.95177"
     r="3.1900001"
     id="circle40"
     style="fill:#211d1a" />
  <ellipse
     class="cls-5"
     cx="569.47998"
     cy="251.38176"
     rx="37.349998"
     ry="36.139999"
     id="ellipse42"
     style="fill:none;stroke:#4f4840;stroke-width:5px;stroke-miterlimit:10" />
  <circle
     class="cls-6"
     cx="569.47998"
     cy="252.34178"
     r="22.66"
     id="circle44"
     style="fill:none;stroke:#ffffff;stroke-width:3px;stroke-miterlimit:10" />
  <circle
     class="cls-7"
     cx="577.44995"
     cy="241.16176"
     r="2.3900001"
     id="circle46"
     style="fill:#5b524b" />
  <circle
     class="cls-7"
     cx="561.44995"
     cy="243.55177"
     r="2.3900001"
     id="circle48"
     style="fill:#5b524b" />
  <circle
     class="cls-7"
     cx="558.90002"
     cy="259.55176"
     r="2.3900001"
     id="circle50"
     style="fill:#5b524b" />
  <circle
     class="cls-7"
     cx="572.68005"
     cy="266.87177"
     r="2.3900001"
     id="circle52"
     style="fill:#5b524b" />
  <circle
     class="cls-7"
     cx="583.83997"
     cy="255.71178"
     r="2.3900001"
     id="circle54"
     style="fill:#5b524b" />
  <circle
     class="cls-1"
     cx="145.31"
     cy="266.78174"
     r="68.580002"
     id="circle56"
     style="fill:#483f3a" />
  <circle
     class="cls-2"
     cx="146.05002"
     cy="266.78174"
     r="42.119999"
     id="circle58"
     style="fill:#968f7f;stroke:#ffffff;stroke-width:3px;stroke-miterlimit:10" />
  <circle
     class="cls-3"
     cx="146.81"
     cy="267.87177"
     r="9.6000004"
     id="circle60"
     style="fill:#cac2af" />
  <circle
     class="cls-4"
     cx="138.66"
     cy="239.10176"
     r="3.1900001"
     id="circle62"
     style="fill:#211d1a" />
  <circle
     class="cls-4"
     cx="154.83002"
     cy="238.12178"
     r="3.1900001"
     id="circle64"
     style="fill:#211d1a" />
  <circle
     class="cls-4"
     cx="168.29001"
     cy="247.86177"
     r="3.1900001"
     id="circle66"
     style="fill:#211d1a" />
  <circle
     class="cls-4"
     cx="175.85001"
     cy="261.46176"
     r="3.1900001"
     id="circle68"
     style="fill:#211d1a" />
  <circle
     class="cls-4"
     cx="175.85001"
     cy="276.82175"
     r="3.1900001"
     id="circle70"
     style="fill:#211d1a" />
  <circle
     class="cls-4"
     cx="168.29001"
     cy="289.68176"
     r="3.1900001"
     id="circle72"
     style="fill:#211d1a" />
  <circle
     class="cls-4"
     cx="154.83002"
     cy="297.46176"
     r="3.1900001"
     id="circle74"
     style="fill:#211d1a" />
  <circle
     class="cls-4"
     cx="138.83002"
     cy="297.46176"
     r="3.1900001"
     id="circle76"
     style="fill:#211d1a" />
  <circle
     class="cls-4"
     cx="126.17001"
     cy="289.68176"
     r="3.1900001"
     id="circle78"
     style="fill:#211d1a" />
  <circle
     class="cls-4"
     cx="117.87"
     cy="276.82175"
     r="3.1900001"
     id="circle80"
     style="fill:#211d1a" />
  <circle
     class="cls-4"
     cx="117.03"
     cy="260.43176"
     r="3.1900001"
     id="circle82"
     style="fill:#211d1a" />
  <circle
     class="cls-4"
     cx="125.13"
     cy="246.48177"
     r="3.1900001"
     id="circle84"
     style="fill:#211d1a" />
  <ellipse
     class="cls-5"
     cx="146.05002"
     cy="266.91174"
     rx="37.349998"
     ry="36.139999"
     id="ellipse86"
     style="fill:none;stroke:#4f4840;stroke-width:5px;stroke-miterlimit:10" />
  <circle
     class="cls-6"
     cx="146.05002"
     cy="267.87177"
     r="22.66"
     id="circle88"
     style="fill:none;stroke:#ffffff;stroke-width:3px;stroke-miterlimit:10" />
  <circle
     class="cls-7"
     cx="154.02002"
     cy="256.69174"
     r="2.3900001"
     id="circle90"
     style="fill:#5b524b" />
  <circle
     class="cls-7"
     cx="138.02002"
     cy="259.08176"
     r="2.3900001"
     id="circle92"
     style="fill:#5b524b" />
  <circle
     class="cls-7"
     cx="135.47"
     cy="275.08176"
     r="2.3900001"
     id="circle94"
     style="fill:#5b524b" />
  <circle
     class="cls-7"
     cx="149.25"
     cy="282.40176"
     r="2.3900001"
     id="circle96"
     style="fill:#5b524b" />
  <circle
     class="cls-7"
     cx="160.41"
     cy="271.24176"
     r="2.3900001"
     id="circle98"
     style="fill:#5b524b" />
  <path
     class="cls-8"
     d="m 90.480013,42.371753 v 0 c 0,0 -26.57,31.589995 -48.36,68.159997 -14.4,24.11 -21.56,36.54 -23.76,55.08 -0.5,4.23 -0.61,7.58 4.32,45.36 6.09,46.71 8,55.3 16.2,61.56 9.63,7.38 24.68,9 30.24,3.24 4.46,-4.64 0.21,-11.34 1.08,-24.84 0.09,-1.43 1.51,-19.94 13,-34.56 14.41,-18.39999 37.459997,-21.38 47.519997,-22.68 18.87,-2.45 33.54,2 41,4.32 11.08,3.46 24.7,7.72001 35.64,19.44 18.9,20.24 21.61,54 21.6,54 l 265.68,-2.16 c 0,0 -2.12,-29.48 9.72,-51.84 8.05,-15.21 20.44,-23.17 24.84,-25.92 a 74.24,74.24 0 0 1 46.44,-10.8 72.91,72.91 0 0 1 34.56,13 c 14.27,10.25 32.75,31.81 30.24,51.84 -0.41,3.3 -1.64,8.51 1.08,10.8 0,0 2.31,1.93 19.44,-3.24 9.38,-69.05 -2.16,-88.56 -2.16,-88.56 a 59.4,59.4 0 0 0 -10.74,-13.37 c -19.1,-17.63 -42.82,-15.15 -81.06,-15.79 a 1043.53,1043.53 0 0 1 -111.76,-8.47 c 0,0 -9.25,-17.67 -12.22,-23.17 -17.86,-33.000002 -44.49,-61.229997 -44.5,-61.239997 -0.01,-0.01 -36.67,-4.17 -48.6,-5.4 -15,-1.56 -47.21,-3.35 -88.56,-3.24 -69.75,0.13 -137.44,5.49 -170.879997,8.48 z"
     id="path100"
     style="fill:#edf1f4" />
  <line
     class="cls-9"
     x1="48.240021"
     y1="171.13174"
     x2="613.43994"
     y2="166.81174"
     id="line102"
     style="fill:none;stroke:#b9c4af;stroke-width:5px;stroke-miterlimit:10" />
  <line
     class="cls-10"
     x1="48.950012"
     y1="166.60175"
     x2="606.83997"
     y2="162.33176"
     id="line104"
     style="fill:#ffffff;stroke:#ffffff;stroke-miterlimit:10" />
  <path
     class="cls-11"
     d="m 468.72001,128.53175 7.92,6.2 15.48,24.4 83.16,-0.36 h 78.12"
     id="path106"
     style="fill:none;stroke:#4e4138;stroke-width:2px;stroke-miterlimit:10" />
  <rect
     class="cls-12"
     x="44.400024"
     y="163.33176"
     width="23.52"
     height="11.27"
     rx="4.4400001"
     id="rect108"
     style="fill:#d96d24" />
  <rect
     class="cls-12"
     x="599.83997"
     y="156.50174"
     width="23.52"
     height="13.66"
     rx="4.4400001"
     id="rect110"
     style="fill:#d96d24" />
  <path
     class="cls-13"
     d="m 249.81001,53.081748 a 6.27,6.27 0 0 1 0.13,-3.06999 c -20.2,0.93 -40.4,2.27 -60.58,2 a 5.74,5.74 0 0 1 -3.6,1.19999 c -19.29,0.14 -38.42,4.32 -57.64,1.79 a 5.52,5.52 0 0 1 -4.28,1.81 5.58,5.58 0 0 1 -3.9,-1.43 c -0.87,0.58 -1.73,1.22 -2.58,1.91 -7.64,6.21 -12.83,15.66 -17.28,23.76 A 110.91,110.91 0 0 0 88.560013,112.73175 c -2.79,12.65 -4.34,20.16 -1.16,25.29 11.72,1.8 23.529997,-0.28 35.259997,0.43 7.1,-7.11 4.6,-17.34 9.1,-36.52 3.28,-14.000002 4.92,-21.000002 9.36,-25.920002 10.81,-12.06 28,-7.09999 76.32,-8.63999 16.95,-0.54 12,-1.06 33.92,-2.07 a 91.36,91.36 0 0 0 -1.55,-12.22001 z"
     id="path112"
     style="fill:#45423b" />
  <path
     class="cls-14"
     d="m 419.72001,112.01175 c -6.4,-12.810002 -14.43,-24.490002 -20.16,-37.630002 a 40.57,40.57 0 0 1 -3.18,-4.61 l -0.2,-0.32 a 5.73,5.73 0 0 1 -1.07,-1.63999 l -0.22,-0.24 a 12.46,12.46 0 0 0 -0.93,-0.86001 4.64,4.64 0 0 1 -0.81,-0.91 l -0.12,-0.11 c -0.23,-0.16 -0.47,-0.34 -0.56,-0.38 a 5.63,5.63 0 0 1 -2.38,-2.65 91.25,91.25 0 0 0 -16.05,-7.91 c -3.41,-0.69 -6.76,-1.68 -10.22,-2.12 a 95.76,95.76 0 0 0 -13.23,-0.27 c -8.2,0.1 -17.1,1.22 -25.09,-1 a 5.77,5.77 0 0 1 -3.09,-2 h -40.69 v 15.29 c 11.1,0.08 26.93,0.4 61.68,0.57 24,0.11 29.66,0 36.62,4.67 12.69,8.48 19.37,25.67 24.87,39.820002 5.29,13.6 5.65,20 10.72,25.07 a 71.61,71.61 0 0 0 14.33,-1.91 c -3.92,-6.69 -6.87,-14.07 -10.22,-20.86 z"
     id="path114"
     style="fill:#3b3932" />
  <path
     class="cls-15"
     d="m 111.60001,58.951748 c 0,0 -37.659997,54.650012 -25.199997,75.650002 4.47,7.53 13.07,6.84 88.559997,5.24 33.83,-0.71 75.6,-1.5 75.6,-1.5 l 0.12,-0.67 v 0 c 0,0 -0.26,-85.470002 -0.12,-85.460002 a 1.16,1.16 0 0 1 0,0.18 v -0.18 z"
     id="path116"
     style="opacity:0.74;fill:#d5d7cc;stroke:#dfd7ff;stroke-width:6px;stroke-miterlimit:10" />
  <path
     class="cls-15"
     d="m 274.32001,52.211748 2.88,84.240002 c 57.95,0.08 61.92,0 61.92,0 0,0 22.3,0 88.6,-5 a 247.27,247.27 0 0 0 -42.86,-72.500002 476.9,476.9 0 0 0 -110.52,-6.68999 z"
     id="path118"
     style="opacity:0.74;fill:#d5d7cc;stroke:#dfd7ff;stroke-width:6px;stroke-miterlimit:10" />
  <path
     class="cls-16"
     d="m 83.520013,56.531758 19.199997,-4.14 c 6.41,-1.35 12.87,-2.49 19.35,-3.5 12.95,-2.05 26,-3.31 39.09,-4.19 13.09,-0.88 26.17,-1.470005 39.26,-2.000005 l 19.64,-0.73 c 6.54,-0.24 13.1,-0.5 19.65,-0.61 26.23,-0.5 52.43,0.63 78.62,1.25 q 9.83,0.24 19.64,0.35 c 3.28,0 6.55,0.06 9.82,0 3.27,-0.06 6.55,-0.07 9.85,0.07 a 72,72 0 0 1 37.19,12.000005 h 0.06 v 0 q 8.29,9.9 16,20.27999 7.71,10.38 14.67,21.22001 c 4.68,7.209992 9.19,14.539992 13.58,21.930002 4.39,7.39 8.68,14.83 12.84,22.36999 l 0.05,0.09 v 0.1 l 0.83,14.12 0.42,7.06 c 0.14,2.35 0.18,4.71 0.24,7.07 0.19,9.43 -0.08,18.86 -0.17,28.27 l -0.36,56.51 v 0.48 h -0.48 l -186.09,5.92 h -0.43 l -0.08,-0.42 c -0.95,-4.86 -1.43,-9.79 -1.93,-14.67 l -1.48,-14.7 -0.37,-3.67 -0.18,-1.84 -0.23,-1.7 q -0.47,-3.69 -0.7,-7.38 c -0.33,-4.92 -0.5,-9.83999 -0.63,-14.77 -0.23,-9.83999 -0.27,-19.69 -0.22,-29.52999 0.05,-9.84 0.2,-19.69 0.42,-29.53 v -0.08 -0.07 l 3.28,-8.27 v 0.15 c -0.35,-7.52 -0.64,-15.11 -0.91,-22.66 -0.27,-7.55 -0.5,-15.120002 -0.69,-22.690002 -0.19,-7.57 -0.34,-15.12 -0.35,-22.69 l -0.11,-22.690005 0.31,22.690005 c 0.07,7.56 0.28,15.12 0.54,22.68 0.26,7.56 0.55,15.120002 0.88,22.680002 0.33,7.56 0.69,15.09 1.11,22.68 v 0.06 0.08 l -3.2,8.29 v -0.15 l -0.28,29.52 c -0.05,9.84 0,19.68 0.22,29.51 0.13,4.91 0.3,9.83 0.63,14.72 0.16,2.45 0.38,4.9 0.69,7.32 l 0.26,1.78 0.18,1.83 0.37,3.67 1.47,14.68 c 0.51,4.91 1,9.78 1.92,14.59 l -0.51,-0.4 186.12,-5.76 -0.48,0.49 0.36,-56.51 c 0.09,-9.42 0.36,-18.84 0.17,-28.24 -0.06,-2.35 -0.1,-4.7 -0.24,-7 l -0.42,-7 -0.83,-14.09 0.06,0.19 q -6.23,-11.27 -12.82,-22.33 c -4.39,-7.38 -8.89,-14.7 -13.56,-21.900002 -4.67,-7.2 -9.53,-14.27 -14.64,-21.17 -5.11,-6.9 -10.4,-13.77 -15.94,-20.35 l 0.1,0.09 a 70.93,70.93 0 0 0 -36.67,-11.84001 c -3.25,-0.13999 -6.53,0 -9.81,-0.07 -3.28,-0.07 -6.55,0 -9.83,0 q -9.83,-0.11001 -19.66,-0.350005 c -26.19,-0.62 -52.38,-1.75 -78.57,-1.25 -6.54,0.11 -13.08,0.37 -19.63,0.61 l -19.64,0.73 c -13.09,0.479995 -26.19,0.919995 -39.26,1.699995 -13.07,0.78 -26.13,1.92 -39.08,3.85 -6.48,0.95 -12.94,2 -19.36,3.33001 z"
     id="path120"
     style="fill:#69574b" />
  <path
     class="cls-11"
     d="m 261.72001,41.711753 c 1.09,23.849995 1.38,42.799995 1.44,55.859995 0.06,11.930002 0,36.710002 0,36.720012 v 0 l -2.88,10.8 v 0 c 0,0 1.37,38.33999 4,110.45999 l 1.8,4.38 v 0 l 184.32,-4.32 v 0 l 2.52,-4 v 0 -108.31999 0 c 0,0 -10.2,-16.11001 -18.4,-29.16 0,0 -14,-22.260002 -33.48,-49.000002 -4.59,-6.31 -9.05,-12.25 -17,-15.65 -6.52,-2.78 -17.53,-4.75 -17.53,-4.76 v 0 z"
     id="path122"
     style="fill:none;stroke:#4e4138;stroke-width:2px;stroke-miterlimit:10" />
  <path
     class="cls-17"
     d="m 275.82001,50.281758 q 1.45,43.38 2.89,86.769992 c 58.25,0.08 62.24,0 62.24,0 0,0 22.41,0 89,-5.19 a 255.93,255.93 0 0 0 -43.08,-74.689992 468,468 0 0 0 -111.08,-6.89 z"
     id="path124"
     style="fill:none;stroke:#dfd7ff;stroke-width:6px;stroke-miterlimit:10" />
  <path
     class="cls-17"
     d="m 112.62001,59.011758 c 0,0 -37.659997,55.179992 -25.199997,76.379992 4.47,7.6 13.069997,6.91 88.559997,5.29 33.83,-0.72 75.59,-1.51 75.6,-1.51 l 0.14,-0.72 v 0 c 0,0 -0.26,-86.290002 -0.12,-86.280002 v 0.18001 -0.18001 z"
     id="path126"
     style="fill:none;stroke:#dfd7ff;stroke-width:6px;stroke-miterlimit:10" />
  <path
     class="cls-18"
     d="m 665.28001,220.93175 c 0.73,-0.49 1.84,-0.74 11.76,3.84 10.41,4.8 11.5,6 11.76,7.44 0.7,3.89 -4.86,7.79 -5.76,8.4 -9.57,6.48 -24.56,1.83 -24.72,-1 0,-0.75 1,-0.84 2.45,-2.26 5.3,-5.2 1.03,-14.11 4.51,-16.42 z"
     id="path128"
     style="fill:#675b4f" />
  <line
     class="cls-19"
     x1="653.38"
     y1="239.25175"
     x2="688.96997"
     y2="239.25175"
     id="line130"
     style="fill:none;stroke:#4e4138;stroke-width:16px;stroke-miterlimit:10" />
  <line
     class="cls-20"
     x1="650.32996"
     y1="159.13174"
     x2="653.73999"
     y2="233.29176"
     id="line132"
     style="fill:none;stroke:#4e4138;stroke-miterlimit:10" />
  <path
     class="cls-21"
     d="m 663.40001,172.11175 c 0.45,0.54001 0.82,1.09 1.24,1.63 l 1.11,1.63 c 0.73,1.09 1.37,2.19 2,3.28 0,2.25 0.18,4.49 0.26,6.73 l 0.62,13.44 0.62,13.45 0.31,6.73 c -0.54,1.14 -1.08,2.29001 -1.7,3.44 l -0.94,1.73 c -0.35,0.58 -0.66,1.15 -1.05,1.73001 -0.44,-0.54001 -0.8,-1.08 -1.21,-1.63 l -1.09,-1.63 c -0.72,-1.09 -1.36,-2.18 -2,-3.28 l -0.31,-6.72 -0.62,-13.45 -0.62,-13.44 c -0.12,-2.25 -0.16,-4.49 -0.35,-6.73 0.51,-1.14 1.06,-2.29 1.69,-3.44 l 1,-1.73 c 0.36,-0.58 0.63,-1.16001 1.04,-1.74001 z"
     id="path134"
     style="fill:#4e4138" />
  <path
     class="cls-18"
     d="m 26.640013,242.77175 v 0 c 0,0 -10.7,-0.27 -19.6800001,4.56 -2.47,1.32 -6.00000002,3.26 -6.00000002,6 0,2.74 3.19000002,4.64 3.84000002,5 4.35,2.68 7.8800001,0.76 21.3600001,-0.24 4.74,-0.36 9.09,-0.55 9.12,-1.2 0,-0.46 -2.26,-0.21 -4.32,-1.68 0,0.04 -2.46,-1.76 -4.32,-12.44 z"
     id="path136"
     style="fill:#675b4f" />
  <line
     class="cls-19"
     x1="0"
     y1="259.93176"
     x2="56.160004"
     y2="259.93176"
     id="line138"
     style="fill:none;stroke:#4e4138;stroke-width:16px;stroke-miterlimit:10" />
  <path
     class="cls-22"
     d="m 114.49001,43.931748 c 0,0 -2.83,-10.759995 -4.81,-18.599995 -1.22,-4.82 -2.89,-11.62 -4.8,-19.9199996 q 71,0 141.89,-0.72 71.61,-0.72 143.23,-2.16 l -8.28,38.0599996 c -8.26,1 -90.16,-1.76 -120.33,-1.58 -51.02,0.29 -100.03,2.05 -146.9,4.919995 z"
     id="path140"
     style="fill:none;stroke:#45423b;stroke-width:3px;stroke-miterlimit:10" />
  <line
     class="cls-23"
     x1="135.03"
     y1="2.3317592"
     x2="136.01001"
     y2="40.561752"
     id="line142"
     style="fill:none;stroke:#45423b;stroke-width:4px;stroke-miterlimit:10" />
  <line
     class="cls-23"
     x1="268.54001"
     y1="0.051760409"
     x2="269.51999"
     y2="38.291748"
     id="line144"
     style="fill:none;stroke:#45423b;stroke-width:4px;stroke-miterlimit:10" />
  <line
     class="cls-23"
     x1="224.69003"
     y1="0.051760409"
     x2="225.68002"
     y2="38.291748"
     id="line146"
     style="fill:none;stroke:#45423b;stroke-width:4px;stroke-miterlimit:10" />
  <line
     class="cls-23"
     x1="359.64999"
     y1="0.051760409"
     x2="360.70004"
     y2="40.841751"
     id="line148"
     style="fill:none;stroke:#45423b;stroke-width:4px;stroke-miterlimit:10" />
  <metadata
     id="metadata725">
    <rdf:RDF>
      <cc:Work
         rdf:about="">
        <dc:title>spitak meqena</dc:title>
      </cc:Work>
    </rdf:RDF>
  </metadata>
</svg>
