<svg id="Layer_1" data-name="Layer 1" xmlns="http://www.w3.org/2000/svg" viewBox="0 0 841.89 595.28"><defs><style>.cls-1{fill:#0c5700;}.cls-2{fill:#1e1710;}.cls-3{fill:#137300;}.cls-4{fill:#19700b;}.cls-5{fill:#56874b;}.cls-6{fill:#327d22;}.cls-7{fill:#5e99a9;}.cls-14,.cls-15,.cls-7,.cls-9{stroke:#fff;}.cls-10,.cls-14,.cls-15,.cls-7,.cls-9{stroke-miterlimit:10;}.cls-8{fill:#312c32;opacity:0.5;}.cls-10,.cls-14,.cls-15,.cls-9{fill:none;}.cls-9{stroke-width:2px;}.cls-10{stroke:#072e00;stroke-width:3px;}.cls-11{fill:#38291c;}.cls-12{fill:#616870;}.cls-13{fill:#635a52;}.cls-15{stroke-width:5px;}.cls-16{fill:#a3907f;}.cls-17{fill:#ffe745;}.cls-18{fill:#b1b1b2;}.cls-19{fill:#d42931;}.cls-20{fill:#fe9039;}.cls-21{fill:#9b9998;}</style></defs><title>kanach meqena</title><path class="cls-1" d="M81.12,364.28c9.44-27.13,7.89-24.09,10.08-29.52,20.18-50,48.6-83.16,48.6-83.16a273.26,273.26,0,0,1,81-63.72c26-13.44,48.52-19.65,65-24.18a375.59,375.59,0,0,1,62.32-11.86,324.89,324.89,0,0,1,71.44.76c20.13,2.56,30.19,3.84,43.2,9.36,26,11,43.5,29.91,49.68,36.72,17.4,19.16,16.43,26.49,29.16,32.4,11.62,5.38,16.22.87,44.28.72,35.3-.2,57.71,6.79,63.36,8.64,9.6,3.14,19.44,6.44,30.24,14.4,7.73,5.69,10.41,9.67,25.92,29.52,27.63,35.36,31.23,38.2,32.4,46.8,2.18,16.06-.71,33.79-.71,33.79V365c-11.49-32.65-27.36-48.24-27.36-48.24-3.68-3.62-19.48-19.07-43.92-20.16-2-.09-25.79-.81-44.64,15.84-22,19.37-27.62,53.85-28.08,56.88-1.19,7.76-.22,17.05-6.48,21.6-3.39,2.46-9,2.6-20.16,2.88-10.5.26-12.72-.88-13.68-1.44-7-4.13-7.78-14-7.92-16.56L288.48,378a7.77,7.77,0,0,1,.36,9c-2.35,3.44-6.63,3.25-6.84,3.24a6.58,6.58,0,0,1-2.16,4.68c-2.35,1.88-6.37,1.62-9.36-1.08,0,0,2.46-36.68-14.4-59.76-14.59-20-39.58-24.22-45.36-25.2-7.43-1.27-24.11-4.1-40.32,4.32-9.28,4.81-15.54,13-28.08,29.52-15.5,20.36-14.58,24.16-23.76,31.68C103,387.07,81,392.09,76.08,385.88,74.25,383.53,75.5,380.42,81.12,364.28Z"/><path class="cls-2" d="M569.26,374c5.85,4.77,19.7-10.21,48.26-22,15.15-6.24,36.19-14.91,59.76-11.52,30,4.3,43.73,25.16,50.39,19.85s-1.21-30.05-15.79-46.45c-17.37-19.55-40.48-22.36-47.46-23.2-24.71-3-43.18,6.56-50,10.22-2.46,1.32-30.27,16.75-42.64,49.7C569.12,357.65,564.65,370.25,569.26,374Z"/><path class="cls-2" d="M115,367.16c6.05,4.54,19.16-13,46.8-23,7.93-2.88,35.14-12.75,61.2-3.6,30.17,10.58,39.72,40,47.12,36.49,6.46-3,4.62-28-7-46.57-13.51-21.48-35.72-28.17-42.43-30.19-23.74-7.16-43.65-1.38-51.05.88-6.77,2.06-37.81,11.34-51,39.39C114.76,348.6,110,363.43,115,367.16Z"/><path class="cls-3" d="M554.16,267.8c2.18,11.27-1,16.1,1.44,18,4.76,3.66,16.27-14.63,38.88-22.32,16.43-5.6,33.56-3.84,56.88-1.44,13.57,1.39,21.28,3.31,21.6,2.16.53-1.92-19.9-10.54-41.76-15.12-17.44-3.66-29.28-3.37-49.68-2.88-23.39.56-29.53,3.24-31,7.2C549.34,256.77,552.4,258.71,554.16,267.8Z"/><path class="cls-4" d="M80.4,378c8.71-22.13,13.07-33.19,19.44-42.48,11.59-16.91,17.9-26.12,30.24-36a106.17,106.17,0,0,1,36-19.44c9.6-2.94,38.18-11.68,66.24,2.16,17.39,8.57,25.86,21.51,38.16,40.32A144.41,144.41,0,0,1,289.92,378c1,7.82,1,14.35-3.16,17.71-4.68,3.78-13.59,2.73-17.72-1.87-2.91-3.25-2.88-7.62-2.88-9.36a184.67,184.67,0,0,0-5-36.72C256.05,326,229,315,224.4,313.16c-3.9-1.59-28.79-11.26-52.56,0-13.24,6.26-21.16,16.67-33.12,32.4s-11.19,20.14-20.88,28.08C103.69,385.22,83.6,391,79.68,385.88,78.13,383.84,79.41,380.48,80.4,378Z"/><path class="cls-4" d="M547,374.36c.32,4.44,1.11,13.85,7.2,17.28,1.29.72,2.74,1.14,16.56,1.44,6.31.13,9.47.2,10.08,0,9.14-3,6.61-21.79,12.24-40.32,6.41-21.13,22.58-39.2,41-48.24,6-2.95,21.2-10.14,39.6-6.48,17.81,3.53,33.49,16.23,41.76,31,9.42,16.77,9.56,36.76,18.72,38.16,4.26.64,8.37.08,6.48.14A174.08,174.08,0,0,0,742.8,342c.13-10.37.19-15.66-1.44-22.32-4-16.45-14.88-26.87-18.72-30.24-11-9.68-22.36-12.54-31.47-14.83a101.13,101.13,0,0,0-32.61-2.45,130.1,130.1,0,0,0-23,3.6c-15.09,3.73-38.25,9.46-58.32,28.08C551.85,327.3,545.79,358,547,374.36Z"/><path class="cls-5" d="M92.64,348.44q7.58-19.47,17-38.25c6.35-12.44,12.86-25,21.41-36.14a277.64,277.64,0,0,1,26.75-32.7l3.78-3.77,3.92-3.65c2.64-2.36,5.33-4.64,8.06-6.87s5.48-4.41,8.28-6.54l4.21-3.17,2.13-1.56,1.08-.78.54-.39.27-.19.18-.12a4.78,4.78,0,0,1,.61-.38l-.5.3a277.62,277.62,0,0,1,41.21-23.64c7.15-3.4,14.48-6.51,21.89-9.28s14.93-5.26,22.49-7.57a375.08,375.08,0,0,1,46.19-10.54c2-.31,3.9-.69,5.86-.94l5.87-.78c2-.25,3.91-.55,5.88-.76l5.89-.59,5.9-.59,5.91-.39c3.95-.26,7.89-.53,11.8-.69,15.67-.72,31.66-.89,47.5,1.14a190.58,190.58,0,0,1,46.32,11.73,157.5,157.5,0,0,1,21.71,10.47,80.75,80.75,0,0,1,9.69,7.36l2.28,2,2.2,2.07c1.48,1.35,2.85,2.83,4.26,4.26a121,121,0,0,1,25,40.08,127.53,127.53,0,0,0-29-35.91c-1.48-1.21-2.91-2.46-4.45-3.58l-2.27-1.73-2.34-1.63a103.35,103.35,0,0,0-9.62-5.91,124.76,124.76,0,0,0-20.42-10,183,183,0,0,0-44.37-11.23c-15.21-1.95-30.63-1.8-46.16-1.09-3.91.16-7.76.43-11.62.68l-5.79.38-5.77.58-5.77.58c-1.92.2-3.83.5-5.75.74l-5.75.77c-1.92.24-3.82.61-5.73.91a369.45,369.45,0,0,0-45.19,10.32A304.08,304.08,0,0,0,235,197.82a269.4,269.4,0,0,0-40.06,23l-.5.3a2.27,2.27,0,0,0,.34-.19l-.09.06-.26.18-.51.38-1,.74-2.07,1.52-4.12,3.09c-2.72,2.09-5.42,4.21-8.06,6.38s-5.26,4.38-7.8,6.65l-3.7,3.44-3.6,3.6a268.77,268.77,0,0,0-26,31.74c-2,2.78-3.92,5.65-5.77,8.54-1,1.42-1.9,2.87-2.89,4.28l-3,4.19c-2,2.8-3.94,5.66-5.92,8.49l-5.73,8.64C106.66,324.41,99.52,336.32,92.64,348.44Z"/><path class="cls-4" d="M88.64,371.5c.09-1.51.21-3,.39-4.54s.44-3,.7-4.54.64-3,1-4.49.83-3,1.3-4.45a89.71,89.71,0,0,1,7.63-17.07,106.31,106.31,0,0,1,24.72-28.74,118.1,118.1,0,0,1,71.94-26.52,98.13,98.13,0,0,1,20.48,1.72,74.19,74.19,0,0,1,20.39,7.64,76,76,0,0,1,16.69,12.74l1.8,1.82,1.69,1.86c1.14,1.24,2.22,2.49,3.22,3.8,2.06,2.58,3.91,5.23,5.7,7.86s3.34,5.35,4.81,7.94l2.18,3.91c.76,1.4,1.51,2.8,2.2,4.23a105.72,105.72,0,0,1,6.85,17.56,101.48,101.48,0,0,1,3.51,18.18c.3,3,.45,6.1.45,9.13,0,1.53-.07,3-.15,4.55,0,.76-.08,1.51-.14,2.26l-.24,2.26-1.78.29a126.21,126.21,0,0,0-10.46-32.57,121.09,121.09,0,0,0-8.36-14.92c-1.59-2.36-3.23-4.69-4.94-7s-3.42-4.6-5.19-6.84c-7.12-8.88-15.54-16.82-25.61-21.89a60.33,60.33,0,0,0-15.87-5.38,82.74,82.74,0,0,0-16.89-1.14,119.22,119.22,0,0,0-64.17,20.47,115.73,115.73,0,0,0-25.22,22.91,98.08,98.08,0,0,0-16.93,29.56Z"/><path class="cls-5" d="M89.11,366.07c2.31-12.17,7.48-23.86,14.34-34.47a115.61,115.61,0,0,1,25.86-27.86c1.27-1,2.53-2,3.84-2.88s2.6-1.88,3.95-2.75,2.69-1.74,4.09-2.55,2.76-1.63,4.19-2.38A126.3,126.3,0,0,1,163,285.24a118.18,118.18,0,0,1,38.22-6.64,79.88,79.88,0,0,1,19.89,2.49,67.24,67.24,0,0,1,18.61,8.09,81.35,81.35,0,0,1,15.33,12.67l1.69,1.79c.55.6,1.07,1.23,1.61,1.85s1.07,1.23,1.59,1.86,1,1.29,1.49,1.94c2,2.6,3.77,5.31,5.47,8.06,6.84,11.09,11,23.18,14.07,35.27a267.27,267.27,0,0,1,5.74,36.61l-.78.17c-2.63-11.94-5.28-23.88-9-35.51s-8.49-22.95-15.28-33.05-15.42-19-25.83-25.22a62.5,62.5,0,0,0-16.66-7,70.93,70.93,0,0,0-18-2,112.69,112.69,0,0,0-35.81,5.79,122.58,122.58,0,0,0-58.56,41.76,108.48,108.48,0,0,0-17,32.17Z"/><path class="cls-6" d="M549.35,387.55a91.17,91.17,0,0,1-.62-9.37c0-3.14.12-6.3.44-9.45a100.65,100.65,0,0,1,3.61-18.82,104.09,104.09,0,0,1,18-35c1-1.3,2-2.67,3.17-3.92l3.38-3.75c.57-.63,1.14-1.26,1.74-1.85l1.83-1.73c1.23-1.15,2.44-2.34,3.7-3.45,2.58-2.14,5.09-4.43,7.87-6.31,1.37-1,2.72-2,4.11-2.93l4.25-2.72c.71-.45,1.42-.92,2.14-1.34l2.22-1.21,4.46-2.4,4.58-2.15,2.3-1.07c.78-.33,1.57-.64,2.36-1,1.58-.62,3.17-1.2,4.76-1.8s3.24-1,4.86-1.55c3.23-1.09,6.59-1.82,9.92-2.62.83-.21,1.68-.35,2.53-.48l2.56-.41,2.55-.4c.85-.14,1.7-.26,2.57-.32a97.27,97.27,0,0,1,10.4-.66c1.75,0,3.49,0,5.24.05l5.26.39c.87.08,1.74.12,2.62.23l2.62.4c1.74.25,3.48.58,5.21.89l5.15,1.32,2.56.67c.85.25,1.68.57,2.52.86,1.68.58,3.35,1.17,5,1.81.87.31,1.54.63,2.33,1l2.36,1.07a85.44,85.44,0,0,1,9.27,5,94.23,94.23,0,0,1,8.58,6.14c1.34,1.14,2.71,2.23,4,3.48l1.89,1.83,1.81,1.9c1.21,1.26,2.32,2.62,3.45,3.93.55.68,1.08,1.38,1.6,2.07s1,1.39,1.52,2.11c1,1.44,2,2.85,2.8,4.35a46,46,0,0,1,2.5,4.5l1.13,2.29c.37.77.68,1.57,1,2.34l1,2.34c.3.79.57,1.59.84,2.39a69.57,69.57,0,0,1,3.68,19.39A62.28,62.28,0,0,1,743,362.55l-1.8,0a78.83,78.83,0,0,0-2.41-17.5,73.54,73.54,0,0,0-6.26-16.45,72.6,72.6,0,0,0-9.88-14.49,70.66,70.66,0,0,0-13.12-11.6A77,77,0,0,0,694,294.37a94.52,94.52,0,0,0-16.92-4.73,96,96,0,0,0-35,1.13c-2.86.69-5.75,1.24-8.55,2.16-1.41.43-2.83.81-4.23,1.28l-4.15,1.51c-.69.25-1.39.49-2.07.76l-2,.87L617,299.1l-4,2-2,1c-.65.34-1.28.72-1.92,1.08l-3.84,2.2c-1.26.77-2.48,1.59-3.72,2.39-2.52,1.54-4.82,3.38-7.22,5.1-1.17.9-2.29,1.86-3.43,2.79l-1.7,1.41c-.56.47-1.09,1-1.63,1.49l-3.23,3c-1.07,1-2,2.13-3,3.19A111.28,111.28,0,0,0,561.65,354a118.78,118.78,0,0,0-6.45,16.52,125,125,0,0,0-4.07,17.31Z"/><path class="cls-5" d="M549.84,387.66a113.36,113.36,0,0,1,23.92-75c1.06-1.33,2.09-2.72,3.17-4s2.21-2.58,3.36-3.83c2.29-2.53,4.76-4.88,7.27-7.21A126.83,126.83,0,0,1,603.83,285a104.6,104.6,0,0,1,18.49-9.38c3.2-1.35,6.55-2.33,9.86-3.39a104.45,104.45,0,0,1,10.2-2.31c13.37-2.35,28-2.49,41.63,1.46A91.14,91.14,0,0,1,694,275a86.8,86.8,0,0,1,9.39,4.73A80.66,80.66,0,0,1,720,292.36a79.74,79.74,0,0,1,12.77,16.38,81.47,81.47,0,0,1,8,18.9,76.8,76.8,0,0,1,.31,39.72l-.79-.12A81.33,81.33,0,0,0,736.74,329a78,78,0,0,0-21-32,81.52,81.52,0,0,0-33.63-18.34,84.76,84.76,0,0,0-9.47-1.87,83.61,83.61,0,0,0-9.62-.7,98.65,98.65,0,0,0-19.24,1.72c-3.19.45-6.31,1.31-9.44,2.05-3.08,1-6.19,1.82-9.17,3.05a103,103,0,0,0-17.35,8.53,119.3,119.3,0,0,0-29.19,25.26c-16.78,19.72-26.39,45.18-28,71Z"/><path class="cls-7" d="M225.84,250.52l125.13-3s2.21-13.9,3-25.84a237.22,237.22,0,0,0-.75-37.92s-21.88-.3-28.05-.24c-7.9.07-34.18.32-55.44,13C241.11,213.54,225.85,250.5,225.84,250.52Z"/><path class="cls-7" d="M375.6,182.12l-3,65,126.11-.2c-.32-7-2.11-24.5-15.12-39.6-9.67-11.23-21-15.9-28.08-18.72-11.84-4.73-21.74-5.38-41-6.48A339.87,339.87,0,0,0,375.6,182.12Z"/><path class="cls-8" d="M496.65,237.2c-2-7.45-1.55-7.29-2.73-10.68a60.45,60.45,0,0,0-11.52-19.44,61.5,61.5,0,0,0-10.56-9.6,65.17,65.17,0,0,0-18.12-9c-1.9-.63-3.5-1.07-4.59-1.35A43.72,43.72,0,0,0,435,184.28c-3.62-.52-6.62-.82-8.73-1-4.46-.38-9.9-.63-9.9-.63h0l-13.29-.47h0l-26.76.41h0l-.49,7.59h0c4.74.24,11.92.58,20.65,1.29,27.42,2.21,41.35,3.45,51.84,10.08,5.79,3.65,10.89,6.67,14.4,13,7.28,13,1.43,28.2,8.28,31.59.19.09,2.56.12,7.29.18,7.45.09,12.49,0,14.4-.09s3.72-.13,4.86-.18c0-.43.08-1.05.09-1.8A24.16,24.16,0,0,0,496.65,237.2Z"/><path class="cls-8" d="M352.09,184.42c-5.36-.14-13.15-.27-22.57-.14-16.38.21-24.73.36-33.06,2.28a93.27,93.27,0,0,0-44.94,25.08,120.52,120.52,0,0,0-19.44,28.08l-3.71,7.47h0s.11.71.35,2.13l10.8-.24,11.49-.25a54.8,54.8,0,0,1,.19-7.77s.19-2.13.56-4.22c.61-3.51,2.27-12.45,7.92-20.16,4.88-6.67,11.66-11.1,22.32-15.12,26.45-10,57.74-11.67,70.76-12.05Z"/><path class="cls-9" d="M460.18,190.53l1.1,56.44"/><path class="cls-10" d="M113.52,318.2c16.27-27.05,62.27-95,149-128.63,45-17.44,83.7-19,109.47-19.7,32.81-1,81.08-2.34,115.92,23,20.4,14.85,32.94,34.81,32.94,34.81a122.47,122.47,0,0,1,12.88,27.7c1.14,67.12,1.86,110.23,1.86,110.24s-42.84-.69-78.46-.49c-46.19.26-42,1.79-95.75,2.33-46,.46-69.65-1.51-66.43-3.23L283,330.54h0a86.88,86.88,0,0,0-70.85-61.3,95.88,95.88,0,0,0-50.64,5.18C131.43,286.5,117.38,310.89,113.52,318.2Z"/><path class="cls-10" d="M365.52,171.32l-3,196.18"/><circle class="cls-11" cx="196.92" cy="384.08" r="62.52"/><circle class="cls-12" cx="197.04" cy="383.61" r="41.76"/><circle class="cls-13" cx="197.04" cy="385.28" r="6.84"/><line class="cls-14" x1="165.3" y1="359.59" x2="228.2" y2="409.72"/><line class="cls-14" x1="192.06" y1="344.17" x2="201.45" y2="424.09"/><line class="cls-14" x1="219.31" y1="353.15" x2="174.64" y2="417.05"/><line class="cls-14" x1="234.96" y1="379.75" x2="156.96" y2="390.8"/><ellipse class="cls-15" cx="196.97" cy="384.15" rx="41.64" ry="41.22"/><circle class="cls-11" cx="662.73" cy="381.55" r="62.52"/><circle class="cls-12" cx="662.85" cy="381.08" r="41.76"/><circle class="cls-13" cx="662.85" cy="382.75" r="6.84"/><line class="cls-14" x1="631.11" y1="357.06" x2="694.01" y2="407.19"/><line class="cls-14" x1="657.87" y1="341.64" x2="667.26" y2="421.56"/><line class="cls-14" x1="685.11" y1="350.62" x2="640.45" y2="414.52"/><line class="cls-14" x1="700.77" y1="377.22" x2="622.77" y2="388.27"/><ellipse class="cls-15" cx="662.78" cy="381.62" rx="41.64" ry="41.22"/><path class="cls-16" d="M748.72,358.08c-2.22,3.3-6.54,4.74-8.81,5.5-5.53,1.87-7.7.1-9.82,2.14-3.84,3.67-3.06,15.52,1.93,18.72,3.34,2.14,7.79-.5,16.71-5.76,7.16-4.24,10.79-6.27,12.21-9.36,5.54-12.14-11.19-32.51-13.1-31.41C746.43,338.73,753.49,351,748.72,358.08Z"/><path class="cls-17" d="M737,293.3a21.71,21.71,0,0,1,4.93,3.17,24.85,24.85,0,0,1,7.76,11.72,25.16,25.16,0,0,1,.33,14.06,22.17,22.17,0,0,1-2.22,5.42l-.86.27-1.56-4.23-1.47-4.26c-1-2.84-1.86-5.71-2.8-8.56s-1.77-5.74-2.6-8.62l-1.23-4.34-1.14-4.36Z"/><path class="cls-18" d="M728.08,296.31c-1.44,1.25,3.21,7,6.06,15.57a89,89,0,0,1,3.12,13.85s4.91,2.89,6.85,1.85c3.21-1.72-.87-14.69-2.69-20.47-3.35-10.63-6-13.91-7.47-13.66-.91.16-1.22,1.73-3.26,2.45C729.21,296.43,728.56,295.89,728.08,296.31Z"/><path class="cls-19" d="M121.8,297c2.17,3.25-6,7.7-11.52,22-2,5.13-3.11,10.08-7.2,11.52-.34.11-3.17,1.06-5.4-.36-4.31-2.76-2.51-11.87-.72-20.88,1.93-9.73,4.21-11.73,5.76-12.6s3.31-.94,6.84-1.08C116.88,295.22,120.55,295.07,121.8,297Z"/><path class="cls-20" d="M98.76,318.56a38.7,38.7,0,0,1,4.73-12.24,7.61,7.61,0,0,1,3.24-3.24c2.24-1.05,3.7,0,6.48-.36,3.61-.48,7.11-3.05,6.84-4.32-.33-1.53-6.08-1.31-11.93-1.08-4.32.16-5.89.6-6.79,1.8-1.11,1.45-.63,3.23-.41,5.4A31.15,31.15,0,0,1,98.76,318.56Z"/><path class="cls-18" d="M105.56,331.61c1.86,0,3.64-7.84,8.72-16.69a124.62,124.62,0,0,1,9.11-13.29s-.66-5.68-2.65-6.17c-3.3-.8-11.14,12.44-14.63,18.34-6.43,10.86-7.42,15.33-6.35,16.11.67.49,2.1-.56,3.91.25C105,330.75,104.93,331.62,105.56,331.61Z"/><path class="cls-21" d="M400.86,270.56c-2.16-.44-4.27-1-6.37-1.5l-3.13-.85c-1-.29-2-.64-3.1-.88s-2.12-.43-3.19-.62a9.28,9.28,0,0,1-3-1.13,15.89,15.89,0,0,1-2.67-2,12.6,12.6,0,0,1-2.37-2.87l.2-.56a12.15,12.15,0,0,1,3.65-.54,16.59,16.59,0,0,1,3.34.35,9.72,9.72,0,0,1,3,1.21c.94.58,1.86,1.2,2.82,1.71,1.92,1,3.76,2.23,5.61,3.41s3.65,2.41,5.42,3.71Z"/><path class="cls-21" d="M328.28,270c1.92-1.1,3.85-2.08,5.78-3.08l2.91-1.43c1-.46,2-.87,2.91-1.38s1.87-1.08,2.8-1.64a9.28,9.28,0,0,1,3-1.13A16.26,16.26,0,0,1,349,261a13.32,13.32,0,0,1,3.67.59l.22.56a11.7,11.7,0,0,1-2.38,2.81,16.17,16.17,0,0,1-2.74,1.95,9.63,9.63,0,0,1-3.07,1.09c-1.09.19-2.19.33-3.25.59-2.12.49-4.3.8-6.46,1.13s-4.33.61-6.52.8Z"/></svg>