<?xml version="1.0" encoding="UTF-8" standalone="no"?>
<svg
   id="Layer_1"
   data-name="Layer 1"
   viewBox="0 0 687.28649 222.51421"
   version="1.1"
   sodipodi:docname="car_2.svg"
   width="687.2865"
   height="222.51422"
   inkscape:version="1.2 (1:1.2+202206011326+fc4e4096c5)"
   xmlns:inkscape="http://www.inkscape.org/namespaces/inkscape"
   xmlns:sodipodi="http://sodipodi.sourceforge.net/DTD/sodipodi-0.dtd"
   xmlns="http://www.w3.org/2000/svg"
   xmlns:svg="http://www.w3.org/2000/svg"
   xmlns:rdf="http://www.w3.org/1999/02/22-rdf-syntax-ns#"
   xmlns:cc="http://creativecommons.org/ns#"
   xmlns:dc="http://purl.org/dc/elements/1.1/">
  <sodipodi:namedview
     id="namedview75"
     pagecolor="#ffffff"
     bordercolor="#000000"
     borderopacity="0.25"
     inkscape:showpageshadow="2"
     inkscape:pageopacity="0.0"
     inkscape:pagecheckerboard="0"
     inkscape:deskcolor="#d1d1d1"
     showgrid="false"
     inkscape:zoom="1.3892621"
     inkscape:cx="324.99266"
     inkscape:cy="113.00963"
     inkscape:window-width="1920"
     inkscape:window-height="1007"
     inkscape:window-x="0"
     inkscape:window-y="0"
     inkscape:window-maximized="1"
     inkscape:current-layer="Layer_1" />
  <defs
     id="defs4">
    <style
       id="style2">.cls-1{fill:#bfe2e4;}.cls-2{fill:#10183f;}.cls-3{fill:#063992;}.cls-20,.cls-4{fill:#d03a00;}.cls-5{fill:#e77500;}.cls-6{fill:#064d9c;}.cls-7,.cls-9{fill:none;}.cls-7{stroke:#3e87e3;}.cls-13,.cls-20,.cls-7,.cls-9{stroke-miterlimit:10;}.cls-8{fill:#3e87e3;}.cls-9{stroke:#06c4ce;stroke-width:3px;}.cls-10{fill:#7c91c0;}.cls-11{fill:#868b8e;}.cls-12{fill:#000050;}.cls-13{fill:#282625;stroke:#000050;stroke-width:0.5px;}.cls-14{fill:#777776;}.cls-15{fill:#e0e0df;}.cls-16{fill:#d5e7f7;}.cls-17{fill:#032d6b;}.cls-18{fill:#fafbfc;}.cls-19{fill:#e6ecef;}.cls-20{stroke:#fff;stroke-width:2px;}</style>
  </defs>
  <title
     id="title6">kapuyt meqena</title>
  <path
     class="cls-1"
     d="m 154.27132,62.744207 c -2.79,-8.48 27.78,-27.48 53.32,-37.48 a 176.3,176.3 0 0 1 50.52,-11.5 c 0.43,13.31 0.43,27.24 -0.12,41.74 -0.18,4.87 -0.43,9.67 -0.72,14.4 -5.57,-0.42 -13.9,-1 -24,-1.52 -58.62,-3.04 -76.97,0.56 -79,-5.64 z"
     id="path8"
     style="fill:#bfe2e4" />
  <path
     class="cls-1"
     d="m 283.53132,10.264207 q 0.71,14.81 1.08,30.24 0.38,16.17 0.36,31.68 c 98.09,0.62 108.94,0.62 130.66,0.62 h -4.32 l 7,0.49 c -0.07,-0.07 -30.66,-36.78 -63.46,-53 -15.52,-7.57 -38.33,-14.0299997 -71.32,-10.03 z"
     id="path10"
     style="fill:#bfe2e4" />
  <path
     class="cls-2"
     d="m 288.19132,23.864207 a 223.17,223.17 0 0 0 4.32,53.28 23.39,23.39 0 0 1 -17.28,0 23.06,23.06 0 0 1 -10.8,-9.36 q 13.2,-27.47 5,-37.44 -16.61,-20.33 -121.68,31.68 a 170.33,170.33 0 0 1 30.24,-25.2 c 36.82,-24.06 73.18,-27.2199997 94.32,-28.7999997 32,-2.4 59.49,2.2199997 74.16,7.9199997 a 251.75,251.75 0 0 1 24.52,11.52 c 6.72,3.64 10.09,5.47 14.4,8.64 10,7.34 10.38,11.08 20.88,20.88 11.61,10.83 20.37,14.92 19.44,17.28 -1.16,2.92 -15.12,0.71 -15.12,0.72 12.25,11.21 -25.46,-23.36 -32.4,-28.08 a 126.74,126.74 0 0 0 -31.67,-15.84 v 0 a 163.52,163.52 0 0 0 -32.39,-7.19 125,125 0 0 0 -25.94,-0.01 z"
     id="path12"
     style="fill:#10183f" />
  <path
     class="cls-3"
     d="m 34.011318,53.404207 v 0 c -1.55,-0.14 -1.42,-0.14 0,0 z"
     id="path14"
     style="fill:#063992" />
  <path
     class="cls-4"
     d="m 25.391318,72.824207 c 3.46,-2.56 10.54,0.83 14.4,3.6 13.87,9.94 15.34,32.880003 11.52,34.560003 -2.92,1.28 -6.51,-10.93 -19.44,-14.400003 -5.55,-1.5 -9.92,-0.6 -11.52,-3.6 -0.89,-1.68 0,-2.91 2.16,-11.52 1.71,-6.69 1.65,-7.74 2.88,-8.64 z"
     id="path16"
     style="fill:#d03a00" />
  <path
     class="cls-5"
     d="m 29.711318,74.984207 c 3.84,-0.4 10.08,6 8.64,13 -1.64,7.9 -12,10.38 -15.12,7.92 -4.31,-3.47 0.65,-20.32 6.48,-20.92 z"
     id="path18"
     style="fill:#e77500" />
  <path
     class="cls-3"
     d="m 676.99132,143.38421 a 67.34,67.34 0 0 0 -10.8,-21.6 65.2,65.2 0 0 0 -20.88,-17.28 c -41.31,-22.760003 -105.12,-26.640003 -105.12,-26.640003 -8.05,-0.49 -22.32,-1.1 -51.12,-2.88 -21.35,-1.32 -26.94,-1.82 -34.56,-4.32 -17.19,-5.66 -24.17,-14.79 -39.6,-27.36 -8.56,-7 -32.17,-26.21 -61.92,-35.9999997 -19.86,-6.53999997 -36.76,-6.75999997 -70.56,-7.19999997 a 318.82,318.82 0 0 0 -46.08,2.15999997 c -17.72,2.17 -33.55,3.38 -51.12,10.7999997 -29.57,12.47 -37.41,28.5 -70.56,37.44 a 163.45,163.45 0 0 1 -31.680002,5 c -8.65,0.52 -42.44,-1.68 -49,-2.14 -8.18,8.35 -8.92,13 -7.9,15.82 1.73,4.69 8.41,3.63 13.68,10.08 4.87,5.94 6.13,15.34 2.88,18 -3.47,2.830003 -9.51,-4.11 -17.28,-2.16 -7.77,1.95 -11.55,11.310003 -13.68,16.560003 -0.67,1.65 -9.5600002,24.58 2.88,43.92 8,12.44 20.49,16.93 27.36,19.44 11.42,4.16 24.13,3.13 36,5.76 0,0 0.38,-29.09 12.24,-47.52 8.25,-12.82 24.830002,-24.81 44.620002,-25.23 23.74,-0.51 44.54,15.79 51.14,32.43 3.91,9.84 5.76,27.16 6.48,33.84 0.17,1.54 1.44,13.67 1.44,13.68 l 291.6,1.44 c 0,0 -0.37,-31.42 12.24,-53.28 2,-3.48 13.31,-23.09 35.44,-28.95 25.61,-6.78 54,7.94 66.08,27.51 13.76,22.32 10.8,58.32 10.8,58.32 0,0 14.53,-0.57 23.76,-0.72 29.6,-0.48 36.65,2.82 41.76,-2.88 2.29,-2.56 2.73,-7 3.6,-15.84 0.72,-7.03 1.64,-17.45 -2.14,-30.2 z m -419,-135.3600027 v 0 59.7599997 0 c 0,0 -27.48,-0.35 -51.84,-0.72 -9.45,-0.15 -23.59,-0.38 -41,-0.72 a 8.27,8.27 0 0 1 -6.48,-3.6 8.11,8.11 0 0 1 -0.82,-6.54 l 8.74,-9.3 v 0 c 0,0 31.69,-20.64 68.4,-29.52 18.41,-4.46 33.24,-4.79 44.64,-5 8.43,-0.19 33.2,-0.74 56.16,5 41.56,10.47 69.69,39.88 83.44,56.88 -49.79,-0.61 -79.63,-0.75 -97.92,-0.75 h -38.88 l -2.16,-65.5199997 h -22.32 z"
     id="path20"
     style="fill:#063992" />
  <path
     class="cls-6"
     d="m 189.59132,113.14421 c -1.94,4.05 17.42,19.84 40.32,29.52 12.32,5.2 23.29,7.63 61.2,11.52 37.58,3.85 56.37,5.78 74.16,5.76 53,-0.07 47,-9.24 77.76,-5.76 6.4,0.72 17,2.28 26.64,-3.6 10.36,-6.3 19.05,-20.72 15.12,-28.08 -6.08,-11.38 -37.39,3.35 -108,6.48 -24.8,1.09 -48,0.48 -66.24,0 -25.78,-0.69 -38.66,-1 -53.28,-2.88 -42.99,-5.46 -65.68,-17.12 -67.68,-12.96 z"
     id="path22"
     style="fill:#064d9c" />
  <path
     class="cls-7"
     d="m 269.83132,6.4042073 -0.12,63.5499997 -9.45,13.88 v 0 90.510003"
     id="path24"
     style="fill:none;stroke:#3e87e3;stroke-miterlimit:10" />
  <path
     class="cls-8"
     d="m 34.261318,59.264207 c -3.35,4.49 -2.39,7.78 -2.39,7.78 a 7.38,7.38 0 0 0 2.88,3.6 c 12.37,8.43 133.200002,8.64 133.200002,8.64 24.8,0 22.31,2 113.76,5.76 l 18,0.72 c 94.35,3.49 111.82,-0.8 169.15,3.57 31.46,2.4 57.39,6.1 75.65,8.67 31.75,4.470003 44.08,7.260003 48.38,8.260003 39.45,9.17 62.61,21.19 63.22,19.84 0.75,-1.65 -30.45,-26 -76.32,-37.440003 -17.9,-4.48 -55.37,-7.55 -130.31,-13.68 v 0 c -14.23,1.87 -33.69,4.11 -56.88,5.76 -58.1,4.12 -59.17,-1.19 -119.16,1.08 0,0 -63.58,2.4 -119.16,-9.36 -3.24,-0.69 -13,-2.85 -13.68,-7.56 -0.53,-3.43 4,-6 19.8,-17.64 14.45,-10.67 14.88,-11.65 20.88,-15.12 a 126.33,126.33 0 0 1 21.6,-9.72 c 51.83,-18.1899997 94.32,-15.4799997 94.32,-15.4799997 a 206.8,206.8 0 0 1 64.08,14.3999997 c 43,17.47 66,44.62 66.24,44.28 0.24,-0.34 -28.18,-35.45 -78.48,-52.56 -20.77,-7.0699997 -37.54,-8.4599997 -52.92,-9.7199997 0,0 -53.35,-4.41 -101.16,11.8799997 -10.2,3.47 -17.54,6 -26.28,11.88 -8.3,5.6 -12.09,10.38 -25.2,19.44 -6.43,4.44 -11.66,7.53 -13,8.28 -30.750002,17.61 -88.130002,-6.39 -96.220002,4.44 z"
     id="path26"
     style="fill:#3e87e3" />
  <path
     class="cls-9"
     d="m 157.94132,61.454207 c -2.77,-8.67 26.53,-26.82 49.61,-36.15 a 163.49,163.49 0 0 1 50.52,-11.5 c 0.43,13.31 0.43,27.24 -0.12,41.74 -0.18,4.87 -0.43,9.67 -0.72,14.4 -5.51,-0.39 -13.86,-1 -24,-1.52 -58.74,-3.32 -73.45,-1.23 -75.29,-6.97 z"
     id="path28"
     style="fill:none;stroke:#06c4ce;stroke-width:3px;stroke-miterlimit:10" />
  <path
     class="cls-9"
     d="m 279.59132,12.204207 q 0.71,14.81 1.08,30.24 0.38,15.63 0.36,30.62 l 137.76,1.68 v 0 c 0,0 -15.23,-18.86 -28.8,-30.48 -14.65,-12.56 -29,-18.06 -39.12,-22 a 162.62,162.62 0 0 0 -71.28,-10.06 z"
     id="path30"
     style="fill:none;stroke:#06c4ce;stroke-width:3px;stroke-miterlimit:10" />
  <path
     class="cls-10"
     d="m 196.59132,175.15421 c 3,-0.25 6,-0.42 9,-0.63 l 9,-0.51 c 6,-0.34 11.93,-0.62 17.89,-0.91 11.89,0.51 23.78,0.85 35.67,1.21 q 35.67,1 71.35,1.42 35.68,0.42 71.38,0.22 l 17.84,-0.13 8.92,-0.1 c 1.49,0 3,0 4.46,-0.08 a 36.87,36.87 0 0 1 4.46,0 l 17.87,1.35 c 6,0.47 11.92,0.94 17.89,1.53 -5.94,0.82 -11.88,1.53 -17.82,2.23 -5.94,0.7 -11.91,1.23 -17.91,1.86 a 37.05,37.05 0 0 1 -4.47,0.08 c -1.49,0 -3,0 -4.47,0 l -8.94,0.1 -17.87,0.13 q -35.75,0.18 -71.49,-0.22 -35.74,-0.4 -71.47,-1.42 l -35.73,-1.14 c -5.93,-0.76 -11.87,-1.51 -17.79,-2.32 l -8.89,-1.29 c -2.95,-0.45 -5.88,-0.88 -8.88,-1.38 z"
     id="path32"
     style="fill:#7c91c0" />
  <path
     class="cls-8"
     d="m 76.511318,181.54421 a 77,77 0 0 1 0.29,-27.86 c 0.52,-2.3 1,-4.62 1.76,-6.87 0.37,-1.12 0.64,-2.29 1.1,-3.38 l 1.28,-3.34 c 0.41,-1.12 1,-2.18 1.48,-3.26 0.48,-1.08 1,-2.18 1.63,-3.2 l 1.8,-3.13 c 0.64,-1 1.34,-2 2,-3 l 1,-1.48 1.14,-1.42 c 0.77,-0.93 1.5,-1.9 2.31,-2.8 a 58.46,58.46 0 0 1 5.21,-5.11 60.45,60.45 0 0 1 5.770002,-4.52 c 1,-0.66 2.09,-1.28 3.14,-1.92 a 33.94,33.94 0 0 1 3.24,-1.8 64.38,64.38 0 0 1 28.37,-6.52 54.07,54.07 0 0 1 14.66,2.17 54.94,54.94 0 0 1 13.47,6.23 58.24,58.24 0 0 1 19.21,21.71 90.33,90.33 0 0 1 5.59,13.06 c 0.74,2.18 1.5,4.44 2.12,6.72 0.32,1.14 0.62,2.29 0.87,3.44 0.25,1.15 0.51,2.31 0.72,3.47 a 76.66,76.66 0 0 1 -0.13,27.85 93.67,93.67 0 0 0 -3.69,-27 c -0.33,-1.07 -0.63,-2.15 -1,-3.21 -0.37,-1.06 -0.72,-2.12 -1.12,-3.16 -0.79,-2.09 -1.69,-4.12 -2.64,-6.22 a 100.69,100.69 0 0 0 -6.17,-11.86 c -4.64,-7.48 -10.55,-14 -17.82,-18.43 a 48.81,48.81 0 0 0 -11.6,-5.05 47,47 0 0 0 -12.55,-1.76 55.07,55.07 0 0 0 -12.72,1.37 61.93,61.93 0 0 0 -12.28,4 28,28 0 0 0 -2.83,1.45 l -2.8,1.58 a 64.05,64.05 0 0 0 -5.24,3.75 61.85,61.85 0 0 0 -4.860002,4.31 c -0.77,0.76 -1.47,1.6 -2.22,2.39 l -1.11,1.21 -1,1.28 a 68.72,68.72 0 0 0 -7.21,11 l -1.48,3 c -0.52,1 -0.87,2 -1.32,3.07 -0.92,2 -1.55,4.18 -2.29,6.3 a 93.83,93.83 0 0 0 -4.08,26.94 z"
     id="path34"
     style="fill:#3e87e3" />
  <path
     class="cls-8"
     d="m 485.47132,189.46421 a 95.88,95.88 0 0 1 0.39,-30.93 c 0.22,-1.29 0.47,-2.57 0.77,-3.84 0.3,-1.27 0.58,-2.55 0.92,-3.82 0.64,-2.53 1.44,-5.05 2.2,-7.48 a 111.12,111.12 0 0 1 5.58,-14.7 55.2,55.2 0 0 1 9,-13.55 48.9,48.9 0 0 1 6,-5.63 57.58,57.58 0 0 1 6.94,-4.5 53.29,53.29 0 0 1 15.51,-5.450003 69.15,69.15 0 0 1 16.22,-1 106.07,106.07 0 0 1 15.76,2.300003 59.55,59.55 0 0 1 15.42,5.33 46.29,46.29 0 0 1 7,4.41 36.23,36.23 0 0 1 3.21,2.58 c 1.07,0.87 2,1.88 3,2.84 a 55.18,55.18 0 0 1 9.4,13.24 c 0.65,1.18 1.18,2.41 1.76,3.61 0.58,1.2 1.07,2.44 1.52,3.69 1,2.47 1.78,5 2.5,7.49 0.37,1.25 0.7,2.51 1,3.76 0.3,1.25 0.65,2.49 1,3.78 0.61,2.55 1.1,5.13 1.48,7.72 a 86,86 0 0 1 -1.28,30.92 102.48,102.48 0 0 0 -2.58,-30.19 c -0.6,-2.43 -1.25,-4.84 -2,-7.21 -0.39,-1.18 -0.8,-2.37 -1.23,-3.58 -0.43,-1.21 -0.85,-2.38 -1.3,-3.55 a 81.92,81.92 0 0 0 -6.37,-13.44 52.16,52.16 0 0 0 -8.91,-11.26 c -0.89,-0.79 -1.73,-1.63 -2.69,-2.34 l -1.39,-1.11 c -0.46,-0.37 -1,-0.68 -1.45,-1 a 39.3,39.3 0 0 0 -6.09,-3.6 53.62,53.62 0 0 0 -13.61,-4.36 l -3.69,-0.71 c -1.22,-0.22 -2.43,-0.42 -3.64,-0.6 q -3.65,-0.52 -7.26,-0.74 c -9.65,-0.55 -19.36,0.89 -27.78,5.17 a 49.53,49.53 0 0 0 -6,3.66 45,45 0 0 0 -5.35,4.61 51.83,51.83 0 0 0 -8.49,11.58 c -1.17,2.15 -2.26,4.37 -3.29,6.64 -1.03,2.27 -2,4.61 -3,7 -1,2.39 -1.91,4.68 -2.73,7.05 -0.82,2.37 -1.56,4.76 -2.25,7.17 a 117.54,117.54 0 0 0 -4.2,30.04 z"
     id="path36"
     style="fill:#3e87e3" />
  <path
     class="cls-6"
     d="m 605.78132,127.08421 c 0.06,0.11 0.13,0.21 0.19,0.33 a 6.82,6.82 0 0 1 0.77,2.75 c 15,4.41 23.28,7.31 23.45,6.74 0.04,-0.14 -9.2,-4.56 -24.41,-9.82 z"
     id="path38"
     style="fill:#064d9c" />
  <path
     class="cls-6"
     d="m 93.431318,109.53421 a 4.35,4.35 0 0 1 -6.05,-0.94 4.94,4.94 0 0 1 -7.37,0 c -6.88,2.12 -14.5,3.08 -21,4.77 a 4.45,4.45 0 0 1 -2.8,1.76 c -5.65,1.22 -11.54,2 -16.81,4.53 a 5,5 0 0 1 -5.07,-0.34 c -5.1,3.46 -8.84,7.18 -8.25,10.43 1.07,5.88 16,8.24 24.48,8.64 9.75,0.45 18,-1.23 30.41,-5.75 a 45.45,45.45 0 0 1 16.42,-19.64 c 2.780002,-6.13 8.820002,-8.54 15.850002,-9.19 v -0.36 c -7.01,1.03 -14.110002,2.39 -19.810002,6.09 z"
     id="path40"
     style="fill:#064d9c" />
  <path
     class="cls-11"
     d="m 3.7913178,144.10421 c 3.68,-1.94 6.6300002,2.46 15.8000002,3.93 6.37,1 7,-0.77 14.44,0.39 5.26,0.81 11.54,1.79 13,5.76 1.12,3.13 -1.16,7.13 -3.6,9.36 -5.62,5.12 -14.57,3.15 -22.32,1.44 -7.75,-1.71 -19.3300002,-4.26 -20.92000018,-11.52 -0.74,-3.41 0.71,-7.84 3.59999998,-9.36 z"
     id="path42"
     style="fill:#868b8e" />
  <path
     class="cls-12"
     d="m 275.23132,96.474207 c 3.06,-0.47 6.12,-0.83 9.18,-1.2 l 4.59,-0.5 4.59,-0.4 c 1.53,-0.13 3.06,-0.37 4.59,-0.57 a 19.05,19.05 0 0 1 4.59,0 29.7,29.7 0 0 1 4.59,0.88 20.39,20.39 0 0 1 4.59,1.82 v 0.6 a 20.39,20.39 0 0 1 -4.59,1.82 30.93,30.93 0 0 1 -4.59,0.88 19.05,19.05 0 0 1 -4.59,0 c -1.53,-0.2 -3.06,-0.44 -4.59,-0.57 l -4.59,-0.41 -4.59,-0.49 c -3.06,-0.37 -6.12,-0.73 -9.18,-1.2 z"
     id="path44"
     style="fill:#000050" />
  <circle
     class="cls-13"
     cx="138.07132"
     cy="163.73422"
     r="58.529999"
     id="circle46"
     style="fill:#282625;stroke:#000050;stroke-width:0.5px;stroke-miterlimit:10" />
  <circle
     class="cls-14"
     cx="137.46132"
     cy="162.12418"
     r="35.029999"
     id="circle48"
     style="fill:#777776" />
  <path
     class="cls-15"
     d="m 159.39132,144.33421 c -1.25,0.78 -1.53,2.34 -3.41,7.42 -3.45,9.33 -4,8.07 -6.95,16.37 -3.27,9.19 -2.22,9.62 -4.62,14 -0.8,1.45 -1.89,3.15 -1.77,5 0.17,2.82 3,3.84 3.5,4 3.89,1.28 8.08,-2.45 9.32,-3.56 5.34,-4.76 7.8,-11.78 9.59,-16.87 2.24,-6.38 4.16,-11.87 3.06,-17.42 -1.23,-6.21 -5.84,-10.76 -8.72,-8.94 z"
     id="path50"
     style="fill:#e0e0df" />
  <circle
     class="cls-13"
     cx="548.4613"
     cy="163.73422"
     r="58.529999"
     id="circle52"
     style="fill:#282625;stroke:#000050;stroke-width:0.5px;stroke-miterlimit:10" />
  <circle
     class="cls-14"
     cx="548.4613"
     cy="162.12418"
     r="35.029999"
     id="circle54"
     style="fill:#777776" />
  <path
     class="cls-15"
     d="m 561.79132,133.26421 c -1.5,1 7,11.5 3,18.45 -1,1.74 -3,3.72 -2.5,6.18 0.36,1.67 1.5,1.64 2.39,3.45 2.12,4.3 -1.5,10.4 -2.16,11.52 -0.93,1.58 -2.93,4.4 -2.93,4.4 v 0 a 15.36,15.36 0 0 0 -6.42,4.86 c -1.39,2 -0.58,2.7 -1.77,5 -2.32,4.45 -7.14,5.31 -6.93,6 0.3,1 11.45,1.37 19.75,-5.55 5.26,-4.38 7.16,-9.86 9.59,-16.87 2.25,-6.48 4,-11.38 3.06,-17.42 -1.82,-12.67 -13.57,-21.02 -15.08,-20.02 z"
     id="path56"
     style="fill:#e0e0df" />
  <ellipse
     class="cls-16"
     cx="453.43134"
     cy="94.754189"
     rx="6.1199999"
     ry="3.26"
     id="ellipse58"
     style="fill:#d5e7f7" />
  <path
     class="cls-17"
     d="m 424.99132,66.344207 c 3.43,5 0.58,13.84 -5,18 -5,3.69 -12.74,4.15 -14.4,1.44 -1,-1.67 1,-3.27 5.76,-13 3.39,-6.92 4,-9.48 6.48,-10.07 2.62,-0.61 5.67,1.43 7.16,3.63 z"
     id="path60"
     style="fill:#032d6b" />
  <path
     class="cls-18"
     d="m 405.66132,84.164207 a 22.12,22.12 0 0 1 1.11,-6.4 30.39,30.39 0 0 1 2.47,-5.73 33.88,33.88 0 0 1 3.61,-5.1 22.19,22.19 0 0 1 4.83,-4.33 l 0.26,0.16 c -2,3.62 -4.06,7.15 -6.08,10.73 -1,1.77 -2,3.6 -3,5.4 -1,1.8 -2,3.61 -3,5.4 z"
     id="path62"
     style="fill:#fafbfc" />
  <path
     class="cls-11"
     d="m 687.00132,164.53421 c -1,-1.48 -3.68,-2.21 -18.65,1.17 -14.2,3.2 -19.41,5.57 -22.56,7.2 -5,2.55 -10.54,5.43 -10.08,7.68 0.81,4 20,3.42 22.08,3.36 7,-0.21 6.72,-1 13.44,-1 8.21,0 11.32,1.26 13.44,-1 1.12,-1.18 0.69,-2 1.92,-11 0.69,-5.07 0.94,-5.62 0.41,-6.41 z"
     id="path64"
     style="fill:#868b8e" />
  <path
     class="cls-19"
     d="m 635.68132,179.45421 c 11.82,0.15 23.7,0.3 35.42,-0.49 4.67,-0.32 9.42,-0.79 14,-0.34"
     id="path66"
     style="fill:#e6ecef" />
  <path
     class="cls-19"
     d="m 635.73132,175.95421 c 8.24,0.69 16.44,1.37 24.66,1.74 4.11,0.19 8.21,0.29 12.34,0.28 a 74.73,74.73 0 0 1 12.42,0.65 74.78,74.78 0 0 0 -12.3,1.09 c -4.1,0.6 -8.23,1.08 -12.37,1.48 -8.28,0.8 -16.58,1.28 -24.84,1.76 z"
     id="path68"
     style="fill:#e6ecef" />
  <path
     class="cls-20"
     d="m 674.83132,140.50421 c -1.44,-2.44 -3.86,-3.88 -19.44,-7.92 -12,-3.12 -18,-4.68 -19.44,-2.88 -3.07,3.88 5,18.12 17.28,25.2 9.64,5.57 23.06,6.8 25.2,2.88 0.35,-0.64 0.3,-1.22 -0.36,-4.32 -1.64,-7.77 -2.48,-11.65 -3.24,-12.96 z"
     id="path70"
     style="fill:#d03a00;stroke:#ffffff;stroke-width:2px;stroke-miterlimit:10" />
  <path
     class="cls-5"
     d="m 638.11132,131.62421 c -1.85,2.68 3,9.19 6.24,12.48 6.08,6.18 13.73,7.23 17.22,7.71 3.92,0.53 7.17,1.57 10.14,0 0.65,-0.35 2.44,-1.32 2.76,-3 0.32,-1.68 -0.78,-3.25 -3.6,-5.76 a 41.63,41.63 0 0 0 -11.16,-7.2 c -7.49,-2.99 -19.26,-7.59 -21.6,-4.23 z"
     id="path72"
     style="fill:#e77500" />
  <metadata
     id="metadata383">
    <rdf:RDF>
      <cc:Work
         rdf:about="">
        <dc:title>kapuyt meqena</dc:title>
      </cc:Work>
    </rdf:RDF>
  </metadata>
</svg>
