<?xml version="1.0" encoding="UTF-8" standalone="no"?>
<svg
   id="Layer_1"
   data-name="Layer 1"
   viewBox="0 0 686.7636 296.36806"
   version="1.1"
   sodipodi:docname="car_1.svg"
   width="686.76361"
   height="296.36807"
   inkscape:version="1.2 (1:1.2+202206011326+fc4e4096c5)"
   xmlns:inkscape="http://www.inkscape.org/namespaces/inkscape"
   xmlns:sodipodi="http://sodipodi.sourceforge.net/DTD/sodipodi-0.dtd"
   xmlns="http://www.w3.org/2000/svg"
   xmlns:svg="http://www.w3.org/2000/svg"
   xmlns:rdf="http://www.w3.org/1999/02/22-rdf-syntax-ns#"
   xmlns:cc="http://creativecommons.org/ns#"
   xmlns:dc="http://purl.org/dc/elements/1.1/">
  <sodipodi:namedview
     id="namedview93"
     pagecolor="#ffffff"
     bordercolor="#000000"
     borderopacity="0.25"
     inkscape:showpageshadow="2"
     inkscape:pageopacity="0.0"
     inkscape:pagecheckerboard="0"
     inkscape:deskcolor="#d1d1d1"
     showgrid="false"
     inkscape:zoom="1.3892621"
     inkscape:cx="281.08446"
     inkscape:cy="149.71977"
     inkscape:window-width="1920"
     inkscape:window-height="1007"
     inkscape:window-x="0"
     inkscape:window-y="0"
     inkscape:window-maximized="1"
     inkscape:current-layer="Layer_1" />
  <defs
     id="defs4">
    <style
       id="style2">.cls-1{fill:#0c5700;}.cls-2{fill:#1e1710;}.cls-3{fill:#137300;}.cls-4{fill:#19700b;}.cls-5{fill:#56874b;}.cls-6{fill:#327d22;}.cls-7{fill:#5e99a9;}.cls-14,.cls-15,.cls-7,.cls-9{stroke:#fff;}.cls-10,.cls-14,.cls-15,.cls-7,.cls-9{stroke-miterlimit:10;}.cls-8{fill:#312c32;opacity:0.5;}.cls-10,.cls-14,.cls-15,.cls-9{fill:none;}.cls-9{stroke-width:2px;}.cls-10{stroke:#072e00;stroke-width:3px;}.cls-11{fill:#38291c;}.cls-12{fill:#616870;}.cls-13{fill:#635a52;}.cls-15{stroke-width:5px;}.cls-16{fill:#a3907f;}.cls-17{fill:#ffe745;}.cls-18{fill:#b1b1b2;}.cls-19{fill:#d42931;}.cls-20{fill:#fe9039;}.cls-21{fill:#9b9998;}</style>
  </defs>
  <title
     id="title6">kanach meqena</title>
  <path
     class="cls-1"
     d="m 5.8244695,214.04808 c 9.4400005,-27.13 7.8900005,-24.09 10.0800005,-29.52 20.18,-50 48.6,-83.16 48.6,-83.16 a 273.26,273.26 0 0 1 81,-63.719999 c 26,-13.44 48.52,-19.65 65,-24.18 a 375.59,375.59 0 0 1 62.32,-11.8599999 324.89,324.89 0 0 1 71.44,0.76 c 20.13,2.56 30.19001,3.84 43.20001,9.3599999 26,11 43.5,29.91 49.67999,36.72 17.4,19.16 16.43,26.49 29.16,32.4 11.62,5.38 16.22,0.87 44.28,0.72 35.3,-0.2 57.71,6.79 63.36,8.64 9.6,3.14 19.44,6.44 30.24,14.399999 7.73,5.69 10.41,9.67 25.92,29.52 27.63,35.36 31.23,38.2 32.4,46.8 2.18,16.06 -0.71,33.79 -0.71,33.79 v 0.05 c -11.49,-32.65 -27.36,-48.24 -27.36,-48.24 -3.68,-3.62 -19.48,-19.07 -43.92,-20.16 -2,-0.09 -25.79,-0.81 -44.64,15.84 -22,19.37 -27.62,53.85 -28.08,56.88 -1.19,7.76 -0.22,17.05 -6.48,21.6 -3.39,2.46 -9,2.6 -20.16,2.88 -10.5,0.26 -12.72,-0.88 -13.68,-1.44 -7,-4.13 -7.78,-14 -7.92,-16.56 l -256.37,2.2 a 7.77,7.77 0 0 1 0.36001,9 c -2.35001,3.44 -6.63,3.25 -6.84,3.24 a 6.58,6.58 0 0 1 -2.16,4.68 c -2.35001,1.88 -6.37001,1.62 -9.36001,-1.08 0,0 2.46,-36.68 -14.39999,-59.76 -14.59,-20 -39.58,-24.22 -45.36001,-25.2 -7.43,-1.27 -24.11,-4.1 -40.31999,4.32 -9.28,4.81 -15.54,13 -28.08,29.52 -15.5,20.36 -14.58,24.16 -23.76,31.68 -15.56001,12.67 -37.5600105,17.69 -42.48001048,11.48 -1.83000002,-2.35 -0.58,-5.46 5.03999998,-21.6 z"
     id="path8"
     style="fill:#0c5700" />
  <path
     class="cls-2"
     d="m 493.96448,223.76808 c 5.85,4.77 19.7,-10.21 48.26,-22 15.14999,-6.24 36.19,-14.91 59.76,-11.52 30,4.3 43.73,25.16 50.38999,19.85 6.66,-5.31 -1.21,-30.05 -15.78999,-46.45 -17.37,-19.55 -40.48,-22.36 -47.46001,-23.2 -24.71,-3 -43.17999,6.56 -50,10.22 -2.46,1.32 -30.26999,16.75 -42.63999,49.7 -2.66,7.05 -7.13,19.65 -2.52,23.4 z"
     id="path10"
     style="fill:#1e1710" />
  <path
     class="cls-2"
     d="m 39.70447,216.92808 c 6.05,4.54 19.16,-13 46.8,-23 7.93,-2.88 35.14,-12.75 61.2,-3.6 30.17,10.58 39.72,40 47.12,36.49 6.46,-3 4.62,-28 -7,-46.57 -13.51,-21.48 -35.71999,-28.17 -42.43,-30.19 -23.74,-7.16 -43.65,-1.38 -51.05,0.88 -6.77,2.06 -37.81,11.34 -51,39.39 -3.88,8.04 -8.64,22.87 -3.64,26.6 z"
     id="path12"
     style="fill:#1e1710" />
  <path
     class="cls-3"
     d="m 478.86447,117.56808 c 2.18,11.27 -1,16.1 1.44001,18 4.76,3.66 16.27,-14.63 38.88,-22.32 16.42999,-5.6 33.55999,-3.84 56.88,-1.44 13.57,1.39 21.28,3.31 21.6,2.16 0.53,-1.92 -19.9,-10.54 -41.76,-15.119999 -17.44,-3.66 -29.28,-3.37 -49.68,-2.88 -23.39,0.56 -29.53,3.24 -31,7.199999 -1.18,3.37 1.88,5.31 3.63999,14.4 z"
     id="path14"
     style="fill:#137300" />
  <path
     class="cls-4"
     d="m 5.1044795,227.76808 c 8.7099905,-22.13 13.0699905,-33.19 19.4400005,-42.48 11.58999,-16.91 17.89999,-26.12 30.24,-36 a 106.17,106.17 0 0 1 36,-19.44 c 9.59999,-2.94 38.18,-11.68 66.23999,2.16 17.39,8.57 25.86,21.51 38.16,40.32 a 144.41,144.41 0 0 1 19.44,55.44 c 1,7.82 1,14.35 -3.16,17.71 -4.68,3.78 -13.59,2.73 -17.72,-1.87 -2.91,-3.25 -2.88,-7.62 -2.88,-9.36 a 184.67,184.67 0 0 0 -5,-36.72 c -5.11,-21.76 -32.16,-32.76 -36.75999,-34.6 -3.90001,-1.59 -28.79001,-11.26 -52.56,0 -13.24001,6.26 -21.16001,16.67 -33.12001,32.4 -11.96,15.73 -11.18999,20.14 -20.87999,28.08 -14.15001,11.58 -34.2400105,17.36 -38.1600105,12.24 -1.55,-2.04 -0.27,-5.4 0.72001,-7.88 z"
     id="path16"
     style="fill:#19700b" />
  <path
     class="cls-4"
     d="m 471.70448,224.12808 c 0.32,4.44 1.11,13.85 7.2,17.28 1.29,0.72 2.74,1.14 16.56,1.44 6.30999,0.13 9.47,0.2 10.08,0 9.14,-3 6.61,-21.79 12.24,-40.32 6.41,-21.13 22.58,-39.2 41,-48.24 6,-2.95 21.2,-10.14 39.6,-6.48 17.81,3.53 33.49,16.23 41.76,31 9.42,16.77 9.56,36.76 18.72,38.16 4.26,0.64 8.37,0.08 6.48,0.14 a 174.08,174.08 0 0 0 2.15999,-25.34 c 0.13,-10.37 0.19001,-15.66 -1.44,-22.32 -4,-16.45 -14.88,-26.87 -18.72,-30.24 -11,-9.68 -22.36,-12.54 -31.47,-14.83 a 101.13,101.13 0 0 0 -32.61,-2.45 130.1,130.1 0 0 0 -23,3.6 c -15.09,3.73 -38.25,9.46 -58.32,28.08 -25.38999,23.46 -31.45,54.16 -30.23999,70.52 z"
     id="path18"
     style="fill:#19700b" />
  <path
     class="cls-5"
     d="m 17.34447,198.20808 q 7.58,-19.47 17,-38.25 c 6.35,-12.44 12.86,-25 21.41,-36.14 a 277.64,277.64 0 0 1 26.75,-32.699999 l 3.78001,-3.77 3.91999,-3.65 c 2.64,-2.36 5.33001,-4.64 8.06,-6.87 2.73,-2.23 5.48,-4.41 8.28001,-6.54 l 4.20999,-3.17 2.13,-1.56 1.08001,-0.78 0.53999,-0.39 0.27001,-0.19 0.18,-0.12 a 4.78,4.78 0 0 1 0.61,-0.38 l -0.5,0.3 a 277.62,277.62 0 0 1 41.21,-23.64 c 7.15,-3.4 14.48,-6.51 21.89,-9.28 7.41,-2.77 14.93,-5.26 22.49,-7.57 a 375.08,375.08 0 0 1 46.19,-10.54 c 2,-0.31 3.89999,-0.69 5.86,-0.94 l 5.87,-0.78 c 2,-0.25 3.91,-0.55 5.88,-0.76 l 5.89,-0.5899999 5.89999,-0.59 5.91001,-0.39 c 3.95,-0.26 7.89,-0.53 11.8,-0.69 15.67,-0.72 31.66,-0.89 47.5,1.14 a 190.58,190.58 0 0 1 46.32,11.7299999 157.5,157.5 0 0 1 21.71,10.47 80.75,80.75 0 0 1 9.69,7.36 l 2.28,2 2.19999,2.07 c 1.48,1.35 2.85,2.83 4.26,4.26 a 121,121 0 0 1 25.00001,40.08 127.53,127.53 0 0 0 -29,-35.91 c -1.48,-1.21 -2.91001,-2.46 -4.45,-3.58 l -2.27,-1.73 -2.34,-1.63 a 103.35,103.35 0 0 0 -9.62,-5.91 124.76,124.76 0 0 0 -20.42,-10 183,183 0 0 0 -44.37,-11.23 c -15.21,-1.95 -30.63,-1.8 -46.16,-1.09 -3.91001,0.16 -7.76,0.43 -11.62,0.68 l -5.79001,0.38 -5.76999,0.58 -5.77,0.58 c -1.92,0.2 -3.83,0.5 -5.75,0.74 l -5.75,0.77 c -1.92,0.24 -3.82,0.61 -5.73,0.91 a 369.45,369.45 0 0 0 -45.19,10.32 304.08,304.08 0 0 0 -43.21,16.37 269.4,269.4 0 0 0 -40.06,23 l -0.5,0.3 a 2.27,2.27 0 0 0 0.34,-0.19 l -0.09,0.06 -0.26,0.18 -0.51,0.38 -1,0.74 -2.07,1.52 -4.12,3.09 c -2.72,2.09 -5.42,4.21 -8.06,6.38 -2.64,2.17 -5.26,4.38 -7.8,6.65 l -3.7,3.44 -3.6,3.6 a 268.77,268.77 0 0 0 -26,31.739999 c -2,2.78 -3.92,5.65 -5.77,8.54 -1,1.42 -1.9,2.87 -2.89,4.28 l -3,4.19 c -2,2.8 -3.94,5.66 -5.92,8.49 l -5.73,8.64 c -7.6,11.56 -14.74,23.47 -21.62001,35.59 z"
     id="path20"
     style="fill:#56874b" />
  <path
     class="cls-4"
     d="m 13.34447,221.26808 c 0.09,-1.51 0.21,-3 0.39001,-4.54 0.18,-1.54 0.43999,-3 0.69999,-4.54 0.26,-1.54 0.64,-3 1,-4.49 0.36001,-1.49 0.83,-3 1.30001,-4.45 a 89.71,89.71 0 0 1 7.62999,-17.07 106.31,106.31 0 0 1 24.72,-28.74 118.1,118.1 0 0 1 71.94,-26.52 98.13,98.13 0 0 1 20.48,1.72 74.19,74.19 0 0 1 20.39,7.64 76,76 0 0 1 16.69,12.74 l 1.8,1.82 1.69,1.86 c 1.14,1.24 2.22001,2.49 3.22001,3.8 2.06,2.58 3.91,5.23 5.69999,7.86 1.79001,2.63 3.34,5.35 4.81,7.94 l 2.18001,3.91 c 0.75999,1.4 1.50999,2.8 2.19999,4.23 a 105.72,105.72 0 0 1 6.85001,17.56 101.48,101.48 0 0 1 3.51,18.18 c 0.3,3 0.44999,6.1 0.44999,9.13 0,1.53 -0.07,3 -0.14999,4.55 0,0.76 -0.08,1.51 -0.14,2.26 l -0.24,2.26 -1.78,0.29 a 126.21,126.21 0 0 0 -10.46,-32.57 121.09,121.09 0 0 0 -8.36,-14.92 c -1.59,-2.36 -3.23,-4.69 -4.94,-7 -1.71,-2.31 -3.42,-4.6 -5.19,-6.84 -7.12,-8.88 -15.54,-16.82 -25.61,-21.89 a 60.33,60.33 0 0 0 -15.87,-5.38 82.74,82.74 0 0 0 -16.89,-1.14 119.22,119.22 0 0 0 -64.17,20.47 115.73,115.73 0 0 0 -25.22,22.91 98.08,98.08 0 0 0 -16.93,29.56 z"
     id="path22"
     style="fill:#19700b" />
  <path
     class="cls-5"
     d="m 13.81447,215.83808 c 2.31,-12.17 7.48001,-23.86 14.34,-34.47 a 115.61,115.61 0 0 1 25.86,-27.86 c 1.27001,-1 2.53001,-2 3.84001,-2.88 1.31,-0.88 2.59999,-1.88 3.94999,-2.75 1.35,-0.87 2.69,-1.74 4.09,-2.55 1.40001,-0.81 2.76,-1.63 4.19,-2.38 a 126.3,126.3 0 0 1 17.62,-7.94 118.18,118.18 0 0 1 38.22,-6.64 79.88,79.88 0 0 1 19.89,2.49 67.24,67.24 0 0 1 18.61,8.09 81.35,81.35 0 0 1 15.33001,12.67 l 1.69,1.79 c 0.55,0.6 1.07,1.23 1.61,1.85 0.54,0.62 1.07,1.23 1.59,1.86 0.52,0.63 1,1.29 1.49,1.94 2,2.6 3.77,5.31 5.47,8.06 6.84,11.09 11,23.18 14.07,35.27 a 267.27,267.27 0 0 1 5.74,36.61 l -0.78,0.17 c -2.63,-11.94 -5.28,-23.88 -9,-35.51 -3.72,-11.63 -8.49,-22.95 -15.28,-33.05 -6.79,-10.1 -15.42,-19 -25.83,-25.22 a 62.5,62.5 0 0 0 -16.66,-7 70.93,70.93 0 0 0 -18,-2 112.69,112.69 0 0 0 -35.81,5.79 122.58,122.58 0 0 0 -58.56,41.76 108.48,108.48 0 0 0 -17,32.17 z"
     id="path24"
     style="fill:#56874b" />
  <path
     class="cls-6"
     d="m 474.05448,237.31808 a 91.17,91.17 0 0 1 -0.62,-9.37 c 0,-3.14 0.12,-6.3 0.44,-9.45 a 100.65,100.65 0 0 1 3.61,-18.82 104.09,104.09 0 0 1 18,-35 c 1,-1.3 2,-2.67 3.17,-3.92 l 3.38,-3.75 c 0.57,-0.63 1.14,-1.26 1.74,-1.85 l 1.83,-1.73 c 1.23,-1.15 2.44,-2.34 3.7,-3.45 2.58,-2.14 5.09,-4.43 7.87,-6.31 1.37,-1 2.72,-2 4.11,-2.93 l 4.25,-2.72 c 0.71,-0.45 1.42,-0.92 2.14,-1.34 l 2.22,-1.21 4.46,-2.4 4.58,-2.15 2.3,-1.07 c 0.78,-0.33 1.57,-0.64 2.36,-1 1.58,-0.62 3.17,-1.2 4.76,-1.8 1.59,-0.6 3.24,-1 4.86,-1.55 3.23,-1.09 6.59,-1.82 9.92,-2.62 0.83,-0.21 1.68,-0.35 2.53,-0.48 l 2.56,-0.41 2.55,-0.4 c 0.85,-0.14 1.7,-0.26 2.57,-0.32 a 97.27,97.27 0 0 1 10.4,-0.66 c 1.75,0 3.49,0 5.24,0.05 l 5.26,0.39 c 0.87,0.08 1.74,0.12 2.62,0.23 l 2.62,0.4 c 1.74,0.25 3.48,0.58 5.21,0.89 l 5.15,1.32 2.56,0.67 c 0.85,0.25 1.68,0.57 2.52,0.86 1.68,0.58 3.35,1.17 5,1.81 0.87,0.31 1.54,0.63 2.33,1 l 2.36,1.07 a 85.44,85.44 0 0 1 9.27,5 94.23,94.23 0 0 1 8.58,6.14 c 1.34,1.14 2.71,2.23 4,3.48 l 1.89,1.83 1.81,1.9 c 1.21,1.26 2.32,2.62 3.45,3.93 0.55,0.68 1.08,1.38 1.6,2.07 0.52,0.69 1,1.39 1.52,2.11 1,1.44 2,2.85 2.8,4.35 a 46,46 0 0 1 2.5,4.5 l 1.13,2.29 c 0.37,0.77 0.68,1.57 1,2.34 l 1,2.34 c 0.3,0.79 0.57,1.59 0.84,2.39 a 69.57,69.57 0 0 1 3.68,19.39 62.28,62.28 0 0 1 -1.98,18.96 h -1.8 a 78.83,78.83 0 0 0 -2.41,-17.5 73.54,73.54 0 0 0 -6.26,-16.45 72.6,72.6 0 0 0 -9.88,-14.49 70.66,70.66 0 0 0 -13.12,-11.6 77,77 0 0 0 -15.53,-8.14 94.52,94.52 0 0 0 -16.92,-4.73 96,96 0 0 0 -35,1.13 c -2.86,0.69 -5.75,1.24 -8.55,2.16 -1.41,0.43 -2.83,0.81 -4.23,1.28 l -4.15,1.51 c -0.69,0.25 -1.39,0.49 -2.07,0.76 l -2,0.87 -4.08,1.75 -4,2 -2,1 c -0.65,0.34 -1.28,0.72 -1.92,1.08 l -3.84,2.2 c -1.26,0.77 -2.48,1.59 -3.72,2.39 -2.52,1.54 -4.82,3.38 -7.22,5.1 -1.17,0.9 -2.29,1.86 -3.43,2.79 l -1.7,1.41 c -0.56,0.47 -1.09,1 -1.63,1.49 l -3.23,3 c -1.07,1 -2,2.13 -3,3.19 a 111.28,111.28 0 0 0 -19.66,29.25 118.78,118.78 0 0 0 -6.45,16.52 125,125 0 0 0 -4.07,17.31 z"
     id="path26"
     style="fill:#327d22" />
  <path
     class="cls-5"
     d="m 474.54448,237.42808 a 113.36,113.36 0 0 1 23.92,-75 c 1.05999,-1.33 2.09,-2.72 3.16999,-4 1.08001,-1.28 2.21001,-2.58 3.36,-3.83 2.29,-2.53 4.76,-4.88 7.27,-7.21 a 126.83,126.83 0 0 1 16.27,-12.62 104.6,104.6 0 0 1 18.49,-9.38 c 3.20001,-1.35 6.55,-2.33 9.86,-3.39 a 104.45,104.45 0 0 1 10.20001,-2.31 c 13.37,-2.35 28,-2.49 41.63,1.46 a 91.14,91.14 0 0 1 9.99,3.62 86.8,86.8 0 0 1 9.39,4.73 80.66,80.66 0 0 1 16.61,12.63 79.74,79.74 0 0 1 12.77,16.38 81.47,81.47 0 0 1 8,18.9 76.8,76.8 0 0 1 0.30999,39.72 l -0.79,-0.12 a 81.33,81.33 0 0 0 -3.54999,-38.24 78,78 0 0 0 -21,-32 81.52,81.52 0 0 0 -33.63,-18.34 84.76,84.76 0 0 0 -9.47,-1.87 83.61,83.61 0 0 0 -9.62,-0.7 98.65,98.65 0 0 0 -19.24,1.72 c -3.19001,0.45 -6.31,1.31 -9.44001,2.05 -3.08,1 -6.19,1.82 -9.17,3.05 a 103,103 0 0 0 -17.35,8.53 119.3,119.3 0 0 0 -29.19,25.26 c -16.78,19.72 -26.39,45.18 -28,71 z"
     id="path28"
     style="fill:#56874b" />
  <path
     class="cls-7"
     d="m 150.54448,100.28808 125.12999,-2.999999 c 0,0 2.21,-13.9 3,-25.84 a 237.22,237.22 0 0 0 -0.75,-37.92 c 0,0 -21.87999,-0.3 -28.05,-0.24 -7.89999,0.07 -34.18,0.32 -55.44,13 -28.62,17.02 -43.88,53.979999 -43.88999,53.999999 z"
     id="path30"
     style="fill:#5e99a9;stroke:#ffffff;stroke-miterlimit:10" />
  <path
     class="cls-7"
     d="m 300.30447,31.888081 -3,65 126.11001,-0.2 c -0.32,-7 -2.11,-24.5 -15.12,-39.6 -9.67001,-11.23 -21,-15.9 -28.08,-18.72 -11.84,-4.73 -21.74,-5.38 -41,-6.48 a 339.87,339.87 0 0 0 -38.91001,0 z"
     id="path32"
     style="fill:#5e99a9;stroke:#ffffff;stroke-miterlimit:10" />
  <path
     class="cls-8"
     d="m 421.35448,86.968081 c -2,-7.45 -1.55001,-7.29 -2.73001,-10.68 a 60.45,60.45 0 0 0 -11.51999,-19.44 61.5,61.5 0 0 0 -10.56001,-9.6 65.17,65.17 0 0 0 -18.12,-9 c -1.9,-0.63 -3.5,-1.07 -4.58999,-1.35 a 43.72,43.72 0 0 0 -14.13001,-2.85 c -3.62,-0.52 -6.62,-0.82 -8.73,-1 -4.46,-0.38 -9.9,-0.63 -9.9,-0.63 v 0 l -13.29,-0.47 v 0 l -26.76,0.41 v 0 l -0.49,7.59 v 0 c 4.74,0.24 11.92,0.58 20.65,1.29 27.42,2.21 41.35,3.45 51.84,10.08 5.79,3.65 10.89,6.67 14.4,13 7.28,13 1.43,28.2 8.28,31.59 0.19,0.09 2.56,0.12 7.29,0.18 7.45,0.09 12.49,0 14.4,-0.09 1.91,-0.09 3.72,-0.13 4.86,-0.18 0,-0.43 0.08,-1.05 0.09,-1.8 a 24.16,24.16 0 0 0 -0.98999,-7.05 z"
     id="path34"
     style="opacity:0.5;fill:#312c32" />
  <path
     class="cls-8"
     d="m 276.79447,34.188081 c -5.36,-0.14 -13.15,-0.27 -22.57,-0.14 -16.38,0.21 -24.73,0.36 -33.06,2.28 a 93.27,93.27 0 0 0 -44.94,25.08 120.52,120.52 0 0 0 -19.44,28.08 l -3.71,7.47 v 0 c 0,0 0.11,0.71 0.35,2.13 l 10.8,-0.24 11.49,-0.25 a 54.8,54.8 0 0 1 0.19,-7.77 c 0,0 0.19,-2.13 0.56,-4.22 0.61,-3.51 2.27001,-12.45 7.92,-20.16 4.88,-6.67 11.66001,-11.1 22.32,-15.12 26.45,-10 57.74,-11.67 70.76,-12.05 z"
     id="path36"
     style="opacity:0.5;fill:#312c32" />
  <path
     class="cls-9"
     d="m 384.88447,40.298081 1.10001,56.44"
     id="path38"
     style="fill:none;stroke:#ffffff;stroke-width:2px;stroke-miterlimit:10" />
  <path
     class="cls-10"
     d="m 38.22447,167.96808 c 16.27,-27.05 62.27,-94.999999 149,-128.629999 45,-17.44 83.7,-19 109.47,-19.7 32.81,-1 81.08,-2.34 115.92,23 20.4,14.85 32.94001,34.81 32.94001,34.81 a 122.47,122.47 0 0 1 12.88,27.699999 c 1.14,67.12 1.86,110.23 1.86,110.24 0,0.01 -42.84,-0.69 -78.46,-0.49 -46.19,0.26 -42,1.79 -95.75,2.33 -46,0.46 -69.65001,-1.51 -66.43,-3.23 l -11.95001,-33.69 v 0 a 86.88,86.88 0 0 0 -70.84999,-61.3 95.88,95.88 0 0 0 -50.64001,5.18 c -30.08,12.08 -44.13,36.47 -47.99,43.78 z"
     id="path40"
     style="fill:none;stroke:#072e00;stroke-width:3px;stroke-miterlimit:10" />
  <path
     class="cls-10"
     d="m 290.22447,21.088081 -3,196.179999"
     id="path42"
     style="fill:none;stroke:#072e00;stroke-width:3px;stroke-miterlimit:10" />
  <circle
     class="cls-11"
     cx="121.62447"
     cy="233.84807"
     r="62.52"
     id="circle44"
     style="fill:#38291c" />
  <circle
     class="cls-12"
     cx="121.74446"
     cy="233.37807"
     r="41.759998"
     id="circle46"
     style="fill:#616870" />
  <circle
     class="cls-13"
     cx="121.74446"
     cy="235.04808"
     r="6.8400002"
     id="circle48"
     style="fill:#635a52" />
  <line
     class="cls-14"
     x1="90.004471"
     y1="209.35808"
     x2="152.90446"
     y2="259.48807"
     id="line50"
     style="fill:none;stroke:#ffffff;stroke-miterlimit:10" />
  <line
     class="cls-14"
     x1="116.76448"
     y1="193.9381"
     x2="126.15446"
     y2="273.85806"
     id="line52"
     style="fill:none;stroke:#ffffff;stroke-miterlimit:10" />
  <line
     class="cls-14"
     x1="144.01448"
     y1="202.91808"
     x2="99.344467"
     y2="266.81805"
     id="line54"
     style="fill:none;stroke:#ffffff;stroke-miterlimit:10" />
  <line
     class="cls-14"
     x1="159.66447"
     y1="229.51808"
     x2="81.664474"
     y2="240.56807"
     id="line56"
     style="fill:none;stroke:#ffffff;stroke-miterlimit:10" />
  <ellipse
     class="cls-15"
     cx="121.67448"
     cy="233.91808"
     rx="41.639999"
     ry="41.220001"
     id="ellipse58"
     style="fill:none;stroke:#ffffff;stroke-width:5px;stroke-miterlimit:10" />
  <circle
     class="cls-11"
     cx="587.43445"
     cy="231.31807"
     r="62.52"
     id="circle60"
     style="fill:#38291c" />
  <circle
     class="cls-12"
     cx="587.55444"
     cy="230.84807"
     r="41.759998"
     id="circle62"
     style="fill:#616870" />
  <circle
     class="cls-13"
     cx="587.55444"
     cy="232.51808"
     r="6.8400002"
     id="circle64"
     style="fill:#635a52" />
  <line
     class="cls-14"
     x1="555.81445"
     y1="206.82808"
     x2="618.71448"
     y2="256.95807"
     id="line66"
     style="fill:none;stroke:#ffffff;stroke-miterlimit:10" />
  <line
     class="cls-14"
     x1="582.57446"
     y1="191.4081"
     x2="591.96448"
     y2="271.32806"
     id="line68"
     style="fill:none;stroke:#ffffff;stroke-miterlimit:10" />
  <line
     class="cls-14"
     x1="609.81445"
     y1="200.38808"
     x2="565.15448"
     y2="264.28806"
     id="line70"
     style="fill:none;stroke:#ffffff;stroke-miterlimit:10" />
  <line
     class="cls-14"
     x1="625.47449"
     y1="226.98808"
     x2="547.47449"
     y2="238.03807"
     id="line72"
     style="fill:none;stroke:#ffffff;stroke-miterlimit:10" />
  <ellipse
     class="cls-15"
     cx="587.4845"
     cy="231.38808"
     rx="41.639999"
     ry="41.220001"
     id="ellipse74"
     style="fill:none;stroke:#ffffff;stroke-width:5px;stroke-miterlimit:10" />
  <path
     class="cls-16"
     d="m 673.42448,207.84808 c -2.22,3.3 -6.54,4.74 -8.81,5.5 -5.53,1.87 -7.7,0.1 -9.82,2.14 -3.84,3.67 -3.06,15.52 1.93,18.72 3.34,2.14 7.78999,-0.5 16.71,-5.76 7.16,-4.24 10.79,-6.27 12.21,-9.36 5.54,-12.14 -11.19,-32.51 -13.1,-31.41 -1.41,0.82 5.65,13.09 0.88,20.17 z"
     id="path76"
     style="fill:#a3907f" />
  <path
     class="cls-17"
     d="m 661.70448,143.06808 a 21.71,21.71 0 0 1 4.92999,3.17 24.85,24.85 0 0 1 7.76,11.72 25.16,25.16 0 0 1 0.33001,14.06 22.17,22.17 0 0 1 -2.22001,5.42 l -0.86,0.27 -1.55999,-4.23 -1.47001,-4.26 c -1,-2.84 -1.86,-5.71 -2.79999,-8.56 -0.94001,-2.85 -1.77,-5.74 -2.6,-8.62 l -1.23,-4.34 -1.14,-4.36 z"
     id="path78"
     style="fill:#ffe745" />
  <path
     class="cls-18"
     d="m 652.78448,146.07808 c -1.44,1.25 3.21,7 6.06,15.57 a 89,89 0 0 1 3.12,13.85 c 0,0 4.90999,2.89 6.85,1.85 3.21,-1.72 -0.87,-14.69 -2.69001,-20.47 -3.35,-10.63 -6,-13.91 -7.47,-13.66 -0.91,0.16 -1.22,1.73 -3.26,2.45 -1.48,0.53 -2.13,-0.01 -2.60999,0.41 z"
     id="path80"
     style="fill:#b1b1b2" />
  <path
     class="cls-19"
     d="m 46.50447,146.76808 c 2.17,3.25 -6,7.7 -11.51999,22 -2,5.13 -3.11001,10.08 -7.20001,11.52 -0.34,0.11 -3.17,1.06 -5.4,-0.36 -4.31,-2.76 -2.51,-11.87 -0.72,-20.88 1.93,-9.73 4.21,-11.73 5.76,-12.6 1.55,-0.87 3.31001,-0.94 6.84,-1.08 7.32,-0.38 10.99,-0.53 12.24,1.4 z"
     id="path82"
     style="fill:#d42931" />
  <path
     class="cls-20"
     d="m 23.46447,168.32808 a 38.7,38.7 0 0 1 4.73,-12.24 7.61,7.61 0 0 1 3.24,-3.24 c 2.24,-1.05 3.7,0 6.48001,-0.36 3.60999,-0.48 7.10999,-3.05 6.83999,-4.32 -0.33,-1.53 -6.08,-1.31 -11.93,-1.08 -4.32,0.16 -5.89,0.6 -6.79,1.8 -1.11,1.45 -0.63,3.23 -0.41,5.4 a 31.15,31.15 0 0 1 -2.16,14.04 z"
     id="path84"
     style="fill:#fe9039" />
  <path
     class="cls-18"
     d="m 30.26447,181.37808 c 1.86,0 3.64,-7.84 8.72001,-16.69 a 124.62,124.62 0 0 1 9.10999,-13.29 c 0,0 -0.66,-5.68 -2.65,-6.17 -3.3,-0.8 -11.14,12.44 -14.63,18.34 -6.43,10.86 -7.42,15.33 -6.35,16.11 0.67,0.49 2.1,-0.56 3.91,0.25 1.33,0.59 1.26,1.46 1.89,1.45 z"
     id="path86"
     style="fill:#b1b1b2" />
  <path
     class="cls-21"
     d="m 325.56447,120.32808 c -2.16,-0.44 -4.26999,-1 -6.37,-1.5 l -3.13,-0.85 c -1,-0.29 -2,-0.64 -3.1,-0.88 -1.1,-0.24 -2.12,-0.43 -3.19,-0.62 a 9.28,9.28 0 0 1 -3,-1.13 15.89,15.89 0 0 1 -2.67,-2 12.6,12.6 0 0 1 -2.37,-2.87 l 0.2,-0.56 a 12.15,12.15 0 0 1 3.65,-0.54 16.59,16.59 0 0 1 3.34,0.35 9.72,9.72 0 0 1 3,1.21 c 0.94,0.58 1.86,1.2 2.82,1.71 1.92,1 3.76,2.23 5.61,3.41 1.85,1.18 3.65,2.41 5.42,3.71 z"
     id="path88"
     style="fill:#9b9998" />
  <path
     class="cls-21"
     d="m 252.98447,119.76808 c 1.92,-1.1 3.85,-2.08 5.78,-3.08 l 2.91,-1.43 c 1,-0.46 2,-0.87 2.91,-1.38 0.91,-0.51 1.87,-1.08 2.8,-1.64 a 9.28,9.28 0 0 1 3,-1.13 16.26,16.26 0 0 1 3.32,-0.34 13.32,13.32 0 0 1 3.67,0.59 l 0.22001,0.56 a 11.7,11.7 0 0 1 -2.38,2.81 16.17,16.17 0 0 1 -2.74,1.95 9.63,9.63 0 0 1 -3.07,1.09 c -1.09,0.19 -2.19,0.33 -3.25,0.59 -2.12,0.49 -4.3,0.8 -6.46,1.13 -2.16,0.33 -4.33,0.61 -6.52,0.8 z"
     id="path90"
     style="fill:#9b9998" />
  <metadata
     id="metadata611">
    <rdf:RDF>
      <cc:Work
         rdf:about="">
        <dc:title>kanach meqena</dc:title>
      </cc:Work>
    </rdf:RDF>
  </metadata>
</svg>
