<svg id="Layer_1" data-name="Layer 1" xmlns="http://www.w3.org/2000/svg" viewBox="0 0 841.89 595.28"><defs><style>.cls-1{fill:#c2c5b2;}.cls-2{fill:#878b8e;}.cls-3{fill:#dceffe;}.cls-10,.cls-16,.cls-4,.cls-8{fill:none;stroke-miterlimit:10;}.cls-10,.cls-4{stroke:#fff;}.cls-5{fill:#971f2b;}.cls-6{fill:#2d2c2a;}.cls-7{fill:#d6d8d7;}.cls-8{stroke:#484a49;stroke-width:4px;}.cls-9{fill:#000205;}.cls-10{stroke-width:3px;}.cls-11{fill:#484a49;}.cls-12{fill:#77181e;}.cls-13{fill:#fff;}.cls-14{fill:#7c2c35;}.cls-15{fill:#6b040c;}.cls-16{stroke:#f4e9e9;}.cls-17{fill:#f4e9e9;}.cls-18{fill:#bbbfe1;}.cls-19{fill:#de9745;}.cls-20{fill:#721311;}.cls-21{fill:#9e958e;}</style></defs><title>karmir meqena</title><path class="cls-1" d="M534.33,185.44c11.79,10.11,24,21.3,36.51,33.64,11.91,11.78,22.77,23.37,32.64,34.56h0c-22.36,16.21-23.63,15.36-26.16,13.68-.11-.08-.64-.43-.61-.49s.23.05.41.12l-54.68-74.32Z"/><path class="cls-2" d="M177.72,198c-13.19,7-18.44,17-35.24,42.76-17.63,27.06-18.88,26.83-18.36,29.16,4.87,21.69,106.33,6.74,236.52,10.8,123.08,3.83,213.5,22.82,220.09,1.21,1.27-4.16-5.57-14.19-19.25-34.25-18.61-27.29-27.91-40.94-39.6-49.68-21.08-15.78-43.48-12.13-83.16-10.8-76.05,2.54-185.92-4.43-243,5A56.3,56.3,0,0,0,177.72,198Z"/><path class="cls-3" d="M138.12,258.89c-1.58-2.46-.12-6.44,17.28-32.85,14.35-21.79,17.41-25.24,23-27.51,6.3-2.55,12.31-2.2,23.76-1.53a121.85,121.85,0,0,1,20.88,3.05c-2.81,6.85-6.89,16.36-12.24,27.51C198.47,253.34,194.13,257,190,258.89c-6.23,2.84-7.61-.25-25.92,0C145.88,259.15,140.3,262.29,138.12,258.89Z"/><path class="cls-3" d="M252.6,198.62s-14.3,5.27-38.16,60.4h0c.44,0,24.73-1.55,50.4-1.57,18.94,0,39.6.79,39.6.79h0l10.8-60.41h0a317,317,0,0,0-46.8-.78C259.1,197.64,254.43,197.94,252.6,198.62Z"/><path class="cls-3" d="M326,197.32h0l-10.08,60.24h0l112.94,1.78h0l.82-62.82h0Z"/><path class="cls-3" d="M437.64,196.52c.71,9.85,1,20.7.72,32.4-.29,10.61-1.08,20.48-2.16,29.52q32.48-.17,65.51,0,27.9.15,55.38.56l-35.21-60.23Z"/><line class="cls-4" x1="510.36" y1="195.08" x2="510.94" y2="269.87"/><path class="cls-5" d="M198.12,182.6a65.63,65.63,0,0,0-17.28,6.72,53.45,53.45,0,0,0-11,8.64c-25.67,25.52-38.51,38.29-68.4,76.32,2.8,0,5.77,0,8.87-.22a125.93,125.93,0,0,0,15.61-1.94c19.67-33.21,38-55.86,47.52-63.36a80.15,80.15,0,0,1,15.12-9.36,68.52,68.52,0,0,1,14.38-4.6c9.24-1.89,12.79-.71,28.82-.44,0,0,.54,0,33.84-.72h0Q261,210.32,255.44,228c-4.84,15.23-9.9,29.71-15.08,43.42q4.23.12,8.64.15t8.64-.06c4.78-13.4,9.41-27.84,13.68-43.29,3.38-12.23,6.23-24,8.64-35.28q28.53-.16,57.6,0,34,.18,67.21.8.84,17.85,1.67,35.68l1.92,41,8.16,1.44-1.44-41.77-1.26-36.42L515.5,195q14.16,19.06,28.34,38.12l32,43.08,7.2-1.92-59.52-81.12s11.55-3.36,11.52-6.72c0-2.86-8.44-5.77-8.43-5.77L213,179.72h0A136.45,136.45,0,0,0,198.12,182.6Z"/><ellipse class="cls-6" cx="678.12" cy="356.86" rx="56.88" ry="52.06"/><ellipse class="cls-7" cx="678.75" cy="355.43" rx="34.36" ry="31.42"/><ellipse class="cls-8" cx="678.38" cy="355.11" rx="26.95" ry="25.22"/><ellipse class="cls-9" cx="668.06" cy="330.98" rx="2.67" ry="2.44"/><ellipse class="cls-9" cx="703.74" cy="360.82" rx="2.67" ry="2.44"/><ellipse class="cls-9" cx="705.37" cy="350.28" rx="2.67" ry="2.44"/><ellipse class="cls-9" cx="701.07" cy="339.74" rx="2.67" ry="2.44"/><ellipse class="cls-9" cx="691.62" cy="331.64" rx="2.67" ry="2.44"/><ellipse class="cls-9" cx="679.9" cy="329.2" rx="2.67" ry="2.44"/><ellipse class="cls-9" cx="656.77" cy="339.72" rx="2.67" ry="2.44"/><ellipse class="cls-9" cx="651.43" cy="352.66" rx="2.67" ry="2.44"/><ellipse class="cls-9" cx="654.1" cy="366.78" rx="2.67" ry="2.44"/><ellipse class="cls-9" cx="663.15" cy="376.56" rx="2.67" ry="2.44"/><ellipse class="cls-9" cx="674.99" cy="380.33" rx="2.67" ry="2.44"/><ellipse class="cls-9" cx="689.39" cy="377.88" rx="2.67" ry="2.44"/><ellipse class="cls-9" cx="698.83" cy="371.67" rx="2.67" ry="2.44"/><ellipse class="cls-10" cx="678.75" cy="355.11" rx="17.44" ry="15.94"/><ellipse class="cls-11" cx="678.38" cy="355.11" rx="7.1" ry="6.49"/><ellipse class="cls-6" cx="233.34" cy="364.28" rx="55.98" ry="51.84"/><ellipse class="cls-7" cx="233.9" cy="363.16" rx="33.85" ry="31.49"/><ellipse class="cls-8" cx="233.54" cy="362.84" rx="26.55" ry="25.27"/><ellipse class="cls-9" cx="223.37" cy="338.67" rx="2.63" ry="2.45"/><ellipse class="cls-9" cx="258.52" cy="368.56" rx="2.63" ry="2.45"/><ellipse class="cls-9" cx="260.13" cy="358" rx="2.63" ry="2.45"/><ellipse class="cls-9" cx="255.89" cy="347.45" rx="2.63" ry="2.45"/><ellipse class="cls-9" cx="246.59" cy="339.32" rx="2.63" ry="2.45"/><ellipse class="cls-9" cx="235.04" cy="336.88" rx="2.63" ry="2.45"/><ellipse class="cls-9" cx="212.25" cy="347.42" rx="2.63" ry="2.45"/><ellipse class="cls-9" cx="206.98" cy="360.39" rx="2.63" ry="2.45"/><ellipse class="cls-9" cx="209.62" cy="374.54" rx="2.63" ry="2.45"/><ellipse class="cls-9" cx="218.53" cy="384.33" rx="2.63" ry="2.45"/><ellipse class="cls-9" cx="230.2" cy="388.11" rx="2.63" ry="2.45"/><ellipse class="cls-9" cx="244.38" cy="385.66" rx="2.63" ry="2.45"/><ellipse class="cls-9" cx="253.68" cy="379.44" rx="2.63" ry="2.45"/><ellipse class="cls-10" cx="233.9" cy="362.84" rx="17.18" ry="15.98"/><ellipse class="cls-11" cx="233.54" cy="362.84" rx="6.99" ry="6.5"/><path class="cls-12" d="M101.4,274.28s-12.88,24.6-15.6,51.63C83.86,345.19,87,366.75,87,367.16h0l82.64,3.32h0s4.83-11.24,7.92-18.72c2.24-5.43,6.29-15.27,12.24-21.6,11.21-12,29.39-11.71,43.2-11.52,12.9.17,27.47.36,41,9.36,0,0,4.06,2.69,13.17,16.31a394.78,394.78,0,0,1,20,34.09c34.14.4,61.77,1,79.92,1.44,68.14,1.66,110.87,3.84,148.32,3.6,34.16-.22,54.84-2.39,64.81-.67a9,9,0,0,0,3.59,0c7.49-1.72,9.48-13.33,14.4-25.92,2.83-7.25,7.49-19.16,16.56-28.8a60.12,60.12,0,0,1,28.08-16.56c16.78-4.31,30.49.3,38.16,2.88,7.86,2.64,17.17,5.77,25.2,14.4,9,9.65,12.9,22.46,14.4,27.36,3,9.89,3.23,17,5.76,17.28,1.9.18,3.55-3.69,7.2-11.52,9.32-20,8.44-16,10.8-22.32a111.54,111.54,0,0,0,7.2-35.28c.32-9.58.41-14.62-2.88-19.44-5.32-7.79-15.52-9.26-20.88-10.08-19.87-3.05-39.07-10-59-12.24-45.06-5.17-86.4-10.08-86.4-10.08A77.57,77.57,0,0,1,588,262.48c-5.4,2.9-13.68,6.47-13.68,6.48-17.25-.06-49.23-.13-89.28,0-200,.61-383.58,5.32-383.6,5.32Z"/><path class="cls-13" d="M316,373c11.56,0,23.1.21,34.65.33l34.6,1.34,8.65.33,8.66.15,17.31.3,34.62.57q34.62.25,69.25-.29,17.31-.25,34.61-.69L593,375c-11.52.8-23.06,1.41-34.6,2q-17.31.43-34.64.69-34.63.52-69.29.29l-34.64-.57-17.32-.3-8.66-.15-8.66-.33-34.62-1.33C339,374.57,327.52,373.86,316,373Z"/><path class="cls-13" d="M118.68,273.86l14.12-.58,14.12-.51,28.25-1,56.5-.56,113-1.15,113-1.15,56.5-.57c18.84.31,37.68.51,56.53.93-18.83.79-37.67,1.37-56.5,2.07l-56.5.57-113,1.15-113,1.15-56.5.59-28.26-.43-14.13-.22Z"/><path class="cls-13" d="M527.48,193.36c4.86,5.68,9.8,11.32,13.7,17.65l12.46,18.49,24.92,37-2-.45,6.26-3.73,3.13-1.87c.52-.31,1-.62,1.56-.94a12.43,12.43,0,0,1,1.58-.91l6.61-3.14c2.21-1,4.44-2.05,6.67-3-1.94,1.48-3.89,3-5.85,4.41l-5.91,4.32a12.92,12.92,0,0,1-1.55,1c-.53.29-1,.61-1.57.92l-3.13,1.86-6.26,3.73-1.22.73-.79-1.18-24.92-37L538.7,212.68C534.29,206.69,530.93,200,527.48,193.36Z"/><path class="cls-14" d="M107.88,275.72c-5.79,3.17-5.62,9.77-10.8,31.68-4.3,18.18-6.53,22.54-3.6,25.92,3.44,4,9.27,1.15,25.2,0,26.51-1.92,34.37,4.1,43.92-2.88,7.91-5.8,4.1-11.1,11.52-18.72,6.19-6.37,17.16-11.21,64.08-7.2,18,1.53,30.65,3.46,36.72,4.32,53.79,7.58,102.14,3.13,102.24.72.11-2.81-64.9-5.68-64.8-9.36.1-3.47,57.75-5.27,99.36-5,13.2.07,8.73.25,39.6.72,71.14,1.06,68.23-.34,83.52,1.44,35.4,4.11,47.41,11.18,64.08,8.64,2.07-.32,7.57-1.3,13,1.44,10.21,5.18,12.39,19.8,13.68,19.44s-5.76-16.36.72-25.2c3.43-4.68,9.4-5.64,22.14-6.84,30.29-2.87,39.78-2.52,39.78-2.52,24.65.89,59.72,1.92,59.76,1.44s-32.58-3.93-81.36-7.2c-18-1.21-45.68-3-82.08-4.32-122.1-4.29-305.17-1-378-2.88-53.76-1.39-80.64-2.08-82.8-2.88C121,275.41,113.74,272.5,107.88,275.72Z"/><path class="cls-15" d="M102.84,272l166.39.77c55.5.39,110.94,2.17,166.38,3,27.72.42,55.44.56,83.15.19,13.86-.15,27.71-.56,41.58-.91s27.74-.51,41.62-.39A935.94,935.94,0,0,1,767.4,290.84,935,935,0,0,0,602,276.15c-13.86,0-27.71.29-41.56.76s-27.72,1-41.59,1.29c-27.74.62-55.48.73-83.22.56-55.48-.32-110.94-1.6-166.36-1.49L102.84,278Z"/><path class="cls-16" d="M274.2,196.52a417.17,417.17,0,0,1-15.12,43.92c-1.24,3-4.19,12.81-10.08,32.4a36.62,36.62,0,0,0-1.44,18c.51,2.64,1.44,7.51,5,11.52,4.89,5.44,11,5.13,17.28,7.2,8.24,2.69,13.41,9.23,23.76,22.32a154.38,154.38,0,0,1,20.88,35.28h0c16,.27,41.43.74,72.72,1.44,49.84,1.11,65.51,1.72,93.6,2.16,23,.35,57.12.62,99.36,0,.9-7.41,1.64-15.1,2.16-23a422,422,0,0,0-1.44-72"/><path class="cls-17" d="M409.56,195.8l1.16,21.66.65,21.69c.43,14.46,1,28.92,1.07,43.38l.61,43.39.3,21.7-.19,21.7-.81-21.69-.3-21.69-.61-43.39c-.11-14.46-.64-28.91-1.07-43.37l-.65-21.68Z"/><path class="cls-15" d="M572,272.29l-54.19-75.84.94.49-80.76.64-80.77.55-80.76.67q-40.4.31-80.77-.22l1.28-.31a147.8,147.8,0,0,0-23.13,14.37,125.69,125.69,0,0,0-19.73,18.79c-5.92,7-11.32,14.49-16.87,21.9s-10.7,15.07-16.18,22.55l-.5-.33q7.23-11.85,14.69-23.61,3.79-5.82,7.71-11.58c2.63-3.83,5.3-7.65,8.19-11.34a123.17,123.17,0,0,1,19.7-20.16,142.81,142.81,0,0,1,23.56-15.54l.57-.3h.71q40.38-.52,80.77-.21l80.76.66L438,194l80.76.64h.61l.33.49,52.81,76.8Z"/><polygon class="cls-18" points="258.36 279.42 289.32 282.92 258.36 286.42 258.36 279.42"/><polygon class="cls-18" points="419.64 280.54 450.6 284.04 419.64 287.54 419.64 280.54"/><circle class="cls-19" cx="756.6" cy="297.45" r="5.4"/><path class="cls-20" d="M578.2,336.92c-.64-1.8-8.24-.58-9.72-.36-10.38,1.49-53.15,1.58-153.24-1.09-.74,11,.89,21.13,1.06,32.06q60.76,1.43,117.62.35c6.65-.23,12.17-.15,16.2,0,4.47.15,9.93.47,10.08-.36s-3.48-.95-5.22-3.32c-2.38-3.25-.14-9,2.34-13.6C567.81,345.38,579,339.23,578.2,336.92Z"/><path class="cls-20" d="M410.31,335.47c-32-.86-70-2-114.87-3.51,3.35,4.35,6.82,9.24,10.26,14.68a192.9,192.9,0,0,1,9.57,16.92q46.26,2.71,95.27,3.95l.82,0C411.2,356.6,409.59,346.43,410.31,335.47Z"/><path class="cls-20" d="M90.65,331.21a34.21,34.21,0,0,0-.81,6.78,35,35,0,0,0,.4,5.77l6.48,9a29.26,29.26,0,0,0,13.68,11.52L164,365.72a75.71,75.71,0,0,1,15.46-33.54Z"/><path class="cls-21" d="M747.24,355.64c1.67-2.56,7.4,1.22,12.24-1.44,7-3.84,5-17.17,7.2-17.28,1.74-.1,4.91,8.38,4.21,17.27a81.08,81.08,0,0,1-2.77,13.69h0s-11.23,1.59-17.28-3.6C748,361.82,746,357.59,747.24,355.64Z"/><path class="cls-21" d="M75.48,334.76c3.47-1.31,5,.36,13,1.44,8.43,1.14,10.89-.17,13,2.16,2.32,2.59,2.3,7.64,0,10.08-1.49,1.57-3.05,1.1-12.24,1.44-7.6.27-8.33.65-10.8,0-1-.27-8.93-2.39-9.36-7.2C68.7,339.31,72.2,336,75.48,334.76Z"/></svg>