<?xml version="1.0" encoding="UTF-8" standalone="no"?>
<svg
   id="Layer_1"
   data-name="Layer 1"
   viewBox="0 0 841.89 595.28"
   version="1.1"
   sodipodi:docname="car_7.svg"
   inkscape:version="1.2.1 (9c6d41e410, 2022-07-14, custom)"
   xmlns:inkscape="http://www.inkscape.org/namespaces/inkscape"
   xmlns:sodipodi="http://sodipodi.sourceforge.net/DTD/sodipodi-0.dtd"
   xmlns="http://www.w3.org/2000/svg"
   xmlns:svg="http://www.w3.org/2000/svg">
  <sodipodi:namedview
     id="namedview931"
     pagecolor="#ffffff"
     bordercolor="#000000"
     borderopacity="0.25"
     inkscape:showpageshadow="2"
     inkscape:pageopacity="0.0"
     inkscape:pagecheckerboard="0"
     inkscape:deskcolor="#d1d1d1"
     showgrid="false"
     inkscape:zoom="1.4142136"
     inkscape:cx="410.47549"
     inkscape:cy="183.84776"
     inkscape:window-width="1920"
     inkscape:window-height="1151"
     inkscape:window-x="0"
     inkscape:window-y="20"
     inkscape:window-maximized="1"
     inkscape:current-layer="Layer_1" />
  <defs
     id="defs850">
    <style
       id="style848">.cls-1{fill:#35908b;}.cls-2{fill:#818787;}.cls-12,.cls-2{stroke:#fff;}.cls-10,.cls-12,.cls-15,.cls-19,.cls-2,.cls-6,.cls-9{stroke-miterlimit:10;}.cls-3{fill:#285f5a;}.cls-4{fill:#8ae4e2;}.cls-5{fill:#345c5c;}.cls-6{fill:#ed2524;stroke:#f7ff45;}.cls-7{fill:#a8afb6;}.cls-8{fill:#85ede6;}.cls-10,.cls-9{fill:none;}.cls-10,.cls-19,.cls-9{stroke:#000;}.cls-10{stroke-width:4px;}.cls-11{fill:#0f2a33;}.cls-12{fill:#55ede3;stroke-width:0.5px;}.cls-13{fill:#fdfefe;}.cls-14{fill:#9accca;}.cls-15{fill:#d7d8d7;stroke:#036b6b;}.cls-16{fill:#909293;}.cls-17,.cls-19{fill:#6f706f;}.cls-18{fill:#4d4f4d;}.cls-20{fill:#383c3f;}.cls-21{fill:#d2d8d2;}.cls-22{fill:#423e32;}.cls-23{fill:#e0e2e1;}.cls-24{fill:#020306;}.cls-25{fill:#fff;}</style>
  </defs>
  <title
     id="title852">piruzaguyn meqena</title>
  <path
     d="M122.37,360.84c2.08,1.58,14.21-16.86,42.38-28.77a104.68,104.68,0,0,1,36.88-8.49c11.83-.36,30.6-.93,44.37,10.85,8.9,7.62,13.51,18.52,15.45,23.11a105.59,105.59,0,0,1,5,15.57s.85,3.44,3.49,17.92h0l347.44,1.41s2.15-27.7,16.45-41c15.43-14.38,37.47-9.79,50.85-7.55,9,1.51,35.2,5.9,42.37,22.64,5.11,11.95-2.77,22.52,2.49,25.94,5.59,3.65,21.73-3.63,27.41-14.62,9.91-19.13-9.17-54.59-34.89-70.27-39.55-24.12-76.92,7.64-189.92,25.94-80.29,13-120.44,19.5-167.49,5.66-44.73-13.16-67-34.9-127.61-40.57-30.23-2.82-52.46,0-72.27,10.38C132.91,325.66,119.79,358.88,122.37,360.84Z"
     id="path854" />
  <path
     class="cls-1"
     d="M776.13,315.28c-8.31-24.39-7.5-32.17-16.45-40.81-4.92-4.75-10-7.07-14.71-9-33.58-13.45-76.41-16.26-98.2-17.5-37.63-2.13-42.79-1.28-55.33-6-11.56-4.4-21.87-11.48-42.47-25.66-21.23-14.6-30.78-23.62-50.25-29.52a112.64,112.64,0,0,0-19.62-4c-69.23-9-171.82-4.2-180.84-4-5.27.11-17.59,11.47-17.6,13.31-.23,34.18,2.62,57.81-5.37,62.9-3,1.93-237.39-8.21-238.65-1C36.13,257,42.55,262.3,74,273c-2.89,41.82-11.51,54.91-20.19,57.44-3.53,1-7,.3-9,3C40.05,340.08,50.16,359,65.05,369c1.73,1.16,5.59,3.57,17.15,7.2,23.69,7.46,35.54,11.18,44.16,7.92,20.08-7.6,8.68-40.63,33.65-61.23,19-15.65,45.21-12.79,51.59-12.09,7.42.81,23.45,2.78,38.14,15.12,3.94,3.31,20.11,16.9,22.43,37,.52,4.53,3,18.9,3,18.9h0l324.51,3.78s3.33-17.35,7.47-28.72c2-5.56,7.8-20.83,22.43-33.26A69.81,69.81,0,0,1,668.45,307c5.08-.45,28.6-2.56,46.36,12.85,16.66,14.45,25.67,42.06,22.63,64.19-.7,5.11-2,9.79.55,12.15,5.74,5.24,26.78-4.61,38.14-20.41,2.29-3.19,9.93-14.62,9.72-30.23C785.72,336.4,783,335.6,776.13,315.28ZM566,251.79h0l-53.83-1.43c-84.63-2.21-201.51-1.59-201.52-1.59h0s.26-9.19.76-27.56l.74-26.86h0l15,1.48c26.5-2.13,49-2.42,66.07-2.14,22.29.36,38.41,1.72,43.41,2.17,26.92,2.39,40.37,3.59,55.33,8.31,10.59,3.34,31.3,9.89,50.85,26.46C550.09,236.77,566,251.79,566,251.79Z"
     id="path856"
     style="fill:#35908b;fill-opacity:1" />
  <path
     class="cls-2"
     d="M311.05,193.59h0s-2.9,14.93-3.74,24.94a100.16,100.16,0,0,0,2.24,30.24c31.95.39,98.09,1.2,130,1.57l127.18,1.45c-12.51-14.32-34.45-35.18-67.3-46.86-9.64-3.43-16.77-4.84-26.92-6.81-53.36-10.32-91.89-3.42-138.28-4.15Z"
     id="path858"
     style="fill:#818787;fill-opacity:1" />
  <path
     class="cls-3"
     d="M408.25,189.81h0l.75,68.78h0c5.29.84,9.65,1.27,12.71,1.52,0,0,2.89.23,14.21.75h0q-1.5-36.29-3-72.56h0"
     id="path860"
     style="fill:#285f5a;fill-opacity:1" />
  <path
     class="cls-4"
     d="M47.86,260.61l56.41.26c18.8.2,37.61.28,56.42.57,9.41.14,18.83.32,28.27.74s18.87,1.3,28.23,2.66S235.84,268,245,270.19a275.11,275.11,0,0,1,27.2,7.82l-.13.48c-9.26-1.7-18.5-3.37-27.75-4.85-4.63-.71-9.25-1.47-13.89-2.07s-9.27-1.25-13.91-1.77c-18.55-2.1-37.2-3.61-56-4.37s-37.57-1.37-56.36-2.06l-56.36-2.26Z"
     id="path862"
     style="fill:#8ae4e2;fill-opacity:1" />
  <path
     class="cls-5"
     d="M593.68,378c-1.55-.48,1.18-14.12,3.24-21.92,1.74-6.59,3.51-13.11,8-20.66a68.33,68.33,0,0,1,10.47-13.35,77.11,77.11,0,0,1,35.89-19.66c12.72-3,22.88-2.17,29.91-1.51,10.88,1,23.44,2.25,35.89,10.59,12.8,8.57,18.89,19.85,21.5,24.88,9,17.28,10,36.65,5.41,50.45-.8,2.43-2.45,6.7-3,6.55-.75-.2,2-8.69,2.25-19.9A60.47,60.47,0,0,0,739,348a61.9,61.9,0,0,0-8.47-14.11,75.62,75.62,0,0,0-12-12.6,69,69,0,0,0-23.43-12.6c-12.89-3.91-23.47-2.81-30.4-2-4.69.54-21.16,2.42-35.15,11.59C600.39,337.43,596.35,378.84,593.68,378Z"
     id="path864"
     style="fill:#345c5c;fill-opacity:1" />
  <path
     class="cls-5"
     d="M130.1,379.28c-2.27-.46-.12-20.26,2.79-31a58.5,58.5,0,0,1,4.89-12.57s1.37-2.55,3.08-5c11.44-16.62,32.24-25,32.24-25,15.29-6.19,27.92-5.38,44-4.36,22.11,1.4,33,7.35,35.89,9a58.48,58.48,0,0,1,21.5,21.2c9,14.72,10,31.22,5.42,43-.22.56-2,5.78-3,5.58s-.31-4.56-.55-10.07a64,64,0,0,0-3-16.63A62.51,62.51,0,0,0,264.94,336a64.57,64.57,0,0,0-13-13.36,67.58,67.58,0,0,0-23.68-11.84c-7.53-2-13.74-2-26.17-2-7.27,0-12.45,0-19.32,1.45a83,83,0,0,0-17.27,5.87C141.64,327.77,133.81,380,130.1,379.28Z"
     id="path866"
     style="fill:#345c5c;fill-opacity:1" />
  <path
     class="cls-6"
     d="M38.26,257.15h0a162.76,162.76,0,0,0,15.54,8.34c11.82,5.13,18.74,4.21,20.13,8.76.39,1.28-.05,1.72-.9,5.51-1.88,8.27-.82,10.74-2.08,19a64.14,64.14,0,0,1-3.17,12.95c-2.43,6.49-8.83,19.36-14,18.65-1.2-.16-4.3-1.35-9.46-30.18C40.53,278.79,38.28,257.37,38.26,257.15Z"
     id="path868"
     style="fill:#ed2524;fill-opacity:1" />
  <path
     class="cls-7"
     d="M53.83,347c7.29,2.65,7,30.44,6,22.68,0,0-6.35.73-10.47.75-6.28,0-13.21.09-16.21-4.42-2.54-3.79-1.78-10,1.25-13,1.83-1.77,3.2-1.1,9.72-3C51.52,347.87,52,346.36,53.83,347Z"
     id="path870"
     style="fill:#a8afb6;fill-opacity:1" />
  <path
     class="cls-8"
     d="M208.61,267.66c32.06,3.5,32.14,1.47,42.62,4.54s14.2,6.25,22.43,5.29c8.06-.93,9.77-4.55,17.2-7.56,16.65-6.74,32.48,1.85,66.55,7.56,19,3.18,13.4-1.26,56.07,0,45.5,1.35,40,6.05,75.52,6.05,35.08,0,37.8,4.67,54.59,5.29,31.44,1.16,57.57-1.43,57.57-3,0-2.31-54.75-1.1-55.33-7.56-.39-4.32,23.51-10.91,44.11-13.61,8.6-1.12,18.59-1.83,66.55,1.51,30.47,2.13,45.7,3.16,58.32,5.29,26.7,4.52,44.11,10.44,44.87,8.32s-13.77-10.17-29.16-15.87c-19.87-7.37-31.1-6.87-86.74-9.83-42-2.23-47.08-3.12-59.07,0-13.41,3.49-19.89,7.95-36.64,10.58s-29.18,1.08-40.37,0c-26.34-2.53-13.58.91-91.22-1.51-57-1.77-47.23-7.1-68.05-5.29-19.9,1.73-41.78,6.67-50.09-4.54-2.29-3.08-2.89-6.49-3.74-11.33-1.8-10.26.76-16.75,3.74-31,3.14-15,3.86-24.92,3.74-24.94s-11.6,31.85-15.71,59c-.49,3.26-1.72,12-8.22,16.63a18.11,18.11,0,0,1-10.47,3c-17.9.25-80.74-.11-80.75,0S190.8,265.72,208.61,267.66Z"
     id="path872"
     style="fill:#85ede6;fill-opacity:1" />
  <path
     class="cls-5"
     d="M592.94,304.7c14.51-7.22,18.77-14.11,28.41-20.41,13.72-9,27.58-9.72,43.37-10.58,22.87-1.25,39.57,4.31,51.59,8.32,11.19,3.72,16.31,6.83,20.19,9.82,9.5,7.34,14.09,16,17.19,21.92a82.13,82.13,0,0,1,9,40.06c-.38,11.77-3.26,22-4.49,21.92-2-.17-.49-28.32-9.72-47.62A80.73,80.73,0,0,0,732,305.46c-23.83-23.07-55-24.11-59.07-24.19-22.27-.41-38.44,7.9-46.36,12.09-9.78,5.18-19.79,10.49-27.66,21.92-13.69,19.89-14.21,39.31-14.21,39.31-.12,4.64.28,10.29-2.24,11.34-2.82,1.17-6.51-4.54-15-10.58,0,0-1.17-.84-3.71-2.3-6-3.43-12-6-12-6h0s-59.9-3-119.63-4.53c-38.87-1-155.53-1.95-116.65-1.52h0l3,7.56h0l195.16-2.26h0L563.77,369H510.69c-44.31,0-207.46.82-207.46.75h0s-5.78-12.08-13.12-24.18a74.5,74.5,0,0,1-4.06-7.11c-2.92-6-3.2-9.6-9.4-19.35-3.64-5.72-9.27-13.43-14.2-18.14-9.7-9.25-21.5-11.69-34.4-14.36-9.79-2-24-4.8-41.87-.75a90.58,90.58,0,0,0-32.9,15.11c-5,3.63-23.6,18-29.91,37-.57,1.74-5.44,16.8-6,23.43a26,26,0,0,1-1.5,7.56c-.32.86-1.49,3.78-1.49,3.78-.21-.06-65-13-65.05-27.21,0-2.22,2-4.24,4.29-6.65,3.59-3.81,6.36-4,9.91-7,3.38-2.8,4.92-6,6.73-9.82,8.52-18,8.23-44.6,8.23-44.6.8,4.91,3.61,18.54,12.71,21.92,2.77,1,6.62.7,14.21,0a130.33,130.33,0,0,0,16.45-2.27c28-5.92,59.7-23.93,94.21-22.67,0,0,3.25.12,60.56,15.87h0l300.58,21.92h0C572,314.78,587.74,307.29,592.94,304.7Z"
     id="path874"
     style="stroke:none;stroke-opacity:1;fill:#345c5c;fill-opacity:1" />
  <path
     class="cls-9"
     d="M418.72,184.52a470.69,470.69,0,0,0,.75,71c1.06,12.45,2.1,18.92,3,27.21,2.23,20.9,3.26,51.48-3,91.46"
     id="path878"
     style="fill:#333333;stroke:none;stroke-opacity:1;fill-opacity:1" />
  <path
     class="cls-10"
     d="M275.29,255a175,175,0,0,0-.13,21c.76,14,3.22,27.13,13.46,60.47,3.55,11.56,8.29,26.38,14.29,43.58"
     id="path880"
     style="stroke:none;stroke-opacity:1;fill:#333333" />
  <path
     class="cls-11"
     d="M36.64,254.06c8.28,5,17,9.2,26.1,11.56a55.87,55.87,0,0,1,7.17,2,13.41,13.41,0,0,1,3.58,2.08A12.21,12.21,0,0,1,75,271.18c.22.3.44.56.65.88a7.07,7.07,0,0,1,.58,1.05,12.11,12.11,0,0,1,.92,4.15,35.11,35.11,0,0,1,0,3.83c-.09,2.51-.36,5-.67,7.38s-.75,4.82-1.16,7.2-.81,4.8-1.43,7.23c-.31,1.21-.67,2.43-1.1,3.62S72,308.81,71.56,310s-.94,2.3-1.47,3.42-1.13,2.23-1.78,3.31a35.42,35.42,0,0,1-10,11,35.07,35.07,0,0,1-13.43,5.74,41.11,41.11,0,0,0,12.22-7.28,36.37,36.37,0,0,0,8.5-11,55.36,55.36,0,0,0,2.7-6.44c.38-1.11.76-2.26,1.11-3.38s.63-2.2.88-3.34c.49-2.26.88-4.61,1.26-7s.75-4.76,1-7.1.62-4.7.73-7c.06-1.15.07-2.3,0-3.4a10,10,0,0,0-.53-2.89,3.48,3.48,0,0,0-.28-.54c-.11-.19-.27-.4-.4-.6a8.24,8.24,0,0,0-1-1.06,9.67,9.67,0,0,0-2.59-1.63c-2-.89-4.3-1.4-6.67-2.2A73.7,73.7,0,0,1,36.64,254.06Z"
     id="path882" />
  <path
     class="cls-12"
     d="M334.36,279.87c-.33,4.36-18.84,5.21-20.63,5.29-13.12.55-16-2.65-16.76-3.56-.49-.6-2.69-3.48-1.94-6.7a7.86,7.86,0,0,1,3.58-4.52c4.71-3.15,10.44-2,17.05-.76a36.86,36.86,0,0,1,15.62,6.67C334.29,278.58,334.39,279.46,334.36,279.87Z"
     id="path884"
     style="fill:#55ede3;fill-opacity:1;stroke:none" />
  <path
     class="cls-13"
     d="M296.84,275a3.58,3.58,0,0,0,0,3.28c1.66,3.13,7.62,1,18,1.76,8.25.62,14.55,2.76,15.7.5.57-1.11.25-4,.25-4h0c4.48.61-9-1.21-13.46-1.76C300.26,272.64,297.74,273.37,296.84,275Z"
     id="path886"
     style="fill:#dfefef;fill-opacity:1" />
  <path
     class="cls-14"
     d="M330.85,278a29.9,29.9,0,0,1-8.51,2.57,42.91,42.91,0,0,1-8.76.55,44.85,44.85,0,0,1-8.7-1.18,30.06,30.06,0,0,1-8.31-3.17l.05-.29a137.56,137.56,0,0,0,17.06,1.64,136.17,136.17,0,0,0,17.14-.42Z"
     id="path888"
     style="fill:#9accca;fill-opacity:1" />
  <path
     class="cls-12"
     d="M470.63,281c-.33,4.35-18.83,5.2-20.62,5.28-13.13.55-16-2.64-16.77-3.55-.48-.6-2.69-3.49-1.93-6.71a7.79,7.79,0,0,1,3.57-4.51c4.71-3.16,10.45-2.05,17.05-.77a36.85,36.85,0,0,1,15.63,6.68C470.57,279.7,470.66,280.58,470.63,281Z"
     id="path890"
     style="stroke:none;fill:#55ede3;fill-opacity:1" />
  <path
     class="cls-13"
     d="M433.12,276.1a3.56,3.56,0,0,0,0,3.27c1.65,3.13,7.61,1,17.94,1.76,8.26.63,14.55,2.76,15.7.51.57-1.12.25-4,.25-4h0c4.49.61-9-1.22-13.46-1.77C436.53,273.77,434,274.49,433.12,276.1Z"
     id="path892"
     style="fill:#fdfefe;fill-opacity:1" />
  <path
     class="cls-14"
     d="M467.13,279.14a30.29,30.29,0,0,1-8.52,2.57,42.9,42.9,0,0,1-8.76.54,44.1,44.1,0,0,1-8.7-1.18,30.47,30.47,0,0,1-8.31-3.16l.05-.3a142,142,0,0,0,34.21,1.23Z"
     id="path894"
     style="fill:#9accca;fill-opacity:1" />
  <path
     class="cls-15"
     d="M719.28,269.18c-2.53,3.43,5.12,14.14,10.15,19.65a59.72,59.72,0,0,0,14.5,11.34c10.49,5.9,14.3,4,23.2,10.58,3.83,2.85,6,5.32,7.24,4.53,1.92-1.17-.2-8.4-2.17-15.11-3-10.08-4.44-15.12-7.25-18.14-3.76-4-6.75-3.61-21.75-7.56C725.61,269.83,721,266.91,719.28,269.18Z"
     id="path896"
     style="fill:#d7d8d7;fill-opacity:1" />
  <path
     class="cls-16"
     d="M723.11,272.68a15.16,15.16,0,0,1,6.13-.42,18.62,18.62,0,0,1,2.81.55,8.65,8.65,0,0,1,2.63,1.1c1.64,1,3.07,2.72,4.79,3.52a12.18,12.18,0,0,0,5.62,1.08c1,0,2,0,3,.07a24,24,0,0,1,2.84.45,28.37,28.37,0,0,1,5.51,1.41,28,28,0,0,1,5.06,2.76,22.42,22.42,0,0,1,2.37,1.83,17.19,17.19,0,0,1,2.22,2.28l-.22.66a15.53,15.53,0,0,1-3.15.45,21.48,21.48,0,0,1-3,0,28,28,0,0,1-5.69-.9,29.31,29.31,0,0,1-5.23-2.24,25,25,0,0,1-2.53-1.38c-.82-.53-1.6-1.16-2.39-1.77a12.16,12.16,0,0,0-5.12-2.57c-1.85-.42-4,.05-6-.14a8.3,8.3,0,0,1-2.74-.73,17.47,17.47,0,0,1-2.56-1.28,15,15,0,0,1-4.61-4.08Z"
     id="path898"
     style="fill:#909293;fill-opacity:1" />
  <path
     class="cls-17"
     d="M726.28,280.77c.82-1.49,7.55.88,11.46,2.26,2.86,1,4.31,1.54,5,2.52,2.23,3.23-1,7.71,1.49,10.33.57.6.49.11,3.17,1.72,2.29,1.38,4.55,3.06,4.56,3.07s-7.17-.81-12.46-4.53c-1.36-1-1.07-1-6.23-6.81C727.41,282.79,725.85,281.55,726.28,280.77Z"
     id="path900"
     style="fill:#6f706f;fill-opacity:1" />
  <path
     class="cls-18"
     d="M744.47,288.07c.83-1.1,4.73,1.21,12,3.78,5.25,1.87,6.19,1.71,8,3.28s2.66,3.54,4.49,7.56c.56,1.24,3.8,8.35,3,8.82s-3-5.07-9.22-9.08a33.29,33.29,0,0,0-7-3.27c-5.8-2-10-1.93-10.72-4.28-.22-.75.15-.93,0-3C744.78,289.19,744.1,288.57,744.47,288.07Z"
     id="path902"
     style="fill:#4d4f4d;fill-opacity:1" />
  <path
     class="cls-19"
     d="M767.53,330.78c-2.56,1.2-1,5.15-3.36,17.76-1.22,6.62-2.26,8.92-.75,10.59,2.16,2.37,7.81,1.56,11.22-1.14,2.14-1.7,3-3.78,4.11-6.8a44.51,44.51,0,0,0,2.62-13.61h0S771.86,328.75,767.53,330.78Z"
     id="path904"
     style="fill:#6f706f;fill-opacity:1" />
  <path
     class="cls-20"
     d="M769.4,337.2c3.26-1.79,10.39,3.38,10.46,3.41h0s-.2,3.39-1.87,4.91c-1.42,1.3-2.69.13-4.11,1.13-2.66,1.9.12,7.28-2.61,9.83-1.57,1.46-4.5,1.57-5.61.38s0-3.23,1.12-7.94C768.71,340.81,767.45,338.28,769.4,337.2Z"
     id="path906"
     style="fill:#383c3f;fill-opacity:1" />
  <path
     class="cls-21"
     d="M301.71,381.89c-.56,2.66-1.13,5.33-1.69,8a3,3,0,0,0,2.89,3.8l214.89,1,61.68.28a3,3,0,0,0,2.89-3.8l-2.58-7.34c-1.27-3.61-7.07-2.06-5.79,1.6l2.58,7.34,2.9-3.8-214.89-1-61.68-.28,2.9,3.79q.84-4,1.69-8c.8-3.77-5-5.38-5.79-1.6Z"
     id="path908"
     style="fill:#d2d8d2;fill-opacity:1" />
  <ellipse
     class="cls-22"
     cx="205.87"
     cy="372.31"
     rx="56.08"
     ry="56.69"
     id="ellipse910"
     style="fill:#423e32;fill-opacity:1" />
  <ellipse
     class="cls-23"
     cx="205.87"
     cy="372.31"
     rx="37.22"
     ry="37.63"
     id="ellipse912"
     style="fill:#e0e2e1;fill-opacity:1" />
  <path
     class="cls-24"
     d="M225.93,396a21.91,21.91,0,0,0,7-8.35,30.4,30.4,0,0,0,1.78-5.29c.55-2,.92-3.79,1-4.38,3.21-17.09-6.35-28-6.35-28a27.16,27.16,0,0,0-8.1-6.17c-12.26-6.15-30.75-3.91-40.13,8.32a29.12,29.12,0,0,0-5.73,15.16c-1,10.57,3.43,22,12.46,28.34a27.81,27.81,0,0,0,33.23,0c8.58-6.28,14.26-18,12-29.69a27.68,27.68,0,0,0-8.84-15.45c-9.6-8.24-24.3-8.55-33.24-2.1a29.87,29.87,0,0,0-12.46,21c0,12.6,7.27,24.14,20.77,27.29a25.57,25.57,0,0,0,13.25-.76,25.3,25.3,0,0,0,13.75-10.79,25.8,25.8,0,0,0-.66-27,24.62,24.62,0,0,0-9.22-8.19c-1.15-.6-10.3-5.26-20.44-.75-1,.44-10.78,5-13.29,16-2.23,9.74,2.3,20.15,9.8,24.6a20.62,20.62,0,0,0,9.72,2.65,27.84,27.84,0,0,0,16.33-4.79,24.15,24.15,0,0,1-16.45,5.67c-1.36-.08-9.15-.52-14.34-6.49a17.38,17.38,0,0,1-1.95-2.75C179.61,373.6,180.65,361,189,352.6c13.5-11.55,34.27-6.3,40.5,9.45a26.55,26.55,0,0,1-8.31,30.44c-6.23,4.2-13.5,6.3-20.77,5.25A26.63,26.63,0,0,1,188.81,393a28,28,0,0,1-11.28-22.57c.06-15.85,13.75-24.13,14.67-24.66a28.16,28.16,0,0,1,32.07,2.61c13.5,11.55,13.5,32.55,2.07,45.14A31.29,31.29,0,0,1,211,401.45a48.64,48.64,0,0,0,7.28-1.32,10.58,10.58,0,0,1,1.25-.85,24,24,0,0,1,2.22-1.09A20.55,20.55,0,0,0,225.93,396Z"
     id="path914"
     style="fill:#020306;fill-opacity:1" />
  <ellipse
     class="cls-25"
     cx="205.87"
     cy="369.65"
     rx="10.27"
     ry="10.38"
     id="ellipse916" />
  <polygon
     class="cls-22"
     points="206.41,374.27 201.91,377.16 202.37,371.8 198.26,368.36 203.46,367.15 205.42,362.14 208.16,366.76 213.48,367.1 209.98,371.16 211.31,376.38 "
     id="polygon918"
     style="fill:#4d4d4d"
     transform="rotate(16.348428,205.87,369.65)" />
  <ellipse
     class="cls-22"
     cx="674.35"
     cy="370.98"
     rx="56.08"
     ry="56.69"
     id="ellipse920"
     style="fill:#423e32;fill-opacity:1" />
  <ellipse
     class="cls-23"
     cx="674.35"
     cy="370.98"
     rx="37.22"
     ry="37.63"
     id="ellipse922"
     style="fill:#e0e2e1;fill-opacity:1" />
  <path
     class="cls-24"
     d="M694.4,394.65a21.62,21.62,0,0,0,7-8.35,29.88,29.88,0,0,0,1.79-5.29c.55-2.05.92-3.79,1-4.38,3.2-17.09-6.36-28-6.36-28a27.16,27.16,0,0,0-8.1-6.17c-12.26-6.15-30.74-3.91-40.13,8.32A29.22,29.22,0,0,0,643.93,366c-1,10.57,3.44,22,12.46,28.34A28.63,28.63,0,0,0,673,399.82a28.31,28.31,0,0,0,16.61-5.51c8.58-6.28,14.26-18,12-29.69a27.61,27.61,0,0,0-8.84-15.45c-9.6-8.24-24.29-8.55-33.23-2.1a29.8,29.8,0,0,0-12.46,21c0,12.6,7.27,24.14,20.77,27.29a25.72,25.72,0,0,0,27-11.55,25.82,25.82,0,0,0-.67-27,24.62,24.62,0,0,0-9.22-8.19c-1.15-.6-10.29-5.26-20.44-.75-1,.44-10.78,5-13.29,16-2.23,9.74,2.3,20.15,9.8,24.6a20.62,20.62,0,0,0,9.72,2.65,27.8,27.8,0,0,0,16.33-4.79A24.12,24.12,0,0,1,670.6,392c-1.36-.08-9.14-.52-14.34-6.49a17.23,17.23,0,0,1-1.94-2.75c-6.24-10.49-5.2-23.09,3.11-31.49,13.5-11.55,34.27-6.3,40.5,9.45a26.54,26.54,0,0,1-8.31,30.44c-6.23,4.2-13.5,6.3-20.77,5.25a26.68,26.68,0,0,1-11.57-4.72A28,28,0,0,1,646,369.12c0-15.85,13.74-24.13,14.67-24.66a28.14,28.14,0,0,1,32.06,2.61c13.5,11.55,13.5,32.55,2.08,45.14a31.36,31.36,0,0,1-15.35,7.91,49,49,0,0,0,7.29-1.32A9.7,9.7,0,0,1,688,398c.72-.4,1.46-.76,2.22-1.09A20.55,20.55,0,0,0,694.4,394.65Z"
     id="path924"
     style="fill:#020306;fill-opacity:1" />
  <ellipse
     class="cls-25"
     cx="674.35"
     cy="368.32"
     rx="10.27"
     ry="10.38"
     id="ellipse926" />
  <polygon
     class="cls-22"
     points="674.88,372.94 670.38,375.83 670.85,370.47 666.74,367.03 671.93,365.82 673.89,360.81 676.63,365.43 681.95,365.77 678.46,369.83 679.78,375.05 "
     id="polygon928"
     style="fill:#333333"
     transform="rotate(49.663636,674.345,368.32)" />
  <path
     class="cls-9"
     d="m 567.83287,260.66446 c -1.55385,14.15021 -1.30055,28.34971 0.75775,42.47732 1.07095,7.44849 1.54209,11.4217 1.61304,16.56763 -0.10311,12.30456 0.86032,28.87946 -1.61304,54.42933"
     id="path42746"
     style="fill:#333333;fill-opacity:1;stroke:none;stroke-width:0.777465"
     sodipodi:nodetypes="cccc" />
</svg>
