<svg id="Layer_1" data-name="Layer 1" xmlns="http://www.w3.org/2000/svg" viewBox="0 0 841.89 595.28"><defs><style>.cls-1{fill:#483f3a;}.cls-2{fill:#968f7f;}.cls-10,.cls-2,.cls-6{stroke:#fff;}.cls-10,.cls-11,.cls-15,.cls-17,.cls-19,.cls-2,.cls-20,.cls-22,.cls-23,.cls-5,.cls-6,.cls-9{stroke-miterlimit:10;}.cls-2,.cls-22,.cls-6{stroke-width:3px;}.cls-3{fill:#cac2af;}.cls-4{fill:#211d1a;}.cls-11,.cls-17,.cls-19,.cls-20,.cls-22,.cls-23,.cls-5,.cls-6,.cls-9{fill:none;}.cls-5{stroke:#4f4840;}.cls-5,.cls-9{stroke-width:5px;}.cls-7{fill:#5b524b;}.cls-8{fill:#edf1f4;}.cls-9{stroke:#b9c4af;}.cls-10{fill:#fff;}.cls-11,.cls-19,.cls-20{stroke:#4e4138;}.cls-11{stroke-width:2px;}.cls-12{fill:#d96d24;}.cls-13{fill:#45423b;}.cls-14{fill:#3b3932;}.cls-15{fill:#d5d7cc;opacity:0.74;}.cls-15,.cls-17{stroke:#dfd7ff;stroke-width:6px;}.cls-16{fill:#69574b;}.cls-18{fill:#675b4f;}.cls-19{stroke-width:16px;}.cls-21{fill:#4e4138;}.cls-22,.cls-23{stroke:#45423b;}.cls-23{stroke-width:4px;}</style></defs><title>spitak meqena</title><path d="M557.16,366.55c4.35,4.2,16.91-12.47,48.56-23.88,18.16-6.54,53.24-19.19,73.38-2.65,4.22,3.47,8.27,8.62,16,15.75s9,10.39,12.41,10.4c6.51,0,13.53-10.06,13.6-19.47,0-1.93-.22-9.91-10.36-19.57-5.3-5-19.11-14.89-68-18.19-26.79-1.81-40.44-2.57-52.88,4.17C563.94,327.19,551.67,361.24,557.16,366.55Z"/><path d="M146.68,380.73c4.07,4.72,15.8-14,45.38-26.82,26.47-11.47,54.33-8.54,68.57-3s20.06,8.22,20.06,8.22c8.68,4,10.48,5.32,15.13,6.41,8.53,2,21,1.74,22.31-2.94,2.19-7.66-26.07-25-27.92-26.16-9.65-5.87-31-17.79-63.53-20.43-25-2-37.79-2.9-49.41,4.68C153,336.52,141.55,374.77,146.68,380.73Z"/><circle class="cls-1" cx="644.02" cy="381.8" r="68.58"/><circle class="cls-2" cx="644.76" cy="381.8" r="42.12"/><circle class="cls-3" cx="645.52" cy="382.89" r="9.6"/><circle class="cls-4" cx="637.37" cy="354.12" r="3.19"/><circle class="cls-4" cx="653.54" cy="353.14" r="3.19"/><circle class="cls-4" cx="667" cy="362.88" r="3.19"/><circle class="cls-4" cx="674.56" cy="376.48" r="3.19"/><circle class="cls-4" cx="674.56" cy="391.84" r="3.19"/><circle class="cls-4" cx="667" cy="404.7" r="3.19"/><circle class="cls-4" cx="653.54" cy="412.48" r="3.19"/><circle class="cls-4" cx="637.54" cy="412.48" r="3.19"/><circle class="cls-4" cx="624.88" cy="404.7" r="3.19"/><circle class="cls-4" cx="616.58" cy="391.84" r="3.19"/><circle class="cls-4" cx="615.74" cy="375.45" r="3.19"/><circle class="cls-4" cx="623.84" cy="361.5" r="3.19"/><ellipse class="cls-5" cx="644.76" cy="381.93" rx="37.35" ry="36.14"/><circle class="cls-6" cx="644.76" cy="382.89" r="22.66"/><circle class="cls-7" cx="652.73" cy="371.71" r="2.39"/><circle class="cls-7" cx="636.73" cy="374.1" r="2.39"/><circle class="cls-7" cx="634.18" cy="390.1" r="2.39"/><circle class="cls-7" cx="647.96" cy="397.42" r="2.39"/><circle class="cls-7" cx="659.12" cy="386.26" r="2.39"/><circle class="cls-1" cx="220.59" cy="397.33" r="68.58"/><circle class="cls-2" cx="221.33" cy="397.33" r="42.12"/><circle class="cls-3" cx="222.09" cy="398.42" r="9.6"/><circle class="cls-4" cx="213.94" cy="369.65" r="3.19"/><circle class="cls-4" cx="230.11" cy="368.67" r="3.19"/><circle class="cls-4" cx="243.57" cy="378.41" r="3.19"/><circle class="cls-4" cx="251.13" cy="392.01" r="3.19"/><circle class="cls-4" cx="251.13" cy="407.37" r="3.19"/><circle class="cls-4" cx="243.57" cy="420.23" r="3.19"/><circle class="cls-4" cx="230.11" cy="428.01" r="3.19"/><circle class="cls-4" cx="214.11" cy="428.01" r="3.19"/><circle class="cls-4" cx="201.45" cy="420.23" r="3.19"/><circle class="cls-4" cx="193.15" cy="407.37" r="3.19"/><circle class="cls-4" cx="192.31" cy="390.98" r="3.19"/><circle class="cls-4" cx="200.41" cy="377.03" r="3.19"/><ellipse class="cls-5" cx="221.33" cy="397.46" rx="37.35" ry="36.14"/><circle class="cls-6" cx="221.33" cy="398.42" r="22.66"/><circle class="cls-7" cx="229.3" cy="387.24" r="2.39"/><circle class="cls-7" cx="213.3" cy="389.63" r="2.39"/><circle class="cls-7" cx="210.75" cy="405.63" r="2.39"/><circle class="cls-7" cx="224.53" cy="412.95" r="2.39"/><circle class="cls-7" cx="235.69" cy="401.79" r="2.39"/><path class="cls-8" d="M165.76,172.92h0s-26.57,31.59-48.36,68.16C103,265.19,95.84,277.62,93.64,296.16c-.5,4.23-.61,7.58,4.32,45.36,6.09,46.71,8,55.3,16.2,61.56,9.63,7.38,24.68,9,30.24,3.24,4.46-4.64.21-11.34,1.08-24.84.09-1.43,1.51-19.94,13-34.56,14.41-18.4,37.46-21.38,47.52-22.68,18.87-2.45,33.54,2,41,4.32,11.08,3.46,24.7,7.72,35.64,19.44,18.9,20.24,21.61,54,21.6,54l265.68-2.16s-2.12-29.48,9.72-51.84c8.05-15.21,20.44-23.17,24.84-25.92a74.24,74.24,0,0,1,46.44-10.8,72.91,72.91,0,0,1,34.56,13c14.27,10.25,32.75,31.81,30.24,51.84-.41,3.3-1.64,8.51,1.08,10.8,0,0,2.31,1.93,19.44-3.24,9.38-69.05-2.16-88.56-2.16-88.56a59.4,59.4,0,0,0-10.74-13.37c-19.1-17.63-42.82-15.15-81.06-15.79a1043.53,1043.53,0,0,1-111.76-8.47s-9.25-17.67-12.22-23.17c-17.86-33-44.49-61.23-44.5-61.24s-36.67-4.17-48.6-5.4c-15-1.56-47.21-3.35-88.56-3.24C266.89,164.57,199.2,169.93,165.76,172.92Z"/><line class="cls-9" x1="123.52" y1="301.68" x2="688.72" y2="297.36"/><line class="cls-10" x1="124.23" y1="297.15" x2="682.12" y2="292.88"/><path class="cls-11" d="M544,259.08l7.92,6.2,15.48,24.4,83.16-.36h78.12"/><rect class="cls-12" x="119.68" y="293.88" width="23.52" height="11.27" rx="4.44"/><rect class="cls-12" x="675.12" y="287.05" width="23.52" height="13.66" rx="4.44"/><path class="cls-13" d="M325.09,183.63a6.27,6.27,0,0,1,.13-3.07c-20.2.93-40.4,2.27-60.58,2a5.74,5.74,0,0,1-3.6,1.2c-19.29.14-38.42,4.32-57.64,1.79a5.52,5.52,0,0,1-4.28,1.81,5.58,5.58,0,0,1-3.9-1.43c-.87.58-1.73,1.22-2.58,1.91-7.64,6.21-12.83,15.66-17.28,23.76a110.91,110.91,0,0,0-11.52,31.68c-2.79,12.65-4.34,20.16-1.16,25.29,11.72,1.8,23.53-.28,35.26.43,7.1-7.11,4.6-17.34,9.1-36.52,3.28-14,4.92-21,9.36-25.92,10.81-12.06,28-7.1,76.32-8.64,16.95-.54,12-1.06,33.92-2.07A91.36,91.36,0,0,0,325.09,183.63Z"/><path class="cls-14" d="M495,242.56c-6.4-12.81-14.43-24.49-20.16-37.63a40.57,40.57,0,0,1-3.18-4.61l-.2-.32a5.73,5.73,0,0,1-1.07-1.64l-.22-.24a12.46,12.46,0,0,0-.93-.86,4.64,4.64,0,0,1-.81-.91l-.12-.11c-.23-.16-.47-.34-.56-.38a5.63,5.63,0,0,1-2.38-2.65,91.25,91.25,0,0,0-16.05-7.91c-3.41-.69-6.76-1.68-10.22-2.12a95.76,95.76,0,0,0-13.23-.27c-8.2.1-17.1,1.22-25.09-1a5.77,5.77,0,0,1-3.09-2H357v15.29c11.1.08,26.93.4,61.68.57,24,.11,29.66,0,36.62,4.67,12.69,8.48,19.37,25.67,24.87,39.82,5.29,13.6,5.65,20,10.72,25.07a71.61,71.61,0,0,0,14.33-1.91C501.3,256.73,498.35,249.35,495,242.56Z"/><path class="cls-15" d="M186.88,189.5s-37.66,54.65-25.2,75.65c4.47,7.53,13.07,6.84,88.56,5.24,33.83-.71,75.6-1.5,75.6-1.5l.12-.67h0s-.26-85.47-.12-85.46a1.16,1.16,0,0,1,0,.18l0-.18Z"/><path class="cls-15" d="M349.6,182.76,352.48,267c57.95.08,61.92,0,61.92,0S436.7,267,503,262a247.27,247.27,0,0,0-42.86-72.5,476.9,476.9,0,0,0-110.52-6.69Z"/><path class="cls-16" d="M158.8,187.08,178,182.94c6.41-1.35,12.87-2.49,19.35-3.5,12.95-2.05,26-3.31,39.09-4.19s26.17-1.47,39.26-2l19.64-.73c6.54-.24,13.1-.5,19.65-.61,26.23-.5,52.43.63,78.62,1.25q9.83.24,19.64.35c3.28,0,6.55.06,9.82,0s6.55-.07,9.85.07a72,72,0,0,1,37.19,12l.06,0,0,0q8.29,9.9,16,20.28t14.67,21.22c4.68,7.21,9.19,14.54,13.58,21.93s8.68,14.83,12.84,22.37l.05.09v.1l.83,14.12.42,7.06c.14,2.35.18,4.71.24,7.07.19,9.43-.08,18.86-.17,28.27l-.36,56.51v.48l-.48,0L341.7,391h-.43l-.08-.42c-.95-4.86-1.43-9.79-1.93-14.67l-1.48-14.7-.37-3.67-.18-1.84L337,354q-.47-3.69-.7-7.38c-.33-4.92-.5-9.84-.63-14.77-.23-9.84-.27-19.69-.22-29.53s.2-19.69.42-29.53v-.08l0-.07,3.28-8.27,0,.15c-.35-7.52-.64-15.11-.91-22.66s-.5-15.12-.69-22.69-.34-15.12-.35-22.69l-.11-22.69.31,22.69c.07,7.56.28,15.12.54,22.68s.55,15.12.88,22.68.69,15.09,1.11,22.68v.06l0,.08-3.2,8.29,0-.15-.28,29.52c-.05,9.84,0,19.68.22,29.51.13,4.91.3,9.83.63,14.72.16,2.45.38,4.9.69,7.32l.26,1.78.18,1.83.37,3.67,1.47,14.68c.51,4.91,1,9.78,1.92,14.59l-.51-.4,186.12-5.76-.48.49.36-56.51c.09-9.42.36-18.84.17-28.24-.06-2.35-.1-4.7-.24-7l-.42-7-.83-14.09.06.19q-6.23-11.27-12.82-22.33c-4.39-7.38-8.89-14.7-13.56-21.9s-9.53-14.27-14.64-21.17S475,192.93,469.46,186.35l.1.09a70.93,70.93,0,0,0-36.67-11.84c-3.25-.14-6.53,0-9.81-.07s-6.55,0-9.83,0q-9.83-.11-19.66-.35c-26.19-.62-52.38-1.75-78.57-1.25-6.54.11-13.08.37-19.63.61l-19.64.73c-13.09.48-26.19.92-39.26,1.7s-26.13,1.92-39.08,3.85c-6.48.95-12.94,2-19.36,3.33Z"/><path class="cls-11" d="M337,172.26c1.09,23.85,1.38,42.8,1.44,55.86.06,11.93,0,36.71,0,36.72h0l-2.88,10.8h0s1.37,38.34,4,110.46l1.8,4.38h0l184.32-4.32h0l2.52-4h0V273.84h0S518,257.73,509.8,244.68c0,0-14-22.26-33.48-49-4.59-6.31-9.05-12.25-17-15.65-6.52-2.78-17.53-4.75-17.53-4.76h0Z"/><path class="cls-17" d="M351.1,180.83q1.45,43.38,2.89,86.77c58.25.08,62.24,0,62.24,0s22.41,0,89-5.19a255.93,255.93,0,0,0-43.08-74.69,468,468,0,0,0-111.08-6.89Z"/><path class="cls-17" d="M187.9,189.56s-37.66,55.18-25.2,76.38c4.47,7.6,13.07,6.91,88.56,5.29,33.83-.72,75.59-1.51,75.6-1.51L327,269h0s-.26-86.29-.12-86.28l0,.18,0-.18Z"/><path class="cls-18" d="M740.56,351.48c.73-.49,1.84-.74,11.76,3.84,10.41,4.8,11.5,6,11.76,7.44.7,3.89-4.86,7.79-5.76,8.4-9.57,6.48-24.56,1.83-24.72-1,0-.75,1-.84,2.45-2.26C741.35,362.7,737.08,353.79,740.56,351.48Z"/><line class="cls-19" x1="728.66" y1="369.8" x2="764.25" y2="369.8"/><line class="cls-20" x1="725.61" y1="289.68" x2="729.02" y2="363.84"/><path class="cls-21" d="M738.68,302.66c.45.54.82,1.09,1.24,1.63l1.11,1.63c.73,1.09,1.37,2.19,2,3.28,0,2.25.18,4.49.26,6.73l.62,13.44.62,13.45.31,6.73c-.54,1.14-1.08,2.29-1.7,3.44l-.94,1.73c-.35.58-.66,1.15-1.05,1.73-.44-.54-.8-1.08-1.21-1.63l-1.09-1.63c-.72-1.09-1.36-2.18-2-3.28l-.31-6.72-.62-13.45-.62-13.44c-.12-2.25-.16-4.49-.35-6.73.51-1.14,1.06-2.29,1.69-3.44l1-1.73C738,303.82,738.27,303.24,738.68,302.66Z"/><path class="cls-18" d="M101.92,373.32h0s-10.7-.27-19.68,4.56c-2.47,1.32-6,3.26-6,6s3.19,4.64,3.84,5c4.35,2.68,7.88.76,21.36-.24,4.74-.36,9.09-.55,9.12-1.2,0-.46-2.26-.21-4.32-1.68C106.24,385.8,103.78,384,101.92,373.32Z"/><line class="cls-19" x1="75.28" y1="390.48" x2="131.44" y2="390.48"/><path class="cls-22" d="M189.77,174.48s-2.83-10.76-4.81-18.6c-1.22-4.82-2.89-11.62-4.8-19.92q71,0,141.89-.72,71.61-.72,143.23-2.16L457,171.14c-8.26,1-90.16-1.76-120.33-1.58C285.65,169.85,236.64,171.61,189.77,174.48Z"/><line class="cls-23" x1="210.31" y1="132.88" x2="211.29" y2="171.11"/><line class="cls-23" x1="343.82" y1="130.6" x2="344.8" y2="168.84"/><line class="cls-23" x1="299.97" y1="130.6" x2="300.96" y2="168.84"/><line class="cls-23" x1="434.93" y1="130.6" x2="435.98" y2="171.39"/></svg>