<?xml version="1.0" encoding="UTF-8" standalone="no"?>
<svg
   id="Layer_1"
   data-name="Layer 1"
   viewBox="0 0 841.89 595.28"
   version="1.1"
   sodipodi:docname="car_6_.svg"
   inkscape:version="1.2.1 (9c6d41e410, 2022-07-14, custom)"
   xmlns:inkscape="http://www.inkscape.org/namespaces/inkscape"
   xmlns:sodipodi="http://sodipodi.sourceforge.net/DTD/sodipodi-0.dtd"
   xmlns="http://www.w3.org/2000/svg"
   xmlns:svg="http://www.w3.org/2000/svg">
  <sodipodi:namedview
     id="namedview326"
     pagecolor="#ffffff"
     bordercolor="#000000"
     borderopacity="0.25"
     inkscape:showpageshadow="2"
     inkscape:pageopacity="0.0"
     inkscape:pagecheckerboard="0"
     inkscape:deskcolor="#d1d1d1"
     showgrid="false"
     inkscape:zoom="2.0770066"
     inkscape:cx="537.79319"
     inkscape:cy="295.61774"
     inkscape:window-width="1920"
     inkscape:window-height="1151"
     inkscape:window-x="0"
     inkscape:window-y="20"
     inkscape:window-maximized="1"
     inkscape:current-layer="Layer_1"
     inkscape:pageshadow="0" />
  <defs
     id="defs181">
    <style
       id="style179">.cls-1{fill:#888f86;}.cls-2,.cls-7{fill:#d6dcda;stroke:#aad7ff;opacity:0.43;}.cls-10,.cls-11,.cls-13,.cls-14,.cls-16,.cls-19,.cls-2,.cls-6,.cls-7,.cls-9{stroke-miterlimit:10;}.cls-2,.cls-9{stroke-width:2px;}.cls-3{fill:#f8a039;}.cls-4{fill:#a15223;}.cls-5{fill:#2f2f3f;}.cls-19,.cls-6,.cls-9{fill:none;}.cls-14,.cls-16,.cls-6{stroke:#fff;}.cls-16,.cls-6{stroke-width:3px;}.cls-7{stroke-width:4px;}.cls-8{fill:#e8c14a;}.cls-9{stroke:#2f2f3f;}.cls-10{fill:#f7bd1b;}.cls-10,.cls-11{stroke:#ffc;}.cls-11{fill:#c2121c;}.cls-12{fill:#3f3d3d;}.cls-13,.cls-14{fill:#fff741;}.cls-13{stroke:#3f3d3d;}.cls-15{fill:#3d313b;}.cls-16{fill:#968f7f;}.cls-17{fill:#cac2af;}.cls-18{fill:#211d1a;}.cls-19{stroke:#4f4840;stroke-width:5px;}.cls-20{fill:#5b524b;}</style>
  </defs>
  <title
     id="title183">narnjgujn meqena</title>
  <path
     class="cls-1"
     d="M164.25,172.18l-27.16,68.55,50.37-2.68c2.39-8.2,4.63-17.17,6.51-26.84a301,301,0,0,0,5-40.32c2.68.17,5.44.3,8.28.36,6.23.15,12.12,0,17.64-.36-4.82,43.84-7.92,72-7.92,72l107.28-.72s-1.55-56.15,18.72-67c2.43-1.29,13.68-6.48,13.68-6.48s0,68.45,0,68.46l142.58,7.14S488.8,225,478.37,211.21c-19.73-26-47.52-42.48-47.52-42.48s74.9,34.75,94.32,78.48c1.26,2.84,2.76,6.79,1.44,10.8-4.53,13.77-37.73,11.54-67,14.4-49.84,4.87-68.07-.55-149.76-2.88-50.89-1.45-76.33-2.17-87.84-1.44-29.94,1.92-48.52.08-85.68-3.6-13.89-1.37-24.5-2.83-28.08-10.08-4.92-10,11.93-18.79,23-48.24,8.16-21.62,6.64-36.52,15.84-39.6C153,164.61,159.71,168.65,164.25,172.18Z"
     id="path185" />
  <path
     class="cls-2"
     d="M127.49,163.69c-5.45-4-62.23,75.13-59.52,86.4,1.69,7,5.52,8.55,5.52,8.55l.24.09,57.12-88.32h0A11.86,11.86,0,0,0,127.49,163.69Z"
     id="path187"
     style="fill:#d6dcda;fill-opacity:1" />
  <path
     class="cls-3"
     d="M767.09,294l-187.92-50.4-36,8.64s-70.9-68.67-88.84-82.57c2.55-1.53,5.32-6,5.32-6h-.08c-.18,0-71.71-8-169.84-8.63-47.22-.29-101.14,1.13-160.56,5.76a3.7,3.7,0,0,0-.61.73c-1.92,3.08,1.88,8.32,2.29,8.87q-21.16,30.53-42.18,62.94-7.12,11-14,22l-7.25-10.08h0L52.85,278.17q1.18,20.55,1.44,42.48.09,9.3,0,18.36c8.39.58,15.59.73,21.24.72a156.37,156.37,0,0,0,25.66-2c1-.16,1.8-.31,2.78-.57,6.46-1.71,6-3.43,14.4-6.48,8.61-3.14,15.54-3.69,24.48-4.32,15.11-1.07,22.66-1.6,31,1.44,9.72,3.57,15.59,9.65,20.88,15.12,3.95,4.09,13.89,14.39,17.28,28.8.87,3.69,2.89,14.4,2.88,14.4H574.13s3.66-23.59,15.84-40.32c11.87-16.3,29-22.26,33.84-23.76,13.32-4.15,24.28-3,31-2.16,9.49,1.14,33.38,4,40.32,18.72,2.43,5.16,5,16.56,5,16.56l75.6-6.48ZM186.31,219.59a193.75,193.75,0,0,1-9.7,32.42l-58.32-.72a456,456,0,0,1,17-46.72c2.62-6,6.46-14.21,11.76-23.84-1,.15-1.4.21-1.4.2A218.89,218.89,0,0,1,168,177.85a144.47,144.47,0,0,1,22.32,0A193.69,193.69,0,0,1,186.31,219.59Zm132.14,36-113.74-.84a237.22,237.22,0,0,1,8.62-76.92,346.33,346.33,0,0,1,106.12-2.11Zm75.74-3.07q-24.75-.06-49.1.19a422.79,422.79,0,0,0-.88-46.75c-1-12.91-2.53-22.87,3.76-28.85a13.67,13.67,0,0,1,4.5-2.81,394.44,394.44,0,0,1,46-.76c41.47,1.77,54.69,9,60.49,12.7,4,2.51,7.56,5.36,16.86,14.79a493.77,493.77,0,0,1,45.72,53.79Q459.21,252.71,394.19,252.54Z"
     id="path189"
     style="fill:#f89f39;fill-opacity:1" />
  <path
     class="cls-4"
     d="m 53.44,309.52 v 0 l 553.09,7.48 33.83562,1.40982 c 0,0 -40.80993,10.2095 -49.23993,26.9695 C 582.23569,363.02932 572.67,386.2 572.68,386.2 v 0 L 225.24235,394.11821 214.89,386.12 c 0,0 -6.40056,-21.40942 -14.40056,-36.31942 -9.26,-17.44 -22.5753,-19.23295 -27.3153,-21.26295 -10.00652,-4.20501 -15.33687,-7.21826 -26.16296,-6.43823 -10.99817,0.62564 -10.09767,2.18023 -20.02178,6.96176 -11.61,5.53 -19.44587,19.44822 -27.825866,22.82822 C 77.913534,360.44938 54.81,333.34 54.81,333.34 v 0 z"
     id="path191"
     style="fill:#a15123;fill-opacity:1"
     sodipodi:nodetypes="cccccsccccccccccc" />
  <path
     class="cls-5"
     d="m 47.77,335.77 c 0,0 -0.79,11.77 0,18.72 1.41,12.41 9.86,27.05 23,31.68 2.45,0.86 10.21,3.59 16.56,0 5.85,-3.31 5.49,-17.55731 10.8,-27.12731 4.34177,-7.62886 10.2435,-14.25638 17.32,-19.45 13.15,-9.38 27.19,-9.95 31.68,-10.08 9.44703,-0.26898 18.82329,1.70497 27.36,5.76 7.41386,3.70844 14.02072,8.84711 19.44,15.12 4.26,4.88 11.75,13.47 13.68,25.92 1.63,10.51 -0.7,32.16731 -0.72,32.16731 H 577 c 0,0 -1.11913,-34.40731 15.45087,-55.68731 3.65,-4.68 17.54656,-20.46581 36.52656,-25.15581 24.28141,-2.92585 34.39719,-3.38273 52.91719,11.95727 12.46,10.34 16.27,27.43585 17.28,31.44585 0,0 -0.0529,3.61 2.63708,24.48 l 53.0283,-2.16 c -1.71153,-3.56586 -1.14602,-7.80714 1.44,-10.8 1.72616,-1.75688 4.05877,-2.78723 6.52,-2.88 6.1778,-2.83834 10.97092,-8.02009 13.32,-14.4 0.18248,-4.56294 0.0622,-9.13297 -0.36,-13.68 -0.42198,-4.60465 -1.15701,-9.17522 -2.2,-13.68 h -77.79 c -2.90877,-3.04288 -5.97286,-5.9334 -9.18,-8.66 -1.28,-1 -5.25,-4 -15.9,-7 -8,-2.23 -18.48,-5.15 -32.52,-3.81 -10.12063,0.71577 -19.95666,3.66658 -28.8,8.64 -4.26,2.44 -16.58,10.14 -24.48,24.48 -2.53497,4.87091 -4.70104,9.92509 -6.48,15.12 -2.95,8.09 -5.76,18 -5.76,18 l -357.12,-2.16 c 0,0 -2.15,-12.63 -4.32,-20.16 -2.57467,-8.97894 -7.00327,-17.31833 -13,-24.48 -12.35,-14.32 -28.77,-18.17 -34.56,-19.44 -4.69,-1 -25.11,-5.52 -42.48,4.32 0,0 -1.87,1.06 -18,12.24 -17.956446,5.99369 -37.333957,6.24534 -55.44,0.72 z"
     id="path193"
     style="fill:#a15123;fill-opacity:1"
     sodipodi:nodetypes="ccccccccccccccccccccccccccccccccccccccc" />
  <path
     class="cls-6"
     d="M697.53,338.63l76.19.33"
     id="path195" />
  <path
     class="cls-6"
     d="M216.72,338.8c64.81,1.77,130.81,1.77,195.81,2.77,55,0,110,1,165.12,1"
     id="path197" />
  <path
     class="cls-6"
     d="M48.53,337.21c17.91.32,35.81.36,53.72.51"
     id="path199" />
  <path
     class="cls-2"
     d="M147.09,180.73l-28.8,70.56,58.32.72a330.58,330.58,0,0,0,9-36.72,331.12,331.12,0,0,0,4.69-36.52l-19.45.88Z"
     id="path201"
     style="fill:#d6dcda;fill-opacity:1" />
  <path
     class="cls-2"
     d="M212.94,179.26h0a272.84,272.84,0,0,0-7.26,38.37,275.78,275.78,0,0,0-1,37.14h0l113.74.84h0l1-79.87h0s-29-4.52-58.67-2.88C237.58,174.14,213.25,179.22,212.94,179.26Z"
     id="path203"
     style="fill:#d6dcda;fill-opacity:1" />
  <path
     class="cls-2"
     d="M345.22,180.87s-.06,18.76-.09,38c0,16.64,0,33.75,0,33.82l176.47,2.11a506.37,506.37,0,0,0-33.07-40.43c-15.88-17.13-23.81-25.69-36.27-31.75-6.68-3.25-19.57-5-45.35-8.64,0,0-42.13-5.88-56.66,3.59Z"
     id="path205"
     style="fill:#d6dcda;fill-opacity:1" />
  <path
     class="cls-7"
     d="M118.29,251.29l58.82-.55"
     id="path207" />
  <line
     class="cls-7"
     x1="204.71"
     y1="254.77"
     x2="318.45"
     y2="255.61"
     id="line209" />
  <line
     class="cls-7"
     x1="345.09"
     y1="252.73"
     x2="521.56"
     y2="254.84"
     id="line211" />
  <path
     class="cls-2"
     d="M456,169.82h0c10.81,9.87,13,12.23,13,12.23,1.61,1.72,2.55,2.83,4.69,4.94,2.71,2.68,4.86,4.51,5.39,5,5.78,5,21.77,20.42,28.62,27,7.8,7.5,19.39,18.49,35.46,33.3l36.17-8.8c-26.58-18.54-48.65-33.31-64.49-43.76-20.57-13.56-53-34.56-53-34.56h0Z"
     id="path213"
     style="fill:#d6dcda;fill-opacity:1" />
  <path
     class="cls-8"
     d="M73.73,258.73c-.27,21.08-.41,32.39-.41,32.39h0c-158-3.13,316.1,6.69,474.17,8.65,81.26,1,220.88,2.45,220.9,2.45h0l-220.9-37.73h0Z"
     id="path215"
     style="fill:#e8c04a;fill-opacity:1" />
  <path
     class="cls-9"
     d="m 204.62888,169.23323 c 0,0 -2.82517,2.20775 -2.88898,4.06435 -0.55853,16.25138 -3.89133,33.47749 -7.86091,49.29074 -2.4623,9.81873 -2.49878,20.23609 -5.99224,29.73694 -0.0444,5.47025 -14.89445,14.01148 -16.61117,24.69476 -2.53253,15.76005 -0.83958,32.17231 2.84962,34.42517 4.41219,1.78436 17.35731,5.24826 21.06062,8.23772 4.94312,3.36054 9.52726,7.22088 13.68,11.52 0,0 8.21,8.57 20.43,46 l 125.73,0.81 0.69,-64.66 c -5.9,-14.28 -11.85667,-28.58667 -17.87,-42.92 -1.87333,-4.47333 -3.74667,-8.93333 -5.62,-13.38 0.17333,-8.22 0.34667,-16.43667 0.52,-24.65 0.46667,-22 0.93333,-44.02333 1.4,-66.07 l 120,3.11 88.84,82.57 10.79,124.52 -198.72,1.44 m -20.91,-211.64 -125.15086,1.96598 -4.36608,0.93434"
     id="path217-4"
     style="fill:none;stroke:#2f2f3f;stroke-width:1.13386;stroke-linecap:round;stroke-linejoin:miter;stroke-miterlimit:10;stroke-dasharray:none;stroke-opacity:1"
     sodipodi:nodetypes="csccsccccccccccccccccc" />
  <path
     class="cls-5"
     d="M454.26,169.61c.49-.64,1-1.24,1.51-1.86s1-1.2,1.57-1.78a8.07,8.07,0,0,1,1.64-1.71,5.45,5.45,0,0,1,2.36-.87l.13.15a5.46,5.46,0,0,1-1.17,2.23,8.19,8.19,0,0,1-1.9,1.4c-.65.46-1.3.9-2,1.33s-1.34.86-2,1.26Z"
     id="path219" />
  <path
     class="cls-10"
     d="M72.32,308.79c0-.51,0-.9,0-1.1-.37-13.25-1.56-25.92-1.56-25.92l-17.88-1.44h0s.23,15.24.44,29.19C59.45,309.31,66,308.39,72.32,308.79Z"
     id="path225"
     style="fill:#f7bc1b;fill-opacity:1" />
  <path
     class="cls-11"
     d="M53.44,310.24h0q.16,11,.34,21.93h0c0-.05,16.58-1.39,16.58-1.39h0s.68-7.33,2-21.25C69.3,309.5,66.13,309.54,53.44,310.24Z"
     id="path227"
     style="fill:#c2121b;fill-opacity:1" />
  <path
     class="cls-12"
     d="M177.27,272.11a10.31,10.31,0,0,1,4.22-2,11.74,11.74,0,0,1,2.11-.34,5.55,5.55,0,0,1,2.1.17c1.41.39,2.82,1.36,4.22,1.54a8,8,0,0,0,4.22-.68c.7-.27,1.41-.57,2.11-.77a15.44,15.44,0,0,1,2.11-.42,18.21,18.21,0,0,1,4.22-.37,17.94,17.94,0,0,1,4.21.83,14.94,14.94,0,0,1,2.11.84,12.13,12.13,0,0,1,2.11,1.23v.6A12.21,12.21,0,0,1,208.9,274a16.18,16.18,0,0,1-2.11.83,18,18,0,0,1-4.21.84,18.77,18.77,0,0,1-4.22-.37,17.12,17.12,0,0,1-2.11-.42c-.7-.21-1.41-.5-2.11-.78a8,8,0,0,0-4.22-.67c-1.4.18-2.81,1.15-4.22,1.53a5.76,5.76,0,0,1-2.1.18,13.84,13.84,0,0,1-2.11-.34,10.47,10.47,0,0,1-4.22-2Z"
     id="path229" />
  <path
     class="cls-12"
     d="M339.87,272.11a10.31,10.31,0,0,1,4.22-2,11.74,11.74,0,0,1,2.11-.34,5.55,5.55,0,0,1,2.1.17c1.41.39,2.82,1.36,4.22,1.54a8,8,0,0,0,4.22-.68c.7-.27,1.41-.57,2.11-.77a15.44,15.44,0,0,1,2.11-.42,18.21,18.21,0,0,1,4.22-.37,17.94,17.94,0,0,1,4.21.83,14.94,14.94,0,0,1,2.11.84,12.13,12.13,0,0,1,2.11,1.23v.6A12.21,12.21,0,0,1,371.5,274a16.18,16.18,0,0,1-2.11.83,18,18,0,0,1-4.21.84,18.77,18.77,0,0,1-4.22-.37,17.12,17.12,0,0,1-2.11-.42c-.7-.21-1.41-.5-2.11-.78a8,8,0,0,0-4.22-.67c-1.4.18-2.81,1.15-4.22,1.53a5.76,5.76,0,0,1-2.1.18,13.84,13.84,0,0,1-2.11-.34,10.47,10.47,0,0,1-4.22-2Z"
     id="path231" />
  <ellipse
     class="cls-15"
     cx="151.68677"
     cy="385.66513"
     rx="53.93"
     ry="53.959999"
     id="ellipse237"
     style="fill:#3e323c;fill-opacity:1" />
  <ellipse
     class="cls-16"
     cx="152.26677"
     cy="385.66513"
     rx="33.119999"
     ry="33.139999"
     id="ellipse239"
     style="fill:#958e7e;fill-opacity:1;stroke:#ffffff;stroke-width:3px;stroke-miterlimit:10" />
  <circle
     class="cls-17"
     cx="152.86676"
     cy="386.52512"
     id="ellipse241"
     style="fill:#cac2af"
     r="7.5500002" />
  <circle
     class="cls-18"
     cx="146.45676"
     cy="363.89511"
     r="2.51"
     id="circle243"
     style="fill:#211d1a" />
  <circle
     class="cls-18"
     cx="159.17676"
     cy="363.12512"
     r="2.51"
     id="circle245"
     style="fill:#211d1a" />
  <circle
     class="cls-18"
     cx="169.75676"
     cy="370.78513"
     r="2.51"
     id="circle247"
     style="fill:#211d1a" />
  <circle
     class="cls-18"
     cx="175.70676"
     cy="381.48511"
     r="2.51"
     id="circle249"
     style="fill:#211d1a" />
  <circle
     class="cls-18"
     cx="175.70676"
     cy="393.56512"
     r="2.51"
     id="circle251"
     style="fill:#211d1a" />
  <circle
     class="cls-18"
     cx="169.75676"
     cy="403.68512"
     r="2.51"
     id="circle253"
     style="fill:#211d1a" />
  <circle
     class="cls-18"
     cx="159.17676"
     cy="409.80511"
     r="2.51"
     id="circle255"
     style="fill:#211d1a" />
  <circle
     class="cls-18"
     cx="146.58676"
     cy="409.80511"
     r="2.51"
     id="circle257"
     style="fill:#211d1a" />
  <circle
     class="cls-18"
     cx="136.63676"
     cy="403.68512"
     r="2.51"
     id="circle259"
     style="fill:#211d1a" />
  <circle
     class="cls-18"
     cx="130.10677"
     cy="393.56512"
     r="2.51"
     id="circle261"
     style="fill:#211d1a" />
  <circle
     class="cls-18"
     cx="129.44676"
     cy="380.67511"
     r="2.51"
     id="circle263"
     style="fill:#211d1a" />
  <circle
     class="cls-18"
     cx="135.81676"
     cy="369.69513"
     r="2.51"
     id="circle265"
     style="fill:#211d1a" />
  <ellipse
     class="cls-6"
     cx="152.26677"
     cy="386.52512"
     rx="17.82"
     ry="17.83"
     id="ellipse269"
     style="fill:none;stroke:#ffffff;stroke-width:3px;stroke-miterlimit:10" />
  <circle
     class="cls-20"
     cx="158.53676"
     cy="377.73511"
     r="1.88"
     id="circle271"
     style="fill:#5b524b" />
  <circle
     class="cls-20"
     cx="145.94676"
     cy="379.60513"
     r="1.88"
     id="circle273"
     style="fill:#5b524b" />
  <circle
     class="cls-20"
     cx="143.94676"
     cy="392.20511"
     r="1.88"
     id="circle275"
     style="fill:#5b524b" />
  <circle
     class="cls-20"
     cx="154.78676"
     cy="397.96512"
     r="1.88"
     id="circle277"
     style="fill:#5b524b" />
  <circle
     class="cls-20"
     cx="163.56676"
     cy="389.17511"
     r="1.88"
     id="circle279"
     style="fill:#5b524b" />
  <ellipse
     class="cls-19"
     cx="152.24353"
     cy="385.81201"
     rx="29.370001"
     ry="28.440001"
     id="ellipse267"
     style="fill:none;stroke:#4f4840;stroke-width:5px;stroke-miterlimit:10" />
  <ellipse
     class="cls-15"
     cx="642.87671"
     cy="382.76541"
     rx="53.93"
     ry="53.959999"
     id="ellipse281"
     style="fill:#3d313b" />
  <ellipse
     class="cls-16"
     cx="643.45667"
     cy="382.76541"
     rx="33.119999"
     ry="33.139999"
     id="ellipse283"
     style="fill:#968f7f;stroke:#ffffff;stroke-width:3px;stroke-miterlimit:10" />
  <circle
     class="cls-17"
     cx="644.0567"
     cy="383.61542"
     id="ellipse285"
     style="fill:#cac2af"
     r="7.5500002" />
  <circle
     class="cls-18"
     cx="637.64667"
     cy="360.98541"
     r="2.51"
     id="circle287"
     style="fill:#211d1a" />
  <circle
     class="cls-18"
     cx="650.3667"
     cy="360.21542"
     r="2.51"
     id="circle289"
     style="fill:#211d1a" />
  <circle
     class="cls-18"
     cx="660.94672"
     cy="367.87543"
     r="2.51"
     id="circle291"
     style="fill:#211d1a" />
  <circle
     class="cls-18"
     cx="666.89667"
     cy="378.58542"
     r="2.51"
     id="circle293"
     style="fill:#211d1a" />
  <circle
     class="cls-18"
     cx="666.89667"
     cy="390.66541"
     r="2.51"
     id="circle295"
     style="fill:#211d1a" />
  <circle
     class="cls-18"
     cx="660.94672"
     cy="400.7854"
     r="2.51"
     id="circle297"
     style="fill:#211d1a" />
  <circle
     class="cls-18"
     cx="650.3667"
     cy="406.90543"
     r="2.51"
     id="circle299"
     style="fill:#211d1a" />
  <circle
     class="cls-18"
     cx="637.77667"
     cy="406.90543"
     r="2.51"
     id="circle301"
     style="fill:#211d1a" />
  <circle
     class="cls-18"
     cx="627.82672"
     cy="400.7854"
     r="2.51"
     id="circle303"
     style="fill:#211d1a" />
  <circle
     class="cls-18"
     cx="621.29669"
     cy="390.66541"
     r="2.51"
     id="circle305"
     style="fill:#211d1a" />
  <circle
     class="cls-18"
     cx="620.63672"
     cy="377.76541"
     r="2.51"
     id="circle307"
     style="fill:#211d1a" />
  <circle
     class="cls-18"
     cx="627.00671"
     cy="366.79541"
     r="2.51"
     id="circle309"
     style="fill:#211d1a" />
  <ellipse
     class="cls-6"
     cx="643.45667"
     cy="383.61542"
     rx="17.82"
     ry="17.83"
     id="ellipse313"
     style="fill:none;stroke:#ffffff;stroke-width:3px;stroke-miterlimit:10" />
  <circle
     class="cls-20"
     cx="649.72668"
     cy="374.82541"
     r="1.88"
     id="circle315"
     style="fill:#5b524b" />
  <circle
     class="cls-20"
     cx="637.14667"
     cy="376.70541"
     r="1.88"
     id="circle317"
     style="fill:#5b524b" />
  <circle
     class="cls-20"
     cx="635.13672"
     cy="389.29541"
     r="1.88"
     id="circle319"
     style="fill:#5b524b" />
  <circle
     class="cls-20"
     cx="645.97668"
     cy="395.05542"
     r="1.88"
     id="circle321"
     style="fill:#5b524b" />
  <circle
     class="cls-20"
     cx="654.75671"
     cy="386.27542"
     r="1.88"
     id="circle323"
     style="fill:#5b524b" />
  <ellipse
     class="cls-19"
     cx="644.35248"
     cy="382.73764"
     rx="29.370001"
     ry="28.440001"
     id="ellipse311"
     style="fill:none;stroke:#4f4840;stroke-width:5px;stroke-miterlimit:10" />
  <rect
     class="cls-13"
     x="568.54565"
     y="296.01584"
     width="15.12"
     height="7.6799998"
     id="rect233"
     style="fill:#fff741;stroke:#3f3d3d;stroke-miterlimit:10" />
  <path
     class="cls-14"
     d="m 779.37088,335.12654 -21,-0.09 2.16,-32.4 13.3,-3.09 q 2.82,17.77 5.54,35.58 z"
     id="path235"
     style="fill:#fff741;stroke:#ffffff;stroke-miterlimit:10" />
</svg>
