<?xml version="1.0" encoding="UTF-8" standalone="no"?>
<svg
   id="Layer_1"
   data-name="Layer 1"
   viewBox="0 0 841.89 595.28"
   version="1.1"
   sodipodi:docname="car_5.svg"
   inkscape:version="1.2.1 (9c6d41e410, 2022-07-14, custom)"
   xmlns:inkscape="http://www.inkscape.org/namespaces/inkscape"
   xmlns:sodipodi="http://sodipodi.sourceforge.net/DTD/sodipodi-0.dtd"
   xmlns="http://www.w3.org/2000/svg"
   xmlns:svg="http://www.w3.org/2000/svg">
  <sodipodi:namedview
     id="namedview295"
     pagecolor="#ffffff"
     bordercolor="#000000"
     borderopacity="0.25"
     inkscape:showpageshadow="2"
     inkscape:pageopacity="0.0"
     inkscape:pagecheckerboard="0"
     inkscape:deskcolor="#d1d1d1"
     showgrid="false"
     inkscape:zoom="1.5858083"
     inkscape:cx="439.5235"
     inkscape:cy="295.11764"
     inkscape:window-width="1920"
     inkscape:window-height="1151"
     inkscape:window-x="0"
     inkscape:window-y="20"
     inkscape:window-maximized="1"
     inkscape:current-layer="Layer_1" />
  <defs
     id="defs4">
    <style
       id="style2">.cls-1,.cls-11,.cls-14,.cls-15,.cls-18,.cls-20,.cls-21,.cls-22,.cls-23,.cls-6{fill:none;}.cls-1{stroke:#5e6263;}.cls-1,.cls-11,.cls-14,.cls-15,.cls-18,.cls-19,.cls-20,.cls-21,.cls-22,.cls-23,.cls-3,.cls-4,.cls-6{stroke-miterlimit:10;}.cls-1,.cls-18,.cls-19,.cls-22,.cls-3,.cls-4{stroke-width:2px;}.cls-2{fill:#012028;}.cls-3{fill:#c8d4d4;}.cls-3,.cls-4{stroke:#b0bfbe;}.cls-4{fill:#e2e8e8;}.cls-5{fill:#f8fefe;}.cls-6{stroke:#e1a255;}.cls-21,.cls-6{stroke-width:5px;}.cls-7{fill:#b0bfbe;}.cls-8{fill:#db951c;}.cls-9{fill:#433e38;}.cls-10{fill:#0263d6;}.cls-11{stroke:#020727;stroke-width:7px;}.cls-12{fill:#3898f9;}.cls-13{fill:#0097da;}.cls-14{stroke:#00237e;}.cls-14,.cls-20{stroke-width:3px;}.cls-15{stroke:#024387;}.cls-15,.cls-23{stroke-width:4px;}.cls-16{fill:#73d0f1;}.cls-17{fill:#024387;}.cls-18{stroke:#05333f;}.cls-19{fill:#839fb7;stroke:#888e8e;}.cls-20{stroke:#013a87;}.cls-21{stroke:#d2a540;}.cls-22{stroke:#022449;}.cls-23{stroke:#73d0f1;}.cls-24{fill:#dedfda;}.cls-25{fill:#1d1918;}</style>
  </defs>
  <title
     id="title6">kamaz</title>
  <line
     class="cls-1"
     x1="372.72122"
     y1="351.83978"
     x2="374.16122"
     y2="447.34979"
     id="line8"
     style="fill:none;stroke:#5e6263;stroke-width:2px;stroke-miterlimit:10" />
  <rect
     class="cls-2"
     x="548.99121"
     y="245.95978"
     width="56.279999"
     height="121.03"
     id="rect10"
     style="fill:#012028" />
  <rect
     class="cls-2"
     x="96.141212"
     y="344.7298"
     width="645.84998"
     height="58.830002"
     id="rect12"
     style="fill:#012028" />
  <path
     class="cls-3"
     d="m 94.71123,166.13978 c 0,0 -0.88,20 -1,41.73 0,4.42 -0.06,9.74 0.06,16.89 0.26,15.41 1,22.61 0.66,46.47 -0.4,27.16 -1.66,36.64 -4,43 -0.74,2 -1,2.06 -1.72,3.83 -2.81,7.36 -5.16,20.3 0.72,27.36 3.6,4.32 9.21,5.14 15.12,5.76 20.94,2.19 31.15,0.76 43.92,0.72 29.82,-0.1 379.27,4.37 371.52,4.32 45.58,-111.21 83.52,-203.76 83.52,-203.76 l -7.35,17.94 95.91,-20.13 a 96.73,96.73 0 0 0 7.86,-21.33 c 0,-0.05 0,-0.15 0.06,-0.27 l -122.44,-3.63 -16.56,38.16 -433.44,0.72 a 109.77,109.77 0 0 1 -18,2.16 c -5.82,0.23 -14.87,0.06 -14.84,0.06 z"
     id="path14"
     style="fill:#c8d4d4;stroke:#b0bfbe;stroke-width:2px;stroke-miterlimit:10" />
  <rect
     class="cls-3"
     x="149.15123"
     y="351.14978"
     width="262.79999"
     height="15.84"
     id="rect16"
     style="fill:#c8d4d4;stroke:#b0bfbe;stroke-width:2px;stroke-miterlimit:10" />
  <polygon
     class="cls-4"
     points="466.32,163.94 400.6,339.4 435.87,341.75 503.23,169.74 "
     id="polygon18"
     style="fill:#e2e8e8;stroke:#b0bfbe;stroke-width:2px;stroke-miterlimit:10"
     transform="translate(2.0712301,7.039782)" />
  <polygon
     class="cls-4"
     points="379.69,163.94 313.96,339.4 349.23,341.75 416.6,169.74 "
     id="polygon20"
     style="fill:#e2e8e8;stroke:#b0bfbe;stroke-width:2px;stroke-miterlimit:10"
     transform="translate(2.0712301,7.039782)" />
  <polygon
     class="cls-4"
     points="292.89,163.94 227.16,339.4 262.43,341.75 329.8,169.74 "
     id="polygon22"
     style="fill:#e2e8e8;stroke:#b0bfbe;stroke-width:2px;stroke-miterlimit:10"
     transform="translate(2.0712301,7.039782)" />
  <polygon
     class="cls-4"
     points="201.52,163.94 135.8,339.4 171.06,341.75 238.43,169.74 "
     id="polygon24"
     style="fill:#e2e8e8;stroke:#b0bfbe;stroke-width:2px;stroke-miterlimit:10"
     transform="translate(2.0712301,7.039782)" />
  <path
     class="cls-4"
     d="m 109.34123,354.39978 h -23 l -26.47,1.79 23,-18.86 c 0,0 1.1,-57.84 3.41,-179.14 l 29,0.78 z"
     id="path26"
     style="fill:#e2e8e8;stroke:#b0bfbe;stroke-width:2px;stroke-miterlimit:10" />
  <rect
     class="cls-3"
     x="110.27122"
     y="158.18977"
     width="480.95999"
     height="21.6"
     id="rect28"
     style="fill:#c8d4d4;stroke:#b0bfbe;stroke-width:2px;stroke-miterlimit:10" />
  <polygon
     class="cls-4"
     points="572.72,117.88 490.14,336.76 521.31,349.15 610.35,121.78 "
     id="polygon30"
     style="fill:#e2e8e8;stroke:#b0bfbe;stroke-width:2px;stroke-miterlimit:10"
     transform="translate(2.0712301,7.039782)" />
  <polygon
     class="cls-5"
     points="528.71,330.36 522.93,346.37 108.2,346.26 108.2,329.01 "
     id="polygon32"
     style="fill:#f8fefe"
     transform="translate(2.0712301,7.039782)" />
  <path
     class="cls-6"
     d="m 96.14123,315.64978 439.22,-3.7 q 4,-13.05 8.08,-26.1"
     id="path34"
     style="fill:none;stroke:#e1a255;stroke-width:5px;stroke-miterlimit:10" />
  <path
     class="cls-7"
     d="m 111.37123,344.72978 c 17,-1.25 34.11,-2.14 51.16,-3 h 51.17 255.84 c 17,0.91 34.11,1.8 51.16,3 -17.05,1.2 -34.11,2.09 -51.16,3 h -255.84 -51.17 c -17.05,-0.87 -34.11,-1.75 -51.16,-3 z"
     id="path36"
     style="fill:#b0bfbe" />
  <path
     class="cls-8"
     d="m 85.97123,175.81978 a 42,42 0 0 1 -2.08,-4.78 c -0.06,-0.2 -0.15,-0.4 -0.2,-0.59 a 1.26,1.26 0 0 1 0,-0.58 c 0.06,-0.39 0,-0.78 0.08,-1.17 l 0.11,-2.33 0.45,-9.33 0.12,-2.45 2.45,0.07 11.43,0.34 c 1.9,0 3.81,0.14 5.71,0.13 a 1,1 0 0 1 0.71,0.14 l 0.71,0.33 1.41,0.68 c 0.94,0.48 1.87,1 2.81,1.55 -1,0.52 -1.93,1 -2.9,1.38 l -1.45,0.59 -0.72,0.3 a 0.92,0.92 0 0 1 -0.72,0.09 c -1.9,-0.12 -3.8,-0.13 -5.71,-0.2 l -11.42,-0.33 2.57,-2.38 -0.46,9.33 -0.11,2.33 c 0,0.39 -0.06,0.78 0,1.17 a 1.42,1.42 0 0 1 0,0.58 c -0.07,0.2 -0.18,0.39 -0.26,0.58 a 39.06,39.06 0 0 1 -2.53,4.55 z"
     id="path38"
     style="fill:#db951c" />
  <path
     class="cls-8"
     d="m 563.72123,158.46978 a 54.94,54.94 0 0 1 6.32,-1.77 c 2,0.13 4,0.42 6.07,0.62 l 12.11,1.34 2.63,0.29 -0.44,2.61 -2.17,12.9 c -0.34,2.15 -0.78,4.29 -1,6.46 a 58,58 0 0 1 -3.6,6 60,60 0 0 1 -1.47,-6.88 c 0.46,-2.13 0.75,-4.3 1.14,-6.44 l 2.17,-12.9 2.19,2.9 -12.11,-1.34 c -2,-0.24 -4,-0.4 -6.06,-0.71 a 57,57 0 0 1 -5.78,-3.08 z"
     id="path40"
     style="fill:#db951c" />
  <rect
     class="cls-9"
     x="578.46124"
     y="213.43977"
     width="12.77"
     height="153.55"
     rx="6.3800001"
     id="rect42"
     style="fill:#433e38" />
  <path
     class="cls-10"
     d="m 773.70123,367.15978 c -2.36,-2.81 -0.2,-7.72 0,-8.28 2.2,-5 7.92,-8.28 7.92,-8.28 l 1.08,-30.6 -2.16,-1.44 c -3.51,-2.37 -6.84,-42.12 -6.84,-42.12 0,0 -5.13,0 -7.2,-2.52 -2.07,-2.52 -1.08,-7.56 -1.08,-7.56 -12,-18.2 -14,-25.56 -14,-25.56 0,0 -1.78,-6.35 -2.52,-23 l -6.12,-3.24 -9.36,-18.36 c 0,0 -32.59,-2.16 -64.43,-2.16 -35.86,-0.07 -71.14,2.47 -71.14,2.47 0,0 -2.48,29.9 -3,56.93 -0.68,34.52 1.88,61 2.2,67.3 0.7,-0.63 3,0.48 3.92,1.1 5.86,4.17 -3.09,23.13 2.2,26.46 a 4.12,4.12 0 0 0 2.83,0.36 c 16.34,-1.9 32.9,0.82 49.33,0.18 17.58,-0.69 23.69,-0.67 31.32,2.16 a 40.2,40.2 0 0 1 13,7.56 c 4,3.65 6.37,7.48 9.72,13 a 100,100 0 0 1 5.76,10.8 c 9.09,20.16 9.72,45 9.72,45 0,0 51.12,-2.52 51.12,-2.53 13.27,-57.41 -0.43,-55.48 -2.27,-57.67 z"
     id="path44"
     style="fill:#0263d6" />
  <path
     class="cls-11"
     d="m 722.99123,361.03978 c 13.39,-0.25 27.2,0 41.4,0.72 q 3.07,0.16 6.12,0.36"
     id="path46"
     style="fill:none;stroke:#020727;stroke-width:7px;stroke-miterlimit:10" />
  <path
     class="cls-12"
     d="m 602.39123,322.87978 v 0 l -1,24.88 v 0 c 31,1.44 40.57,2.12 40.57,2.12 21.7,1.53 32.55,2.27 37.44,4.32 19.89,8.32 29.89,26 32.27,30.48 9.66,18.31 11.29,42.6 11.29,42.6 v 0 c 0,0 12.42,0.57 19.59,-0.68 h 0.21 c 4.5,-1.5 2.24,-32.54 -10.44,-57.6 -4.33,-8.57 -13.35,-25.84 -32.76,-36.72 -11.65,-6.54 -21.67,-7.76 -37.8,-9.72 -29.69,-3.67 -59.36,0.32 -59.37,0.32 z"
     id="path48"
     style="fill:#3898f9" />
  <polygon
     class="cls-13"
     points="639.2,206.4 646.04,206.4 645.68,312.96 638.48,315.12 "
     id="polygon50"
     style="fill:#0097da"
     transform="translate(2.0712301,7.039782)" />
  <path
     class="cls-13"
     d="m 598.07123,194.03978 v 14 0 l 137.82,-7 v 0 l -3,-6 v 0 z"
     id="path52"
     style="fill:#0097da" />
  <line
     class="cls-14"
     x1="597.35126"
     y1="213.43977"
     x2="742.24121"
     y2="213.43977"
     id="line54"
     style="fill:none;stroke:#00237e;stroke-width:3px;stroke-miterlimit:10" />
  <line
     class="cls-15"
     x1="603.47125"
     y1="213.79977"
     x2="603.83124"
     y2="322.15979"
     id="line56"
     style="fill:none;stroke:#024387;stroke-width:4px;stroke-miterlimit:10" />
  <path
     class="cls-16"
     d="m 602.39123,322.87978 0.36,9.72 c 32,-4.22 55.88,1.75 68.76,6.12 9.08,3.07 19.84,6.83 31,16.2 15.59,13.13 22.3,29.21 25.15,37.8 l 8.22,28.94 a 45.11,45.11 0 0 1 0.47,5.26 2.16,2.16 0 0 1 -0.16,-1.79 c 0.44,-0.91 2.31,-1.58 8.77,-0.37 a 120.69,120.69 0 0 0 -13.29,-53.64 c -5.57,-10.75 -13.64,-26.29 -31,-36.72 -12.09,-7.29 -23.45,-8.6 -45.68,-10.91 a 287.8,287.8 0 0 0 -52.6,-0.61 z"
     id="path58"
     style="fill:#73d0f1" />
  <path
     class="cls-17"
     d="m 602.38123,322.67978 c 17,-1.1 34.05,-1.43 51.13,-1.3 a 118.26,118.26 0 0 1 12.85,0.91 c 1.06,0.15 2.14,0.32 3.24,0.5 1.1,0.18 2.11,0.43 3.15,0.66 2.1,0.47 4.18,1 6.25,1.59 a 113.52,113.52 0 0 1 24,9.64 68,68 0 0 1 19.93,16.8 85.38,85.38 0 0 1 12.88,22.56 126.7,126.7 0 0 1 6.75,25 128.71,128.71 0 0 1 1.81,25.61 h -0.4 c -0.41,-4.24 -0.93,-8.45 -1.67,-12.63 -0.74,-4.18 -1.53,-8.33 -2.49,-12.44 a 151.39,151.39 0 0 0 -7.7,-24 116.68,116.68 0 0 0 -5.5,-11.23 79.36,79.36 0 0 0 -6.82,-10.41 64.36,64.36 0 0 0 -8.38,-9.15 65,65 0 0 0 -10,-7.32 110.81,110.81 0 0 0 -23.1,-9.93 c -2,-0.61 -4.05,-1.19 -6.09,-1.7 -1,-0.25 -2,-0.49 -3.09,-0.72 -1.09,-0.23 -2,-0.37 -3.06,-0.54 a 114.56,114.56 0 0 0 -12.6,-1.19 c -17,-0.66 -34,-0.86 -51,-0.3 z"
     id="path60"
     style="fill:#024387" />
  <line
     class="cls-18"
     x1="663.59125"
     y1="215.23978"
     x2="663.95123"
     y2="320.03979"
     id="line62"
     style="fill:none;stroke:#05333f;stroke-width:2px;stroke-miterlimit:10" />
  <path
     class="cls-19"
     d="m 761.27123,271.39978 -90.6,-2.16 -2.28,-48.72 73,0.93 6.07,25.11 v 0 z"
     id="path64"
     style="fill:#839fb7;stroke:#888e8e;stroke-width:2px;stroke-miterlimit:10" />
  <line
     class="cls-20"
     x1="763.18121"
     y1="271.39978"
     x2="763.36121"
     y2="356.18979"
     id="line66"
     style="fill:none;stroke:#013a87;stroke-width:3px;stroke-miterlimit:10" />
  <line
     class="cls-21"
     x1="647.75122"
     y1="319.0798"
     x2="764.94122"
     y2="320.98981"
     id="line68"
     style="fill:none;stroke:#d2a540;stroke-width:5px;stroke-miterlimit:10" />
  <rect
     class="cls-22"
     x="605.27124"
     y="213.43977"
     width="35.279999"
     height="108.92"
     id="rect70"
     style="fill:none;stroke:#022449;stroke-width:2px;stroke-miterlimit:10" />
  <line
     class="cls-23"
     x1="669.7912"
     y1="271.39978"
     x2="761.27124"
     y2="271.39978"
     id="line72"
     style="fill:none;stroke:#73d0f1;stroke-width:4px;stroke-miterlimit:10" />
  <circle
     class="cls-9"
     cx="656.6712"
     cy="429.09979"
     r="54.900002"
     id="circle74"
     style="fill:#433e38" />
  <ellipse
     class="cls-24"
     cx="656.6712"
     cy="429.09979"
     rx="30.57"
     ry="28.440001"
     id="ellipse76"
     style="fill:#dedfda" />
  <circle
     class="cls-25"
     cx="656.6712"
     cy="429.90979"
     r="13.86"
     id="circle78"
     style="fill:#1d1918" />
  <ellipse
     class="cls-25"
     cx="644.50122"
     cy="406.99979"
     rx="2.3"
     ry="1.98"
     id="ellipse80"
     style="fill:#1d1918" />
  <ellipse
     class="cls-25"
     cx="661.0412"
     cy="405.01981"
     rx="2.3"
     ry="1.98"
     id="ellipse82"
     style="fill:#1d1918" />
  <ellipse
     class="cls-25"
     cx="675.46124"
     cy="412.89978"
     rx="2.3"
     ry="1.98"
     id="ellipse84"
     style="fill:#1d1918" />
  <ellipse
     class="cls-25"
     cx="682.35126"
     cy="428.1098"
     rx="2.3"
     ry="1.98"
     id="ellipse86"
     style="fill:#1d1918" />
  <ellipse
     class="cls-25"
     cx="633.5412"
     cy="417.51981"
     rx="2.3"
     ry="1.98"
     id="ellipse88"
     style="fill:#1d1918" />
  <ellipse
     class="cls-25"
     cx="631.06122"
     cy="429.81979"
     rx="2.3"
     ry="1.98"
     id="ellipse90"
     style="fill:#1d1918" />
  <ellipse
     class="cls-25"
     cx="635.83124"
     cy="443.6398"
     rx="2.3"
     ry="1.98"
     id="ellipse92"
     style="fill:#1d1918" />
  <ellipse
     class="cls-25"
     cx="648.14124"
     cy="452.81979"
     rx="2.3"
     ry="1.98"
     id="ellipse94"
     style="fill:#1d1918" />
  <ellipse
     class="cls-25"
     cx="665.03125"
     cy="453.3598"
     rx="2.3"
     ry="1.98"
     id="ellipse96"
     style="fill:#1d1918" />
  <ellipse
     class="cls-25"
     cx="678.84125"
     cy="442.51981"
     rx="2.3"
     ry="1.98"
     id="ellipse98"
     style="fill:#1d1918" />
  <circle
     class="cls-25"
     cx="648.14124"
     cy="441.65979"
     r="1.6900001"
     id="circle100"
     style="fill:#1d1918" />
  <circle
     class="cls-25"
     cx="669.78125"
     cy="424.43979"
     r="1.6900001"
     id="circle102"
     style="fill:#1d1918" />
  <circle
     class="cls-25"
     cx="671.4812"
     cy="432.84979"
     r="1.6900001"
     id="circle104"
     style="fill:#1d1918" />
  <circle
     class="cls-25"
     cx="646.80121"
     cy="419.20981"
     r="1.6900001"
     id="circle106"
     style="fill:#1d1918" />
  <circle
     class="cls-25"
     cx="663.34125"
     cy="417.51981"
     r="1.6900001"
     id="circle108"
     style="fill:#1d1918" />
  <circle
     class="cls-25"
     cx="654.50122"
     cy="415.53979"
     r="1.6900001"
     id="circle110"
     style="fill:#1d1918" />
  <circle
     class="cls-25"
     cx="642.81122"
     cy="435.01981"
     r="1.6900001"
     id="circle112"
     style="fill:#1d1918" />
  <circle
     class="cls-25"
     cx="656.6712"
     cy="444.49979"
     r="1.6900001"
     id="circle114"
     style="fill:#1d1918" />
  <circle
     class="cls-25"
     cx="666.72125"
     cy="441.11978"
     r="1.6900001"
     id="circle116"
     style="fill:#1d1918" />
  <circle
     class="cls-25"
     cx="642.21124"
     cy="426.12979"
     r="1.6900001"
     id="circle118"
     style="fill:#1d1918" />
  <path
     class="cls-1"
     d="m 676.62123,461.49978 10.11,14.43"
     id="path120"
     style="fill:none;stroke:#5e6263;stroke-width:2px;stroke-miterlimit:10" />
  <path
     class="cls-1"
     d="m 623.76123,386.03978 8.7,12.43"
     id="path122"
     style="fill:none;stroke:#5e6263;stroke-width:2px;stroke-miterlimit:10" />
  <path
     class="cls-1"
     d="m 638.88123,456.10978 c -4.37,6.65 -9,13.13 -13.3,19.82"
     id="path124"
     style="fill:none;stroke:#5e6263;stroke-width:2px;stroke-miterlimit:10" />
  <path
     class="cls-1"
     d="m 686.73123,384.71978 -7.9,11.78"
     id="path126"
     style="fill:none;stroke:#5e6263;stroke-width:2px;stroke-miterlimit:10" />
  <path
     class="cls-1"
     d="m 695.85123,429.91978 15.21,0.4"
     id="path128"
     style="fill:none;stroke:#5e6263;stroke-width:2px;stroke-miterlimit:10" />
  <path
     class="cls-1"
     d="m 601.33123,427.40978 18.54,0.49"
     id="path130"
     style="fill:none;stroke:#5e6263;stroke-width:2px;stroke-miterlimit:10" />
  <path
     class="cls-1"
     d="m 690.34123,449.29978 c 4.57,2.63 9.18,5.21 13.5,8.24"
     id="path132"
     style="fill:none;stroke:#5e6263;stroke-width:2px;stroke-miterlimit:10" />
  <path
     class="cls-1"
     d="m 609.95123,400.65978 11.51,7"
     id="path134"
     style="fill:none;stroke:#5e6263;stroke-width:2px;stroke-miterlimit:10" />
  <path
     class="cls-1"
     d="m 656.07123,462.48978 c -0.27,7.57 -0.25,15.16 0.07,22.73"
     id="path136"
     style="fill:none;stroke:#5e6263;stroke-width:2px;stroke-miterlimit:10" />
  <path
     class="cls-1"
     d="m 656.16123,375.41978 v 14.43"
     id="path138"
     style="fill:none;stroke:#5e6263;stroke-width:2px;stroke-miterlimit:10" />
  <path
     class="cls-1"
     d="m 689.74123,410.65978 14.06,-7.62"
     id="path140"
     style="fill:none;stroke:#5e6263;stroke-width:2px;stroke-miterlimit:10" />
  <path
     class="cls-1"
     d="m 609.75123,454.03978 15.9,-8.62"
     id="path142"
     style="fill:none;stroke:#5e6263;stroke-width:2px;stroke-miterlimit:10" />
  <circle
     class="cls-9"
     cx="295.40121"
     cy="430.31979"
     r="54.900002"
     id="circle144"
     style="fill:#433e38" />
  <ellipse
     class="cls-24"
     cx="295.40121"
     cy="430.31979"
     rx="30.57"
     ry="28.440001"
     id="ellipse146"
     style="fill:#dedfda" />
  <circle
     class="cls-25"
     cx="295.40121"
     cy="431.12979"
     r="13.86"
     id="circle148"
     style="fill:#1d1918" />
  <ellipse
     class="cls-25"
     cx="283.23123"
     cy="408.21979"
     rx="2.3"
     ry="1.98"
     id="ellipse150"
     style="fill:#1d1918" />
  <ellipse
     class="cls-25"
     cx="299.77124"
     cy="406.23981"
     rx="2.3"
     ry="1.98"
     id="ellipse152"
     style="fill:#1d1918" />
  <ellipse
     class="cls-25"
     cx="314.19122"
     cy="414.11978"
     rx="2.3"
     ry="1.98"
     id="ellipse154"
     style="fill:#1d1918" />
  <ellipse
     class="cls-25"
     cx="321.08124"
     cy="429.3298"
     rx="2.3"
     ry="1.98"
     id="ellipse156"
     style="fill:#1d1918" />
  <ellipse
     class="cls-25"
     cx="272.27124"
     cy="418.73981"
     rx="2.3"
     ry="1.98"
     id="ellipse158"
     style="fill:#1d1918" />
  <ellipse
     class="cls-25"
     cx="269.79123"
     cy="431.03979"
     rx="2.3"
     ry="1.98"
     id="ellipse160"
     style="fill:#1d1918" />
  <ellipse
     class="cls-25"
     cx="274.56122"
     cy="444.8598"
     rx="2.3"
     ry="1.98"
     id="ellipse162"
     style="fill:#1d1918" />
  <ellipse
     class="cls-25"
     cx="286.87122"
     cy="454.03979"
     rx="2.3"
     ry="1.98"
     id="ellipse164"
     style="fill:#1d1918" />
  <ellipse
     class="cls-25"
     cx="303.76123"
     cy="454.5798"
     rx="2.3"
     ry="1.98"
     id="ellipse166"
     style="fill:#1d1918" />
  <ellipse
     class="cls-25"
     cx="317.56122"
     cy="443.73981"
     rx="2.3"
     ry="1.98"
     id="ellipse168"
     style="fill:#1d1918" />
  <circle
     class="cls-25"
     cx="286.87122"
     cy="442.87979"
     r="1.6900001"
     id="circle170"
     style="fill:#1d1918" />
  <circle
     class="cls-25"
     cx="308.51123"
     cy="425.65979"
     r="1.6900001"
     id="circle172"
     style="fill:#1d1918" />
  <circle
     class="cls-25"
     cx="310.20123"
     cy="434.06979"
     r="1.6900001"
     id="circle174"
     style="fill:#1d1918" />
  <circle
     class="cls-25"
     cx="285.52124"
     cy="420.43979"
     r="1.6900001"
     id="circle176"
     style="fill:#1d1918" />
  <circle
     class="cls-25"
     cx="302.06122"
     cy="418.73981"
     r="1.6900001"
     id="circle178"
     style="fill:#1d1918" />
  <circle
     class="cls-25"
     cx="293.23123"
     cy="416.7598"
     r="1.6900001"
     id="circle180"
     style="fill:#1d1918" />
  <circle
     class="cls-25"
     cx="281.54123"
     cy="436.23981"
     r="1.6900001"
     id="circle182"
     style="fill:#1d1918" />
  <circle
     class="cls-25"
     cx="295.40121"
     cy="445.71979"
     r="1.6900001"
     id="circle184"
     style="fill:#1d1918" />
  <circle
     class="cls-25"
     cx="305.45123"
     cy="442.33978"
     r="1.6900001"
     id="circle186"
     style="fill:#1d1918" />
  <circle
     class="cls-25"
     cx="280.93121"
     cy="427.34979"
     r="1.6900001"
     id="circle188"
     style="fill:#1d1918" />
  <path
     class="cls-1"
     d="m 315.86123,461.49978 10.11,14.43"
     id="path190"
     style="fill:none;stroke:#5e6263;stroke-width:2px;stroke-miterlimit:10" />
  <path
     class="cls-1"
     d="m 263.00123,386.03978 8.7,12.43"
     id="path192"
     style="fill:none;stroke:#5e6263;stroke-width:2px;stroke-miterlimit:10" />
  <path
     class="cls-1"
     d="m 278.12123,456.10978 c -4.37,6.65 -9,13.13 -13.29,19.82"
     id="path194"
     style="fill:none;stroke:#5e6263;stroke-width:2px;stroke-miterlimit:10" />
  <path
     class="cls-1"
     d="m 325.97123,384.71978 -7.9,11.78"
     id="path196"
     style="fill:none;stroke:#5e6263;stroke-width:2px;stroke-miterlimit:10" />
  <path
     class="cls-1"
     d="m 335.07123,429.91978 15.21,0.4"
     id="path198"
     style="fill:none;stroke:#5e6263;stroke-width:2px;stroke-miterlimit:10" />
  <path
     class="cls-1"
     d="m 240.57123,427.40978 18.54,0.49"
     id="path200"
     style="fill:none;stroke:#5e6263;stroke-width:2px;stroke-miterlimit:10" />
  <path
     class="cls-1"
     d="m 329.58123,449.29978 c 4.57,2.63 9.18,5.21 13.51,8.24"
     id="path202"
     style="fill:none;stroke:#5e6263;stroke-width:2px;stroke-miterlimit:10" />
  <path
     class="cls-1"
     d="m 249.19123,400.65978 11.51,7"
     id="path204"
     style="fill:none;stroke:#5e6263;stroke-width:2px;stroke-miterlimit:10" />
  <path
     class="cls-1"
     d="m 295.33123,462.48978 c -0.27,7.57 -0.24,15.16 0.07,22.73"
     id="path206"
     style="fill:none;stroke:#5e6263;stroke-width:2px;stroke-miterlimit:10" />
  <path
     class="cls-1"
     d="m 295.40123,375.41978 v 14.43"
     id="path208"
     style="fill:none;stroke:#5e6263;stroke-width:2px;stroke-miterlimit:10" />
  <path
     class="cls-1"
     d="m 328.98123,410.65978 14.09,-7.62"
     id="path210"
     style="fill:none;stroke:#5e6263;stroke-width:2px;stroke-miterlimit:10" />
  <path
     class="cls-1"
     d="m 248.99123,454.03978 15.9,-8.62"
     id="path212"
     style="fill:none;stroke:#5e6263;stroke-width:2px;stroke-miterlimit:10" />
  <circle
     class="cls-9"
     cx="166.27122"
     cy="425.65979"
     r="54.900002"
     id="circle214"
     style="fill:#433e38" />
  <ellipse
     class="cls-24"
     cx="166.27122"
     cy="425.65979"
     rx="30.57"
     ry="28.440001"
     id="ellipse216"
     style="fill:#dedfda" />
  <circle
     class="cls-25"
     cx="166.27122"
     cy="426.45981"
     r="13.86"
     id="circle218"
     style="fill:#1d1918" />
  <ellipse
     class="cls-25"
     cx="154.10123"
     cy="403.5498"
     rx="2.3"
     ry="1.98"
     id="ellipse220"
     style="fill:#1d1918" />
  <ellipse
     class="cls-25"
     cx="170.64124"
     cy="401.56979"
     rx="2.29"
     ry="1.98"
     id="ellipse222"
     style="fill:#1d1918" />
  <ellipse
     class="cls-25"
     cx="185.06123"
     cy="409.45981"
     rx="2.3"
     ry="1.98"
     id="ellipse224"
     style="fill:#1d1918" />
  <ellipse
     class="cls-25"
     cx="191.94122"
     cy="424.6698"
     rx="2.29"
     ry="1.98"
     id="ellipse226"
     style="fill:#1d1918" />
  <ellipse
     class="cls-25"
     cx="143.14124"
     cy="414.0798"
     rx="2.3"
     ry="1.98"
     id="ellipse228"
     style="fill:#1d1918" />
  <ellipse
     class="cls-25"
     cx="140.66122"
     cy="426.36978"
     rx="2.29"
     ry="1.98"
     id="ellipse230"
     style="fill:#1d1918" />
  <ellipse
     class="cls-25"
     cx="145.43123"
     cy="440.18979"
     rx="2.29"
     ry="1.98"
     id="ellipse232"
     style="fill:#1d1918" />
  <ellipse
     class="cls-25"
     cx="157.74123"
     cy="449.36978"
     rx="2.29"
     ry="1.98"
     id="ellipse234"
     style="fill:#1d1918" />
  <ellipse
     class="cls-25"
     cx="174.63123"
     cy="449.90979"
     rx="2.3"
     ry="1.98"
     id="ellipse236"
     style="fill:#1d1918" />
  <ellipse
     class="cls-25"
     cx="188.43123"
     cy="439.0798"
     rx="2.29"
     ry="1.98"
     id="ellipse238"
     style="fill:#1d1918" />
  <circle
     class="cls-25"
     cx="157.74123"
     cy="438.20981"
     r="1.6900001"
     id="circle240"
     style="fill:#1d1918" />
  <circle
     class="cls-25"
     cx="179.38123"
     cy="420.98981"
     r="1.6900001"
     id="circle242"
     style="fill:#1d1918" />
  <circle
     class="cls-25"
     cx="181.07123"
     cy="429.40979"
     r="1.6900001"
     id="circle244"
     style="fill:#1d1918" />
  <circle
     class="cls-25"
     cx="156.39124"
     cy="415.76981"
     r="1.6900001"
     id="circle246"
     style="fill:#1d1918" />
  <circle
     class="cls-25"
     cx="172.93123"
     cy="414.0798"
     r="1.6900001"
     id="circle248"
     style="fill:#1d1918" />
  <circle
     class="cls-25"
     cx="164.10123"
     cy="412.09979"
     r="1.6900001"
     id="circle250"
     style="fill:#1d1918" />
  <circle
     class="cls-25"
     cx="152.41122"
     cy="431.5798"
     r="1.6900001"
     id="circle252"
     style="fill:#1d1918" />
  <circle
     class="cls-25"
     cx="166.27122"
     cy="441.05978"
     r="1.6900001"
     id="circle254"
     style="fill:#1d1918" />
  <circle
     class="cls-25"
     cx="176.32123"
     cy="437.6698"
     r="1.6900001"
     id="circle256"
     style="fill:#1d1918" />
  <circle
     class="cls-25"
     cx="151.80122"
     cy="422.68979"
     r="1.6900001"
     id="circle258"
     style="fill:#1d1918" />
  <path
     class="cls-1"
     d="m 186.69123,455.83978 10.11,14.43"
     id="path260"
     style="fill:none;stroke:#5e6263;stroke-width:2px;stroke-miterlimit:10" />
  <path
     class="cls-1"
     d="m 133.83123,380.33978 8.7,12.43"
     id="path262"
     style="fill:none;stroke:#5e6263;stroke-width:2px;stroke-miterlimit:10" />
  <path
     class="cls-1"
     d="m 148.95123,450.45978 c -4.37,6.65 -9,13.12 -13.29,19.81"
     id="path264"
     style="fill:none;stroke:#5e6263;stroke-width:2px;stroke-miterlimit:10" />
  <path
     class="cls-1"
     d="m 196.80123,379.03978 -7.9,11.78"
     id="path266"
     style="fill:none;stroke:#5e6263;stroke-width:2px;stroke-miterlimit:10" />
  <path
     class="cls-1"
     d="m 205.92123,424.25978 15.21,0.41"
     id="path268"
     style="fill:none;stroke:#5e6263;stroke-width:2px;stroke-miterlimit:10" />
  <path
     class="cls-1"
     d="m 111.40123,421.74978 18.55,0.49"
     id="path270"
     style="fill:none;stroke:#5e6263;stroke-width:2px;stroke-miterlimit:10" />
  <path
     class="cls-1"
     d="m 200.41123,443.63978 c 4.57,2.64 9.18,5.21 13.51,8.24"
     id="path272"
     style="fill:none;stroke:#5e6263;stroke-width:2px;stroke-miterlimit:10" />
  <path
     class="cls-1"
     d="m 120.07123,395.03978 11.51,7"
     id="path274"
     style="fill:none;stroke:#5e6263;stroke-width:2px;stroke-miterlimit:10" />
  <path
     class="cls-1"
     d="m 166.16123,456.82978 q -0.41,11.37 0.07,22.74"
     id="path276"
     style="fill:none;stroke:#5e6263;stroke-width:2px;stroke-miterlimit:10" />
  <path
     class="cls-1"
     d="m 166.23123,369.76978 v 14.42"
     id="path278"
     style="fill:none;stroke:#5e6263;stroke-width:2px;stroke-miterlimit:10" />
  <path
     class="cls-1"
     d="m 199.81123,405.03978 14.07,-7.63"
     id="path280"
     style="fill:none;stroke:#5e6263;stroke-width:2px;stroke-miterlimit:10" />
  <path
     class="cls-1"
     d="m 119.82123,448.37978 15.9,-8.62"
     id="path282"
     style="fill:none;stroke:#5e6263;stroke-width:2px;stroke-miterlimit:10" />
  <rect
     class="cls-9"
     x="386.75122"
     y="399.58978"
     width="102.24"
     height="26.530001"
     rx="12"
     id="rect284"
     style="fill:#433e38" />
  <rect
     class="cls-9"
     x="493.79123"
     y="366.98981"
     width="55.200001"
     height="30.23"
     id="rect286"
     style="fill:#433e38" />
  <circle
     class="cls-9"
     cx="507.68121"
     cy="412.89978"
     r="9.5699997"
     id="circle288"
     style="fill:#433e38" />
  <circle
     class="cls-9"
     cx="530.78125"
     cy="412.09979"
     r="9.5699997"
     id="circle290"
     style="fill:#433e38" />
  <line
     class="cls-1"
     x1="85.741219"
     y1="356.18979"
     x2="87.281227"
     y2="447.3898"
     id="line292"
     style="fill:none;stroke:#5e6263;stroke-width:2px;stroke-miterlimit:10" />
</svg>
