<?xml version="1.0" encoding="UTF-8" standalone="no"?>
<svg
   viewBox="0 0 320.5296 261.56141"
   version="1.1"
   id="svg34"
   sodipodi:docname="egg_carton_2.svg"
   width="320.5296"
   height="261.5614"
   inkscape:version="1.2.2 (b0a8486541, 2022-12-01)"
   xmlns:inkscape="http://www.inkscape.org/namespaces/inkscape"
   xmlns:sodipodi="http://sodipodi.sourceforge.net/DTD/sodipodi-0.dtd"
   xmlns="http://www.w3.org/2000/svg"
   xmlns:svg="http://www.w3.org/2000/svg">
  <sodipodi:namedview
     id="namedview36"
     pagecolor="#ffffff"
     bordercolor="#000000"
     borderopacity="0.25"
     inkscape:showpageshadow="2"
     inkscape:pageopacity="0.0"
     inkscape:pagecheckerboard="0"
     inkscape:deskcolor="#d1d1d1"
     showgrid="false"
     inkscape:zoom="1.9717053"
     inkscape:cx="170.66445"
     inkscape:cy="159.76019"
     inkscape:window-width="1920"
     inkscape:window-height="1011"
     inkscape:window-x="0"
     inkscape:window-y="32"
     inkscape:window-maximized="1"
     inkscape:current-layer="svg34" />
  <defs
     id="defs4">
    <style
       id="style2">.a{fill:#8ac85d;}.b{fill:#b6e78b;}.c{fill:#9de567;}.d{fill:#c8f998;}.e{fill:#7acd49;}.f{fill:#dfc48f;stroke:#382f2a;}.f,.g,.h,.i,.j{stroke-miterlimit:10;}.g{fill:#dfc8a6;}.g,.h{stroke:#3b312b;}.h,.j{fill:#eadac0;}.i{fill:#eae1d2;}.i,.j{stroke:#362d28;}</style>
  </defs>
  <path
     class="a"
     d="m 27.86243,118.06928 c -1.31,-1.35 -25.9999994,11.91 -27.76999944,34.67 0,0.2 -0.11,1.33 -0.09,2.58 0.11,7.85 4.00000004,24.32 36.22999944,55.58 35.93,34.85 72.55,54.61 86.62,50 12.81,-4.17 26.56,-12 26.57,-12 v 0 l 12.59,-7.83 c 87.27,-54.16 111.85,-70.38 139,-96.81 3.22,-3.13 8.91,-8.79 15.77,-16.3 3,-11.07 5.71,-24 1.81,-26.08 -6.08,-3.179996 -18.43,25.13 -49,51.66 -40.09,34.8 -95.54,52.69 -112.83,74.74 a 41.76,41.76 0 0 1 -8.49,8.34 c -12.83,9.43 -27.86,9 -30,8.89 -14.8,-0.63 -25,-8.58 -43.27,-22.73 -12.72,-9.88 -12.44,-12.49 -23.37,-19.18 -6.17,-3.79 -11.71,-6.28 -17.51,-13 -2.07,-2.4 -1.58,-2.32 -8,-11 -6.86,-9.37 -7.91,-10.11 -9.86,-13.64 -0.33,-0.6 -4.62,-8.49 -5.26,-15.84 -1.5400004,-17.7 18.12,-30.83 16.86,-32.05 z"
     id="path6"
     style="fill:#8ac85d" />
  <path
     class="b"
     d="m 301.59243,134.65928 c -28.33,20.85 -58.58,41.92 -90.79,62.91 -21.37,13.93 -43.69,26.38 -64.94,40.5 -4.18,2.79 -13.45,9 -26.11,9.05 -10.59,0 -19,-4.29 -23.87,-7.39 -20.75,-15 -37.51,-28.57 -50.16,-39.39 -11.15,-9.53 -23.26,-17.44 -31.82,-33.35 -4.1800004,-7.78 -7.7300004,-14.38 -7.2100004,-22.65 1,-15.32 15.2200004,-25.9 40.0000004,-42.3 30.77,-20.399996 40.24,-25.999996 60.91,-38.179996 13.75,-8.07 76.95,-48.32 93.31,-47.84 2.69,0.08 7.95,-0.8 14.52,1 a 34.06,34.06 0 0 1 11.14,5.49 c 8,5.66 24.14,15.75 46.63,29.56 a 173.41,173.41 0 0 1 42.23,40.81 27.39,27.39 0 0 1 3.63,11.829996 c 1.09,17.47 -16.2,29.11 -17.47,29.95 z"
     id="path8"
     style="fill:#b6e78b" />
  <path
     class="c"
     d="m 11.23243,161.89928 c 2,-0.06 0.46,-10.51 7.14,-22.35 0.82,-1.45 1.7,-2.71 3.45,-5.25 a 187.7,187.7 0 0 1 11.8,-15.23 c 8,-9.14 22.82,-17.1 40.88,-26.689996 15.36,-8.21 66.36,-41.43 73.16,-45.43 a 151.63,151.63 0 0 1 23.79,-11.68 c 15.41,-5.89 24.63,-9.41 36.12,-7.69 10.05,1.5 17.35,6.26 30.61,15.19 2.43,1.64 1.27,1 17,12.56 12.54,9.22 14.74,10.71 20,14.8 10.1,7.82 15.15,11.74 17.59,14.44 14.63,16.289996 13.38,35.739996 18.23,35.559996 2.89,-0.1 5.19,-7 5.62,-11.83 0.48,-5.34 -1.18,-9.939996 -4.7,-16.089996 a 99.31,99.31 0 0 0 -21.56,-25.78 c -5.75,-4.93 -7.64,-5.9 -23.5,-17 -21.61,-15.15 -26.27,-19.08 -37.72,-25.11 -14.48,-7.61 -20.24,-8.25 -22.94,-8.44 -10.74,-0.74 -19.22,2.83 -26.4,7 -15.41,8.88 -31.93,15.87 -46.79,25.63 0,0 -23.94,15.61 -53.88,32.46 0,0 -39.43,22.209996 -63,44.269996 a 29.45,29.45 0 0 0 -7.6600004,11.21 c -4.479999,12.07 0.45,25.52 2.7600004,25.45 z"
     id="path10"
     style="fill:#9de567" />
  <path
     class="d"
     d="m 317.98243,98.899284 a 133.74,133.74 0 0 0 -14.37,-20.43 c -0.6,-0.7 -1.25,-1.45 -2,-2.27 -11.43,-12.4 -28.45,-24.13 -28.45,-24.13 -42.7,-29 -55.32,-32.53 -60.8,-33.86 a 69.62,69.62 0 0 0 -11.5,-2.14 c -28.35,-2.46 -41.86,17.28 -97.54,50.5 -6.87,4.1 -12.37,7.17 -23.71,14.16 -9.53,5.88 -20.06,12.66 -37.19,23.999996 -24.75,16.4 -38.9999994,27 -39.9999994,42.3 -0.52,8.27 2.999999,14.88 7.219999,22.65 8.5600004,15.92 20.6700004,23.83 31.8100004,33.36 12.66,10.82 29.41,24.41 50.17,39.39 4.87,3.09 13.28,7.41 23.86,7.38 12.66,0 21.94,-6.26 26.12,-9 21.24,-14.13 43.56,-26.58 64.94,-40.51 82.87,-54 54.39,-40.7 90.79,-62.91 5.07,-3.09 17.24,-10.37 20.62,-23.61 a 31.31,31.31 0 0 0 0.03,-14.879996 z m -23.44,36.529996 c -23.77,13.33 -43.85,32.44 -66.7,47.29 -25.82,16.79 -54,30.16 -78.13,49.34 -5.6,4.46 -16.47,13.41 -31,13.19 -9,-0.14 -15.54,-3.73 -26.86,-10.8 -28,-17.5 -42,-26.25 -54.63,-39.18 -16.07,-16.45 -27,-27.93 -26.37,-43.78 0.34,-8.87 4.12,-15.36 7.54,-21.07 10.58,-17.71 25.65,-25.39 44.23,-35.999996 13.74,-7.86 27.77,-16.8 55.83,-34.7 35,-22.32 45.68,-31.51 67.82,-35.33 7.73,-1.33 16.05,-2.77 26.87,-0.95 12.72,2.13 27.15,12.63 55.6,33.57 5.08,3.74 12.1,9.72 26.15,21.68 7.54,6.43 13.32,11.5 16.94,20.25 1.36,3.289996 3.49,8.459996 2.68,14.279996 -1.65,12.17 -15.25,19.57 -19.97,22.21 z"
     id="path12"
     style="fill:#c8f998" />
  <ellipse
     class="e"
     cx="60.622425"
     cy="161.89928"
     rx="33.970001"
     ry="28.799999"
     id="ellipse14"
     style="fill:#7acd49" />
  <ellipse
     class="e"
     cx="119.31242"
     cy="210.40929"
     rx="33.970001"
     ry="28.799999"
     id="ellipse16"
     style="fill:#7acd49" />
  <ellipse
     class="e"
     cx="194.23242"
     cy="168.32928"
     rx="33.970001"
     ry="28.26"
     id="ellipse18"
     style="fill:#7acd49" />
  <ellipse
     class="e"
     cx="257.03244"
     cy="124.76927"
     rx="31.030001"
     ry="28.26"
     id="ellipse20"
     style="fill:#7acd49" />
  <ellipse
     class="f"
     cx="48.027626"
     cy="136.59554"
     rx="41.799999"
     ry="51.23"
     transform="rotate(-5.38)"
     id="ellipse22"
     style="fill:#dfc48f;stroke:#382f2a;stroke-miterlimit:10" />
  <ellipse
     class="g"
     cx="139.39243"
     cy="88.839279"
     rx="41.799999"
     ry="51.23"
     id="ellipse24"
     style="fill:#dfc8a6;stroke:#3b312b;stroke-miterlimit:10" />
  <ellipse
     class="h"
     cx="213.27515"
     cy="55.563023"
     rx="39.110001"
     ry="47.220001"
     transform="rotate(-2.1)"
     id="ellipse26"
     style="fill:#eadac0;stroke:#3b312b;stroke-miterlimit:10" />
  <ellipse
     class="f"
     cx="256.14487"
     cy="109.82265"
     rx="39.900002"
     ry="46.93"
     transform="rotate(-2.1)"
     id="ellipse28"
     style="fill:#dfc48f;stroke:#382f2a;stroke-miterlimit:10" />
  <ellipse
     class="i"
     cx="112.59344"
     cy="185.84357"
     rx="42.209999"
     ry="49.68"
     transform="rotate(-2.1)"
     id="ellipse30"
     style="fill:#eae1d2;stroke:#362d28;stroke-miterlimit:10" />
  <ellipse
     class="j"
     cx="190.27124"
     cy="147.1196"
     rx="42.209999"
     ry="49.68"
     transform="rotate(-2.1)"
     id="ellipse32"
     style="fill:#eadac0;stroke:#362d28;stroke-miterlimit:10" />
</svg>
