<?xml version="1.0" encoding="UTF-8" standalone="no"?>
<svg
   viewBox="0 0 320.49959 245.73989"
   version="1.1"
   id="svg50"
   sodipodi:docname="empty_egg_carton.svg"
   width="320.4996"
   height="245.7399"
   inkscape:version="1.2.2 (b0a8486541, 2022-12-01)"
   xmlns:inkscape="http://www.inkscape.org/namespaces/inkscape"
   xmlns:sodipodi="http://sodipodi.sourceforge.net/DTD/sodipodi-0.dtd"
   xmlns="http://www.w3.org/2000/svg"
   xmlns:svg="http://www.w3.org/2000/svg">
  <sodipodi:namedview
     id="namedview52"
     pagecolor="#ffffff"
     bordercolor="#000000"
     borderopacity="0.25"
     inkscape:showpageshadow="2"
     inkscape:pageopacity="0.0"
     inkscape:pagecheckerboard="0"
     inkscape:deskcolor="#d1d1d1"
     showgrid="false"
     inkscape:zoom="1.5864911"
     inkscape:cx="191.933"
     inkscape:cy="156.95014"
     inkscape:window-width="1920"
     inkscape:window-height="1011"
     inkscape:window-x="0"
     inkscape:window-y="32"
     inkscape:window-maximized="1"
     inkscape:current-layer="svg50" />
  <defs
     id="defs4">
    <style
       id="style2">.a{fill:#8ac85d;}.b{fill:#b6e78b;}.c{fill:#9de567;}.d{fill:#c8f998;}.e{fill:#7acd49;}.f{fill:#a1dd7a;}.g{fill:#c8e8a7;}</style>
  </defs>
  <path
     class="a"
     d="m 27.862431,102.24778 c -1.31,-1.35 -26.0000004,11.91 -27.77000044,34.67 0,0.2 -0.11,1.33 -0.09,2.58 0.11,7.85 4.00000004,24.32 36.23000044,55.58 35.93,34.85 72.549999,54.61 86.619999,50 12.81,-4.17 26.56,-12 26.57,-12 v 0 l 12.56,-7.79 c 87.27,-54.16 111.85,-70.38 139,-96.81 3.22,-3.13 8.91,-8.79 15.77,-16.3 3,-11.07 5.71,-24.000002 1.81,-26.080002 -6.08,-3.18 -18.43,25.130002 -49,51.660002 -40.09,34.8 -95.54,52.69 -112.83,74.74 a 41.76,41.76 0 0 1 -8.49,8.34 c -12.83,9.43 -27.86,9 -30,8.89 -14.8,-0.63 -24.999999,-8.58 -43.269999,-22.73 -12.72,-9.88 -12.44,-12.49 -23.37,-19.18 -6.17,-3.79 -11.71,-6.28 -17.51,-13 -2.07,-2.4 -1.58,-2.32 -8,-11 -6.86,-9.37 -7.91,-10.11 -9.86,-13.64 -0.33,-0.6 -4.62,-8.49 -5.26,-15.84 -1.5400004,-17.7 18.12,-30.83 16.89,-32.09 z"
     id="path6"
     style="fill:#8ac85d" />
  <path
     class="b"
     d="m 301.56243,118.87778 c -28.33,20.85 -58.58,41.92 -90.79,62.91 -21.37,13.93 -43.69,26.38 -64.94,40.5 -4.18,2.79 -13.45,9 -26.11,9.05 -10.59,0 -19,-4.29 -23.869999,-7.39 -20.75,-15 -37.51,-28.57 -50.16,-39.39 -11.15,-9.53 -23.26,-17.44 -31.82,-33.35 -4.1800004,-7.78 -7.7300004,-14.38 -7.2100004,-22.65 1,-15.32 15.2200004,-25.9 40.0000004,-42.300002 30.77,-20.4 40.24,-26 60.909999,-38.18 13.75,-8.07 76.95,-48.32000018 93.31,-47.84000018 2.69,0.08 8,-0.8 14.52,0.99999998 a 34.06,34.06 0 0 1 11.14,5.49 c 8,5.6600002 24.14,15.7500002 46.63,29.5600002 a 173.41,173.41 0 0 1 42.23,40.81 27.39,27.39 0 0 1 3.63,11.83 c 1.09,17.470002 -16.18,29.110002 -17.47,29.950002 z"
     id="path8"
     style="fill:#b6e78b" />
  <path
     class="c"
     d="m 11.202431,146.11778 c 2,-0.06 0.46,-10.51 7.14,-22.35 0.82,-1.45 1.7,-2.71 3.45,-5.25 a 187.7,187.7 0 0 1 11.8,-15.27 c 8,-9.140002 22.82,-17.100002 40.88,-26.690002 15.39,-8.17 66.399999,-41.39 73.159999,-45.39 a 151.63,151.63 0 0 1 23.79,-11.68 c 15.41,-5.89 24.63,-9.41 36.12,-7.69 10,1.5 17.35,6.26 30.61,15.19 2.43,1.64 1.27,1 17,12.56 12.54,9.22 14.74,10.71 20,14.8 10.1,7.82 15.15,11.74 17.59,14.44 14.63,16.29 13.38,35.740002 18.23,35.560002 2.89,-0.1 5.19,-7.000002 5.62,-11.830002 0.48,-5.34 -1.18,-9.94 -4.7,-16.09 a 99.31,99.31 0 0 0 -21.56,-25.78 c -5.75,-4.93 -7.64,-5.9 -23.5,-17 -21.61,-15.15 -26.27,-19.08 -37.72,-25.1100002 -14.48,-7.60999998 -20.24,-8.24999998 -22.94,-8.43999998 -10.74,-0.74 -19.22,2.82999998 -26.4,6.99999998 -15.38,8.8700002 -31.9,15.8700002 -46.76,25.5900002 0,0 -23.94,15.61 -53.879999,32.46 0,0 -39.43,22.21 -63,44.270002 a 29.45,29.45 0 0 0 -7.6600004,11.21 c -4.51,12.11 0.42,25.56 2.7300004,25.49 z"
     id="path10"
     style="fill:#9de567" />
  <path
     class="d"
     d="m 317.95243,83.117778 a 133.74,133.74 0 0 0 -14.37,-20.43 c -0.6,-0.7 -1.25,-1.45 -2,-2.27 -11.43,-12.4 -28.45,-24.15 -28.45,-24.15 -42.7,-29.0500002 -55.32,-32.5300002 -60.8,-33.8600002 a 69.62,69.62 0 0 0 -11.49,-2.16999998 c -28.35,-2.46000002 -41.86,17.28000018 -97.54,50.50000018 -6.869999,4.1 -12.369999,7.17 -23.709999,14.16 -9.53,5.88 -20.06,12.66 -37.19,24 -24.75,16.400002 -39.0000004,27.000002 -40.0000004,42.300002 -0.52,8.27 3,14.88 7.22,22.65 8.5600004,15.92 20.6700004,23.83 31.8100004,33.36 12.66,10.82 29.41,24.41 50.17,39.39 4.87,3.09 13.279999,7.41 23.859999,7.38 12.66,0 21.94,-6.26 26.12,-9 21.24,-14.13 43.56,-26.58 64.94,-40.51 82.87,-54 54.39,-40.7 90.79,-62.91 5.07,-3.09 17.24,-10.37 20.62,-23.610002 a 31.31,31.31 0 0 0 0.02,-14.83 z m -23.44,36.530002 c -23.77,13.32 -43.85,32.44 -66.7,47.32 -25.82,16.79 -54,30.16 -78.13,49.34 -5.6,4.46 -16.47,13.41 -31,13.19 -9,-0.14 -15.54,-3.73 -26.859999,-10.8 -28,-17.5 -42,-26.25 -54.63,-39.18 -16.07,-16.45 -27,-27.93 -26.37,-43.78 0.34,-8.87 4.12,-15.36 7.54,-21.07 10.58,-17.710002 25.65,-25.390002 44.23,-36.000002 13.72,-7.89 27.72,-16.83 55.809999,-34.7 35,-22.32 45.68,-31.51 67.82,-35.3300002 7.73,-1.33 16,-2.77 26.87,-0.95 12.69,2.13 27.17,12.6400002 55.62,33.5700002 5.08,3.74 12.1,9.72 26.15,21.68 7.54,6.43 13.32,11.5 16.94,20.25 1.36,3.29 3.49,8.46 2.68,14.28 -1.7,12.140002 -15.25,19.500002 -19.97,22.180002 z"
     id="path12"
     style="fill:#c8f998" />
  <ellipse
     class="e"
     cx="62.132446"
     cy="134.35779"
     rx="38"
     ry="31.450001"
     id="ellipse14"
     style="fill:#7acd49" />
  <ellipse
     class="e"
     cx="131.41243"
     cy="88.687775"
     rx="35.639999"
     ry="29.23"
     id="ellipse16"
     style="fill:#7acd49" />
  <ellipse
     class="e"
     cx="201.32243"
     cy="51.937775"
     rx="33.810001"
     ry="27.98"
     id="ellipse18"
     style="fill:#7acd49" />
  <ellipse
     class="e"
     cx="118.13243"
     cy="180.85779"
     rx="38"
     ry="31.450001"
     id="ellipse20"
     style="fill:#7acd49" />
  <ellipse
     class="e"
     cx="185.13243"
     cy="139.43777"
     rx="38"
     ry="31.450001"
     id="ellipse22"
     style="fill:#7acd49" />
  <ellipse
     class="e"
     cx="257.10239"
     cy="100.25778"
     rx="33.970001"
     ry="28.799999"
     id="ellipse24"
     style="fill:#7acd49" />
  <path
     class="f"
     d="m 35.942431,117.36778 c 0.33,2.34 9.11,0.5 21.19,6.54 4.25,2.12 9.54,4.77 13.5,10.25 6.9,9.55 3.94,19.69 7.58,20.54 3.06,0.71 7.18,-5.93 8.92,-9.79 1.27,-2.79 5.35,-13.14 0,-23 -5.88,-10.84 -18.46,-12.43 -23,-13 -14.69,-1.85 -28.62,5.46 -28.19,8.46 z"
     id="path26"
     style="fill:#a1dd7a" />
  <path
     class="f"
     d="m 104.47243,74.377778 c 0.33,2.33 9.11,0.49 21.2,6.53 4.24,2.13 9.54,4.77 13.49,10.25 6.9,9.550002 3.94,19.690002 7.59,20.540002 3.05,0.71 7.17,-5.93 8.92,-9.79 1.26,-2.790002 5.35,-13.130002 0,-23.000002 -5.89,-10.83 -18.47,-12.42 -23,-13 -14.7,-1.85 -28.63,5.46 -28.2,8.47 z"
     id="path28"
     style="fill:#a1dd7a" />
  <path
     class="f"
     d="m 174.39243,37.627778 c 0.33,2.33 9.11,0.49 21.19,6.53 4.25,2.13 9.54,4.77 13.5,10.25 6.9,9.55 3.94,19.69 7.58,20.54 3.06,0.71 7.18,-5.93 8.92,-9.79 1.27,-2.79 5.35,-13.13 0,-23 -5.88,-10.83 -18.46,-12.42 -23,-13 -14.69,-1.85 -28.62,5.46 -28.19,8.47 z"
     id="path30"
     style="fill:#a1dd7a" />
  <path
     class="f"
     d="m 95.772431,163.50778 c 0.34,2.34 9.119999,0.5 21.199999,6.54 4.24,2.12 9.54,4.77 13.5,10.25 6.89,9.55 3.94,19.69 7.58,20.54 3.05,0.71 7.18,-5.93 8.92,-9.79 1.26,-2.8 5.35,-13.14 0,-23 -5.88,-10.84 -18.46,-12.43 -23,-13 -14.66,-1.86 -28.659999,5.46 -28.199999,8.46 z"
     id="path32"
     style="fill:#a1dd7a" />
  <path
     class="f"
     d="m 162.70243,122.54778 c 0.33,2.34 9.11,0.5 21.19,6.54 4.25,2.12 9.54,4.77 13.5,10.25 6.9,9.55 3.94,19.69 7.58,20.54 3.06,0.71 7.18,-5.93 8.92,-9.79 1.27,-2.8 5.35,-13.14 0,-23 -5.88,-10.84 -18.46,-12.43 -23,-13 -14.69,-1.86 -28.58,5.46 -28.19,8.46 z"
     id="path34"
     style="fill:#a1dd7a" />
  <path
     class="f"
     d="m 235.63243,84.577778 c 0.33,2.34 9.11,0.5 21.19,6.54 4.25,2.12 9.54,4.77 13.5,10.250002 6.9,9.54 3.94,19.69 7.58,20.54 3.06,0.71 7.18,-5.93 8.92,-9.79 1.27,-2.8 5.36,-13.140002 0,-23.000002 -5.88,-10.84 -18.46,-12.43 -23,-13 -14.69,-1.86 -28.62,5.46 -28.19,8.46 z"
     id="path36"
     style="fill:#a1dd7a" />
  <path
     class="g"
     d="m 80.202431,132.96778 c 1.1,-0.31 1.73,-11.44 -4.72,-17.63 -9.41,-9 -27.72,-1.57 -27.63,-0.32 0.09,1.25 15.79,-3 25.31,6 5.51,5.23 6.15,12.2 7.04,11.95 z"
     id="path38"
     style="fill:#c8e8a7" />
  <path
     class="g"
     d="m 122.62243,71.237778 c -0.19,-1.12 9.61,-6.44 17.95,-3.25 12.19,4.65 13.26,24.39 12.09,24.84 -1.17,0.45 -4,-15.56 -16.25,-20.32 -7.1,-2.75 -13.64,-0.36 -13.79,-1.27 z"
     id="path40"
     style="fill:#c8e8a7" />
  <path
     class="g"
     d="m 217.48243,53.157778 c 1.1,-0.31 1.73,-11.44 -4.72,-17.62 -9.41,-9 -27.72,-1.58 -27.63,-0.33 0.09,1.25 15.79,-3 25.31,6 5.51,5.23 6.16,12.2 7.04,11.95 z"
     id="path42"
     style="fill:#c8e8a7" />
  <path
     class="g"
     d="m 278.39243,99.697778 c 1.09,-0.31 1.73,-11.44 -4.72,-17.63 -9.41,-9 -27.72,-1.57 -27.63,-0.32 0.09,1.25 15.79,-3 25.31,6 5.5,5.22 6.16,12.22 7.04,11.95 z"
     id="path44"
     style="fill:#c8e8a7" />
  <path
     class="g"
     d="m 205.46243,135.81778 c 1.09,-0.31 1.73,-11.44 -4.72,-17.63 -9.41,-9 -27.73,-1.57 -27.63,-0.32 0.1,1.25 15.79,-3 25.31,6 5.5,5.23 6.16,12.2 7.04,11.95 z"
     id="path46"
     style="fill:#c8e8a7" />
  <path
     class="g"
     d="m 141.81243,177.96778 c 1.09,-0.3 1.73,-11.44 -4.72,-17.62 -9.41,-9 -27.72,-1.58 -27.63,-0.33 0.09,1.25 15.79,-3 25.31,6 5.54,5.19 6.16,12.16 7.04,11.95 z"
     id="path48"
     style="fill:#c8e8a7" />
</svg>
