<?xml version="1.0" encoding="UTF-8" standalone="no"?>
<svg
   viewBox="0 0 452.42335 657.54839"
   version="1.1"
   id="svg308"
   sodipodi:docname="book_colored_1.svg"
   width="452.42337"
   height="657.5484"
   inkscape:version="1.2.2 (b0a8486541, 2022-12-01)"
   xmlns:inkscape="http://www.inkscape.org/namespaces/inkscape"
   xmlns:sodipodi="http://sodipodi.sourceforge.net/DTD/sodipodi-0.dtd"
   xmlns="http://www.w3.org/2000/svg"
   xmlns:svg="http://www.w3.org/2000/svg">
  <sodipodi:namedview
     id="namedview310"
     pagecolor="#ffffff"
     bordercolor="#000000"
     borderopacity="0.25"
     inkscape:showpageshadow="2"
     inkscape:pageopacity="0.0"
     inkscape:pagecheckerboard="0"
     inkscape:deskcolor="#d1d1d1"
     showgrid="false"
     inkscape:zoom="0.99656723"
     inkscape:cx="217.24575"
     inkscape:cy="523.79808"
     inkscape:window-width="1920"
     inkscape:window-height="1011"
     inkscape:window-x="0"
     inkscape:window-y="32"
     inkscape:window-maximized="1"
     inkscape:current-layer="svg308" />
  <defs
     id="defs4">
    <style
       id="style2">.a{fill:#b6d333;}.a,.c{stroke:#d6de23;stroke-miterlimit:10;}.b{fill:#f8f29a;}.c{fill:#93a83b;}.d{fill:#669940;}.e{fill:#2a9859;}.f{fill:#33b568;}</style>
  </defs>
  <path
     class="a"
     d="m 451.92126,650.17326 -412.450004,-25.55 -1.58,-589.37 L 449.36126,8.6632602 q 1.28,320.7599998 2.56,641.5099998 z"
     id="path6"
     style="fill:#b6d333;stroke:#d6de23;stroke-miterlimit:10" />
  <path
     class="b"
     d="m 444.21126,643.56326 -57.64,2.34 v 0 q -0.93,-316.53 -1.85,-633.06 l 23.1,-1.5 v 0 l 33.75,2.37 q 1.33,314.93 2.64,629.85 z"
     id="path8"
     style="fill:#f8f29a" />
  <path
     class="c"
     d="m 424.07126,657.02326 -421.9400037,-20.55 -1.63,-608.75 L 419.42126,0.53326021 Z"
     id="path10"
     style="fill:#93a83b;stroke:#d6de23;stroke-miterlimit:10" />
  <path
     class="d"
     d="m 387.84126,600.51326 -343.480004,-17.71 -7.5,-513.6 348.000004,-21.73 z"
     id="path12"
     style="fill:#669940" />
  <path
     class="e"
     d="m 33.781256,532.16326 a 5.7206315,5.7206315 0 1 0 11.44,-0.17 z"
     id="path14"
     style="fill:#2a9859" />
  <path
     class="e"
     d="m 45.761256,569.43326 a 5.72,5.72 0 1 0 -11.43,0.17 z"
     id="path16"
     style="fill:#2a9859" />
  <polygon
     class="f"
     points="102.59,643.93 110.08,636.07 117.81,643.71 110.31,651.58 "
     id="polygon18"
     style="fill:#33b568"
     transform="translate(-70.428744,-93.02674)" />
  <path
     class="e"
     d="m 33.231256,494.72326 a 5.7205594,5.7205594 0 1 0 11.44,-0.16 z"
     id="path20"
     style="fill:#2a9859" />
  <path
     class="e"
     d="m 45.221256,531.97326 a 5.7206315,5.7206315 0 1 0 -11.44,0.17 z"
     id="path22"
     style="fill:#2a9859" />
  <polygon
     class="f"
     points="102.04,606.5 109.54,598.63 117.26,606.28 109.76,614.14 "
     id="polygon24"
     style="fill:#33b568"
     transform="translate(-70.428744,-93.02674)" />
  <path
     class="e"
     d="m 32.691256,457.29326 a 5.72,5.72 0 1 0 11.43,-0.17 z"
     id="path26"
     style="fill:#2a9859" />
  <path
     class="e"
     d="m 44.671256,494.56326 a 5.7206315,5.7206315 0 1 0 -11.44,0.17 z"
     id="path28"
     style="fill:#2a9859" />
  <polygon
     class="f"
     points="101.49,569.07 108.99,561.2 116.71,568.84 109.22,576.71 "
     id="polygon30"
     style="fill:#33b568"
     transform="translate(-70.428744,-93.02674)" />
  <path
     class="e"
     d="m 32.141256,419.85326 a 5.72,5.72 0 1 0 11.43,-0.16 z"
     id="path32"
     style="fill:#2a9859" />
  <path
     class="e"
     d="m 44.121256,457.12326 a 5.72,5.72 0 1 0 -11.43,0.17 z"
     id="path34"
     style="fill:#2a9859" />
  <polygon
     class="f"
     points="100.95,531.63 108.44,523.76 116.17,531.41 108.67,539.27 "
     id="polygon36"
     style="fill:#33b568"
     transform="translate(-70.428744,-93.02674)" />
  <path
     class="e"
     d="m 31.571256,382.42326 a 5.7206315,5.7206315 0 1 0 11.44,-0.17 z"
     id="path38"
     style="fill:#2a9859" />
  <path
     class="e"
     d="m 43.571256,419.69326 a 5.72,5.72 0 1 0 -11.43,0.17 z"
     id="path40"
     style="fill:#2a9859" />
  <polygon
     class="f"
     points="100.4,494.2 107.9,486.33 115.62,493.97 108.12,501.84 "
     id="polygon42"
     style="fill:#33b568"
     transform="translate(-70.428744,-93.02674)" />
  <path
     class="e"
     d="m 31.051256,344.97326 a 5.72,5.72 0 1 0 11.43,-0.17 z"
     id="path44"
     style="fill:#2a9859" />
  <path
     class="e"
     d="m 43.031256,382.25326 a 5.7206315,5.7206315 0 1 0 -11.44,0.17 z"
     id="path46"
     style="fill:#2a9859" />
  <polygon
     class="f"
     points="99.85,456.76 107.35,448.9 115.07,456.54 107.58,464.4 "
     id="polygon48"
     style="fill:#33b568"
     transform="translate(-70.428744,-93.02674)" />
  <path
     class="e"
     d="m 30.501256,307.55326 a 5.72,5.72 0 1 0 11.43,-0.17 z"
     id="path50"
     style="fill:#2a9859" />
  <path
     class="e"
     d="m 42.481256,344.82326 a 5.72,5.72 0 1 0 -11.43,0.17 z"
     id="path52"
     style="fill:#2a9859" />
  <polygon
     class="f"
     points="99.31,419.33 106.8,411.46 114.53,419.11 107.03,426.97 "
     id="polygon54"
     style="fill:#33b568"
     transform="translate(-70.428744,-93.02674)" />
  <path
     class="e"
     d="m 29.951256,270.12326 a 5.7206315,5.7206315 0 1 0 11.44,-0.17 z"
     id="path56"
     style="fill:#2a9859" />
  <path
     class="e"
     d="m 41.931256,307.39326 a 5.72,5.72 0 1 0 -11.43,0.16 z"
     id="path58"
     style="fill:#2a9859" />
  <polygon
     class="f"
     points="98.76,381.89 106.25,374.03 113.98,381.67 106.48,389.54 "
     id="polygon60"
     style="fill:#33b568"
     transform="translate(-70.428744,-93.02674)" />
  <path
     class="e"
     d="m 29.411256,232.68326 a 5.72,5.72 0 1 0 11.43,-0.17 z"
     id="path62"
     style="fill:#2a9859" />
  <path
     class="e"
     d="m 41.391256,269.97326 a 5.7206315,5.7206315 0 1 0 -11.44,0.17 z"
     id="path64"
     style="fill:#2a9859" />
  <polygon
     class="f"
     points="98.21,344.46 105.71,336.59 113.43,344.24 105.94,352.1 "
     id="polygon66"
     style="fill:#33b568"
     transform="translate(-70.428744,-93.02674)" />
  <path
     class="e"
     d="m 28.861256,195.25326 a 5.72,5.72 0 1 0 11.43,-0.17 z"
     id="path68"
     style="fill:#2a9859" />
  <path
     class="e"
     d="m 40.841256,232.52326 a 5.72,5.72 0 1 0 -11.43,0.16 z"
     id="path70"
     style="fill:#2a9859" />
  <polygon
     class="f"
     points="97.67,307.02 105.16,299.16 112.88,306.8 105.39,314.67 "
     id="polygon72"
     style="fill:#33b568"
     transform="translate(-70.428744,-93.02674)" />
  <path
     class="e"
     d="m 28.311256,157.81326 a 5.72,5.72 0 1 0 11.43,-0.16 z"
     id="path74"
     style="fill:#2a9859" />
  <path
     class="e"
     d="m 40.291256,195.08326 a 5.72,5.72 0 1 0 -11.43,0.17 z"
     id="path76"
     style="fill:#2a9859" />
  <polygon
     class="f"
     points="97.12,269.59 104.61,261.72 112.34,269.37 104.84,277.23 "
     id="polygon78"
     style="fill:#33b568"
     transform="translate(-70.428744,-93.02674)" />
  <path
     class="e"
     d="m 27.761256,120.38326 a 5.7206315,5.7206315 0 1 0 11.44,-0.17 z"
     id="path80"
     style="fill:#2a9859" />
  <path
     class="e"
     d="m 39.741256,157.65326 a 5.72,5.72 0 1 0 -11.43,0.16 z"
     id="path82"
     style="fill:#2a9859" />
  <polygon
     class="f"
     points="96.57,232.15 104.07,224.29 111.79,231.93 104.29,239.8 "
     id="polygon84"
     style="fill:#33b568"
     transform="translate(-70.428744,-93.02674)" />
  <path
     class="e"
     d="m 27.221256,82.97326 a 5.72,5.72 0 1 0 11.43,-0.16 z"
     id="path86"
     style="fill:#2a9859" />
  <path
     class="e"
     d="m 39.201256,120.21326 a 5.7206315,5.7206315 0 1 0 -11.44,0.17 z"
     id="path88"
     style="fill:#2a9859" />
  <polygon
     class="f"
     points="96.02,194.72 103.52,186.85 111.24,194.5 103.75,202.36 "
     id="polygon90"
     style="fill:#33b568"
     transform="translate(-70.428744,-93.02674)" />
  <path
     class="e"
     d="m 85.301256,56.32326 a 5.72,5.72 0 0 0 0.71,11.41 z"
     id="path92"
     style="fill:#2a9859" />
  <path
     class="e"
     d="m 50.571256,69.97326 a 5.72,5.72 0 0 0 -0.71,-11.41 z"
     id="path94"
     style="fill:#2a9859" />
  <polygon
     class="f"
     points="137.87,148.56 145.69,155.7 138.82,163.75 131,156.62 "
     id="polygon96"
     style="fill:#33b568"
     transform="translate(-70.428744,-93.02674)" />
  <path
     class="e"
     d="m 120.78126,54.10326 a 5.72,5.72 0 0 0 0.71,11.41 z"
     id="path98"
     style="fill:#2a9859" />
  <path
     class="e"
     d="m 86.011256,67.73326 a 5.72,5.72 0 0 0 -0.71,-11.41 z"
     id="path100"
     style="fill:#2a9859" />
  <polygon
     class="f"
     points="173.35,146.34 181.17,153.48 174.3,161.54 166.47,154.4 "
     id="polygon102"
     style="fill:#33b568"
     transform="translate(-70.428744,-93.02674)" />
  <path
     class="e"
     d="m 156.25126,51.89326 a 5.72,5.72 0 0 0 0.72,11.41 z"
     id="path104"
     style="fill:#2a9859" />
  <path
     class="e"
     d="m 121.49126,65.51326 a 5.72,5.72 0 0 0 -0.72,-11.41 z"
     id="path106"
     style="fill:#2a9859" />
  <polygon
     class="f"
     points="208.82,144.13 216.65,151.27 209.77,159.32 201.95,152.19 "
     id="polygon108"
     style="fill:#33b568"
     transform="translate(-70.428744,-93.02674)" />
  <path
     class="e"
     d="m 191.73126,49.67326 a 5.72,5.72 0 0 0 0.71,11.41 z"
     id="path110"
     style="fill:#2a9859" />
  <path
     class="e"
     d="m 156.96126,63.30326 a 5.72,5.72 0 0 0 -0.71,-11.41 z"
     id="path112"
     style="fill:#2a9859" />
  <polygon
     class="f"
     points="244.3,141.91 252.13,149.05 245.25,157.11 237.43,149.97 "
     id="polygon114"
     style="fill:#33b568"
     transform="translate(-70.428744,-93.02674)" />
  <path
     class="e"
     d="m 227.21126,47.46326 a 5.72,5.72 0 0 0 0.71,11.41 z"
     id="path116"
     style="fill:#2a9859" />
  <path
     class="e"
     d="m 192.44126,61.08326 a 5.72,5.72 0 0 0 -0.71,-11.41 z"
     id="path118"
     style="fill:#2a9859" />
  <polygon
     class="f"
     points="279.78,139.7 287.61,146.84 280.73,154.89 272.91,147.75 "
     id="polygon120"
     style="fill:#33b568"
     transform="translate(-70.428744,-93.02674)" />
  <path
     class="e"
     d="m 262.69126,45.24326 a 5.72,5.72 0 0 0 0.71,11.41 z"
     id="path122"
     style="fill:#2a9859" />
  <path
     class="e"
     d="m 227.92126,58.87326 a 5.72,5.72 0 0 0 -0.71,-11.41 z"
     id="path124"
     style="fill:#2a9859" />
  <polygon
     class="f"
     points="315.26,137.49 323.08,144.62 316.21,152.68 308.39,145.54 "
     id="polygon126"
     style="fill:#33b568"
     transform="translate(-70.428744,-93.02674)" />
  <path
     class="e"
     d="m 298.17126,43.03326 a 5.72,5.72 0 0 0 0.71,11.41 z"
     id="path128"
     style="fill:#2a9859" />
  <path
     class="e"
     d="m 263.40126,56.65326 a 5.72,5.72 0 0 0 -0.71,-11.41 z"
     id="path130"
     style="fill:#2a9859" />
  <polygon
     class="f"
     points="350.74,135.27 358.56,142.41 351.69,150.46 343.86,143.32 "
     id="polygon132"
     style="fill:#33b568"
     transform="translate(-70.428744,-93.02674)" />
  <path
     class="e"
     d="m 333.65126,40.81326 a 5.72,5.72 0 0 0 0.71,11.41 z"
     id="path134"
     style="fill:#2a9859" />
  <path
     class="e"
     d="m 298.88126,54.44326 a 5.72,5.72 0 0 0 -0.71,-11.41 z"
     id="path136"
     style="fill:#2a9859" />
  <polygon
     class="f"
     points="386.22,133.06 394.04,140.19 387.17,148.25 379.34,141.11 "
     id="polygon138"
     style="fill:#33b568"
     transform="translate(-70.428744,-93.02674)" />
  <path
     class="e"
     d="m 369.12126,38.60326 a 5.72,5.72 0 0 0 0.72,11.41 z"
     id="path140"
     style="fill:#2a9859" />
  <path
     class="e"
     d="m 334.36126,52.22326 a 5.72,5.72 0 0 0 -0.72,-11.41 z"
     id="path142"
     style="fill:#2a9859" />
  <polygon
     class="f"
     points="421.69,130.84 429.52,137.98 422.64,146.03 414.82,138.9 "
     id="polygon144"
     style="fill:#33b568"
     transform="translate(-70.428744,-93.02674)" />
  <path
     class="e"
     d="m 394.94126,99.87326 a 5.7200787,5.7200787 0 1 0 -11.44,0.06 z"
     id="path146"
     style="fill:#2a9859" />
  <path
     class="e"
     d="m 383.30126,62.59326 a 5.72,5.72 0 1 0 11.43,-0.07 z"
     id="path148"
     style="fill:#2a9859" />
  <polygon
     class="f"
     points="467.16,174.22 459.59,181.99 451.94,174.3 459.51,166.52 "
     id="polygon150"
     style="fill:#33b568"
     transform="translate(-70.428744,-93.02674)" />
  <path
     class="e"
     d="m 395.14126,137.21326 a 5.72,5.72 0 1 0 -11.43,0.07 z"
     id="path152"
     style="fill:#2a9859" />
  <path
     class="e"
     d="m 383.50126,99.97326 a 5.7200787,5.7200787 0 1 0 11.44,-0.06 z"
     id="path154"
     style="fill:#2a9859" />
  <polygon
     class="f"
     points="467.37,211.56 459.8,219.34 452.14,211.64 459.71,203.87 "
     id="polygon156"
     style="fill:#33b568"
     transform="translate(-70.428744,-93.02674)" />
  <path
     class="e"
     d="m 395.34126,174.56326 a 5.72,5.72 0 1 0 -11.43,0.06 z"
     id="path158"
     style="fill:#2a9859" />
  <path
     class="e"
     d="m 383.71126,137.27326 a 5.72,5.72 0 1 0 11.43,-0.06 z"
     id="path160"
     style="fill:#2a9859" />
  <polygon
     class="f"
     points="467.57,248.9 460,256.68 452.35,248.99 459.92,241.21 "
     id="polygon162"
     style="fill:#33b568"
     transform="translate(-70.428744,-93.02674)" />
  <path
     class="e"
     d="m 395.57126,211.90326 a 5.7200787,5.7200787 0 1 0 -11.44,0.06 z"
     id="path164"
     style="fill:#2a9859" />
  <path
     class="e"
     d="m 383.91126,174.62326 a 5.72,5.72 0 1 0 11.43,-0.06 z"
     id="path166"
     style="fill:#2a9859" />
  <polygon
     class="f"
     points="467.77,286.25 460.21,294.03 452.55,286.33 460.12,278.56 "
     id="polygon168"
     style="fill:#33b568"
     transform="translate(-70.428744,-93.02674)" />
  <path
     class="e"
     d="m 395.75126,249.25326 a 5.72,5.72 0 1 0 -11.43,0.06 z"
     id="path170"
     style="fill:#2a9859" />
  <path
     class="e"
     d="m 384.11126,211.97326 a 5.7200787,5.7200787 0 1 0 11.44,-0.06 z"
     id="path172"
     style="fill:#2a9859" />
  <polygon
     class="f"
     points="467.98,323.59 460.41,331.37 452.76,323.68 460.32,315.9 "
     id="polygon174"
     style="fill:#33b568"
     transform="translate(-70.428744,-93.02674)" />
  <path
     class="e"
     d="m 395.96126,286.59326 a 5.7200787,5.7200787 0 1 0 -11.44,0.06 z"
     id="path176"
     style="fill:#2a9859" />
  <path
     class="e"
     d="m 384.32126,249.31326 a 5.72,5.72 0 1 0 11.43,-0.07 z"
     id="path178"
     style="fill:#2a9859" />
  <polygon
     class="f"
     points="468.18,360.94 460.61,368.71 452.96,361.02 460.53,353.24 "
     id="polygon180"
     style="fill:#33b568"
     transform="translate(-70.428744,-93.02674)" />
  <path
     class="e"
     d="m 396.16126,323.97326 a 5.72,5.72 0 1 0 -11.43,0.06 z"
     id="path182"
     style="fill:#2a9859" />
  <path
     class="e"
     d="m 384.57126,286.65326 a 5.7200787,5.7200787 0 1 0 11.44,-0.06 z"
     id="path184"
     style="fill:#2a9859" />
  <polygon
     class="f"
     points="468.39,398.28 460.82,406.06 453.17,398.37 460.73,390.59 "
     id="polygon186"
     style="fill:#33b568"
     transform="translate(-70.428744,-93.02674)" />
  <path
     class="e"
     d="m 396.37126,361.28326 a 5.7200787,5.7200787 0 1 0 -11.44,0.06 z"
     id="path188"
     style="fill:#2a9859" />
  <path
     class="e"
     d="m 384.73126,323.97326 a 5.72,5.72 0 1 0 11.43,-0.07 z"
     id="path190"
     style="fill:#2a9859" />
  <polygon
     class="f"
     points="468.59,435.63 461.02,443.4 453.37,435.71 460.94,427.93 "
     id="polygon192"
     style="fill:#33b568"
     transform="translate(-70.428744,-93.02674)" />
  <path
     class="e"
     d="m 396.57126,398.62326 a 5.72,5.72 0 1 0 -11.43,0.07 z"
     id="path194"
     style="fill:#2a9859" />
  <path
     class="e"
     d="m 384.93126,361.34326 a 5.7200787,5.7200787 0 1 0 11.44,-0.06 z"
     id="path196"
     style="fill:#2a9859" />
  <polygon
     class="f"
     points="468.8,472.97 461.23,480.75 453.57,473.05 461.14,465.28 "
     id="polygon198"
     style="fill:#33b568"
     transform="translate(-70.428744,-93.02674)" />
  <path
     class="e"
     d="m 396.77126,435.97326 a 5.72,5.72 0 1 0 -11.43,0.06 z"
     id="path200"
     style="fill:#2a9859" />
  <path
     class="e"
     d="m 385.14126,398.69326 a 5.72,5.72 0 1 0 11.43,-0.07 z"
     id="path202"
     style="fill:#2a9859" />
  <polygon
     class="f"
     points="469,510.31 461.43,518.09 453.78,510.4 461.35,502.62 "
     id="polygon204"
     style="fill:#33b568"
     transform="translate(-70.428744,-93.02674)" />
  <path
     class="e"
     d="m 396.98126,473.31326 a 5.7201071,5.7201071 0 1 0 -11.44,0.07 z"
     id="path206"
     style="fill:#2a9859" />
  <path
     class="e"
     d="m 385.34126,436.03326 a 5.72,5.72 0 1 0 11.43,-0.06 z"
     id="path208"
     style="fill:#2a9859" />
  <polygon
     class="f"
     points="469.2,547.66 461.64,555.44 453.98,547.74 461.55,539.97 "
     id="polygon210"
     style="fill:#33b568"
     transform="translate(-70.428744,-93.02674)" />
  <path
     class="e"
     d="m 397.18126,510.66326 a 5.72,5.72 0 1 0 -11.43,0.06 z"
     id="path212"
     style="fill:#2a9859" />
  <path
     class="e"
     d="m 385.57126,473.37326 a 5.7200787,5.7200787 0 1 0 11.44,-0.06 z"
     id="path214"
     style="fill:#2a9859" />
  <polygon
     class="f"
     points="469.41,585 461.84,592.78 454.19,585.09 461.76,577.31 "
     id="polygon216"
     style="fill:#33b568"
     transform="translate(-70.428744,-93.02674)" />
  <path
     class="e"
     d="m 397.39126,547.97326 a 5.7200787,5.7200787 0 1 0 -11.44,0.06 z"
     id="path218"
     style="fill:#2a9859" />
  <path
     class="e"
     d="m 385.75126,510.72326 a 5.72,5.72 0 1 0 11.43,-0.06 z"
     id="path220"
     style="fill:#2a9859" />
  <polygon
     class="f"
     points="469.61,622.35 462.05,630.13 454.39,622.43 461.96,614.65 "
     id="polygon222"
     style="fill:#33b568"
     transform="translate(-70.428744,-93.02674)" />
  <path
     class="e"
     d="m 397.57126,585.35326 a 5.72,5.72 0 1 0 -11.43,0.06 z"
     id="path224"
     style="fill:#2a9859" />
  <path
     class="e"
     d="m 385.95126,548.06326 a 5.7200787,5.7200787 0 1 0 11.44,-0.06 z"
     id="path226"
     style="fill:#2a9859" />
  <polygon
     class="f"
     points="469.82,659.69 462.25,667.47 454.6,659.78 462.16,652 "
     id="polygon228"
     style="fill:#33b568"
     transform="translate(-70.428744,-93.02674)" />
  <path
     class="e"
     d="m 337.24126,607.75326 a 5.72,5.72 0 0 0 0.59,-11.42 z"
     id="path230"
     style="fill:#2a9859" />
  <path
     class="e"
     d="m 372.84126,598.13326 a 5.72,5.72 0 0 0 -0.59,11.42 z"
     id="path232"
     style="fill:#2a9859" />
  <polygon
     class="f"
     points="425.08,703.58 418.22,695.6 425.86,688.38 432.72,696.35 "
     id="polygon234"
     style="fill:#33b568"
     transform="translate(-70.428744,-93.02674)" />
  <path
     class="e"
     d="m 302.23126,605.97326 a 5.72,5.72 0 0 0 0.59,-11.42 z"
     id="path236"
     style="fill:#2a9859" />
  <path
     class="e"
     d="m 337.83126,596.33326 a 5.72,5.72 0 0 0 -0.59,11.42 z"
     id="path238"
     style="fill:#2a9859" />
  <polygon
     class="f"
     points="390.07,701.77 383.21,693.8 390.85,686.57 397.71,694.54 "
     id="polygon240"
     style="fill:#33b568"
     transform="translate(-70.428744,-93.02674)" />
  <path
     class="e"
     d="m 267.23126,604.14326 a 5.72,5.72 0 0 0 0.59,-11.42 z"
     id="path242"
     style="fill:#2a9859" />
  <path
     class="e"
     d="m 302.82126,594.52326 a 5.72,5.72 0 0 0 -0.59,11.42 z"
     id="path244"
     style="fill:#2a9859" />
  <polygon
     class="f"
     points="355.06,699.97 348.2,691.99 355.85,684.77 362.71,692.74 "
     id="polygon246"
     style="fill:#33b568"
     transform="translate(-70.428744,-93.02674)" />
  <path
     class="e"
     d="m 232.22126,602.34326 a 5.72,5.72 0 0 0 0.59,-11.42 z"
     id="path248"
     style="fill:#2a9859" />
  <path
     class="e"
     d="m 267.82126,592.72326 a 5.72,5.72 0 0 0 -0.59,11.42 z"
     id="path250"
     style="fill:#2a9859" />
  <polygon
     class="f"
     points="320.06,698.16 313.2,690.19 320.84,682.96 327.7,690.94 "
     id="polygon252"
     style="fill:#33b568"
     transform="translate(-70.428744,-93.02674)" />
  <path
     class="e"
     d="m 197.22126,600.53326 a 5.72,5.72 0 0 0 0.58,-11.42 z"
     id="path254"
     style="fill:#2a9859" />
  <path
     class="e"
     d="m 232.81126,590.97326 a 5.72,5.72 0 0 0 -0.59,11.42 z"
     id="path256"
     style="fill:#2a9859" />
  <polygon
     class="f"
     points="285.05,696.36 278.19,688.38 285.83,681.16 292.69,689.13 "
     id="polygon258"
     style="fill:#33b568"
     transform="translate(-70.428744,-93.02674)" />
  <path
     class="e"
     d="m 162.21126,598.73326 a 5.72,5.72 0 0 0 0.59,-11.42 z"
     id="path260"
     style="fill:#2a9859" />
  <path
     class="e"
     d="m 197.81126,589.11326 a 5.72,5.72 0 0 0 -0.59,11.42 z"
     id="path262"
     style="fill:#2a9859" />
  <polygon
     class="f"
     points="250.05,694.55 243.19,686.58 250.83,679.36 257.69,687.33 "
     id="polygon264"
     style="fill:#33b568"
     transform="translate(-70.428744,-93.02674)" />
  <path
     class="e"
     d="m 127.20126,596.97326 a 5.72,5.72 0 0 0 0.59,-11.42 z"
     id="path266"
     style="fill:#2a9859" />
  <path
     class="e"
     d="m 162.80126,587.31326 a 5.72,5.72 0 0 0 -0.59,11.42 z"
     id="path268"
     style="fill:#2a9859" />
  <polygon
     class="f"
     points="215.04,692.75 208.18,684.78 215.82,677.55 222.68,685.52 "
     id="polygon270"
     style="fill:#33b568"
     transform="translate(-70.428744,-93.02674)" />
  <path
     class="e"
     d="m 92.201256,595.12326 a 5.72,5.72 0 0 0 0.59,-11.42 z"
     id="path272"
     style="fill:#2a9859" />
  <path
     class="e"
     d="m 127.79126,585.50326 a 5.72,5.72 0 0 0 -0.58,11.42 z"
     id="path274"
     style="fill:#2a9859" />
  <polygon
     class="f"
     points="180.03,690.95 173.17,682.97 180.82,675.75 187.68,683.72 "
     id="polygon276"
     style="fill:#33b568"
     transform="translate(-70.428744,-93.02674)" />
  <path
     class="e"
     d="m 57.191256,593.32326 a 5.72,5.72 0 0 0 0.59,-11.42 z"
     id="path278"
     style="fill:#2a9859" />
  <path
     class="e"
     d="m 92.791256,583.70326 a 5.72,5.72 0 0 0 -0.59,11.42 z"
     id="path280"
     style="fill:#2a9859" />
  <polygon
     class="f"
     points="145.03,689.14 138.17,681.17 145.81,673.94 152.67,681.92 "
     id="polygon282"
     style="fill:#33b568"
     transform="translate(-70.428744,-93.02674)" />
  <polygon
     class="e"
     points="118.16,152.14 117.92,152.27 117.7,152.41 117.48,152.56 117.27,152.73 117.06,152.9 116.87,153.08 116.68,153.27 116.51,153.47 116.34,153.68 116.18,153.9 116.03,154.13 115.89,154.36 115.77,154.6 115.65,154.85 115.55,155.1 115.45,155.36 115.37,155.63 115.3,155.9 115.25,156.17 115.2,156.45 115.17,156.74 115.16,157.02 115.15,157.31 115.17,157.61 115.19,157.9 115.23,158.19 115.28,158.47 115.35,158.75 115.43,159.02 115.52,159.29 115.62,159.55 115.73,159.8 115.86,160.05 115.99,160.29 116.14,160.52 116.29,160.74 116.46,160.95 116.63,161.16 116.82,161.36 117.01,161.54 117.21,161.72 117.42,161.89 117.64,162.04 117.86,162.19 118.09,162.32 118.33,162.45 118.57,162.56 118.81,162.66 119.07,162.74 119.33,162.82 119.59,162.88 119.86,162.93 120.13,162.96 120.4,162.98 120.68,162.98 120.96,162.97 120.25,151.56 119.97,151.59 119.69,151.63 119.42,151.68 119.16,151.75 118.9,151.82 118.65,151.92 118.4,152.02 "
     id="polygon284"
     style="fill:#2a9859"
     transform="translate(-70.428744,-93.02674)" />
  <polygon
     class="f"
     points="106.97,161.93 103.22,165.61 95.5,158.47 99.25,154.78 102.64,150.76 110.35,157.9 "
     id="polygon286"
     style="fill:#33b568"
     transform="translate(-70.428744,-93.02674)" />
  <polygon
     class="e"
     points="98.07,173.85 98.18,173.6 98.3,173.37 98.44,173.14 98.58,172.91 98.74,172.7 98.91,172.49 99.08,172.29 99.27,172.1 99.47,171.91 99.67,171.74 99.88,171.57 100.11,171.42 100.33,171.27 100.57,171.14 100.82,171.01 101.07,170.9 101.33,170.8 101.59,170.71 101.86,170.63 102.14,170.57 102.42,170.52 102.7,170.48 102.99,170.45 103.29,170.44 103.58,170.44 103.87,170.46 104.16,170.49 104.44,170.53 104.72,170.59 104.99,170.66 105.26,170.74 105.52,170.84 105.77,170.94 106.02,171.06 106.26,171.19 106.5,171.32 106.72,171.47 106.94,171.63 107.15,171.8 107.35,171.98 107.55,172.16 107.73,172.36 107.9,172.56 108.06,172.78 108.22,172.99 108.36,173.22 108.49,173.45 108.6,173.69 108.71,173.94 108.8,174.19 108.88,174.45 108.95,174.71 109.01,174.98 109.05,175.25 109.07,175.53 109.08,175.81 97.65,175.97 97.65,175.69 97.67,175.42 97.7,175.14 97.75,174.88 97.81,174.61 97.88,174.35 97.97,174.1 "
     id="polygon288"
     style="fill:#2a9859"
     transform="translate(-70.428744,-93.02674)" />
  <polygon
     class="e"
     points="464.7,153.2 464.58,152.93 464.46,152.67 464.32,152.42 464.17,152.18 464.01,151.94 463.83,151.71 463.65,151.49 463.46,151.28 463.26,151.08 463.06,150.9 462.84,150.72 462.61,150.55 462.38,150.39 462.14,150.25 461.89,150.12 461.64,150 461.38,149.89 461.11,149.8 460.84,149.72 460.56,149.65 460.28,149.6 460,149.56 459.7,149.54 459.41,149.53 459.12,149.54 458.83,149.57 458.54,149.61 458.26,149.66 457.98,149.73 457.71,149.81 457.45,149.91 457.19,150.02 456.94,150.14 456.69,150.28 456.45,150.43 456.22,150.58 456,150.75 455.78,150.94 455.57,151.13 455.38,151.33 455.19,151.54 455.01,151.76 454.84,151.99 454.69,152.23 454.54,152.47 454.4,152.73 454.28,152.99 454.16,153.26 454.06,153.53 453.97,153.81 453.9,154.1 453.84,154.4 453.79,154.69 453.75,155 453.73,155.31 453.73,155.62 465.16,155.55 465.15,155.24 465.13,154.94 465.09,154.63 465.04,154.34 464.97,154.04 464.89,153.75 464.8,153.47 "
     id="polygon290"
     style="fill:#2a9859"
     transform="translate(-70.428744,-93.02674)" />
  <polygon
     class="f"
     points="455.56,140.17 451.3,136.63 458.87,128.53 463.12,132.08 466.95,136.08 459.38,144.18 "
     id="polygon292"
     style="fill:#33b568"
     transform="translate(-70.428744,-93.02674)" />
  <polygon
     class="e"
     points="441.93,131.93 442.2,132.03 442.47,132.14 442.74,132.26 442.99,132.39 443.24,132.54 443.48,132.69 443.7,132.86 443.93,133.03 444.14,133.22 444.34,133.42 444.54,133.62 444.72,133.83 444.89,134.06 445.05,134.28 445.2,134.52 445.33,134.77 445.46,135.02 445.57,135.28 445.67,135.54 445.75,135.82 445.82,136.09 445.88,136.38 445.92,136.67 445.95,136.96 445.96,137.25 445.95,137.54 445.93,137.83 445.9,138.12 445.85,138.4 445.78,138.67 445.7,138.94 445.61,139.21 445.51,139.47 445.39,139.72 445.26,139.97 445.12,140.21 444.96,140.45 444.8,140.68 444.62,140.89 444.43,141.1 444.23,141.31 444.02,141.5 443.81,141.68 443.58,141.86 443.34,142.02 443.1,142.17 442.85,142.32 442.59,142.45 442.32,142.57 442.04,142.67 441.76,142.77 441.47,142.85 441.18,142.92 440.88,142.97 440.57,143.02 440.26,143.04 439.55,131.63 439.86,131.62 440.17,131.62 440.48,131.64 440.78,131.67 441.07,131.72 441.36,131.77 441.65,131.85 "
     id="polygon294"
     style="fill:#2a9859"
     transform="translate(-70.428744,-93.02674)" />
  <polygon
     class="e"
     points="445.05,702.26 445.32,702.15 445.59,702.04 445.85,701.92 446.11,701.78 446.35,701.63 446.59,701.48 446.82,701.31 447.04,701.13 447.25,700.94 447.45,700.75 447.64,700.54 447.82,700.32 447.99,700.1 448.14,699.87 448.29,699.63 448.42,699.38 448.55,699.13 448.65,698.87 448.75,698.6 448.83,698.33 448.9,698.05 448.95,697.77 448.99,697.48 449.01,697.18 449.02,696.89 449.01,696.6 448.99,696.31 448.95,696.03 448.9,695.75 448.83,695.47 448.75,695.2 448.65,694.94 448.55,694.68 448.43,694.42 448.29,694.18 448.15,693.94 447.99,693.71 447.82,693.48 447.64,693.26 447.45,693.06 447.25,692.86 447.04,692.66 446.82,692.48 446.59,692.31 446.36,692.15 446.11,692 445.86,691.86 445.59,691.73 445.32,691.62 445.05,691.51 444.77,691.42 444.48,691.34 444.18,691.28 443.88,691.23 443.57,691.19 443.26,691.16 442.68,702.58 442.99,702.59 443.3,702.59 443.6,702.57 443.9,702.53 444.2,702.48 444.49,702.42 444.77,702.34 "
     id="polygon296"
     style="fill:#2a9859"
     transform="translate(-70.428744,-93.02674)" />
  <polygon
     class="f"
     points="458.58,693.87 462.36,689.83 470.02,697.84 466.23,701.89 462.01,705.48 454.36,697.46 "
     id="polygon298"
     style="fill:#33b568"
     transform="translate(-70.428744,-93.02674)" />
  <polygon
     class="e"
     points="467.58,680.73 467.47,681 467.35,681.26 467.21,681.52 467.06,681.76 466.9,682 466.73,682.23 466.56,682.45 466.37,682.66 466.17,682.87 465.96,683.06 465.75,683.24 465.52,683.41 465.29,683.57 465.06,683.71 464.81,683.85 464.56,683.97 464.3,684.08 464.03,684.18 463.76,684.26 463.49,684.33 463.2,684.38 462.92,684.42 462.63,684.45 462.33,684.46 462.04,684.45 461.75,684.43 461.46,684.39 461.18,684.34 460.9,684.28 460.63,684.2 460.37,684.1 460.11,684 459.85,683.88 459.61,683.74 459.37,683.6 459.13,683.44 458.91,683.27 458.69,683.1 458.48,682.91 458.28,682.71 458.09,682.5 457.91,682.28 457.74,682.05 457.58,681.82 457.43,681.57 457.29,681.32 457.16,681.06 457.05,680.79 456.94,680.52 456.85,680.24 456.77,679.95 456.71,679.66 456.65,679.36 456.62,679.05 456.59,678.75 456.58,678.44 468.02,678.37 468.01,678.69 467.99,678.99 467.96,679.3 467.91,679.6 467.85,679.89 467.77,680.17 467.68,680.46 "
     id="polygon300"
     style="fill:#2a9859"
     transform="translate(-70.428744,-93.02674)" />
  <polygon
     class="e"
     points="105.24,664.7 105.36,664.93 105.49,665.16 105.63,665.39 105.78,665.6 105.94,665.81 106.11,666.01 106.3,666.2 106.49,666.38 106.69,666.56 106.9,666.72 107.12,666.88 107.34,667.02 107.58,667.16 107.82,667.28 108.07,667.4 108.32,667.5 108.58,667.6 108.85,667.67 109.12,667.74 109.4,667.8 109.68,667.84 109.97,667.87 110.26,667.89 110.55,667.89 110.85,667.88 111.14,667.85 111.42,667.82 111.7,667.76 111.98,667.7 112.25,667.63 112.52,667.54 112.77,667.44 113.03,667.33 113.27,667.21 113.51,667.07 113.74,666.93 113.96,666.78 114.17,666.62 114.38,666.45 114.57,666.26 114.76,666.08 114.94,665.88 115.1,665.67 115.26,665.46 115.41,665.24 115.54,665.02 115.66,664.78 115.77,664.55 115.87,664.3 115.96,664.05 116.03,663.8 116.09,663.54 116.14,663.27 116.17,663 116.19,662.73 116.19,662.46 104.76,662.62 104.77,662.9 104.8,663.17 104.84,663.44 104.89,663.7 104.96,663.96 105.04,664.21 105.13,664.46 "
     id="polygon302"
     style="fill:#2a9859"
     transform="translate(-70.428744,-93.02674)" />
  <polygon
     class="f"
     points="114.47,676.13 117.84,680.11 110.33,687.35 106.97,683.36 103.11,679.86 110.62,672.63 "
     id="polygon304"
     style="fill:#33b568"
     transform="translate(-70.428744,-93.02674)" />
  <polygon
     class="e"
     points="125.57,685.79 125.34,685.66 125.11,685.52 124.89,685.37 124.69,685.21 124.48,685.04 124.29,684.86 124.11,684.67 123.93,684.48 123.76,684.27 123.61,684.05 123.46,683.83 123.32,683.6 123.19,683.36 123.08,683.11 122.97,682.86 122.88,682.6 122.8,682.34 122.73,682.07 122.67,681.79 122.62,681.51 122.59,681.23 122.57,680.94 122.56,680.65 122.57,680.36 122.6,680.06 122.63,679.77 122.68,679.49 122.74,679.21 122.81,678.94 122.9,678.67 123,678.41 123.11,678.16 123.23,677.91 123.36,677.67 123.5,677.44 123.65,677.21 123.81,677 123.98,676.79 124.16,676.59 124.35,676.4 124.54,676.22 124.75,676.05 124.96,675.89 125.17,675.74 125.4,675.61 125.63,675.48 125.87,675.37 126.11,675.26 126.36,675.17 126.61,675.1 126.87,675.03 127.13,674.98 127.39,674.95 127.67,674.92 127.94,674.92 128.21,674.92 127.62,686.34 127.35,686.32 127.08,686.28 126.81,686.24 126.55,686.17 126.3,686.09 126.05,686 125.8,685.9 "
     id="polygon306"
     style="fill:#2a9859"
     transform="translate(-70.428744,-93.02674)" />
</svg>
