<?xml version="1.0" encoding="UTF-8" standalone="no"?>
<svg
   viewBox="0 0 778.90707 351.59442"
   version="1.1"
   id="svg212"
   sodipodi:docname="book_colored_2.svg"
   width="778.90704"
   height="351.59442"
   inkscape:version="1.2.2 (b0a8486541, 2022-12-01)"
   xmlns:inkscape="http://www.inkscape.org/namespaces/inkscape"
   xmlns:sodipodi="http://sodipodi.sourceforge.net/DTD/sodipodi-0.dtd"
   xmlns="http://www.w3.org/2000/svg"
   xmlns:svg="http://www.w3.org/2000/svg">
  <sodipodi:namedview
     id="namedview214"
     pagecolor="#ffffff"
     bordercolor="#000000"
     borderopacity="0.25"
     inkscape:showpageshadow="2"
     inkscape:pageopacity="0.0"
     inkscape:pagecheckerboard="0"
     inkscape:deskcolor="#d1d1d1"
     showgrid="false"
     inkscape:zoom="0.99656723"
     inkscape:cx="486.16891"
     inkscape:cy="200.68892"
     inkscape:window-width="1920"
     inkscape:window-height="1011"
     inkscape:window-x="0"
     inkscape:window-y="32"
     inkscape:window-maximized="1"
     inkscape:current-layer="svg212" />
  <defs
     id="defs4">
    <style
       id="style2">.a{fill:#865ca5;}.a,.b{stroke:#fff;}.a,.b,.d{stroke-miterlimit:10;}.b{fill:#6a3c8b;}.c{fill:#f8f299;}.d{fill:none;stroke:#c1b49a;}.e{fill:#fff;}.f{fill:#ef5232;}</style>
  </defs>
  <polygon
     class="a"
     points="419.57,646.88 88.13,449.85 79.89,464.34 411.33,661.38 "
     id="polygon6"
     style="fill:#865ca5;stroke:#ffffff;stroke-miterlimit:10"
     transform="translate(-79.212923,-316.19)" />
  <path
     class="b"
     d="m 417.31708,339.61 358.21,-10.38 -74.82,-50.86 -216,-20.76 q -33.69,41.01 -67.39,82 z"
     id="path8"
     style="fill:#6a3c8b;stroke:#ffffff;stroke-miterlimit:10" />
  <path
     class="b"
     d="M 334.89708,329.91 8.897077,133.66 l 90.81,-11.85 202.760003,99.88 z"
     id="path10"
     style="fill:#6a3c8b;stroke:#ffffff;stroke-miterlimit:10" />
  <rect
     class="a"
     x="395.02707"
     y="329.92001"
     width="383.38"
     height="15.27"
     id="rect12"
     style="fill:#865ca5;stroke:#ffffff;stroke-miterlimit:10" />
  <path
     class="a"
     d="m 400.46708,345.18 a 95.45,95.45 0 0 1 -40.44,5.63 93.94,93.94 0 0 1 -25.13,-5.58 v -15.32 a 56.09,56.09 0 0 0 65.57,0 z"
     id="path14"
     style="fill:#865ca5;stroke:#ffffff;stroke-miterlimit:10" />
  <path
     class="c"
     d="m 755.46708,313.17 a 10.82,10.82 0 0 1 -1.7,-6.55 9.71,9.71 0 0 1 3.44,-6.44 l -1.57,-1 a 9.32,9.32 0 0 1 -2.78,-3.77 c -0.2,-0.78 -0.4,-1.56 -0.61,-2.33 a 7.3,7.3 0 0 1 0.19,-3.16 h -0.18 a 10.34,10.34 0 0 1 -6.82,-1.93 9.5,9.5 0 0 1 -3.39,-6.11 9.73,9.73 0 0 1 1.89,-7 8.57,8.57 0 0 1 0.58,-0.66 c -7.29,-0.32 -10.78,-8 -9.13,-13.41 -5.24,-2.19 -7.4,-8.78 -5.6,-13.28 a 11,11 0 0 1 -5,-9.74 l -0.29,-0.49 a 8.93,8.93 0 0 1 -2.85,0.44 c -7.41,0 -11.06,-7.54 -9.7,-13 -7.3,-1.82 -9.73,-11.67 -5.46,-16 l -1.11,-1.7 a 9.82,9.82 0 0 1 -1.94,0.19 c -5.37,0 -8.77,-4 -9.72,-8.21 -7.88,-0.19 -11.41,-9 -9,-14.35 -6.74,-1.32 -9.58,-9.32 -7.22,-14.3 a 8.78,8.78 0 0 1 -2.5,0.35 c -7.65,0 -11.3,-8 -9.56,-13.51 -0.21,0 -0.42,0.08 -0.64,0.1 h -0.73 a 9,9 0 0 1 -4.79,-0.69 l -2,-1.24 a 9.38,9.38 0 0 1 -2.78,-3.77 l -0.6,-2.34 a 7.14,7.14 0 0 1 0.34,-3.7 6.45,6.45 0 0 1 0.16,-0.63 c -6.15,1 -12.16,-0.62 -18.4,-2.48 -4.76,-1.41 -6.5,-8.08 -4.74,-12.25 a 8.37,8.37 0 0 1 5.21,-4.89 c -2,0 -4,0 -5.92,-0.06 a 5.44,5.44 0 0 1 0.25,3.75 6,6 0 0 1 -1.83,2.54 c -4.9,4 -179.28,124.6 -179.57,124.75 q -29.88,22.53 -30,22.36 -0.35,-0.46 203.82,-157 c -8.23,-0.83 -13.9,-7.13 -13.77,-13.33 0.13,-5.75 5.22,-9.44 5.89,-9.91 -0.82,-0.76 -1.63,-1.53 -2.45,-2.28 -1,2.63 -3.28,4.58 -7.07,4.58 -7.62,0 -11.28,-8 -9.58,-13.45 -5.41,-0.44 -8.62,-5 -9.09,-9.47 a 8.65,8.65 0 0 1 -3.19,0.57 c -6.75,0 -10.39,-6.27 -9.95,-11.5 a 9.11,9.11 0 0 1 -2.43,0.32 c -6.76,0 -10.39,-6.26 -9.95,-11.5 l -0.26,-0.17 a 7.08,7.08 0 0 1 -6.55,3.48 c -6.44,0 -10,-5.7 -10,-10.77 a 8.87,8.87 0 0 1 -2.4,0.33 c -6.12,0 -9.68,-5.15 -10,-10 a 9,9 0 0 1 -2.41,0.33 9.72,9.72 0 0 1 -9.06,-6.17 c -0.59,-0.29 -1.19,-0.59 -1.79,-0.87 -0.76,3.11 -3.13,5.55 -7.37,5.55 -6.23,0 -9.8,-5.33 -10,-10.27 a 7.76,7.76 0 0 1 -4.59,1.33 c -6,0 -9.51,-4.91 -9.94,-9.67 l -0.68,-0.25 c -0.33,3.74 -2.74,6.94 -7.59,6.94 -7.21,0 -10.87,-7.13 -9.81,-12.54 l -2.23,-0.65 c 0,4.16 -2.33,8 -7.63,8 -5.3,0 -8.81,-4 -9.74,-8.28 a 7.11,7.11 0 0 1 -6.29,3.06 c -6.45,0 -10.06,-5.71 -10,-10.78 l -1.46,-0.29 c 0.76,4.73 -1.52,9.58 -7.5,9.58 a 9.67,9.67 0 0 1 -2.19,-0.25 9.26,9.26 0 0 1 -2.18,0.25 c -6.88,0 -10.52,-6.5 -9.91,-11.79 h -2.2 a 7.11,7.11 0 0 1 -7.56,6.58 9.84,9.84 0 0 1 -9.43,-7.17 c -0.68,0.17 -1.36,0.36 -2,0.55 -0.08,0.36 -0.18,0.73 -0.29,1.08 -2.08,6.55 -7.74,10 -13.8,10.34 a 1.43,1.43 0 0 1 -1.33,0.54 17.58,17.58 0 0 1 -2.28,-0.67 18.54,18.54 0 0 1 -5.5,-1.64 9.44,9.44 0 0 1 -5.38,-9.23 11.64,11.64 0 0 1 -0.82,-2.17 h -1.11 c 0.53,4.56 -1.79,9.07 -7.56,9.07 -5.45,0 -8.85,-4.07 -9.74,-8.39 l -2.63,0.08 c -0.81,3 -3.16,5.33 -7.3,5.33 a 9.41,9.41 0 0 1 -7.57,-3.67 c -0.85,0.27 -1.71,0.53 -2.57,0.78 a 8.94,8.94 0 0 1 -1.18,4.66 c -1.06,2.43 -3.3,4.19 -6.9,4.19 a 9.56,9.56 0 0 1 -8.51,-5.06 l -3.15,0.57 a 41,41 0 0 0 -3.24,5.07 q -0.24,0.63 -0.54,1.23 a 1.51,1.51 0 0 1 -2.88,-0.46 1.54,1.54 0 0 1 -0.19,0.17 1226.44,1226.44 0 0 0 27.75,213.83 c 8.11,36.72 17.46,71 27.43,102.69 -5,-4 -5.93,-4.72 -6,-4.69 -0.07,0.03 4.4,5.26 6,4.69 5.85,-2.15 -17.1,-90.09 -49.87,-186.08 -17.94,-52.58 -35.52,-97.86 -50.63,-134.49 -0.85,1.87 -3.83,8 -8.9,11.16 a 9.49,9.49 0 0 1 -5.23,1.81 c -5.38,0 -8.78,-4 -9.72,-8.25 l -1.76,0.47 c 2.26,5.36 0.4,12.25 -6.73,12.25 a 9.88,9.88 0 0 1 -9.5,-7.38 l -2.58,0.81 c 0.4,4.47 -1.94,8.8 -7.59,8.8 a 9.4,9.4 0 0 1 -7.51,-3.57 c -1.52,0.56 -3.05,1.11 -4.56,1.68 0.32,4.4 -2,8.6 -7.6,8.6 a 9.42,9.42 0 0 1 -6.88,-2.86 l -0.2,0.08 c 4.15,5.4 3,14.7 -5.31,14.7 a 9.48,9.48 0 0 1 -4.76,-1.23 c 0,4.15 -2.34,7.93 -7.63,7.93 -5.64,0 -9.1,-4.37 -9.83,-8.86 l -1.15,0.57 c 2.61,5.42 0.86,12.77 -6.5,12.77 a 9.56,9.56 0 0 1 -8.45,-4.95 c -0.62,0.34 -1.26,0.67 -1.87,1 4.53,5.33 3.51,15.11 -5,15.11 a 9.37,9.37 0 0 1 -6.28,-2.3 c 0.49,4.54 -1.82,9 -7.56,9 a 9.6,9.6 0 0 1 -8.680003,-5.38 c -1,0.63 -2,1.26 -3,1.89 3.47,5.48 2,13.92 -5.86,13.92 a 9.5,9.5 0 0 1 -8.11,-4.41 l -2.53,1.93 a 10.6,10.6 0 0 1 0.75,9.88 c -0.62,3.34 -3,6.05 -7.47,6.05 a 9.55,9.55 0 0 1 -1.8,-0.18 9.65,9.65 0 0 1 -1.84,0.18 9.38,9.38 0 0 1 -6.93,-2.92 l -1,0.79 c 1.13,5 -1,10.33 -7.35,10.33 a 9.83,9.83 0 0 1 -3.47,-0.63 c -1.27,4.41 -4.26,8.55 -8.26,10.33 L 340.41708,330.71 c 0,0 21.4,8.94 41.34,4.44 a 47.34,47.34 0 0 0 10.39,-3.66 c 1.67,-0.81 2.85,-1.5 2.94,-1.55 9.43,-5.39 326.41,-9.37 371.94,-7.07 -2.74,-1.06 -8.37,-3.84 -11.56,-9.7 z"
     id="path16"
     style="fill:#f8f299" />
  <path
     class="d"
     d="m 48.347077,107.66 c 68.280003,52.15 133.270003,98.85 202.560003,151.83 29.94,23.36 58.16,43.18 87.66,66.4"
     id="path18"
     style="fill:none;stroke:#c1b49a;stroke-miterlimit:10" />
  <path
     class="d"
     d="m 58.547077,99.31 109.550003,88.74 109.55,88.76 61.41,49.75"
     id="path20"
     style="fill:none;stroke:#c1b49a;stroke-miterlimit:10" />
  <path
     class="d"
     d="M 79.787077,84.91 C 165.78708,163.07 250.78708,242.24 336.40708,322.41"
     id="path22"
     style="fill:none;stroke:#c1b49a;stroke-miterlimit:10" />
  <path
     class="d"
     d="m 129.46708,84.16 69.88,80.28 87.72,100.77 49.32,56.66"
     id="path24"
     style="fill:none;stroke:#c1b49a;stroke-miterlimit:10" />
  <path
     class="d"
     d="m 324.26708,286.51 c 1.87,4.07 3.78,8.13 5.75,12.15"
     id="path26"
     style="fill:none;stroke:#c1b49a;stroke-miterlimit:10" />
  <path
     class="d"
     d="m 208.07708,19.65 c 39.68,86 74.59,171.37 112,257.39"
     id="path28"
     style="fill:none;stroke:#c1b49a;stroke-miterlimit:10" />
  <path
     class="d"
     d="m 163.78708,52.01 60.68,92 68.32,103.49 q 19.31,29.26 38.62,58.52"
     id="path30"
     style="fill:none;stroke:#c1b49a;stroke-miterlimit:10" />
  <path
     class="d"
     d="m 349.62708,325.65 0.83,5.35"
     id="path32"
     style="fill:none;stroke:#c1b49a;stroke-miterlimit:10" />
  <path
     class="d"
     d="m 300.52708,11.02 c 14,96.17 30.72,192.41 44.92,287.88"
     id="path34"
     style="fill:none;stroke:#c1b49a;stroke-miterlimit:10" />
  <path
     class="d"
     d="m 340.32708,2.5 c 4.58,109.35 7.61,218 12.08,327.36"
     id="path36"
     style="fill:none;stroke:#c1b49a;stroke-miterlimit:10" />
  <path
     class="d"
     d="m 225.78708,21.9 c 12.59,31.67 44.3,111.49 69.57,176.91 0,0 3.88,10 9.38,24.36 26.22,68.52 39.33,102.78 37.71,103.59 -2.42,1.21 -33.64,-55.65 -152,-292.88"
     id="path38"
     style="fill:none;stroke:#c1b49a;stroke-miterlimit:10" />
  <path
     class="d"
     d="m 153.21708,64.26 179.67,246.05"
     id="path40"
     style="fill:none;stroke:#c1b49a;stroke-miterlimit:10" />
  <path
     class="d"
     d="m 178.78708,44.5 54.86,92.92 61.95,104.92 35.04,59.47"
     id="path42"
     style="fill:none;stroke:#c1b49a;stroke-miterlimit:10" />
  <path
     class="d"
     d="m 138.39708,67 q 34.92,44.26 69.86,88.52 l 80.53,102.06 45.27,57.36"
     id="path44"
     style="fill:none;stroke:#c1b49a;stroke-miterlimit:10" />
  <path
     class="d"
     d="m 110.31708,86.63 226.54,236.28"
     id="path46"
     style="fill:none;stroke:#c1b49a;stroke-miterlimit:10" />
  <path
     class="d"
     d="m 305.36708,8.3 c 13.73,88 27.39,173.4 42.57,263.43 3,18.63 7.59,37.26 7.85,56.58"
     id="path48"
     style="fill:none;stroke:#c1b49a;stroke-miterlimit:10" />
  <path
     class="d"
     d="m 323.57708,3.38 c 9.21,108.43 21.33,217.13 32.14,325.21"
     id="path50"
     style="fill:none;stroke:#c1b49a;stroke-miterlimit:10" />
  <path
     class="d"
     d="m 358.78708,1.21 c -0.21,109.09 -3.25,219.3 -2.46,327.74"
     id="path52"
     style="fill:none;stroke:#c1b49a;stroke-miterlimit:10" />
  <path
     class="d"
     d="m 409.26708,2.33 c -31,190.82 -45.09,277.24 -53.1,326.53"
     id="path54"
     style="fill:none;stroke:#c1b49a;stroke-miterlimit:10" />
  <path
     class="d"
     d="m 522.29708,33.31 -165.51,295.64"
     id="path56"
     style="fill:none;stroke:#c1b49a;stroke-miterlimit:10" />
  <path
     class="d"
     d="m 561.48708,55.58 q -58.19,77.16 -115.77,154.78 -44.11,59.45 -87.93,119.22"
     id="path58"
     style="fill:none;stroke:#c1b49a;stroke-miterlimit:10" />
  <path
     class="d"
     d="m 468.78708,12.81 q -39.14,110.73 -78,221.62 -16.82,48.06 -33.59,96.13"
     id="path60"
     style="fill:none;stroke:#c1b49a;stroke-miterlimit:10" />
  <path
     class="d"
     d="m 576.10708,65.72 -218.87,264.84"
     id="path62"
     style="fill:none;stroke:#c1b49a;stroke-miterlimit:10" />
  <path
     class="d"
     d="m 587.16708,74.1 -229.38,257.43"
     id="path64"
     style="fill:none;stroke:#c1b49a;stroke-miterlimit:10" />
  <path
     class="d"
     d="m 595.89708,85.52 q -118.51,123 -237,245.9"
     id="path66"
     style="fill:none;stroke:#c1b49a;stroke-miterlimit:10" />
  <path
     class="d"
     d="m 532.57708,38.48 -175.93,292.55"
     id="path68"
     style="fill:none;stroke:#c1b49a;stroke-miterlimit:10" />
  <path
     class="d"
     d="m 447.96708,13.22 c -30.21,104.84 -59,212 -90.73,317.34"
     id="path70"
     style="fill:none;stroke:#c1b49a;stroke-miterlimit:10" />
  <path
     class="d"
     d="m 499.11708,27.81 q -27.52,59 -55,118 l -55,118 q -15.53,33.31 -31.06,66.61"
     id="path72"
     style="fill:none;stroke:#c1b49a;stroke-miterlimit:10" />
  <path
     class="d"
     d="m 486.39708,18.43 c -23.28,56.38 -48.72,117.97 -72.05,174.38 -16.29,39.38 -41.09,99.24 -57.41,138.61"
     id="path74"
     style="fill:none;stroke:#c1b49a;stroke-miterlimit:10" />
  <path
     class="d"
     d="m 433.01708,4.5 -76.37,326.53"
     id="path76"
     style="fill:none;stroke:#c1b49a;stroke-miterlimit:10" />
  <path
     class="d"
     d="m 386.51708,7.01 c -9.73,106.39 -20.36,215.05 -30.39,321.86"
     id="path78"
     style="fill:none;stroke:#c1b49a;stroke-miterlimit:10" />
  <path
     class="d"
     d="m 544.89708,45.29 -186.63,283.42"
     id="path80"
     style="fill:none;stroke:#c1b49a;stroke-miterlimit:10" />
  <path
     class="d"
     d="m 597.18708,90.68 c -152.27,151.29 -197.4,197.63 -223.09,222.72 -7.54,7.2 -12.6,12.72 -17.82,17.59"
     id="path82"
     style="fill:none;stroke:#c1b49a;stroke-miterlimit:10" />
  <path
     class="d"
     d="m 614.52708,99.41 c -5.52,4.68 -11.59,9.33 -16.14,14 -83.48,74.5 -160.89,147.46 -242.27,217.65"
     id="path84"
     style="fill:none;stroke:#c1b49a;stroke-miterlimit:10" />
  <path
     class="d"
     d="m 478.36708,240.91 c -31.77,20 -59.09,44.8 -92.48,66.53 l -13.66,14 c -6.07,3.1 -9.11,9.31 -16,10"
     id="path86"
     style="fill:none;stroke:#c1b49a;stroke-miterlimit:10" />
  <path
     class="d"
     d="m 500.21708,226.02 c -4.08,3.16 -8.23,6.25 -12.51,9.13"
     id="path88"
     style="fill:none;stroke:#c1b49a;stroke-miterlimit:10" />
  <path
     class="d"
     d="m 665.44708,158.22 c -68.58,39 -136.88,76.26 -206.66,116.59 -21.25,10.87 -41,21.73 -60.72,34.15 -13.66,7.76 -27.32,17.07 -41.85,22.3"
     id="path90"
     style="fill:none;stroke:#c1b49a;stroke-miterlimit:10" />
  <path
     class="d"
     d="m 723.69708,239.01 c -122.27,31.17 -245.22,59.11 -367.29,92.5"
     id="path92"
     style="fill:none;stroke:#c1b49a;stroke-miterlimit:10" />
  <path
     class="d"
     d="m 744.84708,272.3 q -82,12.4 -164,24.92 -66.82,10.23 -133.65,20.59 -45.33,7 -90.65,14.22"
     id="path94"
     style="fill:none;stroke:#c1b49a;stroke-miterlimit:10" />
  <path
     class="d"
     d="m 695.78708,199.26 q -74,28.9 -148.08,57.84 -54.69,21.36 -109.35,42.76 -41.27,16.16 -82.51,32.35"
     id="path96"
     style="fill:none;stroke:#c1b49a;stroke-miterlimit:10" />
  <path
     class="d"
     d="m 748.42708,286.81 c -130.31,16 -262.36,28.39 -392.58,45.4"
     id="path98"
     style="fill:none;stroke:#c1b49a;stroke-miterlimit:10" />
  <path
     class="d"
     d="m 756.21708,297.64 c -92.56,6.69 -183.63,17.56 -276.22,25.32 -42.5,3.1 -83.49,9.31 -124.34,9.76"
     id="path100"
     style="fill:none;stroke:#c1b49a;stroke-miterlimit:10" />
  <path
     class="d"
     d="m 747.56708,310.23 -391.43,22.76"
     id="path102"
     style="fill:none;stroke:#c1b49a;stroke-miterlimit:10" />
  <path
     class="d"
     d="m 729.17708,247.33 c -124.72,29.06 -249.18,55.48 -373.79,84.86"
     id="path104"
     style="fill:none;stroke:#c1b49a;stroke-miterlimit:10" />
  <path
     class="d"
     d="m 686.54708,185.61 c -110.93,48.87 -220.21,98.54 -330.7,146.6"
     id="path106"
     style="fill:none;stroke:#c1b49a;stroke-miterlimit:10" />
  <path
     class="d"
     d="m 712.03708,222.81 c -118.2,38 -238.12,73.75 -355.85,109.59"
     id="path108"
     style="fill:none;stroke:#c1b49a;stroke-miterlimit:10" />
  <path
     class="d"
     d="m 705.15708,211.86 q -74.91,25.85 -149.82,51.66 -61.15,21.09 -122.34,42.15 l -77.65,26.73"
     id="path110"
     style="fill:none;stroke:#c1b49a;stroke-miterlimit:10" />
  <path
     class="d"
     d="m 677.34708,174.56 c -106.28,53.71 -215.56,103.38 -321.96,157.63"
     id="path112"
     style="fill:none;stroke:#c1b49a;stroke-miterlimit:10" />
  <path
     class="d"
     d="m 653.58708,142.99 c -99.22,63.55 -197.88,125.64 -297.42,188.29"
     id="path114"
     style="fill:none;stroke:#c1b49a;stroke-miterlimit:10" />
  <path
     class="d"
     d="m 735.84708,257.64 c -125.32,25 -252.82,48.24 -378.7,74.24"
     id="path116"
     style="fill:none;stroke:#c1b49a;stroke-miterlimit:10" />
  <path
     class="e"
     d="m 41.217077,116.29 c 99.320003,68.46 204.420003,138.77 303.130003,207.9 -73,-49.92 -154.47,-104.89 -228.6,-154.08 Q 77.497077,144.64 39.517077,118.81 l 1.7,-2.47 z"
     id="path118"
     style="fill:#ffffff" />
  <path
     class="e"
     d="m 54.527077,109.81 c 45.19,33.59 90.680003,67.47 136.620003,100.07 q 76.26,58.28 153.73,114.93 -77.85,-56.12 -154.67,-113.64 c -5.85,-4.06 -21.67,-15.23 -27.7,-19.49 -36.84,-26.12 -73.280003,-52.82 -109.760003,-79.45 z"
     id="path120"
     style="fill:#ffffff" />
  <path
     class="e"
     d="m 204.37708,31.81 c 21.39,43.2 50.48,103.87 72.12,146.11 25.5,48 48.07,97.54 66,148.88 -14,-38.25 -29.85,-75.84 -48.42,-112.09 -18.18,-34.76 -38.32,-73.36 -55.78,-108.75 l -36.61,-72.83 2.69,-1.33 z"
     id="path122"
     style="fill:#ffffff" />
  <polygon
     class="e"
     points="232.41,372.86 234.89,371.18 419.57,646.88 "
     id="polygon124"
     style="fill:#ffffff"
     transform="translate(-79.212923,-316.19)" />
  <path
     class="e"
     d="m 331.44708,6.1 c 3.67,53.59 10.17,107 14.5,160.61 3.55,53.66 7.53,107.26 12.57,160.8 -5.53,-53.47 -10,-107.07 -14.07,-160.67 -4.81,-53.53 -11.81,-106.86 -16,-160.52 z"
     id="path126"
     style="fill:#ffffff" />
  <path
     class="e"
     d="m 219.13708,27.25 a 1481.36,1481.36 0 0 1 124.65,301.92 1478.45,1478.45 0 0 0 -107.78,-264.56 q -9.53,-18.07 -19.5,-35.91 z"
     id="path128"
     style="fill:#ffffff" />
  <path
     class="e"
     d="m 139.11708,60.17 c 31,38.51 75.74,95.33 106.83,132.88 36.88,43.28 71.28,88.69 101.52,136.87 a 1098.64,1098.64 0 0 0 -75.23,-103.29 c -26.44,-31.4 -55.74,-66.29 -81.61,-98.47 l -53.84,-66.1 2.34,-1.89 z"
     id="path130"
     style="fill:#ffffff" />
  <polygon
     class="e"
     points="259.52,355.16 262.16,353.73 419.57,646.88 "
     id="polygon132"
     style="fill:#ffffff"
     transform="translate(-79.212923,-316.19)" />
  <path
     class="e"
     d="m 170.83708,47.36 c 60.89,91.69 118.51,186.13 173,281.81 -27.55,-47 -56.34,-95.63 -85.31,-141.6 q -43.87,-70 -90.16,-138.54 l 2.5,-1.67 z"
     id="path134"
     style="fill:#ffffff" />
  <path
     class="e"
     d="m 126.41708,66.3 c 33.72,38.82 80.06,93.59 113.8,131.33 39.28,42.6 75.86,87.73 108,136 -32.51,-48 -69.43,-92.75 -109.07,-135 -33.93,-37.29 -81.11,-92.07 -115,-130.36 l 2.27,-2 z"
     id="path136"
     style="fill:#ffffff" />
  <path
     class="e"
     d="m 97.507077,74.63 a 746.16,746.16 0 0 0 88.280003,95 c 43.15,38.5 86.27,77.14 126.92,118.32 5.08,5.58 36.08,35.72 30.08,41.25 -2.92,2.59 -10.13,-7.17 -12,-9.11 -4.67,-5.57 -9.07,-11.32 -13.44,-17.08 -13.14,-17.24 -25.37,-35.15 -39.78,-51.34 -4.79,-5.37 -9.82,-10.54 -14.91,-15.67 -51.89,-51 -103.59,-104.08 -153,-157.27 2.14,-1.93 0.59,-0.55 1.16,-0.86 l 0.21,0.25 0.44,0.5 c 0.51,0.59 3.93,4.33 4.55,5 62.29,67.3 137,146.91 199.28,214.42 7,7.73 19.68,21.28 26.36,29.18 l 0.43,0.55 0.21,0.3 c 0.55,0 -0.62,1.15 -0.64,0.59 -20.93,-21.26 -41.87,-42.49 -64,-62.49 -42.73,-39 -89.26,-73.49 -133.37,-110.86 q -33.28,-27.81 -66.000003,-56.32 32.730003,28.44 66.080003,56.18 c 44.2,37.28 90.81,71.69 133.63,110.59 22.16,19.92 43.2,41.09 64.1,62.29 0.23,-0.31 -0.77,0.64 -0.45,0.42 l -0.17,-0.25 -0.41,-0.52 c -2.59,-3.16 -8.86,-9.95 -11.71,-13.13 -67.57,-73.4 -146.57,-156.88 -214.47,-229.95 l -3.67,-4 -0.91,-1 -0.45,-0.52 -0.23,-0.27 c 0.5,-0.42 -1.44,0.56 0.92,-1.26 49.64,53.09 101.46,106.17 153.5,157 5.11,5.12 10.18,10.31 15,15.72 14.48,16.2 26.82,34.17 40,51.37 4.37,5.75 8.77,11.48 13.4,17 2.64,3 5.15,6.17 8.31,8.4 a 2.87,2.87 0 0 0 0.76,0.35 0.42,0.42 0 0 0 -0.2,0.1 c -0.1,0.09 -0.06,0.09 0,0 a 2.31,2.31 0 0 0 0,-0.94 c -1.34,-4.86 -5.25,-9.06 -8.33,-13.09 -2.28,-2.78 -4.65,-5.49 -7.06,-8.16 -34.4,-37.09 -72.14,-70.83 -109.58,-104.82 -10.74,-9.69 -21.56,-19.24 -32.38,-28.84 A 747.68,747.68 0 0 1 95.147077,76.48 Z"
     id="path138"
     style="fill:#ffffff" />
  <polygon
     class="e"
     points="311.92,340.77 314.75,339.76 421.66,642.98 "
     id="polygon140"
     style="fill:#ffffff"
     transform="translate(-79.212923,-316.19)" />
  <path
     class="e"
     d="m 319.78708,11.66 c 3.88,43.69 9.39,87.33 13.52,131 8.28,63.59 15.14,127.54 21.52,191.32 -7,-60.32 -13.56,-120.93 -22.65,-181 -2.51,-20 -4.49,-40.39 -7.06,-60.41 -3.25,-26.82 -6.59,-53.65 -9.31,-80.57 l 4,-0.38 z"
     id="path142"
     style="fill:#ffffff" />
  <polygon
     class="e"
     points="413.3,320.85 417.29,320.62 433.97,650.48 "
     id="polygon144"
     style="fill:#ffffff"
     transform="translate(-79.212923,-316.19)" />
  <path
     class="e"
     d="m 373.17708,14.81 c -4.19,106.74 -12.39,213.21 -17.85,319.86 4.1,-106.7 11,-213.31 13.85,-320 z"
     id="path146"
     style="fill:#ffffff" />
  <path
     class="e"
     d="m 423.32708,14.21 c -22.4,106.87 -46.06,213.45 -68.14,320.37 20.77,-107.19 43.13,-214.06 64.22,-321.17 z"
     id="path148"
     style="fill:#ffffff" />
  <polygon
     class="e"
     points="610.7,362.78 614.1,364.89 435.01,650.88 "
     id="polygon150"
     style="fill:#ffffff"
     transform="translate(-79.212923,-316.19)" />
  <path
     class="e"
     d="m 572.86708,72.81 c -62.69,75.47 -155,187.27 -216.06,262.52 59.9,-75.63 151.47,-189.22 213,-265.07 l 3.09,2.55 z"
     id="path152"
     style="fill:#ffffff" />
  <path
     class="e"
     d="m 482.51708,25.52 c -35.87,88.11 -91.09,223.61 -126.33,310.8 34.05,-87.23 88,-224.15 122.62,-312.3 z"
     id="path154"
     style="fill:#ffffff" />
  <polygon
     class="e"
     points="663.21,397.18 666.18,399.86 435.4,652.51 "
     id="polygon156"
     style="fill:#ffffff"
     transform="translate(-79.212923,-316.19)" />
  <polygon
     class="e"
     points="673.93,405.96 676.8,408.75 435.95,653.5 "
     id="polygon158"
     style="fill:#ffffff"
     transform="translate(-79.212923,-316.19)" />
  <polygon
     class="e"
     points="682.22,417.67 684.98,420.57 436.98,653.44 "
     id="polygon160"
     style="fill:#ffffff"
     transform="translate(-79.212923,-316.19)" />
  <polygon
     class="e"
     points="620.76,368.34 624.1,370.55 434.79,652.96 "
     id="polygon162"
     style="fill:#ffffff"
     transform="translate(-79.212923,-316.19)" />
  <polygon
     class="e"
     points="538.6,335.77 542.4,337.03 435.4,652.51 "
     id="polygon164"
     style="fill:#ffffff"
     transform="translate(-79.212923,-316.19)" />
  <polygon
     class="e"
     points="589.73,352.57 593.28,354.42 436.14,652.49 "
     id="polygon166"
     style="fill:#ffffff"
     transform="translate(-79.212923,-316.19)" />
  <polygon
     class="e"
     points="575.42,346.56 579.04,348.25 435.06,653.32 "
     id="polygon168"
     style="fill:#ffffff"
     transform="translate(-79.212923,-316.19)" />
  <polygon
     class="e"
     points="522.67,330.58 526.52,331.65 434.79,652.96 "
     id="polygon170"
     style="fill:#ffffff"
     transform="translate(-79.212923,-316.19)" />
  <path
     class="e"
     d="m 401.78708,9.28 c -3.33,20.2 -5.08,40.74 -8,61.06 -14.07,87.88 -25.53,176.23 -38.61,264.25 12,-88.17 22.39,-176.66 35.39,-264.7 0.88,-6.76 1.66,-13.56 2.39,-20.36 1.46,-13.6 2.81,-27.26 4.89,-40.88 l 4,0.63 z"
     id="path172"
     style="fill:#ffffff" />
  <polygon
     class="e"
     points="632.81,375.61 636.05,377.95 436.51,650.71 "
     id="polygon174"
     style="fill:#ffffff"
     transform="translate(-79.212923,-316.19)" />
  <path
     class="e"
     d="m 574.03708,83.17 c -66.19,76.28 -135.87,158.53 -202.09,235 -4.56,5.16 -8.88,10.53 -13.53,15.62 4.6,-5.13 8.87,-10.54 13.39,-15.74 24.4,-28.32 68.67,-81.53 93.23,-110.6 q 53.24,-63.2 106.75,-126.23 l 2.27,1.95 z"
     id="path176"
     style="fill:#ffffff" />
  <path
     class="e"
     d="m 591.23708,90.71 c -77.32,78.66 -155,165.31 -233,243.2 74.44,-76.19 150.11,-160.38 223.35,-238 l 7.5,-7.37 2.12,2.12 z"
     id="path178"
     style="fill:#ffffff" />
  <polygon
     class="e"
     points="510.59,586.29 512.55,588.55 437.59,650.4 "
     id="polygon180"
     style="fill:#ffffff"
     transform="translate(-79.212923,-316.19)" />
  <path
     class="e"
     d="m 644.31708,144.71 c -63.86,42.77 -128.16,84.85 -191.81,127.91 -13.7,8.39 -27.26,17.11 -40.43,26.3 -5.8,4 -11.65,8.48 -17.47,12.43 -11.74,8.09 -23.18,16.9 -36.26,22.79 13,-6 24.36,-14.9 36.05,-23.1 2.48,-1.68 6.22,-4.44 8.67,-6.29 14.39,-10.62 29.26,-20.57 44.38,-30.11 2.55,-1.63 6.57,-4 9,-5.79 61.62,-42.85 124.34,-84.21 186.19,-126.62 z"
     id="path182"
     style="fill:#ffffff" />
  <path
     class="e"
     d="m 705.78708,219.15 c -115.65,38.72 -232.27,74.41 -347.2,115.19 114.58,-41.72 230.93,-78.38 346.22,-118 l 1,2.84 z"
     id="path184"
     style="fill:#ffffff" />
  <path
     class="e"
     d="m 728.32708,249.89 c -104.83,23.92 -266.08,60.66 -369.54,84.97 102.85,-25 264.71,-63.27 368.89,-87.89 l 0.67,2.92 z"
     id="path186"
     style="fill:#ffffff" />
  <polygon
     class="e"
     points="754.18,496.04 755.49,498.74 437.3,651.26 "
     id="polygon188"
     style="fill:#ffffff"
     transform="translate(-79.212923,-316.19)" />
  <path
     class="e"
     d="m 732.88708,263.64 c -124.79,24.66 -250.22,45.75 -374.8,71.43 124.35,-26.65 249.7,-48.74 374.21,-74.37 z"
     id="path190"
     style="fill:#ffffff" />
  <path
     class="e"
     d="m 741.04708,273.56 c -83.46,12.15 -179.81,30.63 -263.26,43.74 -40,5.92 -79.54,14.87 -119.88,18.3 40.3,-3.74 79.79,-13 119.74,-19.23 44.46,-7.29 122,-21.56 167.2,-29.69 31.84,-5.68 63.74,-11.15 95.73,-16.09 l 0.44,3 z"
     id="path192"
     style="fill:#ffffff" />
  <polygon
     class="e"
     points="812.81,599.54 813.21,602.51 437.65,652.02 "
     id="polygon194"
     style="fill:#ffffff"
     transform="translate(-79.212923,-316.19)" />
  <path
     class="e"
     d="m 711.60708,226.81 c -117.81,36.77 -236.31,71.15 -354,108.27 117.37,-38.07 235.61,-73.42 353.07,-111.13 l 0.91,2.86 z"
     id="path196"
     style="fill:#ffffff" />
  <path
     class="e"
     d="m 666.45708,169.92 c -102.9,54.81 -205.19,110.89 -308.37,165.15 102.72,-55.2 204.5,-112.09 307,-167.79 l 1.42,2.64 z"
     id="path198"
     style="fill:#ffffff" />
  <path
     class="e"
     d="m 693.50708,204.27 c -111.13,45.11 -223.24,87.68 -335.06,131 111.45,-44.23 223.21,-87.74 333.92,-133.76 l 1.14,2.78 z"
     id="path200"
     style="fill:#ffffff" />
  <polygon
     class="e"
     points="764.14,507.57 765.34,510.32 436.82,651.49 "
     id="polygon202"
     style="fill:#ffffff"
     transform="translate(-79.212923,-316.19)" />
  <path
     class="e"
     d="m 656.89708,159.81 c -99,59.7 -200.47,115.21 -299.27,175.3 98.24,-60.94 199.24,-117.3 297.71,-177.89 l 1.56,2.57 z"
     id="path204"
     style="fill:#ffffff" />
  <polygon
     class="e"
     points="709.57,445.24 711.36,447.64 437.54,650.32 "
     id="polygon206"
     style="fill:#ffffff"
     transform="translate(-79.212923,-316.19)" />
  <path
     class="e"
     d="m 718.69708,236.34 c -119.7,33.12 -239.91,64.32 -359.35,98.31 119.17,-35 239.14,-67.12 358.54,-101.2 z"
     id="path208"
     style="fill:#ffffff" />
  <path
     class="f"
     d="m 400.17708,333.6 a 68,68 0 0 1 -67.3,-3.13 q -0.54,-4.27 -1.09,-8.57 a 76.47,76.47 0 0 0 67.76,3.36 z"
     id="path210"
     style="fill:#ef5232" />
</svg>
