<?xml version="1.0" encoding="UTF-8" standalone="no"?>
<svg
   id="Layer_2"
   data-name="Layer 2"
   viewBox="0 0 5540.1125 926.04238"
   version="1.1"
   sodipodi:docname="kamurj_2.svg"
   width="5540.1123"
   height="926.04236"
   inkscape:version="1.2.1 (9c6d41e410, 2022-07-14)"
   xmlns:inkscape="http://www.inkscape.org/namespaces/inkscape"
   xmlns:sodipodi="http://sodipodi.sourceforge.net/DTD/sodipodi-0.dtd"
   xmlns="http://www.w3.org/2000/svg"
   xmlns:svg="http://www.w3.org/2000/svg">
  <sodipodi:namedview
     id="namedview136"
     pagecolor="#ffffff"
     bordercolor="#000000"
     borderopacity="0.25"
     inkscape:showpageshadow="2"
     inkscape:pageopacity="0.0"
     inkscape:pagecheckerboard="0"
     inkscape:deskcolor="#d1d1d1"
     showgrid="false"
     inkscape:zoom="0.24566244"
     inkscape:cx="3417.2908"
     inkscape:cy="423.34513"
     inkscape:window-width="1920"
     inkscape:window-height="1011"
     inkscape:window-x="0"
     inkscape:window-y="0"
     inkscape:window-maximized="1"
     inkscape:current-layer="Layer_2" />
  <defs
     id="defs4">
    <style
       id="style2">.cls-1{fill:#8dc63f;}.cls-2{fill:#39b54a;}.cls-3,.cls-4,.cls-8{fill:none;}.cls-3,.cls-4{stroke:#414042;}.cls-3,.cls-4,.cls-6,.cls-7,.cls-8{stroke-miterlimit:10;}.cls-3{stroke-width:16px;}.cls-4{stroke-width:12px;}.cls-5{fill:#2c8b39;}.cls-6{fill:#9b8579;}.cls-6,.cls-7,.cls-8{stroke:#8b5e3c;}.cls-7{fill:#c2b59b;}</style>
  </defs>
  <g
     id="Layer_1"
     data-name="Layer 1"
     transform="translate(5.2738161,-848.03768)">
    <rect
       class="cls-1"
       y="852.27002"
       width="5523.8398"
       height="921.81"
       id="rect6"
       style="fill:#8dc63f"
       x="0" />
    <path
       class="cls-2"
       d="m 1640.46,1035.24 c 242.41,-11 631.75,-29.44 1112.38,-56.16 479.1,-26.64 1194.8,-98 1786,-6.6 141.47,21.88 370.25,67.26 643.25,192.06 A 2640.84,2640.84 0 0 1 5523.84,1353 v 420.78 0 c -0.13,0 -1330.61,-0.37 -2761.92,0 q -1341.08,0.36 -2682.16,0 H 0 v -333.57 c 137.09,-97.52 304.48,-199.67 500.48,-286.57 218.32,-96.8 417.32,-150.37 583.58,-180.4 z"
       id="path8"
       style="fill:#39b54a" />
    <path
       class="cls-3"
       d="m 93.5,894.73 q 73.19,-16.92 146.58,-33.79"
       id="path10"
       style="fill:none;stroke:#414042;stroke-width:16px;stroke-miterlimit:10" />
    <path
       class="cls-3"
       d="M 323.39,893.09 Q 382.65,877.51 441.8,861.91"
       id="path12"
       style="fill:none;stroke:#414042;stroke-width:16px;stroke-miterlimit:10" />
    <path
       class="cls-3"
       d="m 575.55,892.54 c 35,-11.06 69.61,-22.19 104.47,-33.28"
       id="path14"
       style="fill:none;stroke:#414042;stroke-width:16px;stroke-miterlimit:10" />
    <path
       class="cls-3"
       d="m 763.53,892.54 q 41.55,-16.66 83.46,-33.29"
       id="path16"
       style="fill:none;stroke:#414042;stroke-width:16px;stroke-miterlimit:10" />
    <path
       class="cls-3"
       d="m 971.18,892.88 c 14.35,-10.6 28.5,-21.21 42.73,-31.82"
       id="path18"
       style="fill:none;stroke:#414042;stroke-width:16px;stroke-miterlimit:10" />
    <path
       class="cls-3"
       d="m 1174.42,896.35 c 6.58,-12.27 13.07,-24.54 20.08,-36.8"
       id="path20"
       style="fill:none;stroke:#414042;stroke-width:16px;stroke-miterlimit:10" />
    <path
       class="cls-3"
       d="m 1349.2,892.22 q 4.36,-15.53 8.72,-31.05"
       id="path22"
       style="fill:none;stroke:#414042;stroke-width:16px;stroke-miterlimit:10" />
    <path
       class="cls-3"
       d="m 1561.6,893.94 c 3.12,-11.35 6,-22.71 9.56,-34.06"
       id="path24"
       style="fill:none;stroke:#414042;stroke-width:16px;stroke-miterlimit:10" />
    <path
       class="cls-3"
       d="m 1761.74,896.07 c -0.33,-12.1 -0.85,-24.2 -1.68,-36.3"
       id="path26"
       style="fill:none;stroke:#414042;stroke-width:16px;stroke-miterlimit:10" />
    <path
       class="cls-3"
       d="m 1979.16,894 c -1.39,-11.43 -2.49,-22.88 -4.24,-34.31"
       id="path28"
       style="fill:none;stroke:#414042;stroke-width:16px;stroke-miterlimit:10" />
    <path
       class="cls-3"
       d="m 2234.61,893.56 q -0.06,-16.27 -0.1,-32.55"
       id="path30"
       style="fill:none;stroke:#414042;stroke-width:16px;stroke-miterlimit:10" />
    <path
       class="cls-3"
       d="m 2476,893.8 c -0.06,-10.84 -0.32,-21.68 -0.56,-32.53"
       id="path32"
       style="fill:none;stroke:#414042;stroke-width:16px;stroke-miterlimit:10" />
    <path
       class="cls-3"
       d="m 2734.6,893.78 q -3,-16.26 -6,-32.52"
       id="path34"
       style="fill:none;stroke:#414042;stroke-width:16px;stroke-miterlimit:10" />
    <path
       class="cls-3"
       d="m 2963.92,893.61 q -7.4,-17.79 -14.71,-35.6"
       id="path36"
       style="fill:none;stroke:#414042;stroke-width:16px;stroke-miterlimit:10" />
    <path
       class="cls-3"
       d="m 3177.67,893.14 q -8.15,-16.26 -16.18,-32.51"
       id="path38"
       style="fill:none;stroke:#414042;stroke-width:16px;stroke-miterlimit:10" />
    <path
       class="cls-3"
       d="m 3407.76,892.41 c -10.94,-11.81 -21.58,-23.64 -32.4,-35.46"
       id="path40"
       style="fill:none;stroke:#414042;stroke-width:16px;stroke-miterlimit:10" />
    <path
       class="cls-3"
       d="m 3611.81,891.46 q -15.6,-17.76 -31,-35.52"
       id="path42"
       style="fill:none;stroke:#414042;stroke-width:16px;stroke-miterlimit:10" />
    <path
       class="cls-3"
       d="m 3831.44,890.4 c -13.37,-11.41 -26.61,-22.83 -39.93,-34.25"
       id="path44"
       style="fill:none;stroke:#414042;stroke-width:16px;stroke-miterlimit:10" />
    <path
       class="cls-3"
       d="m 4049.63,890 -47.3,-34.12"
       id="path46"
       style="fill:none;stroke:#414042;stroke-width:16px;stroke-miterlimit:10" />
    <path
       class="cls-3"
       d="m 4241.71,889.58 c -17.61,-11.33 -35.33,-22.65 -52.87,-34"
       id="path48"
       style="fill:none;stroke:#414042;stroke-width:16px;stroke-miterlimit:10" />
    <path
       class="cls-3"
       d="m 4438.84,889.31 q -36.94,-16.92 -73.87,-33.85"
       id="path50"
       style="fill:none;stroke:#414042;stroke-width:16px;stroke-miterlimit:10" />
    <path
       class="cls-3"
       d="m 4641.34,889.22 q -42,-16.87 -84,-33.76"
       id="path52"
       style="fill:none;stroke:#414042;stroke-width:16px;stroke-miterlimit:10" />
    <path
       class="cls-3"
       d="m 4812.75,889.33 c -32.13,-11.06 -64.51,-22.08 -96.67,-33.14"
       id="path54"
       style="fill:none;stroke:#414042;stroke-width:16px;stroke-miterlimit:10" />
    <path
       class="cls-3"
       d="m 4990.91,889.86 q -42.3,-16.86 -84.68,-33.7"
       id="path56"
       style="fill:none;stroke:#414042;stroke-width:16px;stroke-miterlimit:10" />
    <path
       class="cls-3"
       d="m 5200.15,890.81 c -37.3,-11.21 -74.94,-22.35 -112.56,-33.5"
       id="path58"
       style="fill:none;stroke:#414042;stroke-width:16px;stroke-miterlimit:10" />
    <path
       class="cls-3"
       d="m 5388.46,892.29 c -41.51,-11.33 -82.93,-22.69 -124.53,-34"
       id="path60"
       style="fill:none;stroke:#414042;stroke-width:16px;stroke-miterlimit:10" />
    <path
       class="cls-3"
       d="m 5532.72,893.61 q -61.91,-17 -123.94,-33.94"
       id="path62"
       style="fill:none;stroke:#414042;stroke-width:16px;stroke-miterlimit:10" />
    <path
       class="cls-4"
       d="m 2,863.26 c 911.71,-9.56 1830.32,-3.43 2742.88,-5.48 922.86,-2.06 1862.75,-6.74 2783,3.15"
       id="path64"
       style="fill:none;stroke:#414042;stroke-width:12px;stroke-miterlimit:10" />
    <path
       class="cls-3"
       d="m -5.21,894.2 c 928.89,-7.41 1855.09,-0.55 2784.81,-2 917.86,-1.42 1835.85,-6.86 2753.38,1.37"
       id="path66"
       style="fill:none;stroke:#414042;stroke-width:16px;stroke-miterlimit:10" />
    <path
       class="cls-5"
       d="m 3083.76,1237.88 c -15.48,16.27 -58.76,-31.54 -155.52,-43.2 -135.41,-16.32 -215.31,57.48 -235.44,32.4 -26.85,-33.44 63.15,-229.6 201.87,-225.3 139.42,4.33 216.09,207.71 189.09,236.1 z"
       id="path68"
       style="fill:#2c8b39" />
    <path
       class="cls-6"
       d="m 3211.08,1262.76 -150,1 c 0,0 23.3,-113.72 -20,-183 -41.42,-66.26 -132.25,-73.43 -141,-74 -52.1,-3.37 -122.68,13.26 -158,64 -47.68,68.5 -24,189 -24,189 l -135,3 18,-311 q 144.74,0 289.5,-0.5 152.27,-0.5 304.5,-1.5 8,156.49 16,313 z"
       id="path70"
       style="fill:#9b8579;stroke:#8b5e3c;stroke-miterlimit:10" />
    <path
       class="cls-7"
       d="m 2690.09,1260.38 28,-0.62 v 0 a 224.46,224.46 0 0 1 4,-114 c 5.39,-17.71 17.26,-55.08 51.82,-87.91 11.5,-10.92 52.84,-50.19 113.18,-50.09 80.56,0.14 130,70.36 133.93,76.13 43.86,64.44 36.48,153.45 40.07,179.87 v 0 l 40,-0.27 c 24.62,-114.47 -14.55,-224.81 -95,-274.73 -60.61,-37.61 -127.67,-30.39 -145,-28 -91.35,12.61 -142.28,76.31 -152,89 -70.07,91.44 -42.48,198.44 -39,211.07 z"
       id="path72"
       style="fill:#c2b59b;stroke:#8b5e3c;stroke-miterlimit:10" />
    <line
       class="cls-8"
       x1="2771.8101"
       y1="993.33002"
       x2="2799.0801"
       y2="1032.76"
       id="line74"
       style="fill:none;stroke:#8b5e3c;stroke-miterlimit:10" />
    <line
       class="cls-8"
       x1="2709.0801"
       y1="1049.76"
       x2="2747.97"
       y2="1082.5601"
       id="line76"
       style="fill:none;stroke:#8b5e3c;stroke-miterlimit:10" />
    <line
       class="cls-8"
       x1="2671.78"
       y1="1123.37"
       x2="2725.71"
       y2="1134.45"
       id="line78"
       style="fill:none;stroke:#8b5e3c;stroke-miterlimit:10" />
    <line
       class="cls-8"
       x1="2661.95"
       y1="1202.8"
       x2="2709.01"
       y2="1201.76"
       id="line80"
       style="fill:none;stroke:#8b5e3c;stroke-miterlimit:10" />
    <line
       class="cls-8"
       x1="3016.51"
       y1="995.73999"
       x2="2978.71"
       y2="1040.55"
       id="line82"
       style="fill:none;stroke:#8b5e3c;stroke-miterlimit:10" />
    <line
       class="cls-8"
       x1="3068.0801"
       y1="1057.76"
       x2="3024.1101"
       y2="1088.64"
       id="line84"
       style="fill:none;stroke:#8b5e3c;stroke-miterlimit:10" />
    <line
       class="cls-8"
       x1="3098.0801"
       y1="1134.45"
       x2="3054.0801"
       y2="1152.76"
       id="line86"
       style="fill:none;stroke:#8b5e3c;stroke-miterlimit:10" />
    <line
       class="cls-8"
       x1="3058.1499"
       y1="1208.83"
       x2="3108.3701"
       y2="1206.76"
       id="line88"
       style="fill:none;stroke:#8b5e3c;stroke-miterlimit:10" />
    <polygon
       class="cls-7"
       points="2909.03,1007.76 2872.14,1007.76 2857.08,951.26 2924.08,951.26 "
       id="polygon90"
       style="fill:#c2b59b;stroke:#8b5e3c;stroke-miterlimit:10" />
    <path
       class="cls-7"
       d="m 2601.08,951.76 q 144.75,0 289.5,-0.5 Q 3025.3,950.81 3160,950 l -0.66,-23.14 -559.83,2.21 c 0,0 0.63,8.86 1.57,22.69 z"
       id="path92"
       style="fill:#c2b59b;stroke:#8b5e3c;stroke-miterlimit:10" />
    <path
       class="cls-6"
       d="m 4070.89,1266.61 -867,-3.39 -12.89,-312.35 801,-2.77 z"
       id="path94"
       style="fill:#9b8579;stroke:#8b5e3c;stroke-miterlimit:10" />
    <path
       class="cls-6"
       d="m 2590.23,1261.35 -873.7,5.45 85.83,-325.12 801,-3.39 q -6.26,154.23 -13.13,323.06 z"
       id="path96"
       style="fill:#9b8579;stroke:#8b5e3c;stroke-miterlimit:10" />
    <line
       class="cls-8"
       x1="1811.37"
       y1="977.84003"
       x2="2604.4099"
       y2="976.46002"
       id="line98"
       style="fill:none;stroke:#8b5e3c;stroke-miterlimit:10" />
    <line
       class="cls-8"
       x1="1773.25"
       y1="1031.92"
       x2="2600.99"
       y2="1030.51"
       id="line100"
       style="fill:none;stroke:#8b5e3c;stroke-miterlimit:10" />
    <line
       class="cls-8"
       x1="1757.86"
       y1="1095.65"
       x2="2597.1399"
       y2="1091.49"
       id="line102"
       style="fill:none;stroke:#8b5e3c;stroke-miterlimit:10" />
    <line
       class="cls-8"
       x1="1742.26"
       y1="1160.25"
       x2="2591.6001"
       y2="1161.73"
       id="line104"
       style="fill:none;stroke:#8b5e3c;stroke-miterlimit:10" />
    <line
       class="cls-8"
       x1="1725.1899"
       y1="1230.9301"
       x2="2588.8999"
       y2="1221.79"
       id="line106"
       style="fill:none;stroke:#8b5e3c;stroke-miterlimit:10" />
    <line
       class="cls-8"
       x1="3214.46"
       y1="973.46997"
       x2="3983.0901"
       y2="972.09003"
       id="line108"
       style="fill:none;stroke:#8b5e3c;stroke-miterlimit:10" />
    <line
       class="cls-8"
       x1="3193.6399"
       y1="1027.4399"
       x2="3995.8999"
       y2="1026.04"
       id="line110"
       style="fill:none;stroke:#8b5e3c;stroke-miterlimit:10" />
    <line
       class="cls-8"
       x1="3197.74"
       y1="1091.05"
       x2="4010.3601"
       y2="1086.89"
       id="line112"
       style="fill:none;stroke:#8b5e3c;stroke-miterlimit:10" />
    <line
       class="cls-8"
       x1="3201.8999"
       y1="1155.52"
       x2="4025.95"
       y2="1157"
       id="line114"
       style="fill:none;stroke:#8b5e3c;stroke-miterlimit:10" />
    <line
       class="cls-8"
       x1="3206.45"
       y1="1226.0601"
       x2="4041.25"
       y2="1216.9399"
       id="line116"
       style="fill:none;stroke:#8b5e3c;stroke-miterlimit:10" />
    <path
       class="cls-8"
       d="m 3288.55,1156.36 q 28.24,0 56.47,-0.1"
       id="path118"
       style="fill:none;stroke:#8b5e3c;stroke-miterlimit:10" />
    <path
       class="cls-8"
       d="m 2517.85,1157.45 h 35.73"
       id="path120"
       style="fill:none;stroke:#8b5e3c;stroke-miterlimit:10" />
    <path
       class="cls-8"
       d="m 3292.72,1202.73 q 28.35,0 56.71,0.14"
       id="path122"
       style="fill:none;stroke:#8b5e3c;stroke-miterlimit:10" />
    <path
       class="cls-8"
       d="m 2521.85,1204 h 32.31"
       id="path124"
       style="fill:none;stroke:#8b5e3c;stroke-miterlimit:10" />
    <path
       class="cls-8"
       d="m 3287.72,1255.43 66.65,-0.22"
       id="path126"
       style="fill:none;stroke:#8b5e3c;stroke-miterlimit:10" />
    <path
       class="cls-8"
       d="m 2517.63,1258.64 32.68,-0.06"
       id="path128"
       style="fill:none;stroke:#8b5e3c;stroke-miterlimit:10" />
    <path
       class="cls-7"
       d="m 4046.05,1266.61 h 37.74 l -91.27,-342.28 -854.3,2.36 q 0.72,11.4 1.43,22.87 L 3967,948.21 q 37.78,152.11 79.05,318.4 z"
       id="path130"
       style="fill:#c2b59b;stroke:#8b5e3c;stroke-miterlimit:10" />
    <path
       class="cls-7"
       d="m 1741,1266.61 h -36 q 46.66,-175.33 89,-334.62 l 816.49,-3.48 q -0.39,10 -0.79,20 l -789.8,0.08 q -37.65,151.93 -78.9,318.02 z"
       id="path132"
       style="fill:#c2b59b;stroke:#8b5e3c;stroke-miterlimit:10" />
  </g>
</svg>
