<?xml version="1.0" encoding="UTF-8" standalone="no"?>
<svg
   id="Layer_2"
   data-name="Layer 2"
   viewBox="0 0 3440.67 612.46627"
   version="1.1"
   sodipodi:docname="kamurj_1.svg"
   width="3440.6699"
   height="612.46625"
   inkscape:version="1.2.1 (9c6d41e410, 2022-07-14)"
   xmlns:inkscape="http://www.inkscape.org/namespaces/inkscape"
   xmlns:sodipodi="http://sodipodi.sourceforge.net/DTD/sodipodi-0.dtd"
   xmlns="http://www.w3.org/2000/svg"
   xmlns:svg="http://www.w3.org/2000/svg">
  <sodipodi:namedview
     id="namedview144"
     pagecolor="#ffffff"
     bordercolor="#000000"
     borderopacity="0.25"
     inkscape:showpageshadow="2"
     inkscape:pageopacity="0.0"
     inkscape:pagecheckerboard="0"
     inkscape:deskcolor="#d1d1d1"
     showgrid="false"
     inkscape:zoom="0.39528571"
     inkscape:cx="2070.6542"
     inkscape:cy="184.67655"
     inkscape:window-width="1920"
     inkscape:window-height="1011"
     inkscape:window-x="0"
     inkscape:window-y="0"
     inkscape:window-maximized="1"
     inkscape:current-layer="Layer_2" />
  <defs
     id="defs4">
    <style
       id="style2">.cls-1{fill:#8dc63f;}.cls-2{fill:#827066;}.cls-10,.cls-11,.cls-2,.cls-9{stroke:#8b5e3c;}.cls-10,.cls-11,.cls-2,.cls-5,.cls-6,.cls-7,.cls-9{stroke-miterlimit:10;}.cls-3{fill:#a89163;}.cls-4{fill:#39b54a;}.cls-11,.cls-5,.cls-6,.cls-7{fill:none;}.cls-5{stroke:#808285;stroke-width:16px;}.cls-6,.cls-7{stroke:#6d6e71;}.cls-6{stroke-width:20px;}.cls-7{stroke-width:40px;}.cls-8{fill:#2c8b39;}.cls-9{fill:#9b8579;}.cls-10{fill:#c2b59b;}</style>
  </defs>
  <g
     id="Layer_1"
     data-name="Layer 1"
     transform="translate(1.3807042,-21.338756)">
    <rect
       class="cls-1"
       y="118.99"
       width="3432.96"
       height="514.73999"
       id="rect6"
       style="fill:#8dc63f"
       x="0" />
    <path
       class="cls-2"
       d="M 2825.5,290.24 H 696.23 q 20.43,-121 39.83,-235.89 l 2048.2,-24.11 q 20.04,126.38 41.24,260 z"
       id="path8"
       style="fill:#827066;stroke:#8b5e3c;stroke-miterlimit:10" />
    <path
       class="cls-3"
       d="m 2828.18,264.85 q -530.07,-26.16 -1060,-24.36 -555.83,1.89 -1111.54,34.51 21.42,-61.86 42.85,-123.71 551.85,-11.4 1103.66,-10.18 462.53,1 925,10.91 c 3.27,-1.49 42.69,-18.69 75.73,2.24 32.02,20.3 44.92,67.97 24.3,110.59 z"
       id="path10"
       style="fill:#a89163" />
    <path
       class="cls-4"
       d="m 1019.51,292.3 c 150.66,-5.07 392.63,-13.61 691.33,-26 297.75,-12.32 742.54,-45.32 1110,-3 87.92,10.12 230.1,31.1 399.76,88.79 A 1866.81,1866.81 0 0 1 3433,439.2 v 194.53 0 c -0.08,0 -826.95,-0.18 -1716.48,0 q -833.46,0.15 -1666.91,0 H 0 V 479.52 A 2013.13,2013.13 0 0 1 673.72,263.64 Z"
       id="path12"
       style="fill:#39b54a" />
    <line
       class="cls-5"
       x1="60.799999"
       y1="293.85001"
       x2="147.36"
       y2="200.83"
       id="line14"
       style="fill:none;stroke:#808285;stroke-width:16px;stroke-miterlimit:10" />
    <line
       class="cls-5"
       x1="203.33"
       y1="284.26999"
       x2="272.76001"
       y2="197.47"
       id="line16"
       style="fill:none;stroke:#808285;stroke-width:16px;stroke-miterlimit:10" />
    <line
       class="cls-5"
       x1="359.56"
       y1="274.67999"
       x2="420.48001"
       y2="182.56"
       id="line18"
       style="fill:none;stroke:#808285;stroke-width:16px;stroke-miterlimit:10" />
    <line
       class="cls-5"
       x1="476.20001"
       y1="268.13"
       x2="524.34003"
       y2="176.44"
       id="line20"
       style="fill:none;stroke:#808285;stroke-width:16px;stroke-miterlimit:10" />
    <line
       class="cls-5"
       x1="604.85999"
       y1="261.51999"
       x2="628.34998"
       y2="175.31"
       id="line22"
       style="fill:none;stroke:#808285;stroke-width:16px;stroke-miterlimit:10" />
    <line
       class="cls-5"
       x1="731.16998"
       y1="263.92001"
       x2="740.69"
       y2="165.17"
       id="line24"
       style="fill:none;stroke:#808285;stroke-width:16px;stroke-miterlimit:10" />
    <line
       class="cls-5"
       x1="839.34998"
       y1="247.34"
       x2="842.56"
       y2="164.42999"
       id="line26"
       style="fill:none;stroke:#808285;stroke-width:16px;stroke-miterlimit:10" />
    <line
       class="cls-5"
       x1="971.10999"
       y1="246.22"
       x2="975.40997"
       y2="155.2"
       id="line28"
       style="fill:none;stroke:#808285;stroke-width:16px;stroke-miterlimit:10" />
    <line
       class="cls-5"
       x1="1095.33"
       y1="247.75"
       x2="1093.1"
       y2="151.08"
       id="line30"
       style="fill:none;stroke:#808285;stroke-width:16px;stroke-miterlimit:10" />
    <line
       class="cls-5"
       x1="1230.26"
       y1="238.53"
       x2="1227.04"
       y2="147.10001"
       id="line32"
       style="fill:none;stroke:#808285;stroke-width:16px;stroke-miterlimit:10" />
    <line
       class="cls-5"
       x1="1388.8101"
       y1="235.11"
       x2="1388.8101"
       y2="148.48"
       id="line34"
       style="fill:none;stroke:#808285;stroke-width:16px;stroke-miterlimit:10" />
    <line
       class="cls-5"
       x1="1538.74"
       y1="235.11"
       x2="1538.74"
       y2="148.48"
       id="line36"
       style="fill:none;stroke:#808285;stroke-width:16px;stroke-miterlimit:10" />
    <line
       class="cls-5"
       x1="1699.4"
       y1="235.11"
       x2="1696.1899"
       y2="148.48"
       id="line38"
       style="fill:none;stroke:#808285;stroke-width:16px;stroke-miterlimit:10" />
    <line
       class="cls-5"
       x1="1841.85"
       y1="235.11"
       x2="1833.28"
       y2="140.25"
       id="line40"
       style="fill:none;stroke:#808285;stroke-width:16px;stroke-miterlimit:10" />
    <line
       class="cls-5"
       x1="1974.4399"
       y1="235.11"
       x2="1965.02"
       y2="148.48"
       id="line42"
       style="fill:none;stroke:#808285;stroke-width:16px;stroke-miterlimit:10" />
    <line
       class="cls-5"
       x1="2117.1101"
       y1="235.11"
       x2="2097.8301"
       y2="140.25"
       id="line44"
       style="fill:none;stroke:#808285;stroke-width:16px;stroke-miterlimit:10" />
    <line
       class="cls-5"
       x1="2243.5"
       y1="235.11"
       x2="2225.29"
       y2="140.25"
       id="line46"
       style="fill:none;stroke:#808285;stroke-width:16px;stroke-miterlimit:10" />
    <line
       class="cls-5"
       x1="2379.53"
       y1="235.78999"
       x2="2355.97"
       y2="143.87"
       id="line48"
       style="fill:none;stroke:#808285;stroke-width:16px;stroke-miterlimit:10" />
    <line
       class="cls-5"
       x1="2514.54"
       y1="238.83"
       x2="2486.6799"
       y2="146.99001"
       id="line50"
       style="fill:none;stroke:#808285;stroke-width:16px;stroke-miterlimit:10" />
    <line
       class="cls-5"
       x1="2633.3999"
       y1="242.09"
       x2="2602.29"
       y2="150.36"
       id="line52"
       style="fill:none;stroke:#808285;stroke-width:16px;stroke-miterlimit:10" />
    <line
       class="cls-5"
       x1="2755.3799"
       y1="246"
       x2="2711.4399"
       y2="154.05"
       id="line54"
       style="fill:none;stroke:#808285;stroke-width:16px;stroke-miterlimit:10" />
    <line
       class="cls-5"
       x1="2880.7"
       y1="250.62"
       x2="2830.6499"
       y2="158.67"
       id="line56"
       style="fill:none;stroke:#808285;stroke-width:16px;stroke-miterlimit:10" />
    <line
       class="cls-5"
       x1="2986.78"
       y1="255"
       x2="2928.98"
       y2="164.42999"
       id="line58"
       style="fill:none;stroke:#808285;stroke-width:16px;stroke-miterlimit:10" />
    <line
       class="cls-5"
       x1="3097.1499"
       y1="260.03"
       x2="3046.8501"
       y2="168.58"
       id="line60"
       style="fill:none;stroke:#808285;stroke-width:16px;stroke-miterlimit:10" />
    <line
       class="cls-5"
       x1="3226.79"
       y1="266.53"
       x2="3159.25"
       y2="175.31"
       id="line62"
       style="fill:none;stroke:#808285;stroke-width:16px;stroke-miterlimit:10" />
    <line
       class="cls-5"
       x1="3343.5901"
       y1="272.95001"
       x2="3268.6001"
       y2="180.8"
       id="line64"
       style="fill:none;stroke:#808285;stroke-width:16px;stroke-miterlimit:10" />
    <line
       class="cls-5"
       x1="3433.0801"
       y1="278.22"
       x2="3358.4399"
       y2="186.35001"
       id="line66"
       style="fill:none;stroke:#808285;stroke-width:16px;stroke-miterlimit:10" />
    <path
       class="cls-6"
       d="m 0,212 q 853.19,-67.37 1706.63,-72.88 863.09,-5.58 1726.45,52.09"
       id="path68"
       style="fill:none;stroke:#6d6e71;stroke-width:20px;stroke-miterlimit:10" />
    <path
       class="cls-7"
       d="m 0,294.59 q 863.58,-59.76 1727.36,-63.52 852.77,-3.72 1705.72,47.15"
       id="path70"
       style="fill:none;stroke:#6d6e71;stroke-width:40px;stroke-miterlimit:10" />
    <path
       class="cls-8"
       d="m 1937.52,553 c -15.48,16.27 -58.76,-31.54 -155.52,-43.2 -135.41,-16.32 -215.31,57.48 -235.44,32.4 -26.85,-33.44 63.15,-229.6 201.87,-225.3 139.42,4.29 216.09,207.67 189.09,236.1 z"
       id="path72"
       style="fill:#2c8b39" />
    <path
       class="cls-9"
       d="m 2064.84,577.84 -150,1 c 0,0 23.3,-113.72 -20,-183 -41.42,-66.26 -132.25,-73.43 -141,-74 -52.1,-3.37 -122.68,13.26 -158,64 -47.68,68.5 -24,189 -24,189 l -135,3 18,-311 q 144.73,0 289.5,-0.5 152.27,-0.49 304.5,-1.5 8,156.5 16,313 z"
       id="path74"
       style="fill:#9b8579;stroke:#8b5e3c;stroke-miterlimit:10" />
    <path
       class="cls-10"
       d="m 1543.85,575.46 28,-0.62 v 0 a 224.46,224.46 0 0 1 4,-114 c 5.39,-17.71 17.26,-55.08 51.82,-87.91 11.5,-10.92 52.84,-50.19 113.18,-50.09 80.56,0.14 130,70.36 133.93,76.13 43.86,64.44 36.48,153.45 40.07,179.87 v 0 l 40,-0.27 c 24.62,-114.47 -14.55,-224.81 -95,-274.73 -60.61,-37.61 -127.67,-30.39 -145,-28 -91.35,12.61 -142.28,76.31 -152,89 -70.07,91.44 -42.48,198.44 -39,211.07 z"
       id="path76"
       style="fill:#c2b59b;stroke:#8b5e3c;stroke-miterlimit:10" />
    <line
       class="cls-11"
       x1="1625.5699"
       y1="308.41"
       x2="1652.84"
       y2="347.84"
       id="line78"
       style="fill:none;stroke:#8b5e3c;stroke-miterlimit:10" />
    <line
       class="cls-11"
       x1="1562.84"
       y1="364.84"
       x2="1601.73"
       y2="397.64001"
       id="line80"
       style="fill:none;stroke:#8b5e3c;stroke-miterlimit:10" />
    <line
       class="cls-11"
       x1="1525.54"
       y1="438.45001"
       x2="1579.47"
       y2="449.53"
       id="line82"
       style="fill:none;stroke:#8b5e3c;stroke-miterlimit:10" />
    <line
       class="cls-11"
       x1="1515.71"
       y1="517.88"
       x2="1562.77"
       y2="516.84003"
       id="line84"
       style="fill:none;stroke:#8b5e3c;stroke-miterlimit:10" />
    <line
       class="cls-11"
       x1="1870.27"
       y1="310.82001"
       x2="1832.47"
       y2="355.63"
       id="line86"
       style="fill:none;stroke:#8b5e3c;stroke-miterlimit:10" />
    <line
       class="cls-11"
       x1="1921.84"
       y1="372.84"
       x2="1877.87"
       y2="403.72"
       id="line88"
       style="fill:none;stroke:#8b5e3c;stroke-miterlimit:10" />
    <line
       class="cls-11"
       x1="1951.84"
       y1="449.53"
       x2="1907.84"
       y2="467.84"
       id="line90"
       style="fill:none;stroke:#8b5e3c;stroke-miterlimit:10" />
    <line
       class="cls-11"
       x1="1911.91"
       y1="523.90997"
       x2="1962.13"
       y2="521.84003"
       id="line92"
       style="fill:none;stroke:#8b5e3c;stroke-miterlimit:10" />
    <polygon
       class="cls-10"
       points="1762.79,322.84 1725.89,322.84 1710.84,266.34 1777.84,266.34 "
       id="polygon94"
       style="fill:#c2b59b;stroke:#8b5e3c;stroke-miterlimit:10" />
    <path
       class="cls-10"
       d="m 1454.84,266.84 q 144.75,0 289.5,-0.5 134.72,-0.45 269.44,-1.28 l -0.66,-23.14 -559.83,2.21 c 0,0 0.61,8.87 1.55,22.71 z"
       id="path96"
       style="fill:#c2b59b;stroke:#8b5e3c;stroke-miterlimit:10" />
    <path
       class="cls-9"
       d="m 2924.65,581.69 -867,-3.39 -12.86,-312.3 801,-2.77 z"
       id="path98"
       style="fill:#9b8579;stroke:#8b5e3c;stroke-miterlimit:10" />
    <path
       class="cls-9"
       d="m 1444,576.43 -873.7,5.45 85.83,-325.12 801,-3.39 Q 1450.86,407.6 1444,576.43 Z"
       id="path100"
       style="fill:#9b8579;stroke:#8b5e3c;stroke-miterlimit:10" />
    <line
       class="cls-11"
       x1="665.13"
       y1="292.92001"
       x2="1458.17"
       y2="291.54001"
       id="line102"
       style="fill:none;stroke:#8b5e3c;stroke-miterlimit:10" />
    <line
       class="cls-11"
       x1="627.01001"
       y1="347"
       x2="1454.75"
       y2="345.59"
       id="line104"
       style="fill:none;stroke:#8b5e3c;stroke-miterlimit:10" />
    <line
       class="cls-11"
       x1="611.62"
       y1="410.73001"
       x2="1450.9"
       y2="406.57001"
       id="line106"
       style="fill:none;stroke:#8b5e3c;stroke-miterlimit:10" />
    <line
       class="cls-11"
       x1="596.02002"
       y1="475.32999"
       x2="1445.36"
       y2="476.81"
       id="line108"
       style="fill:none;stroke:#8b5e3c;stroke-miterlimit:10" />
    <line
       class="cls-11"
       x1="578.95001"
       y1="546.01001"
       x2="1442.66"
       y2="536.87"
       id="line110"
       style="fill:none;stroke:#8b5e3c;stroke-miterlimit:10" />
    <line
       class="cls-11"
       x1="2068.22"
       y1="288.54999"
       x2="2836.8501"
       y2="287.17001"
       id="line112"
       style="fill:none;stroke:#8b5e3c;stroke-miterlimit:10" />
    <line
       class="cls-11"
       x1="2047.4"
       y1="342.51999"
       x2="2849.6599"
       y2="341.12"
       id="line114"
       style="fill:none;stroke:#8b5e3c;stroke-miterlimit:10" />
    <line
       class="cls-11"
       x1="2051.5"
       y1="406.13"
       x2="2864.1201"
       y2="401.97"
       id="line116"
       style="fill:none;stroke:#8b5e3c;stroke-miterlimit:10" />
    <line
       class="cls-11"
       x1="2055.6599"
       y1="470.60001"
       x2="2879.71"
       y2="472.07999"
       id="line118"
       style="fill:none;stroke:#8b5e3c;stroke-miterlimit:10" />
    <line
       class="cls-11"
       x1="2060.21"
       y1="541.14001"
       x2="2895.01"
       y2="532.02002"
       id="line120"
       style="fill:none;stroke:#8b5e3c;stroke-miterlimit:10" />
    <path
       class="cls-11"
       d="m 2142.31,471.44 q 28.24,0 56.47,-0.1"
       id="path122"
       style="fill:none;stroke:#8b5e3c;stroke-miterlimit:10" />
    <path
       class="cls-11"
       d="m 1371.61,472.53 h 35.73"
       id="path124"
       style="fill:none;stroke:#8b5e3c;stroke-miterlimit:10" />
    <path
       class="cls-11"
       d="m 2146.48,517.81 q 28.35,0 56.71,0.14"
       id="path126"
       style="fill:none;stroke:#8b5e3c;stroke-miterlimit:10" />
    <path
       class="cls-11"
       d="m 1375.61,519.1 h 32.31"
       id="path128"
       style="fill:none;stroke:#8b5e3c;stroke-miterlimit:10" />
    <path
       class="cls-11"
       d="m 2141.48,570.51 66.65,-0.22"
       id="path130"
       style="fill:none;stroke:#8b5e3c;stroke-miterlimit:10" />
    <path
       class="cls-11"
       d="m 1371.39,573.72 32.68,-0.06"
       id="path132"
       style="fill:none;stroke:#8b5e3c;stroke-miterlimit:10" />
    <path
       class="cls-10"
       d="m 2899.81,581.69 h 37.74 L 2846.28,239.41 1992,241.77 q 0.72,11.4 1.43,22.87 l 827.39,-1.35 q 37.72,152.12 78.99,318.4 z"
       id="path134"
       style="fill:#c2b59b;stroke:#8b5e3c;stroke-miterlimit:10" />
    <path
       class="cls-10"
       d="m 594.77,581.69 h -36 q 46.66,-175.34 89.05,-334.62 l 816.49,-3.48 q -0.39,10 -0.79,20 l -789.8,0.08 Q 636,415.61 594.77,581.69 Z"
       id="path136"
       style="fill:#c2b59b;stroke:#8b5e3c;stroke-miterlimit:10" />
    <path
       class="cls-10"
       d="m 716.43,42.13 q -9.3,56.9 -18.85,115.3 l 29.47,-3.16 13.72,-90.86 1016.11,-16.17 q 0.48,-10.83 1,-21.66 z"
       id="path138"
       style="fill:#c2b59b;stroke:#8b5e3c;stroke-miterlimit:10" />
    <path
       class="cls-10"
       d="m 2805.8,21.84 q 12.42,66.78 24.85,133.58 l -26.73,-1.12 Q 2796,101.45 2788,48.62 L 1748.09,45.18 1749.16,25 Z"
       id="path140"
       style="fill:#c2b59b;stroke:#8b5e3c;stroke-miterlimit:10" />
  </g>
</svg>
