<?xml version="1.0" encoding="UTF-8" standalone="no"?>
<!-- Created with Inkscape (http://www.inkscape.org/) -->

<svg
   width="210mm"
   height="297mm"
   viewBox="0 0 210 297"
   version="1.1"
   id="svg5"
   inkscape:version="1.1.1 (c3084ef, 2021-09-22)"
   sodipodi:docname="road.svg"
   xmlns:inkscape="http://www.inkscape.org/namespaces/inkscape"
   xmlns:sodipodi="http://sodipodi.sourceforge.net/DTD/sodipodi-0.dtd"
   xmlns="http://www.w3.org/2000/svg"
   xmlns:svg="http://www.w3.org/2000/svg">
  <sodipodi:namedview
     id="namedview7"
     pagecolor="#505050"
     bordercolor="#eeeeee"
     borderopacity="1"
     inkscape:pageshadow="0"
     inkscape:pageopacity="0"
     inkscape:pagecheckerboard="0"
     inkscape:document-units="mm"
     showgrid="false"
     inkscape:zoom="5.9686478"
     inkscape:cx="562.94157"
     inkscape:cy="105.80286"
     inkscape:window-width="1512"
     inkscape:window-height="837"
     inkscape:window-x="0"
     inkscape:window-y="38"
     inkscape:window-maximized="1"
     inkscape:current-layer="layer1" />
  <defs
     id="defs2" />
  <g
     inkscape:label="Layer 1"
     inkscape:groupmode="layer"
     id="layer1">
    <path
       style="fill:none;stroke:#000000;stroke-width:0.4;stroke-linecap:butt;stroke-linejoin:miter;stroke-miterlimit:4;stroke-dasharray:none;stroke-opacity:1"
       d="m 27.317364,155.9112 c -0.686274,-3.21217 -1.074286,-6.33947 -1.171458,-9.36179 -0.08468,-2.63387 0.05151,-5.18802 0.403684,-7.64913 0.405428,-2.83332 1.09709,-5.54335 2.067488,-8.10977 1.073256,-2.83846 2.487468,-5.50126 4.232496,-7.96095 1.45182,-2.0464 3.132623,-3.95221 5.036571,-5.70161 2.625511,-2.41239 5.675351,-4.52737 9.134205,-6.30345 2.410952,-1.238 5.020628,-2.31134 7.823842,-3.20598 2.386239,-0.76157 4.312782,0.62524 5.997297,3.30739 1.014822,1.61585 1.941803,3.70182 2.828536,6.07141 0.866647,2.31592 1.694848,4.90276 2.529036,7.58639 0.798091,2.56751 1.601661,5.22362 2.44962,7.81585 1.086551,3.32162 2.245984,6.53835 3.560161,9.3294 1.2834,2.72568 2.71438,5.04538 4.369185,6.6603 2.03013,1.9812 4.397129,2.90168 7.241776,2.20974 4.211597,-1.02444 9.1183,-1.65818 12.07317,-4.82926 2.403341,-2.5792 4.203157,-5.61674 5.566867,-8.97792 1.10429,-2.72176 1.92261,-5.65573 2.54388,-8.73038 0.76979,-3.80973 1.23704,-7.83544 1.57085,-11.94106 0.22429,-2.75864 0.38835,-5.55335 0.54346,-8.34286 0.25642,-4.61138 0.48842,-9.208544 0.92775,-13.604989 0.29944,-2.996472 0.69519,-5.899705 1.26063,-8.650655 0.42449,-2.065186 0.94462,-4.044549 1.59143,-5.913108 1.37297,-3.96637 3.89238,-6.67546 6.92291,-8.521837 3.06272,-1.86599 6.64749,-2.850841 10.09853,-3.36183 3.79877,-0.562477 7.4355,-0.550786 10.03558,-0.508136 2.229,0.03656 3.69612,0.09588 3.8503,-0.164296 1.29141,-2.179259 2.36329,-4.113088 3.24899,-5.848495 1.50832,-2.95537 2.47669,-5.335285 3.06981,-7.371911 1.31904,-4.529183 0.78232,-7.360597 0.2015,-11.047675 -0.30653,-1.945864 -0.62533,-4.130049 -0.69012,-6.927886 -0.0509,-2.200084 0.0552,-4.779621 0.44787,-7.921106 0.12262,-0.980956 0.49712,-1.591614 1.05619,-1.911803 0.78423,-0.449138 1.93163,-0.326731 3.25639,0.146889 0.8855,0.316578 1.85025,0.790072 2.83876,1.354682 1.15666,0.660653 2.34586,1.446056 3.47869,2.250793 3.3465,2.377273 6.20116,4.923266 6.27241,4.920416 0.18888,-0.0076 1.03913,-1.321881 2.28889,-3.411115 1.55815,-2.604781 3.73731,-6.414092 6.02998,-10.397181 1.88552,-3.275733 3.84781,-6.669002 5.60458,-9.606457 1.30629,-2.1842115 2.49894,-4.1164029 3.46191,-5.5608572"
       id="path857"
       sodipodi:nodetypes="cssssssssssssssssssssssssscsssssssssssssc" />
    <path
       style="fill:none;stroke:#000000;stroke-width:0.4;stroke-linecap:butt;stroke-linejoin:miter;stroke-miterlimit:4;stroke-dasharray:none;stroke-opacity:1"
       d="M 181.37101,5.7209628 181.03835,4.936659 c 0.19883,0.4687748 -1.09369,1.6813522 -1.72108,2.6946879 -0.54775,0.8847185 -1.13195,1.8480642 -1.74083,2.8661661 -0.50403,0.842778 -1.02498,1.723076 -1.55618,2.627354 -0.56956,0.96959 -1.15091,1.966749 -1.73583,2.974785 -0.39098,0.673816 -0.78356,1.352491 -1.17528,2.031041 -0.38066,0.659403 -0.76051,1.318686 -1.13729,1.973277 -0.61111,1.06169 -1.21415,2.111034 -1.79952,3.128511 -0.67702,1.176768 -1.33038,2.310911 -1.94524,3.372229 -0.41328,0.713364 -0.80915,1.393828 -1.18312,2.032219 -0.39336,0.671516 -0.76248,1.296481 -1.1021,1.864222 -0.39088,0.653444 -0.74269,1.231096 -1.04739,1.716672 -0.66953,1.06694 -1.11169,1.689338 -1.2415,1.694443 -0.0298,0.0012 -0.54591,-0.443024 -1.38106,-1.134092 -0.37017,-0.306311 -0.80301,-0.661124 -1.28394,-1.047154 -0.45864,-0.368133 -0.96101,-0.764656 -1.49448,-1.174578 -0.66424,-0.510404 -1.37668,-1.04158 -2.11293,-1.564592 -0.50107,-0.355946 -1.01316,-0.708108 -1.52859,-1.047366 -0.59234,-0.389887 -1.18909,-0.762729 -1.77857,-1.104684 -0.22351,-0.129656 -0.44597,-0.254872 -0.66675,-0.374893 -0.32224,-0.175172 -0.64089,-0.339277 -0.95398,-0.489967 -0.23706,-0.114097 -0.47093,-0.220504 -0.70076,-0.318202 -0.2341,-0.09952 -0.464,-0.189996 -0.6888,-0.270363 -0.27427,-0.09806 -0.54094,-0.181058 -0.79836,-0.24705 -0.29503,-0.07563 -0.57791,-0.128924 -0.84615,-0.156929 -0.27045,-0.02824 -0.52602,-0.03077 -0.76418,-0.0046 -0.30029,0.03303 -0.57289,0.111718 -0.81269,0.242127 -0.15213,0.08273 -0.29106,0.186276 -0.41548,0.312179 -0.10919,0.110476 -0.2072,0.238167 -0.29317,0.384116 -0.10149,0.172306 -0.18619,0.370059 -0.25266,0.594977 -0.057,0.192994 -0.10063,0.405989 -0.12989,0.64007 -0.0381,0.304837 -0.0735,0.604382 -0.10634,0.898803 -0.0425,0.381029 -0.0806,0.753474 -0.11475,1.117698 -0.0377,0.403108 -0.0705,0.796144 -0.0986,1.179601 -0.026,0.353929 -0.048,0.699697 -0.0663,1.037688 -0.0353,0.651108 -0.057,1.273359 -0.0671,1.869504 -0.0107,0.634394 -0.008,1.239225 0.005,1.817812 0.0288,1.248678 0.10832,2.375125 0.21477,3.412706 0.13207,1.287268 0.30562,2.437756 0.47535,3.51518 0.58082,3.687078 1.11754,6.518492 -0.2015,11.047675 -0.59312,2.036626 -1.56149,4.416541 -3.06981,7.371911 -0.8857,1.735407 -1.95758,3.669236 -3.24899,5.848495 -0.15418,0.260176 -1.6213,0.200856 -3.8503,0.164296 -2.60008,-0.04265 -6.23681,-0.05434 -10.03558,0.508136 -3.45104,0.510989 -7.03581,1.49584 -10.09853,3.36183 -3.03053,1.846377 -5.54994,4.555467 -6.92291,8.521837 -0.64681,1.868559 -1.16694,3.847922 -1.59143,5.913108 -0.56544,2.75095 -0.96119,5.654183 -1.26063,8.65065 -0.43933,4.396436 -0.67133,8.993581 -0.92775,13.604961 -0.15511,2.78951 -0.31917,5.58422 -0.54346,8.34286 -0.33381,4.10562 -0.80106,8.13133 -1.57085,11.94106 -0.62127,3.07465 -1.43959,6.00862 -2.54388,8.73038 -1.363707,3.36118 -3.163518,6.39872 -5.566857,8.97792 -2.95487,3.17108 -7.861573,3.80482 -12.07317,4.82926 -2.844647,0.69194 -5.211646,-0.22854 -7.241776,-2.20974 -1.654805,-1.61492 -3.085785,-3.93462 -4.369185,-6.6603 -1.314177,-2.79105 -2.47361,-6.00778 -3.560161,-9.3294 -0.847959,-2.59223 -1.651529,-5.24834 -2.44962,-7.81585 -0.834188,-2.68363 -1.662389,-5.27047 -2.529036,-7.58639 -0.886733,-2.36959 -1.813714,-4.45556 -2.828536,-6.07141 -1.684515,-2.68215 -3.611058,-4.06896 -5.997297,-3.30739 -2.803214,0.89464 -5.41289,1.96798 -7.823842,3.20598 -3.458854,1.77608 -6.508694,3.89106 -9.134205,6.30345 -1.903948,1.7494 -3.584751,3.65521 -5.036571,5.70161 -1.745028,2.45969 -3.15924,5.12249 -4.232496,7.96095 -0.970398,2.56642 -1.66206,5.27645 -2.067488,8.10977 -0.352174,2.46111 -0.488364,5.01526 -0.403684,7.64913 0.09717,3.02232 0.485184,6.14962 1.171458,9.36179 l 0.33265,0.78434"
       id="path857-7"
       sodipodi:nodetypes="csssssssssssssssssssssssssssssssssssssssssssssssssssssscsssssssssssccc" />
  </g>
</svg>
