<?xml version="1.0" encoding="UTF-8" standalone="no"?>
<svg
   id="Layer_5"
   data-name="Layer 5"
   viewBox="0 0 556.65995 556.65996"
   version="1.1"
   sodipodi:docname="ափսե-01.svg"
   width="556.65997"
   height="556.65997"
   inkscape:version="1.2.2 (b0a8486541, 2022-12-01)"
   xmlns:inkscape="http://www.inkscape.org/namespaces/inkscape"
   xmlns:sodipodi="http://sodipodi.sourceforge.net/DTD/sodipodi-0.dtd"
   xmlns="http://www.w3.org/2000/svg"
   xmlns:svg="http://www.w3.org/2000/svg">
  <sodipodi:namedview
     id="namedview63"
     pagecolor="#ffffff"
     bordercolor="#000000"
     borderopacity="0.25"
     inkscape:showpageshadow="2"
     inkscape:pageopacity="0.0"
     inkscape:pagecheckerboard="0"
     inkscape:deskcolor="#d1d1d1"
     showgrid="false"
     inkscape:zoom="0.99656723"
     inkscape:cx="365.75555"
     inkscape:cy="302.03682"
     inkscape:window-width="1920"
     inkscape:window-height="1011"
     inkscape:window-x="0"
     inkscape:window-y="32"
     inkscape:window-maximized="1"
     inkscape:current-layer="Layer_5" />
  <defs
     id="defs4">
    <style
       id="style2">.cls-1{fill:#d7e1e2;stroke:#fbb040;stroke-miterlimit:10;}.cls-2{fill:#e2e8e7;}.cls-3{fill:#bababa;}.cls-3,.cls-4{opacity:0.11;}.cls-4,.cls-5{fill:#fff;}.cls-6{fill:#d1d3d4;}</style>
  </defs>
  <circle
     class="cls-1"
     cx="278.32999"
     cy="278.32999"
     r="277.82999"
     id="circle6"
     style="fill:#d7e1e2;stroke:#fbb040;stroke-miterlimit:10" />
  <circle
     class="cls-2"
     cx="278.91998"
     cy="278.32999"
     r="173.78"
     id="circle8"
     style="fill:#e2e8e7" />
  <path
     class="cls-3"
     d="m 243.53999,133.42001 10,-3.8 -1.43,0.48 a 176.63,176.63 0 0 1 20.43,-5.31 154.07,154.07 0 0 1 20.18,-2.5 157.37,157.37 0 0 1 29.43,1.12 153.42,153.42 0 0 1 61.54,22.07 c 18,11.37 33.89,27 44.6,45.48 a 146.29,146.29 0 0 1 11.75,25.37 149.7,149.7 0 0 1 5,18.09 171.62,171.62 0 0 1 3,20.3 l -0.18,-1.53 0.67,11.08 -0.08,-1.52 v 11.15 -1.49 l -0.61,11.17 0.11,-1.47 -1.26,11.2 0.19,-1.44 -1.88,11.14 0.27,-1.4 -2.5,11.06 0.33,-1.36 -3.11,11 0.39,-1.31 -3.73,10.81 0.46,-1.26 -4.34,10.63 0.5,-1.22 c -2.95,6.21 -5.88,12.4 -9.36,18.34 a 185.19,185.19 0 0 1 -29.37,37.61 92.57,92.57 0 0 1 -8.09,7.5 141.55,141.55 0 0 1 -13.11,10.57 2,2 0 0 0 0.19,3.57 17,17 0 0 0 8,-0.44 195.4,195.4 0 0 0 18.21,-15.29 190.69,190.69 0 0 0 15.83,-17 171,171 0 0 0 19.76,-29.13 c 3.53,-6.73 6.71,-13.06 9.58,-20.11 a 214.31,214.31 0 0 0 7,-20.84 173.2,173.2 0 0 0 2,-84.7 150.31,150.31 0 0 0 -16.82,-42.25 146.71,146.71 0 0 0 -60.24,-56.16 169.51,169.51 0 0 0 -76,-17.92 177.44,177.44 0 0 0 -40.75,4.64 287.39,287.39 0 0 0 -31.48,9.66 1.5,1.5 0 0 0 -0.44,2.06 5.53,5.53 0 0 0 3.65,1.91 63.45,63.45 0 0 0 7.48,1.62 5.53,5.53 0 0 0 4.23,-0.18 z"
     id="path10"
     style="opacity:0.11;fill:#bababa" />
  <path
     class="cls-3"
     d="m 233.63999,127.04001 a 94.12,94.12 0 0 1 14.9,-5.25 132.51,132.51 0 0 1 15.36,-3.81 l -1.58,0.3 11.77,-1.88 -1.6,0.25 a 156.79,156.79 0 0 1 20.08,-1.25 160.27,160.27 0 0 1 19.59,1.26 157.13,157.13 0 0 1 37,9.31 143.8,143.8 0 0 1 56.37,39 140.1,140.1 0 0 1 31,61.64 164.44,164.44 0 0 1 4,37.72 171.18,171.18 0 0 1 -1.22,19.33 190.41,190.41 0 0 1 -3.77,21.41 l 0.45,-2.09 -3.1,11.68 0.59,-2.06 -3.79,11.56 0.73,-2 -4.47,11.41 0.86,-2 -5.15,11.21 1,-1.93 -5.84,11 1.12,-1.86 a 196.67,196.67 0 0 1 -12.46,19.31 138.55,138.55 0 0 1 -10,12.37 140.52,140.52 0 0 1 -11.14,11.75 191.33,191.33 0 0 1 -16.9,14.39 c -0.72,0.88 -0.57,1.57 0.46,2.05 a 11.84,11.84 0 0 0 6.27,-0.29 q 5.87,-1.08 11.62,-2.62 a 11.88,11.88 0 0 0 5.79,-2.43 193.26,193.26 0 0 0 30.1,-36.51 200.37,200.37 0 0 0 15.54,-30 c 9.39,-23 14.53,-48.24 13.94,-73.08 -0.71,-29.65 -8,-60 -24,-85.26 a 159.27,159.27 0 0 0 -16.18,-21.72 148.3,148.3 0 0 0 -24.78,-21.83 162.89,162.89 0 0 0 -56.36,-25.18 176.26,176.26 0 0 0 -59.56,-3.61 c -18,2 -35.34,7.1 -52.51,12.77 a 1.39,1.39 0 0 0 -0.61,2 6.55,6.55 0 0 0 3.91,2.32 76.57,76.57 0 0 0 8.12,2.44 6.59,6.59 0 0 0 4.45,0.18 z"
     id="path12"
     style="opacity:0.11;fill:#bababa" />
  <path
     class="cls-3"
     d="m 238.80999,116.60001 a 156.46,156.46 0 0 1 20.29,-7 146.11,146.11 0 0 1 20.34,-3.62 149.63,149.63 0 0 1 34.56,0.43 152.12,152.12 0 0 1 32.45,7.64 150,150 0 0 1 17.15,7.36 145.22,145.22 0 0 1 15.88,9.35 l -0.74,-0.52 8.14,5.9 -0.71,-0.55 7.71,6.38 -0.69,-0.58 a 132.8,132.8 0 0 1 12.76,12.83 130.32,130.32 0 0 1 10.87,14.54 134.47,134.47 0 0 1 12.52,24.73 c 7.79,20.32 10.81,42.43 9.77,64.12 a 178.72,178.72 0 0 1 -15.31,64.66 191.11,191.11 0 0 1 -14.19,26.12 182,182 0 0 1 -12.07,16.4 195.54,195.54 0 0 1 -15.37,16.43 l 1.16,-1.17 -9.19,8.31 1.28,-1.14 -9.88,7.92 c -1.45,1.17 0.3,3.13 1.58,3.21 a 13.61,13.61 0 0 0 4,-1.43 13.91,13.91 0 0 0 3.57,-2.28 c 10.38,-9 20.43,-18.32 28.83,-29.22 12.34,-16 22.67,-33.54 29.39,-52.68 13.73,-39.1 15.72,-83.06 0.43,-122.06 a 141.1,141.1 0 0 0 -60.95,-70.24 158.07,158.07 0 0 0 -94.81,-20 152.39,152.39 0 0 0 -20.65,3.67 q -10.39,3.11 -20.63,6.89 c -1.13,0.4 -2.27,1.81 -1.8,3.09 0.36,0.98 3.23,2.93 4.31,2.51 z"
     id="path14"
     style="opacity:0.11;fill:#bababa" />
  <path
     class="cls-3"
     d="m 240.36999,123.44001 a 117.35,117.35 0 0 1 20.23,-6.8 l 10.27,-2.31 a 151,151 0 0 1 30.37,-2.79 153.22,153.22 0 0 1 29.3,2.86 158.1,158.1 0 0 1 27.56,7.93 151,151 0 0 1 43.65,26.42 135.26,135.26 0 0 1 33.34,44.26 c 15.77,33.48 18.09,72.32 9.52,108.1 a 174,174 0 0 1 -9.43,28.67 184,184 0 0 1 -14.43,27.35 197.51,197.51 0 0 1 -15.93,21.17 141.82,141.82 0 0 1 -11.14,11.92 191.94,191.94 0 0 1 -16.91,14.54 1.19,1.19 0 0 0 0.49,2 10.59,10.59 0 0 0 5.87,-0.26 q 5.48,-1 10.83,-2.56 a 10.52,10.52 0 0 0 5.37,-2.39 201.68,201.68 0 0 0 16.51,-17.08 l 7.31,-9.06 a 193.73,193.73 0 0 0 30.79,-59.7 191.25,191.25 0 0 0 7,-31.89 187.33,187.33 0 0 0 -1.75,-58.41 162.37,162.37 0 0 0 -23.2,-57.94 154.89,154.89 0 0 0 -65.8,-56.18 174.09,174.09 0 0 0 -29.24,-10.3 184.53,184.53 0 0 0 -63,-4.999998 216.94,216.94 0 0 0 -26.82,4.269998 q -8.06,1.69 -15.93,4.08 a 159,159 0 0 0 -19.77,6.11 c -4.5,1.56 5.38,5.79 5.31,5.75 q 6.24,2.92 12.65,5.41 a 15.6,15.6 0 0 0 6.98,1.83 z"
     id="path16"
     style="opacity:0.11;fill:#bababa" />
  <path
     class="cls-3"
     d="m 244.66999,114.55001 a 140.52,140.52 0 0 1 20.29,-6.7 l -1,0.24 11.31,-2.45 -1,0.22 10.27,-1.46 a 113.86,113.86 0 0 1 15.22,-0.76 153.64,153.64 0 0 1 19.88,1.2 155.57,155.57 0 0 1 46.37,13.38 139.06,139.06 0 0 1 47.6,35.59 c 6.11,6.95 10.9,14.65 15.6,22.56 l -0.42,-0.83 4.57,9.11 -0.37,-0.84 3.93,9.37 -0.33,-0.85 3.31,9.6 -0.28,-0.85 c 2.49,9 4.74,17.94 5.76,27.27 a 177.64,177.64 0 0 1 1,23.52 173.49,173.49 0 0 1 -9.11,52.16 193.22,193.22 0 0 1 -22.25,44.85 134.54,134.54 0 0 1 -9.35,12.4 136.13,136.13 0 0 1 -10.43,11.83 l -7.43,7.25 a 192.24,192.24 0 0 1 -16.48,13.66 1.68,1.68 0 0 0 -1.06,1.68 3.1,3.1 0 0 0 0.87,1.91 c 1.26,1.12 3.8,-0.14 4.87,-1 a 194.74,194.74 0 0 0 16.49,-14 141.43,141.43 0 0 0 11.04,-11.39 178.77,178.77 0 0 0 21.9,-29.63 191.56,191.56 0 0 0 22,-56.34 176.18,176.18 0 0 0 2,-62.94 159.1,159.1 0 0 0 -12.15,-41.06 c -6.56,-14.75 -16.3,-28 -27.55,-39.46 a 140.39,140.39 0 0 0 -26,-20.47 154.15,154.15 0 0 0 -31.46,-15.26 168.57,168.57 0 0 0 -60.75,-9.429998 132.19,132.19 0 0 0 -22.2,2.44 q -5.34,0.999998 -10.62,2.309998 -10.21,2.73 -20.2,6.19 a 2.35,2.35 0 0 0 -1.21,1.73 2.46,2.46 0 0 0 1.28,2.22 c 1.21,1.27 4.08,3.78 6.09,3.03 z"
     id="path18"
     style="opacity:0.11;fill:#bababa" />
  <path
     class="cls-3"
     d="m 233.53999,125.08001 a 104,104 0 0 1 34.51,-10.21 107.33,107.33 0 0 1 15.08,-1.42 152.49,152.49 0 0 1 19.71,0.58 l -0.95,-0.1 10.65,1.29 -0.95,-0.15 10.39,1.95 -0.95,-0.19 a 154.92,154.92 0 0 1 18.21,5.18 l 8.73,3.38 a 141.42,141.42 0 0 1 24.38,13.13 139.85,139.85 0 0 1 21.08,17.29 129.17,129.17 0 0 1 16.61,20.2 140.93,140.93 0 0 1 20.5,49.75 172.15,172.15 0 0 1 3,22.63 128.53,128.53 0 0 1 0.36,13.88 185.45,185.45 0 0 1 -1.58,20.65 l 0.22,-1.92 -1.81,11.36 0.36,-2 -2.55,11.42 0.51,-2 -3.15,11.37 0.66,-2 c -3.43,10.11 -6.88,20 -11.78,29.54 a 193.28,193.28 0 0 1 -13.06,21.82 170.35,170.35 0 0 1 -16.36,20.38 l -7.53,7.62 a 188.93,188.93 0 0 1 -16.75,14.2 c -1.85,1.48 -0.91,3.28 1.24,3.36 a 31.07,31.07 0 0 0 6.11,-1.74 31.46,31.46 0 0 0 5.79,-2.63 191.3,191.3 0 0 0 16.19,-15.9 140.84,140.84 0 0 0 10.44,-12.7 187.51,187.51 0 0 0 19.38,-31.42 191.38,191.38 0 0 0 17.13,-57 c 4.45,-31.49 0.17,-65 -13.49,-93.74 a 139.87,139.87 0 0 0 -35.38,-46.18 150.86,150.86 0 0 0 -53.35,-29.16 176.42,176.42 0 0 0 -34.34,-6.76 151.81,151.81 0 0 0 -50.62,4.1 112.92,112.92 0 0 0 -19.26,7.4 3,3 0 0 0 -1.19,3.37 4,4 0 0 0 3.81,1.37 z"
     id="path20"
     style="opacity:0.11;fill:#bababa" />
  <path
     class="cls-3"
     d="m 238.98999,135.73001 a 136.91,136.91 0 0 1 19.95,-6.75 l 10.13,-2.29 a 144.46,144.46 0 0 1 29.85,-2.58 148.17,148.17 0 0 1 28.62,3.11 153.29,153.29 0 0 1 26.89,8 147.41,147.41 0 0 1 42.41,26.36 132.65,132.65 0 0 1 32.13,43.88 c 15.11,33.26 16.9,71.68 8,106.9 a 172.48,172.48 0 0 1 -9.72,28.38 180.64,180.64 0 0 1 -14.71,27.06 192.79,192.79 0 0 1 -16.23,20.9 137.24,137.24 0 0 1 -11.32,11.69 187.33,187.33 0 0 1 -17.18,14.25 c -1.33,1 -1.54,2.74 0.19,3.57 a 15.37,15.37 0 0 0 4.49,0.24 15.62,15.62 0 0 0 4.45,-0.71 192.8,192.8 0 0 0 18.13,-15.52 l 8.11,-8.42 a 178.32,178.32 0 0 0 20.54,-27.35 175.44,175.44 0 0 0 14.75,-29.73 181.26,181.26 0 0 0 9,-31 178.43,178.43 0 0 0 1.56,-56.9 155,155 0 0 0 -18.76,-55.85 145.29,145.29 0 0 0 -33.42,-39.53 142.74,142.74 0 0 0 -23,-15.43 161.33,161.33 0 0 0 -53.1,-17.79 165.31,165.31 0 0 0 -29,-1.83 174,174 0 0 0 -25,2.62 118.54,118.54 0 0 0 -15.21,3.43 193.64,193.64 0 0 0 -19.6,6.6 2.1,2.1 0 0 0 -0.57,3.54 11.58,11.58 0 0 0 3.7,1.07 11.32,11.32 0 0 0 3.92,0.08 z"
     id="path22"
     style="opacity:0.11;fill:#bababa" />
  <path
     class="cls-3"
     d="m 246.62999,122.60001 a 99,99 0 0 1 15.2,-5.26 132.64,132.64 0 0 1 15.38,-3.76 189.61,189.61 0 0 1 20.3,-2.45 120.44,120.44 0 0 1 15,0 118.61,118.61 0 0 1 14.69,1.22 167.48,167.48 0 0 1 23.55,5.11 150.38,150.38 0 0 1 42.4,20 139.64,139.64 0 0 1 18,14.52 l 6.45,6.62 a 134.77,134.77 0 0 1 11.47,14.5 l -0.88,-1.36 6,9.35 -0.79,-1.38 5.26,9.73 -0.7,-1.39 4.58,10 -0.61,-1.4 3.91,10.24 -0.53,-1.4 c 2.84,9.14 5.42,18.21 6.72,27.72 a 177.31,177.31 0 0 1 1.66,24 173,173 0 0 1 -8.24,53.42 194.36,194.36 0 0 1 -22,46 136.74,136.74 0 0 1 -9.33,12.7 138.1,138.1 0 0 1 -10.42,12.12 l -7.68,7.64 a 190.15,190.15 0 0 1 -17,14.19 1.93,1.93 0 0 0 0.82,3.48 16.87,16.87 0 0 0 4.63,-0.6 17.22,17.22 0 0 0 4.41,-1.53 196.35,196.35 0 0 0 17.14,-15.22 146.34,146.34 0 0 0 11.32,-12.42 192,192 0 0 0 42.47,-91.69 185.32,185.32 0 0 0 2.51,-31.29 162.27,162.27 0 0 0 -2.94,-31 c -0.78,-3.86 -1.57,-7.72 -2.58,-11.52 a 190.68,190.68 0 0 0 -6.26,-19 135.24,135.24 0 0 0 -12.18,-23.88 138.42,138.42 0 0 0 -22.91,-28.15 161,161 0 0 0 -52.33,-32.63 c -19.89,-7.58 -41,-11.059998 -62.26,-11.299998 a 186.61,186.61 0 0 0 -32.44,2.82 q -10.82,1.869998 -21.4,4.869998 a 157,157 0 0 0 -19.64,6 c -4,1.35 3.23,5.25 3.68,5.52 q 4.85,2.81 9.92,5.17 a 10.75,10.75 0 0 0 5.65,1.69 z"
     id="path24"
     style="opacity:0.11;fill:#bababa" />
  <path
     class="cls-3"
     d="m 234.96999,120.22001 9.28,-4 10.29,-3 a 150,150 0 0 1 20.39,-3.7 154.92,154.92 0 0 1 80.13,13 147.19,147.19 0 0 1 16.25,8.68 71.47,71.47 0 0 1 7.6,5 105.63,105.63 0 0 1 10.74,8.34 l -1,-0.93 7.63,7.07 -1,-1 7.15,7.55 -0.89,-1.01 6.64,8 -0.88,-1.14 6.11,8.47 -0.83,-1.22 5.66,9 -0.78,-1.29 5,9.39 -0.7,-1.37 4.38,9.72 -0.63,-1.45 3.75,10 -0.55,-1.52 3.16,10.41 -0.47,-1.59 2.52,10.53 -0.37,-1.67 1.91,10.73 -0.28,-1.74 1.29,10.94 -0.17,-1.8 0.68,11.11 -0.06,-1.87 0.05,11.25 0.06,-1.92 -0.59,11.36 0.19,-2 -1.23,11.45 0.32,-2 a 195.76,195.76 0 0 1 -4,21 180.55,180.55 0 0 1 -5.76,18.72 189.94,189.94 0 0 1 -12.66,27.22 182.74,182.74 0 0 1 -32,41.1 190.23,190.23 0 0 1 -16.65,14.18 2.09,2.09 0 0 0 -1,2.39 2.11,2.11 0 0 0 2.45,0.89 38.5,38.5 0 0 0 6.72,-2.42 38.07,38.07 0 0 0 6.34,-3.28 194.06,194.06 0 0 0 15.75,-15.8 189.16,189.16 0 0 0 29.17,-43.78 187,187 0 0 0 17.89,-66.35 c 2.26,-29.14 -2.45,-59.13 -15.36,-85.47 -2.16,-4.4 -4.48,-8.64 -7,-12.84 a 145.36,145.36 0 0 0 -9.92,-13.85 123.64,123.64 0 0 0 -20.45,-20.49 157.4,157.4 0 0 0 -23.19,-15.49 161.57,161.57 0 0 0 -95.21,-18.18 149,149 0 0 0 -20.74,3.92 101,101 0 0 0 -19.45,6.75 c -1.25,0.51 -2.32,1.84 -1.51,3.25 a 8.22,8.22 0 0 0 2.72,1.78 8.11,8.11 0 0 0 3.11,0.97 z"
     id="path26"
     style="opacity:0.11;fill:#bababa" />
  <path
     class="cls-3"
     d="m 237.85999,116.79001 9.78,-3.87 a 136.56,136.56 0 0 1 15.37,-4.11 145.53,145.53 0 0 1 25.53,-3.59 188.14,188.14 0 0 1 20,0.2 c 9.81,0.62 19.3,2.62 28.85,4.83 l -1.52,-0.44 10.72,3.18 -1.48,-0.5 10.43,3.73 -1.44,-0.56 10.12,4.35 -1.41,-0.62 c 5.59,2.82 11.17,5.63 16.48,9 a 144.93,144.93 0 0 1 15.05,10.88 136.5,136.5 0 0 1 27.49,31 139.09,139.09 0 0 1 15.79,33.95 155.29,155.29 0 0 1 7.18,41.73 182.5,182.5 0 0 1 -51.26,132.41 96.22,96.22 0 0 1 -7.78,7.6 144.25,144.25 0 0 1 -12.64,10.77 1.82,1.82 0 1 0 1.3,3.33 70.78,70.78 0 0 0 15.23,-5.94 195.66,195.66 0 0 0 15.89,-16.1 l 7,-8.51 a 182.63,182.63 0 0 0 20,-31.72 189.21,189.21 0 0 0 18.4,-58.73 c 5.74,-40.66 -1.92,-83.8 -25.31,-118 a 146.27,146.27 0 0 0 -18.94,-22.47 144,144 0 0 0 -23,-18.26 185.5,185.5 0 0 0 -27.8,-14.44 c -19,-7.909998 -39.65,-11.679998 -60.15,-12.479998 a 170,170 0 0 0 -37.2,2.9 134.76,134.76 0 0 0 -16,3.63 167.34,167.34 0 0 0 -19.83,6.179998 c -3.49,1.21 1.89,4.6 2.58,5.05 a 85.4,85.4 0 0 0 7.91,4.33 7.2,7.2 0 0 0 4.66,1.29 z"
     id="path28"
     style="opacity:0.11;fill:#bababa" />
  <path
     class="cls-3"
     d="m 246.02999,128.27001 a 102.9,102.9 0 0 1 15.25,-5.26 130.75,130.75 0 0 1 15.39,-3.79 184.17,184.17 0 0 1 20.28,-2.4 118.06,118.06 0 0 1 14.93,0 116.14,116.14 0 0 1 14.66,1.32 167.82,167.82 0 0 1 23.46,5.16 150.49,150.49 0 0 1 42.15,20 140.55,140.55 0 0 1 17.91,14.46 l 6.4,6.58 a 132.41,132.41 0 0 1 11.42,14.44 l -1,-1.51 6,9.47 -0.85,-1.55 5.31,9.81 -0.73,-1.57 4.61,10.12 -0.62,-1.59 3.93,10.39 -0.51,-1.6 3.26,10.62 -0.41,-1.6 2.67,10.84 -0.3,-1.6 1.93,11 -0.21,-1.58 1.29,11.08 -0.12,-1.56 0.65,11.15 v -1.54 11.25 l 0.05,-1.5 -0.62,11.21 0.13,-1.47 -1.3,11.17 0.19,-1.44 -1.86,11.17 0.26,-1.4 -2.48,11.09 0.32,-1.36 -3.09,11 0.37,-1.32 c -3.31,9.67 -6.77,19.18 -11.51,28.28 a 194,194 0 0 1 -13.51,22.26 171.62,171.62 0 0 1 -16.88,20.72 l -7.75,7.69 a 188.56,188.56 0 0 1 -17.17,14.25 2,2 0 0 0 0.49,3.55 15.71,15.71 0 0 0 4.54,-0.15 16,16 0 0 0 4.42,-1.08 200.66,200.66 0 0 0 17.73,-15.35 143.75,143.75 0 0 0 11.71,-12.6 190.12,190.12 0 0 0 19.61,-27.38 193.83,193.83 0 0 0 19.4,-45.22 c 10.39,-36.3 9.44,-76.14 -4.58,-111.32 -8.35,-21 -21.38,-40.38 -38.5,-55.24 a 161.06,161.06 0 0 0 -52.8,-30.6 181.58,181.58 0 0 0 -61.26,-9.55 c -24.83,0.24 -49.17,6.58 -72.5,14.58 a 1.22,1.22 0 0 0 -0.72,2 9.82,9.82 0 0 0 4.86,2.93 q 5,2.07 10.09,3.69 a 9.93,9.93 0 0 0 5.61,0.85 z"
     id="path30"
     style="opacity:0.11;fill:#bababa" />
  <path
     class="cls-3"
     d="m 233.53999,129.52001 a 117.92,117.92 0 0 1 15.28,-5.4 92.66,92.66 0 0 1 15.23,-3.7 l 10.13,-1.42 a 148.85,148.85 0 0 1 19.92,-0.75 h -1.07 l 10.63,0.61 -1.1,-0.09 10.53,1.22 -1.13,-0.14 c 6.16,1.09 12.26,2.23 18.32,3.8 a 142.79,142.79 0 0 1 21.63,7.73 136.91,136.91 0 0 1 58.08,47.21 132.68,132.68 0 0 1 11.16,19.63 69.79,69.79 0 0 1 3.56,8.3 121.16,121.16 0 0 1 5,14.85 l -0.61,-2 2.73,10.95 -0.48,-2.11 2.08,11.21 -0.34,-2.2 1.45,11.41 -0.18,-2.29 0.73,11.65 v -2.37 c 0,7.13 0.11,14.23 -0.46,21.34 a 177.5,177.5 0 0 1 -2.57,19.07 181.87,181.87 0 0 1 -35.12,77.19 183.26,183.26 0 0 1 -14,16 92.83,92.83 0 0 1 -7.85,7.51 141,141 0 0 1 -12.75,10.59 c -0.63,0.5 -1.61,1.2 -1.38,2.17 0.38,1.55 2.54,1.27 3.65,1.14 a 49.09,49.09 0 0 0 7.4,-1.53 18.3,18.3 0 0 0 3.32,-1 4.19,4.19 0 0 0 2.53,-1.54 q 4.51,-3.85 8.62,-8.12 a 180.81,180.81 0 0 0 14.32,-16 185.82,185.82 0 0 0 40.31,-106.22 170.58,170.58 0 0 0 -9.1,-65.22 141.47,141.47 0 0 0 -15.6,-31.84 145.08,145.08 0 0 0 -29.63,-32.58 147.56,147.56 0 0 0 -22.7,-14.91 143.81,143.81 0 0 0 -34.54,-13.45 189.28,189.28 0 0 0 -29.17,-4.74 158.68,158.68 0 0 0 -29.64,0.57 153.36,153.36 0 0 0 -20.5,3.77 q -10.45,3 -20.65,6.92 c -1.15,0.41 -1.58,2.54 -0.92,3.46 0.66,0.92 3.67,1.77 4.88,1.32 z"
     id="path32"
     style="opacity:0.11;fill:#bababa" />
  <path
     class="cls-4"
     d="m 266.53999,111.83001 c -8.59,1.17 -17.31,2 -25.82,3.75 a 169.1,169.1 0 0 0 -42.87,14.86 116,116 0 0 0 -14.23,8.58 c -4.33,3 -8.58,6.16 -12.74,9.4 a 184.15,184.15 0 0 0 -33.13001,32.94 159.46,159.46 0 0 0 -16.76,26.41 l -4.14,8.79 a 166.51,166.51 0 0 0 -7,19.25 c -1.53,7.29 -2.79,14.68 -3.9,22.05 a 196.47,196.47 0 0 0 -2.18,37.77 156.28,156.28 0 0 0 2.67,24.49 169.17,169.17 0 0 0 6.24,22.84 161.69,161.69 0 0 0 26.11,46.6 c 11.21,14 25.35,25.86 40.57001,35.3 a 193.69,193.69 0 0 0 70.85,26.18 c 3.13,0.51 6.29,0.91 9.45,1.15 a 36.51,36.51 0 0 0 3.77,0.11 21.39,21.39 0 0 1 6,0.11 158.72,158.72 0 0 0 64.34,-11 182.7,182.7 0 0 0 53.17,-32.36 199.23,199.23 0 0 0 22.28,-23 192.07,192.07 0 0 0 12.8,-17.59 195.87,195.87 0 0 0 10.9,-19.24 1.32,1.32 0 0 0 -0.52,-1.49 2.89,2.89 0 0 0 -2.52,0 c -2,0.45 -5.21,1.21 -6.32,3.09 a 186.3,186.3 0 0 1 -11.63,18.28 l -6.49,8.46 a 177.6,177.6 0 0 1 -77.79,55 169.32,169.32 0 0 1 -61.69,9.23 c -4.06,-0.12 -8.3,0 -12.3,-0.77 -2.26,-0.44 -4.51,-1 -6.73,-1.55 -8.08,-2.1 -16.1,-4.42 -24,-7.18 -5.62,-2 -11.5,-3.87 -16.95,-6.26 a 154.22,154.22 0 0 1 -16.75,-8.81 172.49,172.49 0 0 1 -33.75001,-26.21 147.36,147.36 0 0 1 -29.94,-43.98 145.2,145.2 0 0 1 -12,-42.49 186.32,186.32 0 0 1 -0.33,-38.29 c 0.78,-8.37 2.09,-16.65 3.25,-25 1.11,-8 4,-15.81 7.13,-23.25 a 158.4,158.4 0 0 1 12.65,-24 162.41,162.41 0 0 1 29.87,-34.71 298.31,298.31 0 0 1 24.57001,-18.94 113,113 0 0 1 17.59,-9.51 159.1,159.1 0 0 1 21.27,-7.78 144,144 0 0 1 26.89,-5.11 c 3.7,-0.36 7.24,-1.21 10.89,-1.88 a 1.74,1.74 0 0 0 1.28,-2 c -0.06,-0.59 -1.31,-2.35 -2.06,-2.24 z"
     id="path34"
     style="opacity:0.11;fill:#ffffff" />
  <path
     class="cls-4"
     d="m 263.19999,111.22001 a 155.05,155.05 0 0 0 -56.66,11.35 131.37,131.37 0 0 0 -22.34,11.11 c -7.27,4.71 -14.34,9.61 -21.12001,15 -16.39,13 -31.06,28.76 -41.56,47 a 191.77,191.77 0 0 0 -12.23,25.18 c -1.27,3.2 -2.33,6.53 -3.42,9.8 a 58.22,58.22 0 0 0 -1.39,6.68 l 0.2,-0.91 c -3,13.45 -5.329996,26.94 -5.889996,40.75 a 163.18,163.18 0 0 0 8.419996,60.12 156,156 0 0 0 40.33,62.33 166.57,166.57 0 0 0 25.40001,19.59 171.38,171.38 0 0 0 28.7,14.76 211.34,211.34 0 0 0 41.51,11.69 81.32,81.32 0 0 0 12.25,1.39 c 2.32,0 4.29,0 6.8,0.13 a 153.61,153.61 0 0 0 20,-0.45 c 28.85,-2.5 56.67,-13.21 80.52,-29.52 a 185.18,185.18 0 0 0 35.26,-31.59 189.74,189.74 0 0 0 13.15,-17 94.57,94.57 0 0 0 5.9,-9.16 144,144 0 0 0 8,-14.44 c 1.15,-2.17 -2.47,-1.89 -3.35,-1.81 a 44.68,44.68 0 0 0 -5.61,1.05 4.1,4.1 0 0 0 -2.76,1.35 180.34,180.34 0 0 1 -11,17.95 l -6.21,8.35 a 168.06,168.06 0 0 1 -24.94,25.58 c -16.41,13.74 -35.6,24.82 -56.1,31.2 a 158.9,158.9 0 0 1 -28.42,6.37 204.17,204.17 0 0 1 -29.1,1.15 c -6.76,-0.16 -8,0.18 -12.53,-0.85 -2.34,-0.53 -4.66,-1.14 -7,-1.8 q -12.4,-3.54 -24.46,-8.17 c -5.71,-2.2 -11.52,-4.35 -17.07,-6.93 q -5.67,-3 -11.11,-6.34 -4.32,-2.64 -8.42,-5.62 a 151.85,151.85 0 0 1 -56.79001,-76.86 c -4.29,-13.32 -7.22,-27.72 -6.7,-41.77 0.38,-3.94 0.56,-7.88 0.57,-11.83 l 0.39,-5.91 c 0.41,-5.47 1.14,-10.91 2,-16.31 a 97.44,97.44 0 0 1 3.43,-15.2 q 1.38,-4.14 3,-8.21 c 2.13,-5.23 4.18,-10.49 6.59,-15.6 a 148.85,148.85 0 0 1 15.37,-25.82 c 8.51,-11.31 18.32,-22.28 29.92001,-30.53 a 74.16,74.16 0 0 0 6.69,-4.68 q 3.26,-2.5 6.66,-4.81 a 110.89,110.89 0 0 1 10.57,-6.45 c 11.9,-6.26 24.4,-11.65 37.59,-14.48 q 6,-0.93 11.91,-2.14 a 59.75,59.75 0 0 1 8.41,-1.1 123.41,123.41 0 0 1 15,-0.23 c 2.93,0.12 -0.21,-4.09 -0.58,-4.63 q -2.23,-3.15 -4.75,-6.08 a 7,7 0 0 0 -3.03,-2.65 z"
     id="path36"
     style="opacity:0.11;fill:#ffffff" />
  <path
     class="cls-4"
     d="m 263.09999,100.66001 a 151.26,151.26 0 0 0 -38.88,5.56 c -14.21,3.94 -28.35,9.51 -40.79,17.5 a 240,240 0 0 0 -29.00001,21.55 173,173 0 0 0 -33.86,40.43 169.67,169.67 0 0 0 -12.87,26.33 49.08,49.08 0 0 0 -4,12.7 l -0.55,2.35 a 222.63,222.63 0 0 0 -5.599996,32.72 180.07,180.07 0 0 0 0.57,39.79 159.26,159.26 0 0 0 16.269996,51.29 151.15,151.15 0 0 0 36.25,46.1 180.85,180.85 0 0 0 39.80001,25.73 199.19,199.19 0 0 0 39.2,13.71 c 8.42,2 17.18,3.83 25.87,4.06 8.29,0.23 16.63,0.73 24.91,0.11 a 163.49,163.49 0 0 0 50.35,-11.65 187.94,187.94 0 0 0 53.29,-33.3 195.88,195.88 0 0 0 21.93,-23.24 183.25,183.25 0 0 0 12.42,-17.75 196.12,196.12 0 0 0 10.52,-19.46 1.64,1.64 0 0 0 -1.19,-2.47 c -1,-0.25 -3.33,-0.59 -3.91,0.6 -3.14,6.44 -6.27,12.86 -9.95,19 a 186.71,186.71 0 0 1 -11.71,17.25 173.5,173.5 0 0 1 -33,32.55 176.55,176.55 0 0 1 -35.32,20.91 165.6,165.6 0 0 1 -19.05,7.08 80.31,80.31 0 0 1 -9.76,2.63 75.17,75.17 0 0 1 -19.5,2.57 69.44,69.44 0 0 1 -19.54,1.25 33.31,33.31 0 0 0 -5.28,-0.19 56.86,56.86 0 0 1 -7,0 129.43,129.43 0 0 1 -15.18,-2.15 191.86,191.86 0 0 1 -49.08,-16.57 163.16,163.16 0 0 1 -50.84001,-38.83 151.07,151.07 0 0 1 -33.15,-66.67 166.28,166.28 0 0 1 -2.27,-54.37 192,192 0 0 1 4,-23 c 3.6,-15 10,-28.84 17.55,-42.56 l -0.48,0.78 a 168.91,168.91 0 0 1 21.49,-29 174.71,174.71 0 0 1 21.92001,-19.94 l -0.85001,0.59 c 7.31001,-4.89 14.39001,-10.07 22.00001,-14.51 2.74,-1.6 5.61,-2.88 8.49,-4.2 6.37,-2.91 12.7,-5.72 19.33,-8 a 135.74,135.74 0 0 1 14.49,-4.25 c 5.28,-1.21 10.69,-2 16,-2.82 a 130.06,130.06 0 0 1 24.47,-1.25 1.08,1.08 0 0 0 1,-1.22 4.41,4.41 0 0 0 -1.9,-2.61 51.46,51.46 0 0 0 -4.65,-3.81 4.46,4.46 0 0 0 -2.96,-1.32 z"
     id="path38"
     style="opacity:0.11;fill:#ffffff" />
  <path
     class="cls-4"
     d="m 270.08999,109.61001 a 151.76,151.76 0 0 0 -31.85,3.66 157.76,157.76 0 0 0 -21,6.09 q -5.82,2.12 -11.38,4.78 a 129.6,129.6 0 0 0 -11.67,5.84 251.87,251.87 0 0 0 -24.07,16.78 175,175 0 0 0 -28.58001,28.16 164.63,164.63 0 0 0 -26.89,48.5 56.91,56.91 0 0 0 -2.45,8.39 c -0.62,3.11 -1.42,6.17 -2.1,9.26 a 194,194 0 0 0 -4.19,30.35 164.32,164.32 0 0 0 2.12,40.17 159.11,159.11 0 0 0 24,59 c 14.62,21.85 34.64,39 57.59001,51.56 a 191.62,191.62 0 0 0 42.12,16.51 166.82,166.82 0 0 0 20.8,4.37 52.69,52.69 0 0 0 11.35,0.75 h -1 a 194.86,194.86 0 0 0 20.93,0.18 c 5,-0.3 9.94,-0.89 14.88,-1.67 a 162.43,162.43 0 0 0 52.55,-17.78 194.24,194.24 0 0 0 41.63,-30.7 141,141 0 0 0 10.77,-11.59 141,141 0 0 0 9.95,-12.51 l 6.05,-8.91 a 192.72,192.72 0 0 0 10.68,-19 2.27,2.27 0 0 0 -2.45,-1.05 52.15,52.15 0 0 0 -6.12,0.43 c -2.55,0.23 -5.08,0.56 -7.6,1 a 11.43,11.43 0 0 0 -5.16,1.46 l -5.71,9.25 0.53,-0.82 -6.17,8.83 0.58,-0.79 -6.6,8.39 0.63,-0.76 -7,7.94 0.67,-0.72 -7.39,7.41 0.7,-0.67 -7.73,7 0.74,-0.63 -8.06,6.51 0.78,-0.59 -8.38,6 0.82,-0.54 -8.66,5.5 0.85,-0.49 -8.91,5 0.87,-0.44 -9.14,4.45 0.89,-0.39 -9.35,3.9 0.91,-0.33 -9.54,3.35 0.93,-0.29 -9.7,2.79 1,-0.23 -9.85,2.21 1,-0.18 -10,1.63 1,-0.14 -10.06,1 1,-0.09 q -9.36,0.6 -18.75,0.38 a 40,40 0 0 1 -10.61,-0.58 c -2.43,-0.47 -4.83,-1.12 -7.22,-1.77 -11.62,-3.19 -22.88,-7.26 -34.2,-11.36 l 0.89,0.33 a 108.29,108.29 0 0 1 -11.1,-5 c -4.61,-2.45 -9.1,-5.13 -13.47,-8 a 177.78,177.78 0 0 1 -24.75001,-20.06 l 0.68,0.65 -5.71,-6 0.64,0.69 -5.51,-6.45 0.61,0.72 -5.27,-6.89 0.57,0.75 -5,-7.35 0.52,0.77 -4.72,-7.86 0.48,0.81 a 135.45,135.45 0 0 1 -7.41,-15 104.92,104.92 0 0 1 -4,-10.95 140.78,140.78 0 0 1 -5.8,-24.81 66.59,66.59 0 0 1 -0.83,-9.86 65.19,65.19 0 0 1 0.11,-8.84 c 0.12,-6 0.21,-11.92 0.74,-17.89 0.93,-10.51 2.59,-21.2 6,-31.22 a 170.64,170.64 0 0 1 16.55,-35.4 150.09,150.09 0 0 1 17.27,-22.79 145.94,145.94 0 0 1 15.63001,-14.93 74.93,74.93 0 0 1 7.32,-5.23 q 3.66,-2.31 7.08,-5 a 102.18,102.18 0 0 1 14,-8.57 c 12.82,-6.16 26.14,-12 40.24,-14.5 q 6.18,-0.8 12.29,-1.92 l 5.9,-0.78 a 120.17,120.17 0 0 1 18.1,-0.21 c 3.3,0.15 -1.65,-4.81 -1.62,-4.78 q -3,-3 -6.27,-5.81 a 8.23,8.23 0 0 0 -3.94,-2.38 z"
     id="path40"
     style="opacity:0.11;fill:#ffffff" />
  <path
     class="cls-4"
     d="m 268.75999,99.500012 a 161.28,161.28 0 0 0 -50.17,8.829998 177.58,177.58 0 0 0 -27.51,12.26 156,156 0 0 0 -14.43,9.49 199.82,199.82 0 0 0 -20.00001,15.85 177.47,177.47 0 0 0 -36.46,46.62 120,120 0 0 0 -6.38,13.59 124.12,124.12 0 0 0 -5.5,14.85 c -0.72,3.36 -1.29,6.74 -2,10.1 a 229.89,229.89 0 0 0 -4.77,34.87 169,169 0 0 0 4.58,48.69 157.88,157.88 0 0 0 9.62,27.45 149.67,149.67 0 0 0 16.21,28 191.64,191.64 0 0 0 18.14,20.68 147.58,147.58 0 0 0 26.21001,20.41 196.65,196.65 0 0 0 20,11 199.93,199.93 0 0 0 41.81,14.26 c 8.31,1.85 16.9,3.46 25.45,3.46 7.51,0 14.95,0.5 22.48,0 a 159.12,159.12 0 0 0 29.7,-5 c 23.43,-6.13 45.07,-18.19 64,-33.14 a 183.64,183.64 0 0 0 29.8,-30.23 194.1,194.1 0 0 0 12.47,-17.68 197.13,197.13 0 0 0 10.59,-19.28 c 0.86,-1.67 -0.55,-2.27 -2,-2.56 a 24.58,24.58 0 0 0 -4.19,-0.33 2.54,2.54 0 0 0 -2.24,0.65 c -4.58,9.36 -9.28,18.54 -15.2,27.14 a 195.69,195.69 0 0 1 -15.76,20.07 174.94,174.94 0 0 1 -60.67,43.81 118.81,118.81 0 0 1 -14,5.14 112.92,112.92 0 0 1 -14.23,3.88 149.25,149.25 0 0 1 -23.83,3 94,94 0 0 1 -14.63,-0.2 l -0.85,0.1 a 65.64,65.64 0 0 1 -13.06,-0.78 172.08,172.08 0 0 1 -26.4,-5.77 192.09,192.09 0 0 1 -30.84,-11.9 q -8.42,-4.14 -16.37,-9.09 a 139,139 0 0 1 -19.43001,-14.32 l -33.36,-40.7 a 119.67,119.67 0 0 1 -5.91,-11.83 166.23,166.23 0 0 1 -7.36,-19.44 155.55,155.55 0 0 1 -6.34,-36.33 178.56,178.56 0 0 1 1.24,-33.33 c 0.94,-7.43 2.46,-14.72 4.09,-22 0.6,-2.7 1.19,-5.4 1.85,-8.08 a 121.7,121.7 0 0 1 5.76,-14.79 116.19,116.19 0 0 1 6.67,-13.42 178.75,178.75 0 0 1 26.21,-35.07 138.19,138.19 0 0 1 16.43001,-14.91 c 3.28,-2.45 6.64,-4.84 10,-7.22 a 139.92,139.92 0 0 1 13.52,-8.82 c 5,-2.78 10.32,-5.16 15.51,-7.63 l -0.82,0.38 8.73,-3.61 -0.85,0.35 8.57,-3.08 -0.89,0.32 a 134.72,134.72 0 0 1 14.58,-4.07 l 13.87,-2.42 -1,0.15 7.1,-1 -1,0.13 a 181.83,181.83 0 0 1 18.81,-0.81 c 1.45,0 2.36,-0.84 1.44,-2.27 a 24,24 0 0 0 -7,-4.429998 z"
     id="path42"
     style="opacity:0.11;fill:#ffffff" />
  <path
     class="cls-4"
     d="m 258.34999,106.37001 a 157.75,157.75 0 0 0 -64.51,15.16 127,127 0 0 0 -11.74,6 l -6.56,4.25 c -11.80001,7.84 -23.29001,16.61 -33.22001,26.74 a 180.19,180.19 0 0 0 -30.31,41.2 166,166 0 0 0 -8.12,18.06 44.67,44.67 0 0 0 -3.929996,12.67 c -0.7,3.51 -1.56,7 -2.28,10.51 a 205.61,205.61 0 0 0 -4.29,37 c -0.35,16.78 1.42,33.73 6.23,49.84 a 162.13,162.13 0 0 0 25.519996,51.17 c 17.25,22.94 40.4,40.62 66.62001,52.25 a 193.49,193.49 0 0 0 40.68,13 c 7,1.38 14.18,2.59 21.37,2.5 a 13.78,13.78 0 0 0 1.82,-0.09 139.36,139.36 0 0 0 20,0.15 157.47,157.47 0 0 0 30.11,-5 167.6,167.6 0 0 0 38.46,-15.42 172.19,172.19 0 0 0 26.34,-17.49 216.15,216.15 0 0 0 23.78,-22.5 199.45,199.45 0 0 0 13.22,-16.52 c 6.74,-9.15 12,-19.11 17.19,-29.19 1.21,-2.35 -2.64,-3.48 -3.61,-1.59 a 144.19,144.19 0 0 1 -7.78,14.5 94.49,94.49 0 0 1 -27.87,31.32 103.41,103.41 0 0 1 -33.8,32.33 l -8.93,5.2 a 171.21,171.21 0 0 1 -23.39,10.47 151.83,151.83 0 0 1 -24.39,6.87 182.69,182.69 0 0 1 -19.91,2.53 105.85,105.85 0 0 1 -14.9,0 25.92,25.92 0 0 0 -5.42,-0.21 86.64,86.64 0 0 1 -11.82,-0.83 161.6,161.6 0 0 1 -20.29,-4.31 189,189 0 0 1 -30.33,-11.15 163.08,163.08 0 0 1 -32.45001,-19.84 q -6.39,-5.07 -12.3,-10.73 c -13.13,-12.51 -23,-27.63 -31.44,-43.78 l 0.39,0.82 -4,-8.94 0.34,0.86 -3.39,-8.91 0.29,0.9 a 201.19,201.19 0 0 1 -5.63,-20.47 c -1.27,-6.18 -2.06,-12.33 -2.73,-18.6 l 0.05,1 -0.34,-8 v 1 c 0.22,-6.68 0.18,-13.41 0.69,-20.07 q 0.56,-7.31 1.61,-14.56 c 1.22,-8.33 2.71,-16.76 5.53,-24.72 0.88,-2.49 1.93,-4.94 2.92,-7.38 l 3.71,-9.15 a 119.07,119.07 0 0 1 6.33,-12.69 163.14,163.14 0 0 1 27.4,-36.77 142.58,142.58 0 0 1 13,-11.72 c 3.82,-3 7.85001,-5.72 11.75001,-8.61 a 145.42,145.42 0 0 1 25.52,-15.16 174.65,174.65 0 0 1 18.15,-7.19 124,124 0 0 1 16,-4 153.12,153.12 0 0 1 17.42,-2.73 c 4.14,-0.31 8.25,-0.4 12.41,-0.33 2.34,0 0.78,-2.83 0.29,-3.65 a 40.14,40.14 0 0 0 -3.16,-4.29 3.61,3.61 0 0 0 -2.3,-1.71 z"
     id="path44"
     style="opacity:0.11;fill:#ffffff" />
  <path
     class="cls-4"
     d="m 261.62999,112.49001 q -4.06,0.53 -8.09,1.36 -4.08,0.31 -8.15,0.92 a 150.25,150.25 0 0 0 -22.28,4.66 173.87,173.87 0 0 0 -21.77,8 120.61,120.61 0 0 0 -18.38,9.79 250.5,250.5 0 0 0 -28.42001,22 174.8,174.8 0 0 0 -33.18,40.79 167.44,167.44 0 0 0 -12.43,26.33 46.85,46.85 0 0 0 -3.82,12.63 l -0.6,3.1 a 275.56,275.56 0 0 0 -4.819996,32.19 183.87,183.87 0 0 0 0.999996,39.17 157.69,157.69 0 0 0 16.07,50.08 153.54,153.54 0 0 0 35.57,45.81 180.76,180.76 0 0 0 39.08001,25.9 199.11,199.11 0 0 0 38.87,14 149.16,149.16 0 0 0 25.43,4.48 30.91,30.91 0 0 0 4.81,0.05 171.65,171.65 0 0 0 20.16,0.14 l 10.05,-0.88 c 20.59,-2.27 40.22,-9.37 58.57,-18.69 a 174.49,174.49 0 0 0 34.24,-23.47 201.29,201.29 0 0 0 22.7,-23.19 182.27,182.27 0 0 0 13,-17.85 194,194 0 0 0 11.1,-19.68 1.91,1.91 0 0 0 -0.74,-2.58 c -0.82,-0.33 -3.45,0.29 -3.89,1.11 a 194.53,194.53 0 0 1 -11.38,19.56 177.11,177.11 0 0 1 -13.27,17.46 182.72,182.72 0 0 1 -27.1,25.54 c -23.14,17.81 -51.14,30.14 -80.15,34.2 -13.46,1.87 -26.83,1.5 -40.36,1 h 1 a 88.42,88.42 0 0 1 -10.69,-1.94 l 1,0.22 c -6.38,-1.57 -12.72,-3.24 -19,-5.29 -4.3,-1.41 -8.52,-3 -12.76,-4.58 -4.24,-1.58 -8.24,-3 -12.26,-4.72 a 131.62,131.62 0 0 1 -14.5,-7.84 162.41,162.41 0 0 1 -39.70001,-32.79 155.59,155.59 0 0 1 -33.76,-64.48 142.94,142.94 0 0 1 -3.35,-17.55 c -0.48,-4.05 -0.6,-8.09 -0.71,-12.16 a 219.86,219.86 0 0 1 0.76,-29.26 c 0.7,-6.69 1.59,-13.37 2.8,-20 0.36,-1.95 0.67,-3.9 1,-5.85 1.2,-7.34 4.11,-14.79 7.05,-21.68 a 165.38,165.38 0 0 1 42.21,-58.22 c 6.74001,-6 14.00001,-11.6 21.30001,-16.89 1.83,-1.33 3.64,-2.7 5.52,-3.95 l 7.37,-4.08 q 5.31,-2.82 10.85,-5.11 a 152.12,152.12 0 0 1 30.29,-9.49 c 3.89,-0.78 7.81,-1.38 11.75,-1.86 a 24.77,24.77 0 0 0 7.32,-1 q 2.79,-0.74 5.62,-1.29 c 2.65,-0.61 1.18,-4.39 -0.93,-4.12 z"
     id="path46"
     style="opacity:0.11;fill:#ffffff" />
  <path
     class="cls-4"
     d="m 271.84999,106.46001 a 196,196 0 0 0 -38.16,5.7 151.54,151.54 0 0 0 -44.4,19.61 c -4.43,2.9 -8.77,6 -13,9.25 a 187.79,187.79 0 0 0 -20.38001,17.51 180.07,180.07 0 0 0 -30.37,41.27 164.65,164.65 0 0 0 -8.1,18.09 49.59,49.59 0 0 0 -3.9,12.57 c -0.72,3.48 -1.51,6.94 -2.18,10.43 a 214.94,214.94 0 0 0 -4,37.08 c -0.24,16.66 1.57,33.4 6.49,49.37 a 160.08,160.08 0 0 0 26,50.69 c 21.21,27.57 51.40001,46.89 84.32001,57.46 a 189.18,189.18 0 0 0 32.71,7.73 c 2.62,0.35 5.24,0.65 7.87,0.74 5.88,0.19 11.76,0.33 17.64,0.18 36.18,-0.88 71.15,-14.72 99.51,-37 a 195.94,195.94 0 0 0 30,-29.68 187.14,187.14 0 0 0 12.08,-16.75 c 4.09,-6.42 7.25,-12.37 10.79,-19.09 0.58,-0.6 0.52,-1.12 -0.19,-1.57 a 8.36,8.36 0 0 0 -4.52,-0.3 q -4.29,0.33 -8.53,1 a 8.32,8.32 0 0 0 -4.33,1.33 227.55,227.55 0 0 1 -13.56,20.67 230.67,230.67 0 0 1 -16.39,19 l 0.63,-0.67 -7.54,7.14 0.67,-0.62 -7.9,6.74 0.71,-0.58 -8.21,6.27 0.74,-0.53 -8.5,5.78 0.77,-0.49 -8.77,5.29 0.79,-0.44 -9,4.78 0.81,-0.39 -9.24,4.26 0.84,-0.35 -9.51,3.7 0.86,-0.3 -9.64,3.17 0.87,-0.26 -9.81,2.6 0.88,-0.21 -9.94,2 0.88,-0.17 a 106.84,106.84 0 0 1 -13.8,1.61 132.9,132.9 0 0 1 -14.25,0.54 c -3.83,0 -7.77,0.09 -11.6,-0.2 a 95.54,95.54 0 0 1 -11.45,-1.88 232.83,232.83 0 0 1 -24.13,-6.32 154.76,154.76 0 0 1 -15,-5.18 c -4.88,-2.1 -9.69,-4.38 -14.37,-6.9 a 166.11,166.11 0 0 1 -29.45001,-20.29 139.79,139.79 0 0 1 -28.75,-34.77 146.52,146.52 0 0 1 -15.71,-37.47 156.2,156.2 0 0 1 -3.59,-17.93 148.3,148.3 0 0 1 -1,-19.08 188.68,188.68 0 0 1 5.77,-48.95 142.52,142.52 0 0 1 15.18,-35.59 164.08,164.08 0 0 1 25.48,-33 140.5,140.5 0 0 1 13.18001,-11.84 q 3.66,-2.49 7.16,-5.19 3.5,-2.7 7.1,-5.13 a 111.3,111.3 0 0 1 10.13,-6.54 c 4.09,-2.18 8.26,-4.25 12.46,-6.21 20.87,-9.72 43.9,-14.13 66.84,-14.25 a 1.25,1.25 0 0 0 1,-1.25 3.21,3.21 0 0 0 -1.53,-2.22 33.93,33.93 0 0 0 -3.92,-3 3.2,3.2 0 0 0 -2.54,-0.97 z"
     id="path48"
     style="opacity:0.11;fill:#ffffff" />
  <path
     class="cls-4"
     d="m 261.11999,103.87001 a 156.43,156.43 0 0 0 -38.77,5.47 167.77,167.77 0 0 0 -22,7.73 169.81,169.81 0 0 0 -15.59,7.73 q -3.27,2.15 -6.55,4.26 a 226.7,226.7 0 0 0 -27.89001,21.47 171.06,171.06 0 0 0 -35.59,46.07 123.2,123.2 0 0 0 -6.2,13.34 128.28,128.28 0 0 0 -5.37,14.48 c -0.81,3.74 -1.58,7.49 -2.4,11.22 a 209.41,209.41 0 0 0 -4.619996,32.68 169.72,169.72 0 0 0 3.879996,48.25 159.6,159.6 0 0 0 22.36,51.57 c 17.31,26.16 42.54,46.4 71.12001,59.11 a 209.82,209.82 0 0 0 24.7,9 176.93,176.93 0 0 0 27.77,6.13 79.53,79.53 0 0 0 8.31,0.66 c 7.57,0.21 15.17,0.55 22.75,0.1 a 160,160 0 0 0 40.7,-7.83 179.36,179.36 0 0 0 62.95,-36.69 190.52,190.52 0 0 0 22.06,-23.4 194.61,194.61 0 0 0 23.18,-37.2 c 0.69,-1.37 -0.46,-2.2 -1.62,-2.37 -1.16,-0.17 -3.93,-0.4 -4.59,0.91 a 140,140 0 0 1 -7.55,14.22 138.76,138.76 0 0 1 -8.53,13.44 175.17,175.17 0 0 1 -20.22,24 180.13,180.13 0 0 1 -45.73,32.87 c -22.23,11.05 -46.92,17.37 -71.91,16.85 -7.51,-0.16 -15,-0.28 -22.47,-1.47 a 181.59,181.59 0 0 1 -25,-6.07 c -10.37,-3.23 -21,-7.16 -30.64,-12.43 l -38.05001,-27.45 a 147.78,147.78 0 0 1 -11.4,-12.47 163.35,163.35 0 0 1 -22.91,-38.56 151.09,151.09 0 0 1 -7.58,-23.77 132.18,132.18 0 0 1 -3.5,-22.46 c -0.33,-5.53 -0.08,-11 0,-16.54 a 178,178 0 0 1 1.37,-18.6 c 1.14,-9.07 2.65,-18.27 5.51,-27 a 89.68,89.68 0 0 1 3.52,-9 c 2.35,-5.2 4.44,-10.49 7,-15.61 a 166.29,166.29 0 0 1 27.32,-39.23 142.2,142.2 0 0 1 16.12,-15 67,67 0 0 1 7.55001,-5.31 81.83,81.83 0 0 0 7.21,-4.92 c 3.49,-2.36 7,-4.58 10.71,-6.66 2.55,-1.45 5.21,-2.64 7.88,-3.85 a 225.91,225.91 0 0 1 22.34,-9.05 78.86,78.86 0 0 1 10.36,-2.81 63.28,63.28 0 0 1 9.29,-1.59 146.3,146.3 0 0 1 17.34,-2.24 c 4.23,-0.19 8.42,-0.14 12.65,0.05 3,0.13 -0.71,-4.2 -0.92,-4.45 q -2.43,-2.82 -5.11,-5.39 a 6.47,6.47 0 0 0 -3.24,-2.19 z"
     id="path50"
     style="opacity:0.11;fill:#ffffff" />
  <path
     class="cls-4"
     d="m 266.69999,103.82001 a 160,160 0 0 0 -38.62,5.46 157,157 0 0 0 -21.88,7.64 172.73,172.73 0 0 0 -15.5,7.65 c -1.57,1 -3.14,2.06 -4.72,3.06 a 223.2,223.2 0 0 0 -29.51001,22.32 165.21,165.21 0 0 0 -35.51,45.69 l -4.26,8.64 a 167.23,167.23 0 0 0 -7.32,19 c -0.66,3 -1.27,6.05 -2,9.07 a 200.22,200.22 0 0 0 -5.09,34.36 179,179 0 0 0 2.15,40.44 155.25,155.25 0 0 0 21.18,54.77 c 18.41,29.62 47.14001,52.21 79.48001,64.95 a 202,202 0 0 0 37.63,10.83 c 5.53,1 11.3,2.19 17,2 a 62.25,62.25 0 0 1 11.17,0.22 114.55,114.55 0 0 0 14.93,-0.68 155.82,155.82 0 0 0 34.44,-7 181,181 0 0 0 54.12,-28.94 184.16,184.16 0 0 0 30,-29.45 c 2.45,-3 4.77,-6.1 7.05,-9.2 6.48,-8.79 11.65,-18.34 16.7,-28 a 1.72,1.72 0 0 0 -1.65,-1.35 27.34,27.34 0 0 0 -4.42,-0.35 53.88,53.88 0 0 0 -5.54,0 6.37,6.37 0 0 0 -3.84,0.78 l -5.24,9.67 0.46,-0.77 -5.73,9.28 0.5,-0.73 -6.19,8.88 0.52,-0.71 -6.63,8.48 0.56,-0.68 -7.06,8.05 0.59,-0.65 -7.46,7.6 0.62,-0.62 a 170.48,170.48 0 0 1 -14.71,12.67 l -7.83,5.66 a 156.87,156.87 0 0 1 -25.13,14 148.42,148.42 0 0 1 -55.29,13.21 l -9.68,0.13 q -5.65,0.21 -11.3,-0.13 c -1.82,-0.14 -3.64,-0.38 -5.44,-0.69 a 183.82,183.82 0 0 1 -20.07,-4.71 c -5.25,-1.52 -10.4,-3.32 -15.57,-5.07 q -4.67,-1.53 -9.21,-3.34 -4.54,-1.81 -8.68,-4.2 a 165.9,165.9 0 0 1 -32.53001,-21.9 c -24.81,-21.35 -42.08,-52.23 -47.71,-84.43 a 112,112 0 0 1 -2.16,-21.13 c 0.11,-6.25 0.22,-12.57 0.72,-18.8 a 196,196 0 0 1 4.5,-29.22 83.65,83.65 0 0 1 6.13,-16.73 153.66,153.66 0 0 1 8.12,-17.7 l 4.6,-8 a 157.43,157.43 0 0 1 15.26,-20.76 164.79,164.79 0 0 1 16.25001,-16.33 68.37,68.37 0 0 1 8,-6.31 68.9,68.9 0 0 1 7.5,-4.89 c 4.61,-3 9,-6.1 13.79,-8.76 a 100,100 0 0 1 10.08,-4.68 c 7.46,-3.12 14.78,-6.39 22.59,-8.65 l 7.11,-1.93 a 94.9,94.9 0 0 1 12.86,-2.08 c 4.93,-0.71 9.81,-1.55 14.81,-1.79 5.19,-0.25 10.36,-0.19 15.55,0.05 3.52,0.16 -2.42,-5.15 -2.16,-4.91 q -3.44,-3.07 -7.11,-5.88 a 9.52,9.52 0 0 0 -4.22,-2.41 z"
     id="path52"
     style="opacity:0.11;fill:#ffffff" />
  <path
     class="cls-4"
     d="m 270.81999,110.45001 a 121.55,121.55 0 0 0 -25.65,2.4 165.26,165.26 0 0 0 -20.25,5.1 178.43,178.43 0 0 0 -22.77,9.39 c -9.79,4.89 -18.64,11.17 -27.32,17.81 a 182.81,182.81 0 0 0 -33.38001,32.68 159.35,159.35 0 0 0 -16.91,26.33 l -4.19,8.76 a 166.71,166.71 0 0 0 -7.12,19.23 c -1.6,7.27 -2.94,14.63 -4.06,22 a 197.5,197.5 0 0 0 -2.2,37.79 154.84,154.84 0 0 0 2.57,24.38 167,167 0 0 0 6.23,22.82 162,162 0 0 0 26,46.52 c 11.13,14 25.21,25.73 40.34001,35.13 a 193.8,193.8 0 0 0 70.47,26.17 c 3.11,0.52 6.23,0.93 9.36,1.17 3.13,0.24 6.53,0.13 9.76,0.26 a 158.73,158.73 0 0 0 64.18,-10.95 180.71,180.71 0 0 0 52.95,-32.22 199.14,199.14 0 0 0 22.1,-22.89 191.65,191.65 0 0 0 23.48,-36.59 c 1.37,-2.59 -3.78,-1.49 -4.36,-1.39 q -3.69,0.72 -7.29,1.8 a 6.56,6.56 0 0 0 -3.59,1.73 181.84,181.84 0 0 1 -11.27,17.17 l -6.24,7.93 a 175.33,175.33 0 0 1 -73.82,52.15 164,164 0 0 1 -59.58,9.6 85.75,85.75 0 0 1 -12,-0.58 c -2.11,-0.34 -4.2,-0.78 -6.28,-1.27 -7.82,-1.85 -15.6,-3.89 -23.25,-6.35 -5.62,-1.81 -11.47,-3.57 -16.93,-5.81 a 157.17,157.17 0 0 1 -16.69,-8.31 165.88,165.88 0 0 1 -34.10001,-25.36 142.91,142.91 0 0 1 -30.37,-43.83 141.14,141.14 0 0 1 -11.95,-42.75 183.79,183.79 0 0 1 -0.89,-18.48 176.71,176.71 0 0 1 0.93,-20.05 q 1.32,-12.72 3.81,-25.15 a 86.56,86.56 0 0 1 4.13,-14.13 158,158 0 0 1 12.14,-25.33 164.5,164.5 0 0 1 30.21,-37.05 c 4.55001,-4.17 9.51001,-7.85 14.39001,-11.61 4.16,-3.2 8.43,-6.32 12.82,-9.2 a 129.23,129.23 0 0 1 13.79,-7.6 161.78,161.78 0 0 1 22.45,-8.9 159.09,159.09 0 0 1 22.64,-5 97,97 0 0 1 21.33,-1.2 c 1.55,0.09 2.44,-1.11 1.45,-2.51 -0.99,-1.4 -3.08,-3.78 -5.07,-3.81 z"
     id="path54"
     style="opacity:0.11;fill:#ffffff" />
  <path
     class="cls-4"
     d="m 258.59999,109.71001 a 161.23,161.23 0 0 0 -38.5,5.73 c -14.13,4 -28.26,9.57 -40.58,17.61 -10.98,7.17 -21.74001,14.95 -31.28001,23.91 a 168.77,168.77 0 0 0 -43.58,64.26 45.15,45.15 0 0 0 -3.91,12.65 c -0.33,1.63 -0.68,3.25 -0.999996,4.87 a 236.44,236.44 0 0 0 -4.8,30.38 175,175 0 0 0 1.45,43 157.93,157.93 0 0 0 50.709996,92.48 c 11.7,10.6 25.12001,19 39.14001,26.13 a 180,180 0 0 0 24.45,9.92 190.57,190.57 0 0 0 33.56,8.24 160.69,160.69 0 0 0 21.14,1.15 160.28,160.28 0 0 0 70.07,-15.36 186.94,186.94 0 0 0 51.83,-36.36 203.76,203.76 0 0 0 21,-24.81 c 6.57,-9.06 11.77,-18.74 16.88,-28.64 0.38,-0.74 0.55,-2.08 -0.22,-2.68 -0.53,-0.41 -2.76,-0.43 -3.11,0.27 l -10.6,19.2 -6,9 a 176.18,176.18 0 0 1 -17,20.54 180.53,180.53 0 0 1 -36.45,29.66 163,163 0 0 1 -88.41,24 c -5.08,-0.13 -10.18,-0.22 -15.23,-0.79 a 125.23,125.23 0 0 1 -15.46,-3 212.58,212.58 0 0 1 -22.77,-7.06 168,168 0 0 1 -15.62,-6.36 c -5.57,-2.69 -10.87,-5.71 -16.22,-8.83 l 0.78,0.46 -7,-4.51 0.76,0.52 a 181.25,181.25 0 0 1 -24.79001,-20.63 151.44,151.44 0 0 1 -20.76,-26.62 155.82,155.82 0 0 1 -21.86,-61.69 c -1.1,-8.71 -0.95,-17.38 -0.61,-26.13 0.24,-5.9 0.71,-11.77 1.46,-17.62 a 164.12,164.12 0 0 1 3.44,-19.42 c 1,-4.07 2.42,-8.05 3.79,-12 a 166.09,166.09 0 0 1 31.22,-54.65 159.89,159.89 0 0 1 15.19,-15.5 101.8,101.8 0 0 1 9.20001,-7.22 q 4.38,-3.57 9,-6.88 c 4.27,-3.1 8.62,-6.08 13.16,-8.77 a 143.58,143.58 0 0 1 28.94,-12.74 96,96 0 0 1 12.48,-3.2 q 6,-1.43 12.12,-2.4 a 125.83,125.83 0 0 1 18,-1.22 c 2.11,0 1.2,-2.32 0.68,-3.33 a 30.5,30.5 0 0 0 -2.55,-3.91 2.94,2.94 0 0 0 -2.14,-1.65 z"
     id="path56"
     style="opacity:0.11;fill:#ffffff" />
  <path
     class="cls-5"
     d="m 14.919984,303.91001 c 11.45,93.4 69.58,176.05 159.000006,209 10,3.83 20.54,7.43 30.85,10.4 a 395.1,395.1 0 0 0 84,14.5 c 8.83,0.64 17.71,0.91 26.64,0.94 l 0.16,1.38 c -26.5,5.88 -54.07,6.16 -81,3.12 -26,-3.09 -51.76,-10 -75.48001,-21.23 -67.059996,-31.55 -118.389996,-93.25 -136.839996,-165 a 271.68,271.68 0 0 1 -8.78,-53 l 1.4,-0.14 z"
     id="path58"
     style="fill:#ffffff" />
  <path
     class="cls-6"
     d="m 302.33999,7.3000124 c 141.66,13.5399996 249.25,134.3499976 245.76,276.7299976 a 286.88,286.88 0 0 1 -3,35.86 c -1,6.47 -2.51,14.77 -4,21.13 0.44,-6.37 0.87,-15 1,-21.39 5,-153.52 -91,-276.269998 -239.72,-312.3299976 z"
     id="path60"
     style="fill:#d1d3d4" />
</svg>
