<?xml version="1.0" encoding="UTF-8" standalone="no"?>
<svg
   id="Layer_5"
   data-name="Layer 5"
   viewBox="0 0 557.15995 142.65927"
   version="1.1"
   sodipodi:docname="plate_2.svg"
   width="557.15997"
   height="142.65927"
   inkscape:version="1.2.2 (b0a8486541, 2022-12-01)"
   xmlns:inkscape="http://www.inkscape.org/namespaces/inkscape"
   xmlns:sodipodi="http://sodipodi.sourceforge.net/DTD/sodipodi-0.dtd"
   xmlns="http://www.w3.org/2000/svg"
   xmlns:svg="http://www.w3.org/2000/svg">
  <sodipodi:namedview
     id="namedview65"
     pagecolor="#ffffff"
     bordercolor="#000000"
     borderopacity="0.25"
     inkscape:showpageshadow="2"
     inkscape:pageopacity="0.0"
     inkscape:pagecheckerboard="0"
     inkscape:deskcolor="#d1d1d1"
     showgrid="false"
     inkscape:zoom="2.0413625"
     inkscape:cx="256.44636"
     inkscape:cy="103.85221"
     inkscape:window-width="1920"
     inkscape:window-height="1011"
     inkscape:window-x="0"
     inkscape:window-y="32"
     inkscape:window-maximized="1"
     inkscape:current-layer="Layer_5" />
  <defs
     id="defs4">
    <style
       id="style2">.cls-1{fill:#d7e1e2;}.cls-2{fill:#fbb040;}.cls-3{fill:#e2e8e7;}.cls-4{fill:#bababa;}.cls-4,.cls-5{opacity:0.11;}.cls-5,.cls-6{fill:#fff;}.cls-7{fill:#d1d3d4;}</style>
  </defs>
  <ellipse
     class="cls-1"
     cx="278.33002"
     cy="71.109398"
     rx="277.82999"
     ry="70.739998"
     id="ellipse6"
     style="fill:#d7e1e2" />
  <path
     class="cls-2"
     d="m 557.15999,71.08938 c -1.35,37.68 -99.5,55.72 -130,60.62 -110.15999,17 -263.92,16.35 -370.32999,-17.32 -18.59,-6.42 -56.24,-20.44 -56.83,-43.3 0.59,-22.86 38.52,-36.86 56.89,-43.18 106.36999,-33.4599957 259.99999,-33.9199957 370.16999,-16.7 35.05,5.92 96.5,18 121.47,43.34 4.26,4.47 7.62,10.22 7.63,16.54 z m -1,0 c -1.44,-36.78 -99.22,-54.86 -129.14,-59.64 -110,-16.9999957 -263.6,-16.3199957 -369.85999,17.29 -18.13,6.26 -55.56,20.2 -56.16,42.35 0.63,22.21 38.3,36.07 56.2,42.23 106.21999,33.41 259.70999,33.85 369.69999,16.67 34.82,-5.89 96.09001,-18 120.9,-43.05 4.11,-4.31 7.34,-9.8 7.36,-15.85 z"
     id="path8"
     style="fill:#fbb040" />
  <ellipse
     class="cls-3"
     cx="278.92001"
     cy="71.109398"
     rx="173.78"
     ry="44.25"
     id="ellipse10"
     style="fill:#e2e8e7" />
  <path
     class="cls-4"
     d="m 222.71999,35.64938 c 21.56,-2 43.11,-3.39 64.77,-3.58 20.86,-0.2 41.81,0.41 62.6,2.24 a 453.91,453.91 0 0 1 48.87,6.64 208.14,208.14 0 0 1 22.33,5.43 l 30.19,14.79 a 17.85,17.85 0 0 1 5.35,8.31 l -0.41,-1.81 0.61,4.52 -0.09,-2.73 -1.52999,7.19 1,-2.2 a 41.78,41.78 0 0 1 -22.46,15.93 q -6,2.25 -12.11,4.07 c -10.68,3.23 -21.56,5.59 -32.48,7.85 -1.08,0.22 0.16,1.54 0.89999,1.38 17.08999,-3.58 34.68,-7.26 50.59001,-14.72 4.91,-2.3 9.95,-5.06 13.52999,-9.23 a 13.56,13.56 0 0 0 3.52,-7.26 14.43,14.43 0 0 0 -2.27999,-9.63 c -3.10001,-4.82 -8.42001,-8.29 -13.39,-10.91 -12.86,-6.77 -27.35001,-10.55 -41.48,-13.47 -25.80001,-5.32 -52.19,-7.52 -78.47002,-8.64 -17.11,-0.73 -34.26999,-0.72 -51.37999,-0.19 -17.11001,0.53 -34.43001,1.89 -51.63,3.3 -1,0.08 0.50999,1.25 0.52001,1.26 0.75,0.51 2,1.55 2.92998,1.46 z"
     id="path12"
     style="opacity:0.11;fill:#bababa" />
  <path
     class="cls-4"
     d="m 220.32,33.96938 c 21.53999,-2 43.06999,-3.33 64.69999,-3.6 a 643.87,643.87 0 0 1 68.46,2.77 390.15,390.15 0 0 1 52.46,8.1 q 6.54,1.42 13,3.38 l 22.83,9.41 4.1,2.62 a 26.44,26.44 0 0 1 7.71,8.18 l -1,-2 2,4.77 -1.14,-3.42 1.19,5.15 -0.45,-3.54 0.07,4.74 0.13,-2.25 -2.34,7.08 0.93,-2.05 -2.89,4.38 1.36001,-1.85 -4.95,5.32 2.58,-2.45 c -8.84,6.95 -17.64,10.88 -27.92001,14.17 -10.79,3.45 -21.8,6 -32.86,8.38 -1.11,0.24 1.18,1.31 1,1.24 1,0.43 2.82,1.44 3.94,1.16 a 258.24,258.24 0 0 0 29.14,-8.57 109.54,109.54 0 0 0 15.32,-6.77 80.7,80.7 0 0 0 12,-8.15 22,22 0 0 0 4.09,-4.36 7.87,7.87 0 0 0 1.6,-3.95 19.12,19.12 0 0 0 -0.1,-5.45 c -1.28,-5.38 -5,-9.33 -9.41,-12.52 a 72.81,72.81 0 0 0 -16.65,-8.49 c -14.82,-5.71 -30.43,-9 -46.07,-11.47 a 559.92,559.92 0 0 0 -76.07,-6.35 c -12.92,-0.28 -25.84,-0.17 -38.75,0.19 -17.23,0.49 -34.4,1.89 -51.57,3.3 -1,0.08 0.55,1.3 0.56,1.31 0.67,0.53 2.04,1.71 3.00001,1.59 z"
     id="path14"
     style="opacity:0.11;fill:#bababa" />
  <path
     class="cls-4"
     d="m 221.73999,31.86938 c 8.49,-1 16.95,-1.9 25.48,-2.47 8.53,-0.57 17.34,-1 26,-1.19 17.06,-0.46 34.16001,-0.31 51.21,0.48 15.78,0.73 31.58,2 47.25,4 a 316.12,316.12 0 0 1 44,8.54 c 8.58,2.4 17.11,5.29 24.92,9.62 a 31.18,31.18 0 0 1 4.35,2.65 17.53,17.53 0 0 1 4.78,4.06 q 5,3 3,9 2.26,4.57 -0.67,7.33 c -1.9,2.23 -4.21,3.53 -6.74,5 a 79.57,79.57 0 0 1 -9.86,5 c -15.22,6.34 -31.21,10.32 -47.3,13.77 -0.58,0.12 -0.37,0.65 -0.07,0.9 a 4.51,4.51 0 0 0 2.63,0.2 c 14.27,-3.37 28.34,-7.14 42,-12.47 5.54,-2.16 11.35,-4.54 16.25,-8 3.45,-2.44 6.39,-5.62 7.15,-9.9 0.79,-4.54 -2.38,-9 -5.38,-12 a 38.65,38.65 0 0 0 -7.49,-5.65 90.8,90.8 0 0 0 -16.37,-7.52 c -17.74,-6.23 -36.57,-9.65 -55.19,-12 a 617.53,617.53 0 0 0 -66.31,-4.63 q -19.41,-0.37 -38.82,0.33 -9.76,0.28 -19.52,1 -12.75,0.69 -25.38,2.58 c -0.78,0.17 -0.69,1.46 0.08,1.37 z"
     id="path16"
     style="opacity:0.11;fill:#bababa" />
  <path
     class="cls-4"
     d="m 222.09999,32.96938 a 774.41,774.41 0 0 1 77.66,-3.61 590.65,590.65 0 0 1 72.68001,4.62 c 10.31999,1.37 20.64999,2.91 30.81999,5.16 a 193,193 0 0 1 24.34,6.68 110.44,110.44 0 0 1 14,6.09 c 6.4,3.39 12.16,7.25 15,14.43 l -0.49,-2.65 0.81,5.29 -0.09,-4.08 -0.32,6.66 0.75,-4.94 -1.61,6.47 1.31,-3.71 -2.88999,6.15 1.87,-3.24 -4.09,5.64 2.45,-2.8 -9.63,8.12 1.89,-1.23 a 124.61,124.61 0 0 1 -23.10001,10.07 337.25,337.25 0 0 1 -32.83999,8.47 c -1.14,0.25 1.41001,1.22 1.16001,1.14 1.12999,0.37 2.87,1.09 4.07999,0.78 13.13,-3.27 26.08999,-6.84 38.5,-12.29 a 80.23,80.23 0 0 0 13.89999,-7.93 21.84,21.84 0 0 0 3.42001,-2.88 l 2.79001,-2.58 a 17.22,17.22 0 0 0 1.24,-2 l 1.73,-3.13 a 17.81,17.81 0 0 0 0.69,-3.91 c 0.44,-4.33 -1.74,-8.43 -4.5,-11.59 -6.76,-7.73 -17.1,-11.74 -26.52,-15.1 -17.27,-6.16 -35.5,-9.4 -53.62,-11.8 a 604.34,604.34 0 0 0 -72.27,-4.82 q -19.53,-0.22 -39,0.57 c -15,0.62 -30,1.79 -45.06,2.94 -1.16,0.09 0.78,1.73 0.83,1.78 0.84,0.77 1.71,1.52 2.6,2.24 a 4,4 0 0 0 1.50998,0.99 z"
     id="path18"
     style="opacity:0.11;fill:#bababa" />
  <path
     class="cls-4"
     d="m 223.23999,31.19938 c 21.46,-2 42.93,-3.37 64.48,-3.55 16.87,-0.14 33.76,0.3 50.59,1.41 15.31,1 30.63,2.53 45.79,4.9 13.82,2.16 27.66,4.93 40.95,9.34 7.56,2.52 15,5.51 21.69,10 a 18.78,18.78 0 0 1 3.61,2.72 12.34,12.34 0 0 1 3.63,4.1 q 5.61,5 -2.53,10.9 -0.89999,7 -6.44999,9.15 c -17.32,8.83 -36.60001,13.2 -55.48001,17.25 -0.44,0.09 -0.22,0.72 0,0.9 0.34,0.34 1.41001,0.16 1.82,0.07 14.46,-3.22 28.78001,-6.79 42.64,-12.06 6.74,-2.57 13.92,-5.42 19.45,-10.24 a 13.78,13.78 0 0 0 4.57,-7.78 c 0.77,-4.07 -1.56,-7.94 -4.17,-10.82 a 41.41,41.41 0 0 0 -11,-8.28 103.26,103.26 0 0 0 -17.48,-7.38 c -18.63,-6.22 -38.29,-9.38 -57.75,-11.69 a 632,632 0 0 0 -73.68,-4.15 c -23.88,0 -47.6,1.34 -71.36,3.53 -1.1,0.06 -0.02,1.75 0.68,1.68 z"
     id="path20"
     style="opacity:0.11;fill:#bababa" />
  <path
     class="cls-4"
     d="m 220.15999,33.87938 c 12.81,-1.44 25.57,-2.57 38.46,-3.12 q 16.21,-0.67 32.46,-0.69 a 621.11,621.11 0 0 1 67.77,3.41 382.19,382.19 0 0 1 51.08,8.7 138.28,138.28 0 0 1 21.34,7 c 8.77,3.84 18.4,8.35 21.92,18 l -0.17,-0.78 a 7.23,7.23 0 0 1 -0.75,6 13.8,13.8 0 0 1 -2.09,3.29 c -4.52,4.92 -10.61,7.47 -16.54,10.18 a 59,59 0 0 1 -11.19,4.71 q -5.13,1.8 -10.39,3.24 c -8.34,2.32 -16.77,4.22 -25.24,6 -0.55,0.12 -0.66,0.48 -0.26,0.87 a 5.15,5.15 0 0 0 2.87,0.84 c 14,-3.32 27.85,-7 41.13,-12.67 4.12,-1.76 8.17,-3.62 12.12,-5.75 a 29.38,29.38 0 0 0 8.8,-6.58 c 2.37,-2.81 3.73,-6.12 2.78,-9.75 a 18.67,18.67 0 0 0 -5.45,-8.54 c -4.92,-4.73 -11.49,-8 -17.69,-10.57 -16,-6.74 -33.43,-10 -50.52,-12.76 -23.36,-3.72 -47.09,-5.27 -70.71,-6 -15.06,-0.46 -30.13,-0.31 -45.19,0.23 q -9.77,0.3 -19.52,1 -12.74,0.71 -25.36,2.47 c -0.84,0.07 -0.44,1.36 0.34,1.27 z"
     id="path22"
     style="opacity:0.11;fill:#bababa" />
  <path
     class="cls-4"
     d="m 221.34999,36.21938 a 744.24,744.24 0 0 1 77.57,-3.61 640,640 0 0 1 66.95,4 c 8.93,1 17.83,2.32 26.68,3.9 a 221.42,221.42 0 0 1 27.15,6.35 117.07,117.07 0 0 1 18.38,7 c 6.59,3.34 12.07,6.85 16.37,13.39 l -0.7,-1.33 1.69,6.17 -0.19,-2.28 -0.27,4 0.22,-1.38 -1.25,3.85 0.5,-1.26 -2.19999,3.74 0.72001,-1 c -8.43001,9.51 -20.79001,13.33 -32.43001,16.89 -10.68,3.25 -21.56,5.62 -32.48,7.87 -1.14,0.24 0.18,1.62 0.91,1.47 17,-3.56 34.57,-7.22 50.36,-14.78 a 47.81,47.81 0 0 0 11.42,-7.12 c 2.86,-2.62 5.83,-5.92 5.76,-10.06 a 15.23,15.23 0 0 0 -1.71,-6.51 c -2.51,-5.35 -8.25,-9.06 -13.19,-11.79 a 105.22,105.22 0 0 0 -16.61,-7.08 227.79,227.79 0 0 0 -34.06,-8.34 c -26.69,-4.75 -53.93,-6.79 -81,-7.35 -12.89,-0.27 -25.78,-0.26 -38.67,0.12 -17.24,0.51 -34.39,1.84 -51.56,3.37 -0.49,0 -0.6,0.41 -0.4,0.8 a 3.45,3.45 0 0 0 2.03999,0.97 z"
     id="path24"
     style="opacity:0.11;fill:#bababa" />
  <path
     class="cls-4"
     d="m 223.65999,32.83938 c 25.86,-2.36 51.67,-3.72 77.65,-3.57 a 584.08,584.08 0 0 1 78.07,5.4 c 17.85,2.52 35.92,5.82 52.81,12.3 a 82.83,82.83 0 0 1 15.35,7.54 28.9,28.9 0 0 1 5.35,4.06 14.25,14.25 0 0 1 5.39,10.82 l 0.16001,-2.57 q -7.63,15.63 -22.58,20.66 -7.8,3.06 -15.85001,5.34 c -9.48,2.78 -19.07999,4.94 -28.75,7 -0.50999,0.11 -0.43999,0.59 -0.18,0.88 a 3.66,3.66 0 0 0 2.30001,0.47 c 10.88999,-2.45 21.79,-5 32.37,-8.6 a 147.2,147.2 0 0 0 16.70999,-6.6 c 4.54001,-2.2 9.37,-4.79 12.87,-8.49 4.47001,-4.73 5.66001,-11.66 2.08,-17.39 -3.74,-6 -9.77999,-9.8 -16,-12.86 -15.4,-7.58 -32.23,-11.6 -49.05,-14.61 -26.9,-4.81 -54.37,-6.78 -81.67,-7.42 -13,-0.3 -25.95,-0.25 -38.9,0.14 -17.22,0.52 -34.38,1.84 -51.55,3.17 -1,0.08 0.22,1.38 0.37,1.57 0.59,0.67 1.21001,1.32 1.85,1.94 a 2.43,2.43 0 0 0 1.2,0.82 z"
     id="path26"
     style="opacity:0.11;fill:#bababa" />
  <path
     class="cls-4"
     d="m 220.45999,32.46938 c 17.2,-1.63 34.4,-2.91 51.67,-3.37 17.06,-0.46 34.16,-0.32 51.21,0.46 15.79,0.72 31.59,2 47.26,4 a 317.63,317.63 0 0 1 44,8.5 118.23,118.23 0 0 1 24.9,9.54 30.84,30.84 0 0 1 4.39,2.62 q 5.26,2.66 5.35,9.56 6.07,5.16 2.6,9.3 a 6.64,6.64 0 0 1 -1.8,2.11 c -5,4.75 -11.11,7.71 -17.34,10.45 a 69.57,69.57 0 0 1 -12.76,4.81 q -5.29,1.9 -10.75999,3.29 c -7.08,1.92 -14.21,3.51 -21.38,5.06 -0.68,0.15 -0.69,0.52 -0.15,0.89 a 7.12,7.12 0 0 0 3.75,0.67 c 8.47001,-2.1 16.88,-4.29 25.16001,-7 5.79,-1.91 11.42,-4.2 17,-6.64 a 83.89,83.89 0 0 0 11.91,-5.88 c 2.83,-1.81 5.91,-3.81 7.75,-6.7 1.84,-2.89 2.62,-5.81 1.67,-9 a 19.53,19.53 0 0 0 -5.71,-8.65 c -6.64,-6.23 -15.61,-9.76 -24,-12.82 a 187.54,187.54 0 0 0 -24.31,-6.66 c -10.17,-2.2 -20.5,-3.84 -30.82,-5.17 a 595.11,595.11 0 0 0 -72.71,-4.64 c -10.82,-0.06 -21.63,0.08 -32.44,0.48 -15.07,0.55 -30.05,1.72 -45.06,3.13 -1.25,0.1 -0.1,1.72 0.61998,1.66 z"
     id="path28"
     style="opacity:0.11;fill:#bababa" />
  <path
     class="cls-4"
     d="m 221.44,31.35938 c 25.83999,-2.33 51.70999,-3.87 77.65999,-3.57 a 644.54,644.54 0 0 1 67,4 c 8.95,1.05 17.86,2.33 26.74,3.92 a 220.51,220.51 0 0 1 27.2,6.39 c 6.24,2 12.69,4 18.46,7.09 l 11.89,7.73 a 18.15,18.15 0 0 1 5.43,8.35 l -0.38,-1.58 0.12,5.24 0.26,-1.54 q -7.08,14.07 -22.08,17.7 a 81.62,81.62 0 0 1 -18.56,7.33 c -8.35,2.39 -16.78,4.34 -25.26,6.19 -0.8,0.18 -0.78,0.51 -0.13,0.9 a 22.18,22.18 0 0 0 4.5,0.63 c 14.72,-3.71 29.06,-7.9 42.82,-14.4 a 89.24,89.24 0 0 0 10.43,-5.51 c 2.78,-1.8 5.84,-4.13 7.62,-7 4.3,-6.91 0.46,-14.89 -5.2,-19.71 -7.11,-6.05 -16.26999,-9.86 -25,-12.82 -17.91,-6.09 -36.83999,-9.45 -55.57,-11.74 a 629,629 0 0 0 -66.63,-4.39 q -19.49,-0.3 -38.94999,0.44 c -15.07,0.58 -30.07,1.77 -45.1,3 -0.88,0.07 0.07,1.16 0.23,1.34 0.46,0.49 1.69999,2.08 2.5,2.01 z"
     id="path30"
     style="opacity:0.11;fill:#bababa" />
  <path
     class="cls-4"
     d="m 223.46999,34.31938 a 771.76,771.76 0 0 1 77.67,-3.58 590.19,590.19 0 0 1 72.65,4.65 c 10.31,1.37 20.64,2.92 30.8,5.18 a 192.61,192.61 0 0 1 24.31,6.7 109.47,109.47 0 0 1 14,6.12 44.4,44.4 0 0 1 6.47001,3.92 q 8.08999,4.72 8.66001,13.45 l 0.12999,-2.94 -0.63999,5.58 0.57999,-2.66 -12.94,14 -4.43999,2.16 a 137.67,137.67 0 0 1 -14.37001,5.36 347.32,347.32 0 0 1 -35.56999,9 c -0.45,0.09 -0.45,0.55 -0.27,0.86 a 2.77,2.77 0 0 0 1.83999,0.57 c 16.86001,-3.66 34.19,-7.49 49.84001,-15 4.11,-2 8.57,-4.39 11.91,-7.64 4.81,-4.68 6.84,-11.2 3.57,-17.48 -3,-5.85 -8.71,-9.81 -14.4,-12.8 -15.91,-8.38 -34.1,-12.47 -51.66,-15.55 -26.91,-4.72 -54.33,-6.64 -81.61,-7.22 q -19.43,-0.42 -38.87,0.2 c -17.23,0.54 -34.4,1.87 -51.59,3.19 -1.05,0.09 0.5,1.47 0.57,1.54 a 27.16,27.16 0 0 0 2.1,1.76 2.57,2.57 0 0 0 1.25998,0.63 z"
     id="path32"
     style="opacity:0.11;fill:#bababa" />
  <path
     class="cls-4"
     d="m 220.03999,34.84938 c 46.09001,-4.37 92.73,-5.32 138.82,-0.27 a 384.07,384.07 0 0 1 51,8.62 139.25,139.25 0 0 1 21.29,6.89 c 8.45,3.65 18.31,8.21 22,17.55 l -0.29,-1.06 -0.81,7.09 -1.37,2.29 -2,2.2 a 83.73,83.73 0 0 1 -26.24,13.7 327.38,327.38 0 0 1 -35.79,9.23 c -0.83,0.17 0.44,1.05 0.5,1.08 a 4.1,4.1 0 0 0 2.5,0.75 c 14.18,-3.28 28.31,-6.83 41.67,-12.76 a 129.92,129.92 0 0 0 11.91,-6.07 29.76,29.76 0 0 0 8.53,-6.66 c 2.36,-2.88 3.77,-6.51 2.49,-10.16 a 20,20 0 0 0 -5.82,-8.62 c -5.19,-4.6 -11.59,-7.75 -18,-10.35 -16,-6.56 -33.3,-9.79 -50.33,-12.46 -23.33,-3.66 -47,-5.17 -70.61,-5.84 a 732.49,732.49 0 0 0 -90.22,3.45 c -1.04,0.06 0.01,1.47 0.77,1.4 z"
     id="path34"
     style="opacity:0.11;fill:#bababa" />
  <path
     class="cls-5"
     d="m 159.29999,40.34938 c -5,1.4 -9.91,2.83 -14.74,4.64 -1.6,0.59 -3.71,1.27 -5.25,2 -1.92,1 -3.86,1.9 -5.77,2.88 -8,4.13 -18.18,9.52 -20.37,19.07 -1.8,7.84 2.73,15.12 8.46,20.13 5.44,4.78 11.63,7.74 18.35,10.32 19.79,7.6 41.22,10.81 62.18,13.3 17.16,2 34.42,3.29 51.68,4 a 622.65,622.65 0 0 0 81.49,-2.18 429.14,429.14 0 0 0 54.34,-8 c 0.95,-0.21 -0.71,-1.17 -0.71,-1.17 -0.81,-0.42 -2.13999,-1.18 -3.08999,-1 -37.83,7.39 -76.62,10 -115.12,9.52 q -5.54001,-0.11 -11.07,-0.06 a 32.78,32.78 0 0 1 -6.42001,-0.06 c -1.81999,-0.17 -3.62,-0.32 -5.43999,-0.44 -5.42001,-0.38 -10.84,-0.75 -16.26,-1.18 -8.63,-0.7 -17.25,-1.32 -25.84999,-2.36 -9.61001,-1.16 -19.22001,-2.51 -28.74,-4.32 a 219.9,219.9 0 0 1 -24.18001,-5.83 151.56,151.56 0 0 1 -21.1,-7.79 22.48,22.48 0 0 1 -3.53999,-2.24 c -4.16,-3.07 -8.58001,-5.95 -11.16,-10.57 a 14.67,14.67 0 0 1 -1.89,-5.75 6.61,6.61 0 0 1 1.13,-5.13 8,8 0 0 1 2.36,-5.27 38.63,38.63 0 0 1 10.63,-8.6 c 2.75,-1.62 5.6,-3.1 8.46,-4.52 a 75.12,75.12 0 0 1 7.49,-3.06 c 4.87,-1.82 9.67,-3.36 14.66,-4.78 1.1,-0.32 0.16,-1.74 -0.53002,-1.55 z"
     id="path36"
     style="opacity:0.11;fill:#ffffff" />
  <path
     class="cls-5"
     d="m 158.16,39.59938 c -9.18999,2.5 -18.16,5.4 -26.65001,9.74 a 61.61,61.61 0 0 0 -11.62,7.15 c -3.5,2.92 -7,6.57 -8,11.17 -2,8.88 4,16.37 10.53,21.58 7.64,6.09 17.1,9.3 26.38,12 19.68,5.79 40.13,8.62 60.49001,10.76 14.69999,1.55 29.49999,2.48 44.26999,3.06 14.5,0.58 29.16,0.51 43.66,0 14.5,-0.51 29,-1.45 43.43,-3 a 434.85,434.85 0 0 0 46.54,-7.22 c 1,-0.22 -0.71,-1.22 -0.72,-1.22 -0.8,-0.45 -2.24,-1.36 -3.21,-1.17 -12.95,2.53 -26,4.54 -39.15,6 q -18.13,2 -36.36,2.84 c -15,0.75 -30,0.73 -45,0.65 -4.27,0 -8.64,0.34 -12.89,-0.09 -2.13,-0.21 -4.26,-0.36 -6.4,-0.51 q -9.92,-0.74 -19.81,-1.53 c -18.79999,-1.5 -37.57999,-3.68 -55.99998,-7.68 -4.15001,-0.91 -8.34001,-1.79 -12.41001,-3 -3.74,-1.11 -7.46999,-2.41 -11.15999,-3.67 a 120.61,120.61 0 0 1 -13,-5.25 c -2.53001,-1.2 -1.76,-0.65 -2.82,-1.51 -1.48,-1.21 -2.74,-2.74 -4.1,-4.08 a 25.61,25.61 0 0 1 -6.34,-10.63 8.54,8.54 0 0 1 -0.14,-4.43 l 0.48,-2.12 7.39,-9 a 69.67,69.67 0 0 1 9.99999,-5.78 c 8.47001,-4.26 17.68,-7 26.83,-9.29 1,-0.24 -0.49,-1.34 -0.66999,-1.5 -0.71001,-0.57 -1.45,-1.12 -2.21001,-1.64 a 2.62,2.62 0 0 0 -1.34,-0.63 z"
     id="path38"
     style="opacity:0.11;fill:#ffffff" />
  <path
     class="cls-5"
     d="m 157.95999,36.08938 c -6.86,1.89 -14,3.74 -20.45,6.84 -2.49,1.21 -5,2.35 -7.44999,3.64 -8.06999,4.23 -18.33001,10.42 -19.11,20.55 -0.72999,9.36 6.34,16.92 13.52001,21.75 a 40.3,40.3 0 0 0 6.25999,3.4 c 4.28,1.89 8.5,3.77 13,5.23 4.85,1.6 9.79,3 14.77,4.16 19,4.44 38.51,6.9 58,8.69 13,1.2 26,2.09 39.07,2.36 15.91,0.34 31.74,0.48 47.63999,-0.21 12.93,-0.55 25.85001,-1.49 38.72,-2.89 a 419.46,419.46 0 0 0 46.63,-7.35 c 0.94,-0.21 0.49,-1.58 -0.22,-1.42 a 407.78,407.78 0 0 1 -46.48,7.36 q -19.28,2.06 -38.64,2.9 c -15.88,0.69 -31.69,0.54 -47.58,0.22 -13,-0.26 -26,-1.19 -38.93,-2.33 -10.65,-0.94 -21.3,-2.16 -31.88,-3.75 a 273.48,273.48 0 0 1 -31.82,-6.36 c -3.82,-1 -7.64,-2.17 -11.38,-3.48 -3.47,-1.22 -6.57,-2.87 -9.94,-4.23 a 35.3,35.3 0 0 1 -4.65,-2.31 31,31 0 0 1 -9.22,-7.73 21.14,21.14 0 0 1 -3.49,-6 21.78,21.78 0 0 1 -0.83,-5.67 c -0.13,-5.24 3,-9.77 6.69,-13.23 3.69,-3.46 8.1,-5.82 12.46,-8 9.1,-4.6 19,-7.63 28.8,-10.17 0.87,-0.23 -0.58,-1.09 -0.62,-1.11 -0.81,-0.39 -2.03,-1.05 -2.87,-0.86 z"
     id="path40"
     style="opacity:0.11;fill:#ffffff" />
  <path
     class="cls-5"
     d="m 160.54,39.00938 c -6.81999,1.85 -14,3.68 -20.41,6.75 -2.84999,1.37 -5.74001,2.66 -8.53,4.16 -7.56999,4.08 -17.24001,10.15 -17.78,19.8 -0.49001,8.81 6.86001,16.2 13.65999,20.68 6.29,4.15 13.55001,6.82 20.71001,9 20.41999,6.28 41.78001,9.36 63,11.54 14.35999,1.48 28.76999,2.4 43.19,3 13.22,0.58 26.5,0.51 39.72,0.17 q 22.31,-0.56 44.52,-2.73 a 437.06,437.06 0 0 0 50.39999,-7.58 c 1.15,-0.25 -1,-1.62 -1.07999,-1.65 -1,-0.65 -1.92001,-1.28 -2.91001,-1.86 a 3.83,3.83 0 0 0 -1.66,-0.74 c -12.83,2.54 -25.83,4.54 -38.83,5.89 -13.49,1.46 -27.06,2.47 -40.62,3 -15.36,0.6 -30.68,0.33 -46,0.46 a 26.84,26.84 0 0 1 -6.46,0 l -2.62,-0.3 c -2,-0.18 -4,-0.3 -5.92,-0.45 -6.93,-0.52 -13.84999,-1.13 -20.77,-1.61 -9.08999,-0.62 -18.09999,-1.67 -27.12,-2.92 -10.57,-1.47 -21.21999,-3.21 -31.59999,-5.73 -3.81,-0.93 -7.54001,-2 -11.26,-3.24 l -15.90001,-5.63 a 18.22,18.22 0 0 1 -4.78999,-2.23 29.8,29.8 0 0 1 -2.93,-2.46 41.72,41.72 0 0 1 -4.82,-4.48 19.22,19.22 0 0 1 -4.06999,-7.37 9.75,9.75 0 0 1 0.28,-4.91 7.13,7.13 0 0 1 2.6,-4.48 15.86,15.86 0 0 1 5.3,-5.79 81.86,81.86 0 0 1 10.23,-5.81 c 8.58999,-4.24 18,-7 27.21,-9.28 1.05,-0.27 -0.86001,-1.39 -0.9,-1.41 -0.81,-0.49 -1.64,-0.95 -2.49002,-1.36 a 2.62,2.62 0 0 0 -1.34999,-0.43 z"
     id="path42"
     style="opacity:0.11;fill:#ffffff" />
  <path
     class="cls-5"
     d="m 159.78001,35.65938 c -6.84001,1.87 -13.94,3.7 -20.36001,6.73 -3.37,1.59 -6.74,3.17 -10,5 a 46.69,46.69 0 0 0 -11.33,8.11 24.21,24.21 0 0 0 -2.42,2.84 c -1.63999,2.34 -3.3,6 -3.37999,8.88 -0.16,6.11 2.8,11.52 7,15.82 5.78,6 13.41999,9.45 20.99999,12.42 9.57,3.72 19.64,6.11 29.69,8.1 10.84001,2.14 21.77,3.73 32.74001,5 17.13999,2 34.40999,3.37 51.65999,3.86 a 672.15,672.15 0 0 0 81.39999,-2.26 425,425 0 0 0 54.3,-8.19 c 1,-0.23 -0.41,-1.81 -1.08999,-1.66 a 390.42,390.42 0 0 1 -39,6.56 c -12.08,1.48 -24.20999,2.54 -36.36,3.27 q -9.52,0.56 -19.07,0.82 c -12.25,0.34 -24.48001,0.14 -36.73001,-0.08 -9.43,-0.17 -18.86,-0.69 -28.25999,-1.36 a 488.9,488.9 0 0 1 -56.2,-6.79 248.37,248.37 0 0 1 -24.53999,-5.79 98.48,98.48 0 0 1 -13,-4.86 c -1.33001,-0.61 -1.94,-0.89 -3.06,-1.3 a 32.07,32.07 0 0 1 -6.56,-3.57 42.8,42.8 0 0 1 -4.89,-3.89 12.45,12.45 0 0 1 -1.89,-1.95 11.6,11.6 0 0 1 -3.12,-6.12 10.72,10.72 0 0 1 -2.25,-7.93 l 0.75,-2.83 1.31,-2.92 7.23,-8.1 a 67.81,67.81 0 0 1 10.61,-6.29 c 8.83,-4.48 18.31,-7.43 27.85,-10 0.49,-0.13 0.53999,-0.49 0.26,-0.86 a 3.64,3.64 0 0 0 -2.29,-0.66 z"
     id="path44"
     style="opacity:0.11;fill:#ffffff" />
  <path
     class="cls-5"
     d="m 156.44999,38.08938 c -4.11,1.13 -8.18,2.29 -12.19999,3.67 a 74.26,74.26 0 0 0 -8.22999,3.15 c -2.87,1.4 -5.76,2.73 -8.57,4.24 -7.8,4.19 -17.15,10.34 -17.79,20.08 -0.54,8.2 5.24,15.2 11.31,20 5.39,4.24 11.87999,7.11 18.3,9.38 20.25,7.15 41.88,10.26 63.13,12.62 16.12,1.8 32.32999,3 48.54,3.53 a 637.56,637.56 0 0 0 85.40999,-2.67 426.47,426.47 0 0 0 50.52,-7.75 c 0.92,-0.21 0.26999,-1.51 -0.48001,-1.34 a 415,415 0 0 1 -42.89999,6.88 600.45,600.45 0 0 1 -83.62,3.62 c -13.14999,-0.33 -26.25,-1 -39.36001,-2.05 -20.22998,-1.66 -40.55998,-4 -60.35998,-8.58 a 146.74,146.74 0 0 1 -25.79001,-8 47.93,47.93 0 0 1 -9.36999,-5.16 c -3.65,-2.62 -7.13,-5.61 -9.38,-9.56 a 16.26,16.26 0 0 1 -2.14,-11.77 c 1.89,-8.73 10.42,-13.59 17.73,-17.46 8.83,-4.67 18.5,-7.63 28.13,-10.1 1.08999,-0.25 -2.05,-2.93 -2.88002,-2.73 z"
     id="path46"
     style="opacity:0.11;fill:#ffffff" />
  <path
     class="cls-5"
     d="m 157.69,40.66938 c -4.09,1.13 -8.13,2.3 -12.14,3.7 a 69.77,69.77 0 0 0 -8.22001,3.17 c -2.86,1.41 -5.70999,2.8 -8.50998,4.33 -7.22,3.93 -14.92,9.11 -17.14001,17.5 -2.22,8.39 4.07,16.52 10.17,21.56 7.88,6.53 18.19,9.86 27.82,12.67 18.64,5.42 38,8.2 57.22999,10.3 15.43,1.68 30.93,2.65 46.44,3.37 13.22001,0.6 26.56,0.5 39.78001,0.17 q 22.33999,-0.57 44.6,-2.75 a 437.8,437.8 0 0 0 50.55,-7.6 c 0.49,-0.11 0.53,-0.5 0.28,-0.86 a 3.55,3.55 0 0 0 -2.19,-0.71 c -39.72001,8.17 -80.5,10.32 -121,9.89 -4.95,-0.05 -9.21,0.08 -13.89,-0.27 -1.81,-0.14 -3.62,-0.22 -5.43,-0.33 q -10,-0.62 -19.94,-1.4 c -22.2,-1.75 -44.46,-4.38 -66.12,-9.7 -3.92,-1 -7.74,-2.19 -11.58,-3.39 a 139.53,139.53 0 0 1 -13.6,-4.91 33.94,33.94 0 0 1 -7.08,-3.67 66.71,66.71 0 0 1 -6.55,-5.29 l -1.6,-1.66 -4.13,-5.86 a 14.16,14.16 0 0 1 -1.61,-5.61 c -0.34,-5.72 3.27,-10.74 7.49,-14.26 a 59.48,59.48 0 0 1 10.08,-6.45 q 3.53,-1.89 7.11,-3.64 c 6.3,-3.07 13.32,-4.9 20.05,-6.77 1.04,-0.27 -0.2,-1.72 -0.87,-1.53 z"
     id="path48"
     style="opacity:0.11;fill:#ffffff" />
  <path
     class="cls-5"
     d="m 160.91999,38.08938 c -10.86,3.08 -21.52,6.69 -31.28,12.44 -7.72999,4.56 -16.44,11.37 -15.31,21.4 0.53,4.79 3.25,9.18 6.57,12.57 4.33,4.43 9.59,7.48 15.18,10 a 149.13,149.13 0 0 0 28.13,8.92 c 11.79,2.67 23.75,4.58 35.74,6.06 17.73,2.2 35.58,3.58 53.43,4.34 a 606.33,606.33 0 0 0 82.86,-2.1 451.81,451.81 0 0 0 54.3,-8 c 1,-0.22 -0.51,-1.37 -0.66,-1.5 -0.71,-0.57 -1.44,-1.12 -2.2,-1.63 a 2.58,2.58 0 0 0 -1.3,-0.62 c -34.13,6.87 -69.08,9.62 -103.85,9.83 -7.2,0 -14.39999,-0.09 -21.6,0 -3.29,0 -6,0 -9.08,-0.29 -4.66,-0.4 -9.35,-0.59 -14,-0.92 -7.16,-0.49 -14.34,-0.91 -21.49,-1.54 -9.35,-0.83 -18.71,-2.06 -28,-3.45 -8.46,-1.27 -16.9,-2.75 -25.24,-4.67 a 195,195 0 0 1 -22.07,-6.61 90.37,90.37 0 0 1 -8.85,-3.57 23.23,23.23 0 0 1 -2.69,-1.56 l -11.90999,-20.67 1.09001,-2.59 c 3.62999,-7.08 11.67999,-11.34 18.55999,-14.7 8.39,-4.1 17.33,-6.88 26.33,-9.29 0.75,-0.2 -0.28,-1 -0.4,-1.07 a 3.36,3.36 0 0 0 -2.26001,-0.78 z"
     id="path50"
     style="opacity:0.11;fill:#ffffff" />
  <path
     class="cls-5"
     d="m 157.35999,37.19938 c -5,1.37 -10,2.76 -14.81999,4.57 a 55.48,55.48 0 0 0 -6.09001,2.48 c -3.09,1.58 -6.25999,3 -9.31,4.67 -7.27,4.06 -16.22,10.17 -16.53,19.42 -0.3,9 6.11001,16.06 13,21.05 6.41,4.64 14.30001,7.38 21.78,9.73 16.56,5.19 33.81,7.93 51,10.1 17.77001,2.25 35.71,3.59 53.61,4.28 a 641.36,641.36 0 0 0 82.94,-2.15 430.2,430.2 0 0 0 54.4,-8.1 c 1.24,-0.27 -0.18,-1.75 -0.88,-1.59 -12.94,2.84 -26.08,4.84 -39.23,6.42 a 617.59,617.59 0 0 1 -81.58,4.08 c -13.12,-0.17 -26.2,-0.82 -39.28,-1.79 -20,-1.47 -40.05,-3.71 -59.73,-7.75 -4.16,-0.86 -8.3,-1.77 -12.4,-2.9 a 82.94,82.94 0 0 1 -13.46,-4.71 46.54,46.54 0 0 1 -11.78,-4.57 41.17,41.17 0 0 1 -6.52,-4.85 25.42,25.42 0 0 1 -6.91,-9.23 14.65,14.65 0 0 1 -0.26,-10.53 c 1.38,-4.37 5.06,-8.07 8.72,-10.67 a 75.37,75.37 0 0 1 10.34,-5.8 c 8.63,-4.21 18,-7 27.27,-9.27 1,-0.25 -0.7,-1.29 -0.77,-1.33 -0.73,-0.45 -2.57,-1.82 -3.51,-1.56 z"
     id="path52"
     style="opacity:0.11;fill:#ffffff" />
  <path
     class="cls-5"
     d="m 159.34001,37.08938 c -4.11001,1.13 -8.18001,2.3 -12.21001,3.68 a 71,71 0 0 0 -8.2,3.13 c -2.84999,1.41 -5.74,2.71 -8.53999,4.2 -7.13,3.8 -15,8.86 -17.26,17.09 -2,7.09 2.48,14.61 7.44,19.3 6.75,6.39 15,9.64 23.75,12.56 20.27999,6.8 41.78999,9.81 63,12.1 15.4,1.66 30.85999,2.59 46.31998,3.33 13.2,0.62 26.55001,0.48 39.76,0.14 q 22.31,-0.57 44.51,-2.76 a 435,435 0 0 0 50.4,-7.63 c 0.87,-0.19 -0.25,-1.15 -0.43,-1.3 -0.53,-0.46 -2,-1.87 -2.79,-1.7 -14,2.92 -28.25,5 -42.49,6.58 -12.36,1.34 -24.76,2.27 -37.18,2.87 -8.18,0.41 -16.38,0.58 -24.57,0.64 q -7.89,0.11 -15.78,-0.09 h -11.57 c -12,-0.87 -24,-1.59 -36,-2.52 -9.35,-0.73 -18.68,-1.89 -28,-3.23 q -8.1,-1.17 -16.14,-2.67 c -5.22999,-1 -10.55,-1.94 -15.68,-3.35 a 177.9,177.9 0 0 1 -24.46,-8.32 24,24 0 0 1 -5.19,-3 36,36 0 0 1 -7.48999,-7.05 c -2.28001,-3.17 -3.83001,-7.55 -3.06001,-11.42 1.83001,-9.19 10.89,-14.1 18.6,-17.93 9,-4.47 18.9,-7.32 28.6,-9.76 1.11001,-0.28 -1.17,-1.39 -1.09,-1.35 -0.89,-0.43 -1.8,-0.82 -2.72,-1.18 a 3.12,3.12 0 0 0 -1.52998,-0.36 z"
     id="path54"
     style="opacity:0.11;fill:#ffffff" />
  <path
     class="cls-5"
     d="m 160.47999,39.47938 c -6.81,1.88 -14,3.74 -20.37,6.83 -2.88,1.39 -5.75999,2.75 -8.56,4.27 -7.82,4.23 -16.91,10.31 -17.66,20 -0.63999,8.42 6.15001,15.48 12.41,20.06 6,4.34 13.05001,7 20,9.29 20.30001,6.8 41.84,9.82 63,12.11 15.41,1.67 30.89,2.68 46.38,3.34 a 595.85,595.85 0 0 0 84.27,-2.6 431.1,431.1 0 0 0 50.44,-7.63 c 1,-0.24 -0.78,-1.39 -0.83,-1.43 -0.77,-0.5 -1.57,-1 -2.39,-1.4 a 2.62,2.62 0 0 0 -1.37,-0.49 c -12.86,2.5 -25.84,4.51 -38.85,5.92 q -18,1.95 -36.15,2.83 c -15,0.74 -29.87,0.76 -44.84,0.68 -5.66,0 -9.11,0.37 -13.9,-0.17 -1.75,-0.19 -3.52,-0.28 -5.29,-0.41 q -9.8,-0.72 -19.61,-1.47 c -4.87,-0.38 -9.73,-0.63 -14.59,-1.16 -5.14,-0.56 -10.29,-1.16 -15.42,-1.87 -9.59,-1.33 -19.14,-2.88 -28.61,-4.88 a 194.11,194.11 0 0 1 -25.35,-7.19 c -4.07,-1.46 -8.41,-2.85 -12.16,-5.05 -5.29,-3.09 -10.77,-6.95 -13.29,-12.75 a 7.21,7.21 0 0 1 -0.76,-2.25 6.21,6.21 0 0 1 0.31,-4.82 9.64,9.64 0 0 1 2.12,-6.35 l 2.26,-2.65 c 3.09,-3.25 7,-5.58 10.86,-7.74 9.38,-5.24 19.38,-8.6 29.77,-11.37 1.01,-0.23 -1.1,-1.85 -1.82,-1.65 z"
     id="path56"
     style="opacity:0.11;fill:#ffffff" />
  <path
     class="cls-5"
     d="m 156.59001,39.29938 c -6.82,1.88 -14,3.73 -20.41001,6.83 -2.87,1.4 -5.75,2.74 -8.55,4.25 -7.22,3.88 -15,9 -17.33001,17.32 -1,3.71 -0.19,7.74 1.36001,11.17 a 30.75,30.75 0 0 0 8.47999,10.44 c 6.35,5.39 14.21001,8.39 22,11 20.35,6.88 42,9.93 63.27001,12.23 15.43999,1.68 30.99999,2.87 46.53999,3.34 a 650,650 0 0 0 84.42001,-2.59 432.57,432.57 0 0 0 50.65999,-7.72 c 1.06,-0.24 -0.05,-1.55 -0.79,-1.39 -13,2.84 -26.27,4.83 -39.52,6.4 a 612.78,612.78 0 0 1 -81.82,4 c -13.14999,-0.21 -26.26,-0.88 -39.38,-1.89 -18.99999,-1.46 -37.99999,-3.55 -56.63999,-7.36 a 226.79,226.79 0 0 1 -24.34,-6.24 113.31,113.31 0 0 1 -13.16,-5.17 32.05,32.05 0 0 1 -3.05001,-1.5 c -5.58,-3.33 -11.22,-8.61 -13.34,-14.89 a 16.09,16.09 0 0 1 -0.91,-7.66 l 2.91,-6.82 a 25.27,25.27 0 0 1 5.05001,-5.07 66.46,66.46 0 0 1 10,-6.09 c 8.52,-4.44 17.63999,-7.34 26.92,-9.81 1.2,-0.35 -1.62,-2.99 -2.36999,-2.78 z"
     id="path58"
     style="opacity:0.11;fill:#ffffff" />
  <path
     class="cls-6"
     d="m 14.4,77.32938 a 398.72,398.72 0 0 0 66.079995,28.55 q 17.07,5.65 34.599995,9.71 c 11.67,2.7 23.46001,4.84 35.31,6.6 q 8.90001,1.29 17.84,2.33 c 6,0.7 11.95,1.36 17.90001,1.92 11.92,1.17 23.84001,2.12 35.77999,3 q 9,0.65 17.94,1.07 c 6,0.36 12,0.51 18,0.75 12,0.38 24,0.54 36.1,0.71 l 0.05,0.7 a 344,344 0 0 1 -36.11001,3.55 c -3,0.15 -6.05,0.31 -9.07,0.36 -3.01999,0.05 -6.05,0.14 -9.07999,0.16 -6.06,0.05 -12.12,-0.09 -18.18,-0.24 -12.11001,-0.46 -24.2,-1.45 -36.21,-3.08 -6,-0.81 -12,-1.73 -17.95,-2.66 -5.95,-0.93 -11.94,-1.89 -17.9,-3 -11.96,-2.12 -23.80001,-4.67 -35.52001,-7.67 -11.72,-3 -23.289995,-6.69 -34.659995,-10.83 -11.37001,-4.14 -22.510005,-8.95 -33.400005,-14.17 -10.89,-5.22 -21.54,-10.92 -31.88,-17.14 z"
     id="path60"
     style="fill:#ffffff" />
  <path
     class="cls-7"
     d="m 302.33999,2.0893803 a 672.06,672.06 0 0 1 104.06,6.34 c 34.53,5.0899997 69,12.0999997 101.14,26.5199997 a 119.5,119.5 0 0 1 19.21001,10.87 c 4.76999,3.43 9.55999,7.4 13,12.16 l 0.69001,0.89 c 0.22,0.31 0.4,0.64 0.61,1 a 31.33,31.33 0 0 1 3.1,6 22.26,22.26 0 0 1 0.61,13.31 26.84,26.84 0 0 1 -3.79,7.88 c 6,-11.13 2.58,-22 -6.57,-30.09 C 494.54,21.01938 358.62,8.1793803 302.33999,2.0893803 Z"
     id="path62"
     style="fill:#d1d3d4" />
</svg>
