<?xml version="1.0" encoding="UTF-8" standalone="no"?>
<svg
   id="Layer_1"
   data-name="Layer 1"
   viewBox="0 0 146.07881 405.1446"
   version="1.1"
   sodipodi:docname="dustr.svg"
   width="146.07881"
   height="405.14462"
   inkscape:version="1.2 (1:1.2+202206011326+fc4e4096c5)"
   xmlns:inkscape="http://www.inkscape.org/namespaces/inkscape"
   xmlns:sodipodi="http://sodipodi.sourceforge.net/DTD/sodipodi-0.dtd"
   xmlns="http://www.w3.org/2000/svg"
   xmlns:svg="http://www.w3.org/2000/svg"
   xmlns:rdf="http://www.w3.org/1999/02/22-rdf-syntax-ns#"
   xmlns:cc="http://creativecommons.org/ns#"
   xmlns:dc="http://purl.org/dc/elements/1.1/">
  <sodipodi:namedview
     id="namedview117"
     pagecolor="#ffffff"
     bordercolor="#000000"
     borderopacity="0.25"
     inkscape:showpageshadow="2"
     inkscape:pageopacity="0.0"
     inkscape:pagecheckerboard="0"
     inkscape:deskcolor="#d1d1d1"
     showgrid="false"
     inkscape:zoom="0.59714111"
     inkscape:cx="22.607721"
     inkscape:cy="187.56036"
     inkscape:window-width="1280"
     inkscape:window-height="661"
     inkscape:window-x="609"
     inkscape:window-y="158"
     inkscape:window-maximized="0"
     inkscape:current-layer="Layer_1" />
  <defs
     id="defs4">
    <style
       id="style2">.cls-1,.cls-2{fill:#f3cfa0;}.cls-2{stroke:#b39471;stroke-miterlimit:10;}.cls-3{fill:#c0536b;}.cls-4{fill:#3eb5f1;}.cls-5{fill:#fff;}.cls-6{fill:#312a20;}.cls-7{fill:#94765a;}.cls-8{fill:#473421;}.cls-9{fill:#dbaa6a;}.cls-10{fill:#e59e7c;opacity:0.71;}.cls-11{fill:#d24a43;}.cls-12{fill:#efefef;}.cls-13{fill:#a14944;}</style>
  </defs>
  <title
     id="title6">EREKHA</title>
  <metadata
     id="metadata626">
    <rdf:RDF>
      <cc:Work
         rdf:about="">
        <dc:title>EREKHA</dc:title>
      </cc:Work>
    </rdf:RDF>
  </metadata>
  <path
     class="cls-2"
     d="m 107.10919,38.789744 c 1,19.940001 -14.10001,42.260001 -34,42.240001 -19.90001,-0.02 -35,-22.24 -34,-42.240001 1,-17.999999 15.20999,-37.99999543 34.68,-37.6799954 19.14999,0.35 32.45999,20.2599954 33.32,37.6799954 z"
     id="path10"
     style="fill:#f3cfa0;stroke:#b39471;stroke-miterlimit:10" />
  <path
     class="cls-6"
     d="m 66.52918,35.549744 a 15.06,15.06 0 0 0 -6.69,-0.45 46.05,46.05 0 0 0 -6.71,1.59 45.56,45.56 0 0 1 6.63,-2.08 15.68,15.68 0 0 1 7.05,0 z"
     id="path42"
     style="fill:#312a20" />
  <path
     class="cls-6"
     d="m 76.49918,33.979744 a 15.82,15.82 0 0 1 7,0 44.4,44.4 0 0 1 6.63,2.09 44.83,44.83 0 0 0 -6.70999,-1.6 15.06,15.06 0 0 0 -6.69,0.45 z"
     id="path44"
     style="fill:#312a20" />
  <path
     class="cls-7"
     d="M 73.78919,1.1097486 A 30.16,30.16 0 0 1 73.30918,14.109745 c -1.70999,6.43 -5.57,10.619999 -9.12,14.399999 -8,8.54 -12.49,7.92 -16.94,15.700001 a 20.71,20.71 0 0 0 -3.06999,10.8 17,17 0 0 0 1.77,7.58 c 2.13999,4.21 6.37999,7.73 8.63999,9.6 a 14.82,14.82 0 0 1 3.12,3.36 7.57,7.57 0 0 1 1.68,5 6.2,6.2 0 0 1 -1.35,3.13 8.89,8.89 0 0 1 -7.29,3.35 c -3.94,-0.17 -6.87,-3.16 -8.15999,-5.76 -1.71001,-3.46 -0.06,-5.35 -1,-10.08 -0.77001,-4 -2.28,-4.33 -5.28,-10.08 -2.62001,-5 -6.05999,-11.62 -5.27999,-19.2 a 85.45,85.45 0 0 1 1.92,-9.120001 70.12,70.12 0 0 1 1.91999,-7.2 41.36,41.36 0 0 1 5.75999,-10.559999 c 3.23001,-4.6 5.35001,-7.6099997 9.12,-10.0799997 3.59,-2.3499968 6.75,-2.9999967 12.07,-3.9099967 a 62.08,62.08 0 0 1 23,0.07 c 5.42,1.12 10,2.0599999 14.40001,5.7599967 a 28.74,28.74 0 0 1 6.5,8.1899997 40.52,40.52 0 0 1 5,13.889999 43.69,43.69 0 0 1 0.48,9.6 52.66,52.66 0 0 1 -3.36,17.280001 c -3.69,9.59 -7.67,10.56 -7.58,17.15 0.05,3.3 1.06999,4.78 -0.1,7.09 -1.84,3.63 -7.52,6.21 -11.28,4.19 a 7.45,7.45 0 0 1 -3.12,-3.71 7.84,7.84 0 0 1 -0.19,-4.56 c 0.72999,-3.47 2.77,-5.46 5.95,-9.12 4.37,-5 6.55,-7.53 7.2,-9.6 a 16,16 0 0 0 -1,-11 c -1.09,-2.27 -1.81,-2.26 -7.2,-8.160001 -2.3,-2.52 -3.87,-4.39 -6.24,-7.2 -4.48001,-5.32 -6.72,-8 -7.68,-9.599999 -5.29,-9.06 -2.97,-20.1999964 -2.81,-20.1999964 z"
     id="path74"
     style="fill:#94765a" />
  <ellipse
     class="cls-5"
     cx="82.399208"
     cy="42.399754"
     rx="6.3400002"
     ry="3.98"
     id="ellipse76"
     style="fill:#ffffff" />
  <ellipse
     class="cls-8"
     cx="82.569191"
     cy="41.769741"
     rx="3.5799999"
     ry="3.3"
     id="ellipse78"
     style="fill:#473421" />
  <path
     class="cls-9"
     d="m 76.13918,41.259744 c 0.19,0.190001 1.6,-1.65 4.28001,-2.08 a 9.53,9.53 0 0 1 5.81999,1.13 c 1.69,1 2.44,2.240001 2.71,2.080001 0.27,-0.16 -0.13,-1.280001 -0.86,-2.190001 a 7.29,7.29 0 0 0 -4.52,-2.3 8,8 0 0 0 -4,0.36 c -2.35,0.88 -3.62,2.82 -3.43,3 z"
     id="path80"
     style="fill:#dbaa6a" />
  <path
     class="cls-9"
     d="m 88.72919,43.629745 c -0.09,-0.08 -0.77001,0.62 -1.87,1.2 a 8.94,8.94 0 0 1 -3.14001,0.92 11.92,11.92 0 0 1 -4,-0.21 5.92,5.92 0 0 1 -1.87,-0.57 3.4,3.4 0 0 1 -1.59,-1.64 2.25,2.25 0 0 1 -0.18,-0.93 4.71,4.71 0 0 0 0.5,1.94 4.57,4.57 0 0 0 2.4,1.83 8.28,8.28 0 0 0 4.26,0.5 7.7,7.7 0 0 0 4.48,-1.77 c 0.62,-0.54 1.09,-1.2 1.01001,-1.27 z"
     id="path82"
     style="fill:#dbaa6a" />
  <ellipse
     class="cls-6"
     cx="75.239067"
     cy="53.514263"
     rx="1.71"
     ry="1.59"
     transform="rotate(-8.61)"
     id="ellipse84"
     style="fill:#312a20" />
  <ellipse
     class="cls-5"
     cx="60.069187"
     cy="42.41975"
     rx="6.8800001"
     ry="3.96"
     id="ellipse86"
     style="fill:#ffffff" />
  <ellipse
     class="cls-8"
     cx="60.689198"
     cy="41.769741"
     rx="3.4200001"
     ry="3.3099999"
     id="ellipse88"
     style="fill:#473421" />
  <path
     class="cls-9"
     d="m 66.88918,41.409745 c -0.21,0.2 -1.75,-1.750001 -4.65999,-2.210001 a 10.57,10.57 0 0 0 -6.34001,1.2 c -1.84,1.000001 -2.65,2.380001 -2.95,2.210001 -0.3,-0.17 0.14,-1.360001 0.93,-2.330001 a 8,8 0 0 1 4.93,-2.44 8.84,8.84 0 0 1 4.37,0.38 c 2.53,0.94 3.92,3 3.72,3.190001 z"
     id="path90"
     style="fill:#dbaa6a" />
  <path
     class="cls-9"
     d="m 52.90918,43.639745 c 0.1,-0.08 0.86,0.62 2.08,1.2 a 10.59,10.59 0 0 0 3.5,0.91 14.74,14.74 0 0 0 4.41,-0.21 6.59,6.59 0 0 0 2.08001,-0.56 3.59,3.59 0 0 0 1.77999,-1.63 2.1,2.1 0 0 0 0.2,-0.93 4.22,4.22 0 0 1 -0.56,1.93 5.2,5.2 0 0 1 -2.66,1.83 10.35,10.35 0 0 1 -4.75,0.49 9.25,9.25 0 0 1 -5,-1.76 c -0.65,-0.53 -1.17,-1.19 -1.08,-1.27 z"
     id="path92"
     style="fill:#dbaa6a" />
  <circle
     class="cls-6"
     cx="60.679188"
     cy="41.65974"
     r="1.48"
     id="circle94"
     style="fill:#312a20" />
  <path
     class="cls-6"
     d="m 68.85919,49.189745 a 22.74,22.74 0 0 0 -1.33001,5 1.87,1.87 0 0 0 0.09,1.18 4.83,4.83 0 0 0 0.75,1 12.3,12.3 0 0 0 1.95,1.79 12.81,12.81 0 0 1 -2.13,-1.61 5,5 0 0 1 -0.89999,-1 2.32,2.32 0 0 1 -0.26001,-1.4 23.58,23.58 0 0 1 0.89001,-5.32 z"
     id="path96"
     style="fill:#312a20" />
  <path
     class="cls-6"
     d="m 66.95918,64.699745 a 8.05,8.05 0 0 0 9.36,-0.1 5.63,5.63 0 0 1 -9.36,0.1 z"
     id="path98"
     style="fill:#312a20" />
  <circle
     class="cls-10"
     cx="55.069187"
     cy="55.399746"
     r="6.3699999"
     id="circle100"
     style="opacity:0.71;fill:#e59e7c" />
  <circle
     class="cls-10"
     cx="88.259193"
     cy="55.399746"
     r="6.3699999"
     id="circle102"
     style="opacity:0.71;fill:#e59e7c" />
  <path
     class="cls-11"
     d="m 50.28918,68.289745 c 0.65,-1.48 -1.92999,-4.65 -3.52,-4.31 -1.90999,0.41 -1.57,5.73 -3.45999,6 -1.54001,0.23 -3,-3.11 -6,-2.88 v 0 c 0,-0.3 0,-0.44 -0.06,-0.45 -0.06,-0.01 -1.49001,7.77 0.06,8.37 1.07999,0.42 2.06,-3.28 6,-5 3.58999,-1.64 6.37999,-0.37 6.97999,-1.73 z"
     id="path104"
     style="fill:#d24a43" />
  <path
     class="cls-11"
     d="m 90.28919,68.289745 c -0.65001,-1.48 1.93,-4.65 3.50999,-4.31 1.91,0.41 1.58,5.73 3.47,6 1.53,0.22 3,-3.11 6,-2.88 v 0 c 0,-0.3 0,-0.44 0.06,-0.45 a 12.29,12.29 0 0 1 0.53001,3 c 0.13999,1.54 0.44999,5 -0.59001,5.4 -1.03999,0.4 -2.12999,-3.31 -6,-5 -3.59,-1.67 -6.37999,-0.4 -6.97999,-1.76 z"
     id="path106"
     style="fill:#d24a43" />
  <path
     class="cls-1"
     d="m 58.47588,79.092076 c -1.48,2.06 -1.43,5.53 -1.27999,12.4 0.21999,9.950004 0.32999,14.930004 2.83999,17.820004 5,5.73 16.47001,6.69 22.29,1.54 4.09,-3.63 4,-9.54 3.87001,-21.360004 -0.06,-5.15 -0.12001,-7.76 -1.51001,-9.8 -4.97,-7.31 -21.21,-7.58 -26.21,-0.6 z"
     id="path515"
     style="fill:#f3cfa0" />
  <path
     class="cls-2"
     d="m 107.10919,38.789744 c 1,19.940001 -14.10001,42.260001 -34,42.240001 -19.90001,-0.02 -35,-22.24 -34,-42.240001 1,-17.999999 15.20999,-37.99999543 34.68,-37.6799954 19.14999,0.35 32.45999,20.2599954 33.32,37.6799954 z"
     id="path517"
     style="fill:#f3cfa0;stroke:#b39471;stroke-miterlimit:10" />
  <path
     class="cls-1"
     d="m 49.7684,265.5522 c -2.10999,1.08 -3.14,3.34 -4.79999,13.44 -1.39,8.45 -2.08,12.67 -2.16,16.83 -0.21,11.21 2,20.42 6.47999,38.85 1.45,6 2.07,12.19 3.36001,18.24 1,4.58 1.79999,8 0.48,12 -0.37001,1.13 -0.94,2.43 -5.28,8.16 -4,5.27 -6,7.91 -7.68,9.6 -7.1,7.1 -12.22,7 -12.48,10.56 -0.23,3.25 3.73999,6.58 7.26,7.68 5.3,1.66 10.43,-1.42 13.99999,-3.6 7.06,-4.25 6.49001,-7.59 13,-10.08 3.37,-1.3 5.35,-1.09 7.20001,-3.24 2.2,-2.55 2.14999,-6 2.07,-8.52 -0.15001,-4.81 -1.71001,-6.88 -3.21001,-12 -0.81999,-2.79 -1.37,-6 -1.91999,-12.46 -1.05001,-12.13 -1.57,-18.19 -1.44,-20.18 0.21999,-3.53 1.58999,-9.87 4.32,-22.56 1.25999,-5.87 1.87,-8.27 1.65999,-12.17 -0.25,-4.8 -1.55,-8.66 -3.09999,-13.27 a 77.85,77.85 0 0 0 -4.32001,-10.08 c -1.65,-3.42 -2.2,-4.15 -2.88,-4.8 -2.64,-2.52 -7.37,-4 -10.56,-2.4 z"
     id="path519"
     style="fill:#f3cfa0" />
  <path
     class="cls-1"
     d="m 100.69997,268.67135 c 2.10999,1.08 3.13999,3.34 4.79999,13.44 1.38,8.45 2.08001,12.67 2.16,16.83 0.21,11.21 -2,20.42 -6.48,38.85 -1.46,6 -2.07,12.19 -3.36,18.24 -1,4.58 -1.8,8 -0.48,12 0.37,1.13 0.94,2.43 5.28,8.16 3.71,4.9 5.49,7.41 7.68,9.6 5.17,5.18 7.75,5.45 8.61,8.88 0.61,2.44 0.14,5.69 -1.8,7.56 -3.73,3.59 -12.34,1.59 -17.56,-2.43 -5.21999,-4.02 -4.76,-8.47 -10.52,-10.89 -3,-1.27 -4.49,-0.62 -7.19999,-2.52 -0.66001,-0.46 -4.74001,-3.42 -5.13,-7.8 -0.39001,-4.38 3.27999,-5.76 5.75999,-12 0.90001,-2.28 1.19,-3.93 1.92001,-12.46 1,-12.13 1.56,-18.19 1.44,-20.18 -0.22001,-3.53 -1.59001,-9.87 -4.32,-22.56 -1.27,-5.87 -1.87,-8.27 -1.66001,-12.17 0.25,-4.8 1.55001,-8.66 3.10001,-13.27 a 77.85,77.85 0 0 1 4.32,-10.08 c 1.64999,-3.42 2.19,-4.15 2.88,-4.8 2.63999,-2.52 7.37,-4 10.56,-2.4 z"
     id="path521"
     style="fill:#f3cfa0" />
  <path
     class="cls-3"
     d="m 61.17054,106.40334 c -7.63001,-3.66 -7.10001,-8.170002 -14.12001,-10.640002 -7.99999,-2.780005 -15.53999,0.42 -16.33999,0.77 -5.55999,2.45 -9.27999,8.880002 -16.5,21.630002 -6.1599997,10.89 -6.1799997,13.1 -5.7599997,14.88 1.7599997,7.45 12.5600097,13 19.0600097,10.37 5.99999,-2.4 6.43999,-11.3 8.65999,-11 2.21999,0.3 1.17999,9.45 4,23.2 2.64,13.05 5.94999,16.35 4.79999,25.44 -0.42,3.34 -1.08,4.55 -3.84,12.48 -4.38,12.57 -3.84,12.73 -7.92,24.88 -9.30999,27.72 -15.73999,37.2 -16.99999,57.92 v 0 c 0,0 30.21999,14.29 59.75999,13 28,-1.26 55.43,-16.56 55.44,-16.56 v -0.07 c -1.82,-24.26 -10.72,-36.33 -23.15,-67.25 -8.64,-21.5 -9.21,-27.78 -9,-33 0.19,-4.74 0.8,-2.88 3.84,-22.56 1.57,-10.19 2.15,-15.5 5.16,-16.44 3.81,-1.2 6.86,6.19 12.6,5.4 4.28,-0.59 8,-5.19 8.64,-9.6 0.45,-3.33 -1.06,-5.36 -7.68,-14.88 -9.86,-14.17 -10.54,-15.480002 -13.5,-16.760002 a 20,20 0 0 0 -17.06,0.85 c -5.21,2.890002 -4.11,6.200002 -9,9.000002 -8.57,4.77 -19.9,-0.49 -21.08999,-1.06 z"
     id="path523"
     style="fill:#c0536b" />
  <rect
     class="cls-4"
     x="43.694378"
     y="144.34074"
     width="30.375612"
     height="48.58025"
     transform="matrix(0.99935212,0.03599078,0.11079046,0.99384379,0,0)"
     id="rect525"
     style="fill:#3eb5f1;stroke-width:1.04623" />
  <path
     class="cls-1"
     d="m 133.74872,137.49896 c 5.58999,3.09 7.31,9.22 9.32999,16.84 2.66001,10.06 4.12,15.54 1.95,21.56 -4.43,12.3 -20.89,18.3 -31,19.72 -9.71999,1.35 -15,0.54 -22.57,3.05 -7.57,2.51 -8.21999,5.6 -16.43,6.83 -1.21999,0.18 -7.77999,-0.19 -9.45999,-3.84 -1.53,-3.34 -0.76,-9.78 2.36,-11.74 3.12,-1.96 7.45999,1.39 8,2.2 0,0 0,0.05 0,0.1 0.17,0.27 1.37,0 1.39999,-0.25 0.08,-0.61 -7,-1.05 -7.20999,-2.66 -0.16,-1.38 4.81,-3.53 9.85,-4.3 7.4,-1.13 9.06,1.59 15.64,1.54 7,0 6.24,-3.12 23.65999,-9.83 6,-2.32 9.33001,-3.19 10.62,-6.35 1.12001,-2.74 0,-5.32 -2,-10.24 -5.56,-13.7 -8.29999,-20.6 -6.44999,-23 2.04,-2.63 8.3,-1.88 12.31,0.37 z"
     id="path527"
     style="fill:#f3cfa0" />
  <path
     class="cls-1"
     d="m 11.33389,134.00871 c -2.8799997,2.52 -2.9099997,5.4 -5.2799997,14.4 -3.12,11.85 -4.19,11.11 -5.28,16.8 -2.52,13.13 1.61,25.25 5.28,36 3.57,10.46 5.9999997,12.6 5.2799997,18.72 -0.8,6.59 -4.3199997,9.7 -2.8799997,15.84 a 15,15 0 0 0 6.7199997,8.64 c 0.67,0.38 5.28001,3 7.25001,1.29 3.12,-2.62 -2.42,-14.08 -2,-14.25 0.42,-0.17 3,7.78 4.36,7.52 1.08,-0.21 1.37999,-5.69 0.2,-10.88 -1.28,-5.62 -3.56,-8.24 -5.76,-12 -3.58001,-6.11 -3.59001,-16.23 -3.60001,-36.48 a 41.15,41.15 0 0 1 1,-9.6 42,42 0 0 1 4.32,-11 c 5.54,-10.61 10.90999,-20.91 7.68001,-25.44 -2.83001,-3.99 -12.39001,-3.85 -17.29001,0.44 z"
     id="path529"
     style="fill:#f3cfa0" />
  <path
     class="cls-5"
     d="m 54.11841,90.691835 c -3,-1.83 -9.09,0.48 -11.38999,4.540003 -3.36001,5.920002 2,14.290002 6.62999,18.240002 1.8,1.55 5.88,5 11.24,4.22 a 12.56,12.56 0 0 0 7.92,-5 c 1,-1.45 3.13,-4.41 2.16,-6.84 -1.53,-3.86 -8.78,-1.43 -12.83,-6.320002 -2.95,-3.56 -1.03,-7.170003 -3.73,-8.840003 z"
     id="path531"
     style="fill:#ffffff" />
  <path
     class="cls-5"
     d="m 87.82463,89.669564 c 3,-1.83 9.09,0.48 11.4,4.540004 3.35,5.920002 -2,14.290002 -6.63999,18.240002 -1.80001,1.55 -5.88,5 -11.24,4.22 a 12.56,12.56 0 0 1 -7.92001,-5 c -1,-1.45 -3.13,-4.41 -2.15999,-6.84 1.52999,-3.86 8.77999,-1.43 12.83,-6.320002 2.94999,-3.56 1.01999,-7.170004 3.72999,-8.840004 z"
     id="path533"
     style="fill:#ffffff" />
  <path
     class="cls-6"
     d="m 66.52918,35.549744 a 15.06,15.06 0 0 0 -6.69,-0.45 46.05,46.05 0 0 0 -6.71,1.59 45.56,45.56 0 0 1 6.63,-2.08 15.68,15.68 0 0 1 7.05,0 z"
     id="path549"
     style="fill:#312a20" />
  <path
     class="cls-6"
     d="m 76.49918,33.979744 a 15.82,15.82 0 0 1 7,0 44.4,44.4 0 0 1 6.63,2.09 44.83,44.83 0 0 0 -6.70999,-1.6 15.06,15.06 0 0 0 -6.69,0.45 z"
     id="path551"
     style="fill:#312a20" />
  <path
     class="cls-5"
     d="m 132.4342,122.55227 c 0,0 8.6,7.29 7.61,11 -0.18,0.68 -0.45,0.4 -4.27999,3.43 a 34.39,34.39 0 0 0 -3.41001,3 c -1.52,1.57 -1.44,1.89 -2.46999,2.92 -2.17001,2.18 -3.14001,1.36 -5.92001,3.4 -2.78,2.04 -3.26999,3.92 -4.74,3.61 -0.70999,-0.14 -1.2,-0.7 -2.54,-2.74 -2.46,-3.74 -3.68,-5.61 -3.93,-6.63 -1.4,-5.66 5.39,-12.55 11.17,-15.56 a 22.09,22.09 0 0 1 8.51,-2.43 z"
     id="path579"
     style="fill:#ffffff" />
  <path
     class="cls-7"
     d="M 73.78919,1.1097486 A 30.16,30.16 0 0 1 73.30918,14.109745 c -1.70999,6.43 -5.57,10.619999 -9.12,14.399999 -8,8.54 -12.49,7.92 -16.94,15.700001 a 20.71,20.71 0 0 0 -3.06999,10.8 17,17 0 0 0 1.77,7.58 c 2.13999,4.21 6.37999,7.73 8.63999,9.6 a 14.82,14.82 0 0 1 3.12,3.36 7.57,7.57 0 0 1 1.68,5 6.2,6.2 0 0 1 -1.35,3.13 8.89,8.89 0 0 1 -7.29,3.35 c -3.94,-0.17 -6.87,-3.16 -8.15999,-5.76 -1.71001,-3.46 -0.06,-5.35 -1,-10.08 -0.77001,-4 -2.28,-4.33 -5.28,-10.08 -2.62001,-5 -6.05999,-11.62 -5.27999,-19.2 a 85.45,85.45 0 0 1 1.92,-9.120001 70.12,70.12 0 0 1 1.91999,-7.2 41.36,41.36 0 0 1 5.75999,-10.559999 c 3.23001,-4.6 5.35001,-7.6099997 9.12,-10.0799997 3.59,-2.3499968 6.75,-2.9999967 12.07,-3.9099967 a 62.08,62.08 0 0 1 23,0.07 c 5.42,1.12 10,2.0599999 14.40001,5.7599967 a 28.74,28.74 0 0 1 6.5,8.1899997 40.52,40.52 0 0 1 5,13.889999 43.69,43.69 0 0 1 0.48,9.6 52.66,52.66 0 0 1 -3.36,17.280001 c -3.69,9.59 -7.67,10.56 -7.58,17.15 0.05,3.3 1.06999,4.78 -0.1,7.09 -1.84,3.63 -7.52,6.21 -11.28,4.19 a 7.45,7.45 0 0 1 -3.12,-3.71 7.84,7.84 0 0 1 -0.19,-4.56 c 0.72999,-3.47 2.77,-5.46 5.95,-9.12 4.37,-5 6.55,-7.53 7.2,-9.6 a 16,16 0 0 0 -1,-11 c -1.09,-2.27 -1.81,-2.26 -7.2,-8.160001 -2.3,-2.52 -3.87,-4.39 -6.24,-7.2 -4.48001,-5.32 -6.72,-8 -7.68,-9.599999 -5.29,-9.06 -2.97,-20.1999964 -2.81,-20.1999964 z"
     id="path581"
     style="fill:#94765a" />
  <path
     id="path577"
     style="fill:#ffffff"
     class="cls-5"
     d="m 14.01448,128.03546 a 22.52,22.52 0 0 0 -4.4121097,0.40039 c 0,0 -6.32085,9.00063 -4.38086,12.14063 0.35,0.58 0.54002,0.26011 4.9999997,2.08007 a 35.21,35.21 0 0 1 4.11133,1.90821 c 1.87999,1.07 1.88821,1.39008 3.1582,2.08008 2.66999,1.45996 3.37181,0.45109 6.5918,1.62109 3.21998,1.17 4.18954,2.78891 5.51953,2.12891 0.64,-0.32 0.99899,-0.99922 1.70899,-3.19922 1.35999,-4.09 2,-6.14063 2,-7.14063 -0.16,-5.60996 -8.5387,-10.23883 -14.88868,-11.54883 a 22.52,22.52 0 0 0 -4.4082,-0.4707 z" />
  <ellipse
     class="cls-5"
     cx="82.399208"
     cy="42.399754"
     rx="6.3400002"
     ry="3.98"
     id="ellipse583"
     style="fill:#ffffff" />
  <ellipse
     class="cls-8"
     cx="82.569191"
     cy="41.769741"
     rx="3.5799999"
     ry="3.3"
     id="ellipse585"
     style="fill:#473421" />
  <path
     class="cls-9"
     d="m 76.13918,41.259744 c 0.19,0.190001 1.6,-1.65 4.28001,-2.08 a 9.53,9.53 0 0 1 5.81999,1.13 c 1.69,1 2.44,2.240001 2.71,2.080001 0.27,-0.16 -0.13,-1.280001 -0.86,-2.190001 a 7.29,7.29 0 0 0 -4.52,-2.3 8,8 0 0 0 -4,0.36 c -2.35,0.88 -3.62,2.82 -3.43,3 z"
     id="path587"
     style="fill:#dbaa6a" />
  <path
     class="cls-9"
     d="m 88.72919,43.629745 c -0.09,-0.08 -0.77001,0.62 -1.87,1.2 a 8.94,8.94 0 0 1 -3.14001,0.92 11.92,11.92 0 0 1 -4,-0.21 5.92,5.92 0 0 1 -1.87,-0.57 3.4,3.4 0 0 1 -1.59,-1.64 2.25,2.25 0 0 1 -0.18,-0.93 4.71,4.71 0 0 0 0.5,1.94 4.57,4.57 0 0 0 2.4,1.83 8.28,8.28 0 0 0 4.26,0.5 7.7,7.7 0 0 0 4.48,-1.77 c 0.62,-0.54 1.09,-1.2 1.01001,-1.27 z"
     id="path589"
     style="fill:#dbaa6a" />
  <ellipse
     class="cls-6"
     cx="75.239067"
     cy="53.514263"
     rx="1.71"
     ry="1.59"
     transform="rotate(-8.61)"
     id="ellipse591"
     style="fill:#312a20" />
  <ellipse
     class="cls-5"
     cx="60.069187"
     cy="42.41975"
     rx="6.8800001"
     ry="3.96"
     id="ellipse593"
     style="fill:#ffffff" />
  <ellipse
     class="cls-8"
     cx="60.689198"
     cy="41.769741"
     rx="3.4200001"
     ry="3.3099999"
     id="ellipse595"
     style="fill:#473421" />
  <path
     class="cls-9"
     d="m 66.88918,41.409745 c -0.21,0.2 -1.75,-1.750001 -4.65999,-2.210001 a 10.57,10.57 0 0 0 -6.34001,1.2 c -1.84,1.000001 -2.65,2.380001 -2.95,2.210001 -0.3,-0.17 0.14,-1.360001 0.93,-2.330001 a 8,8 0 0 1 4.93,-2.44 8.84,8.84 0 0 1 4.37,0.38 c 2.53,0.94 3.92,3 3.72,3.190001 z"
     id="path597"
     style="fill:#dbaa6a" />
  <path
     class="cls-9"
     d="m 52.90918,43.639745 c 0.1,-0.08 0.86,0.62 2.08,1.2 a 10.59,10.59 0 0 0 3.5,0.91 14.74,14.74 0 0 0 4.41,-0.21 6.59,6.59 0 0 0 2.08001,-0.56 3.59,3.59 0 0 0 1.77999,-1.63 2.1,2.1 0 0 0 0.2,-0.93 4.22,4.22 0 0 1 -0.56,1.93 5.2,5.2 0 0 1 -2.66,1.83 10.35,10.35 0 0 1 -4.75,0.49 9.25,9.25 0 0 1 -5,-1.76 c -0.65,-0.53 -1.17,-1.19 -1.08,-1.27 z"
     id="path599"
     style="fill:#dbaa6a" />
  <circle
     class="cls-6"
     cx="60.679188"
     cy="41.65974"
     r="1.48"
     id="circle601"
     style="fill:#312a20" />
  <path
     class="cls-6"
     d="m 68.85919,49.189745 a 22.74,22.74 0 0 0 -1.33001,5 1.87,1.87 0 0 0 0.09,1.18 4.83,4.83 0 0 0 0.75,1 12.3,12.3 0 0 0 1.95,1.79 12.81,12.81 0 0 1 -2.13,-1.61 5,5 0 0 1 -0.89999,-1 2.32,2.32 0 0 1 -0.26001,-1.4 23.58,23.58 0 0 1 0.89001,-5.32 z"
     id="path603"
     style="fill:#312a20" />
  <path
     class="cls-6"
     d="m 66.95918,64.699745 a 8.05,8.05 0 0 0 9.36,-0.1 5.63,5.63 0 0 1 -9.36,0.1 z"
     id="path605"
     style="fill:#312a20" />
  <circle
     class="cls-10"
     cx="55.069187"
     cy="55.399746"
     r="6.3699999"
     id="circle607"
     style="opacity:0.71;fill:#e59e7c" />
  <circle
     class="cls-10"
     cx="88.259193"
     cy="55.399746"
     r="6.3699999"
     id="circle609"
     style="opacity:0.71;fill:#e59e7c" />
  <path
     class="cls-11"
     d="m 50.28918,68.289745 c 0.65,-1.48 -1.92999,-4.65 -3.52,-4.31 -1.90999,0.41 -1.57,5.73 -3.45999,6 -1.54001,0.23 -3,-3.11 -6,-2.88 v 0 c 0,-0.3 0,-0.44 -0.06,-0.45 -0.06,-0.01 -1.49001,7.77 0.06,8.37 1.07999,0.42 2.06,-3.28 6,-5 3.58999,-1.64 6.37999,-0.37 6.97999,-1.73 z"
     id="path611"
     style="fill:#d24a43" />
  <path
     class="cls-11"
     d="m 90.28919,68.289745 c -0.65001,-1.48 1.93,-4.65 3.50999,-4.31 1.91,0.41 1.58,5.73 3.47,6 1.53,0.22 3,-3.11 6,-2.88 v 0 c 0,-0.3 0,-0.44 0.06,-0.45 a 12.29,12.29 0 0 1 0.53001,3 c 0.13999,1.54 0.44999,5 -0.59001,5.4 -1.03999,0.4 -2.12999,-3.31 -6,-5 -3.59,-1.67 -6.37999,-0.4 -6.97999,-1.76 z"
     id="path613"
     style="fill:#d24a43" />
  <path
     class="cls-12"
     d="m 53.06656,353.51786 c 1.65,-0.81 2.56,0.73 6.48,0.72 4.28,0 5.31001,-1.86 7.2,-1.08 3.38,1.4 3.36001,8.68 3.36001,11.79 0,5.36 0,9.22 -2.64001,12 -5.72,6 -20,2.61 -21.6,-2.52 -0.73,-2.32 1.85,-3.33 4,-10.08 1.87,-6.12 0.87,-9.68 3.2,-10.83 z"
     id="path615"
     style="fill:#efefef" />
  <path
     class="cls-12"
     d="m 98.28644,348.4984 c -1.8,-0.68 -3.31,2.95 -6.84,2.88 -3.53,-0.07 -4.89,-3.82 -6.84,-3.24 -2.39,0.71 -2.51,6.94 -2.57999,10.89 -0.13,6.93 -0.20001,10.4 1.85999,12.87 4.71,5.65 16.85,4.69 19.16,0.31 1.23001,-2.33 -1.26,-3.82 -2.66,-11.38 -1.32,-7.15 -0.17,-11.6 -2.1,-12.33 z"
     id="path617"
     style="fill:#efefef" />
  <path
     class="cls-13"
     d="m 29.69522,388.47729 c 1.07869,-1.6047 2.17702,-1.1546 5.66811,-3.32681 a 25.957647,25.900177 0 0 0 7.07044,-6.27201 c 3.24592,-4.33464 3.19689,-7.82779 5.30527,-8.13111 1.2062,-0.14677 1.80439,0.97847 3.92258,2.22113 1.56903,0.97848 4.60904,2.66145 7.42347,2.21135 2.1182,-0.33268 2.45162,-1.62426 8.82581,-7.01565 2.81445,-2.3679 3.68722,-2.93541 4.24618,-2.58316 0.87277,0.5088 0.1569,2.71037 -0.35303,7.38746 -0.80413,7.35812 0.28439,8.19961 -1.05909,10.34246 -0.98064,1.56556 -3.3342,2.66145 -8.00205,4.89236 -3.344,1.56556 -4.7267,1.81997 -7.20773,3.63993 -0.81395,0.59686 -0.87279,0.71428 -3.54014,2.93542 -1.3827,1.15459 -4.02063,3.36594 -4.90322,4.06065 -3.65779,2.72995 -11.42449,4.77496 -15.5628,0.73386 -2.92232,-2.80821 -3.75587,-8.21917 -1.8338,-11.09588 z"
     id="path619"
     style="fill:#a14944;stroke-width:0.979554" />
  <path
     class="cls-13"
     d="m 121.98082,390.41808 c -1.13,-1.78 -2.29,-1.28 -6,-3.68 a 27.78,27.78 0 0 1 -7.44,-6.94 c -3.41999,-4.79 -3.37,-8.7 -5.59,-9 -1.26999,-0.17 -1.9,1 -4.1,2.45 -1.65,1.06 -4.85,2.94 -7.82,2.45 a 5,5 0 0 1 -1,-0.27 c -5.28,-1.8 -8.34999,-7.49 -8.34999,-7.49 v 0 c 0,0 -3.86001,2.37 -4.10001,5.31 a 23.74,23.74 0 0 0 0.25,3.29 c 0,0.43 0.06,0.94 0.08,1.58 0.1,3.82 -0.28,4.79 0.79,6.57 1.07,1.78 3.5,2.95 8.42001,5.37 3.51999,1.73 5,2 7.59,4 0.85999,0.66 0.91999,0.8 3.72,3.27 1.45999,1.28 4.23,3.73 5.22,4.49 3.84999,3 12,5.29 16.37999,0.82 3.11,-3.06 3.98,-8.99 1.95,-12.22 z"
     id="path621"
     style="fill:#a14944" />
</svg>
