<?xml version="1.0" encoding="UTF-8" standalone="no"?>
<svg
   id="Layer_1"
   data-name="Layer 1"
   viewBox="0 0 276.11752 413.85374"
   version="1.1"
   sodipodi:docname="karkandak_2.svg"
   width="276.11752"
   height="413.85376"
   inkscape:version="1.2.2 (b0a8486541, 2022-12-01)"
   xmlns:inkscape="http://www.inkscape.org/namespaces/inkscape"
   xmlns:sodipodi="http://sodipodi.sourceforge.net/DTD/sodipodi-0.dtd"
   xmlns="http://www.w3.org/2000/svg"
   xmlns:svg="http://www.w3.org/2000/svg">
  <sodipodi:namedview
     id="namedview517"
     pagecolor="#ffffff"
     bordercolor="#000000"
     borderopacity="0.25"
     inkscape:showpageshadow="2"
     inkscape:pageopacity="0.0"
     inkscape:pagecheckerboard="0"
     inkscape:deskcolor="#d1d1d1"
     showgrid="false"
     inkscape:zoom="1.4094207"
     inkscape:cx="203.98452"
     inkscape:cy="244.78142"
     inkscape:window-width="1920"
     inkscape:window-height="1011"
     inkscape:window-x="0"
     inkscape:window-y="32"
     inkscape:window-maximized="1"
     inkscape:current-layer="Layer_1" />
  <defs
     id="defs4">
    <style
       id="style2">.cls-1{fill:#ffc85a;}.cls-2{fill:#ffe38a;}.cls-3,.cls-7,.cls-9{fill:none;stroke-miterlimit:10;}.cls-3{stroke:#fcc732;}.cls-4{fill:#edab35;}.cls-5{fill:#f9a949;}.cls-6{fill:#f49c45;}.cls-7{stroke:#8b5e3c;}.cls-8{fill:#fffaca;opacity:0.83;}.cls-9{stroke:#dd7b10;}</style>
  </defs>
  <path
     class="cls-1"
     d="m 6.42,413.85377 a 21,21 0 0 1 -4,-6.58 28.72,28.72 0 0 1 -1.67,-7.33 62.64,62.64 0 0 1 -0.27,-7.79 c 0.19,-3 0.27,-6 0.28,-8.94 6.5,-29.59 11.54,-60.5 -0.76,-89.36 a 79.2,79.2 0 0 1 0.56,-8.07 c 2.12,-18.58 7.44,-36.19 12.44,-53.51 0.95,-2.88 1.91,-5.71 2.89,-8.54 0.98,-2.83 1.94,-5.65 2.92,-8.47 1.05,-3.4 2.06,-6.74 3.17,-10 a 133.13,133.13 0 0 1 25.44,-44.93 c 1.83,-2.79 3.6,-5.61 5.35,-8.45 12.200002,-19.88 23.210002,-40.88 38.700002,-58.690003 2,-3.06 3.89,-6 6,-8.84 a 79.25,79.25 0 0 1 22.999998,-21.69 q 3.22,-2.29 6.39,-4.6 c 8.44,-6.15 16.58,-12.429997 24.91,-19.119997 2.08,-1.68 4.18,-3.37 6.29,-5.1 1.58,-3.65 4.56,-4 7.4,-5.42 3,-0.49 5.91,-1 8.85,-1.55 2.94,-0.55 5.85,-1.13 8.75,-1.75 23.66,-5.11 48.58,-7.36 68.71,-23.0999998 a 11.14,11.14 0 0 1 7.13,-2 13.06,13.06 0 0 1 6.62,2.51 c 1.64,1.48 4.88,3.07 4.14,5.18 a 138.49,138.49 0 0 0 0.62,26.1399998 c 0.31,2.79 0.69,5.55 1.1,8.3 1.14,10.569997 3.42,20.359997 2.86,31.529997 -0.9,16.25 -8.14,30.300003 -8.34,46.730003 -0.4,3.32 -0.74,6.64 -1.06,10 -0.32,3.36 -0.65,6.66 -1,10 -1.14,14.5 -5.66,26.18 -11.05,39 -3.06,7.46 0,15.13 -2.79,22.14 -0.76,3.33 -1.19,6.51 -1.83,9.68 a 38.2,38.2 0 0 1 -3.09,9.53 c -2.39,4.85 -5,9.47 -7.67,14 -1.33,2.28 -2.68,4.54 -4,6.8 -6,8.61 -11.92,17.31 -17.51,26.18 q -2.81,4.44 -5.5,8.93 c -7.4,11.06 -13.93,22.56 -20.51,33.91 q -2.46,4.26 -5,8.48 c -1.3,2 -2.64,4 -4,6 -1.36,2 -2.86,3.82 -4.38,5.66 -5.78,7.67 -14.19,12.8 -21.73,16.81 -20.52,12.77 -41.56,21.57 -60.999998,35.19 a 45.18,45.18 0 0 1 -6.22,3.74 65.83,65.83 0 0 1 -6.58,2.83 c -20.640002,7.24 -47.940002,2.11 -65.520002,16.3 a 37.15,37.15 0 0 0 -6.92,7.26 3.32,3.32 0 0 1 -2.12,1 z"
     id="path6"
     style="fill:#ffc85a" />
  <path
     class="cls-2"
     d="m 194.08,40.85377 c -7.48,-5.14 -16.53,-5 -25.23,-3.94 a 31.36,31.36 0 0 0 -7.13,3 c -9.12,5.14 -17.07,14.249997 -24.56,23.479997 -2.15,2.64 -4.25,5.29 -6.35,7.87 -5.45,4.74 -10.81,9.47 -16,14.27 q -3.92,3.59 -7.74,7.25 c -21.409998,14.710003 -37.899998,33.830003 -50,56.000003 q -2.28,4.16 -4.35,8.45 c -6.84,14.95 -13.57,29.91 -19.16,45.06 -1.12,3 -2.19,6.07 -3.31,9.13 q -2.34,4.24 -4.34,8.56 -2,4.32 -3.71,8.72 c -5.86,16.83 -11.59,34.73 -11.2,52.84 0.18,2.66 0.36,5.33 0.52,8 0.16,2.67 0.31,5.33 0.45,8 5.72,27.51 2.4,56.19 -0.05,83.74 a 18.43,18.43 0 0 0 7.08,3.37 c 12.38,2.9 27.07,-6.9 38,-13.62 a 58.73,58.73 0 0 0 6.340002,-7.16 c 1.41,-1.62 2.74,-3.3 4,-5 a 67,67 0 0 0 9,-17 c 1.2,-3.09 2.17,-6.08 3,-8.86 1.62,-5.56 2.56,-10.3 3.18,-13.44 3.52,-17.81 1.25,-27.5 9.95,-39.62 5.29,-7.38 10.799998,-10.29 16.289998,-14.23 23.24,-16.66 33.48,-42.4 38.24,-54.4 12.85,-32.37 -0.93,-40.77 13.48,-74.37 a 164.69,164.69 0 0 1 14.68,-26.45 c 2.32,-3.45 4.39,-6.33 6,-8.52 9.05,-11.770003 24.65,-25.530003 24.29,-40.340003 a 20.84,20.84 0 0 0 -1.6,-7.49 27.36,27.36 0 0 0 -4.75,-7.52 28.49,28.49 0 0 0 -5.02,-5.779997 z"
     id="path8"
     style="fill:#ffe38a" />
  <path
     class="cls-3"
     d="m 257,30.09377 a 134.58,134.58 0 0 0 8.76,30.549997 c 2.32,5.47 4.51,9.53 4.58,15.53 0.1,8.57 -4.2,15.67 -8,20.47 0.07,3 0.08,5.900003 0,8.840003 q -0.13,10.29 -1.15,20.54 c -0.33,3.41 -0.75,6.82 -1.24,10.23 -2.27,17.26 -7.27,33 -11.78,48.76 q -1,4.13 -1.85,8.28 c -0.59,2.77 -1.16,5.56 -1.87,8.45 -1.88,7.77 -5.44,14.92 -9.39,22 -1.31,2.35 -2.67,4.69 -4,7 -7.59,12.25 -14.95,24.52 -23.53,36.24 -1.72,2.34 -3.48,4.66 -5.32,7 -5.58,6.54 -13,11.54 -16.06,19 q -2.15,5.19 -4.44,10.22 c -1.54,3.35 -3.13,6.63 -4.82,9.88 a 33.51,33.51 0 0 1 -2.89,6.06 c -4.65,7.3 -11.94,13.29 -20.48,17.43 -23.62,12.16 -45,26.05 -67.499998,39.07 a 45.25,45.25 0 0 1 -7.22,3.92 C 56.57,389.56377 21.65,376.99377 9.28,405.83377 l -3.91,-1.9"
     id="path10"
     style="fill:none;stroke:#fcc732;stroke-miterlimit:10" />
  <path
     class="cls-4"
     d="m 259.88,7.9837702 c 1.17,-0.8 2.32,-1.62 3.46,-2.45 -0.93,0.12 -1.84,0.18 -2.75,0.23 a 3.62,3.62 0 0 1 -0.71,2.22 z"
     id="path12"
     style="fill:#edab35" />
  <path
     class="cls-5"
     d="m 261.85,9.4137702 c 0,0 0.3,0.23 0.36,0.28 a 1.53,1.53 0 0 0 -0.36,-0.28 z"
     id="path14"
     style="fill:#f9a949" />
  <polygon
     class="cls-5"
     points="333.07,111.57 333.26,111.74 333.4,111.83 "
     id="polygon16"
     style="fill:#f9a949"
     transform="translate(-72,-103.14623)" />
  <path
     class="cls-5"
     d="m 261.42,8.3337702 c -0.63,-0.33 0.05,0.15 -0.2,0.07 l -0.14,-0.07 0.48,0.31 c -0.05,-0.1 -0.33,-0.37 -0.14,-0.31 z"
     id="path18"
     style="fill:#f9a949" />
  <path
     class="cls-5"
     d="m 262.81,9.0037702 c -0.24,-0.13 -0.19,-0.13 -0.08,0 h 0.06 z"
     id="path20"
     style="fill:#f9a949" />
  <path
     class="cls-5"
     d="m 262.79,9.0137702 c 0,0 0.21,0.1 0,0 z"
     id="path22"
     style="fill:#f9a949" />
  <path
     class="cls-5"
     d="m 262.68,8.8537702 0.22,0.13 0.28,0.16 z"
     id="path24"
     style="fill:#f9a949" />
  <path
     class="cls-5"
     d="m 262.24,8.6037702 0.09,0.06 c 0.06,0.03 0.08,0.04 -0.09,-0.06 z"
     id="path26"
     style="fill:#f9a949" />
  <path
     class="cls-5"
     d="m 262.51,8.7837702 -0.18,-0.12 c -0.1,-0.06 -0.3,-0.18 0.06,0 -0.18,-0.06 0,0.04 0.12,0.12 z"
     id="path28"
     style="fill:#f9a949" />
  <path
     class="cls-5"
     d="m 262.41,8.7337702 a 1.61,1.61 0 0 1 -0.43,-0.24 c 0.02,0.09 0.5,0.36 0.43,0.24 z"
     id="path30"
     style="fill:#f9a949" />
  <path
     class="cls-5"
     d="m 260.78,7.9637702 -0.19,-0.08 0.2,0.14 c -0.1,-0.07 0.21,0.05 -0.01,-0.06 z"
     id="path32"
     style="fill:#f9a949" />
  <path
     class="cls-5"
     d="m 263,9.0337702 -0.51,-0.32 0.14,0.1 z"
     id="path34"
     style="fill:#f9a949" />
  <path
     class="cls-5"
     d="m 262.51,8.7137702 -0.22,-0.16 c 0,0 0.08,0.07 0.22,0.16 z"
     id="path36"
     style="fill:#f9a949" />
  <polygon
     class="cls-5"
     points="333.55,111.33 333.56,111.34 334.02,111.64 "
     id="polygon38"
     style="fill:#f9a949"
     transform="translate(-72,-103.14623)" />
  <polygon
     class="cls-5"
     points="334.89,112.07 335.04,112.17 335.33,112.38 "
     id="polygon40"
     style="fill:#f9a949"
     transform="translate(-72,-103.14623)" />
  <path
     class="cls-5"
     d="m 263,8.9737702 0.56,0.41 -0.43,-0.33 c 0.09,0.08 0.06,0.06 -0.13,-0.08 z"
     id="path42"
     style="fill:#f9a949" />
  <path
     class="cls-5"
     d="m 262.85,8.8537702 0.27,0.2 z"
     id="path44"
     style="fill:#f9a949" />
  <path
     class="cls-5"
     d="m 262.37,8.5837702 0.36,0.23 -0.36,-0.24 z"
     id="path46"
     style="fill:#f9a949" />
  <path
     class="cls-5"
     d="M 262.36,8.5737702 Z"
     id="path48"
     style="fill:#f9a949" />
  <path
     class="cls-5"
     d="m 262.36,8.5837702 v 0 c 0,0 -0.04,-0.04 0,0 z"
     id="path50"
     style="fill:#f9a949" />
  <path
     class="cls-5"
     d="m 261.91,8.3537702 a 7.94,7.94 0 0 0 -0.73,-0.47 z"
     id="path52"
     style="fill:#f9a949" />
  <path
     class="cls-5"
     d="m 261.91,8.2837702 h -0.09 l 0.34,0.22 z"
     id="path54"
     style="fill:#f9a949" />
  <polygon
     class="cls-5"
     points="333.95,111.44 333.8,111.35 333.91,111.43 "
     id="polygon56"
     style="fill:#f9a949"
     transform="translate(-72,-103.14623)" />
  <path
     class="cls-5"
     d="m 262.52,8.6237702 -0.19,-0.16 c -0.07,0 -0.11,-0.07 -0.11,-0.06 z"
     id="path58"
     style="fill:#f9a949" />
  <path
     class="cls-5"
     d="m 262.41,8.5737702 v 0 c 0,0 -0.06,-0.04 0,0 z"
     id="path60"
     style="fill:#f9a949" />
  <path
     class="cls-5"
     d="m 262.36,8.3937702 -0.07,-0.05 0.06,0.05 z"
     id="path62"
     style="fill:#f9a949" />
  <path
     class="cls-5"
     d="m 262.15,8.3537702 c -0.07,0 0,0 0.13,0.11 0.13,0.11 -0.06,0 -0.06,-0.06 z"
     id="path64"
     style="fill:#f9a949" />
  <path
     class="cls-5"
     d="m 262.69,8.7137702 -0.19,-0.14 z"
     id="path66"
     style="fill:#f9a949" />
  <path
     class="cls-5"
     d="m 262.49,8.6237702 v 0 c 0.09,0.07 0.05,0.04 0,0 z"
     id="path68"
     style="fill:#f9a949" />
  <path
     class="cls-5"
     d="m 262.49,8.6237702 -0.21,-0.16 0.11,0.09 z"
     id="path70"
     style="fill:#f9a949" />
  <path
     class="cls-5"
     d="m 260.11,6.4637702 c 0.4,0.35 0.66,0.6 0.3,0.35 0.24,0.24 1.29,1.06 1.88,1.53 l -0.45,-0.39 c -0.17,-0.14 -0.41,-0.29 -0.7,-0.55 -0.29,-0.26 0.12,0.07 0.29,0.19 -0.41,-0.33 -0.52,-0.49 -1.18,-1 l 0.24,0.24 c -0.1,-0.13 -0.28,-0.3 -0.38,-0.37 z"
     id="path72"
     style="fill:#f9a949" />
  <path
     class="cls-5"
     d="m 262.25,8.3437702 v 0 c 0.06,0 0.19,0.13 0.44,0.33 l -0.38,-0.32 h -0.05 z"
     id="path74"
     style="fill:#f9a949" />
  <path
     class="cls-5"
     d="m 262.29,8.4037702 c -0.35,-0.27 -0.5,-0.41 -0.88,-0.69 a 4.72,4.72 0 0 0 0.44,0.37 c -0.08,-0.1 0.19,0.16 0.4,0.29 l 0.08,0.09 0.17,0.11 v 0 0 c 0,0 -0.07,0 0,0 v 0 l -0.13,-0.11 0.13,0.11 h 0.05 v 0 l -0.19,-0.17 c -0.12,-0.06 -0.11,-0.04 -0.07,0 z"
     id="path76"
     style="fill:#f9a949" />
  <path
     class="cls-5"
     d="m 260.41,7.3537702 h 0.09 z"
     id="path78"
     style="fill:#f9a949" />
  <path
     class="cls-5"
     d="m 260.64,7.4737702 c 0.05,0 0.19,0.13 0.15,0.12 -0.04,-0.01 -0.17,-0.11 -0.29,-0.19 a 2.62,2.62 0 0 0 0.43,0.29 h -0.05 a 6.67,6.67 0 0 1 0.65,0.38 z"
     id="path80"
     style="fill:#f9a949" />
  <path
     class="cls-5"
     d="m 261.39,7.8537702 -0.16,-0.17 -0.32,-0.2 0.19,0.13 c -0.1,-0.04 0.15,0.12 0.29,0.24 z"
     id="path82"
     style="fill:#f9a949" />
  <polygon
     class="cls-5"
     points="334.38,111.55 334.53,111.68 334.89,111.99 "
     id="polygon84"
     style="fill:#f9a949"
     transform="translate(-72,-103.14623)" />
  <polygon
     class="cls-5"
     points="334.62,111.72 334.49,111.62 334.81,111.89 "
     id="polygon86"
     style="fill:#f9a949"
     transform="translate(-72,-103.14623)" />
  <path
     class="cls-5"
     d="m 264.46,7.6437702 0.05,0.1 z"
     id="path88"
     style="fill:#f9a949" />
  <path
     class="cls-5"
     d="m 264.57,7.5937702 -0.11,-0.15 a 0.75,0.75 0 0 0 0.11,0.15 z"
     id="path90"
     style="fill:#f9a949" />
  <path
     class="cls-5"
     d="m 262.83,8.0737702 c 0.23,0.35 0.56,0.89 0.31,0.47 l -0.25,-0.42 c 0.03,0.08 0,0.03 -0.06,-0.05 z"
     id="path92"
     style="fill:#f9a949" />
  <path
     class="cls-5"
     d="m 262.57,5.4937702 -0.05,-0.13 0.11,0.41 z"
     id="path94"
     style="fill:#f9a949" />
  <path
     class="cls-5"
     d="m 262.05,3.7337702 0.13,0.27 c -0.04,-0.09 -0.08,-0.15 -0.13,-0.27 z"
     id="path96"
     style="fill:#f9a949" />
  <path
     class="cls-5"
     d="m 264.19,8.4037702 0.24,0.37 c 0,0 -0.12,-0.19 -0.24,-0.37 z"
     id="path98"
     style="fill:#f9a949" />
  <path
     class="cls-5"
     d="m 262.41,8.0837702 0.2,0.21 c -0.19,-0.21 -0.48,-0.53 -0.2,-0.21 z"
     id="path100"
     style="fill:#f9a949" />
  <path
     class="cls-5"
     d="m 261.77,3.9137702 a 1.13,1.13 0 0 0 0.14,0.22 2,2 0 0 0 -0.14,-0.22 z"
     id="path102"
     style="fill:#f9a949" />
  <path
     class="cls-5"
     d="m 262.61,8.2737702 -0.08,-0.09 c 0.06,0.07 0.1,0.13 0.08,0.11 0.14,0.16 0.23,0.26 0,-0.02 z"
     id="path104"
     style="fill:#f9a949" />
  <path
     class="cls-5"
     d="M 262,9.5037702 Z"
     id="path106"
     style="fill:#f9a949" />
  <path
     class="cls-5"
     d="m 259,6.3037702 c 0,0 0,0 0,0 0,0 -0.06,-0.06 0,0 z"
     id="path108"
     style="fill:#f9a949" />
  <path
     class="cls-5"
     d="M 262.66,8.5237702 Z"
     id="path110"
     style="fill:#f9a949" />
  <path
     class="cls-5"
     d="m 261.31,7.2737702 -0.16,-0.16 z"
     id="path112"
     style="fill:#f9a949" />
  <path
     class="cls-5"
     d="M 260.56,5.7037702 Z"
     id="path114"
     style="fill:#f9a949" />
  <path
     class="cls-5"
     d="m 262.51,8.3837702 0.1,0.09 z"
     id="path116"
     style="fill:#f9a949" />
  <path
     class="cls-5"
     d="m 262.67,8.5337702 v 0 c 0.02,0.03 0.06,0.06 0,0 z"
     id="path118"
     style="fill:#f9a949" />
  <path
     class="cls-5"
     d="m 262.64,8.4937702 v 0 h 0.05 z"
     id="path120"
     style="fill:#f9a949" />
  <path
     class="cls-5"
     d="m 262.39,7.8537702 v 0 c 0.07,0.08 0.05,0.06 0,0 z"
     id="path122"
     style="fill:#f9a949" />
  <path
     class="cls-5"
     d="M 260.79,3.7237702 Z"
     id="path124"
     style="fill:#f9a949" />
  <path
     class="cls-5"
     d="m 260.72,3.4037702 c 0.22,0.53 0.17,0.46 0.09,0.36 l 0.63,1.2 z"
     id="path126"
     style="fill:#f9a949" />
  <path
     class="cls-5"
     d="m 264.29,7.9137702 0.26,0.29 a 3.92,3.92 0 0 0 0.54,0.81 c -0.8,-1.1 0,-0.2 -0.75,-1.3 l 0.19,0.22 c 0,0 0,0.06 0,0 0.42,0.49 -0.56,-0.81 -0.39,-0.7 a 2,2 0 0 1 0.3,0.36 l -0.16,-0.3 c 0,0 0.16,0.21 0.13,0.2 v -0.14 0 l -0.37,-0.58 a 1.71,1.71 0 0 1 0.18,0.25 l -0.16,-0.29 c 0.23,0.28 0.4,0.57 0.35,0.55 0.83,1.07 -0.18,-0.3 0.36,0.29 l 0.07,0.16 a 5.93,5.93 0 0 0 0.66,0.72 13.34,13.34 0 0 1 -0.95,-1.22 c 0.07,0.08 0.11,0.11 0,-0.13 l 0.05,0.07 v 0 0 c -0.55,-1.36 -1.08,-2.69 -1.6,-4 v -0.1 a 0.29,0.29 0 0 0 0,-0.1 c 0,0 0,0 -0.06,0 l -0.09,-0.63 a 5.93,5.93 0 0 0 0,0.79 4.33,4.33 0 0 1 -0.24,-1 c -0.11,-0.1 0.2,0.78 0.11,0.9 -0.12,-0.23 -0.13,0 -0.14,0.42 a 3.65,3.65 0 0 1 -0.12,-0.57 l 0.06,0.51 c 0,0 0,-0.17 -0.06,-0.25 0,0.2 0.13,0.63 0.12,0.81 0.15,0.69 -0.35,-1 -0.23,-0.21 -0.07,-0.18 -0.09,-0.39 -0.16,-0.63 a 5.73,5.73 0 0 0 0.13,1.08 l -0.18,-0.41 a 12.14,12.14 0 0 1 0.39,1.49 l 0.18,0.52 0.05,0.34 c 0,-0.1 -0.1,-0.32 -0.17,-0.58 v 0.15 a 7.14,7.14 0 0 1 -0.29,-0.94 l 0.14,0.38 c -0.1,-0.38 -0.21,-0.8 -0.33,-1.17 a 0.86,0.86 0 0 1 0,0.17 l -0.07,-0.25 c 0,-0.07 0,0.07 0,0.23 l -0.23,-0.69 0.08,0.27 -0.26,-0.42 c 0.15,0.7 0.45,1.74 0.47,2 -0.17,-0.51 -0.31,-0.83 -0.54,-1.43 0.27,0.63 0,-0.28 0.11,-0.16 a 1.84,1.84 0 0 1 -0.18,-0.45 l 0.09,0.59 a 1.93,1.93 0 0 0 -0.27,-0.57 c 0.4,1 0.16,0.66 0.24,1 -0.14,-0.33 -0.26,-0.66 -0.17,-0.59 -0.37,-0.72 0.38,1.15 0.07,0.54 0,0 0,0 0,-0.13 0.09,0.29 -0.08,0.07 -0.19,-0.22 v 0 c -0.14,-0.11 -0.29,0 0.1,0.83 l -0.36,-0.94 c 0.39,0.92 0.8,1.85 1.24,2.76 -0.34,-0.7 -1.27,-2.37 -1.39,-2.77 -0.08,-0.1 -0.17,-0.21 -0.09,0 0.07,0.1 0.57,1 0.59,1.08 -0.47,-0.78 -0.26,-0.42 -0.69,-1.08 a 12.21,12.21 0 0 1 0.63,1.22 c -0.09,-0.16 -0.6,-1.08 -0.65,-1.2 l 0.51,1.09 c -0.09,-0.2 -0.51,-0.92 -0.7,-1.22 0.13,0.21 -0.1,0 -0.06,0.1 l 0.18,0.24 c -0.2,-0.15 0.8,1.52 0.7,1.47 -0.13,-0.22 -0.82,-1.36 -1,-1.49 l 1.81,3.06 -0.21,-0.31 0.2,0.36 c -0.55,-0.82 -1.59,-2.56 -1.94,-3.24 -0.2,-0.25 -0.25,-0.37 -0.29,-0.34 -0.21,-0.29 -0.25,-0.45 -0.24,-0.47 l -0.29,-0.17 c 0.43,0.64 0.31,0.65 0.68,1.18 l -0.28,-0.68 a 9.53,9.53 0 0 1 1,1.72 c -0.2,-0.25 -0.76,-1.14 -0.91,-1.35 0.14,0.22 0.2,0.43 0.08,0.27 l -0.2,-0.34 c -0.22,-0.24 0.51,0.85 0,0.25 0,0 -0.66,-0.81 -0.39,-0.44 0.57,0.72 2.2,3 2.59,3.51 l -0.87,-1 c -0.46,-0.57 -1,-1.36 -1.37,-1.84 0.13,0.17 0.27,0.39 0.32,0.46 -0.14,-0.15 -0.4,-0.54 -0.39,-0.46 0.49,0.64 -0.14,0 0.4,0.55 0.09,0.18 -0.15,-0.13 -0.19,-0.1 0.34,0.41 1.08,1.41 1.2,1.6 l -0.39,-0.47 c -0.09,0 -0.31,-0.26 -0.34,-0.21 -0.14,-0.16 -0.32,-0.32 -0.57,-0.62 a 4.72,4.72 0 0 1 0.3,0.39 c -0.53,-0.55 -0.05,-0.13 -0.68,-0.8 0.34,0.39 0.44,0.58 0.65,0.85 0.55,0.61 0.12,0.06 -0.07,-0.21 0.74,0.87 1.39,1.66 1.69,2 0.16,0.22 -0.42,-0.44 -0.33,-0.33 a 9.94,9.94 0 0 0 0.75,0.9 c 0,0 0,0 -0.09,-0.07 -0.42,-0.41 -0.83,-0.86 -1.13,-1.16 -0.08,-0.1 0,0 0.07,0 0.07,0 0.19,0.17 0.18,0.15 l -0.2,-0.18 c -0.13,-0.15 -0.23,-0.3 -0.11,-0.18 q -0.19,-0.19 -0.24,-0.18 c -0.05,0 0,0.15 -0.3,-0.07 a 7.09,7.09 0 0 0 0.54,0.55 l -0.06,-0.08 c 0.34,0.31 0.46,0.5 0.63,0.63 0.17,0.13 0.6,0.63 0.4,0.48 l -0.48,-0.44 c 0.14,0.13 0.29,0.24 0.14,0.1 0.22,0.21 -0.66,-0.55 0,0 l 0.34,0.28 c 0.24,0.25 0.75,0.72 0.59,0.6 l 0.51,0.43 c -0.7,-0.61 0,0 -0.7,-0.65 0.66,0.58 0.28,0.22 0.84,0.73 -0.16,-0.15 -0.31,-0.28 -0.23,-0.22 l -0.14,-0.14 v 0 0 0 l -0.24,-0.22 c -0.36,-0.35 -0.35,-0.38 -0.53,-0.57 l 0.35,0.34 -0.28,-0.29 c 0.35,0.34 0.58,0.56 0.79,0.78 v 0 c 0.2,0.19 0.28,0.27 0.13,0.11 0.08,0.07 -0.38,-0.43 -0.11,-0.13 l -0.21,-0.26 0.09,0.09 c 0,0 -0.57,-0.71 0,0 -0.09,-0.11 -0.19,-0.24 -0.09,-0.14 l 0.29,0.36 c -0.1,-0.15 0.31,0.34 0,0 0.8,1 0.21,0.22 0.37,0.39 l -0.36,-0.48 a 1.79,1.79 0 0 0 -0.18,-0.3 l -0.3,-0.43 c -0.23,-0.35 0.27,0.3 0.26,0.25 0.11,0.17 0.08,0.12 0,0 0.68,1 -0.38,-0.71 0.11,0 -0.09,-0.16 -0.05,-0.11 0,0 v 0 0 l 0.15,0.23 -0.15,-0.23 a 0.78,0.78 0 0 0 -0.07,-0.17 l 0.28,0.45 v 0 a 4.36,4.36 0 0 0 -0.33,-0.56 l -0.16,-0.28 c 0.45,0.74 -0.11,-0.25 0.36,0.54 -0.22,-0.39 -0.12,-0.3 -0.55,-1.11 0.05,0.1 0.09,0.15 0.08,0.16 -0.01,0.01 0.13,0.18 0,-0.05 l 0.32,0.59 -0.38,-0.79 a 8.66,8.66 0 0 1 0.53,1 c -0.31,-0.7 -0.1,-0.27 -0.4,-1 l 0.18,0.38 c 0,0 -0.21,-0.53 -0.05,-0.22 0.36,0.73 0.2,0.09 0.54,0.76 -0.44,-1.13 0.23,0.51 -0.1,-0.37 0.1,0.27 0.17,0.42 0.24,0.65 -0.06,-0.26 0.19,0.42 0,-0.32 l 0.18,0.55 c 0,0 -0.07,-0.23 0,-0.07 l 0.1,0.34 c 0,0 -0.25,-0.87 -0.5,-1.65 0.14,0.36 0.13,0.31 0,-0.2 a 3.15,3.15 0 0 1 0.18,0.61 c 0,0 0.19,0.37 0,-0.26 0,0.16 0,0 0,0 0,0 0.06,0.09 0.08,0 v -0.1 c -0.17,-0.76 0,-0.17 0,-0.26 v 0.08 c 0.18,0.54 0,-0.27 0.16,0.35 l -0.09,-0.47 c -0.19,-1 0.17,0.59 0.13,0.2 l -0.06,-0.27 c 0,-0.35 0.28,1.38 0.3,1.51 a 2.11,2.11 0 0 1 0,0.21 c 0.11,0.6 -0.09,-0.62 -0.08,-0.77 l 0.11,0.83 -1.94,-4.81 -0.06,-0.06 c -0.18,-0.21 0.57,1 0.14,0.45 a 4.52,4.52 0 0 1 0.43,0.58 c 0,0.1 -0.67,-0.73 -0.21,0 l -0.13,-0.16 a 4.37,4.37 0 0 0 0.38,0.71 c -1,-1.32 0.33,0.75 -0.57,-0.48 v 0.12 l -0.09,-0.13 c -0.1,0 0.1,0.26 0.3,0.57 a 2.07,2.07 0 0 1 -0.2,-0.27 c -0.25,-0.2 -0.22,-0.14 0.17,0.52 l -0.29,-0.4 c 0.15,0.24 -0.56,-0.56 -0.28,0 l -0.13,-0.19 c 0.27,0.53 -1,-1 0.05,0.5 l 0.21,0.39 a 8.15,8.15 0 0 1 0.65,0.87 c 0,0.1 -0.39,-0.4 -0.41,-0.49 l 0.06,0.07 c -0.54,-0.78 -0.28,-0.22 -0.65,-0.74 -0.1,0.13 -0.53,-0.21 -0.67,-0.16 l 0.44,0.59 h -0.06 c -0.11,-0.13 -0.35,-0.45 -0.3,-0.45 -0.26,-0.32 0.15,0.32 0.24,0.45 a 4.91,4.91 0 0 1 -0.5,-0.71 v 0.06 l 0.05,0.07 c 0.16,0.25 0.34,0.51 0.28,0.51 -0.06,0 -0.27,-0.36 -0.3,-0.38 -0.03,-0.02 0,-0.06 0,0 h -0.09 l 0.36,0.46 c 0.14,0.24 -0.07,0 0.33,0.52 -0.62,-0.8 -0.4,-0.16 -0.6,-0.4 0.21,0.37 0.17,0.39 0.1,0.37 -0.07,-0.02 0.46,0.62 0.38,0.58 -0.76,-1.1 -0.4,-0.43 -1,-1.2 0.39,0.51 0,0.2 0.56,0.92 -0.1,-0.07 -0.29,-0.41 -0.5,-0.66 0.23,0.48 -0.34,-0.17 -0.32,0 a 6.21,6.21 0 0 1 0.4,0.58 l -0.55,-0.69 c 0,0.08 0.57,0.84 0.19,0.36 a 3.21,3.21 0 0 1 0.24,0.35 c -0.65,-0.58 0.06,0.82 -1,-0.39 0.22,0.27 0.22,0.31 0.21,0.33 -0.01,0.02 0.25,0.36 0.39,0.55 l -0.45,-0.5 c 0.36,0.56 0,0.09 0.3,0.62 v -0.11 c 0.39,0.64 1,1.34 1.52,2.13 -0.45,-0.72 0.8,1 0.17,-0.07 0.12,0.16 0.16,0.27 0.3,0.44 -0.22,-0.34 -0.25,-0.43 -0.12,-0.3 l 0.06,0.09 c 0,-0.15 0.29,0.16 0.55,0.31 l -0.28,-0.38 a 1.06,1.06 0 0 1 0.22,0.24 c -0.38,-0.6 -0.08,0 -0.51,-0.65 0.58,0.77 0.16,-0.1 0.81,0.79 0,0 -0.33,-0.45 -0.29,-0.46 l 0.18,0.23 -0.21,-0.32 a 5.52,5.52 0 0 1 0.42,0.54 c 0,0 0,0.07 0,0.09 0.23,0.27 0,-0.15 0.09,-0.07 l -0.14,-0.12 c -0.07,-0.29 0.27,0 0,-0.61 l -0.14,-0.18 c -0.17,-0.38 0.2,0.17 0.16,0 v 0 c -0.12,-0.19 -0.16,-0.29 -0.13,-0.29 0.13,0.23 0.33,0.39 0.47,0.65 a 6.14,6.14 0 0 0 -0.59,-1 l 0.22,0.29 a 2.25,2.25 0 0 1 -0.3,-0.53 c 0.16,0.28 0.35,0.44 0.56,0.81 0.55,0.61 -0.36,-0.75 0.36,0.19 -0.56,-0.86 -0.39,-0.42 -0.5,-0.61 -0.11,-0.19 -0.42,-0.64 -0.33,-0.58 0.09,0.06 0.8,1 0.85,1 0.05,0 0,0.07 0,0.07 0.18,0.2 -0.16,-0.32 0.12,0 -0.35,-0.52 0.06,0 -0.4,-0.65 l 0.05,0.19 c -0.09,-0.19 -0.59,-1 -0.28,-0.64 0.09,0.13 0.19,0.32 0.25,0.42 0.06,0.1 -0.06,-0.15 0.09,0 0.46,0.64 0,0.19 0.35,0.7 0.21,0.26 -0.27,-0.51 0.22,0.2 -0.61,-0.91 0.14,0.07 -0.31,-0.64 l 0.28,0.39 a 1.41,1.41 0 0 1 -0.14,-0.26 l 0.34,0.52 c -0.27,-0.45 0.33,0.33 0.2,0.07 -0.06,0.06 -0.35,-0.45 -0.58,-0.71 -0.29,-0.58 0.77,1 0.73,0.72 0,0.06 -0.21,-0.2 -0.32,-0.39 0.07,0.07 0.2,0.2 0.36,0.39 0,-0.12 -0.3,-0.39 -0.44,-0.64 0.36,0.45 -0.11,-0.22 -0.19,-0.39 l 0.28,0.4 c 0.26,0.2 -0.56,-0.83 -0.28,-0.58 l 0.36,0.57 -0.07,-0.17 0.32,0.45 c -0.2,-0.35 -0.13,-0.28 0,-0.18 a 4.46,4.46 0 0 1 -0.48,-0.74 c 0.19,0.21 0.25,0.38 0.26,0.29 0.16,0.25 0.38,0.57 0.1,0.22 l 0.25,0.38 c 0.22,0.25 0.1,0 0.12,0 a 0.3,0.3 0 0 1 -0.09,-0.07 l -0.32,-0.59 c 0.11,0.14 0.19,0.26 0.27,0.38 0,0 -0.14,-0.23 -0.15,-0.28 a 9.09,9.09 0 0 1 0.55,0.81 l -0.2,-0.39 c 0.11,0.13 0.31,0.36 0.39,0.48 0.08,0.12 -0.37,-0.68 -0.14,-0.46 -0.05,-0.07 -0.08,-0.13 -0.11,-0.18 -0.03,-0.05 0.42,0.4 0.15,-0.07 l 0.44,0.55 c -0.05,-0.16 -0.56,-0.69 -0.65,-1 -0.09,-0.31 0.37,0.47 0.5,0.62 -0.18,-0.3 -0.57,-0.91 -0.19,-0.48 0.11,0.24 0.03,0.15 0.05,0.21 z m 0.3,-0.59 c 0.05,0.09 0.22,0.35 0,0.13 -0.28,-0.46 -0.11,-0.25 0,-0.13 z m -2.41,-2.73 c 0,-0.15 0,-0.08 0.08,0.1 0.08,0.18 -0.02,0.02 -0.08,-0.1 z m 0.18,3.56 v 0 c 0.13,0.13 0.08,0.07 0,0 z m -0.16,-0.14 0.16,0.16 c -0.1,-0.1 -0.1,-0.11 -0.08,-0.09 0.02,0.02 -0.16,-0.16 -0.08,-0.07 z m -1.83,-2.75 0.08,0.1 c 0.07,0.12 0,0.02 -0.08,-0.1 z"
     id="path128"
     style="fill:#f9a949" />
  <path
     class="cls-5"
     d="m 262.11,3.9437702 0.08,0.25 a 0.81,0.81 0 0 0 -0.08,-0.25 z"
     id="path130"
     style="fill:#f9a949" />
  <polygon
     class="cls-5"
     points="336.19,111.55 336.14,111.48 "
     id="polygon132"
     style="fill:#f9a949"
     transform="translate(-72,-103.14623)" />
  <path
     class="cls-5"
     d="m 259.41,3.8537702 0.2,0.23 a 1,1 0 0 0 -0.2,-0.23 z"
     id="path134"
     style="fill:#f9a949" />
  <path
     class="cls-5"
     d="m 262.82,8.7237702 -0.09,-0.1 -0.13,-0.11 z"
     id="path136"
     style="fill:#f9a949" />
  <path
     class="cls-5"
     d="m 260.39,6.8537702 c 0.05,0 0,0 0.05,0.06 l 0.18,0.14 a 0.81,0.81 0 0 0 -0.23,-0.2 z"
     id="path138"
     style="fill:#f9a949" />
  <path
     class="cls-5"
     d="m 261.55,7.5937702 c -0.32,-0.29 -0.21,-0.17 -0.16,-0.1 v 0 c 0.45,0.36 0.31,0.25 0.16,0.1 z"
     id="path140"
     style="fill:#f9a949" />
  <path
     class="cls-5"
     d="m 261.4,7.5037702 c 0,0 0,0 0,0 0.19,0.18 0.05,0.05 0,0 z"
     id="path142"
     style="fill:#f9a949" />
  <path
     class="cls-5"
     d="m 262.4,8.2537702 0.28,0.27 c 0.4,0.41 -0.48,-0.5 -0.28,-0.27 z"
     id="path144"
     style="fill:#f9a949" />
  <polygon
     class="cls-5"
     points="332.57,109.86 332.49,109.81 332.89,110.16 "
     id="polygon146"
     style="fill:#f9a949"
     transform="translate(-72,-103.14623)" />
  <path
     class="cls-5"
     d="m 260.82,6.7637702 -0.12,-0.07 a 0.76,0.76 0 0 1 0.13,0.13 c 0,0 0.1,0.03 -0.01,-0.06 z"
     id="path148"
     style="fill:#f9a949" />
  <path
     class="cls-5"
     d="m 260.83,6.8537702 c 0,0 0,0 0.06,0.09 0.06,0.09 -0.01,-0.09 -0.06,-0.09 z"
     id="path150"
     style="fill:#f9a949" />
  <polygon
     class="cls-5"
     points="332.5,109.72 332.36,109.63 332.46,109.71 "
     id="polygon152"
     style="fill:#f9a949"
     transform="translate(-72,-103.14623)" />
  <path
     class="cls-5"
     d="m 260.94,6.4837702 -0.11,-0.16 c -0.13,-0.15 -0.21,-0.23 -0.16,-0.16 0.05,0.07 0.14,0.18 0.27,0.32 z"
     id="path154"
     style="fill:#f9a949" />
  <path
     class="cls-5"
     d="m 259.69,5.2737702 c 0.1,0.09 0.21,0.21 0.37,0.37 l -0.59,-0.64 z"
     id="path156"
     style="fill:#f9a949" />
  <path
     class="cls-5"
     d="m 259.62,5.0237702 c -0.16,-0.18 -0.4,-0.54 -0.41,-0.46 a 3.17,3.17 0 0 0 0.41,0.46 z"
     id="path158"
     style="fill:#f9a949" />
  <polygon
     class="cls-5"
     points="333.4,109.6 332.69,108.64 "
     id="polygon160"
     style="fill:#f9a949"
     transform="translate(-72,-103.14623)" />
  <path
     class="cls-5"
     d="m 259.86,3.1137702 c -0.22,-0.23 0.35,0.6 0.1,0.32 0.13,0.23 0.2,0.23 0.31,0.43 a 2.64,2.64 0 0 0 -0.41,-0.75 z"
     id="path162"
     style="fill:#f9a949" />
  <path
     class="cls-5"
     d="m 260.27,3.8537702 0.07,0.15 z"
     id="path164"
     style="fill:#f9a949" />
  <polygon
     class="cls-5"
     points="330.62,109.18 330.56,109.07 330.41,108.91 "
     id="polygon166"
     style="fill:#f9a949"
     transform="translate(-72,-103.14623)" />
  <path
     class="cls-5"
     d="m 258.94,6.5737702 -0.37,-0.53 0.31,0.5 c 0,0 -0.03,-0.09 0.06,0.03 z"
     id="path168"
     style="fill:#f9a949" />
  <path
     class="cls-5"
     d="m 262.83,2.0637702 v 0.16 c 0,0.16 0,0.18 0.07,0.2 z"
     id="path170"
     style="fill:#f9a949" />
  <polygon
     class="cls-5"
     points="336.45,110.87 336.8,111.33 336.81,111.33 "
     id="polygon172"
     style="fill:#f9a949"
     transform="translate(-72,-103.14623)" />
  <path
     class="cls-5"
     d="m 264.94,8.9937702 c 0,0 0,-0.1 0,-0.09 0,0.01 -0.43,-0.5 0,0.09 z"
     id="path174"
     style="fill:#f9a949" />
  <path
     class="cls-6"
     d="m 54.15,264.85377 c 0.19,-2.7 -8.05,-2.95 -11,-9.09 a 27.12,27.12 0 0 0 -6.35,3 15.91,15.91 0 0 0 -5.72,4.87 21.41,21.41 0 0 0 -3.36,7 c -2.2,7.05 3.92,15.33 1.6,20.67 -6.59,10.88 -15.21,22.1 -12.32,36.17 0.72,1.76 1.64,3.7 0.93,5.46 -0.71,1.76 -2.41,2.42 -3.93,3.27 -2,1.13 -3.44,3.7 -4.42,6.93 a 47.46,47.46 0 0 0 -1.69,10.86 20.76,20.76 0 0 0 0.09,7.16 c 0.38,2.42 0.93,4.89 1.19,7.41 2.76,-2.4 2,-8.39 6,-8.9 2.54,0.17 4.81,2.15 6,4.41 -0.32,0.89 0.93,2.74 1.06,3.73 -3.55,6.53 -11.7,12.45 -17.11,17.3 a 68,68 0 0 1 -0.1,11.33 c 9.85,1.52 18.08,-25.16 20,-38.07 a 29.36,29.36 0 0 1 2,-8.11 27.77,27.77 0 0 0 1.83,-8.53 c 0.29,-3.38 0.19,-5.76 0.15,-13.06 0,-2.43 0,-5.4 0,-9.15 0,-7.64 0.1,-9.41 1.55,-11.29 2,-2.58 5,-3.33 7.59,-3.9 2.59,-0.57 5,-1 5.64,-2.87 1.06,-2.9 -3.35,-4.76 -5.52,-11.38 -1.59,-4.87 -2,-12.47 1.77,-17.38 4.81,-6.17 13.97,-4.98 14.12,-7.84 z"
     id="path176"
     style="fill:#f49c45" />
  <path
     class="cls-5"
     d="m 52.87,264.71377 v 0 h -0.06 -0.07 z"
     id="path178"
     style="fill:#f9a949" />
  <path
     class="cls-5"
     d="m 45.49,267.07377 0.09,-0.22 q -0.57,0.45 -1.11,0.93 c 0.33,-0.25 0.67,-0.48 1.02,-0.71 z"
     id="path180"
     style="fill:#f9a949" />
  <path
     class="cls-5"
     d="m 38.36,272.52377 c 0.54,-0.17 1,-0.85 1.55,-1.57 a 6.55,6.55 0 0 1 2,-1.86 h 0.31 a 9.18,9.18 0 0 1 0.31,-0.88 12.84,12.84 0 0 0 -2.43,2.15 c -0.7,0.8 -1.27,1.62 -1.74,2.16 z"
     id="path182"
     style="fill:#f9a949" />
  <path
     class="cls-5"
     d="m 34.88,276.51377 c 0.37,-0.24 -0.11,1.14 0.45,-1.14 l -0.14,0.19 c -0.07,0.2 -0.19,0.48 -0.31,0.95 z"
     id="path184"
     style="fill:#f9a949" />
  <path
     class="cls-5"
     d="m 35.19,275.56377 c 0.33,-1 -0.45,0.57 0,0 z"
     id="path186"
     style="fill:#f9a949" />
  <path
     class="cls-5"
     d="m 34.38,280.15377 c 0,-0.44 0,-0.89 -0.07,-1.34 -0.21,0.25 -0.4,1.42 -0.46,1 0.01,1.34 0.21,1.04 0.53,0.34 z"
     id="path188"
     style="fill:#f9a949" />
  <path
     class="cls-5"
     d="m 34.81,281.39377 c 0,-0.21 0,-0.44 -0.06,-0.66 -0.07,0.12 -0.12,0.29 0.06,0.66 z"
     id="path190"
     style="fill:#f9a949" />
  <path
     class="cls-5"
     d="m 34.68,279.31377 c 0,0.48 0,1 0.07,1.42 0.13,-0.17 0.36,-0.17 0,-0.65 0.18,0.14 -0.01,-0.15 -0.07,-0.77 z"
     id="path192"
     style="fill:#f9a949" />
  <path
     class="cls-5"
     d="m 34.91,278.53377 c 0.3,-0.7 0.58,-1.57 0.56,-0.27 0.18,-1.2 0.24,-1.75 0.08,-1.7 -0.16,0.05 -0.46,0.73 -0.64,1.97 z"
     id="path194"
     style="fill:#f9a949" />
  <path
     class="cls-5"
     d="m 38.72,273.30377 0.69,-0.63 a 7.08,7.08 0 0 1 0.28,-0.77 c -0.18,0.36 -1.19,1.32 -0.97,1.4 z"
     id="path196"
     style="fill:#f9a949" />
  <path
     class="cls-5"
     d="m 34.46,288.14377 c 0.16,0 0.31,-0.5 0.48,-0.63 l -0.32,-0.89 c -0.03,0.49 0.04,1.41 -0.16,1.52 z"
     id="path198"
     style="fill:#f9a949" />
  <path
     class="cls-5"
     d="m 34.94,287.51377 c 0.18,0.44 0.35,0.88 0.55,1.31 -0.24,-1.22 -0.39,-1.42 -0.55,-1.31 z"
     id="path200"
     style="fill:#f9a949" />
  <path
     class="cls-5"
     d="m 35.6,281.65377 a 21.41,21.41 0 0 1 -0.35,-2.29 22,22 0 0 0 0.34,2.72 z"
     id="path202"
     style="fill:#f9a949" />
  <path
     class="cls-5"
     d="m 36.12,293.42377 -0.66,-0.64 c 0.37,0.4 0.71,0.79 1.1,1.15 z"
     id="path204"
     style="fill:#f9a949" />
  <path
     class="cls-5"
     d="m 38,296.61377 c -0.58,-0.35 0,1 -0.46,0.53 a 7.62,7.62 0 0 0 1.87,1.71 5.72,5.72 0 0 1 -1.41,-2.24 z"
     id="path206"
     style="fill:#f9a949" />
  <path
     class="cls-5"
     d="m 40.27,299.52377 a 9.58,9.58 0 0 0 -0.9,-0.67 4.48,4.48 0 0 0 0.9,0.67 z"
     id="path208"
     style="fill:#f9a949" />
  <path
     class="cls-5"
     d="m 36.08,291.13377 a 1.69,1.69 0 0 0 0,1.2 l 0.21,-0.68 z"
     id="path210"
     style="fill:#f9a949" />
  <path
     class="cls-5"
     d="m 36.27,291.63377 v 0 c 0.19,0.58 0.36,1 0.43,1.13 a 11.88,11.88 0 0 1 -0.43,-1.13 z"
     id="path212"
     style="fill:#f9a949" />
  <path
     class="cls-5"
     d="m 36,290.99377 v 0.14 c 0.1,-0.07 0.1,-0.1 0,-0.14 z"
     id="path214"
     style="fill:#f9a949" />
  <path
     class="cls-5"
     d="m 35.32,285.20377 c 0.32,0.78 0.83,2.34 1,0.74 -0.4,-0.53 -0.5,0.41 -1,-0.74 z"
     id="path216"
     style="fill:#f9a949" />
  <path
     class="cls-5"
     d="m 36.33,290.18377 c -0.11,-0.47 -0.2,-0.95 -0.28,-1.42 -0.11,0 -0.2,0.35 -0.41,0 0.22,0.47 0.44,0.95 0.69,1.42 z"
     id="path218"
     style="fill:#f9a949" />
  <path
     class="cls-5"
     d="m 36.68,290.85377 c -0.13,-0.21 -0.23,-0.42 -0.35,-0.64 l 0.13,0.53 z"
     id="path220"
     style="fill:#f9a949" />
  <path
     class="cls-5"
     d="m 39.22,297.43377 a 8.5,8.5 0 0 1 1.36,1.44 c -0.37,-0.64 -0.84,-1.33 -1.3,-2 -0.17,-0.02 -0.58,-0.16 -0.06,0.56 z"
     id="path222"
     style="fill:#f9a949" />
  <path
     class="cls-5"
     d="m 37.63,294.72377 0.1,0.12 c -0.02,-0.1 -0.04,-0.17 -0.1,-0.12 z"
     id="path224"
     style="fill:#f9a949" />
  <polygon
     class="cls-5"
     points="112.56,404.4 112.51,404.42 112.6,404.46 "
     id="polygon226"
     style="fill:#f9a949"
     transform="translate(-72,-103.14623)" />
  <path
     class="cls-5"
     d="m 39.27,296.72377 a 2.87,2.87 0 0 0 -0.88,-1 l 0.89,1.2 c 0.08,-0.07 0.12,-0.07 -0.01,-0.2 z"
     id="path228"
     style="fill:#f9a949" />
  <path
     class="cls-5"
     d="m 40.72,299.85377 a 0.6,0.6 0 0 0 0.09,-0.33 c -0.07,0.16 -0.22,0.33 -0.09,0.33 z"
     id="path230"
     style="fill:#f9a949" />
  <path
     class="cls-5"
     d="m 37.73,295.08377 -0.06,-0.07 c 0.02,0.23 0.05,0.18 0.06,0.07 z"
     id="path232"
     style="fill:#f9a949" />
  <path
     class="cls-5"
     d="m 37.73,295.08377 a 4,4 0 0 0 0.66,0.6 c -0.24,-0.3 -0.45,-0.61 -0.66,-0.84 a 1,1 0 0 1 0,0.24 z"
     id="path234"
     style="fill:#f9a949" />
  <path
     class="cls-5"
     d="m 40.06,304.27377 c 0,-0.2 0.36,-0.48 0.85,-0.72 a 11,11 0 0 1 1.8,-0.66 c 0.41,-0.5 0,-0.83 -0.48,-1 a 13.51,13.51 0 0 1 -1.63,-0.57 c 0.08,0.15 0.27,0.3 -0.33,0.74 a 3.12,3.12 0 0 0 1,0 c 0.4,-0.05 0.76,-0.1 0.54,0.27 a 1.48,1.48 0 0 1 -1,0.45 1.46,1.46 0 0 1 -0.3,-0.07 1.05,1.05 0 0 0 -0.43,-0.06 c 0.39,0.15 -0.06,0.46 -0.59,0.8 -0.53,0.34 -1.11,0.7 -0.85,1 l 1.44,-0.59 c 0.04,0.11 -0.46,0.41 -0.02,0.41 z"
     id="path236"
     style="fill:#f9a949" />
  <path
     class="cls-5"
     d="m 41.34,300.62377 a 1.76,1.76 0 0 1 0,-0.23 1,1 0 0 1 -0.17,0.19 1,1 0 0 1 -0.66,0.11 1,1 0 0 0 0,0.56 1.22,1.22 0 0 0 0.7,-0.64 c 0,0 0,-0.06 0,-0.09 z"
     id="path238"
     style="fill:#f9a949" />
  <path
     class="cls-5"
     d="m 41.07,299.46377 a 1.56,1.56 0 0 1 0.74,0.25 c 0.22,0.11 0.44,0.21 0.6,-0.08 -0.54,-1 -0.7,-0.5 -1.2,-0.91 0.51,0.62 0.34,0.52 0.19,0.45 -0.15,-0.07 -0.38,-0.11 -0.28,0.27 l -0.24,-0.22 -0.11,-0.11 -0.19,-0.24 0.16,0.28 a 0.63,0.63 0 0 1 0,0.14 1.13,1.13 0 0 1 0,0.25 v 0 0 c 0,0 0,-0.08 0,0 v 0 h 0.18 c 0.07,0.28 -0.08,0.07 -0.18,0 h -0.07 a 1.47,1.47 0 0 1 0.52,0.88 c 0.25,-0.23 0.2,-0.57 -0.12,-0.96 z"
     id="path240"
     style="fill:#f9a949" />
  <path
     class="cls-5"
     d="m 37.41,287.18377 c 0,0.09 0,0.09 -0.08,0.1 -0.08,0.01 0.13,0.21 0.08,-0.1 z"
     id="path242"
     style="fill:#f9a949" />
  <path
     class="cls-5"
     d="m 37.38,288.29377 a 1.6,1.6 0 0 1 -0.39,-0.92 c 0,-0.55 0.2,0 0.34,-0.09 -0.19,-0.34 -0.52,-1.24 -0.54,0 l 0.1,0.18 a 7,7 0 0 1 -0.19,2.4 4.23,4.23 0 0 0 0.68,-1.57 z"
     id="path244"
     style="fill:#f9a949" />
  <path
     class="cls-5"
     d="m 38.88,294.41377 c 0.43,0.62 0.91,1.21 1.39,1.78 -0.12,-0.38 -0.23,-0.76 -0.32,-1.15 l -0.16,0.17 c -0.61,-1.11 -0.67,-0.76 -0.91,-0.8 z"
     id="path246"
     style="fill:#f9a949" />
  <path
     class="cls-5"
     d="m 40.31,301.12377 a 3.17,3.17 0 0 0 -0.21,-0.41 1.17,1.17 0 0 1 0,0.69 1.55,1.55 0 0 0 0.21,-0.28 z"
     id="path248"
     style="fill:#f9a949" />
  <polygon
     class="cls-5"
     points="109.9,404.77 110.54,404.79 110.56,404.38 "
     id="polygon250"
     style="fill:#f9a949"
     transform="translate(-72,-103.14623)" />
  <path
     class="cls-5"
     d="m 12.79,366.79377 -0.48,1 c 0.22,-0.4 0.38,-0.76 0.48,-1 z"
     id="path252"
     style="fill:#f9a949" />
  <path
     class="cls-5"
     d="m 15.21,362.08377 0.1,-0.18 c -0.15,0.08 -0.2,0.17 -0.1,0.18 z"
     id="path254"
     style="fill:#f9a949" />
  <path
     class="cls-5"
     d="m 21,365.63377 c -0.56,0.79 -1.38,1.61 -0.92,1.62 l 0.49,-0.16 a 5,5 0 0 1 0.43,-1.46 z"
     id="path256"
     style="fill:#f9a949" />
  <path
     class="cls-5"
     d="m 5.12,386.85377 -0.12,0.28 0.44,0.6 z"
     id="path258"
     style="fill:#f9a949" />
  <path
     class="cls-5"
     d="m 3.27,385.97377 0.16,-1.55 0.12,-0.09 a 0.34,0.34 0 0 0 -0.13,0.09 11.23,11.23 0 0 0 -0.15,1.55 z"
     id="path260"
     style="fill:#f9a949" />
  <path
     class="cls-5"
     d="m 5.26,350.54377 -0.35,-0.82 c -0.13,1.22 0.15,0.7 0.35,0.82 z"
     id="path262"
     style="fill:#f9a949" />
  <path
     class="cls-5"
     d="m 26.67,326.85377 a 11.33,11.33 0 0 0 -0.26,2 c 0.24,-0.93 0.59,-1.71 0.26,-2 z"
     id="path264"
     style="fill:#f9a949" />
  <path
     class="cls-5"
     d="m 12.14,358.61377 a 0.65,0.65 0 0 0 -0.06,0.45 c 0.09,-0.21 0.13,-0.37 0.06,-0.45 z"
     id="path266"
     style="fill:#f9a949" />
  <path
     class="cls-5"
     d="m 26.43,331.18377 c 0,-0.14 0.06,-0.28 0.1,-0.42 a 11,11 0 0 1 -0.12,-1.88 3.69,3.69 0 0 0 0.02,2.3 z"
     id="path268"
     style="fill:#f9a949" />
  <path
     class="cls-5"
     d="m 26.49,266.73377 c 0.05,-0.06 0.09,-0.14 0.14,-0.19 0.05,-0.05 -0.09,0.05 -0.14,0.19 z"
     id="path270"
     style="fill:#f9a949" />
  <path
     class="cls-5"
     d="m 47.1,262.26377 a 10.83,10.83 0 0 1 -1,-0.6 4.55,4.55 0 0 0 1,0.6 z"
     id="path272"
     style="fill:#f9a949" />
  <path
     class="cls-5"
     d="m 27.27,308.53377 c 0.33,-0.83 0,-0.15 0,0 z"
     id="path274"
     style="fill:#f9a949" />
  <path
     class="cls-5"
     d="m 30.76,306.52377 c -0.07,0.13 -0.1,0.25 0,0.33 a 0.39,0.39 0 0 1 0,-0.33 z"
     id="path276"
     style="fill:#f9a949" />
  <path
     class="cls-5"
     d="m 29.16,337.06377 v 0.05 c 0.09,-0.18 0.07,-0.15 0,-0.05 z"
     id="path278"
     style="fill:#f9a949" />
  <path
     class="cls-5"
     d="m 28,307.45377 a 4.61,4.61 0 0 0 -0.63,0.92 c 0.14,-0.15 0.32,-0.45 0.63,-0.92 z"
     id="path280"
     style="fill:#f9a949" />
  <path
     class="cls-5"
     d="m 27.78,307.49377 c 0.17,-0.24 0.3,-0.44 0.44,-0.6 0.14,-0.16 -0.1,-0.1 -0.44,0.6 z"
     id="path282"
     style="fill:#f9a949" />
  <path
     class="cls-5"
     d="m 26.91,309.66377 a 5.75,5.75 0 0 1 0.5,-1.29 c -0.1,0.15 -0.15,0.21 -0.14,0.16 a 8.55,8.55 0 0 0 -0.36,1.13 z"
     id="path284"
     style="fill:#f9a949" />
  <path
     class="cls-5"
     d="m 16.61,312.36377 0.08,-0.12 c 0.04,-0.63 -0.03,-0.39 -0.08,0.12 z"
     id="path286"
     style="fill:#f9a949" />
  <path
     class="cls-5"
     d="m 20.65,381.67377 v -0.07 0.08 z"
     id="path288"
     style="fill:#f9a949" />
  <path
     class="cls-5"
     d="m 20.1,383.85377 a 2.77,2.77 0 0 1 0.51,-2.13 l -1.43,0.18 z"
     id="path290"
     style="fill:#f9a949" />
  <path
     class="cls-5"
     d="m 6.69,369.76377 0.06,3.68 c -0.89,-2 -1.06,-5.53 -1.12,-1.43 0.44,-0.86 0.77,0.9 1.07,3.11 0.4,-0.35 0.73,-0.6 1,-0.81 a 2.31,2.31 0 0 0 0.4,-0.32 l 0.61,-0.69 a 4.66,4.66 0 0 0 1.13,-2.24 5.34,5.34 0 0 1 0.5,-0.23 c -0.14,0.18 -0.19,0.35 -0.34,0.53 0.49,-0.12 0.69,-0.75 0.92,-1.64 a 7.64,7.64 0 0 1 1.15,-2.87 l 0.19,-0.2 0.21,-0.23 a 1.7,1.7 0 0 1 0.33,-0.26 c 0.09,0 0.14,-0.06 0.15,0.05 a 2,2 0 0 1 -0.16,0.57 c 0.11,-0.22 0.26,-0.61 0.39,-0.91 0.13,-0.3 0.25,-0.6 0.38,-1 l 0.73,-2.06 0.16,-0.31 c 0,-0.06 0.07,-0.07 0.09,-0.1 0.02,-0.03 0.08,0 0.09,0 a 0.58,0.58 0 0 1 -0.06,0.23 7.18,7.18 0 0 1 -0.27,0.67 l 0.24,-0.58 c 0.08,-0.17 0.13,-0.23 0.19,-0.35 0.06,-0.12 0.28,-0.49 0.3,-0.43 0.02,0.06 0.22,-0.1 0.36,-0.16 H 15 a 2.4,2.4 0 0 1 0.37,0 v 0 a 2.7,2.7 0 0 1 1.41,-0.23 c 0.42,0.45 -0.32,0 -0.26,0.23 a 5.54,5.54 0 0 1 1.25,0.37 c 0.18,0.62 -0.84,0.17 -1.5,-0.14 0.18,0.83 0.34,0.83 0.75,0.94 0.41,0.11 1.06,0.31 1.47,1.54 a 6.45,6.45 0 0 0 -0.84,-0.74 4.67,4.67 0 0 0 0.51,1.88 l -0.29,-2.78 a 5.44,5.44 0 0 0 -0.3,2.28 c 0,0.5 0.11,0.95 0.17,1.29 0,-0.13 0,-0.43 0,-0.93 a 5.75,5.75 0 0 1 0.43,-2.55 l 0.21,2.63 c 0.06,-0.64 0.07,-1.39 0.7,-0.8 a 1.89,1.89 0 0 0 0.13,0.35 l -0.21,-1.82 a 3.19,3.19 0 0 0 -0.09,1.91 3.53,3.53 0 0 0 0.55,1.19 c -0.23,0.07 -0.16,0.49 -0.17,0.55 -0.01,0.06 0.15,0.29 0.22,0.51 l -0.7,-0.06 a 1.78,1.78 0 0 0 0.28,0.32 0.84,0.84 0 0 1 0.27,0.4 0.81,0.81 0 0 1 -0.16,0.16 2.94,2.94 0 0 1 -0.26,0.25 1.57,1.57 0 0 1 -0.48,0.27 2.43,2.43 0 0 1 -0.83,0.07 c -1.3,1.54 1.5,-0.64 0.1,1.35 a 23.26,23.26 0 0 0 -3.21,4 c -1,0.72 -0.11,-0.43 -0.56,-0.25 -0.14,0.38 -0.31,0.76 -0.46,1.14 -0.21,0.18 -0.25,0 -0.27,-0.09 -0.56,0.8 0.38,0.53 -0.62,1.67 0.17,0.81 -3,1.28 -3.91,3.1 -0.47,0.16 -0.08,-0.45 -0.35,-0.54 a 22.71,22.71 0 0 0 -2.63,3.66 c -0.69,0.41 -1.42,0.88 -2.2,1.38 1.08,-0.58 1,-0.15 0.8,0.47 0.27,0.63 0.54,1.44 0.77,2.08 l 0.47,-1 0.23,1.05 0.22,1.19 c -0.1,0.29 -0.32,0.06 -0.6,-0.33 l 0.17,0.44 c -0.22,0.86 -0.6,0.42 -1,-0.17 l 0.36,-0.87 c -0.41,-0.54 -0.89,-1.36 -1.26,-1.26 a 5.39,5.39 0 0 1 0.23,1.06 c -0.12,-0.2 -0.22,-0.34 -0.28,-0.24 a 0.51,0.51 0 0 0 0,0.32 l 0.23,0.46 -0.7,0.55 0.29,0.12 -0.2,1.53 v 0.37 c 0,0.14 0,0.22 -0.06,0.45 l -0.13,1.22 a 44.65,44.65 0 0 0 1.08,4.36 1.09,1.09 0 0 1 0.38,0.42 2.36,2.36 0 0 1 0.12,0.28 c 0,0 0,0.07 0,0.07 h 0.14 0.28 a 6.66,6.66 0 0 0 1.15,-0.17 6.36,6.36 0 0 0 1.16,-0.34 c -1,0.76 -0.49,0.92 -0.72,1.59 A 3.85,3.85 0 0 0 5,397.85377 H 4.36 c -0.09,0 -0.27,0 -0.3,0 l -0.12,-0.12 c -0.16,-0.15 -0.42,-0.31 -0.66,-0.49 0,-0.41 0,-0.85 0.09,-1.33 -0.18,1.5 -0.49,1.59 -0.57,1.3 v 0.55 a 4.84,4.84 0 0 1 0.61,0.21 5,5 0 0 0 0.46,0.24 14.83,14.83 0 0 0 1.94,-0.19 c -0.31,0.51 0.68,0.4 1.69,0.38 -0.14,-0.21 0,-0.41 0.27,-0.61 0.27,-0.2 0.72,-0.38 1.19,-0.67 a 9,9 0 0 0 2.69,-2.09 c 0.13,0.12 0.16,0.31 -0.08,0.67 a 3.91,3.91 0 0 1 -0.59,0.64 6.5,6.5 0 0 1 -1.13,0.74 3.27,3.27 0 0 0 2.15,-1.9 4.3,4.3 0 0 1 1.51,-2.09 c -0.27,0.33 -0.44,0.46 -0.43,0.71 0.45,-0.94 2,-2.71 1.91,-2.1 -0.07,0.12 -0.15,0.23 -0.23,0.35 a 23.56,23.56 0 0 0 2.68,-4.52 c 0.72,-1.63 1.1,-3.08 0.8,-3.43 a 3.64,3.64 0 0 1 0.87,1 c -0.19,-1.87 -0.45,-3.69 -0.78,-5.48 0.52,0.66 2.75,-0.22 2.3,2 a 6.64,6.64 0 0 0 1,-2.61 c -0.26,0.37 -1.37,0.64 -1.23,0.07 a 13.53,13.53 0 0 0 2.12,-2.58 c -0.36,0.57 -1.21,-0.49 -0.85,-1.44 0.11,0.21 1.1,0.27 1.09,0.67 -0.09,-0.93 -0.18,-1.86 -0.3,-2.78 0,0.67 0.88,0.39 1.35,-0.07 -0.28,0.2 0.65,-2.12 0.72,-2.81 l -0.55,1 c 0.94,-2.74 -0.76,-3.15 0,-5.88 0.15,0.39 1.21,1.16 1.67,-0.23 -0.41,-0.79 -2.06,-3.47 -2.11,-5.93 l 0.4,-0.41 -0.1,-2 a 28.57,28.57 0 0 1 1.3,3.2 24.6,24.6 0 0 1 1,3.71 c 0.47,-1 0.45,-0.21 0.73,-1.82 0.41,-0.52 0.29,1 0.21,1.44 0.32,-1.24 0.62,-2.46 0.89,-3.77 -0.34,0 -0.38,-0.75 -0.46,-1.45 -0.08,-0.7 -0.08,-1.38 -0.36,-1.36 0,0.65 0,1.29 0.06,2 0.06,0.71 0,1.44 0,2.13 -0.35,0 -0.7,-0.64 -0.93,-1.66 a 7.6,7.6 0 0 1 0,-3.53 c 0.39,-0.58 1.07,0.71 1.31,0.69 a 4.81,4.81 0 0 1 0.33,-2.54 c 0,0.37 0,0.73 0.07,1.09 0.57,-1.22 -0.24,-2.35 1,-3.79 0.26,-0.55 1.46,-1.53 1.11,-1.77 -1.07,0.81 -3.36,0.12 -3.7,-0.65 0.06,-0.08 0.48,-0.74 0.9,-1.48 0.42,-0.74 0.84,-1.58 1.09,-1.89 0.77,-0.91 1.14,1.76 1.8,1 -0.18,-0.07 -0.29,-0.68 -0.33,-0.93 0.26,-0.63 0.53,0.37 0.65,-1.08 -0.63,-0.33 0.38,-2.89 -0.48,-0.75 0,-1.4 0.3,-1.45 0.37,-3.08 -0.46,0.48 -1.41,-1.53 -1.6,-2.86 0.17,0.08 0.4,-0.22 0.5,-0.37 0.07,-2.78 0.35,-4.28 0.34,-6.87 0.16,-0.24 0.35,-1.49 0.65,-1 a 3.9,3.9 0 0 1 -0.38,-1.51 c 0.59,-1.55 0.1,1.78 0.81,0.59 -0.4,-0.09 -0.55,-2.06 -0.8,-3.2 -0.62,0.36 -0.12,2.64 0.13,3.77 -0.84,0 -1.73,-2 -2.12,-4.68 -0.22,-2.15 0.54,-0.93 0.42,-1.31 0.14,-4.05 -1.49,-3.44 -0.85,-6.83 0.56,-1.34 1.07,0 1.46,-0.33 0.18,1.76 -0.36,2.69 -0.35,3.88 l 0.26,-1.46 a 5.68,5.68 0 0 1 0.16,2.37 18.94,18.94 0 0 0 0.3,-4.23 18.75,18.75 0 0 1 0.66,-5.61 c -0.09,-0.56 0.14,-1.5 -0.24,-1.17 a 6.67,6.67 0 0 0 -0.24,1 c -0.31,0.4 -0.36,-0.09 -0.35,-0.57 0.01,-0.48 0.11,-0.92 -0.23,-0.28 a 5.75,5.75 0 0 1 3,-4.47 l 0.66,0.3 c -0.13,-0.16 -1.35,0.46 -1.64,1 a 3.65,3.65 0 0 1 1.74,-1 c 0.74,-0.29 1.46,-0.52 1.74,-1.07 a 13.41,13.41 0 0 0 -1.49,0.22 9.11,9.11 0 0 1 4.56,-2.34 c -0.91,-0.41 -0.35,0.14 -1.78,-0.22 0.66,0.29 -0.46,0.54 -1.54,0.94 -1.08,0.4 -2,0.94 -1,0.91 a 3.41,3.41 0 0 0 -2.08,0.55 l -2.41,1.37 c 0.21,0.1 0.75,-0.34 -0.47,1.06 0,0.11 -0.06,0.32 -0.09,0.46 l -0.09,0.1 0.08,-0.08 c 0,0.09 0,0.1 0,0 a 1.93,1.93 0 0 1 0.8,-0.58 c -0.09,0.47 -0.56,1.31 -0.84,2.25 a 6.23,6.23 0 0 0 -0.29,2.22 c -0.22,0.9 -0.17,-0.42 -0.46,0.05 0.07,0.44 0.14,0.85 0.24,1.25 -0.47,0.09 -0.88,2.28 -1,0.2 0,0.63 -0.08,1.24 -0.11,1.84 a 8.6,8.6 0 0 0 -0.21,3.38 c -0.1,0.82 0.49,2.09 0.14,1.36 l 0.29,2.75 h -0.11 c 0,2.7 0.74,5.57 0,8.67 a 13.92,13.92 0 0 1 0.15,3.36 l -0.38,0.3 c 0.15,1.17 -0.39,3.45 0,3.92 -0.54,0.6 -0.64,1.9 -0.72,3.33 a 17.65,17.65 0 0 1 -0.41,3.77 l 0.49,0.17 c -0.29,1.25 -0.47,2.34 -0.9,4 l 0.46,0.06 a 11.73,11.73 0 0 1 -1,2.77 15.61,15.61 0 0 0 -1.08,3.57 c -0.14,-0.2 0,-0.83 0.21,-1.26 a 8.75,8.75 0 0 0 -0.82,4.42 8.81,8.81 0 0 1 -0.68,4 2.91,2.91 0 0 1 -0.34,1.49 0.92,0.92 0 0 0 0,-0.16 l -0.07,0.26 c -0.14,0.25 -0.29,0.51 -0.44,0.79 a 3.51,3.51 0 0 0 0.41,-0.66 16.63,16.63 0 0 0 -0.29,1.94 l -0.55,0.18 v 0.17 c -0.34,0.64 0.08,0.61 0.53,0.33 a 5.39,5.39 0 0 0 0,1 c -0.9,0.36 -0.26,1.92 -1.28,2.45 0.26,0.59 -0.78,3.58 -0.12,4.21 -0.11,0 -0.23,0.18 -0.11,-0.2 a 5.88,5.88 0 0 0 -0.73,2.25 l -0.7,0.12 0.15,1.95 c -0.75,0.87 -1.11,1.19 -1.16,0 -0.29,2.66 -0.52,2 -0.76,4.33 l -0.31,-0.27 c -0.32,0.71 -0.39,2.07 -0.9,2.34 -0.73,0.6 -1.74,2.5 -3.17,4.44 a 17,17 0 0 1 -1.14,1.43 c -0.19,0.23 -0.28,0.29 -0.43,0.45 a 4.59,4.59 0 0 1 -0.41,0.36 2.22,2.22 0 0 1 -1.64,0.62 c 0,0.81 -0.25,0.7 -0.51,0.55 -0.26,-0.15 -0.43,-0.53 -0.94,0.17 0,-0.11 0,-0.21 0.06,-0.3 a 1.68,1.68 0 0 1 0.15,-0.34 2.13,2.13 0 0 1 0.17,-0.25 l 0.08,-0.08 0.14,-0.09 c -0.1,0.05 -0.06,0 -0.08,-0.06 a 0.53,0.53 0 0 1 0,-0.13 1.6,1.6 0 0 1 0,-0.3 c 0,-0.32 0.13,-0.63 0.14,-0.84 0.01,-0.21 -0.06,-0.36 -0.35,-0.57 0.28,-0.18 0.41,0.09 0.57,-0.07 -0.06,0 -0.23,-0.21 -0.07,-0.32 0.16,-0.11 0.23,0.1 0.35,0.16 a 4.13,4.13 0 0 0 -0.57,-1.48 1.79,1.79 0 0 0 -1.14,-0.57 3.76,3.76 0 0 0 0.19,-1.5 1,1 0 0 0 -0.15,-0.47 5,5 0 0 0 -0.34,-0.49 c 0.25,-0.28 0.5,-0.54 0.65,0.35 v -0.66 l 0.58,-0.45 0.29,-0.24 0.46,-0.42 c 0.58,-0.54 1,-1 0.86,-1.22 0.3,0 0.92,-0.72 1,-0.91 1.45,-1.19 1.62,-1.25 3,-2.51 l -0.46,0.26 c 0,-1.07 1,-1.14 2.1,-2.22 v 0.09 c 2.91,-2 0.92,-1.17 3.79,-3.16 l -0.4,-0.09 c -0.53,-0.91 2.53,-1.78 3.44,-3.7 l -0.66,0.41 a 1.6,1.6 0 0 1 0.64,-0.72 c 0.32,-0.24 0.64,-0.39 1.1,-0.7 a 8.7,8.7 0 0 0 1.33,-1.11 l 0.57,-0.62 0.23,-0.31 c 0.07,-0.1 0,-0.21 0,-0.31 0,-0.1 0.08,0 0.16,0.22 a 3.58,3.58 0 0 1 -0.27,0.82 l 0.44,-0.66 c 0.09,-0.21 0,-0.41 0,-0.57 a 4,4 0 0 0 -0.15,-0.72 c -0.11,-0.31 -0.23,-0.33 -0.36,-0.32 -0.13,0.01 -0.53,0.17 -1.2,-1.22 0,-0.32 0.32,-0.24 0.49,-0.31 a 0.36,0.36 0 0 0 0.16,-0.23 1.58,1.58 0 0 0 0,-0.46 0.14,0.14 0 0 0 0,-0.06 v 0 h -0.07 -0.16 a 4,4 0 0 1 -1.81,0 l 1.67,-1.55 a 15.65,15.65 0 0 0 -2.15,-2.18 c -0.83,-0.72 -1.69,-1.36 -2.35,-2 0.33,0.52 0.6,1 -0.5,0.54 a 11.47,11.47 0 0 0 -3.29,-1.4 h -0.09 -0.3 a 10.25,10.25 0 0 0 -1.11,0.17 6.35,6.35 0 0 0 -1,0.46 2.16,2.16 0 0 0 -0.4,0.4 2,2 0 0 0 -0.09,0.42 0.15,0.15 0 0 1 -0.16,-0.1 17.57,17.57 0 0 0 -0.9,3.63 c 0,-1 -0.16,-0.69 -0.51,0.08 -0.09,0.2 -0.2,0.42 -0.32,0.65 l -0.21,0.35 c 0,0 -0.08,0.15 -0.09,0.14 v -0.05 a 1.2,1.2 0 0 1 -0.23,-0.52 3.65,3.65 0 0 1 0.24,-1.92 l -0.38,-1.65 0.14,-0.16 a 1.83,1.83 0 0 0 -0.86,-1.63 c 0.08,-0.36 0.24,-0.16 0.32,-0.17 l 0.07,-0.63 0.07,-0.74 c 0,-0.47 0.07,-0.85 0.08,-1.22 v -0.92 a 3.71,3.71 0 0 0 0,-0.47 l -0.34,-1.67 0.52,-0.24 c -0.23,-0.77 1.19,-4.46 1.44,-7.45 0,0 0.12,0.13 0.13,0.37 a 9.32,9.32 0 0 1 2.1,-4.71 c 0.48,-0.6 0.92,-1 1.2,-1.4 a 2,2 0 0 0 0.32,-0.54 2.33,2.33 0 0 0 0.08,-0.31 1.59,1.59 0 0 0 0.09,-0.39 c 0.6,-0.5 1.29,-1 1.94,-1.67 -1.47,0.88 -1.43,0.56 -1.24,0.22 0.19,-0.34 0.55,-0.87 -0.07,-0.66 a 17,17 0 0 1 1.65,-0.94 c 0.44,-0.24 0.71,-0.23 0.12,0.43 l -0.25,0.11 c 0,0.27 0.27,0.27 0.62,0.05 a 3.68,3.68 0 0 0 1.14,-1.31 c 0.68,-1.19 0.52,-2.68 0.84,-2.65 a 10.6,10.6 0 0 0 -0.63,-2.62 l -0.42,-1.11 c -0.07,-0.18 -0.08,-0.22 -0.12,-0.34 v -0.4 c -0.08,-0.7 -0.18,-1.39 -0.23,-2.08 v -2.07 a 32.66,32.66 0 0 1 1.35,-7.94 l -0.88,0.41 0.55,-1.82 c 0.35,-0.41 0.72,-0.45 0.34,0.81 a 2.89,2.89 0 0 0 0.23,-2.33 c 0.58,-1.2 0.72,-0.87 0.7,-0.36 -0.02,0.51 -0.09,1.23 0,0.86 0.09,-0.37 0.19,-0.7 0.31,-1 l -0.17,0.2 a 4.56,4.56 0 0 1 0.47,-2.62 c 0.57,-0.88 0.63,-0.29 0.83,-0.65 0,0 0.13,-0.09 0.29,-0.55 0.34,-0.72 0.76,-1.41 1.14,-2.12 l -1,0.6 c 0.24,-1.09 1.09,-2 0,-1.33 0.83,-0.5 2,-2.44 3.17,-4.33 a 38.42,38.42 0 0 1 2.64,-4.12 11,11 0 0 1 0.94,-2.18 c 0.2,-0.36 0.41,-0.72 0.64,-1.09 l 0.35,-0.57 a 3.2,3.2 0 0 0 0.42,-0.78 c -0.14,0.28 -0.45,0.39 -0.55,0.23 a 2.22,2.22 0 0 1 0.21,-1.43 0.41,0.41 0 0 0 0.7,-0.12 3.33,3.33 0 0 0 0.4,-1.37 c 0.18,-1.16 0,-2.49 0.37,-3.28 -0.21,0.69 -0.44,-0.57 -0.77,-1.64 -0.33,-1.07 -0.69,-2 -0.9,-1 -0.24,-1.36 0.46,-0.21 0.5,-1.3 a 17.77,17.77 0 0 1 -1,-10 c -0.16,-0.1 -0.56,0.42 -0.64,-0.38 0.2,-0.24 0.45,-0.56 0.69,-0.82 0.24,-0.26 0.47,-0.53 0.72,-0.77 0.17,-0.69 -0.73,-1 0.38,-2 -0.21,0.11 -0.53,0.27 -0.38,-0.2 a 22.69,22.69 0 0 1 5.54,-6.37 c 0.28,-0.21 0.58,-0.4 0.87,-0.58 l 0.46,-0.27 a 4.77,4.77 0 0 0 0.61,-0.36 20.44,20.44 0 0 1 1.92,-1.12 c 0.31,-0.17 0.69,-0.35 1,-0.47 0.31,-0.12 0.44,-0.19 0.66,-0.27 l 0.65,-0.21 0.32,-0.08 h 0.15 c 0,0 0,0.11 0.08,0.16 a 5.83,5.83 0 0 0 0.32,0.72 l 0.16,0.33 0.08,0.15 c 0,0.05 0.14,0.19 0.2,0.29 a 21.09,21.09 0 0 0 2,2.3 c -0.8,-1 -0.11,-0.52 0.66,0 -0.45,-0.41 0.25,-0.35 0.28,-0.62 a 28.24,28.24 0 0 0 2.78,2.3 c 0.42,-0.16 1.26,0.21 2,0.57 0.74,0.36 1.25,0.68 1.51,0.51 a 5.43,5.43 0 0 0 -0.76,-0.36 c 0.7,0 0.6,-0.58 0.22,-1.28 -0.38,-0.7 -0.89,-1.44 -0.59,-1.83 a 3.9,3.9 0 0 1 -2.51,-1.44 6.69,6.69 0 0 0 -2.81,-1.87 c -0.22,-0.49 0.51,0.06 0.48,-0.28 a 1.63,1.63 0 0 1 -1,-0.44 7.48,7.48 0 0 1 -1.31,-2.2 l 0.18,0.1 c -0.2,-0.34 -0.38,-0.67 -0.5,-0.91 -0.12,0 -0.21,-0.09 -0.35,-0.05 l -0.43,0.14 -0.83,0.27 -1.54,0.51 c -0.5,0.17 -1,0.36 -1.45,0.54 l -1.1,0.44 c -0.72,0.29 -1.45,0.62 -2.26,1 a 2.2,2.2 0 0 1 -0.44,0.2 l -0.71,0.33 a 14.9,14.9 0 0 0 -1.5,0.86 l 0.59,0.16 a 14.47,14.47 0 0 1 -1.68,0.88 c -0.24,0.69 0.34,0.17 1,-0.29 0.66,-0.46 1.32,-0.87 1.07,-0.23 -0.87,0 -2.44,1.19 -3.67,2.59 -1.23,1.4 -2.19,2.89 -2.91,3.05 -0.82,1.48 0.7,-0.16 -0.08,1.3 l -0.46,0.27 0.16,0.54 c -0.5,0.95 -1,1.34 -1.28,1.29 a 9.93,9.93 0 0 0 0.31,-1 6.9,6.9 0 0 0 -1,2.44 c -0.19,0.78 -0.3,1.73 -0.42,1.95 0.2,-0.54 0.4,-1.18 0.59,-1.6 l -0.08,0.4 -0.1,0.46 -0.19,1 c -0.09,0.64 -0.15,1.3 -0.19,2 a 20.94,20.94 0 0 0 0.28,3.83 28.88,28.88 0 0 0 1.91,6.51 l 0.14,-0.34 a 7,7 0 0 1 0.67,2.61 c 0,0.61 0.06,1.28 0.14,2.68 l -0.05,-0.11 a 4.41,4.41 0 0 1 0.14,0.47 c 0,0.16 0,0.32 0,0.49 a 2.37,2.37 0 0 1 0,0.53 l -0.15,0.48 c 0,-0.31 -0.24,-0.09 -0.43,0 a 2.58,2.58 0 0 1 -0.31,0.13 c -0.1,0 -0.08,-0.13 -0.09,-0.26 a 2.64,2.64 0 0 1 -0.17,0.43 l -0.19,0.43 -0.25,0.62 a 2.36,2.36 0 0 0 -0.17,0.65 7,7 0 0 1 -0.17,1.66 l -0.59,0.23 a 4.61,4.61 0 0 1 -0.88,2.45 c 0.46,-1.34 -1,0.62 -0.59,-0.92 -2.56,2.6 -2.05,4.93 -3.88,5.78 0.08,1.93 2,-2.42 1.77,-1.5 0.68,-0.49 0,1.55 -0.65,2.48 a 5.41,5.41 0 0 1 -1.4,1.16 6,6 0 0 0 -1.94,2.49 c 0.13,-0.26 0.06,-0.31 0.19,-0.58 a 4.75,4.75 0 0 0 -0.68,1.52 4.45,4.45 0 0 1 -0.8,1.68 c 0.26,0.91 -0.66,1.65 0,2.11 0.22,-0.87 0.5,-1.72 0.79,-2.57 a 15.41,15.41 0 0 0 -0.3,2.4 9.15,9.15 0 0 1 -0.83,3 5.65,5.65 0 0 1 -0.08,-1.53 c -0.42,0.64 -0.23,1.41 -0.66,2.08 -0.36,-0.2 -0.18,-1 0.08,-2 a 12.92,12.92 0 0 0 0.69,-3 c -0.61,0.64 -0.5,3.15 -1,2.09 0.68,1.46 -1,2.83 -0.55,5 l -0.44,-0.21 v 0.71 a 4,4 0 0 1 0,0.91 c -0.15,-0.38 -0.33,-0.78 -0.46,-1.17 a 5.44,5.44 0 0 1 -0.3,2.45 6,6 0 0 0 -0.29,2.42 c 0.1,-3.42 0.59,-0.75 1,-2.15 a 4.86,4.86 0 0 1 -0.42,3.31 4.36,4.36 0 0 0 -0.43,1.26 7.2,7.2 0 0 0 -0.09,1 c 0,0.42 0.11,0.9 0.22,1.49 a 4.44,4.44 0 0 1 0,-1.33 c 0,-0.4 0.2,-0.6 0.34,-0.12 0.14,0.48 0,1 0,1.45 0,0.45 -0.06,0.9 -0.12,1.36 a 2.81,2.81 0 0 0 0.28,0.76 l 0.18,0.38 a 1,1 0 0 0 0.2,0.28 c 0.09,0.08 0.11,0 0.12,-0.21 0.01,-0.21 -0.06,-1 0.35,-0.37 -0.2,1.08 0.73,1.11 1.13,2 l -0.47,0.1 c 0,0.28 0,0.43 0,0.53 a 0.63,0.63 0 0 0 0,0.26 0.67,0.67 0 0 0 0.26,0.29 0.42,0.42 0 0 1 0.22,0.32 0.91,0.91 0 0 1 -0.47,0.69 1.82,1.82 0 0 0 -0.19,-0.89 1.71,1.71 0 0 1 -0.28,0.66 2.3,2.3 0 0 0 -0.3,-0.48 1.11,1.11 0 0 1 -0.29,0.54 2.55,2.55 0 0 1 -0.51,0.41 14.23,14.23 0 0 1 -1.64,0.77 c 0.25,0.06 0.34,0.25 0.12,0.59 a 12.64,12.64 0 0 1 -1.32,1.44 c -0.52,0.33 -0.48,0.14 -0.53,0.09 -0.05,-0.05 -0.22,0 -0.91,1 a 2,2 0 0 1 1.34,-1.9 c 0,-0.19 0.27,-0.63 0.3,-0.83 a 5.12,5.12 0 0 0 -1.89,1.64 13.77,13.77 0 0 0 -1,1.69 3.75,3.75 0 0 1 0.61,-0.77 15.53,15.53 0 0 0 -1,3.34 c -0.36,0.41 -0.34,0 -0.32,-0.45 -0.21,0.64 -0.17,1.15 -0.43,2.07 -0.28,-0.36 -0.72,-0.42 -0.39,-1.82 a 27.33,27.33 0 0 0 -0.56,3.12 c -0.22,0.15 -0.83,1.41 -0.88,1 -0.63,1.64 -0.05,4.18 -0.56,6.29 a 2.28,2.28 0 0 1 0.13,0.82 c -0.07,0.5 -0.15,1 -0.23,1.48 l -0.12,0.7 a 0.42,0.42 0 0 1 0,0.1 0.63,0.63 0 0 0 0,0.15 l -0.05,0.21 a 9.12,9.12 0 0 0 -0.2,1.76 11.53,11.53 0 0 0 0.23,2.16 20.54,20.54 0 0 0 -0.49,2.48 c 0.3,1.57 0.39,0.62 0.55,0 0.16,-0.62 0.35,-0.86 0.81,1.28 0.72,2.93 -0.31,1.76 -0.27,3.17 a 14.89,14.89 0 0 1 1,2.72 19.82,19.82 0 0 1 0.54,5.08 c -0.33,-0.65 -0.37,-1.84 -0.55,-2.81 z m 12.35,-5 c -0.26,-0.25 -0.89,-0.57 -0.84,-0.93 0.67,-0.04 0.68,0.38 0.8,0.95 z m -14.77,25.41 a 2,2 0 0 1 0.09,-1.37 3.87,3.87 0 0 1 -0.09,1.37 z m 22.45,-74.21 v 0.05 c -0.18,0.98 -0.1,0.63 0,-0.05 z m 0.26,-2.05 c -0.06,-0.21 -0.13,-0.21 -0.2,-0.12 a 2.24,2.24 0 0 1 0.06,1.15 c 0.16,-0.15 0.23,-0.41 0.16,-1.03 z m -5,-6.21 -0.27,0.29 c 0.22,-0.83 0.23,-0.56 0.29,-0.29 z"
     id="path292"
     style="fill:#f9a949" />
  <path
     class="cls-5"
     d="m 3.49,386.12377 a 0.35,0.35 0 0 1 0.25,-0.22 c -0.1,-0.24 -0.2,-0.28 -0.25,0.22 z"
     id="path294"
     style="fill:#f9a949" />
  <path
     class="cls-5"
     d="m 5.33,350.69377 v -0.07 a 0.2,0.2 0 0 0 -0.08,-0.08 z"
     id="path296"
     style="fill:#f9a949" />
  <path
     class="cls-5"
     d="m 30.44,345.35377 a 2.46,2.46 0 0 1 -0.39,0.78 c 0.11,0.05 0.25,-0.13 0.39,-0.78 z"
     id="path298"
     style="fill:#f9a949" />
  <path
     class="cls-5"
     d="m 33,302.85377 a 13.76,13.76 0 0 0 -1.4,0.85 3.55,3.55 0 0 1 1.37,-0.53 c -0.08,-0.14 -0.43,-0.16 0.03,-0.32 z"
     id="path300"
     style="fill:#f9a949" />
  <path
     class="cls-5"
     d="m 43.94,301.10377 a 1.94,1.94 0 0 0 0,-0.59 h -0.26 c 0,0.38 -0.06,0.7 0,0.85 0.06,0.15 0.13,0.14 0.26,-0.26 z"
     id="path302"
     style="fill:#f9a949" />
  <path
     class="cls-5"
     d="m 34.86,303.85377 c 0.23,0.35 1,-0.05 1.89,-0.34 a 0.42,0.42 0 0 1 -0.16,0 c 0.14,-0.66 -0.8,-0.22 -1.73,0.34 z"
     id="path304"
     style="fill:#f9a949" />
  <path
     class="cls-5"
     d="m 37,303.40377 a 5.9,5.9 0 0 1 0.83,-0.2 c 0.01,-0.24 -0.39,0.03 -0.83,0.2 z"
     id="path306"
     style="fill:#f9a949" />
  <path
     class="cls-5"
     d="m 26.94,311.11377 c 0.18,-0.48 -0.47,-0.4 -0.25,-0.67 -0.2,-0.35 -0.22,0.59 -0.09,1.15 0.13,0.56 0.31,0.87 0.34,-0.48 z"
     id="path308"
     style="fill:#f9a949" />
  <path
     class="cls-5"
     d="m 36,304.85377 -0.46,-0.39 -0.36,0.55 z"
     id="path310"
     style="fill:#f9a949" />
  <path
     class="cls-5"
     d="m 29.91,308.54377 a 7.13,7.13 0 0 1 1,-1.09 c -0.08,-0.05 0,-0.22 0.15,-0.41 -0.65,0.62 -1.31,1.44 -1.15,1.5 z"
     id="path312"
     style="fill:#f9a949" />
  <path
     class="cls-5"
     d="m 31.09,307.04377 a 8.18,8.18 0 0 0 0.88,-0.85 5.28,5.28 0 0 0 -0.88,0.85 z"
     id="path314"
     style="fill:#f9a949" />
  <path
     class="cls-5"
     d="m 34.19,305.65377 -0.43,0.08 c -0.3,0.14 -0.61,0.29 -0.9,0.46 a 9.5,9.5 0 0 1 1.33,-0.54 z"
     id="path316"
     style="fill:#f9a949" />
  <path
     class="cls-5"
     d="m 28.57,324.01377 0.15,1.57 c 0.17,0.16 0.27,-0.27 0.2,-0.86 -0.12,-0.37 -0.19,-0.95 -0.35,-0.71 z"
     id="path318"
     style="fill:#f9a949" />
  <path
     class="cls-5"
     d="m 29.93,319.26377 a 1.36,1.36 0 0 1 -0.38,0.69 h 0.62 z"
     id="path320"
     style="fill:#f9a949" />
  <path
     class="cls-5"
     d="m 30.09,323.85377 c 0.17,0.16 0.5,2.28 0.45,0.29 -0.17,-0.18 -0.32,-1.75 -0.45,-0.29 z"
     id="path322"
     style="fill:#f9a949" />
  <polygon
     class="cls-5"
     points="99.34,450.03 100.25,450.62 100.35,450.22 "
     id="polygon324"
     style="fill:#f9a949"
     transform="translate(-72,-103.14623)" />
  <path
     class="cls-5"
     d="m 25.72,368.28377 c 0.7,-1.79 -0.5,-0.59 0.2,-2.19 -0.13,-0.48 -0.57,1.31 -0.66,0.81 -0.03,1.17 -0.33,1.72 0.46,1.38 z"
     id="path326"
     style="fill:#f9a949" />
  <path
     class="cls-5"
     d="m 25.26,366.90377 c 0,-0.18 0,-0.38 0,-0.6 a 2.89,2.89 0 0 0 0,0.6 z"
     id="path328"
     style="fill:#f9a949" />
  <path
     class="cls-5"
     d="m 50.87,264.76377 a 4.93,4.93 0 0 1 0.69,0.63 2.76,2.76 0 0 0 -0.31,-0.58 z"
     id="path330"
     style="fill:#f9a949" />
  <path
     class="cls-5"
     d="m 52.51,264.91377 c 0,0 -0.13,0.1 -0.09,0.07 l 0.09,-0.06 a 1.06,1.06 0 0 1 0.2,-0.12 c 0.24,-0.13 0.28,-0.07 0.11,-0.09 h 0.12 -0.08 a 1.23,1.23 0 0 0 -0.26,0.13 l -0.13,0.08 a 0.05,0.05 0 0 0 0.04,-0.01 z"
     id="path332"
     style="fill:#f9a949" />
  <path
     class="cls-5"
     d="m 18.33,367.31377 h 0.16 c 0.16,-0.06 0.16,-0.08 0.13,-0.23 a 0.51,0.51 0 0 1 -0.29,0.23 z"
     id="path334"
     style="fill:#f9a949" />
  <path
     class="cls-5"
     d="m 11.76,369.63377 0.18,-0.21 a 7.27,7.27 0 0 1 -0.35,-0.75 z"
     id="path336"
     style="fill:#f9a949" />
  <path
     class="cls-5"
     d="m 4.59,363.93377 c 0.17,1.06 0.49,2.11 0.63,3.2 -0.46,-2.23 -0.05,-4.09 -0.63,-3.2 z"
     id="path338"
     style="fill:#f9a949" />
  <path
     class="cls-6"
     d="m 224.42,20.19377 a 5.26,5.26 0 0 1 -3.33,-1.06 31.07,31.07 0 0 0 -3.76,6.82 31.4,31.4 0 0 1 -3.77,6.13 18.77,18.77 0 0 1 -6.61,5 c -4.18,2 -7.43,2 -10.94,2.39 -8.89,0.2 -16.18,6.2 -21.35,12.919997 -5.17,6.72 -0.17,14.15 1.73,21 -15,-7.11 -34,2.42 -41,18.46 a 25.23,25.23 0 0 0 -0.4,6.68 c 0.3,7.000003 1.67,14.580003 -5.28,19.270003 -5.56,3.75 -11.9,1.56 -17.72,3.32 -11.51,4.53 3.84,21.69 -5.82,25 -9.519998,4.27 -28.999998,1.77 -28.169998,19.24 a 14.55,14.55 0 0 0 3.77,9.21 c 1.62,1.83 3,3.17 2.51,4.66 -0.71,2.23 -4.6,2.07 -9,2.15 -6.83,-0.08 -15.620002,2.08 -14.480002,10.52 a 45.06,45.06 0 0 0 1.6,8.42 c 1.470002,5.91 2.930002,12.18 -0.56,17.43 -2.77,4.16 -7.07,5.3 -11.31,6.41 a 34.3,34.3 0 0 0 -6.12,2 c -4.1,2.17 -5.7,5.4 -6.72,10.06 a 22.08,22.08 0 0 0 0.5,6.56 53,53 0 0 0 5,13 c -2.15,-4.56 -0.14,-9.76 1,-12.81 0.61,-1.57 2.89,-7.47 8.59,-11 8.39,-5.19 14.940002,0.48 18.740002,-3.65 3.42,-3.72 -0.5,-9.78 0.08,-28.76 0.11,-3.59 0.33,-6.15 2.2,-7.85 4.4,-4 11.95,2.08 16,-1.08 2.87,-2.24 1.59,-7.28 0.52,-12.93 a 40.36,40.36 0 0 1 -0.94,-8.66 c 0.76,-6.69 5.93,-13.42 13.869998,-14.46 a 31.06,31.06 0 0 1 9.12,-1.15 c 2.36,-0.05 4.12,-0.21 5.62,-1.78 1.16,-1.21 1.29,-2.38 1.37,-4.21 a 35.88,35.88 0 0 1 1.06,-8.23 c 1.18,-6.18 5.84,-16.87 14.95,-12.16 3.1,0.86 5.91,1.79 7.66,0.15 2.43,-2.26 -0.28,-6.54 -1.45,-13.74 a 36,36 0 0 1 -0.41,-8.2 37.42,37.42 0 0 1 3.82,-14.000003 c 5.1,-10.32 16.23,-17.82 28.51,-16.4 4,-0.52 5.56,-3.75 6.17,-6.86 -0.69,-13 8.79,-25.349997 22.07,-24.059997 a 25.81,25.81 0 0 1 10.85,3.389997 c 2.74,1.42 4.66,2.52 5.92,1.48 2.48,-2 -2.47,-8.339997 0,-15.129997 a 12.53,12.53 0 0 1 4.11,-5.47 50.61,50.61 0 0 1 6.74,-4.29 c 2.31,-1.24 4.67,-2.31 7.06,-3.31 a 115.56,115.56 0 0 0 18.66,-9.44 c -9.47,4.95 -19.73,8.68 -30.66,9.02 z"
     id="path340"
     style="fill:#f49c45" />
  <path
     class="cls-5"
     d="m 225.48,22.58377 c -1.25,0 -0.79,0.42 -1,0.5 2.12,-0.23 0.93,-0.61 1,-0.5 z"
     id="path342"
     style="fill:#f9a949" />
  <path
     class="cls-5"
     d="m 245,17.33377 -0.27,0.29 c 0.87,-0.49 1.74,-1 2.59,-1.48 -0.75,0.41 -1.53,0.8 -2.32,1.19 z"
     id="path344"
     style="fill:#f9a949" />
  <path
     class="cls-5"
     d="m 248.7,13.10377 c 1.3,-0.14 3.56,-1.71 5.74,-3.1999998 l 1.35,2.3499998 a 22.51,22.51 0 0 1 -3,1.51 l -0.56,0.1 -1.11,1.16 c 1.52,-0.73 3.16,-1.67 4.74,-2.59 L 254.3,9.7237702 a 43.74,43.74 0 0 1 -5.6,3.3799998 z"
     id="path346"
     style="fill:#f9a949" />
  <path
     class="cls-5"
     d="m 239.41,15.99377 c 0.65,0 -1.78,1.07 2.06,-0.85 a 3.77,3.77 0 0 1 -0.39,0.11 c -0.35,0.16 -0.83,0.39 -1.67,0.74 z"
     id="path348"
     style="fill:#f9a949" />
  <path
     class="cls-5"
     d="m 241.08,15.25377 c 1.69,-0.81 -1.22,0.31 0,0 z"
     id="path350"
     style="fill:#f9a949" />
  <path
     class="cls-5"
     d="m 233,18.90377 c 0.78,-0.44 1.51,-0.84 2.34,-1.28 -0.62,0.08 -2.75,1 -2,0.52 -2.48,1.23 -1.89,1.16 -0.34,0.76 z"
     id="path352"
     style="fill:#f9a949" />
  <path
     class="cls-5"
     d="m 230.91,20.43377 1.19,-0.68 a 2.58,2.58 0 0 0 -1.19,0.68 z"
     id="path354"
     style="fill:#f9a949" />
  <path
     class="cls-5"
     d="m 234.65,18.38377 c -0.85,0.44 -1.7,0.9 -2.55,1.37 0.4,-0.05 0.53,0.14 1.18,-0.62 -0.13,0.29 0.3,-0.13 1.37,-0.75 z"
     id="path356"
     style="fill:#f9a949" />
  <path
     class="cls-5"
     d="m 236.2,17.85377 c 1.37,-0.38 3.07,-1 0.85,0.2 2.19,-1 3.05,-1.53 2.84,-1.57 a 18.11,18.11 0 0 0 -3.69,1.37 z"
     id="path358"
     style="fill:#f9a949" />
  <path
     class="cls-5"
     d="m 248.24,14.19377 1.77,-0.73 1.31,-1 c -0.65,0.5 -3.32,1.6 -3.08,1.73 z"
     id="path360"
     style="fill:#f9a949" />
  <path
     class="cls-5"
     d="m 218.33,27.85377 c 0,0.23 1,-0.51 1.31,-0.51 a 15.6,15.6 0 0 1 1.56,-1.59 10.07,10.07 0 0 0 -0.84,0.58 c -0.29,0.21 -0.6,0.45 -0.87,0.68 a 4.89,4.89 0 0 1 -1.16,0.84 z"
     id="path362"
     style="fill:#f9a949" />
  <path
     class="cls-5"
     d="m 219.64,27.30377 a 15,15 0 0 0 -1.94,2.76 c 0.85,-1.26 1.46,-1.89 1.75,-2.28 0.29,-0.39 0.31,-0.49 0.19,-0.48 z"
     id="path364"
     style="fill:#f9a949" />
  <path
     class="cls-5"
     d="m 230.84,21.34377 c 1.34,-0.86 2.7,-1.67 4.08,-2.45 -1.66,0.9 -3.29,1.85 -4.89,2.87 z"
     id="path366"
     style="fill:#f9a949" />
  <path
     class="cls-5"
     d="m 214.79,40.40377 c -0.2,-0.58 -0.36,-1.23 -0.51,-1.87 a 20.9,20.9 0 0 0 0.91,3.24 c -0.19,-0.43 -0.27,-0.92 -0.4,-1.37 z"
     id="path368"
     style="fill:#f9a949" />
  <path
     class="cls-5"
     d="m 215.62,44.54377 a 0.91,0.91 0 0 0 -0.43,-0.28 1.37,1.37 0 0 1 -0.33,-0.25 c 0.09,0 0.23,0.46 0,0.61 a 0.53,0.53 0 0 1 0.28,0 0.65,0.65 0 0 0 0.48,-0.08 z"
     id="path370"
     style="fill:#f9a949" />
  <path
     class="cls-5"
     d="m 214.31,44.69377 0.14,0.06 c 0,0 0,0 0.05,0 h 0.07 0.13 a 0.45,0.45 0 0 0 0.2,-0.12 l -0.18,0.06 h -0.13 -0.08 c 0,0 0,0 -0.05,0 z"
     id="path372"
     style="fill:#f9a949" />
  <path
     class="cls-5"
     d="m 215.6,35.43377 a 2.65,2.65 0 0 0 -0.3,0.69 7.31,7.31 0 0 0 -0.31,1.94 12,12 0 0 1 0.46,-1.31 c 0.05,-0.4 0.05,-0.9 0.15,-1.32 z"
     id="path374"
     style="fill:#f9a949" />
  <path
     class="cls-5"
     d="m 215.47,36.70377 v 0.05 a 15.81,15.81 0 0 0 0,2.78 14.34,14.34 0 0 1 0,-2.83 z"
     id="path376"
     style="fill:#f9a949" />
  <path
     class="cls-5"
     d="m 215.67,35.10377 -0.07,0.33 a 0.39,0.39 0 0 0 0.07,-0.33 z"
     id="path378"
     style="fill:#f9a949" />
  <path
     class="cls-5"
     d="m 224,24.77377 c -1.31,1.11 -4,3.58 -1,1.75 0.86,-0.94 -0.9,0.01 1,-1.75 z"
     id="path380"
     style="fill:#f9a949" />
  <path
     class="cls-5"
     d="m 216.57,33.64377 a 11.9,11.9 0 0 1 1.51,-3.13 c -0.13,0 -0.62,0.46 -0.2,-0.43 a 12.34,12.34 0 0 0 -1.31,3.56 z"
     id="path382"
     style="fill:#f9a949" />
  <path
     class="cls-5"
     d="m 216.31,35.32377 a 9.77,9.77 0 0 1 0.26,-1.68 9.21,9.21 0 0 0 -0.36,1.24 z"
     id="path384"
     style="fill:#f9a949" />
  <path
     class="cls-5"
     d="m 215.78,45.66377 c -0.31,0.29 -0.85,0 -1.39,-0.21 a 5.33,5.33 0 0 0 0.94,0.53 1,1 0 0 0 1,0 0.86,0.86 0 0 0 -0.13,-0.37 c -0.05,-0.09 -0.13,-0.02 -0.42,0.05 z"
     id="path386"
     style="fill:#f9a949" />
  <path
     class="cls-5"
     d="m 216.21,43.78377 0.06,0.15 c 0.02,-0.08 0.01,-0.17 -0.06,-0.15 z"
     id="path388"
     style="fill:#f9a949" />
  <path
     class="cls-5"
     d="m 198.51,41.43377 h 0.29 a 0.42,0.42 0 0 1 0.06,-0.08 z"
     id="path390"
     style="fill:#f9a949" />
  <path
     class="cls-5"
     d="m 216.53,46.00377 a 0.62,0.62 0 0 0 0.26,-0.63 1.71,1.71 0 0 0 -0.21,-0.6 1.14,1.14 0 0 1 -0.21,1.22 c 0.01,0.1 0.06,0.17 0.16,0.01 z"
     id="path392"
     style="fill:#f9a949" />
  <path
     class="cls-5"
     d="m 210,42.85377 c 0.65,0.36 1.37,0.76 2.1,1.19 a 7.53,7.53 0 0 0 -2.1,-1.19 z"
     id="path394"
     style="fill:#f9a949" />
  <path
     class="cls-5"
     d="m 216.18,44.09377 v -0.07 c -0.09,0.13 -0.05,0.12 0,0.07 z"
     id="path396"
     style="fill:#f9a949" />
  <path
     class="cls-5"
     d="m 216.18,44.09377 c 0.12,0.21 0.27,0.43 0.4,0.68 a 3.89,3.89 0 0 0 -0.31,-0.84 0.25,0.25 0 0 1 -0.09,0.16 z"
     id="path398"
     style="fill:#f9a949" />
  <path
     class="cls-5"
     d="m 194.12,45.06377 c 0,-0.11 0.23,-0.29 0.57,-0.5 a 8.79,8.79 0 0 1 1.47,-0.54 8.41,8.41 0 0 1 1,-0.24 q 0.53,-0.06 1.08,-0.09 c 0.37,0 0.74,0 1.12,-0.05 0.38,-0.05 0.74,0.1 1.11,0.16 1.43,-0.1 1.73,-0.48 1.33,-0.95 a 6.15,6.15 0 0 0 -3,-1.37 c -0.05,0.09 -0.07,0.17 -0.48,0.3 a 8.94,8.94 0 0 1 -1,0.23 14.81,14.81 0 0 0 -1.82,0.49 c 0.29,0 0.87,-0.12 1.55,-0.12 h 2.1 c 1.28,0.16 2.05,0.37 0.75,0.5 a 8.33,8.33 0 0 0 -1.31,0.09 l -1,0.1 c -0.53,0 -0.89,0 -1.18,0.07 a 18,18 0 0 0 -1.93,0.1 c 0.45,0 0.36,0.15 0,0.33 -0.36,0.18 -0.95,0.55 -1.56,0.88 a 7,7 0 0 0 -1.57,1.09 c -0.37,0.33 -0.52,0.57 -0.25,0.64 l 1.47,-0.88 1.57,-0.7 c 0.16,0.1 -0.94,0.68 -0.02,0.46 z"
     id="path400"
     style="fill:#f9a949" />
  <path
     class="cls-5"
     d="m 205,41.94377 c 0.45,0.06 0.89,0.15 1.33,0.24 l -2.09,-0.6 c -0.71,-0.21 -1.48,-0.4 -2.45,-0.61 -2.27,0.1 -2.72,0.26 -2.88,0.43 a 28.82,28.82 0 0 1 6.55,0.57 z"
     id="path402"
     style="fill:#f9a949" />
  <path
     class="cls-5"
     d="m 211.83,44.23377 c -1.08,-0.09 -4,-1 -2.44,0.1 a 22.13,22.13 0 0 0 2.79,1 7.85,7.85 0 0 1 1.74,0.51 c -5.29,-2.55 1.68,0.56 -2.07,-1.58 0.56,0.22 1.07,0.46 1.55,0.68 l 1,0.48 -0.12,-0.09 a 1.31,1.31 0 0 0 -0.19,-0.12 l -0.66,-0.39 -1.31,-0.78 0.12,0.09 v 0 c 0.22,0.16 0.28,0.23 0,0.07 h -0.12 a 0.76,0.76 0 0 1 -0.32,0 c -1.57,-0.82 -0.2,-0.22 0.32,0 0,0 0.08,0 0.09,0 v 0 a 29.27,29.27 0 0 0 -6,-2 38,38 0 0 1 5.62,2.03 z"
     id="path404"
     style="fill:#f9a949" />
  <path
     class="cls-5"
     d="m 221.18,29.26377 c -0.15,0.1 -0.17,0.08 -0.2,0.07 -0.22,0.31 -0.29,0.43 0.2,-0.07 z"
     id="path406"
     style="fill:#f9a949" />
  <path
     class="cls-5"
     d="m 219.45,30.98377 a 4.78,4.78 0 0 1 1.24,-1.85 c 0.95,-0.79 0.14,0.14 0.29,0.2 0.48,-0.68 2,-2.25 -0.15,-0.59 l -0.26,0.35 a 17.91,17.91 0 0 0 -2.48,2.82 c -0.63,0.9 -1,1.56 -0.92,1.33 z"
     id="path408"
     style="fill:#f9a949" />
  <path
     class="cls-5"
     d="m 217.56,44.14377 a 10.85,10.85 0 0 1 0.44,1.71 1.8,1.8 0 0 1 -0.45,1.649997 1.57,1.57 0 0 0 1,-1.369997 l -0.26,-0.05 a 3.34,3.34 0 0 0 -0.33,-1.64 c -0.17,-0.21 -0.28,-0.18 -0.4,-0.3 z"
     id="path410"
     style="fill:#f9a949" />
  <path
     class="cls-5"
     d="m 197.87,41.27377 0.7,-0.52 a 17.69,17.69 0 0 0 -3.07,1.1 c 0.39,-0.12 0.78,-0.24 1.17,-0.34 z"
     id="path412"
     style="fill:#f9a949" />
  <polygon
     class="cls-5"
     points="261.53,146.9 263.05,146.31 263.12,145.84 "
     id="polygon414"
     style="fill:#f9a949"
     transform="translate(-72,-103.14623)" />
  <path
     class="cls-5"
     d="m 49.78,221.85377 1.32,-0.46 c -0.61,0.19 -1.03,0.34 -1.32,0.46 z"
     id="path416"
     style="fill:#f9a949" />
  <path
     class="cls-5"
     d="m 39.53,226.79377 -0.06,0.36 c 0.3,-0.5 0.43,-0.71 0.06,-0.36 z"
     id="path418"
     style="fill:#f9a949" />
  <path
     class="cls-5"
     d="m 116,150.07377 a 3.4,3.4 0 0 1 -1.55,0.09 c -0.52,-0.05 -1,-0.07 -0.85,0.15 l 0.54,0.39 a 5.81,5.81 0 0 0 1.86,-0.63 z"
     id="path420"
     style="fill:#f9a949" />
  <path
     class="cls-5"
     d="m 72.910002,220.98377 0.07,-0.62 -0.56,-1.34 z"
     id="path422"
     style="fill:#f9a949" />
  <path
     class="cls-5"
     d="m 74.820002,222.32377 -0.09,1.47 a 14.69,14.69 0 0 1 -0.23,1.56 12.57,12.57 0 0 0 0.32,-3.03 z"
     id="path424"
     style="fill:#f9a949" />
  <path
     class="cls-5"
     d="m 70.000002,178.85377 c 0.58,-0.25 1.17,-0.48 1.77,-0.68 -2.91,0.39 -1.6,0.48 -1.77,0.68 z"
     id="path426"
     style="fill:#f9a949" />
  <path
     class="cls-5"
     d="m 147.74,82.913767 a 21.81,21.81 0 0 0 -1.74,1.94 15.6,15.6 0 0 0 -1.31,1.75 c 0.71,-0.93 1.51,-1.63 2.05,-2.26 a 3.45,3.45 0 0 0 1,-1.43 z"
     id="path428"
     style="fill:#f9a949" />
  <path
     class="cls-5"
     d="m 47.25,227.37377 c 0.72,-0.33 1,-0.51 1,-0.6 -0.8,0.32 -1.19,0.56 -1,0.6 z"
     id="path430"
     style="fill:#f9a949" />
  <path
     class="cls-5"
     d="m 142,91.423767 0.52,-0.87 a 23.18,23.18 0 0 1 2.14,-4 13.33,13.33 0 0 0 -1.55,2.25 10.52,10.52 0 0 0 -1.11,2.62 z"
     id="path432"
     style="fill:#f9a949" />
  <path
     class="cls-5"
     d="m 170.8,64.703767 -0.08,-0.5 c -0.06,-0.03 -0.01,0.19 0.08,0.5 z"
     id="path434"
     style="fill:#f9a949" />
  <path
     class="cls-5"
     d="m 216,32.08377 a 17.57,17.57 0 0 1 -1.66,2.08 13,13 0 0 0 1.66,-2.08 z"
     id="path436"
     style="fill:#f9a949" />
  <path
     class="cls-5"
     d="m 177,65.853767 c 0,-1.47 -0.06,-0.23 0,0 z"
     id="path438"
     style="fill:#f9a949" />
  <path
     class="cls-5"
     d="m 179.71,59.263767 c 0,0.3 0,0.53 0.06,0.58 a 1.11,1.11 0 0 1 -0.06,-0.58 z"
     id="path440"
     style="fill:#f9a949" />
  <path
     class="cls-5"
     d="m 141.27,105.25377 v 0.12 c 0.1,-0.39 0.09,-0.32 0,-0.12 z"
     id="path442"
     style="fill:#f9a949" />
  <path
     class="cls-5"
     d="m 177.32,63.643767 c -0.1,0.54 -0.22,1.16 -0.28,1.85 0.05,-0.3 0.13,-0.86 0.28,-1.85 z"
     id="path444"
     style="fill:#f9a949" />
  <path
     class="cls-5"
     d="m 177.09,63.913767 c 0.07,-0.5 0.12,-0.89 0.17,-1.27 -0.05,-0.19 -0.14,-0.04 -0.17,1.27 z"
     id="path446"
     style="fill:#f9a949" />
  <path
     class="cls-5"
     d="m 177,67.553767 c 0,0 0,-0.07 0,0 v -0.29 c 0,-0.21 0,-0.41 0,-0.6 v -1.16 c 0,0.29 0,0.41 -0.07,0.33 0.07,0.35 0.07,0.87 0.07,1.72 z"
     id="path448"
     style="fill:#f9a949" />
  <path
     class="cls-5"
     d="m 108.74,121.57377 0.28,-0.19 c 0.56,-0.6 0.76,-0.68 0.64,-0.63 a 5.37,5.37 0 0 0 -0.92,0.82 z"
     id="path450"
     style="fill:#f9a949" />
  <path
     class="cls-5"
     d="m 91.700002,167.65377 v -0.14 l -0.05,0.17 z"
     id="path452"
     style="fill:#f9a949" />
  <path
     class="cls-5"
     d="m 91.840002,171.74377 a 7,7 0 0 1 -0.51,-2.32 2.19,2.19 0 0 1 0,-0.37 l 0.08,-0.44 a 5.87,5.87 0 0 1 0.25,-0.93 15.23,15.23 0 0 0 -1.49,1.19 27,27 0 0 0 1.67,2.87 z"
     id="path454"
     style="fill:#f9a949" />
  <path
     class="cls-5"
     d="m 61.32,207.41377 a 20.09,20.09 0 0 1 -0.22,3 c -0.29,-1.7 -0.64,-3.22 -0.84,-4 -0.2,-0.78 -0.28,-0.66 -0.35,0.75 0.7,0.09 1.22,3.06 0.71,5.52 -0.51,2.46 -2.1,4.36 -1.74,4.95 a 10,10 0 0 1 -1.48,0.94 c 0.4,-0.29 0.41,-0.4 0.78,-0.71 a 8.23,8.23 0 0 0 -2.47,1.92 c -0.6,0.62 -1.35,1.38 -3.95,2 -1.83,0.39 -3.22,0.54 -2,0.05 -1.35,0.48 -2.78,1 -4.2,1.59 -1.28,0.47 -1.06,0.11 0.23,-0.33 -0.56,0.2 -1.12,0.43 -1.68,0.68 a 12.48,12.48 0 0 0 -1.72,0.93 13.51,13.51 0 0 0 -3,2.51 v -0.07 a 17.22,17.22 0 0 0 -1.14,2.1 18.56,18.56 0 0 0 -0.8,2.23 c -0.87,1.62 0.22,-0.91 -0.1,-0.54 a 21.93,21.93 0 0 0 -1,3.81 c -0.66,1.44 -0.47,-1.74 0.88,-4.37 a 5.65,5.65 0 0 0 -1.83,3.75 l -0.15,1.12 a 5.43,5.43 0 0 0 -0.12,1 v 0.85 c 0,1.19 0,2.69 0.12,4.69 a 24.37,24.37 0 0 1 -0.51,-3.79 c -0.74,2.57 0,5.59 0.81,9.7 a 37.87,37.87 0 0 1 -0.36,-4.11 c 0,-1.5 0.19,-2.3 0.76,-0.27 a 14.78,14.78 0 0 0 1.48,4.73 c -0.45,0.18 0.37,2.21 1.5,4.65 l -0.66,0.09 c 1.39,2.59 1.61,2.22 2.63,3.6 l 0.18,0.39 4.06,-2 a 3.65,3.65 0 0 1 -0.26,-2.13 2.61,2.61 0 0 1 0.5,-1 c 0,-0.92 0,-1.26 0,-1.27 0,-0.01 -0.21,0.3 -0.33,0.59 -0.12,0.29 -0.23,0.57 -0.33,0.48 -0.1,-0.09 -0.22,-0.55 -0.1,-1.81 a 45.66,45.66 0 0 1 1.41,-5 c 0.29,-0.89 0.55,-1.75 0.88,-2.63 a 22.67,22.67 0 0 1 1.27,-2.85 c 1.68,-2.07 0.06,0.59 0.75,-0.09 a 23.16,23.16 0 0 1 1,-2.15 c 0.39,-0.41 0.39,-0.17 0.38,-0.05 0.57,-0.79 0.52,-0.9 0.53,-1.15 0.01,-0.25 0.12,-0.61 1.3,-1.66 0.1,-0.56 1.64,-1.34 3.52,-1.87 a 50.52,50.52 0 0 1 6.07,-1 c 1,0.21 -0.48,0.38 -0.18,0.63 2.660002,-0.17 4.000002,0 5.250002,-0.16 a 7,7 0 0 0 1,-0.12 5.29,5.29 0 0 0 1.09,-0.24 6.15,6.15 0 0 0 3,-1.74 5.07,5.07 0 0 0 1,-0.83 l 0.43,-0.48 0.35,-0.55 a 5.41,5.41 0 0 0 0.55,-1.17 8,8 0 0 0 0.35,-1.19 c -0.23,0.86 -0.51,1.22 -0.63,1.19 -0.12,-0.03 -0.11,-0.41 -0.18,-1 a 27,27 0 0 0 -0.78,-4.59 c -0.13,1.08 -0.28,2 -0.37,2.57 -0.15,-1.73 -0.48,-3.47 -0.79,-5.22 0,-0.65 0.31,-0.14 0.67,0.69 l -0.26,-0.95 c 0,-1.92 0.5,-1 1,0.34 -0.06,0.66 -0.12,1.31 -0.19,1.95 0.53,1.27 1,2.51 1.39,2.21 a 15.84,15.84 0 0 1 -0.32,-1.78 c 0.14,0.33 0.25,0.56 0.3,0.39 a 5.91,5.91 0 0 0 -0.4,-1.61 l 0.58,-1.28 -0.32,-0.26 c -0.11,-2.32 -0.19,-4.61 -0.21,-6.9 -0.51,-2.42 -1.06,-4.7 -1.45,-7.37 -0.22,-1.34 -0.34,-2.77 -0.48,-4.37 a 16.55,16.55 0 0 1 0.3,-5.26 c 0,1 0.21,1.13 0.44,1.06 0.23,-0.07 0.55,-0.31 0.84,-0.19 -1.15,1.62 -0.23,5.8 -0.35,9.78 0,-2.11 0.35,-1.64 0.46,-1.11 -0.18,-2.37 -0.4,-4.87 -0.37,-7.12 0.5,0.25 0.48,-1.5 1.25,-2.47 -0.32,0.1 -0.45,-0.08 -0.36,-0.43 a 2.37,2.37 0 0 1 1,-1.29 4,4 0 0 1 2.2,-0.78 17,17 0 0 1 2.49,0 c 0.07,0.19 -0.1,0.31 -0.66,0.37 a 17.78,17.78 0 0 0 -2.79,0.23 32.73,32.73 0 0 0 3.78,-0.16 10.73,10.73 0 0 1 4.54,0.56 6,6 0 0 0 -1.78,-0.19 28.72,28.72 0 0 0 4.57,0.31 9.62,9.62 0 0 0 2,-0.39 c 0.42,-0.16 0.57,-0.18 0.24,0.1 a 8.36,8.36 0 0 1 -1.12,0.43 5.46,5.46 0 0 0 1.48,-0.61 4.84,4.84 0 0 0 1.41,-1.12 6.53,6.53 0 0 0 1.5,-3.4 19.29,19.29 0 0 0 -0.47,-6.47 c -0.41,-1.93 -0.86,-3.63 -1.22,-4.92 a 6.6,6.6 0 0 0 -0.89,-2.32 3.56,3.56 0 0 1 1.35,0.9 34.76,34.76 0 0 1 -1.93,-4.91 10.34,10.34 0 0 1 -0.31,-1.28 c 0,-0.44 -0.12,-0.9 -0.13,-1.35 a 17.57,17.57 0 0 1 0.1,-2.8 c 0.16,0.58 1,0.16 1.58,0.24 0.58,0.08 0.86,0.57 0.52,2.69 a 35.13,35.13 0 0 1 2.12,-4.91 c -0.53,0.62 -2,1.34 -1.47,0.24 1.22,-1.25 1.7,-1.57 2.19,-2 a 11.52,11.52 0 0 1 2.83,-1.89 c -0.55,0.3 -0.74,0 -0.55,-0.48 a 3.6,3.6 0 0 1 1.78,-1.76 c -0.22,0.31 0.65,0.93 0.07,1.37 a 13.65,13.65 0 0 1 4.469998,-2.69 c -0.64,0.22 -0.64,0.47 -0.35,0.67 l 0.26,0.15 0.16,0.06 h 0.09 a 0.93,0.93 0 0 1 0.2,0 1.67,1.67 0 0 0 0.32,0 1.16,1.16 0 0 1 0.28,0 h 0.44 c -0.28,0 0.8,-0.35 2.15,-0.55 1.35,-0.2 3,-0.29 3.68,-0.36 -0.76,-0.06 -1.51,-0.1 -2.27,-0.11 a 21.91,21.91 0 0 0 6.23,-1 10.09,10.09 0 0 0 2.55,-1.27 7.55,7.55 0 0 0 1.3,-1.2 5.49,5.49 0 0 0 1.09,-1.9 c 0,0.41 0.07,1.05 0.38,1.2 0.16,0.07 0.4,0 0.71,-0.37 a 4.24,4.24 0 0 0 0.74,-2 c -0.18,-0.92 -0.91,-2.48 -1.38,-4.67 a 18.12,18.12 0 0 1 -0.38,-3.69 21.16,21.16 0 0 1 0.37,-4.17 l 0.66,-1 a 24.62,24.62 0 0 1 1.47,-4.28 32.51,32.51 0 0 0 -0.94,7.02 c 0,1.39 0,2.83 0.07,4.12 0.07,1.29 0.19,2.49 0.31,3.47 a 7.75,7.75 0 0 1 0.42,-1.54 22.25,22.25 0 0 0 0.43,-2.35 c 0.52,-1.09 0.11,1.86 0.09,2.81 a 30.52,30.52 0 0 1 0.7,-3.75 l 0.49,-2 c 0.18,-0.6 0.34,-1.19 0.56,-1.77 -0.37,0.06 -0.12,-1.38 0.36,-2.74 0.21,-0.71 0.51,-1.34 0.67,-1.85 0.16,-0.51 0.29,-0.81 0.13,-0.82 a 19.05,19.05 0 0 0 -1.53,3.82 23.64,23.64 0 0 0 -0.84,4.1 c -0.35,0.09 -0.63,-1.24 -0.37,-3.24 a 13.09,13.09 0 0 1 3,-6.87 c 0.59,-0.42 0.61,0 0.55,0.47 -0.06,0.47 -0.13,1.11 0,1.13 a 5.79,5.79 0 0 1 1.62,-2.07 2.5,2.5 0 0 1 0.64,-0.47 3.85,3.85 0 0 1 0.6,-0.35 4.14,4.14 0 0 1 0.79,-0.22 l -0.81,0.48 c -0.24,0.22 -0.48,0.42 -0.71,0.62 a 10.09,10.09 0 0 1 2.91,-1.17 l 0.83,-0.08 c 0.29,0.05 0.6,0.1 0.92,0.17 a 16.78,16.78 0 0 1 2.43,1.11 c 0.65,0.2 1.57,0.7 2.5,1.07 0.93,0.37 1.8,0.57 2.09,0.38 a 2.71,2.71 0 0 1 -1.5,-1 2.21,2.21 0 0 1 -0.43,-1.23 1.47,1.47 0 0 1 1.12,-1.58 l 0.44,0.12 0.39,0.1 c 0.13,0 0.22,0.06 0.38,0.08 a 2.83,2.83 0 0 0 2.1,-0.34 2.65,2.65 0 0 0 1.11,-1.7 9.16,9.16 0 0 0 0.17,-1.59 c 0.09,-1.13 0.62,-0.44 1.09,0.48 0.23,0.51 0.4,1.11 0.53,1.43 0.13,0.32 0.29,0.37 0.45,-0.29 a 5.84,5.84 0 0 1 -0.31,-1.07 c -0.14,-0.51 -0.3,-0.91 -0.38,-1.19 -0.18,-1.5 0.72,0.43 -0.15,-2.65 -0.82,-0.35 -1.52,-6 -0.93,-1.27 a 16.35,16.35 0 0 1 -0.77,-3 c -0.12,-0.84 -0.25,-1.74 -0.5,-3.45 -0.14,0.57 -0.64,-0.14 -1.11,-1.41 a 15.62,15.62 0 0 1 -0.87,-4.67 c 0.17,0.19 0.42,-0.49 0.54,-0.81 a 32.22,32.22 0 0 1 1.55,-7.630003 42.58,42.58 0 0 1 2.91,-6.84 c 0.2,-0.19 0.65,-0.88 1.06,-1.34 0.41,-0.46 0.72,-0.72 0.54,-0.15 l 0.51,-1.22 a 11.87,11.87 0 0 1 1,-1.7 c 0.64,-0.57 0.83,-0.64 0.76,-0.49 -0.07,0.15 -0.39,0.55 -0.68,1 -0.61,0.87 -1.24,1.83 -0.21,1 a 1.65,1.65 0 0 1 0.28,-0.81 10.05,10.05 0 0 1 1,-1.52 c 0.21,-0.28 0.42,-0.58 0.64,-0.89 l 0.73,-0.86 c 0.48,-0.59 1,-1.12 1.42,-1.57 a 2.66,2.66 0 0 0 -1.13,0.64 19.13,19.13 0 0 0 -1.54,1.62 23,23 0 0 0 -2.59,4 c -0.18,-0.11 -0.22,-0.46 -0.12,-1 a 11.87,11.87 0 0 1 0.83,-2.11 21.69,21.69 0 0 1 4.89,-6 11.4,11.4 0 0 1 2,-1.42 c 0.4,-0.22 0.56,-0.23 0.61,-0.18 0.05,0.05 -0.23,0.51 0.1,0.23 2,-1.18 3.49,-1.92 4.66,-2.52 0.6,-0.28 1.1,-0.54 1.57,-0.79 l 1.32,-0.62 a 13.17,13.17 0 0 1 7.33,-1.21 c 1.58,0.29 1.58,0.62 1.31,0.83 -0.27,0.21 -0.84,0.42 -0.52,0.64 -1,0 -1.86,0.06 -2.65,0.06 -0.79,0 -1.52,0.08 -2.2,0.11 l -2,0.21 a 16.93,16.93 0 0 0 -1.91,0.44 l 1.64,-0.32 c 0.55,-0.08 1.1,-0.13 1.65,-0.19 l -4.98,1.57 a 36.4,36.4 0 0 1 9.28,-1.51 c 1.1,-0.06 2.18,0.13 3.36,0.15 a 6.8,6.8 0 0 0 3.2,-1.27 7.53,7.53 0 0 0 2.1,-2.53 13.92,13.92 0 0 0 1.06,-2.73 3.85,3.85 0 0 0 -0.05,-1.12 c -0.06,-0.36 -0.11,-0.71 -0.15,-1 -0.1,-0.56 -0.2,-0.85 -0.31,-0.34 a 20.19,20.19 0 0 1 0,2.19 c -0.21,0.46 -0.3,0.43 -0.32,0.17 -0.02,-0.26 0,-0.28 0,-0.47 0,-0.19 -0.07,-0.37 -0.1,-0.63 -0.13,-1 -0.22,-1.85 -0.32,-0.4 a 19,19 0 0 1 1.61,-10.76 9.58,9.58 0 0 1 0.89,-0.49 c 0,0 -0.17,0.15 -0.34,0.39 -0.17,0.24 -0.31,0.6 -0.49,1 -0.18,0.4 -0.35,0.82 -0.5,1.22 a 9.58,9.58 0 0 0 -0.24,1.12 12.3,12.3 0 0 1 1.69,-3.88 19.07,19.07 0 0 0 2.06,-3.86 c -0.38,0.36 -0.68,0.77 -1,1.16 a 13.89,13.89 0 0 0 -1,1.21 c 0.28,-0.74 0.69,-1.47 1.07,-2.28 0.38,-0.81 0.92,-1.56 1.44,-2.37 a 15.12,15.12 0 0 1 4.35,-4.099997 2.68,2.68 0 0 0 -1.42,0.67 11.89,11.89 0 0 1 -2,1.279997 c 0.6,-0.31 0.43,0 -0.1,0.64 -0.26,0.31 -0.61,0.69 -1,1.1 -0.39,0.41 -0.73,0.93 -1.11,1.41 l -0.55,0.7 -0.43,0.7 a 11.6,11.6 0 0 0 -0.63,1.09 c -0.28,0.55 -0.2,0.64 0.53,-0.08 a 7.38,7.38 0 0 0 -1.37,1.63 10.45,10.45 0 0 0 -1,1.8 c -0.61,1.27 -1.13,2.67 -1.9,4.51 0.22,-0.07 0.63,-1.27 -0.09,2.08 0,0.16 0.08,0.54 0.1,0.77 v 0.23 -0.19 c 0,0.15 0,0.17 0,-0.07 a 5,5 0 0 1 0.56,-1.66 c 0,0.86 -0.05,2.61 0,4.35 l 0.07,1.3 v 0.14 c 0,0 0,0 0,0 a 0.43,0.43 0 0 1 0,0.16 v 0.37 c -0.11,0.63 -0.25,1.15 -0.32,1.51 -0.69,1.39 0,-0.68 -0.49,0 a 7.18,7.18 0 0 1 -0.68,1.87 c -0.23,0 -1,0.45 -1.42,0.5 -0.22,0 -0.36,0 -0.3,-0.09 0.06,-0.09 0.3,-0.31 0.71,-0.81 a 3.48,3.48 0 0 1 -2,1 c 0,0 -0.22,0 -0.19,-0.08 l -1.05,-0.15 a 14.61,14.61 0 0 0 -2.2,-0.13 12.24,12.24 0 0 0 -2.12,0.11 13.38,13.38 0 0 0 -1.81,0.3 c -2.06,0.2 -4.85,1.69 -3.25,0.86 a 28.91,28.91 0 0 0 -6.08,2.73 l -0.11,-0.07 a 29.35,29.35 0 0 0 -7.83,6.27 57,57 0 0 0 -6.36,8.62 76,76 0 0 0 -2.6,7.59 l -0.54,0.6 c -0.26,1.380003 -0.73,3.440003 -1,5.350003 a 12.67,12.67 0 0 0 0,4.24 c -0.52,1.52 -0.31,5.05 0.57,8.56 0.42,1.75 1,3.49 1.4,5 a 19,19 0 0 1 0.46,1.92 1.54,1.54 0 0 1 0,0.4 0.37,0.37 0 0 1 0,0.15 5.21,5.21 0 0 1 0.5,0.2 1.11,1.11 0 0 1 -0.29,0.53 1,1 0 0 1 -0.49,0.28 l -0.3,0.06 h -0.13 a 2.13,2.13 0 0 1 -0.33,0 15.61,15.61 0 0 1 -1.74,-0.27 l -1.94,-0.42 c 0,0.15 0,0.31 0,0.46 a 0.45,0.45 0 0 1 -0.16,0 v 0 c 0,0 0,0 0,0 0,0 0,0 0,0 l -0.19,-0.07 -0.76,-0.29 a 9.33,9.33 0 0 0 -1.71,-0.51 10,10 0 0 0 -4.23,-0.15 10.34,10.34 0 0 0 -4.23,2.07 13.37,13.37 0 0 0 -3,3.48 6.6,6.6 0 0 1 1.83,-2.47 13.29,13.29 0 0 0 -3.33,4.47 21.68,21.68 0 0 0 -1.65,5.18 c -0.19,0.87 -0.28,1.74 -0.42,2.5 -0.14,0.76 -0.27,1.69 -0.38,2.52 -0.22,1.65 -0.37,3.3 -0.6,4.77 a 4.24,4.24 0 0 1 -0.32,2.7 0.53,0.53 0 0 0 0,-0.17 l -0.11,0.25 a 3.71,3.71 0 0 1 -0.82,0.65 2.39,2.39 0 0 0 0.76,-0.52 3.19,3.19 0 0 1 -0.73,0.86 3.24,3.24 0 0 1 -1.3,0.68 c -0.2,-0.12 -0.4,-0.26 -0.59,-0.39 h -0.3 c -1.41,-0.09 -1.17,0.29 -0.34,0.62 -0.74,0.12 -1.5,0.22 -2.1,0.35 a 5.45,5.45 0 0 0 -3,-0.12 11.93,11.93 0 0 1 -3.52,0.21 15.29,15.29 0 0 1 -1.82,0.69 l -0.16,0.06 h -0.06 -0.08 -0.09 l -0.79,0.19 a 14.49,14.49 0 0 0 -1.63,0.5 c -2.189998,0.76 -3.999998,2.18 -4.139998,2.77 -0.1,-0.05 -0.58,0.19 0.23,-0.34 a 11.47,11.47 0 0 0 -4.22,3.87 8.88,8.88 0 0 0 -1,0.31 17.25,17.25 0 0 0 -1.41,4.19 c -0.35,0.56 -0.6,1.06 -0.8,1.45 a 5.79,5.79 0 0 1 -0.47,0.78 c -0.22,0.23 -0.34,-0.19 -0.13,-1.56 a 22.41,22.41 0 0 0 -0.5,3.66 4.57,4.57 0 0 0 0,0.74 v 0.53 l 0.07,0.91 a 21.46,21.46 0 0 0 1,4.63 l -0.43,-0.18 c 0.3,1.82 1.4,4.52 1.27,5.63 -0.13,1.11 0.24,2.72 0.3,4.72 a 7.14,7.14 0 0 1 -0.42,2.83 2.48,2.48 0 0 1 -1.92,1.49 10.29,10.29 0 0 1 -3.71,-0.27 c -1.41,-0.28 -2.91,-0.68 -4.56,-0.89 a 9.34,9.34 0 0 0 -5.31,0.68 7.39,7.39 0 0 0 -2.24,1.7 8.07,8.07 0 0 0 -1.4,2.25 c 1,-1 0.2,0.39 -0.22,2 -0.42,1.61 -0.65,3.49 -0.22,3.7 -0.3,0.6 -0.47,2 -0.68,0.36 0.12,5.31 -0.46,8 0.51,11.67 -0.24,0.63 -0.47,-1.12 -0.6,-0.56 a 8.29,8.29 0 0 1 0.23,2.24 c -0.11,0.55 -0.31,-0.76 -0.47,-1.6 0.45,5.46 1.45,5.88 2.26,6.19 a 14.7,14.7 0 0 0 0.75,5.89 3,3 0 0 1 -0.37,1.11 c -0.13,0.07 -0.15,-0.28 -0.29,-1.84 a 17.71,17.71 0 0 1 -0.05,2.32 3.64,3.64 0 0 1 -3.18,3.45 c -0.76,0.12 -1.35,0.2 -1.4,0.35 a 16.28,16.28 0 0 0 -3,-0.18 23.6,23.6 0 0 0 -4.610002,0 14.38,14.38 0 0 0 -4.52,1.2 c 0.4,-0.11 0.78,-0.27 1.19,-0.34 a 6.75,6.75 0 0 1 -1.14,0.82 l -1.36,0.71 a 13.16,13.16 0 0 0 -3.51,2.31 v -0.13 a 17.06,17.06 0 0 0 -2.93,2.81 10.92,10.92 0 0 0 -0.94,1.39 c -0.22,0.37 -0.42,0.74 -0.85,1.42 -0.43,0.68 -1.06,1.7 -1.94,3.47 l 0.6,-0.21 c 0.34,0.54 -0.44,2 -1.32,4 a 18.3,18.3 0 0 0 -1.1,3.42 9.3,9.3 0 0 0 0,3.75 13.9,13.9 0 0 1 0.16,-1.73 39.32,39.32 0 0 0 0.48,5.14 l 2.66,-1.32 a 41.22,41.22 0 0 0 -1.06,-4.26 c -0.12,-0.5 0.46,0.66 0.82,1.26 -1,-2.85 -1.15,-3 -1.4,-2.88 -0.25,0.12 -0.51,0.42 -1.37,-1.66 0,-0.89 1.13,0.69 0.24,-2.12 -0.08,-0.74 -1,-2.68 -1.54,-5 a 13.62,13.62 0 0 1 -0.41,-3.58 1.71,1.71 0 0 1 0.08,-0.61 c 0.07,-0.29 0.15,-0.58 0.24,-0.85 a 7.92,7.92 0 0 1 0.6,-1.46 c -0.26,0.35 -0.51,0.72 -0.64,0.76 -0.13,0.04 -0.19,-0.27 0,-1.24 a 8.6,8.6 0 0 1 3.11,-4.13 19.07,19.07 0 0 1 2.26,-1.36 18.52,18.52 0 0 0 2.14,-1.15 c 0.4,-0.06 0.57,0 0.6,0 1.11,-0.46 3.07,-1 5,-1.68 a 14.24,14.24 0 0 0 4.28,-2.13 5.42,5.42 0 0 0 3.5,-1.64 12.24,12.24 0 0 0 3.360002,-5 18.35,18.35 0 0 0 1,-5.26 c 0.09,-1.39 0.14,-2.27 0.53,-2.28 a 43.34,43.34 0 0 0 -1.46,-8 l 0.2,0.16 a 55.52,55.52 0 0 0 -2.360002,-8 c 0,-1.08 0.21,-0.31 0.3,-0.23 0,-0.37 0,-0.72 0,-1 v -0.15 a 8.44,8.44 0 0 1 0.310002,-3.09 c 0.11,-0.39 0.31,-0.69 0.42,-1 0.11,-0.31 0.34,-0.58 0.55,-0.84 a 8.75,8.75 0 0 1 1.54,-1.59 12.1,12.1 0 0 1 2.76,-1.69 l 0.7,0.32 a 16.13,16.13 0 0 1 5.94,-0.55 l 2.47,0.07 h 2 0.87 c 2.69,-0.15 5.44,-1 6.07,-3.47 a 3.43,3.43 0 0 0 0.09,-1.14 c 0.05,0.1 0.2,0.32 0.09,1.1 a 5.18,5.18 0 0 0 -1,-4 21.8,21.8 0 0 0 -1.52,-1.9 l -0.34,-0.39 -0.25,-0.3 c -0.16,-0.19 -0.31,-0.38 -0.45,-0.58 a 11.94,11.94 0 0 1 -2.1,-5.15 15.71,15.71 0 0 1 -0.17,-2.54 c 0,-0.85 0,-1.61 0,-2.31 a 11.47,11.47 0 0 0 0,-3.16 9.75,9.75 0 0 1 2.2,-4.08 c -1.14,1.05 -1.54,1.65 -1.76,1.8 -0.22,0.15 -0.19,-0.1 0,-0.44 0.21,-0.71 0.89,-1.8 -0.14,-0.84 a 8.16,8.16 0 0 1 3.13,-2.51 c 0.44,-0.21 0.75,-0.28 0.76,-0.21 0.01,0.07 -0.24,0.3 -0.88,0.76 -0.16,0.06 -0.3,0.15 -0.45,0.22 -0.16,0.72 1.4,-0.47 3.38,-1.3 1.98,-0.83 4.22,-1.43 4.21,-1.1 2.56,-0.73 5.22,-1.21 7.91,-1.74 a 41.75,41.75 0 0 0 8.179998,-2.19 l -0.16,0.06 a 6.42,6.42 0 0 0 4.65,-5.86 22.4,22.4 0 0 0 -0.61,-6.32 c -0.39,-1.91 -0.82,-3.74 -1,-5.47 a 9.71,9.71 0 0 1 0.25,-4.52 5.19,5.19 0 0 0 -1,0.87 4.65,4.65 0 0 1 1.65,-2.91 c 0.38,-0.24 0.74,-0.26 0.7,-0.1 -0.04,0.16 -0.13,0.19 -0.3,0.41 a 5.86,5.86 0 0 0 -0.77,0.88 c 0.46,-0.33 1,-0.94 1.72,-1.49 0.17,-0.12 0.39,-0.27 0.5,-0.37 a 1.47,1.47 0 0 1 0.39,-0.26 1.93,1.93 0 0 0 0.51,-0.35 c 2.83,-0.34 2.3,0 1.3,0.32 -1,0.32 -2.3,0.84 -1.53,0.64 a 14.89,14.89 0 0 1 2.19,-0.45 h -0.52 c 0.9,-0.28 1.43,-0.46 2.17,-0.62 a 21,21 0 0 1 3.63,-0.3 c 2.48,0 1.3,0.38 2.3,0.33 0,0 0.34,0.06 1.57,-0.18 a 16,16 0 0 0 6,-2.14 14,14 0 0 1 -2.54,0.66 17.33,17.33 0 0 0 3,-1.92 c 0.58,-0.49 0.55,-0.57 -0.74,0 a 10,10 0 0 0 4.09,-3.45 14.68,14.68 0 0 0 2.42,-7.51 55.58,55.58 0 0 0 -0.14,-7.13 25.77,25.77 0 0 1 -0.06,-4.000003 15.63,15.63 0 0 1 -0.14,-2.45 c 0,-0.41 0,-0.81 0.09,-1.21 a 2.36,2.36 0 0 1 0.26,-1 c 0.37,-0.79 0.75,-1.6 1.17,-2.43 l 1.55,-2.47 c -0.31,0.4 -0.69,0.64 -0.75,0.41 a 1.58,1.58 0 0 1 0.21,-0.74 11.07,11.07 0 0 1 1.11,-1.6 c 0.08,0.46 0.39,0.38 0.84,0 0.45,-0.38 1.1,-1.06 1.85,-1.81 0.38,-0.37 0.74,-0.79 1.17,-1.16 l 1.3,-1.06 a 7.8,7.8 0 0 1 2.42,-1.43 c -1.16,0.54 0.68,-1.1 2.61,-2.33 l 0.69,-0.48 0.68,-0.39 a 10.42,10.42 0 0 0 1,-0.65 c 0.46,-0.34 0.44,-0.49 -0.55,-0.23 1.32,-0.64 1.42,-0.53 1.45,-0.37 0.03,0.16 0,0.36 1,0.09 a 21.42,21.42 0 0 1 9.66,-2.39 c 0.88,0 1.77,0.07 2.66,0.1 a 8.62,8.62 0 0 1 1.34,0.17 l 1.54,0.25 a 8.36,8.36 0 0 1 1.14,0.3 l 1.2,0.42 2.42,0.85 c 0.83,0.27 1.61,0.59 2.39,0.91 l 2.34,0.94 0.1,-0.42 c 0,0 0,-0.22 -0.07,-0.36 l -0.14,-0.44 -0.55,-1.74 c -0.15,-0.18 -0.15,0.17 -0.27,0.19 -0.12,0.02 -0.35,-0.29 -0.91,-1.6 a 57.89,57.89 0 0 0 -1.2,-6.09 c -0.13,-0.32 -0.26,-0.63 -0.36,-0.83 a 4.4,4.4 0 0 0 -0.26,-0.39 c -0.18,-0.23 -0.35,-0.42 -0.51,-0.66 a 4.48,4.48 0 0 1 -0.65,-2.7 c -0.06,0.43 -0.15,1.11 -0.43,0 a 13.73,13.73 0 0 1 0,-3.94 9.82,9.82 0 0 1 1.31,-3.51 l 0.55,-0.79 c 0.18,-0.26 0.44,-0.55 0.66,-0.83 0.44,-0.57 0.92,-1.11 1.39,-1.66 1,-1.07 1.95,-2.13 3,-3.1 a 28.29,28.29 0 0 1 7,-4.899997 19.31,19.31 0 0 1 8.1,-2 h 0.11 a 41.33,41.33 0 0 0 9.09,-1.35 25.22,25.22 0 0 0 8.51,-4.43 c -1.11,0.8 -1.36,0.83 -1.11,0.57 0.25,-0.26 1,-0.92 1.65,-1.67 -1,0.9 -0.29,-0.32 -0.65,-0.3 a 27.76,27.76 0 0 0 4.94,-6.15 2.59,2.59 0 0 1 0.16,-0.75 c 0,-0.11 0.18,-0.47 0.22,-0.61 0.04,-0.14 0.11,-0.35 0.17,-0.53 a 19.19,19.19 0 0 1 1.1,-2.39 l 0.91,-1.65 a 2.8,2.8 0 0 0 0.41,-1.09 c -0.3,0.48 -0.57,1 -0.8,1.41 0.13,-0.57 0.09,-0.86 -0.16,-0.86 a 2.46,2.46 0 0 0 -1.22,0.77 c -1.1,1 -2.28,2.46 -2.61,2 a 11.7,11.7 0 0 1 -0.4,1.4 10.38,10.38 0 0 1 -0.7,1.35 20.11,20.11 0 0 1 -2.07,2.85 64.09,64.09 0 0 1 -5.51,5.36 c -1.12,0.43 0.71,-0.78 0,-0.64 -0.91,1 -2.39,2 -5.36,2.64 l 0.3,-0.19 a 33.76,33.76 0 0 1 -7.22,1 H 196 a 23.82,23.82 0 0 0 -7.55,1.26 28.25,28.25 0 0 0 -8.24,4.46 l 0.93,-0.13 c -1.87,1.39 -2.3,1.64 -3.18,2.3 -0.72,1.179997 0.44,0 1.71,-1 1.27,-1 2.66,-2 1.93,-1 -1.53,0.51 -4.66,3.209997 -7.15,6.249997 a 27.44,27.44 0 0 0 -1.81,2.38 9,9 0 0 0 -0.76,1.3 l -0.33,0.63 c -0.09,0.22 -0.17,0.43 -0.25,0.64 -0.7,1.66 -0.87,3 -1.19,3.62 0,2 0.18,1.7 0.29,1.41 0.11,-0.29 0.12,-0.3 0.18,-0.16 0.06,0.14 0.08,0.55 0.22,1.48 -0.06,0.35 -0.11,0.7 -0.14,1 l 0.57,0.84 c 0.5,2.34 0.6,3.52 0.38,3.7 -0.17,-0.53 -0.58,-1.52 -0.78,-2.12 0.07,0.39 0.17,0.8 0.29,1.24 0,0.22 0.12,0.45 0.19,0.66 l 0.18,0.56 a 6.86,6.86 0 0 0 0.36,0.86 6.29,6.29 0 0 1 0.57,1.36 9.34,9.34 0 0 0 -0.15,-1 c 0.13,0.3 0.27,0.62 0.39,1 0.07,0.16 0.12,0.33 0.18,0.5 l 0.05,0.13 c 0,0 0,0.1 0,0.06 l -0.23,-0.08 a 11.93,11.93 0 0 0 -2.59,-0.74 22.37,22.37 0 0 0 -3.46,-0.32 h -1.74 c -0.58,0 -1.15,0.09 -1.73,0.13 a 29.12,29.12 0 0 0 -12.27,4 l 0.73,-0.13 -2,1.17 -1.44,0.95 c -0.83,0.54 -1.49,0.88 -2.1,1.33 -0.61,0.45 -1.28,0.87 -2.15,1.53 -0.4,0.36 -0.86,0.77 -1.4,1.27 l -0.85,0.81 c -0.31,0.3 -0.59,0.66 -0.92,1 l 0.16,-0.25 c -0.44,0.67 -1,1.39 -1.6,2.18 -0.6,0.79 -1.17,1.68 -1.82,2.54 0.48,-0.87 -0.21,-0.22 -0.75,0.46 -0.54,0.68 -1.09,1.27 -0.52,0.07 -0.46,0.87 -0.86,1.57 -1.14,2.16 l -0.6,1.46 c -0.3,0.76 -0.41,1.12 -0.54,1.53 a 1.91,1.91 0 0 0 -0.07,0.63 5.35,5.35 0 0 0 0,0.69 c 0,0.51 0.06,1.27 0.2,2.56 -0.14,0.39 -0.28,0.78 -0.41,1.17 a 31.7,31.7 0 0 1 0.84,5.630003 c -0.5,-3.060003 -0.43,2.42 -1.05,-1 -0.14,4 0.07,6.67 -0.21,8.8 -0.28,2.13 -1,3.68 -2.4,4.46 -0.27,0.74 -0.2,0.88 0.14,0.67 a 8.27,8.27 0 0 0 0.62,-0.57 9.37,9.37 0 0 0 0.69,-0.93 c 0.94,-1.4 1.24,-3.35 1.13,-2.41 0.18,-0.35 0.27,-0.36 0.3,-0.12 a 3.15,3.15 0 0 1 0,0.52 c 0,0.22 -0.1,0.48 -0.17,0.77 a 8.26,8.26 0 0 1 -2,3.49 7.36,7.36 0 0 1 -3.23,1.68 29.37,29.37 0 0 1 -6,1 c 0.58,0 0.62,-0.13 1.18,-0.21 -2.15,0.06 -4.33,0.58 -7.42,0.37 a 13.83,13.83 0 0 1 -2.72,0.66 c -0.87,0.15 -1.53,0.42 -1.75,0.87 a 24.79,24.79 0 0 1 6.13,-1 21.29,21.29 0 0 0 -5.23,1.23 l -0.75,0.27 -0.74,0.4 a 5.57,5.57 0 0 0 -0.72,0.44 8.72,8.72 0 0 0 -0.72,0.52 7.79,7.79 0 0 0 -2.45,3.26 4.19,4.19 0 0 1 0.38,-1.49 6.63,6.63 0 0 1 1.22,-1.84 5,5 0 0 0 -1.72,2.43 16.64,16.64 0 0 0 -0.8,2.69 c -0.19,-0.15 -0.23,-0.76 0,-1.66 a 6.89,6.89 0 0 1 1.69,-3.18 5.93,5.93 0 0 1 0.77,-0.73 5.81,5.81 0 0 1 0.86,-0.64 7.67,7.67 0 0 1 0.91,-0.53 l 1,-0.48 1,-0.3 c 0.29,-0.1 0.58,-0.16 0.86,-0.24 l 1.56,-0.42 a 7.19,7.19 0 0 0 -1.92,0.25 c -0.37,0.08 -0.76,0.22 -1.14,0.33 a 4.12,4.12 0 0 0 -0.69,0.27 l -0.55,0.29 c -1.33,0.74 -2.15,1.46 -1.44,0.43 -0.57,0.68 -1.19,1.41 -1.8,2.26 a 11.16,11.16 0 0 0 -1.41,3 10.86,10.86 0 0 0 0.33,6.69 l -0.52,-0.21 c 0.19,0.71 0.71,2.1 1,3.32 -0.36,-0.69 -0.73,-1.4 -1.09,-2.14 a 21.3,21.3 0 0 1 1.09,4.95 36.69,36.69 0 0 1 0.17,4 18.19,18.19 0 0 0 0,-2.47 c 0,-0.46 0,-0.54 0.16,-0.5 0.16,0.04 0.53,0.6 0.46,-0.79 0.86,3.1 0.36,4.29 -0.1,4.78 a 1.72,1.72 0 0 1 -0.79,0.41 c -0.27,0.08 -0.62,0.13 -1.19,0.26 l -0.24,0.1 c -0.87,0.26 -2.09,0.66 -4,1.19 0.6,-0.17 1.69,-0.42 2.42,-0.54 0.73,-0.12 1.09,-0.12 0.26,0.29 a 22.1,22.1 0 0 1 -5.059998,0.77 c -6.18,1.36 1.07,0.28 -1.52,1.11 -2.25,-0.13 -3,0.83 -5.8,1.69 l -0.14,-0.47 c -3.72,0.82 -4.14,1.4 -4.44,1.74 a 2.34,2.34 0 0 1 -0.78,0.65 c -0.49,0.28 -1.36,0.65 -2.94,1.51 a 21.89,21.89 0 0 1 2.38,-2 19.66,19.66 0 0 0 -3.25,2 l 0.37,-0.91 a 22.25,22.25 0 0 0 -3.62,3.55 15.52,15.52 0 0 0 -2.5,4.4 c 0.33,-0.42 0.48,-0.2 0.42,0.53 a 12.66,12.66 0 0 1 -0.13,1.49 c 0,0.63 -0.16,1.38 -0.18,2.25 -0.22,1.19 -0.31,0.85 -0.38,0.84 -0.07,-0.01 -0.06,0.06 -0.07,0.45 a 17.27,17.27 0 0 0 0.11,2.35 7.17,7.17 0 0 1 -0.49,-1.88 6.19,6.19 0 0 1 0.16,-2.75 c -0.13,-0.24 -0.13,-1.19 -0.25,-1.46 a 14,14 0 0 0 -0.48,4.63 17.56,17.56 0 0 0 0.65,4.09 9.76,9.76 0 0 1 -0.3,-2.09 16.56,16.56 0 0 0 3.31,6.86 c 0.53,1.06 -0.14,0.41 -0.77,-0.33 a 12.12,12.12 0 0 0 1.38,1.68 l 0.83,0.83 c 0.17,0.17 0.19,0.17 0.28,0.26 l 0.24,0.23 c -0.26,0 -0.47,0.07 -0.7,0.08 0,0.18 -0.85,-0.4 -1.89,-1.67 0.4,0.5 0.82,1 1.25,1.4 l 0.3,0.29 0.08,0.08 h 0.05 l 0.18,0.13 a 2,2 0 0 1 0.73,0.78 c -0.06,0 -0.13,0.11 -0.25,0.18 -0.3,0.22 -0.75,0.15 -0.75,0 a 1.66,1.66 0 0 0 -0.46,0.15 l -0.13,0.06 h -0.08 -0.37 l -1.6,0.18 -1.71,0.16 -1.86,0.12 c -1.29,0.1 -2.58,0.22 -3.87,0.37 a 16,16 0 0 1 -1.84,0.59 21.28,21.28 0 0 0 -3.55,1.15 12.17,12.17 0 0 0 -3.410002,2.17 9.68,9.68 0 0 0 -2.52,3.84 c -0.12,0.38 -0.2,0.78 -0.29,1.17 l -0.12,0.61 v 0.59 c 0,0.4 0,0.81 0,1.22 l 0.16,1.18 -0.08,0.69 v -0.24 a 26.52,26.52 0 0 0 -0.28,2.77 c 0.46,2.17 0.49,1.05 0.59,0.32 0.06,-0.37 0.14,-0.66 0.29,-0.39 a 18.2,18.2 0 0 1 0.81,2.75 c 1.36,4.67 -0.15,1.9 0.06,3.59 a 38.13,38.13 0 0 1 1.59,4.31 11.79,11.79 0 0 1 0.38,5.59 28.94,28.94 0 0 0 -0.28,-3.36 z m -25.27,35.79 c -0.34,-1 -0.94,-3 -0.69,-3.86 0.64,1.17 0.49,2.09 0.69,3.86 z m 37.000002,-29.62 a 10.43,10.43 0 0 1 0.2,3.06 17.86,17.86 0 0 1 -0.18,-3.06 z M 171,72.253767 h -0.11 c -2.39,-0.13 -1.55,-0.07 0.11,0 z m 3.55,0 c 0.25,-0.18 0.18,-0.25 0.06,-0.24 a 1.2,1.2 0 0 1 -0.52,0.3 2.31,2.31 0 0 1 -0.47,0.12 0.74,0.74 0 0 1 -0.3,0 c 0,0.07 0.18,0.13 0.29,0.12 a 2.18,2.18 0 0 0 0.91,-0.25 z m -51,49.620003 h -0.94 c 2.03,-0.34 1.47,-0.19 0.89,0.05 z"
     id="path456"
     style="fill:#f9a949" />
  <path
     class="cls-5"
     d="m 74.600002,222.13377 a 0.69,0.69 0 0 1 -0.23,0.44 c 0.09,0.41 0.2,0.41 0.23,-0.44 z"
     id="path458"
     style="fill:#f9a949" />
  <path
     class="cls-5"
     d="m 69.650002,179.01377 h 0.17 a 0.47,0.47 0 0 0 0.18,-0.16 z"
     id="path460"
     style="fill:#f9a949" />
  <path
     class="cls-5"
     d="m 145.79,122.47377 a 7.25,7.25 0 0 1 0,2.35 c 0.05,0 0.13,-0.09 0.16,-0.49 a 5.64,5.64 0 0 0 0,-0.83 c -0.06,-0.3 -0.1,-0.65 -0.16,-1.03 z"
     id="path462"
     style="fill:#f9a949" />
  <path
     class="cls-5"
     d="m 181.22,51.343767 -0.81,1.4 -0.67,1.46 a 9.17,9.17 0 0 1 1.55,-2.44 c -0.14,0 -0.61,0.43 -0.07,-0.42 z"
     id="path464"
     style="fill:#f9a949" />
  <path
     class="cls-5"
     d="m 205.32,44.36377 c 0.42,0 0.86,0.21 1.28,0.27 l -0.05,-0.25 c -1.76,-0.46 -3.03,-0.46 -1.23,-0.02 z"
     id="path466"
     style="fill:#f9a949" />
  <path
     class="cls-5"
     d="m 184.23,49.943767 c 0.22,0 0.61,-0.33 1.16,-0.87 0.27,-0.27 0.57,-0.6 0.89,-1 l 1.13,-1 -0.29,0.24 c 0.06,-0.42 -0.32,-0.23 -0.92,0.28 a 9,9 0 0 0 -0.95,1 11.4,11.4 0 0 0 -1.02,1.35 z"
     id="path468"
     style="fill:#f9a949" />
  <path
     class="cls-5"
     d="m 187.78,46.763767 a 11.11,11.11 0 0 1 1.61,-1.129997 c 0.1,-0.32 -0.73,0.37 -1.61,1.129997 z"
     id="path470"
     style="fill:#f9a949" />
  <path
     class="cls-5"
     d="m 176.83,69.283767 c 0.36,-0.67 -0.34,-0.61 -0.05,-1 -0.13,-0.47 -0.3,0.78 -0.49,1.52 -0.09,0.37 -0.16,0.66 -0.09,0.66 0.07,0 0.31,-0.22 0.63,-1.18 z"
     id="path472"
     style="fill:#f9a949" />
  <path
     class="cls-5"
     d="m 186.35,49.603767 -0.87,0.18 a 7.35,7.35 0 0 0 -0.44,1.13 14.72,14.72 0 0 1 1.31,-1.31 z"
     id="path474"
     style="fill:#f9a949" />
  <path
     class="cls-5"
     d="m 179.48,63.743767 a 10.88,10.88 0 0 1 0.3,-1.61 c 0.12,-0.52 0.23,-1.06 0.37,-1.58 -0.09,0 0,-0.38 0.08,-0.88 -0.59,1.93 -0.93,4.18 -0.75,4.07 z"
     id="path476"
     style="fill:#f9a949" />
  <path
     class="cls-5"
     d="m 180.23,59.673767 0.41,-1.43 c 0.15,-0.43 0.27,-0.8 0.34,-1.09 l -0.42,1.14 c -0.12,0.47 -0.25,0.97 -0.33,1.38 z"
     id="path478"
     style="fill:#f9a949" />
  <path
     class="cls-5"
     d="m 183.75,53.113767 -0.6,0.75 c -0.42,0.63 -0.72,1.33 -1.09,2 l 0.79,-1.41 c 0.27,-0.47 0.6,-0.89 0.9,-1.34 z"
     id="path480"
     style="fill:#f9a949" />
  <path
     class="cls-5"
     d="m 154,79.763767 c -0.45,0.39 -0.92,0.74 -1.36,1.15 l -1.28,1.23 c -0.15,0.36 0.64,-0.19 1.58,-1.11 0.54,-0.62 1.56,-1.46 1.06,-1.27 z"
     id="path482"
     style="fill:#f9a949" />
  <path
     class="cls-5"
     d="m 164,76.373767 a 6.2,6.2 0 0 1 -1.55,0.06 l 0.1,0.63 c 0.45,-0.28 0.91,-0.45 1.45,-0.69 z"
     id="path484"
     style="fill:#f9a949" />
  <path
     class="cls-5"
     d="m 155.16,80.763767 c -0.08,0.18 -1,1 -1.42,1.49 -0.21,0.25 -0.32,0.4 -0.18,0.31 0.14,-0.09 0.53,-0.43 1.38,-1.06 0.12,-0.39 2.88,-2.36 0.22,-0.74 z"
     id="path486"
     style="fill:#f9a949" />
  <path
     class="cls-5"
     d="m 142.5,127.85377 a 3.66,3.66 0 0 0 0.71,-0.51 l 0.06,-0.05 a 5.13,5.13 0 0 1 -0.46,-0.38 l -0.38,-0.32 a 3.33,3.33 0 0 1 0.07,1.26 z"
     id="path488"
     style="fill:#f9a949" />
  <path
     class="cls-5"
     d="m 115.13,155.85377 a 6.48,6.48 0 0 0 2.68,-0.81 1.63,1.63 0 0 0 0.65,-0.59 1.9,1.9 0 0 1 0.47,-0.57 c 0.16,-0.14 0.36,-0.34 0.65,-0.61 a 8,8 0 0 0 1.07,-1.24 c 0.29,-0.73 -0.34,0.36 -1.13,1.05 -0.79,0.69 -1.75,1.22 -1.21,0.75 a 6.68,6.68 0 0 1 -2,1.1 c -0.58,0.2 -1,0.3 -1.32,0.38 -0.57,0.18 -0.63,0.32 0.14,0.54 z"
     id="path490"
     style="fill:#f9a949" />
  <path
     class="cls-5"
     d="m 118.31,153.85377 a 6.18,6.18 0 0 0 1.18,-1.26 10.81,10.81 0 0 1 -1.18,1.26 z"
     id="path492"
     style="fill:#f9a949" />
  <path
     class="cls-5"
     d="m 221.18,23.53377 a 2.33,2.33 0 0 1 0.44,-0.55 3.65,3.65 0 0 1 0.3,-0.27 1.71,1.71 0 0 0 -0.56,0.24 v 0.2 a 3.79,3.79 0 0 1 -0.18,0.38 z"
     id="path494"
     style="fill:#f9a949" />
  <path
     class="cls-5"
     d="m 222.39,21.59377 a 4.19,4.19 0 0 1 0.29,0.78 l 0.18,-0.11 c 0.1,0 0.32,0 0.51,-0.07 a 6.51,6.51 0 0 0 1.1,-0.24 6.35,6.35 0 0 1 -1.53,-0.09 1.06,1.06 0 0 1 -0.55,-0.27 z"
     id="path496"
     style="fill:#f9a949" />
  <path
     class="cls-5"
     d="m 37.2,251.14377 0.23,0.14 a 10.29,10.29 0 0 0 -0.69,-2.34 c 0.14,0.73 0.26,1.47 0.46,2.2 z"
     id="path498"
     style="fill:#f9a949" />
  <polygon
     class="cls-5"
     points="125.38,323.91 124.73,323.51 124.18,323.67 "
     id="polygon500"
     style="fill:#f9a949"
     transform="translate(-72,-103.14623)" />
  <path
     class="cls-5"
     d="m 58.18,198.85377 c 0.28,1.26 0.77,2.64 1,3.82 -0.7,-2.5 -0.37,-4.31 -1,-3.82 z"
     id="path502"
     style="fill:#f9a949" />
  <path
     class="cls-7"
     d="m 267.48,13.34377 c -4.74,18.48 6.64,36.159997 8.11,55.129997 0.26,2 -1.46,4.22 -2,6.53 -0.89,2.09 -1.91,4.12 -3,6.11 a 150.22,150.22 0 0 1 -11,17 c -1.08,1.85 -2.08,3.720003 -3,5.630003 a 55,55 0 0 0 -2.36,5.82 43.17,43.17 0 0 0 -1.92,8.06"
     id="path504"
     style="fill:none;stroke:#8b5e3c;stroke-miterlimit:10" />
  <path
     class="cls-7"
     d="m 255.7,147.21377 c -4.32,6.11 -6.39,13.44 -10.89,20"
     id="path506"
     style="fill:none;stroke:#8b5e3c;stroke-miterlimit:10" />
  <path
     class="cls-7"
     d="m 237.49,205.64377 c 0,2.85 -0.18,5.74 -0.5,8.7 -2.27,9.05 -5.95,17.18 -9.91,25.1 -1.33,2.64 -2.7,5.25 -4.12,7.9 -4,5 -6.1,12.34 -10.2,16.61"
     id="path508"
     style="fill:none;stroke:#8b5e3c;stroke-miterlimit:10" />
  <path
     class="cls-7"
     d="m 65.300002,385.77377 c 2.84,-0.05 5.8,0 8.55,-0.28 a 19.15,19.15 0 0 0 7.45,-2.09 47.45,47.45 0 0 0 6.92,-3.14 55.6,55.6 0 0 0 16.949998,-14.77"
     id="path510"
     style="fill:none;stroke:#8b5e3c;stroke-miterlimit:10" />
  <path
     class="cls-8"
     d="m 250.45,79.693767 c 3.92,0.88 1.94,74.000003 -35.6,149.250003 -33.05,66.24 -81.33,109.39 -84.25,107.14 -2.6,-2 31.65,-39.55 65.48,-107.08 42.7,-85.22 50.63,-150.150003 54.37,-149.310003 z"
     id="path512"
     style="opacity:0.83;fill:#fffaca" />
  <path
     class="cls-9"
     d="m 249,14.22377 c -22.08,5.09 -27.84,11.51 -28.89,16.53 -0.8,3.81 -0.32,13.61 -0.31,13.61 0.01,0 -10.71,2.05 -12.71,2.07 -13.15,0.149997 -24.59,13.319997 -22.91,26.349997 a 32.65,32.65 0 0 0 -33.25,46.000003 c -17.34,-0.53 -33.73,14.31 -34.91,31.62 a 22.75,22.75 0 0 0 -23.559998,33.51 c -8.39,-1.28 -15.9,6.72 -17.29,15.09 -1.39,8.37 1.59,16.78 4.52,24.74 a 35.3,35.3 0 0 0 -16.3,4.06 c -3.000002,1.6 -15.270002,8.17 -13.940002,16.39 0.87,5.37 7.33,9.93 15.570002,11.07 -0.91,0.07 -14.940002,1.33 -21.300002,13.52 a 25.82,25.82 0 0 0 -1.72,18.79 c 5.43,5.57 6.16,9.51 5.67,12.17 -1.25,6.77 -10.71,6.9 -15.07,16.28 -0.5,1.09 -4.18,9 0,15.13 3.71,5.49 11.08,5.69 12.09,5.7 -2.83,1.07 -14.76,6 -20,18.54 a 31.71,31.71 0 0 0 -2.47,12.46 q -1.55,6.14 -3.09,12.24 -2.61,10.24 -5.22,20.45 -8.91,8.31 -11.53,6.71 -3.63,-2.29 5.21,-24.31"
     id="path514"
     style="fill:none;stroke:#dd7b10;stroke-miterlimit:10" />
</svg>
