<?xml version="1.0" encoding="UTF-8" standalone="no"?>
<svg
   id="Layer_1"
   data-name="Layer 1"
   viewBox="0 0 291.84013 413.7563"
   version="1.1"
   sodipodi:docname="karkandak_1.svg"
   width="291.84012"
   height="413.75632"
   inkscape:version="1.2.2 (b0a8486541, 2022-12-01)"
   xmlns:inkscape="http://www.inkscape.org/namespaces/inkscape"
   xmlns:sodipodi="http://sodipodi.sourceforge.net/DTD/sodipodi-0.dtd"
   xmlns="http://www.w3.org/2000/svg"
   xmlns:svg="http://www.w3.org/2000/svg">
  <sodipodi:namedview
     id="namedview349"
     pagecolor="#ffffff"
     bordercolor="#000000"
     borderopacity="0.25"
     inkscape:showpageshadow="2"
     inkscape:pageopacity="0.0"
     inkscape:pagecheckerboard="0"
     inkscape:deskcolor="#d1d1d1"
     showgrid="false"
     inkscape:zoom="1.4094207"
     inkscape:cx="52.858596"
     inkscape:cy="269.61432"
     inkscape:window-width="1920"
     inkscape:window-height="1011"
     inkscape:window-x="0"
     inkscape:window-y="32"
     inkscape:window-maximized="1"
     inkscape:current-layer="Layer_1" />
  <defs
     id="defs4">
    <style
       id="style2">.cls-1{fill:#f89c2f;}.cls-2{fill:#f8ab4f;}.cls-3{fill:#fcce4c;}.cls-4{fill:#dd7b10;}.cls-5{fill:#f9a949;}.cls-6,.cls-8{fill:none;stroke-miterlimit:10;}.cls-6{stroke:#8b5e3c;}.cls-7{fill:#fcf59f;opacity:0.83;}.cls-8{stroke:#dd7b10;}</style>
  </defs>
  <path
     class="cls-1"
     d="m 282.35932,1.6263156 a 21.09,21.09 0 0 0 -7.67,-0.87000004 29,29 0 0 0 -7.35,1.57000004 64.3,64.3 0 0 0 -7.17,3.06 c -2.62,1.43 -5.29,2.75 -8,4 -24,18.4100004 -49.93,36.0000004 -81.25,37.0900004 a 79.14,79.14 0 0 0 -7.08,3.91 c -16,9.76 -29.69,22.000001 -43.27,33.870001 -2.21,2.08 -4.37,4.15 -6.52,6.23 -2.15,2.08 -4.3,4.14 -6.45,6.22 -2.63,2.39 -5.23,4.710003 -7.749999,7.110003 a 133.09,133.09 0 0 0 -30,42.05 c -1.75,2.83 -3.56,5.63 -5.4,8.41 -12.87,19.46 -27.25,38.3 -36.85,59.87 -2,3.06 -3.8,6.06 -5.5,9.14 a 79.56,79.56 0 0 0 -9.93,30 c -0.48,2.61 -1,5.18 -1.47,7.74 -1.9999995,10.25 -4.2599995,20.28 -6.8099995,30.66 -0.64,2.59 -1.29,5.21 -2,7.86 -2.63000001,3 -1.73000001,5.83 -1.78000001,9 q 1.22000001,4.33 2.33000001,8.67 c 0.74,2.89 1.45,5.79 2.12,8.68 5.35,23.6 13.8399995,47.14 8.0799995,72 a 11.06,11.06 0 0 0 1.23,7.29 13.14,13.14 0 0 0 5.08,4.95 c 2,0.86 4.83,3.12 6.44,1.56 a 138.2,138.2 0 0 1 24.06,-10.4 c 2.66,-0.9 5.33,-1.72 8,-2.51 10.06,-3.43 19.9,-5.49 29.78,-10.72 14.359999,-7.68 23.999999,-20.18 38.839999,-27.3 2.84,-1.77 5.71,-3.47 8.59,-5.17 2.88,-1.7 5.76,-3.41 8.61,-5.16 12.66,-7.15 21.34,-16.19 30.67,-26.48 5.47,-5.93 13.7,-6.43 18.89,-11.89 2.7,-2.09 5.4,-3.83 8,-5.74 a 38.26,38.26 0 0 0 7.33,-6.82 c 3.39,-4.22 6.48,-8.54 9.48,-12.88 1.5,-2.17 3,-4.35 4.46,-6.54 5.26,-9.11 10.65,-18.11 16.33,-26.93 q 2.83,-4.41 5.78,-8.75 c 6.89,-11.39 14.56,-22.16 22.07,-32.92 q 2.82,-4 5.59,-8.08 c 1.31,-2 2.54,-4.09 3.7,-6.18 1.16,-2.09 2.25,-4.2 3.28,-6.36 4.51,-8.48 5.61,-18.26 6.06,-26.8 2.9,-24 2,-46.77 6.15,-70.110003 a 45.61,45.61 0 0 0 0.76,-7.22 65.78,65.78 0 0 0 -0.21,-7.16 c -2.16,-21.760001 -18.34,-44.340001 -12.9,-66.270001 a 36.85,36.85 0 0 1 3.74,-9.3600004 3.29,3.29 0 0 0 -0.09,-2.32 z"
     id="path6"
     style="fill:#f89c2f" />
  <path
     class="cls-2"
     d="m 23.559321,329.25632 c -7.82,-4.6 -11.49,-12.88 -14.2299995,-21.19 a 31.79,31.79 0 0 1 -0.29,-7.74 c 0.8,-10.44 5.7099995,-21.49 10.9099995,-32.18 1.49,-3.06 3,-6.09 4.45,-9.08 2,-6.94 4,-13.8 6.16,-20.56 1.07,-3.38 2.16,-6.74 3.3,-10.08 4.29,-25.62 14.65,-48.64 29.61,-69 q 2.8,-3.81 5.82,-7.51 c 10.66,-12.51 21.38,-24.93 32.759999,-36.39 2.27,-2.3 4.57,-4.56 6.87,-6.86 q 2.86,-3.91 5.93,-7.55 c 2,-2.440003 4.16,-4.780003 6.34,-7.050003 12.82,-12.36 26.61,-25.110001 43.17,-32.450001 2.5,-1 5,-1.92 7.47,-2.9 2.47,-0.98 5,-2 7.43,-3 27.36,-6.43 51.95,-21.55 75.89,-35.4 a 18.42,18.42 0 0 1 6.07,5 c 7.86,10 5.18,27.45 3.69,40.17 a 59.46,59.46 0 0 1 -3.81,8.760001 c -0.88,2 -1.83,3.88 -2.86,5.75 a 67.09,67.09 0 0 1 -11.56,15.36 c -2.29,2.39 -4.59,4.54 -6.76,6.440003 -4.36,3.82 -8.26,6.67 -10.85,8.56 -14.66,10.71 -24.39,12.75 -31.71,25.75 -4.45,7.92 -4.77,14.14 -6,20.78 -5.28,28.16 -24.3,48.3 -33.16,57.68 -23.93,25.36 -37.36,16.41 -61.749999,43.66 a 165.49,165.49 0 0 0 -17.78,24.48 c -2.14,3.56 -3.88,6.66 -5.2,9 -6.84,13.17 -12.73,33.12 -26.3,39.06 a 20.71,20.71 0 0 1 -7.47,1.71 27.14,27.14 0 0 1 -8.82,-1.13 28.42,28.42 0 0 1 -7.32,-2.09 z"
     id="path8"
     style="fill:#f8ab4f" />
  <path
     class="cls-3"
     d="m 281.30932,3.8363156 c -0.22,-0.19 -0.37,0.21 -0.47,0.24 0.41,0.16 0.54,-0.32 0.47,-0.24 z"
     id="path10"
     style="fill:#fcce4c" />
  <path
     class="cls-3"
     d="m 279.11932,11.616316 -0.05,-0.3 a 20.64,20.64 0 0 0 -0.45,2 15,15 0 0 1 0.5,-1.7 z"
     id="path12"
     style="fill:#fcce4c" />
  <path
     class="cls-3"
     d="m 276.17932,24.196316 a 7.9,7.9 0 0 0 0.46,-3.07 13.45,13.45 0 0 1 0.58,-3.85 l 0.26,-0.33 -0.27,-1.16 a 47.94,47.94 0 0 0 -1.03,8.41 z"
     id="path14"
     style="fill:#fcce4c" />
  <path
     class="cls-3"
     d="m 275.10932,31.246316 c 0.21,-0.47 0.44,1.48 -0.14,-1.63 v 0.3 c 0.01,0.28 0.07,0.67 0.14,1.33 z"
     id="path16"
     style="fill:#fcce4c" />
  <path
     class="cls-3"
     d="m 274.93932,29.916316 c -0.19,-1.38 -0.12,0.93 0,0 z"
     id="path18"
     style="fill:#fcce4c" />
  <path
     class="cls-3"
     d="m 276.23932,36.146316 c -0.22,-0.56 -0.44,-1.13 -0.65,-1.7 -0.09,0.4 0.25,2 0,1.42 0.55,1.78 0.62,1.36 0.65,0.28 z"
     id="path20"
     style="fill:#fcce4c" />
  <path
     class="cls-3"
     d="m 277.14932,37.666316 -0.33,-0.87 c -0.04,0.18 0.01,0.42 0.33,0.87 z"
     id="path22"
     style="fill:#fcce4c" />
  <path
     class="cls-3"
     d="m 276.14932,34.936316 0.67,1.86 c 0.05,-0.28 0.27,-0.36 -0.29,-0.86 0.25,0.11 -0.08,-0.22 -0.38,-1 z"
     id="path24"
     style="fill:#fcce4c" />
  <path
     class="cls-3"
     d="m 276.03932,33.816316 c 0,-1 -0.18,-2.31 0.39,-0.59 -0.38,-1.66 -0.58,-2.39 -0.7,-2.24 a 6.86,6.86 0 0 0 0.31,2.83 z"
     id="path26"
     style="fill:#fcce4c" />
  <path
     class="cls-3"
     d="m 276.89932,24.856316 c 0.07,-0.44 0.17,-0.88 0.26,-1.31 l -0.19,-1.15 c 0.09,0.57 -0.32,2.54 -0.07,2.46 z"
     id="path28"
     style="fill:#fcce4c" />
  <path
     class="cls-3"
     d="m 279.09932,46.806316 c 0.18,0.06 0.19,-0.69 0.33,-0.88 l -0.59,-1.16 c 0.12,0.66 0.44,1.88 0.26,2.04 z"
     id="path30"
     style="fill:#fcce4c" />
  <path
     class="cls-3"
     d="m 279.44932,45.926316 0.89,1.73 c -0.58,-1.62 -0.79,-1.89 -0.89,-1.73 z"
     id="path32"
     style="fill:#fcce4c" />
  <path
     class="cls-3"
     d="m 277.99932,37.766316 c -0.47,-1 -0.87,-2 -1.3,-3 0.47,1.22 0.94,2.41 1.47,3.58 z"
     id="path34"
     style="fill:#fcce4c" />
  <polygon
     class="cls-3"
     points="406.63,120.87 406.17,120.15 405.46,119.26 "
     id="polygon36"
     style="fill:#fcce4c"
     transform="translate(-124.55068,-66.473684)" />
  <path
     class="cls-3"
     d="m 283.33932,58.136316 c -0.54,-0.64 -0.09,1.18 -0.54,0.46 a 19.53,19.53 0 0 0 1.61,3 13.42,13.42 0 0 1 -1.07,-3.46 z"
     id="path38"
     style="fill:#fcce4c" />
  <path
     class="cls-3"
     d="m 285.23932,63.046316 c -0.23,-0.47 -0.52,-1 -0.83,-1.46 a 10.12,10.12 0 0 0 0.83,1.46 z"
     id="path40"
     style="fill:#fcce4c" />
  <path
     class="cls-3"
     d="m 281.37932,50.736316 a 2.72,2.72 0 0 0 0.12,1.56 l 0.13,-0.85 z"
     id="path42"
     style="fill:#fcce4c" />
  <path
     class="cls-3"
     d="m 281.63932,51.416316 v 0 l 0.55,1.52 z"
     id="path44"
     style="fill:#fcce4c" />
  <path
     class="cls-3"
     d="m 281.30932,50.526316 0.07,0.17 c 0.01,-0.04 0.01,-0.08 -0.07,-0.17 z"
     id="path46"
     style="fill:#fcce4c" />
  <path
     class="cls-3"
     d="m 279.07932,42.736316 c 0.57,1 1.59,3.14 1.19,0.88 -0.53,-0.68 -0.32,0.63 -1.19,-0.88 z"
     id="path48"
     style="fill:#fcce4c" />
  <path
     class="cls-3"
     d="m 281.44932,49.526316 -0.61,-1.94 c -0.09,0.07 -0.12,0.47 -0.42,0 z"
     id="path50"
     style="fill:#fcce4c" />
  <polygon
     class="cls-3"
     points="406.27,116.69 406.51,116.86 406.04,115.98 "
     id="polygon52"
     style="fill:#fcce4c"
     transform="translate(-124.55068,-66.473684)" />
  <path
     class="cls-3"
     d="m 284.52932,59.706316 a 14.33,14.33 0 0 1 1.14,2.63 31.19,31.19 0 0 0 -1,-3.29 c -0.22,-0.1 -0.57,-0.52 -0.14,0.66 z"
     id="path54"
     style="fill:#fcce4c" />
  <path
     class="cls-3"
     d="m 283.18932,55.676316 0.09,0.17 c -0.01,-0.12 -0.03,-0.21 -0.09,-0.17 z"
     id="path56"
     style="fill:#fcce4c" />
  <path
     class="cls-3"
     d="m 288.28932,72.246317 0.05,-0.17 h -0.08 z"
     id="path58"
     style="fill:#fcce4c" />
  <path
     class="cls-3"
     d="m 284.68932,58.846316 a 4.57,4.57 0 0 0 -0.79,-1.7 c 0.27,0.59 0.53,1.22 0.77,1.9 0.08,0.05 0.13,0.05 0.02,-0.2 z"
     id="path60"
     style="fill:#fcce4c" />
  <path
     class="cls-3"
     d="m 286.27932,65.726316 a 12.36,12.36 0 0 0 -0.2,-1.46 3.85,3.85 0 0 0 0.2,1.46 z"
     id="path62"
     style="fill:#fcce4c" />
  <path
     class="cls-3"
     d="m 283.26932,56.166316 -0.07,-0.12 c 0.02,0.3 0.05,0.25 0.07,0.12 z"
     id="path64"
     style="fill:#fcce4c" />
  <path
     class="cls-3"
     d="m 283.26932,56.166316 a 11.22,11.22 0 0 0 0.63,1 c -0.21,-0.48 -0.42,-0.92 -0.62,-1.3 a 3.11,3.11 0 0 1 -0.01,0.3 z"
     id="path66"
     style="fill:#fcce4c" />
  <path
     class="cls-3"
     d="m 291.44932,74.976317 c -0.4,-0.13 -1,-2.32 -1,-4.320001 -0.68,-1.84 -1.69,-0.29 -2.09,1.420001 0.18,0 0.33,0 0.87,1.85 0.05,-0.34 0,-1.42 0,-2.22 0,-0.800001 0,-1.330001 0.39,-0.550001 0.64,2.520001 0.23,2.120001 0.18,3.380001 0.19,-0.55 0.45,0.23 0.75,1.1 0.3,0.87 0.55,1.83 0.91,1.52 -0.1,-0.77 -0.26,-1.53 -0.43,-2.29 0.1,-0.06 0.42,0.76 0.42,0.11 z"
     id="path68"
     style="fill:#fcce4c" />
  <path
     class="cls-3"
     d="m 287.59932,68.526316 -0.24,-0.76 a 11.56,11.56 0 0 1 0.09,2.76 c 0.45,1.230001 0.65,1.470001 0.79,1.530001 -0.23,-1.260001 -0.47,-2.530001 -0.78,-3.800001 z"
     id="path70"
     style="fill:#fcce4c" />
  <path
     class="cls-3"
     d="m 286.36932,64.296316 c 0.61,0.47 1.31,2.28 1.43,1 -0.72,-2.27 -0.83,-1.49 -1.43,-2.78 1.25,3.61 -0.55,-1 0,1.73 -0.3,-0.69 -0.51,-1.33 -0.74,-1.92 0.18,0.66 0.3,1.31 0.41,1.93 v -0.11 0 c 0,-0.17 0,-0.23 0.05,0 a 0.69,0.69 0 0 1 0,0.08 c 0.06,0 0.13,0.06 0.21,0.11 0.24,1.08 -0.06,0.2 -0.21,-0.11 a 0.19,0.19 0 0 0 -0.08,0 v 0 c 0.47,1.18 0.87,2.37 1.28,3.56 a 25.33,25.33 0 0 0 -0.92,-3.49 z"
     id="path72"
     style="fill:#fcce4c" />
  <path
     class="cls-3"
     d="m 281.82932,45.276316 c 0,0.13 0,0.14 -0.05,0.15 0.13,0.23 0.2,0.3 0.05,-0.15 z"
     id="path74"
     style="fill:#fcce4c" />
  <path
     class="cls-3"
     d="m 282.12932,46.876316 a 3.2,3.2 0 0 1 -0.67,-1.29 c -0.14,-0.8 0.2,-0.07 0.32,-0.16 -0.29,-0.48 -0.93,-1.73 -0.56,0 l 0.15,0.24 a 10.76,10.76 0 0 1 0.43,3.37 5.49,5.49 0 0 0 0.33,-2.16 z"
     id="path76"
     style="fill:#fcce4c" />
  <path
     class="cls-3"
     d="m 284.50932,55.686316 1.3,3 -0.21,-1.68 -0.18,0.16 c -0.55,-1.8 -0.67,-1.33 -0.91,-1.48 z"
     id="path78"
     style="fill:#fcce4c" />
  <polygon
     class="cls-3"
     points="413.08,140.43 412.68,139.1 412.17,138.78 "
     id="polygon80"
     style="fill:#fcce4c"
     transform="translate(-124.55068,-66.473684)" />
  <polygon
     class="cls-3"
     points="413.11,143.93 413.22,143.03 412.82,142.91 "
     id="polygon82"
     style="fill:#fcce4c"
     transform="translate(-124.55068,-66.473684)" />
  <path
     class="cls-3"
     d="m 212.96932,293.97632 -0.52,0.83 a 7.73,7.73 0 0 0 0.52,-0.83 z"
     id="path84"
     style="fill:#fcce4c" />
  <path
     class="cls-3"
     d="m 217.23932,288.42632 -0.05,-0.26 c -0.11,0.36 -0.12,0.48 0.05,0.26 z"
     id="path86"
     style="fill:#fcce4c" />
  <path
     class="cls-3"
     d="m 279.28932,178.58632 c -0.73,1.16 -1.76,2.32 -1.29,2.32 l 0.55,-0.23 a 10.75,10.75 0 0 1 0.74,-2.09 z"
     id="path88"
     style="fill:#fcce4c" />
  <path
     class="cls-3"
     d="m 245.54932,239.30632 0.31,-0.3 0.06,-1 z"
     id="path90"
     style="fill:#fcce4c" />
  <path
     class="cls-3"
     d="m 246.68932,241.00632 -1.11,1.52 a 15.82,15.82 0 0 0 1.11,-1.52 z"
     id="path92"
     style="fill:#fcce4c" />
  <path
     class="cls-3"
     d="m 184.80932,319.44632 -0.55,1.06 c 1.31,-1.15 0.58,-0.81 0.55,-1.06 z"
     id="path94"
     style="fill:#fcce4c" />
  <path
     class="cls-3"
     d="m 285.12932,119.08632 a 24.47,24.47 0 0 0 -0.57,2.95 c 0.39,-1.41 0.89,-2.51 0.57,-2.95 z"
     id="path96"
     style="fill:#fcce4c" />
  <path
     class="cls-3"
     d="m 211.02932,288.99632 c -0.28,0.51 -0.37,0.75 -0.28,0.8 0.31,-0.51 0.44,-0.83 0.28,-0.8 z"
     id="path98"
     style="fill:#fcce4c" />
  <path
     class="cls-3"
     d="m 284.20932,125.52632 c 0.06,-0.2 0.1,-0.41 0.16,-0.62 a 24.7,24.7 0 0 1 0.19,-2.82 8.16,8.16 0 0 0 -0.35,3.44 z"
     id="path100"
     style="fill:#fcce4c" />
  <path
     class="cls-3"
     d="m 73.939321,398.65632 c -0.11,0 -0.23,0 -0.33,0 -0.1,0 0.13,0.07 0.33,0 z"
     id="path102"
     style="fill:#fcce4c" />
  <path
     class="cls-3"
     d="m 33.579321,400.52632 c 0.38,-0.11 1,-0.25 1.63,-0.38 a 10.4,10.4 0 0 0 -1.63,0.38 z"
     id="path104"
     style="fill:#fcce4c" />
  <path
     class="cls-3"
     d="m 287.44932,93.016317 c 0.06,-0.89 0,-0.15 0,0 z"
     id="path106"
     style="fill:#fcce4c" />
  <path
     class="cls-3"
     d="m 289.58932,88.836317 c 0,0.2 0.08,0.35 0.17,0.38 a 0.61,0.61 0 0 1 -0.17,-0.38 z"
     id="path108"
     style="fill:#fcce4c" />
  <path
     class="cls-3"
     d="m 286.02932,134.60632 v 0.08 c 0.1,-0.26 0.08,-0.16 0,-0.08 z"
     id="path110"
     style="fill:#fcce4c" />
  <path
     class="cls-3"
     d="m 287.79932,91.696317 c -0.09,0.33 -0.17,0.71 -0.24,1.12 0.05,-0.18 0.12,-0.52 0.24,-1.12 z"
     id="path112"
     style="fill:#fcce4c" />
  <path
     class="cls-3"
     d="m 287.56932,91.856317 0.12,-0.78 c -0.06,-0.12 -0.11,-0.01 -0.12,0.78 z"
     id="path114"
     style="fill:#fcce4c" />
  <path
     class="cls-3"
     d="m 287.36932,94.246317 c 0.05,-0.5 0.11,-1 0.19,-1.43 -0.05,0.17 -0.08,0.24 -0.09,0.2 z"
     id="path116"
     style="fill:#fcce4c" />
  <path
     class="cls-3"
     d="m 132.53932,355.84632 -0.18,0.05 c -0.71,0.63 -0.38,0.38 0.18,-0.05 z"
     id="path118"
     style="fill:#fcce4c" />
  <path
     class="cls-3"
     d="m 271.24932,200.17632 0.05,-0.09 -0.1,0.09 z"
     id="path120"
     style="fill:#fcce4c" />
  <path
     class="cls-3"
     d="m 269.44932,202.89632 a 5.81,5.81 0 0 1 1.74,-2.72 l -1.64,0.05 z"
     id="path122"
     style="fill:#fcce4c" />
  <path
     class="cls-3"
     d="m 201.07932,306.14632 c 0.68,-0.34 1.37,-0.76 2.07,-1.15 a 25.48,25.48 0 0 1 -2.18,2.38 c -0.4,0.43 -0.32,0.47 0.7,0 -0.31,-0.61 1.48,-2 3.18,-3.61 1.7,-1.61 3.25,-3.24 2.87,-3.83 l 1.26,-0.92 c -0.31,0.32 -0.3,0.42 -0.61,0.73 2.51,-1.76 0.81,-2.28 3.4,-5.05 0.91,-0.95 1.64,-1.55 1.2,-0.75 0.53,-0.83 1.05,-1.67 1.55,-2.52 0.54,-0.66 0.61,-0.35 0.07,0.31 q 1.32,-1.82 2.58,-3.65 v 0.05 c 0.2,-0.63 0.77,-2 1.05,-2.65 0.81,-0.81 -0.21,0.55 0.1,0.41 l 1.15,-2.2 c 0.86,-0.61 0,1.25 -1.05,2.61 2.43,-1.1 0.89,-1.87 4.41,-5.47 l -1.2,2 a 6.78,6.78 0 0 0 2,-1.75 29.7,29.7 0 0 1 2.19,-2.65 c -0.55,0.37 -3.92,3.76 -2.72,1.32 a 9.52,9.52 0 0 0 1.64,-2.73 c 0.41,0.26 1.08,-1 2,-2.45 l 0.47,0.45 c 0.88,-1.68 0.53,-1.73 0.9,-2.82 1.21,-1.73 1.86,-1.82 2.48,-2 1.93,-2.77 -1.94,1.52 0.15,-1.9 a 35.37,35.37 0 0 0 4.07,-7.06 c 1.24,-1.55 0.15,0.5 0.68,0 l 0.5,-1.75 c 0.24,-0.36 0.3,-0.16 0.33,-0.06 0.61,-1.35 -0.47,-0.44 0.6,-2.49 -0.27,-0.9 3.37,-3.51 4.14,-6.39 0.51,-0.52 0.17,0.49 0.49,0.43 a 44.29,44.29 0 0 0 2.35,-6.27 c 0.56,-0.73 1.14,-1.47 1.68,-2.22 -1.36,1.57 -0.66,-1 0,-3.21 -0.54,0.52 -1,1 -1.27,1.28 l 1.35,-3.32 c 0.3,-0.34 0.33,0.08 0.29,0.72 l 0.17,-0.65 c 0.81,-1 0.83,-0.28 0.72,0.7 l -0.95,1 c -0.07,1 -0.08,1.9 0.34,1.91 a 6.88,6.88 0 0 1 0.4,-1.13 c 0,0.26 0,0.43 0.11,0.37 0.11,-0.06 0.16,-0.48 0.29,-1.08 l 1,-0.41 -0.16,-0.3 a 44.46,44.46 0 0 0 2.53,-4.15 c 0.68,-3.5 0.51,-6.61 2.1,-11.71 0,1.42 0.7,0.57 1.25,0.86 -1.13,1.11 -1.11,3.92 -2.17,6.51 0.55,-1.34 0.72,-0.94 0.69,-0.56 l 1.08,-4.83 c 0.44,0.27 0.71,-0.85 1.36,-1.93 -0.64,0.26 -0.47,-0.64 -0.05,-1.83 0.42,-1.19 1.12,-2.62 1.49,-3.52 0.36,0.08 0.38,0.6 -0.7,2.66 a 4.67,4.67 0 0 0 1.16,-2.7 3.59,3.59 0 0 1 1.33,-2.57 c -0.32,0.46 -0.55,0.67 -0.54,0.95 a 7.54,7.54 0 0 1 1.56,-2.15 c 0.63,-0.64 1.18,-1.05 1,-0.65 l -0.39,0.46 c 2.71,-2.93 8.1,-9.06 7.73,-10.14 a 3.34,3.34 0 0 1 0.44,1.36 l 2.25,-7.32 c 0.18,0.94 3.06,0.14 1.3,3 a 15.79,15.79 0 0 0 2.58,-3.24 c -0.49,0.44 -1.85,0.61 -1.35,-0.12 0.27,-0.16 0.52,-0.35 0.67,-0.43 a 2.69,2.69 0 0 0 0.43,-0.2 7.38,7.38 0 0 0 0.71,-0.46 l 2.15,-1.68 c -0.78,0.69 -0.91,-0.9 0,-2.11 0,0.3 1,0.56 0.73,1.1 0.26,-0.66 0.48,-1.28 0.7,-2 0.22,-0.72 0.38,-1.32 0.53,-2 -0.3,1 0.74,0.64 1.45,0 -0.19,0.13 0.24,-0.61 0.71,-1.55 a 17.24,17.24 0 0 0 1.16,-2.54 c -0.28,0.48 -0.61,1 -0.91,1.43 a 8.12,8.12 0 0 0 1,-4.34 12.53,12.53 0 0 1 0.48,-4.34 c 0.1,0.56 1.06,1.64 1.75,-0.5 a 36.24,36.24 0 0 1 -1.83,-8.61 l 0.39,-0.68 c -0.06,-1 -0.12,-1.89 -0.23,-2.85 a 28.15,28.15 0 0 1 1.47,4.52 31.46,31.46 0 0 1 0.85,5.44 c 0.54,-1.59 0.5,-0.38 0.85,-2.86 0.42,-0.83 0.27,1.43 0.13,2.17 a 57.2,57.2 0 0 0 1,-5.81 c -0.33,0.1 -0.42,-1 -0.52,-2.15 -0.1,-1.15 -0.22,-2.21 -0.5,-2.1 0.18,2 0.3,4.17 0.28,6.29 -0.34,0.09 -0.71,-0.87 -1,-2.33 a 22.56,22.56 0 0 1 -0.34,-5.39 c 0.31,-1 1.16,0.79 1.39,0.72 a 14.21,14.21 0 0 1 -0.09,-4.1 l 0.28,1.68 c 0.34,-2.17 -0.7,-3.63 0.08,-6.23 0.1,-0.91 1,-2.66 0.66,-2.84 -0.87,1.43 -3.26,1.58 -3.76,0.54 a 53.31,53.31 0 0 1 1.52,-5.77 c 0.71,-1.46 1.26,2.36 1.87,1.12 -0.18,-0.07 -0.34,-0.91 -0.39,-1.26 0.23,-1 0.54,0.44 0.61,-1.65 -0.65,-0.4 0.41,-4.22 -0.49,-1 0,-2.05 0.31,-2.15 0.49,-4.54 -0.51,0.73 -1.3,-2.27 -1.31,-4.33 0.16,0.13 0.42,-0.31 0.55,-0.52 0.45,-4.16 1,-6.37 1.39,-10.26 0.2,-0.34 0.59,-2.19 0.8,-1.36 a 8.42,8.42 0 0 1 -0.13,-2.31 c 0.82,-2.26 -0.19,2.68 0.7,1 -0.38,-0.19 -0.22,-3.15 -0.29,-4.89 -0.66,0.47 -0.53,3.94 -0.46,5.67 -0.84,-0.08 -1.41,-3.15 -1.37,-7.25 0.13,-3.25 0.69,-1.34 0.63,-1.92 0.78,-6 -0.92,-5.32 0.21,-10.28 0.74,-2 1.07,0 1.51,-0.39 -0.07,2.65 -0.76,4 -0.93,5.79 l 0.48,-2.17 a 12.79,12.79 0 0 1 -0.21,3.57 c 0.66,-1.63 1.17,-10.240003 2.07,-14.880003 -0.1,-0.85 -0.15,-2.3 -0.43,-1.64 l -0.07,1.49 c -0.56,1.31 -0.33,-2.85 -0.71,-1 a 28.17,28.17 0 0 1 0.12,-7.11 l 0.68,-0.46 a 5.19,5.19 0 0 0 -0.44,2.62 9.61,9.61 0 0 1 0.5,-2.75 4.21,4.21 0 0 0 0.12,-2.78 c -0.19,0.63 -0.4,1.25 -0.61,1.87 -0.07,-2 -0.6,-4.34 -0.48,-6.75 -0.58,1.11 0.1,0.57 -0.62,2.25 0.45,-0.72 0.43,0.8 0.33,2.19 -0.1,1.39 -0.27,2.67 0.33,1.56 a 6.51,6.51 0 0 0 -0.56,1.17 7,7 0 0 0 -0.31,1.26 14.43,14.43 0 0 1 -0.76,2.95 c 0.21,0 0.46,-0.81 0.17,1.29 a 3,3 0 0 1 0.14,0.48 v 0.14 -0.11 c 0,0.09 0,0.1 0,0 a 3.68,3.68 0 0 1 0.41,-1.05 c 0.37,1.1 0,4.39 0.16,5.54 -0.22,1.22 -0.18,-0.54 -0.46,0.11 l 0.19,1.7 c -0.46,0.12 -1.07,3.200003 -1,0.27 l -0.29,2.620003 a 18.82,18.82 0 0 0 -0.67,4.94 c -0.23,1.22 0.16,3.17 -0.07,2.06 l -0.16,4.13 h -0.12 c -0.48,4 -0.14,8.42 -1.42,13 a 32.39,32.39 0 0 1 -0.38,5.08 l -0.43,0.41 c 0,1.77 -0.89,5.24 -0.55,6 -1.22,1.81 -1,8.53 -1.37,11.62 l 0.49,0.15 a 67.75,67.75 0 0 0 -0.14,6.86 l 0.46,-0.14 c 0.23,2.3 -0.65,5.86 -0.75,9.51 a 3.94,3.94 0 0 1 0.06,-1.82 23.85,23.85 0 0 0 -0.46,6.49 15.48,15.48 0 0 1 -0.83,6 5.54,5.54 0 0 1 -0.53,2.19 1,1 0 0 0 0,-0.23 l -0.1,0.37 -0.58,1.18 a 8,8 0 0 0 0.53,-1 c -0.19,0.69 -0.43,1.75 -0.67,2.8 l -0.6,0.27 -0.07,0.24 c -0.53,0.9 -0.08,0.86 0.45,0.46 a 14.36,14.36 0 0 0 -0.23,1.43 c -1,0.49 -0.87,2.7 -2.16,3.36 a 10.37,10.37 0 0 1 -1.12,2.8 c -0.55,1.15 -1.23,2.31 -1.07,2.79 -0.11,0 -0.34,0.18 0,-0.28 a 19.33,19.33 0 0 0 -2.24,2.65 l -0.79,-0.08 a 3.14,3.14 0 0 0 -0.25,0.44 l -0.09,0.14 v 0.08 l -0.07,0.16 -0.26,0.65 -0.52,1.3 c -1.33,1 -1.93,1.44 -1.27,-0.12 -1.91,3.51 -1.79,2.65 -3.35,5.71 l -0.2,-0.39 c -0.71,1 -1.6,2.72 -2.32,3.05 -1.18,0.76 -3.39,3.22 -5.95,6.08 a 28.22,28.22 0 0 0 -3.74,5.19 c -1.05,1.85 -1.92,3.69 -2.72,5.28 1.56,-0.87 -1.65,2.89 -0.86,3.46 -0.4,0.29 -0.86,1.15 -0.72,0 -0.92,3.43 -2.14,4.8 -2.32,7.27 -0.4,0.25 -0.1,-0.83 -0.38,-0.57 a 2.89,2.89 0 0 1 -0.47,1.32 c -0.29,0.23 0,-0.51 0.06,-1.06 a 16.22,16.22 0 0 0 -0.64,1.89 3.82,3.82 0 0 0 -0.2,1.24 1.66,1.66 0 0 0 0.62,1.25 6,6 0 0 0 -1.7,3.66 c -0.52,0.44 -1.25,1.23 -0.3,-0.77 l -2.14,3.73 c -0.86,1.54 -1.62,3 -1.37,3.2 a 6.3,6.3 0 0 0 -1,1.81 c -1.46,2.41 -1.63,2.59 -3,5 l 0.49,-0.6 c 0.09,1.33 -1.05,2.05 -2.15,4 v -0.09 c -3.19,4 -0.94,2 -4.19,5.93 h 0.55 c 0.61,1 -2.94,3.43 -4.22,6.1 l 0.81,-0.74 c -0.58,1.54 -3.63,3 -4.62,4.25 -0.27,0.25 0.19,-0.54 0.4,-1 -2.83,3.18 0.22,0.8 -1.38,3.5 -0.6,0.3 -0.31,-1.1 -1.53,0.64 a 20.66,20.66 0 0 0 -1.88,3.42 16.19,16.19 0 0 1 -2.91,4.26 c 0.58,-0.37 1.16,-0.73 0.48,0.57 -1.2,1.89 -4.3,4.29 -4.86,6.35 -0.23,0.18 -0.35,0.22 -0.41,0.19 -0.85,1.47 -3.16,4.47 -3.52,5.5 -1.13,0 -2.72,2.09 -4.31,3.89 -1.59,1.8 -3.16,3.39 -3.62,2.78 -1.33,1.09 -2.72,2.16 -4.08,3.25 v -0.21 a 14.84,14.84 0 0 0 -4.16,4 c -0.68,0.39 -0.32,-0.07 -0.32,-0.17 a 46.9,46.9 0 0 0 -4.13,3 22.28,22.28 0 0 0 -3,3.4 l -0.65,-0.09 c -0.65,0.95 -5.85,4.1 -9.1,7.68 0,-0.08 0,-0.22 0.25,-0.52 -3.71,4 -10.73,7.27 -11.15,9.88 l -2.51,2.54 c 3.72,-2.72 -0.07,1 1.62,0.11 -1.37,1.21 -4.07,2.42 -2.34,1 l 0.33,-0.13 c 0.09,-1.23 -4.77,3.17 -5.07,2.56 a 117.61,117.61 0 0 1 -11.26,7.26 l -5.64,3.29 c -1.86,1.09 -3.74,2.1 -5.59,3.13 l 1.21,0.16 -2.6,1.4 c -0.77,0.22 -1.19,0 0.67,-1 a 6.18,6.18 0 0 0 -2.92,2.17 c -3.78,1.67 1,-1.51 -0.1,-0.93 l -1.49,0.85 0.38,-0.11 a 10.43,10.43 0 0 1 -3.32,2.39 c -1.5,0.59 -0.94,0 -1.52,0.22 0,-0.05 -0.22,0 -0.87,0.42 -1.12,0.52 -2.24,1.07 -3.38,1.55 l 1.6,-0.11 c -1.36,1 -3.19,1.45 -1.34,1.32 a 12.5,12.5 0 0 0 -3.18,0.93 c -0.67,0.26 -1.4,0.57 -2.14,0.89 l -1.14,0.51 -0.79,0.36 c -0.24,0.17 -0.47,0.4 -0.67,0.56 -2.61,2.26 -4.85,4.69 -5.51,5.15 a 50.49,50.49 0 0 1 -4.84,5.79 c 0.56,-0.45 1.32,-0.34 -0.36,1.45 -0.419999,-1.57 -3.409999,3 -5.409999,3.88 1.63,-0.9 -4.41,5.3 -1.93,3.84 -1.42,1.46 -0.45,-0.25 -1.69,0.7 a 20.54,20.54 0 0 1 -5.8,4.73 65,65 0 0 1 -7.6,3.57 c 0,0.2 1,0.11 -0.09,0.79 -1.06,0.1 -2.13,0.14 -3.19,0.17 -1.07,0.41 -0.73,1.29 -2.94,1.24 0.33,0.08 0.82,0.18 0.08,0.43 a 308.14,308.14 0 0 1 -35.79,4.39 c 1.7,0 0.61,0.26 -0.62,0.52 0.82,-0.09 0.06,0.43 0.27,0.63 -1.71,0.12 -3.42,0.28 -5.14,0.52 a 9.48,9.48 0 0 1 -3,1.23 c -1.27,0.4 -2.47,0.89 -2.61,1.27 l 1.49,-0.67 c -0.89,0.73 0,0.84 1,0.95 1,0.11 2.32,0.22 2.31,0.72 1,-0.72 2.57,-0.83 4.3,-1 a 13.65,13.65 0 0 0 5.43,-1.16 c 0.87,0.06 -0.66,0.42 -0.18,0.57 0.89,-0.57 2,-0.84 4.23,-1 l -0.23,0.14 c 6.08,-0.91 8.75,-0.69 15.74,-1.28 l -0.58,-0.41 a 16,16 0 0 1 2.56,0 c 1.61,-0.93 -4.21,0.51 -2.74,-0.48 1,0.36 3.68,0 6.24,-0.36 2.56,-0.36 5,-0.88 5.82,-0.49 2.31,-0.52 -0.79,-0.36 1.5,-0.91 l 0.68,0.14 0.49,-0.51 c 1.5,-0.35 2.36,-0.22 2.49,0 -0.37,0.08 -1,0.36 -1.4,0.49 a 14.84,14.84 0 0 0 3.58,-1 c 1.18,-0.48 2.19,-1 2.54,-1 l -2.23,0.64 a 55.6,55.6 0 0 0 9.47,-4.66 33.52,33.52 0 0 0 4.31,-3.25 c 0.67,-0.57 1.29,-1.25 1.89,-1.86 a 18.72,18.72 0 0 0 1.47,-1.9 l -0.47,0.2 c 2.75,-3.79 2.68,-2.68 5.849999,-6.64 l -0.09,0.17 a 16.38,16.38 0 0 1 2.24,-3 c -0.65,1.13 2,-1.45 1.08,0 3,-4 1.37,-2.06 3,-5 l 0.79,-0.29 a 9.09,9.09 0 0 1 2.21,-3.06 c -1.26,1.66 1.54,-0.7 0.18,1.2 a 24.74,24.74 0 0 0 2.67,-2.19 l 0.53,-0.5 0.24,-0.24 0.14,-0.15 a 0.74,0.74 0 0 1 0.25,-0.22 v 0 l 0.14,-0.08 0.27,-0.16 a 7.34,7.34 0 0 1 3.88,-1.43 c 1.8,-2 -4.45,1.42 -3.29,0.64 -1.18,0.18 1.53,-1.54 3.09,-2.15 1.56,-0.61 3.22,0 7.07,-1.95 -0.39,0.19 -0.38,0.27 -0.77,0.46 1.57,-0.49 2.67,-1.74 4.62,-2.28 0.69,-1.06 2.28,-1.17 2.19,-2 l -3.4,2 c 1.89,-1.22 3.3,-3 6.72,-4.4 a 10.27,10.27 0 0 1 -1.63,1.46 c 1.06,-0.32 1.74,-1.14 2.83,-1.48 0.12,0.85 -4.1,2.49 -5.94,4.14 1.19,-0.24 3.73,-2.67 3.07,-1.33 1,-1.79 3.8,-1.94 5.91,-4.14 l 0.07,0.51 a 16.42,16.42 0 0 1 1.8,-1.42 c -0.33,0.45 -0.66,0.9 -1,1.33 1.76,-1.67 4.12,-2 5.91,-3.46 -4,2.53 -1.21,0.08 -3.1,0.85 4.62,-3.65 3.54,-0.68 8.95,-4.44 -0.71,0.54 -3,1.58 -1.91,0.64 a 24.82,24.82 0 0 1 3.36,-1.59 c 3.57,-2.54 -0.83,0 0.55,-1.31 1.56,-0.35 1.62,-1.42 3.07,-2.66 l 0.3,0.38 c 4.18,-2.68 0.48,-1.56 4.26,-3.94 l -1.1,1.67 1.75,-1.55 -0.05,0.73 a 22.39,22.39 0 0 1 4.49,-3.69 c -0.67,0.09 -0.29,-0.88 1.39,-2.27 1.34,-0.72 -0.35,0.88 2,-1.14 a 3.37,3.37 0 0 1 -2,2 c 0,0.21 -0.34,0.68 -0.36,0.89 a 24.89,24.89 0 0 0 4,-3.24 6.91,6.91 0 0 1 -1,0.7 l 3,-3.41 c 0.66,-0.31 0.33,0.16 0,0.63 0.66,-0.63 1,-1.21 2,-2.11 0,0.52 0.32,0.78 -1,2.15 l 3,-3.12 c 0.33,-0.05 2,-1.08 1.64,-0.61 1.95,-1.38 3.88,-4.39 6.44,-6.22 a 4,4 0 0 1 0.73,-0.91 c 1.14,-0.91 2.19,-1.73 3.38,-2.55 a 22.93,22.93 0 0 0 3.55,-3 l 2,-0.63 c 2,-1.77 -2.64,0.92 0.78,-2.05 2.44,-2.15 1.33,-0.26 2.35,-0.8 a 32,32 0 0 1 2.17,-2.41 17.31,17.31 0 0 1 3.4,-2.59 18.7,18.7 0 0 1 -2.03,1.67 z m 22,-26.31 c -0.27,0.61 -0.78,1.86 -1.29,2.09 -0.07,-0.93 0.51,-1.23 1.25,-2.09 z m 25.65,-44.53 a 4.38,4.38 0 0 1 -1.06,1.81 9.8,9.8 0 0 1 1.02,-1.81 z m 38.2,-132.53 v 0.07 c -0.36,1.43 -0.24,0.93 -0.04,-0.07 z m 0.51,-3.000003 c 0,-0.31 -0.1,-0.29 -0.18,-0.17 a 4.66,4.66 0 0 1 -0.07,1.660003 2.52,2.52 0 0 0 0.26,-1.470003 z m -164.8,257.600003 0.57,-0.15 c -1.15,0.74 -0.88,0.46 -0.61,0.17 z"
     id="path124"
     style="fill:#fcce4c" />
  <path
     class="cls-3"
     d="m 246.55932,240.79632 a 0.45,0.45 0 0 1 -0.36,0.12 c -0.05,0.27 0.03,0.32 0.36,-0.12 z"
     id="path126"
     style="fill:#fcce4c" />
  <path
     class="cls-3"
     d="m 184.90932,319.24632 -0.08,0.06 a 0.19,0.19 0 0 0 0,0.14 z"
     id="path128"
     style="fill:#fcce4c" />
  <path
     class="cls-3"
     d="m 286.90932,146.76632 a 4.74,4.74 0 0 1 -0.34,1.17 c 0.11,0.04 0.23,-0.23 0.34,-1.17 z"
     id="path130"
     style="fill:#fcce4c" />
  <path
     class="cls-3"
     d="m 288.18932,83.806317 c 0,0.6 0,1.2 -0.08,1.8 a 7.14,7.14 0 0 1 0.35,-1.6 c -0.12,0.03 -0.32,0.36 -0.27,-0.2 z"
     id="path132"
     style="fill:#fcce4c" />
  <path
     class="cls-3"
     d="m 289.69932,67.406316 c -0.12,-0.26 -0.15,-0.58 -0.29,-0.83 l -0.19,0.13 c 0.32,1.16 0.68,1.94 0.48,0.7 z"
     id="path134"
     style="fill:#fcce4c" />
  <path
     class="cls-3"
     d="m 289.90932,82.216317 c 0.41,-0.13 0.34,-1.32 0.25,-2.65 a 0.88,0.88 0 0 1 0,0.23 c -0.57,-0.38 -0.36,1.02 -0.25,2.42 z"
     id="path136"
     style="fill:#fcce4c" />
  <path
     class="cls-3"
     d="m 290.14932,79.256317 c 0,-0.41 0,-0.84 -0.05,-1.23 -0.23,-0.15 -0.01,0.5 0.05,1.23 z"
     id="path138"
     style="fill:#fcce4c" />
  <path
     class="cls-3"
     d="m 287.51932,95.956317 c 0.17,-0.62 -0.48,-0.45 -0.28,-0.79 -0.44,-0.77 0.21,4.36 0.28,0.79 z"
     id="path140"
     style="fill:#fcce4c" />
  <polygon
     class="cls-3"
     points="415.69,148.9 415.84,147.66 415.32,148.13 "
     id="polygon142"
     style="fill:#fcce4c"
     transform="translate(-124.55068,-66.473684)" />
  <path
     class="cls-3"
     d="m 289.94932,91.816317 0.34,-2.15 c -0.09,0 -0.11,-0.25 -0.12,-0.6 a 12.14,12.14 0 0 0 -0.22,2.75 z"
     id="path144"
     style="fill:#fcce4c" />
  <path
     class="cls-3"
     d="m 290.16932,89.066317 a 8.65,8.65 0 0 0 0.08,-1.75 c -0.03,0.38 -0.09,1.21 -0.08,1.75 z"
     id="path146"
     style="fill:#fcce4c" />
  <path
     class="cls-3"
     d="m 291.25932,84.156317 -0.17,0.63 c -0.06,0.51 -0.14,1 -0.23,1.51 0.15,-0.7 0.29,-1.42 0.4,-2.14 z"
     id="path148"
     style="fill:#fcce4c" />
  <path
     class="cls-3"
     d="m 287.44932,114.97632 -0.11,2.37 c 0.15,0.26 0.32,-0.37 0.35,-1.26 -0.03,-0.56 -0.01,-1.45 -0.24,-1.11 z"
     id="path150"
     style="fill:#fcce4c" />
  <path
     class="cls-3"
     d="m 289.58932,108.00632 a 2.64,2.64 0 0 1 -0.48,1 l 0.61,0.14 z"
     id="path152"
     style="fill:#fcce4c" />
  <path
     class="cls-3"
     d="m 289.00932,114.88632 c 0.15,0.25 0.14,3.46 0.41,0.48 -0.14,-0.26 -0.04,-2.63 -0.41,-0.48 z"
     id="path154"
     style="fill:#fcce4c" />
  <polygon
     class="cls-3"
     points="408.5,216.17 409.49,216.75 409.52,216.15 "
     id="polygon156"
     style="fill:#fcce4c"
     transform="translate(-124.55068,-66.473684)" />
  <path
     class="cls-3"
     d="m 283.57932,182.22632 c 1.14,-2.74 -0.36,-0.85 0.68,-3.31 0,-0.72 -0.84,2 -0.84,1.27 -0.29,1.76 -0.75,2.59 0.16,2.04 z"
     id="path158"
     style="fill:#fcce4c" />
  <path
     class="cls-3"
     d="m 283.44932,180.18632 c 0,-0.28 0.07,-0.58 0.1,-0.9 a 6.11,6.11 0 0 0 -0.1,0.9 z"
     id="path160"
     style="fill:#fcce4c" />
  <path
     class="cls-3"
     d="m 26.849321,401.80632 c -0.62,0.11 -1.23,0.28 -1.85,0.42 l 1.26,-0.09 z"
     id="path162"
     style="fill:#fcce4c" />
  <path
     class="cls-3"
     d="m 23.729321,403.74632 -0.65,-0.43 -0.81,1 a 4.53,4.53 0 0 1 1.46,-0.57 z"
     id="path164"
     style="fill:#fcce4c" />
  <path
     class="cls-3"
     d="m 226.88932,276.34632 -0.05,-0.2 c -0.3,0.14 -0.54,0.49 -1,1.18 z"
     id="path166"
     style="fill:#fcce4c" />
  <polygon
     class="cls-3"
     points="335.85,362.57 336.54,362.66 336.82,362.33 "
     id="polygon168"
     style="fill:#fcce4c"
     transform="translate(-124.55068,-66.473684)" />
  <path
     class="cls-3"
     d="m 196.81932,310.99632 c 0.69,-0.49 1.4,-1.2 2.09,-1.7 -1.4,1.23 -2.71,1.23 -2.09,1.7 z"
     id="path170"
     style="fill:#fcce4c" />
  <path
     class="cls-4"
     d="m 127.98932,134.70632 c 2.6,-4.27 1.82,-8.64 1,-13 a 33.72,33.72 0 0 1 -0.75,-6.4 c 0.22,-4.63 2.48,-7.44 6.27,-10.34 a 22.44,22.44 0 0 1 6.16,-2.31 53,53 0 0 1 13.88,-0.94 27.26,27.26 0 0 1 0,-7.000003 16.08,16.08 0 0 1 2,-7.24 21.37,21.37 0 0 1 4.93,-6 c 5.46,-5 15.55,-2.92 19.41,-7.28 7.12,-10.650001 13.65,-23.190001 27.6,-26.560001 1.9,-0.1 4.05,-0.08 5.35,-1.47 1.3,-1.39 1.17,-3.21 1.3,-4.94 0.18,-2.3 1.9,-4.68 4.42,-6.93 a 46.61,46.61 0 0 1 9.13,-6.12 20.43,20.43 0 0 1 6.53,-2.94 c 2.34,-0.69 4.82,-1.23 7.21,-2 -1,3.5 -6.75,5.37 -5.54,9.18 1.23,2.24 4,3.46 6.55,3.63 0.68,-0.67 2.89,-0.32 3.84,-0.62 8.08,-10.94 7.82,-35.00000044 15.65,-30.1200004 13.5,6.2200004 -10.88,28.6100004 -23,36.6500004 a 29.38,29.38 0 0 0 -6.49,5.27 27.63,27.63 0 0 1 -6.95,5.27 c -2.94,1.69 -5.14,2.61 -11.78,5.65 -2.21,1 -4.91,2.25 -8.3,3.84 -6.92,3.25 -8.48,4.07 -9.58,6.18 -1.5,2.89 -0.93,5.890001 -0.33,8.530001 0.6,2.64 1.21,4.9 -0.22,6.33 -2.18,2.18 -5.73,-1 -12.65,-0.2 -5.08,0.61 -12.16,3.42 -15,8.94 -3.58,6.94 1.35,14.690003 -1.2,16.110003 -2.37,1.31 -6.07,-6 -12.86,-6.09 -5,0 -8.92,4 -11.18,6.35 -1.17,1.21 -5.56,5.77 -6.35,12.43 -1.17,9.8 6.74,13.34 4.6,18.53 -1.92,4.67 -9.07,3.68 -26,12.22 -3.2,1.61 -5.42,2.89 -6.17,5.31 -1.77,5.67 6.93,10 5.77,15 -0.82,3.55 -5.92,4.53 -11.5,5.94 a 39.36,39.36 0 0 0 -8.249999,2.81 c -5.74,3.51 -9.65,11 -7.24,18.67 a 30.91,30.91 0 0 0 2.81,8.76 c 0.95,2.15 1.55,3.82 0.76,5.84 -0.62,1.56 -1.62,2.17 -3.24,3 a 35.92,35.92 0 0 0 -7,4.44 c -5.11,3.68 -12.83,12.42 -4.71,18.68 2.08,2.46 4.12,4.6 3.37,6.89 -1,3.16 -6.05,2.51 -13.07,4.49 a 36.38,36.38 0 0 0 -7.6,3.09 37.15,37.15 0 0 0 -11.12,9.29 c -7.2,9 -9.31,22.23 -2.83,32.77 1.21,3.82 -1,6.63 -3.61,8.49 -12.1,4.87 -19.27,18.67 -12.49,30.16 a 25.83,25.83 0 0 0 7.66,8.41 c 2.44,1.89 4.25,3.16 3.84,4.74 -0.8,3.11 -8.6,1.28 -13.7,6.43 a 12.4,12.4 0 0 0 -3.22,6 50.89,50.89 0 0 0 -1,7.92 c -0.15,2.62 -0.13,5.22 0,7.8 a 119.57,119.57 0 0 1 -2.23,30.65 c -2.71,-8.59 -8.94,-15 -9.05,-24.18 a 35.32,35.32 0 0 1 0,-9.13 30.71,30.71 0 0 1 2.57,-8.87 31,31 0 0 1 5.55,-8.15 30.94,30.94 0 0 0 4,-6 18.77,18.77 0 0 0 1.76,-8.11 c 0,-4.62 -1.28,-7.6 -2.46,-10.92 -3.57,-8.15 -1.21,-17.28 2.7,-24.81 3.91,-7.53 12.74,-6.13 19.72,-7.29 -12.8,-10.63 -12.15,-31.81 -0.56,-44.92 a 25.09,25.09 0 0 1 5.89,-3.18 c 6.47,-2.69 13.91,-4.65 15.23,-12.93 1,-6.63 -3.62,-11.44 -4.47,-17.47 -0.76,-12.34 21.28,-5.67 20.17,-15.81 -0.16,-10.44 -10.65,-27.05 5.55,-33.66 a 14.49,14.49 0 0 1 9.94,-0.48 c 2.34,0.7 4.119999,1.37 5.279999,0.31 1.72,-1.58 -0.07,-5 -1.87,-9.1 -2.999999,-6.16 -4.719999,-15 3.41,-17.57 a 45.39,45.39 0 0 1 8.31,-2.11 c 5.91,-1.1 12.16,-2.42 15.45,-7.81 z"
     id="path172"
     style="fill:#dd7b10" />
  <path
     class="cls-5"
     d="m 125.25932,134.35632 c 0.86,-1.13 0.2,-1 0.26,-1.15 -0.58,1 -0.68,1.23 -0.57,1.29 0.11,0.06 0.38,-0.13 0.31,-0.14 z"
     id="path174"
     style="fill:#f9a949" />
  <path
     class="cls-5"
     d="m 99.749321,145.44632 0.369999,-0.53 a 8.45,8.45 0 0 0 -2.589999,4.36 8.86,8.86 0 0 1 2.22,-3.83 z"
     id="path176"
     style="fill:#f9a949" />
  <path
     class="cls-5"
     d="m 100.77932,170.05632 a 1.09,1.09 0 0 0 1.08,-1.22 4.32,4.32 0 0 0 -0.22,-1.22 c -0.07,-0.2 -0.14,-0.42 -0.23,-0.63 l -0.14,-0.32 -0.16,-0.38 c -0.55,-1.2 -1.209999,-2.5 -1.809999,-3.76 a 20.68,20.68 0 0 1 -1.47,-3.88 l -0.08,-0.86 a 20.57,20.57 0 0 1 -1.05,-2.16 24.6,24.6 0 0 0 1.41,4.79 c 0.34,0.79 0.68,1.57 1.06,2.31 l 0.999999,2.15 0.48,1.05 0.39,0.88 a 7.33,7.33 0 0 1 0.43,1.3 2.29,2.29 0 0 1 0,1.22 1.16,1.16 0 0 1 -0.69,0.73 z"
     id="path178"
     style="fill:#f9a949" />
  <path
     class="cls-5"
     d="m 86.809321,168.52632 c 0.54,-0.06 -0.3,0.32 -0.38,0.37 a 6,6 0 0 1 0.7,-0.3 16.28,16.28 0 0 1 3.64,-1 h -0.74 a 20,20 0 0 0 -3.22,0.93 z"
     id="path180"
     style="fill:#f9a949" />
  <path
     class="cls-5"
     d="m 90.029321,167.62632 c 1.72,-0.26 1.15,-0.22 0.43,-0.17 -0.72,0.05 -1.57,0.27 -0.43,0.17 z"
     id="path182"
     style="fill:#f9a949" />
  <path
     class="cls-5"
     d="m 77.349321,176.31632 a 14.07,14.07 0 0 1 2.69,-3.87 9.4,9.4 0 0 0 -0.92,0.78 14.92,14.92 0 0 0 -1.07,1.19 c -0.62,0.8 -1,1.36 -0.63,0.65 a 12.27,12.27 0 0 0 -1.15,2.43 c -0.19,0.53 -0.21,0.78 -0.17,0.8 0.04,0.02 0.47,-0.83 1.25,-1.98 z"
     id="path184"
     style="fill:#f9a949" />
  <path
     class="cls-5"
     d="m 76.359321,180.52632 c 0.07,-0.37 0.13,-0.75 0.22,-1.12 l 0.31,-1.13 a 5.18,5.18 0 0 0 -0.53,2.25 z"
     id="path186"
     style="fill:#f9a949" />
  <path
     class="cls-5"
     d="m 79.289321,173.85632 a 14,14 0 0 0 -2.4,4.44 c 0.18,-0.29 0.33,-0.42 0.46,-0.68 a 8.69,8.69 0 0 0 0.46,-1.44 c 0,0.48 0.18,-0.57 1.48,-2.32 z"
     id="path188"
     style="fill:#f9a949" />
  <path
     class="cls-5"
     d="m 81.449321,171.99632 a 14.46,14.46 0 0 1 2.76,-1.55 c 0.26,-0.09 0.33,-0.08 0.11,0.09 -0.22,0.17 -0.73,0.48 -1.58,1.14 0.83,-0.6 1.59,-1 2.21,-1.36 l 1.5,-0.79 c 0.81,-0.39 1.15,-0.56 1,-0.58 a 6.75,6.75 0 0 0 -1.86,0.6 16.76,16.76 0 0 0 -4.14,2.45 z"
     id="path190"
     style="fill:#f9a949" />
  <path
     class="cls-5"
     d="m 100.31932,171.02632 a 2.44,2.44 0 0 0 1.2,-0.05 1.82,1.82 0 0 0 0.92,-0.74 3.73,3.73 0 0 0 -0.22,-2.12 2.94,2.94 0 0 1 0.15,1.09 1.76,1.76 0 0 1 -0.54,1.27 1.87,1.87 0 0 1 -1.1,0.46 c -0.28,0.03 -0.47,0.02 -0.41,0.09 z"
     id="path192"
     style="fill:#f9a949" />
  <path
     class="cls-5"
     d="m 78.079321,201.23632 c 0.2,0.19 0.17,-1.25 0.29,-1.57 l -0.79,-2.62 c 0.25,1.48 0.71,3.99 0.5,4.19 z"
     id="path194"
     style="fill:#f9a949" />
  <path
     class="cls-5"
     d="m 78.369321,199.66632 c 0.37,1.3 0.71,2.57 0.94,3.81 a 19.33,19.33 0 0 0 -0.62,-3.28 c -0.17,-0.57 -0.24,-0.67 -0.32,-0.53 z"
     id="path196"
     style="fill:#f9a949" />
  <path
     class="cls-5"
     d="m 76.999321,181.44632 a 13.61,13.61 0 0 1 2.78,-7.28 12.92,12.92 0 0 0 -2.24,4.2 15.46,15.46 0 0 0 -0.7,4.51 14.22,14.22 0 0 1 0.16,-1.43 z"
     id="path198"
     style="fill:#f9a949" />
  <path
     class="cls-5"
     d="m 73.389321,208.60632 c 0.71,-0.28 1.39,-0.57 2,-0.87 -1.1,0.51 -2.39,1 -3.73,1.43 z"
     id="path200"
     style="fill:#f9a949" />
  <path
     class="cls-5"
     d="m 62.239321,212.52632 c 0.91,-0.83 0.16,-0.46 -0.59,0 -0.75,0.46 -1.45,1.07 -0.46,0 a 9,9 0 0 0 -1.15,1.23 8.61,8.61 0 0 0 -0.91,1.4 11.19,11.19 0 0 0 -0.62,1.49 13.18,13.18 0 0 0 -0.34,1.45 12.07,12.07 0 0 0 -0.05,2.6 c 0,0.24 0,0.47 0.07,0.75 l 0.16,0.62 c 0.09,0.34 0.17,0.68 0.28,1 -0.1,-0.33 -0.17,-0.7 -0.25,-1 l -0.13,-0.7 v -0.74 a 10.09,10.09 0 0 1 0.27,-2.7 8.94,8.94 0 0 1 3.72,-5.4 z"
     id="path202"
     style="fill:#f9a949" />
  <path
     class="cls-5"
     d="m 60.239321,226.93632 a 32.13,32.13 0 0 1 -1.61,-3.88 17.93,17.93 0 0 0 1.61,3.88 z"
     id="path204"
     style="fill:#f9a949" />
  <path
     class="cls-5"
     d="m 78.449321,207.66632 a 4.85,4.85 0 0 0 -0.6,0.12 l -1.81,0.5 a 12.8,12.8 0 0 0 1.41,-0.07 5.61,5.61 0 0 0 1,-0.55 z"
     id="path206"
     style="fill:#f9a949" />
  <path
     class="cls-5"
     d="m 77.499321,208.21632 v 0 a 17.24,17.24 0 0 1 -2.95,0.92 c 0.2,-0.05 0.56,-0.13 1.07,-0.27 a 15.55,15.55 0 0 0 1.88,-0.65 z"
     id="path208"
     style="fill:#f9a949" />
  <path
     class="cls-5"
     d="m 78.659321,207.52632 -0.2,0.14 a 0.25,0.25 0 0 0 0.2,-0.14 z"
     id="path210"
     style="fill:#f9a949" />
  <path
     class="cls-5"
     d="m 77.509321,192.93632 c 0.78,2.39 2.24,7.25 1.43,2.38 -0.68,-1.66 -0.24,1.21 -1.43,-2.38 z"
     id="path212"
     style="fill:#f9a949" />
  <path
     class="cls-5"
     d="m 79.709321,207.02632 a 3.5,3.5 0 0 0 0.25,-1.64 v -0.17 c 0,-0.53 0,-1.05 -0.07,-1.59 -0.1,0.09 -0.2,0.82 -0.42,-0.26 0.11,0.63 0.2,1.24 0.26,1.85 v 0.19 a 3.63,3.63 0 0 1 -0.02,1.62 z"
     id="path214"
     style="fill:#f9a949" />
  <path
     class="cls-5"
     d="m 79.009321,208.08632 a 2.34,2.34 0 0 0 0.7,-1.06 2.12,2.12 0 0 1 -0.24,0.37 l -0.13,0.18 -0.19,0.16 a 1.17,1.17 0 0 1 -0.14,0.35 z"
     id="path216"
     style="fill:#f9a949" />
  <path
     class="cls-5"
     d="m 59.339321,217.80632 a 12.1,12.1 0 0 0 -0.21,2 v 1 a 4.67,4.67 0 0 0 0.15,1.12 21.83,21.83 0 0 0 1,3.62 c -0.21,-0.65 -0.41,-1.33 -0.58,-2 -0.08,-0.36 -0.18,-0.7 -0.23,-1.07 l -0.19,-1.2 v -1.27 c 0,-0.4 0.09,-0.82 0.14,-1.22 a 8.89,8.89 0 0 1 0.78,-2.42 c 0,-0.25 0.24,-0.73 0.15,-0.74 -0.09,-0.01 -0.15,0.1 -0.37,0.43 a 6.08,6.08 0 0 0 -0.34,0.71 4.8,4.8 0 0 0 -0.3,1.04 z"
     id="path218"
     style="fill:#f9a949" />
  <path
     class="cls-5"
     d="m 68.239321,210.57632 -0.43,0.15 c 0.28,-0.05 0.5,-0.1 0.43,-0.15 z"
     id="path220"
     style="fill:#f9a949" />
  <path
     class="cls-5"
     d="m 60.319321,244.13632 0.29,-0.14 a 0.38,0.38 0 0 1 0,-0.1 z"
     id="path222"
     style="fill:#f9a949" />
  <path
     class="cls-5"
     d="m 60.639321,215.80632 a 9.89,9.89 0 0 1 2.09,-2.36 18.38,18.38 0 0 1 1.76,-1.29 9.64,9.64 0 0 0 -4.21,4.12 c -0.01,0.25 -0.07,0.25 0.36,-0.47 z"
     id="path224"
     style="fill:#f9a949" />
  <path
     class="cls-5"
     d="m 62.769321,232.69632 a 25.23,25.23 0 0 0 -0.87,-2.94 27.11,27.11 0 0 0 0.87,2.94 z"
     id="path226"
     style="fill:#f9a949" />
  <path
     class="cls-5"
     d="m 67.099321,210.81632 0.29,-0.11 c -0.69,0.12 -0.6,0.15 -0.29,0.11 z"
     id="path228"
     style="fill:#f9a949" />
  <path
     class="cls-5"
     d="m 67.099321,210.81632 a 13.84,13.84 0 0 0 -2.61,1.34 22.09,22.09 0 0 1 3.32,-1.43 c -0.26,0.05 -0.52,0.07 -0.71,0.09 z"
     id="path230"
     style="fill:#f9a949" />
  <path
     class="cls-5"
     d="m 55.869321,249.76632 a 13.28,13.28 0 0 1 2.82,-1.86 22.8,22.8 0 0 0 5,-3.77 c 1.16,-1.82 0.81,-2.35 0.18,-2 -0.63,0.35 -1.84,1.18 -3.26,1.89 0,0.1 0.05,0.18 -0.26,0.56 a 11.33,11.33 0 0 1 -2.77,2.11 16,16 0 0 0 4,-2.23 c 0.3,-0.26 0.59,-0.49 0.82,-0.67 a 4,4 0 0 1 0.49,-0.42 c 0.21,-0.15 0.19,0 -0.29,0.75 a 11.21,11.21 0 0 1 -2.26,2 9.26,9.26 0 0 1 -1.39,0.79 c -0.73,0.3 -1.16,0.39 -2.44,0.87 1.15,-0.28 -0.37,0.68 -2.13,1.6 -1.76,0.92 -3.66,1.94 -2.93,2 1.53,-0.72 3.09,-1.4 4.61,-2.14 0.1,0.1 -1.54,0.97 -0.19,0.52 z"
     id="path232"
     style="fill:#f9a949" />
  <path
     class="cls-5"
     d="m 63.849321,238.21632 a 10.43,10.43 0 0 0 0.08,-1.47 8,8 0 0 1 -0.49,2.29 8.08,8.08 0 0 1 -1.29,2.28 l -0.34,0.68 -0.36,0.53 c -0.18,0.33 -0.37,0.54 -0.49,0.73 a 2.48,2.48 0 0 0 -0.36,0.64 9.52,9.52 0 0 0 3.23,-6.19 4.34,4.34 0 0 1 0.02,0.51 z"
     id="path234"
     style="fill:#f9a949" />
  <path
     class="cls-5"
     d="m 62.239321,229.89632 a 17,17 0 0 1 1.51,2.51 c 0.4,0.76 0.68,1.11 0.53,-0.15 a 16.23,16.23 0 0 0 -1.69,-3.74 15,15 0 0 1 -1.34,-2.35 c 3.45,7.91 -1.17,-2.12 1,3.65 -0.7,-1.48 -1.36,-2.89 -1.9,-4.33 0.52,1.58 1.09,3 1.54,4.27 v -0.18 0 0 c -0.09,-0.35 -0.11,-0.48 0,-0.09 l 0.07,0.16 c 0.08,0 0.18,0.14 0.29,0.28 0.81,2.21 0.06,0.39 -0.29,-0.28 0,0 -0.07,-0.07 -0.1,-0.07 v 0 a 17.44,17.44 0 0 1 2.08,7.17 c 0.07,-1.49 -0.12,-3.31 -1.7,-6.85 z"
     id="path236"
     style="fill:#f9a949" />
  <path
     class="cls-5"
     d="m 80.879321,199.52632 c 0,0.27 0,0.26 0,0.29 0.12,0.53 0.2,0.71 0,-0.29 z"
     id="path238"
     style="fill:#f9a949" />
  <path
     class="cls-5"
     d="m 81.229321,203.00632 a 24.78,24.78 0 0 1 -0.71,-3 c -0.24,-1.72 0.2,0 0.32,-0.15 -0.36,-1.17 -1.24,-4.06 -0.6,-0.32 l 0.18,0.57 a 21,21 0 0 1 0.25,5.14 v 0.1 c 0,1.19 -0.45,1.63 -0.39,1.45 a 2.59,2.59 0 0 0 0.66,-1.48 v -0.08 a 11.75,11.75 0 0 0 0.29,-2.23 z"
     id="path240"
     style="fill:#f9a949" />
  <path
     class="cls-5"
     d="m 67.549321,212.06632 a 15.25,15.25 0 0 0 -3.48,1.68 7.6,7.6 0 0 0 -2.71,3.06 7.25,7.25 0 0 1 3,-2.7 l -0.29,-0.08 a 16.34,16.34 0 0 1 2.11,-1.08 c 0.48,-0.22 0.76,-0.34 0.92,-0.44 0.35,-0.19 0.22,-0.27 0.45,-0.44 z"
     id="path242"
     style="fill:#f9a949" />
  <path
     class="cls-5"
     d="m 59.649321,244.39632 a 5.37,5.37 0 0 0 0.32,-0.84 13.8,13.8 0 0 1 -2.58,2.45 17.15,17.15 0 0 0 2.26,-1.61 z"
     id="path244"
     style="fill:#f9a949" />
  <polygon
     class="cls-5"
     points="174.51,315.33 176.55,314.68 176.73,314.18 "
     id="polygon246"
     style="fill:#f9a949"
     transform="translate(-124.55068,-66.473684)" />
  <path
     class="cls-5"
     d="m 114.23932,149.31632 1.86,-1 c -0.89,0.44 -1.45,0.75 -1.86,1 z"
     id="path248"
     style="fill:#f9a949" />
  <path
     class="cls-5"
     d="m 109.28932,164.52632 0.39,0.22 c -0.52,-0.54 -0.77,-0.76 -0.39,-0.22 z"
     id="path250"
     style="fill:#f9a949" />
  <path
     class="cls-5"
     d="m 25.539321,368.17632 c 0.53,-2.91 1.69,-5.91 1.19,-5.65 l -0.58,0.79 c -0.25,2.01 -0.44,3.55 -0.61,4.86 z"
     id="path252"
     style="fill:#f9a949" />
  <path
     class="cls-5"
     d="m 69.759321,250.32632 -0.9,0.08 c -0.69,0.3 -1.32,0.63 -1.88,0.91 0.82,-0.32 1.77,-0.66 2.78,-0.99 z"
     id="path254"
     style="fill:#f9a949" />
  <path
     class="cls-5"
     d="m 71.549321,248.14632 c 1.36,-0.15 2.7,-0.27 4,-0.43 -0.9,0.08 -2.16,0.19 -4,0.43 z"
     id="path256"
     style="fill:#f9a949" />
  <path
     class="cls-5"
     d="m 161.77932,101.15632 q 0.66,0.28 1.29,0.6 l 0.16,0.08 c 0,0 0,0 0,0 h 0.07 0.13 l -0.08,-0.06 v 0 c 0,0 0,0 0,0 l -0.12,-0.09 c -0.3,-0.21 -0.55,-0.36 -0.74,-0.48 a 1.86,1.86 0 0 0 -0.64,-0.29 c -0.15,-0.07 0.13,0.24 -0.07,0.24 z"
     id="path258"
     style="fill:#f9a949" />
  <path
     class="cls-5"
     d="m 19.199321,319.52632 a 22.5,22.5 0 0 0 -0.18,7.21 c -0.28,-3.54 0.43,-6.21 0.18,-7.21 z"
     id="path260"
     style="fill:#f9a949" />
  <path
     class="cls-5"
     d="m 112.15932,156.18632 c 0.48,-0.68 0.86,-1 0.76,-1.08 -0.8,0.72 -0.94,1.15 -0.76,1.08 z"
     id="path262"
     style="fill:#f9a949" />
  <path
     class="cls-5"
     d="m 21.359321,334.52632 -0.37,-1.33 -0.28,-0.71 0.07,0.18 a 20.8,20.8 0 0 1 -1.76,-5.86 17.3,17.3 0 0 0 1.54,5.95 l -0.11,-0.23 c 0.31,0.69 0.6,1.34 0.91,2 z"
     id="path264"
     style="fill:#f9a949" />
  <path
     class="cls-5"
     d="m 192.03932,62.276316 -0.44,0.48 c 0.01,0.09 0.19,-0.14 0.44,-0.48 z"
     id="path266"
     style="fill:#f9a949" />
  <path
     class="cls-5"
     d="m 128.11932,109.06632 a 15.11,15.11 0 0 1 2.49,-3.23 13.05,13.05 0 0 0 -2.49,3.23 z"
     id="path268"
     style="fill:#f9a949" />
  <path
     class="cls-5"
     d="m 33.519321,280.87632 c -0.13,-2.12 -0.07,-0.33 0,0 z"
     id="path270"
     style="fill:#f9a949" />
  <path
     class="cls-5"
     d="m 35.829321,270.97632 c 0,0.43 -0.06,0.75 0,0.82 a 1.61,1.61 0 0 1 0,-0.82 z"
     id="path272"
     style="fill:#f9a949" />
  <path
     class="cls-5"
     d="m 22.919321,352.44632 -0.09,0.14 c 0.38,-0.46 0.31,-0.38 0.09,-0.14 z"
     id="path274"
     style="fill:#f9a949" />
  <path
     class="cls-5"
     d="m 33.599321,277.68632 c -0.07,0.79 0,1.71 0,2.71 -0.01,-0.44 -0.04,-1.27 0,-2.71 z"
     id="path276"
     style="fill:#f9a949" />
  <path
     class="cls-5"
     d="m 33.389321,278.11632 c 0,-0.73 0.08,-1.3 0.11,-1.85 -0.05,-0.27 -0.13,-0.03 -0.11,1.85 z"
     id="path278"
     style="fill:#f9a949" />
  <path
     class="cls-5"
     d="m 33.919321,283.81632 a 22.36,22.36 0 0 1 -0.36,-3.42 c 0,0.41 0,0.59 0,0.48 -0.03,0.65 0.16,1.49 0.36,2.94 z"
     id="path280"
     style="fill:#f9a949" />
  <path
     class="cls-5"
     d="m 251.91932,30.686316 0.33,-0.26 c 1.29,-1.47 0.7,-0.85 -0.33,0.26 z"
     id="path282"
     style="fill:#f9a949" />
  <path
     class="cls-5"
     d="m 26.259321,332.84632 0.1,0.23 -0.1,-0.31 z"
     id="path284"
     style="fill:#f9a949" />
  <path
     class="cls-5"
     d="m 24.569321,325.20632 a 19.88,19.88 0 0 0 0.39,2.26 17,17 0 0 0 0.39,1.87 c 0.15,0.59 0.27,1.15 0.38,1.72 0.11,0.57 0.35,1.11 0.53,1.71 a 15.47,15.47 0 0 1 0.45,-2.75 14.7,14.7 0 0 1 -1.26,-2.29 15.12,15.12 0 0 1 -0.88,-2.52 z"
     id="path286"
     style="fill:#f9a949" />
  <path
     class="cls-5"
     d="m 138.20932,133.94632 c 0.68,1.43 1.1,2.75 0.91,3.33 -0.22,-1 -2,-3.45 -2.62,-4.52 -0.62,-1.07 -0.75,-1 0.19,1.26 0.19,0 0.5,0.26 0.83,0.66 a 6.7,6.7 0 0 1 0.53,0.72 l 0.27,0.42 0.2,0.4 a 2.56,2.56 0 0 1 0.33,1.3 1.71,1.71 0 0 0 -0.09,0.3 c 0,0.11 -0.1,0.2 -0.13,0.31 a 2,2 0 0 1 -0.46,0.53 c -1,0.82 -3.37,1.65 -5,2.3 -1.63,0.65 -2.89,1.27 -2.94,1.64 -1.07,0.28 -2.15,0.54 -3.22,0.85 0.9,-0.32 1,-0.45 1.91,-0.75 a 14.15,14.15 0 0 0 -5.42,2.29 34.67,34.67 0 0 1 -6.4,3.45 c -2.64,1.15 -4.56,2 -2.85,0.88 a 33.89,33.89 0 0 0 -2.89,1.81 10.52,10.52 0 0 0 -2.81,2.77 c -0.73,1 -0.9,1.52 -0.91,1.33 a 4.67,4.67 0 0 1 1.09,-2 7.59,7.59 0 0 0 -1.56,6.43 13.1,13.1 0 0 0 2.6,5.1 h -0.08 a 28,28 0 0 1 3.73,4.31 c 0.26,0.93 0.08,0.69 0,0.34 -0.08,-0.35 -0.48,-0.91 -0.45,-0.64 0.75,1.24 1,2.32 0.39,3.34 -0.62,0.45 -0.38,0 -0.18,-0.62 a 1,1 0 0 0 0.05,-0.26 0.69,0.69 0 0 0 0,-0.29 1.61,1.61 0 0 1 0,-0.31 c 0,-0.11 -0.05,-0.23 -0.07,-0.35 a 6.11,6.11 0 0 0 -0.71,-1.75 6,6 0 0 1 0.19,1.95 3.37,3.37 0 0 1 -0.06,0.89 1.69,1.69 0 0 1 -0.33,0.61 4.34,4.34 0 0 1 -1.11,0.82 18.92,18.92 0 0 1 -5.45,1.56 35.21,35.21 0 0 0 4.43,-1.52 c -1.41,0.15 -3,0.47 -5.08,0.89 -2.08,0.42 -4.46,0.91 -7.529999,1.71 a 53.56,53.56 0 0 1 5.789999,-0.9 c 2,-0.17 3.11,-0.12 0.33,0.75 a 26,26 0 0 0 -6.859999,2.21 c -0.11,-0.21 -0.9,0 -2.2,0.58 a 10.19,10.19 0 0 0 -1.14,0.7 c -0.36,0.23 -0.71,0.52 -1.08,0.81 a 12.62,12.62 0 0 0 -1.12,1 c -0.38,0.34 -0.74,0.74 -1.11,1.14 l -0.26,-0.66 a 12.22,12.22 0 0 0 -2.34,3.73 c -0.32,0.8 -0.47,1.41 -0.88,2.74 a 35,35 0 0 0 -1.62,5.1 c -0.3,1.09 -0.49,1.7 -0.7,2.37 a 13.59,13.59 0 0 0 0.24,2.31 c 0.09,0.45 0.15,0.63 0.19,0.62 a 6.46,6.46 0 0 0 0.06,-1.39 c 0.06,-0.67 0.14,-1.27 0.25,-1.08 0.11,0.19 0.15,1.21 0.82,3.63 l 0.08,0.32 c 0,0 0,0.05 0,0.07 v 0 0.15 0.3 c 0.05,0.4 0.12,0.8 0.19,1.19 a 22.21,22.21 0 0 0 0.55,2.24 28.65,28.65 0 0 0 1.61,4.1 26.37,26.37 0 0 1 1.56,3.53 3.19,3.19 0 0 1 0.11,1.43 3.58,3.58 0 0 1 -0.23,0.77 2.15,2.15 0 0 1 -0.38,0.61 3.24,3.24 0 0 1 -1.1,0.57 c -0.15,0 0,-0.09 0.14,-0.24 0.34,-0.31 0.65,-0.68 0.24,-0.48 a 29.66,29.66 0 0 1 -2.87,2.14 c -0.86,0.46 -0.66,0.18 -0.56,0 -1.44,0.94 -1.39,1.14 -1.58,1.44 -0.19,0.3 -0.6,0.7 -2.6,2.35 -0.28,0.7 -2.69,2 -5.12,4.42 a 16.88,16.88 0 0 0 -3.33,4.47 9,9 0 0 0 -0.88,5.87 c 0,0.95 -0.1,0.75 -0.26,0.37 -0.16,-0.38 -0.31,-1 -0.41,-0.66 l 0.16,1 c 0.1,0.32 0.2,0.62 0.3,0.91 0.1,0.29 0.2,0.57 0.3,0.83 l 0.4,0.69 a 10,10 0 0 0 1.57,2.07 11.8,11.8 0 0 0 1.41,1.22 l 0.16,0.13 c -0.07,-0.08 0,0 0,0 l 0.14,0.1 0.43,0.45 c 0.57,0.58 1.12,1.11 1.74,1.79 0.28,0.31 0.66,0.78 0.85,1.05 a 2.52,2.52 0 0 1 0.52,1.44 2.12,2.12 0 0 1 -1.27,1.46 4.84,4.84 0 0 1 -0.95,0.27 c -0.42,0.09 -0.88,0.16 -1.34,0.23 1,-0.1 1.44,-0.12 1.5,0 0.06,0.12 -0.28,0.38 -0.95,0.66 -1.31,0.58 -3.94,1.2 -6.3,1.95 1.58,-0.1 2.93,-0.11 3.83,-0.18 a 55.06,55.06 0 0 0 -7.51,2.06 c -0.92,0.2 -0.26,-0.27 0.9,-0.89 -0.5,0.2 -1,0.4 -1.33,0.57 -1.36,0.33 -1.73,0.34 -1.54,0.08 a 7.65,7.65 0 0 1 1.88,-1.2 c 1,-0.16 1.94,-0.28 2.87,-0.36 1.82,-0.83 3.57,-1.55 3.1,-1.86 -0.5,0.17 -1.48,0.41 -2.55,0.68 0.48,-0.21 0.79,-0.37 0.54,-0.38 a 10.52,10.52 0 0 0 -2.33,0.79 c -0.65,-0.08 -1.32,-0.15 -2,-0.19 l -0.35,0.41 a 37.29,37.29 0 0 0 -9.92,4.36 38.76,38.76 0 0 0 -7.66,8.71 41,41 0 0 0 -3.13,5.85 37.7,37.7 0 0 0 -2.29,7.6 c 0.13,-3 -0.68,-0.83 -1.26,-1.11 0.71,-1.55 1.29,-3.82 2.38,-6.36 a 27.17,27.17 0 0 1 4.75,-7.69 11,11 0 0 1 -1.7,1.76 c -0.15,0.05 0,-0.33 0.23,-0.71 a 33.94,33.94 0 0 0 -4.93,10.32 c -0.37,-0.4 -1.17,2.18 -1.83,5.15 0.7,-1 0.4,1.08 0.39,4.05 a 32,32 0 0 0 0.38,4.79 22.23,22.23 0 0 0 1.08,4.16 c -0.11,0.18 -0.37,0.05 -0.71,-0.85 a 16.94,16.94 0 0 1 -1.05,-5.41 12.79,12.79 0 0 0 1.61,7 l 0.72,1.35 c 0.27,0.45 0.54,0.91 0.8,1.4 0.26,0.49 0.56,1 0.87,1.58 l 0.22,0.43 0.12,0.23 0.06,0.14 a 0.83,0.83 0 0 1 0.1,0.34 l 0.05,0.39 a 5.93,5.93 0 0 0 -0.17,-0.59 l -0.28,-0.48 a 3.71,3.71 0 0 0 -0.6,-0.83 c 0.22,0.33 0.5,0.76 0.74,1.16 a 1.08,1.08 0 0 1 0.21,0.43 3,3 0 0 1 0.15,0.62 4.53,4.53 0 0 1 -0.31,2.57 5,5 0 0 1 -1.14,1.61 c -0.32,0.29 -0.45,0.32 -0.26,0 a 8.2,8.2 0 0 0 0.63,-0.86 9.57,9.57 0 0 1 -2.11,2.21 l -0.27,0.2 a 0.76,0.76 0 0 1 -0.13,0.07 h -0.08 l -1,0.46 c -0.34,0.16 -0.69,0.31 -1,0.49 l -1,0.58 a 25.87,25.87 0 0 0 -7.1,6.09 c -0.44,0.62 -0.93,1.18 -1.3,1.8 l -1.03,1.84 a 21.81,21.81 0 0 0 -1.38,3.34 12.45,12.45 0 0 0 -0.62,2.5 3,3 0 0 0 0,1.29 c -0.16,0.07 -0.74,-1.38 -0.74,-2 a 19.48,19.48 0 0 0 0.81,8.29 20.18,20.18 0 0 0 3.92,6.74 c -0.64,-0.41 -0.72,0.73 -1.09,1.24 -0.37,0.51 -1.17,0.46 -3,-3.05 a 11,11 0 0 0 0.69,1.68 c 0.28,0.59 0.58,1.25 1,1.9 a 18.53,18.53 0 0 0 3.66,4.56 c -1,-1.18 -1.62,-3.54 -0.3,-2 a 20.29,20.29 0 0 0 3,3.82 c 0.4,0.39 0.84,0.8 1.48,1.39 a 8.92,8.92 0 0 1 1.53,1.67 c -0.29,-0.35 0,-0.56 0.69,-0.36 a 3.6,3.6 0 0 1 1.28,0.72 1.4,1.4 0 0 1 0.46,1.72 c 0,-0.23 -0.49,-0.29 -0.89,-0.41 -0.4,-0.12 -0.74,-0.29 -0.84,-0.6 a 1,1 0 0 1 -0.12,1 2.71,2.71 0 0 1 -0.88,0.66 10.94,10.94 0 0 1 -1.29,0.58 l -0.92,0.35 c -0.34,0.12 -0.67,0.25 -1,0.39 2,-0.68 0.19,-1.1 -1.88,-0.78 0.5,0 -1.45,0.46 -3.64,1.77 a 14.72,14.72 0 0 0 -3,2.49 11,11 0 0 0 -1.69,2.45 12.3,12.3 0 0 1 2.72,-3.07 10.94,10.94 0 0 0 -3.28,5.36 12.43,12.43 0 0 0 -0.37,2.18 c 0,0.65 -0.05,1.24 -0.05,1.85 0,2.4 0.12,4.74 0,9.42 -0.11,-0.57 -0.45,-1.28 -0.8,-1.25 -0.35,0.03 -0.72,0.81 -0.76,3.23 l 0.76,2.58 c 0.36,1.12 0.78,2.48 1.15,4.06 a 45.56,45.56 0 0 1 1.25,11.32 l -0.46,1.57 v 0.83 l -0.05,1 -0.15,2.11 c -0.1,1.43 -0.26,2.87 -0.43,4.35 0,-1.6 0.07,-3.77 0,-5.88 l -0.08,-1.56 c 0,-0.51 -0.07,-0.94 -0.11,-1.43 -0.09,-1 -0.18,-2 -0.28,-3 -0.4,-4 -1,-8.28 -1.52,-11.22 a 14.74,14.74 0 0 1 -0.22,2.43 c -0.05,0.45 0,1.12 -0.06,3.71 -0.34,1.81 -0.41,-2.82 -0.5,-4.33 a 113.73,113.73 0 0 1 -0.57,12 c 0.18,-0.12 0.27,0.4 0.29,1.23 a 0.83,0.83 0 0 0 0,0.18 v 0.13 0.3 c 0,0.22 0,0.47 0,0.74 a 13.24,13.24 0 0 0 0.19,3 c 0.1,-1.44 0.14,-2.69 0.13,-3.74 v -0.38 -0.77 l 0.05,-1.64 c 0,-1.09 0,-2.18 0,-3.27 0.35,-0.25 0.77,1.66 0.89,4.73 q 0,1 0.06,2.13 c 0,0.7 0,1.5 -0.07,2.35 a 40.79,40.79 0 0 1 -0.69,5.35 c -0.25,0.53 -0.35,-0.8 -0.45,-2 a 21.24,21.24 0 0 0 -0.31,-2.66 12.4,12.4 0 0 1 -0.09,1.73 l -0.06,0.58 c 0,0.18 0,0.53 -0.11,0.27 -0.11,-0.26 -0.19,-0.53 -0.32,-0.8 -0.27,-0.66 -0.57,-1.29 -0.63,-1.57 l 0.53,0.61 0.1,0.09 c 0,-0.15 -0.09,-0.28 -0.13,-0.4 a 5.42,5.42 0 0 0 -1.22,-1.9 8.93,8.93 0 0 1 -0.87,-1.34 c -0.16,-0.32 -0.31,-0.62 -0.48,-1 -0.17,-0.38 -0.48,-1.15 -0.68,-1.78 a 17.92,17.92 0 0 1 -1,-3.47 6.44,6.44 0 0 0 -0.56,-2.24 4.45,4.45 0 0 1 -1.08,3.18 c -0.62,0.52 -1.46,0.43 -2.08,-0.59 a 23.73,23.73 0 0 1 -0.59,-6.08 c 0,-0.21 0,-0.31 0,-0.46 v -0.55 -1.09 c 0,-0.72 0,-1.41 0.08,-2.05 a 19.8,19.8 0 0 1 0.37,-2.9 c 0.42,-1.64 0.66,-0.35 1,0.92 0.34,1.27 0.7,2.58 0.93,1.23 a 8.08,8.08 0 0 1 -0.39,-2.61 c 0.16,-1 0.29,-0.78 0.4,-0.85 0.11,-0.07 0.2,-0.46 0.53,-2.6 -0.29,-0.42 0.22,-2.6 0.67,-3.8 0.21,-0.6 0.36,-1 0.27,-0.81 a 20.2,20.2 0 0 0 -1,2.47 17.17,17.17 0 0 1 1.48,-4.29 40.87,40.87 0 0 1 2.55,-4.41 c -0.62,0.56 -0.37,-0.62 0.55,-2.37 a 28.72,28.72 0 0 1 1.79,-2.84 l 1.88,-3 c 0,0.32 0.74,-0.39 1.07,-0.76 a 19.66,19.66 0 0 0 2.91,-10.68 21.29,21.29 0 0 0 -0.6,-5 55,55 0 0 0 -1.69,-5.28 v 0 l -0.37,-0.95 c -0.08,-0.38 -0.35,-1.56 -0.46,-2.44 -0.11,-0.88 -0.08,-1.45 0.24,-0.66 a 13,13 0 0 1 -0.82,-4.74 c 0.16,-1.24 0.3,-1.49 0.32,-1.25 0.02,0.24 0,1 0,1.77 0.06,1.56 0.3,3.21 0.5,1.35 a 8.87,8.87 0 0 1 -0.42,-3.8 33,33 0 0 1 0.93,-6.33 c -0.44,0.45 -1.13,2.52 -1.37,5 a 21.85,21.85 0 0 0 0.4,7 c -0.39,0.08 -1.19,-1.42 -1.48,-4.25 a 27.08,27.08 0 0 1 1.58,-11.25 c 1.29,-3.43 1.88,-4 2,-4 0.12,0 0,0.74 0.2,0.15 0.19,-0.37 0.39,-0.74 0.62,-1.1 a 10.92,10.92 0 0 1 0.64,-1 13.22,13.22 0 0 1 1.42,-1.65 14.1,14.1 0 0 1 2.81,-2.1 23.52,23.52 0 0 1 4.46,-1.85 c 0.65,-0.2 1.29,-0.37 2,-0.51 0.34,-0.08 0.68,-0.14 1.05,-0.21 l 0.65,-0.12 a 31.71,31.71 0 0 1 3.57,-0.25 c 0.23,0 0.12,-0.05 0.11,-0.09 a 0.65,0.65 0 0 1 0,-0.11 c -0.16,-0.42 0.24,-0.31 0.87,0 0.63,0.31 1.42,0.86 1.46,0.69 l 0.2,0.17 0.38,0.35 0.1,0.09 v 0 0 h -0.23 l -0.89,0.14 c -0.6,0.06 -1.17,0.13 -1.73,0.16 -1.1,0.08 -2.11,0.1 -3,0.13 h -1.32 c -0.47,0 -0.94,0.05 -1.4,0.09 -0.46,0.04 -0.93,0.09 -1.4,0.16 -0.47,0.07 -0.94,0.17 -1.42,0.29 a 31.39,31.39 0 0 1 4.84,-0.49 c -0.83,0.18 -2.31,0.39 -3.73,0.71 a 27.94,27.94 0 0 0 -3.86,1.15 25.87,25.87 0 0 1 5.71,-1.26 c 1.34,-0.16 2.94,-0.27 4.63,-0.4 0.84,-0.07 1.71,-0.14 2.6,-0.24 0.44,0 0.89,-0.1 1.34,-0.17 l 0.34,-0.05 h 0.17 c 0,0 0.18,0 0.1,-0.05 l -0.42,-0.44 a 25.17,25.17 0 0 1 -5.79,-7.39 l -0.93,-2 -0.68,-2 c -0.1,-0.33 -0.22,-0.64 -0.3,-1 l -0.21,-1 -0.37,-1.8 c -0.21,-0.89 -0.51,-2.1 -0.7,-2.91 -0.19,-0.81 -0.26,-1.23 -0.34,-0.47 0.11,1.09 0.34,2.16 0.5,3.24 0.11,1.52 -0.41,0.05 -0.68,-1.35 -0.27,-1.4 -0.57,-2.67 -0.4,-0.55 l -0.18,-0.84 -0.1,-0.86 -0.21,-1.78 c -0.13,-1.21 -0.08,-2.47 -0.1,-3.8 a 28.06,28.06 0 0 1 1.78,-8.53 l 0.95,-0.92 a 9.44,9.44 0 0 0 -0.94,2.15 l -0.32,0.9 -0.22,0.94 c -0.13,0.62 -0.24,1.2 -0.3,1.64 a 20,20 0 0 1 0.61,-2.61 c 0.4,-1 0.82,-2.16 1.32,-3.28 0.5,-1.12 1,-2.23 1.54,-3.2 a 13.1,13.1 0 0 0 1.07,-2.61 c -0.43,0.6 -0.83,1.23 -1.25,1.85 l -0.62,0.94 c -0.19,0.32 -0.36,0.65 -0.54,1 a 38.45,38.45 0 0 1 3.26,-6.87 c 0.36,-0.58 0.78,-1.13 1.19,-1.71 l 0.63,-0.86 c 0.14,-0.18 0.26,-0.35 0.44,-0.56 l 0.62,-0.48 a 17.45,17.45 0 0 1 3.9,-2.24 6,6 0 0 0 -2.11,0.76 c -0.24,0.14 -0.52,0.3 -1,0.54 l -0.89,0.47 c -0.14,0.07 -0.47,0.28 -0.75,0.45 a 1.69,1.69 0 0 0 -0.41,0.34 l -0.36,0.34 c 0.44,-0.36 0.62,-0.46 0.52,-0.24 a 3.25,3.25 0 0 1 -0.27,0.46 c -0.1,0.16 -0.24,0.36 -0.41,0.6 -0.34,0.46 -0.79,1 -1.29,1.68 l -1.41,2.13 a 17.67,17.67 0 0 0 -1.22,2.18 c -0.34,0.65 -0.63,1.22 -0.81,1.61 -0.18,0.39 -0.2,0.64 -0.12,0.62 a 5.66,5.66 0 0 0 0.72,-0.88 15.84,15.84 0 0 0 -1.6,2.58 16.31,16.31 0 0 0 -1.19,2.67 l -0.53,1.45 -0.44,1.59 -0.53,1.73 c -0.14,0.62 -0.3,1.26 -0.48,1.95 0.11,-0.07 0.27,-0.55 0.31,-0.4 a 3.57,3.57 0 0 1 -0.05,0.82 l -0.13,1 -0.1,1.55 c 0,0.23 0.1,0.75 0.13,1.09 v 0.33 -0.27 c 0,0.21 0,0.23 0,-0.1 a 16.12,16.12 0 0 1 0.42,-2.48 23.84,23.84 0 0 1 0.15,2.66 c 0,1.1 0.19,2.36 0.28,3.63 0.09,1.27 0.39,2.53 0.66,3.62 0.27,1.09 0.58,2 0.79,2.63 0.86,2.74 -0.63,-1.07 -0.31,0.48 l 0.84,1.79 0.42,0.88 0.51,0.84 a 3.53,3.53 0 0 0 0.27,1.27 c 0.11,0.31 0.21,0.65 0.33,1 l 0.38,0.83 c 0.21,0.48 0.31,0.77 0.1,0.57 a 5.36,5.36 0 0 1 -0.57,-0.69 10.42,10.42 0 0 1 -1,-1.7 c 0.24,0.47 0.44,1 0.72,1.41 l 0.85,1.34 0.42,0.64 0.29,0.36 a 2.74,2.74 0 0 0 0.48,0.76 l 0.06,0.07 v 0 h -0.36 -0.5 a 4.32,4.32 0 0 0 -0.8,0.17 1,1 0 0 0 -0.3,0 c -0.29,0 -0.74,0.09 -1.11,0.16 -0.77,0.13 -1.51,0.3 -2.1,0.46 -1.15,0.3 -1.63,0.51 -0.37,0 a 19.08,19.08 0 0 0 -4.91,1.8 12.37,12.37 0 0 0 -4.16,3.62 h -0.16 a 11,11 0 0 0 -1.09,1.66 l -0.25,0.43 -0.2,0.39 -0.37,0.78 q -0.75,1.57 -1.38,3.24 a 39.09,39.09 0 0 0 -1.94,7 29.94,29.94 0 0 0 1.11,15.53 l -0.06,-0.17 0.2,0.74 c 1.1,2.83 2.4,5.35 2.17,9.9 -0.14,0.29 -0.28,0.57 -0.44,0.85 a 13.55,13.55 0 0 1 -1.77,6 c -1.08,2 -2.51,3.67 -2.84,4.44 -0.19,0.13 -0.5,0.44 -0.54,0.39 -0.29,0.24 -0.59,0.51 -0.91,0.82 a 20.82,20.82 0 0 0 -2,2.28 28.68,28.68 0 0 0 -3.84,6.71 33.46,33.46 0 0 0 -2.1199995,8 46.48,46.48 0 0 0 -0.41,6.83 l 0.52,0.26 c 0,0.63 0.06,1.25 0.11,1.87 l 0.1,0.93 0.08,0.64 a 21.78,21.78 0 0 0 0.5,4 31.9,31.9 0 0 0 2.9999995,8 l 0.24,-0.52 0.63,1.14 0.84,1.57 c 0.31,0.61 0.63,1.23 1,1.87 0.37,0.64 0.68,1.35 1,2.1 l 0.53,1.13 0.53,1.37 0.54,1.42 0.59,1.61 c 0.77,2.15 1.67,4.72 2.49,7.16 l 0.21,-0.27 0.15,-0.07 a 2.28,2.28 0 0 0 0.3,-0.17 c 0.06,0.06 0.11,-0.28 0.16,-0.5 l 0.15,-0.71 0.3,-1.44 q 0.6,-2.87 1.14,-5.89 a 37.92,37.92 0 0 1 -1.05,5.72 82.17,82.17 0 0 0 2.12,-10.06 c 0.27,-2 0.51,-4 0.65,-6 l 0.06,-1 v -0.94 l 0.06,-1.87 c 0.1,-5 -0.15,-9.83 -0.05,-14.18 a 22.14,22.14 0 0 1 -0.09,-5 c 0,0.19 0,0.36 0,0.51 v -0.85 c 0.09,-0.91 0.22,-1.84 0.35,-2.84 a 24,24 0 0 0 -0.34,2.39 c 0,-1.6 0.1,-4 0.33,-6.34 l 0.62,-0.91 0.08,-0.53 c 0.29,-1.12 0.33,-1.53 0.21,-1.57 -0.12,-0.04 -0.38,0.27 -0.68,0.85 0.08,-0.6 0.13,-1.12 0.22,-1.57 0.09,-0.45 0.18,-0.92 0.27,-1.3 0.67,-0.66 1.18,-1.87 2.1,-2.95 a 5.46,5.46 0 0 1 3.38,-2.09 6.93,6.93 0 0 1 2.09,-1 c 0.53,-0.2 1.15,-0.38 1.83,-0.56 l 0.52,-0.14 0.75,-0.18 c 0.48,-0.11 1,-0.27 1.54,-0.42 a 14,14 0 0 0 1.47,-0.53 7.75,7.75 0 0 0 1.17,-0.72 4.08,4.08 0 0 0 0.88,-0.88 l 0.28,-0.53 0.19,-0.55 a 2.66,2.66 0 0 0 -0.26,-1.89 2.4,2.4 0 0 0 -0.78,-0.88 c 0,-0.05 -0.06,-0.25 -0.05,-0.28 0.01,-0.03 0.17,0.1 0.54,0.77 a 11.2,11.2 0 0 0 -3.51,-3.68 c -1.06,-0.82 -2.06,-1.56 -3,-2.25 q -0.21,-0.6 -0.39,-1.2 a 20.29,20.29 0 0 1 -4.14,-3.83 c -1.34,-3.28 -1.67,-4.52 0.23,-1.8 a 14.52,14.52 0 0 1 -1.27,-2.23 9.86,9.86 0 0 1 -0.7,-1.74 l -0.39,-1.36 c -0.1,-0.4 -0.12,-0.78 -0.18,-1.14 l -0.15,-1.1 -0.05,-1.26 v -0.77 l 0.05,-0.88 0.06,-1 c 0,-0.38 0.11,-0.77 0.17,-1.21 l 0.3,0.43 c 0.17,-0.59 0.26,-1.3 0.52,-2 a 15.14,15.14 0 0 1 0.76,-2.14 10.52,10.52 0 0 1 0.94,-1.87 6.06,6.06 0 0 1 0.94,-1.23 37.56,37.56 0 0 1 5,-4.64 24.73,24.73 0 0 1 4.31,-2.53 l 0.62,-0.28 0.41,-0.19 a 3.42,3.42 0 0 0 0.47,-0.23 l 0.43,-0.32 0.33,-0.26 c 0.21,-0.18 0.43,-0.36 0.64,-0.56 a 10.69,10.69 0 0 0 2.29,-2.84 7.64,7.64 0 0 0 -0.15,-7.78 26.73,26.73 0 0 1 -1.32,-2.81 25.41,25.41 0 0 1 -0.9,-3 26,26 0 0 1 -0.54,-3 27.48,27.48 0 0 1 -0.12,-3 23.41,23.41 0 0 1 0.74,-5.56 c -0.44,0.62 -0.53,0.54 -0.44,0 a 13.56,13.56 0 0 1 0.72,-2.38 c 0.34,-1 0.84,-2 1.18,-2.86 0.34,-0.86 0.61,-1.48 0.46,-1.71 0.6,-0.65 1.71,-2.27 0.82,-0.16 a 24.91,24.91 0 0 1 5,-7.08 c 1.72,-1.74 3.32,-3.17 5.15,-5 0.83,-0.26 -1,1.24 -0.32,0.94 a 9.57,9.57 0 0 1 2.47,-1.76 c 0.71,-0.24 -0.79,0.73 -1.63,1.49 3,-2.1 4.74,-3.06 5.69,-3.84 a 2.85,2.85 0 0 0 1.25,-1.72 c 1.88,-0.49 3.3,-0.78 4.57,-1.12 a 39.21,39.21 0 0 0 3.8,-1.2 11.85,11.85 0 0 1 1.81,0.06 c 0.17,0.09 -0.49,0.29 -2.86,0.77 l 3.78,-0.62 c 0.44,-0.07 0.91,-0.18 1.41,-0.29 l 0.77,-0.21 c 0.3,-0.1 0.64,-0.23 0.95,-0.35 a 4.89,4.89 0 0 0 2.66,-6.76 8.48,8.48 0 0 0 -0.43,-0.85 c -0.14,-0.25 -0.27,-0.42 -0.4,-0.63 -0.27,-0.38 -0.53,-0.71 -0.77,-1 -1,-1.14 -1.66,-1.75 -1.83,-1.7 a 2.82,2.82 0 0 0 -0.26,-0.39 3.19,3.19 0 0 0 -0.26,-0.26 l -0.27,-0.26 -0.76,-0.71 c -0.26,-0.31 -0.52,-0.61 -0.75,-0.86 -0.23,-0.25 -0.31,-0.5 -0.41,-0.61 a 6.38,6.38 0 0 1 -0.59,-1.59 v -0.72 a 2,2 0 0 1 0,-0.65 8.08,8.08 0 0 1 0.48,-2.24 15.53,15.53 0 0 1 3.06,-4.94 14.82,14.82 0 0 0 -1.08,1.16 7.43,7.43 0 0 1 2.3,-3.13 25.15,25.15 0 0 1 2,-1.59 c 0.79,-0.55 1.65,-1.25 2.6,-1.93 l -0.07,0.14 a 50.45,50.45 0 0 1 4.84,-2.65 11.31,11.31 0 0 0 2.12,-1.39 6,6 0 0 0 1.8,-2.27 6.6,6.6 0 0 0 0.64,-2.6 10.27,10.27 0 0 0 -0.77,-3.82 l -0.2,0.77 a 4.14,4.14 0 0 1 -1.15,-1.81 23.07,23.07 0 0 1 -1.27,-3.76 c -0.18,-0.74 -0.34,-1.53 -0.46,-2.34 -0.06,-0.4 -0.11,-0.81 -0.16,-1.23 l -0.07,-0.66 c 0,-0.15 -0.05,-0.25 -0.09,-0.43 l -0.06,-0.3 a 22,22 0 0 1 -0.49,-4.69 15.65,15.65 0 0 0 -0.23,2.17 9.21,9.21 0 0 1 1.34,-6 21.61,21.61 0 0 1 3.81,-4.59 c 0.51,-0.43 -0.62,0.85 -1,1.67 a 27.29,27.29 0 0 1 2.44,-2.55 c 0.38,-0.4 0.38,-0.49 0.3,-0.6 -0.08,-0.11 -0.22,-0.17 -0.06,-0.46 a 2.41,2.41 0 0 1 0.55,-0.62 l 0.55,-0.44 a 6,6 0 0 1 0.79,-0.44 c 0.61,-0.08 0.35,0.27 0.43,0.43 0.08,0.16 0.46,0.1 2.489999,-0.57 0.53,-0.1 1.52,-0.45 2.87,-0.9 l 4.95,-1.59 a 28.35,28.35 0 0 0 6.09,-2.55 7.9,7.9 0 0 0 2.79,-2.81 5.26,5.26 0 0 0 0.43,-0.94 4.45,4.45 0 0 0 0.26,-1 c 0.06,-0.32 0.11,-0.65 0.15,-1 0.04,-0.35 0,-0.62 0,-0.92 v 0.78 a 6.46,6.46 0 0 1 -0.14,0.69 2.4,2.4 0 0 1 -0.29,0.76 c -0.08,0.08 -0.11,-0.06 -0.11,-0.49 v -0.87 c -0.06,-0.36 -0.11,-0.82 -0.23,-1.33 -0.78,-3.15 -3.28,-5.74 -4.6,-8.3 a 5.58,5.58 0 0 1 -0.86,-3.21 5,5 0 0 1 1,-2.37 c 0.41,-0.28 0.62,-0.34 0.67,-0.3 a 41.4,41.4 0 0 1 6.35,-3.76 c 2.51,-1.3 4.88,-2.47 5.84,-3.09 a 17,17 0 0 0 4.93,-1.22 c 2.19,-0.77 4.8,-1.68 7.39,-2.77 a 13.68,13.68 0 0 0 3.76,-2.23 6.74,6.74 0 0 0 2.06,-3.57 8.41,8.41 0 0 0 0,-2.89 c -0.08,-0.67 -0.1,-1.05 0.08,-1.1 -0.87,-2.14 -2,-3.67 -2.79,-5.28 a 14.94,14.94 0 0 1 -1.67,-4.86 l 0.19,0.23 a 15.83,15.83 0 0 1 -0.16,-2.2 c 0,-0.69 0,-1.32 0.12,-1.9 a 23.32,23.32 0 0 1 0.56,-3 31.55,31.55 0 0 1 1.29,-4 c 0.93,-1.32 0.43,-0.24 0.43,-0.09 a 27.06,27.06 0 0 1 4,-4.68 38.61,38.61 0 0 1 3.17,-2.87 16.94,16.94 0 0 1 3.15,-2 8.77,8.77 0 0 1 4.68,-0.79 8.43,8.43 0 0 1 0.65,0.69 7.57,7.57 0 0 1 2.84,1.4 c 0.48,0.31 1.8,1.41 2.95,2.4 a 9.67,9.67 0 0 0 3.7,2.09 2.6,2.6 0 0 0 2.09,-0.27 3,3 0 0 0 1.24,-1.75 7.63,7.63 0 0 0 0.32,-2.31 18.07,18.07 0 0 0 -0.31,-3 l -0.24,-1.56 -0.08,-0.62 -0.05,-0.470003 c -0.07,-0.64 -0.12,-1.27 -0.13,-1.88 a 14.19,14.19 0 0 1 0.3,-3.49 2.58,2.58 0 0 1 0,1 8.75,8.75 0 0 1 1.32,-3.6 11.81,11.81 0 0 1 2.94,-3 20.64,20.64 0 0 1 8.07,-3.3 21.64,21.64 0 0 1 7.33,-0.11 l 1.57,0.21 0.76,0.09 0.84,0.07 a 5,5 0 0 0 3.07,-0.46 4.36,4.36 0 0 0 1.93,-1.19 4.88,4.88 0 0 0 1.11,-3.84 18.19,18.19 0 0 0 -0.75,-3.4 18.43,18.43 0 0 1 0.49,3.1 4.28,4.28 0 0 1 -0.16,1.55 c -0.18,0.46 -0.14,0 -0.23,-0.72 a 6.82,6.82 0 0 0 -0.49,-1.86 c -0.17,-0.32 -0.22,-0.27 -0.16,0.81 -0.14,-1 -0.4,-2.12 -0.59,-3.19 a 15.81,15.81 0 0 1 -0.29,-2.79 c 0,-0.72 0.08,-1.16 0.15,-1.13 a 7.51,7.51 0 0 1 0.32,1.69 v 0.75 c 0.32,0.39 0.32,-0.19 0.27,-1.22 a 10.93,10.93 0 0 1 0.36,-3.850001 6.39,6.39 0 0 1 0.91,-1.85 4.8,4.8 0 0 1 1.3,-1.17 c 1,-0.6 1.77,-0.9 1.77,-0.73 2.11,-1.13 4.4,-2.17 6.64,-3.21 l 6.74,-3.07 6.73,-3 a 65.55,65.55 0 0 0 6.71,-3.35 35.69,35.69 0 0 0 3.07,-1.9 26.74,26.74 0 0 0 3,-2.52 c 0.9,-0.89 1.68,-1.7 2.52,-2.41 a 25.31,25.31 0 0 1 2.66,-2 c 0.47,-0.31 1,-0.62 1.46,-0.93 l 1.55,-1 c 1,-0.69 2,-1.39 2.95,-2.12 1.93,-1.44 3.79,-2.94 5.6,-4.5 l -2.14,0.86 c 1.7,-1.39 3.36,-2.84 5,-4.33 1.37,-1.08 2.13,-1.16 -1.4,2 a 18.86,18.86 0 0 0 3.58,-3.39 14.26,14.26 0 0 0 1.83,-2.66 20.46,20.46 0 0 1 2.5,-2.33 c 0.15,0 -0.19,0.53 -0.71,1.22 -1,1.4 -2.71,3.3 -1.7,2.28 1.01,-1.02 1.77,-1.91 2.62,-2.9 l -0.65,0.6 c 0.95,-1.27 1.39,-2 2.05,-3 0.66,-1 1.58,-2.19 3.18,-4.64 a 12.43,12.43 0 0 1 1.52,-2.08 c 0.18,-0.13 0.22,0 0.57,-0.69 0,0 0.1,-0.09 0.25,-0.42 a 12.21,12.21 0 0 0 0.67,-1.79 11.39,11.39 0 0 0 0.64,-5.0000004 7.71,7.71 0 0 0 -2.61,-4.91 7.85,7.85 0 0 1 1.88,4 7.8,7.8 0 0 0 -0.77,-1.59 l -0.48,-0.72 -0.56,-0.59 a 6.14,6.14 0 0 0 -1.08,-0.91 l -0.48,-0.35 -0.43,-0.22 c -0.53,-0.27 -0.81,-0.39 -0.75,-0.28 0.06,0.11 0.52,0.4 1.3,1.17 a 5.49,5.49 0 0 0 -1.13,-0.89 7.61,7.61 0 0 0 -0.82,-0.5 l -0.49,-0.27 a 5.27,5.27 0 0 0 -0.56,-0.19 3.59,3.59 0 0 0 -2.59,0.11 5.87,5.87 0 0 0 -2.3,2 14.28,14.28 0 0 0 -1.39,2.5 c -0.37,0.84 -0.7,1.71 -1,2.5900004 -0.6,1.76 -1.11,3.57 -1.61,5.36 -1,3.58 -1.9,7 -2.85,9.74 a 29.46,29.46 0 0 1 -2.29,5.3 c -0.24,0.58 -0.49,1.17 -0.78,1.72 l -0.3,0.6 -0.33,0.56 c 0,0.12 -0.15,0.14 -0.25,0.16 a 1.77,1.77 0 0 1 -0.32,0 l -0.65,0.06 h -0.49 c -0.19,0 -0.4,0 -0.62,0.08 a 3,3 0 0 0 -1.68,0.75 l 1,-0.37 c -2.06,-0.1 -4.46,-1.06 -5.5,-3 l 0.1,0.23 c 0,-0.09 0,-0.19 -0.05,-0.29 a 1.61,1.61 0 0 1 0,0.31 l -0.1,-0.23 a 1.08,1.08 0 0 1 0.1,0.62 c -0.05,0.08 -0.24,0 -0.56,-0.37 l 0.06,0.13 a 2.15,2.15 0 0 1 -0.21,-1 c 0,-0.1 0.06,-0.27 0.09,-0.42 a 1.63,1.63 0 0 1 0.23,-0.52 9.89,9.89 0 0 1 0.86,-1.28 c 0.13,0.31 0.49,0.16 1.11,-0.41 a 22.51,22.51 0 0 0 2.05,-2.3 29.21,29.21 0 0 0 2.08,-2.7 11.53,11.53 0 0 0 1,-2 c 0,0 0.05,-0.12 0,-0.13 v 0 l -0.08,-0.06 a 0.7,0.7 0 0 1 -0.16,-0.14 1.23,1.23 0 0 1 -0.24,-0.44 49.92,49.92 0 0 1 -6.26,1.46 c 1.33,-0.23 0.48,0.13 -1.16,0.65 l -3,0.92 c -0.57,0.18 -1.16,0.38 -1.75,0.62 -0.3,0.11 -0.6,0.24 -0.89,0.36 -0.29,0.12 -0.62,0.28 -0.81,0.38 a 15.48,15.48 0 0 0 -2.38,1.44 l -0.19,0.14 a 0.38,0.38 0 0 1 -0.13,0.09 l -0.4,0.25 c -0.27,0.17 -0.51,0.32 -0.69,0.45 -0.75,0.53 -0.72,0.66 0.74,0.11 -2,1.06 -2.13,1 -2.15,0.85 -0.02,-0.15 0.07,-0.44 -1.52,0.36 a 46.21,46.21 0 0 0 -6.82,5.61 14.77,14.77 0 0 0 -2.9,4.14 9.33,9.33 0 0 0 -0.47,1.35 c -0.05,0.25 -0.11,0.48 -0.14,0.74 l -0.05,0.38 v 0.31 a 18.38,18.38 0 0 1 -0.25,2.1 2.51,2.51 0 0 1 -0.53,1.26 2,2 0 0 1 -1,0.61 8.29,8.29 0 0 1 -1.9,0.23 h -1.4 l -1.41,0.38 a 28,28 0 0 0 -9.43,4.56 c -0.06,0.26 2,-0.88 -0.28,1.08 a 39.18,39.18 0 0 0 -5.95,4.31 11,11 0 0 0 -1.53,2.49 12.83,12.83 0 0 1 -0.93,1.4 c -0.43,0.56 -1,1.24 -1.85,2.14 0.52,-0.47 1.3,-1.16 0.3,0.31 -1.44,1.87 -2.78,3.8 -4.1,5.74 l -1.95,2.91 -1,1.450001 -0.44,0.66 c -0.09,0.15 -0.23,0.22 -0.39,0.38 -1.28,1.15 -3.46,1.7 -5.69,2.14 a 71,71 0 0 0 -7.09,1.5 19.14,19.14 0 0 0 -3.62,1.45 13.74,13.74 0 0 0 -1.69,1.12 l -0.78,0.64 -0.69,0.62 a 22.71,22.71 0 0 0 -4.65,6.07 17.59,17.59 0 0 0 -2,7.49 c 0,0.13 0,0.14 0,0.31 l -0.06,0.47 -0.08,0.94 -0.06,1 v 0.83 a 18.24,18.24 0 0 0 0.09,2.1 c 0.05,0.100003 -0.09,0 -0.14,0 h -0.21 -0.42 -0.83 -0.9 -1.41 a 57.14,57.14 0 0 0 -5.82,0.350003 35.76,35.76 0 0 0 -5.86,1.17 22.5,22.5 0 0 0 -2.9,1.07 l -0.74,0.35 a 3.18,3.18 0 0 0 -0.48,0.28 l -0.38,0.27 c -0.41,0.28 -0.81,0.58 -1.22,0.89 a 13.92,13.92 0 0 1 1.53,-1 c 0.32,-0.18 0.27,-0.1 0,0.14 -0.27,0.24 -1.43,1.2 -2.5,2.26 1.46,-1.27 0.27,0.35 0.71,0.25 a 14.23,14.23 0 0 0 -3.74,4.8 13.39,13.39 0 0 0 -0.94,3 14.59,14.59 0 0 0 -0.25,3.12 23.3,23.3 0 0 1 0.64,2.82 c 0.24,1.23 0.53,2.66 0.76,4 a 36.27,36.27 0 0 1 0.45,3.69 9.89,9.89 0 0 0 0.2,2 15.87,15.87 0 0 0 -0.11,-3.22 c 0.27,1.07 0.46,1.24 0.65,0.87 a 7.58,7.58 0 0 0 0.42,-2.38 c 0.14,-2.16 0.09,-4.82 0.63,-4.56 a 12.93,12.93 0 0 1 -0.68,-4.25 9.82,9.82 0 0 1 1.27,-4.6 15.69,15.69 0 0 1 3.57,-4 l 1.14,-0.94 a 2,2 0 0 1 0.18,-0.15 l 0.24,-0.15 0.62,-0.36 c 0.85,-0.47 1.73,-0.92 2.65,-1.37 1.75,-0.34 -1.34,0.75 -0.37,0.68 1.77,-1 4.23,-1.77 8.93,-1.88 l -0.52,0.14 c 0.7,-0.06 1.39,-0.1 2.06,-0.12 h 1 1.21 c 0.88,0 1.79,0 2.65,0.07 l 1.28,0.05 h 0.62 0.46 l 0.09,-0.06 c -0.17,-1.57 -0.36,-3.16 -0.39,-4.620003 v -1 -0.71 c 0,-0.47 0.07,-0.94 0.13,-1.4 l 0.11,-0.8 v -0.41 -0.33 a 11.68,11.68 0 0 1 0.2,-1.3 14.38,14.38 0 0 1 0.8,-2.57 17.67,17.67 0 0 1 3.24,-5 19,19 0 0 1 2.53,-2.33 10.08,10.08 0 0 1 3.09,-1.67 10.24,10.24 0 0 0 -1.1,-0.05 12.58,12.58 0 0 1 2.95,-0.88 c 0.73,-0.11 1.24,-0.18 2,-0.26 1.73,-0.69 -0.52,-0.35 -2.62,0.23 -2.1,0.58 -3.91,1.64 -2.75,0.56 1,-0.25 2.71,-0.74 5,-1.14 a 61.89,61.89 0 0 0 8.09,-1.65 10,10 0 0 0 4.26,-2.5 l 0.25,-0.25 0.2,-0.29 0.3,-0.44 0.54,-0.79 1,-1.46 a 19.46,19.46 0 0 1 3,-3.650001 c 2.78,-4.13 -1.29,0.89 1.52,-3.21 0.32,-0.31 0.66,-0.61 1,-0.9 l 0.42,-1.24 c 2,-2.57 3.35,-3.5 3.6,-3.44 -0.51,0.58 -1.36,1.71 -1.84,2.4 1.41,-1.52 3.23,-3.75 5,-5.46 a 23.5,23.5 0 0 1 4.11,-3.32 29.63,29.63 0 0 0 -3.68,2.57 26.41,26.41 0 0 1 8.4,-5.29 20.08,20.08 0 0 1 2.45,-0.81 l 0.5,-0.14 a 0.77,0.77 0 0 1 0.15,0 h 0.27 c 0.48,0 1,0 1.54,-0.11 a 11.24,11.24 0 0 0 1.75,-0.32 7,7 0 0 0 1.94,-0.89 5.75,5.75 0 0 0 1.55,-1.56 6.67,6.67 0 0 0 0.85,-2 16.94,16.94 0 0 0 0.41,-3.23 v -0.33 -0.21 a 2.36,2.36 0 0 1 0.09,-0.43 4.34,4.34 0 0 1 0.35,-0.94 13.91,13.91 0 0 1 2.95,-3.72 48.83,48.83 0 0 1 8.09,-5.92 l -1,0.28 1.25,-0.75 a 5,5 0 0 0 0.71,-0.46 c 0.15,-0.12 0.31,-0.23 0.46,-0.33 a 13.25,13.25 0 0 1 1.74,-1 9.24,9.24 0 0 1 1.87,-0.66 c 1.07,-0.27 1.86,-0.32 3.53,-0.78 l 0.5,-0.15 0.29,-0.09 c 0.07,0 0.26,-0.14 0.16,0 a 3.14,3.14 0 0 1 -0.69,1.18 v -0.11 a 7.3,7.3 0 0 1 -1.16,1.38 5.22,5.22 0 0 0 -0.79,1.06 1.2,1.2 0 0 0 -0.16,0.32 1.61,1.61 0 0 0 -0.12,0.4 l -0.05,0.26 v 0.13 0.21 a 7.24,7.24 0 0 0 0,0.81 c -0.1,-0.86 -0.12,-1 -0.19,-0.75 a 4.21,4.21 0 0 0 -0.07,0.7 c 0,0.29 0.07,0.65 0.13,1 v 0 l 0.13,0.3 a 10.08,10.08 0 0 0 1.24,2 c 0.28,0.34 0.1,0.39 -0.91,-0.63 a 8.9,8.9 0 0 0 2.7,2.1 10.17,10.17 0 0 0 2.2,0.84 10,10 0 0 0 2.7,0.36 l 0.65,-1.29 a 0.7,0.7 0 0 1 0.16,0.19 c 0,0.08 0.13,0.21 0.17,0.31 l 0.07,0.16 0.09,0.21 c 0,0 0,0 0,0 l 0.18,-0.1 a 4,4 0 0 1 0.66,-0.21 c 0.44,-0.09 1,-0.14 1.81,-0.35 l 0.62,-0.2 0.16,-0.06 c 0.06,0 0.08,-0.1 0.12,-0.15 l 0.21,-0.36 a 13.24,13.24 0 0 0 0.95,-1.68 c 0.44,-0.46 0.81,-0.89 1.2,-1.36 0.45,-1.22 0.61,-1.9 0.95,-2.94 0.34,-1.04 0.83,-2.41 1.64,-5.1 -1.15,4.49 1.68,-3.26 0.44,1.82 a 84.24,84.24 0 0 0 3.99,-12.99 25.93,25.93 0 0 1 1.42,-4.3800004 6.82,6.82 0 0 1 0.45,-0.85 4,4 0 0 1 0.46,-0.65 1.38,1.38 0 0 1 0.91,-0.5 c 0.19,-0.3 0.37,-0.44 0.4,-0.53 0.03,-0.09 -0.07,-0.18 -0.26,-0.17 a 1.33,1.33 0 0 0 -0.77,0.34 4,4 0 0 0 -0.83,1 20.66,20.66 0 0 0 -1.42,3.2900004 c -0.3,0.86 -0.42,1.24 -0.25,0.52 -0.53,1.13 -0.42,0 0.09,-1.7500004 a 13,13 0 0 1 1.16,-2.79 3.13,3.13 0 0 1 1.95,-1.68 2.49,2.49 0 0 1 2.05,0.73 6.3,6.3 0 0 1 1.82,1.85 4.53,4.53 0 0 1 0.62,2.9000004 13.16,13.16 0 0 1 -1.54,4.73 c 0.37,-0.76 0.32,-0.85 0.64,-1.61 -1.38,2.74 -2.72,5.81 -5.73,8.74 -1,2.21 -3.69,4 -3.61,5 a 72,72 0 0 0 5.47,-6.42 c -1.38,1.93 -2.71,3.86 -4.46,6 a 42.59,42.59 0 0 1 -7.13,6.8 c 0.37,-0.52 2,-2.23 3.13,-3.43 -1.86,1.4 -3.22,3.11 -5.24,4.46 0,-0.53 2,-2.18 4.28,-4.31 a 47.7,47.7 0 0 0 6.35,-6.85 c -0.93,0.8 -2.46,2.66 -3.7,4 -1.24,1.34 -2.06,2.12 -1.43,0.92 -1.94,3.35 -6.78,6 -11.32,10.29 v -0.62 c -0.37,0.31 -0.95,0.82 -1.6,1.33 -0.65,0.51 -1.51,1.09 -2.3,1.66 0.86,-0.86 1.75,-1.63 2.46,-2.38 -0.87,0.77 -2,1.49 -3.11,2.28 a 38.06,38.06 0 0 0 -3.22,2.46 c -1,0.88 -1.9,1.73 -2.72,2.43 -0.82,0.7 -1.65,1.36 -2.54,2.06 a 33.19,33.19 0 0 0 3.34,-2.69 c 0.56,-0.48 0.7,-0.52 0.71,-0.39 0.01,0.13 -0.47,1.08 1.22,-0.39 a 30.25,30.25 0 0 1 -2.69,2.8 15.06,15.06 0 0 1 -1.96,1.5 15.86,15.86 0 0 1 -3.05,1.39 79.09,79.09 0 0 0 -10.33,4.24 c 1.75,-0.86 6.69,-2.74 4.06,-1.29 -2.5,1 -5.86,2.35 -7.48,2.84 -8.56,4.08 1.53,-0.17 -2,1.79 -3.17,0.84 -4.12,2.14 -7.81,4.14 l -0.24,-0.42 a 16,16 0 0 0 -4.88,3 3.76,3.76 0 0 0 -1.08,1.79 13,13 0 0 1 -0.45,1.58 13.2,13.2 0 0 0 -0.7,5.150001 11.21,11.21 0 0 1 -0.13,-4.880001 12.39,12.39 0 0 0 -0.24,6.000001 12.34,12.34 0 0 1 -0.68,-1.12 c 0.41,2.61 1,4.15 1.29,5.51 l 0.1,0.48 v 0.27 a 2.42,2.42 0 0 1 0,0.46 1.25,1.25 0 0 1 -0.39,0.88 1.11,1.11 0 0 1 -0.94,0.23 c 0.27,0.18 0.34,0.43 -0.13,0.57 a 2.46,2.46 0 0 1 -0.46,0.06 h -0.15 -0.27 l -0.57,-0.07 c -0.82,-0.11 -1.88,-0.3 -3.14,-0.46 -1.71,-0.33 -1.23,-0.38 -1.2,-0.45 0.03,-0.07 -0.09,-0.09 -0.67,-0.11 a 18.39,18.39 0 0 0 -3.47,0.13 l 1.28,-0.34 a 10.9,10.9 0 0 1 1.5,-0.2 10.57,10.57 0 0 1 3.93,0.54 c 0.36,-0.1 1.62,0 2,-0.08 a 20.11,20.11 0 0 0 -6.56,-0.91 24.81,24.81 0 0 0 -5.8,0.93 17.14,17.14 0 0 1 2.9,-0.49 26.2,26.2 0 0 0 -9.77,4.31 c -1.52,0.79 -0.5,-0.1 0.6,-0.91 a 19.46,19.46 0 0 0 -5.21,4.8 5.14,5.14 0 0 1 0.39,-1.34 10.46,10.46 0 0 1 3,-3.08 18.58,18.58 0 0 0 -3.91,3.91 14.4,14.4 0 0 0 -2.41,5.17 12.61,12.61 0 0 0 -0.84,2.88 c -0.21,1.14 -0.29,2 -0.36,1.3 a 15.74,15.74 0 0 0 0,2.37 c 0,0.400003 0.09,0.810003 0.15,1.210003 v 0.15 0 0 0.1 a 6.15,6.15 0 0 1 0.38,1.17 c 0.05,0.26 -0.1,0.57 -0.31,0.56 a 1,1 0 0 1 -0.59,-0.23 c -0.19,-0.13 -0.4,-0.29 -0.61,-0.46 l -0.15,-0.12 -0.06,-0.05 -0.28,-0.21 -1.22,-0.86 c -0.42,-0.13 -1.14,-0.56 -2.85,-1.140003 a 12.4,12.4 0 0 0 -5.91,-0.71 14.21,14.21 0 0 0 -5.45,1.890003 21.87,21.87 0 0 0 -4.36,3.45 c -0.66,0.66 -1.25,1.3 -1.88,2 a 23.35,23.35 0 0 0 -1.86,2.44 25.38,25.38 0 0 0 -3.17,3.78 c -1.35,3.19 -0.44,1.71 0.21,0.8 0.34,-0.44 0.62,-0.75 0.53,-0.32 -0.09,0.43 -0.62,1.58 -1.31,4.27 a 32.13,32.13 0 0 0 -0.6,3.79 c -0.09,0.69 -0.19,0.9 -0.29,0.95 -0.1,0.05 -0.48,-0.49 -0.52,1 a 20.47,20.47 0 0 0 2.66,7.54 c 0.74,1.32 1.6,2.61 2.24,3.85 0.64,1.24 0.92,2.35 0.59,3 a 4.11,4.11 0 0 0 -0.24,-1.58 12.58,12.58 0 0 0 -1.07,-2.12 z m -34.48,41.28 a 31.69,31.69 0 0 1 5,-1.46 c -1.28,0.98 -2.59,1.02 -5,1.46 z m -44.619999,78 a 13.85,13.85 0 0 1 4.29,-1.88 c -1.27,0.55 -2.7,1.18 -4.29,1.89 z m -18.36,44.38 c 0,0 0.07,0 0,0.05 a 8,8 0 0 1 -0.95,0 h 0.92 z m -1.57,-2 h -0.06 l -0.1,-0.11 a 0.34,0.34 0 0 0 -0.13,-0.11 c -0.05,0 0,0.08 0,0.23 a 6.34,6.34 0 0 1 1,1.16 c 0.13,-0.18 -0.1,-0.53 -0.71,-1.2 z M 267.60932,16.186316 c -0.23,0.41 -0.45,0.83 -0.71,1.22 0.63,-1.45 0.82,-2 0.87,-2 0.05,0 -0.04,0.35 -0.16,0.78 z"
     id="path288"
     style="fill:#f9a949" />
  <path
     class="cls-5"
     d="m 71.299321,248.40632 a 1.08,1.08 0 0 1 0.66,0.14 c 0.54,-0.17 0.54,-0.27 -0.66,-0.14 z"
     id="path290"
     style="fill:#f9a949" />
  <path
     class="cls-5"
     d="m 161.27932,100.95632 0.23,0.13 a 0.62,0.62 0 0 0 0.27,0.07 z"
     id="path292"
     style="fill:#f9a949" />
  <path
     class="cls-5"
     d="m 13.449321,375.86632 c -0.16,1.28 -0.24,2 -0.33,2.48 0.17,0.07 0.22,-0.52 0.33,-2.48 z"
     id="path294"
     style="fill:#f9a949" />
  <path
     class="cls-5"
     d="m 37.879321,259.70632 c -0.33,0.69 -0.71,1.36 -1,2.07 l -0.84,2.13 c 0.42,-1 0.73,-1.71 1,-2.26 0.27,-0.55 0.58,-0.93 0.87,-1.41 -0.14,0.04 -0.7,0.74 -0.03,-0.53 z"
     id="path296"
     style="fill:#f9a949" />
  <path
     class="cls-5"
     d="m 66.259321,237.39632 a 12.3,12.3 0 0 0 -0.09,-1.93 l -0.21,0.18 a 23.4,23.4 0 0 1 0,2.85 c -0.05,0.45 0.12,0.26 0.3,-1.1 z"
     id="path298"
     style="fill:#f9a949" />
  <path
     class="cls-5"
     d="m 41.449321,256.98632 c 0.13,0 0.32,-0.17 0.55,-0.44 0.23,-0.27 0.56,-0.62 0.91,-1 l 1.2,-1.53 a 11.38,11.38 0 0 1 1.92,-1.48 l -0.47,0.3 c 0.12,-0.25 0,-0.31 -0.2,-0.23 a 3.22,3.22 0 0 0 -0.46,0.23 7.22,7.22 0 0 0 -0.71,0.5 3.46,3.46 0 0 0 -0.75,0.84 l -0.65,0.87 a 18.65,18.65 0 0 0 -1.34,1.94 z"
     id="path300"
     style="fill:#f9a949" />
  <path
     class="cls-5"
     d="m 46.629321,252.11632 a 21.7,21.7 0 0 1 2.55,-1.28 c 0.27,-0.31 -1.08,0.39 -2.55,1.28 z"
     id="path302"
     style="fill:#f9a949" />
  <path
     class="cls-5"
     d="m 35.099321,287.66632 c -0.26,-1.5 -0.73,-0.8 -0.78,-1.68 -0.22,-0.39 -0.15,0 0.06,0.76 0.11,0.36 0.23,0.8 0.41,1.24 l 0.59,1.27 c 0.77,1.56 1.26,2.27 -0.28,-1.59 z"
     id="path304"
     style="fill:#f9a949" />
  <path
     class="cls-5"
     d="m 43.969321,255.82632 -1.07,0.53 a 15,15 0 0 0 -0.64,1.61 20.55,20.55 0 0 1 1.71,-2.14 z"
     id="path306"
     style="fill:#f9a949" />
  <path
     class="cls-5"
     d="m 35.759321,277.52632 0.18,-2.39 c 0.08,-0.8 0.25,-1.58 0.37,-2.37 -0.08,0.06 -0.07,-0.56 0,-1.3 -0.14,0.73 -0.23,1.48 -0.34,2.19 a 13.9,13.9 0 0 0 -0.23,2 7.48,7.48 0 0 0 0.02,1.87 z"
     id="path308"
     style="fill:#f9a949" />
  <path
     class="cls-5"
     d="m 36.339321,271.45632 c 0.37,-1.5 0.62,-2.95 0.86,-3.77 a 30.26,30.26 0 0 0 -0.86,3.77 z"
     id="path310"
     style="fill:#f9a949" />
  <path
     class="cls-5"
     d="m 40.529321,261.31632 -0.76,1.18 c -0.48,1 -0.9,2 -1.36,3.07 a 38.25,38.25 0 0 1 2.12,-4.25 z"
     id="path312"
     style="fill:#f9a949" />
  <path
     class="cls-5"
     d="m 23.579321,310.52632 a 40.22,40.22 0 0 0 -1.54,5 c 0,0.56 0.46,-0.8 1,-2.65 0.31,-1.22 0.99,-3.04 0.54,-2.35 z"
     id="path314"
     style="fill:#f9a949" />
  <path
     class="cls-5"
     d="m 35.089321,301.57632 c -1.34,0.18 -1.46,0.08 -2.24,0.16 v 0.63 a 16.68,16.68 0 0 1 2.24,-0.79 z"
     id="path316"
     style="fill:#f9a949" />
  <path
     class="cls-5"
     d="m 25.189321,310.58632 c -0.13,0.52 -2,7 0.07,1 -0.01,-0.51 1.97,-5.19 -0.07,-1 z"
     id="path318"
     style="fill:#f9a949" />
  <path
     class="cls-5"
     d="m 12.049321,383.71632 v -0.65 c 0,-0.23 0,-0.47 -0.07,-0.68 l -1,0.31 a 12.72,12.72 0 0 1 1.07,1.02 z"
     id="path320"
     style="fill:#f9a949" />
  <path
     class="cls-5"
     d="m 20.899321,362.90632 c -0.58,3.2 -0.38,3.6 -0.28,3.91 0.1,0.31 0.21,0.55 0,3.42 0.1,0.75 0.18,-0.42 0.3,-1.58 0.12,-1.16 0.28,-2.33 0.32,-1.56 0.03,-3.85 0.64,-5.85 -0.34,-4.19 z"
     id="path322"
     style="fill:#f9a949" />
  <path
     class="cls-5"
     d="m 21.199321,367.09632 c 0,0.62 0,1.27 0,2 0.02,-1.14 0.02,-1.67 0,-2 z"
     id="path324"
     style="fill:#f9a949" />
  <path
     class="cls-5"
     d="m 127.01932,124.52632 a 22.54,22.54 0 0 1 0.09,3.55 16.21,16.21 0 0 0 0.21,-2.27 c -0.09,-0.42 -0.2,-0.85 -0.3,-1.28 z"
     id="path326"
     style="fill:#f9a949" />
  <path
     class="cls-5"
     d="m 127.66932,131.22632 a 7.22,7.22 0 0 1 -0.86,0.54 10.56,10.56 0 0 1 -0.32,2 c 0.4,-0.64 0.96,-2 1.18,-2.54 z"
     id="path328"
     style="fill:#f9a949" />
  <path
     class="cls-5"
     d="m 91.949321,178.52632 -0.19,0.35 c 0.35,-0.16 0.72,-0.43 1.29,-0.75 a 12.4,12.4 0 0 1 1.14,-0.68 l 1.3,-0.58 -0.84,0.28 -0.42,0.15 a 4.75,4.75 0 0 0 -0.6,0.28 c -0.61,0.31 -1.18,0.55 -1.68,0.95 z"
     id="path330"
     style="fill:#f9a949" />
  <polygon
     class="cls-5"
     points="244.09,213.2 243.1,213.02 242.24,213.4 "
     id="polygon332"
     style="fill:#f9a949"
     transform="translate(-124.55068,-66.473684)" />
  <path
     class="cls-5"
     d="m 133.44932,119.05632 a 20,20 0 0 0 0.16,7.18 14.51,14.51 0 0 1 -0.08,-5.66 c 0.23,-1.22 0.37,-1.74 -0.08,-1.52 z"
     id="path334"
     style="fill:#f9a949" />
  <path
     class="cls-6"
     d="m 29.609321,407.41632 c 14.76,-12.11 35.58,-9.25 53.4,-15.93 1.91,-0.6 3.21,-3.11 5.08,-4.57 1.51,-1.7 2.92,-3.48 4.27,-5.3 a 150,150 0 0 0 10.789999,-17.16 c 1.22,-1.76 2.49,-3.46 3.84,-5.08 a 53.42,53.42 0 0 1 4.28,-4.6 43.24,43.24 0 0 1 6.49,-5.14"
     id="path336"
     style="fill:none;stroke:#8b5e3c;stroke-miterlimit:10" />
  <path
     class="cls-6"
     d="m 145.98932,340.19632 c 3.7,-6.5 9.47,-11.47 13.52,-18.31"
     id="path338"
     style="fill:none;stroke:#8b5e3c;stroke-miterlimit:10" />
  <path
     class="cls-6"
     d="m 191.24932,299.00632 c 2.57,-1.24 5.13,-2.58 7.68,-4.13 7.24,-5.87 13.06,-12.64 18.56,-19.58 1.83,-2.32 3.63,-4.66 5.42,-7.07 2.85,-5.77 8.62,-10.74 10.75,-16.26"
     id="path340"
     style="fill:none;stroke:#8b5e3c;stroke-miterlimit:10" />
  <path
     class="cls-6"
     d="m 281.79932,66.846316 c 1.15,2.61 2.44,5.270001 3.36,7.880001 a 19.25,19.25 0 0 1 1.25,7.63 47.06,47.06 0 0 1 0.07,7.6 55.45,55.45 0 0 1 -6.22,21.600003"
     id="path342"
     style="fill:none;stroke:#8b5e3c;stroke-miterlimit:10" />
  <path
     class="cls-7"
     d="m 95.689321,307.99632 c 3.67,5.06 61.659999,-17.28 99.749999,-68.47 34.8,-46.77 41.72,-102.5 36.1,-104.75 -4.87,-1.95 -17.29,37 -57.69,89.55 -43.53,56.63 -81.299999,79.34 -78.159999,83.67 z"
     id="path344"
     style="opacity:0.83;fill:#fcf59f" />
  <path
     class="cls-8"
     d="m 22.599321,390.28632 c -4.7,-22.15 -1.32,-30.09 2.79,-33.16 3.11,-2.33 12.2,-6 12.2,-6 0,0 -2.66,-10.57 -3.49,-12.4 -5.41,-12 1.69,-27.91 14.21,-31.89 a 32.65,32.65 0 0 1 27.7,-49.59 c -7.81,-15.49 -1.28,-36.61 13.91,-45 a 22.75,22.75 0 0 1 20.419999,-35.52 c -4.7,-7.06 -0.62,-17.24 6.38,-22 7,-4.76 15.88,-5.65 24.34,-6.35 a 35.33,35.33 0 0 1 -3.21,-16.49 c 0.19,-3.38 1,-17.3 9,-19.56 5.24,-1.48 12.11,2.44 16.62,9.43 -0.32,-0.84 -5.11,-14.1 3.25,-25.000003 a 25.87,25.87 0 0 1 16.26,-9.47 c 7.35,2.57 11.23,1.56 13.43,0 5.61,-4 1.73,-12.62 8.4,-20.530001 0.77,-0.92 6.4,-7.59 13.7,-6.43 6.53,1 9.83,7.65 10.26,8.55 -0.22,-3 -0.82,-15.89 8.35,-26 a 31.77,31.77 0 0 1 10.24,-7.43 l 9.78,-8 q 8.21,-6.69 16.34,-13.37 3.83,-11.6500004 1.25,-13.30000044 -3.62,-2.32999996 -19.83,15.00000044"
     id="path346"
     style="fill:none;stroke:#dd7b10;stroke-miterlimit:10" />
</svg>
