<?xml version="1.0" encoding="UTF-8" standalone="no"?>
<svg
   id="Layer_1"
   data-name="Layer 1"
   viewBox="0 0 227.16328 627.6964"
   version="1.1"
   sodipodi:docname="MAYR-01.svg"
   width="227.16328"
   height="627.69641"
   inkscape:version="1.2 (1:1.2+202206011326+fc4e4096c5)"
   xmlns:inkscape="http://www.inkscape.org/namespaces/inkscape"
   xmlns:sodipodi="http://sodipodi.sourceforge.net/DTD/sodipodi-0.dtd"
   xmlns="http://www.w3.org/2000/svg"
   xmlns:svg="http://www.w3.org/2000/svg"
   xmlns:rdf="http://www.w3.org/1999/02/22-rdf-syntax-ns#"
   xmlns:cc="http://creativecommons.org/ns#"
   xmlns:dc="http://purl.org/dc/elements/1.1/">
  <sodipodi:namedview
     id="namedview63"
     pagecolor="#ffffff"
     bordercolor="#000000"
     borderopacity="0.25"
     inkscape:showpageshadow="2"
     inkscape:pageopacity="0.0"
     inkscape:pagecheckerboard="0"
     inkscape:deskcolor="#d1d1d1"
     showgrid="false"
     inkscape:zoom="1.1500806"
     inkscape:cx="-211.72429"
     inkscape:cy="439.96915"
     inkscape:window-width="1920"
     inkscape:window-height="1007"
     inkscape:window-x="0"
     inkscape:window-y="0"
     inkscape:window-maximized="1"
     inkscape:current-layer="Layer_1" />
  <defs
     id="defs4">
    <style
       id="style2">.cls-1{fill:#251c17;}.cls-2,.cls-3{fill:#f3cfa0;}.cls-3{stroke:#b39471;}.cls-3,.cls-4{stroke-miterlimit:10;}.cls-4,.cls-7{fill:#589255;}.cls-4{stroke:#68a99b;stroke-width:3px;}.cls-5{fill:#3b4167;}.cls-6{fill:#efefef;}.cls-8{fill:#afafaf;}.cls-9{fill:#fff;}.cls-10{fill:#291d11;}.cls-11{fill:#edb770;}.cls-12{fill:#312a20;}.cls-13{fill:#473421;}</style>
  </defs>
  <title
     id="title6">MAYR</title>
  <metadata
     id="metadata119">
    <rdf:RDF>
      <cc:Work
         rdf:about="">
        <dc:title>MAYR</dc:title>
      </cc:Work>
    </rdf:RDF>
  </metadata>
  <path
     class="cls-1"
     d="m 72.547407,61.545246 c -4.72,7 3.42,12.63 0,31 -2,10.870004 -5.84,14.000004 -4.68,23.400004 a 36.61,36.61 0 0 0 6.84,16.92 37.55,37.55 0 0 0 9.36,8.64 c 10.18,6.74 37.730003,18.72 53.280003,5 7.46,-6.56 8.87,-16.14 9.36,-19.44 0.82,-5.57 0.43,-12 -7.92,-31.680004 -7.84,-18.45 -11.76,-27.67 -16.56,-31.68 -15.34,-12.81 -42.550003,-12.73 -49.680003,-2.16 z"
     id="path8"
     style="fill:#251c17" />
  <path
     class="cls-2"
     d="m 88.507407,84.625246 c -1.9,2.74 -1.62,8.53 -1,20.000004 0.43,7.9 0.67,11.89 2,14 5.28,8.37 21.480003,11.45 28.000003,5 3.72,-3.68 2.82,-10.46 1,-24.000004 -1.44,-10.73 -2.24,-16.16 -6,-19 -6.75,-5.1 -19.320003,-2.73 -24.000003,4 z"
     id="path10"
     style="fill:#f3cfa0" />
  <ellipse
     class="cls-3"
     cx="102.00742"
     cy="50.625248"
     rx="32.5"
     ry="47"
     id="ellipse12"
     style="fill:#f3cfa0;stroke:#b39471;stroke-miterlimit:10" />
  <path
     class="cls-4"
     d="m 40.187407,564.82525 c -3.51,2.38 -3.36,5.33 -6.13,12 -8.91,21.59 -24.3100004,24.85 -23,35.49 0.8,6.68 7.84,13.41 14.46,13.86 10.28,0.69 11.16,-14.3 32,-27.9 9,-5.89 17.4,-8.66 17.87,-15.16 0.25,-3.47 -1.9,-6.17 -3.83,-8.6 -7.69,-9.54 -23.3,-15.21 -31.37,-9.69 z"
     id="path14"
     style="fill:#589255;stroke:#68a99b;stroke-width:3px;stroke-miterlimit:10" />
  <path
     class="cls-4"
     d="m 186.08741,557.02525 c 2.75,3.22 1.84,6 2.75,13.22 2.93,23.17 16.93,30.36 12.91,40.29 -2.56,6.23 -11.08,10.93 -17.56,9.57 -10.1,-2 -7,-16.73 -23.54,-35.31 -7.16,-8.06 -14.52,-12.93 -13.26,-19.32 0.67,-3.41 3.45,-5.46 6,-7.29 9.8,-7.24 26.31,-8.62 32.7,-1.16 z"
     id="path16"
     style="fill:#589255;stroke:#68a99b;stroke-width:3px;stroke-miterlimit:10" />
  <path
     class="cls-5"
     d="m 72.937407,280.26525 c -6.12,4.09 -13.57,35.28 -15.66,47.45 -1.52,8.8 -6.9,33.26 -7.3,42.66 -1,23 2.54,41.52 0.67,63 -0.94,10.86 -4.5,20.49 -6.85,30.88 -8.11,35.82 -14.34,72.86 -14.92,109.66 v 0 c 7.94,4.58 16.31,9.32 25.54,10.45 13,1.59 25.12,-1.37 36.87,-7.08 v 0 c 1.65,-30.56 3.39,-68.2 4,-96.43 0.44,-19.62 0.85,-29.22 2,-43.75 1,-12 3.400003,-26.55 4.690003,-33.79 4.23,-23.81 5.16,-25 7.61,-39.49 4.94,-29.13 4.46,-44.18 6.09,-44.19 2.07,0 2.8,24.3 8.5,75.82 1.88,17.05 2.52,20.64 3.54,32.77 1.49,17.73 2.13,34.25 2.72,55.22 1.3,46.15 -0.33,92.69 -0.33,92.69 0,0 16.41,7.21 32.37,8.22 19.66,1.25 39.26,-6.88 39.26,-6.87 0,0.01 -7.28,-40.51 -15.55,-80.93 -10.44,-51 -13.17,-51.91 -12.55,-66.71 0.49,-11.92 4,-35 6.57,-60.87 1,-9.46 -2.75,-56.77 -9.25,-74.63 -0.42,-1.17 -3.87,-12.84 -8.29,-14.68 -5.4,-2.26 -17.15,-1.15 -21.16,0 -25.19,7.44 -49.320003,-12.2 -68.570003,0.6 z"
     id="path18"
     style="fill:#3b4167" />
  <path
     class="cls-2"
     d="m 7.9874066,308.86525 c -3.08,1.47 -3.81,6.42 -5.28,16.32 a 132.3,132.3 0 0 0 -1,13.44 35.16,35.16 0 0 0 0.48,9.6 c 0.54,2.58 1.06,4.92 2.88,7.2 2,2.55 6.0000004,5.39 7.6800004,4.32 2.38,-1.51 -2.51,-9 0,-19.2 0.77,-3.13 2.31,-6.86 3.36,-6.72 2.13,0.29 0.77,16.13 2.4,16.32 1.21,0.14 3.35,-8.45 4.32,-16.32 1.2,-9.72 1.74,-14.75 -1.44,-19.2 -3.18,-4.45 -9.44,-7.65 -13.4000004,-5.76 z"
     id="path20"
     style="fill:#f3cfa0" />
  <path
     class="cls-6"
     d="m 39.257407,168.01525 c 3.25,-9.22 3.74,-25 13.14,-34.89 9.64,-10.2 27.35,-12.9 27.35,-12.9 v 0 c 0,0 14.1,14.1 26.160003,13 9,-0.85 8.83,-11.35 21.15,-14.83 7.2,-2 14,-0.36 23,1.87 6.23,1.54 11.87,2.93 16.75,6.1 4.88,3.17 9.34,8.39 21.11,56.43 3.75,15.31 3.65,16.23 6.1,25.31 0.74,2.73 2.49,9.33 4.38,18.31 0.38,1.78 0.72,3.61 1.16,6 5.29,29.63 1.84,28.85 6.66,62.53 3.4,23.74 7.82,43 1.44,46.08 -1.26,0.61 -5,0.09 -12.48,-1 -6.63,-0.93 -9.94,-1.39 -11,-1.92 -9,-4.34 -1.45,-29.56 -1.92,-60.48 -0.26,-17 -3.21,-30.37 -9.12,-57.12 -5.25,-23.6 -12.23,-44.04 -13.95,-43.64 -1.31,0.29 1.87,12.2 0.48,30.72 -1.21,16.11 -4.11,13.75 -4.32,25 -0.32,17 7.51,32.61 15.36,56.16 v 0 c 0,0 -14.11,6.82 -21.6,9.6 -15.37,5.7 -29.38,4.18 -37,3.36 0,0 -9.11,-1 -45.120003,-13.92 l 0.67,-2.48 c 3.61,-13.51 6.49,-28.06 7.49,-36.88 1.09,-9.63 -0.48,-9.16 -2.88,-38.88 -2.25,-27.85 -1.48,-35.73 -3.36,-36 -4.27,-0.6 -16,39.14 -23,77.76 -4.84,26.58 -11.43,71.18 -21.6,71.52 -2.13,0.07 -5.73,-1 -11.52,-2.88 -6.6400004,-2.16 -10.0000004,-3.24 -11.4100004,-4.85 -5.34,-5.94 6,-20.82 14.2900004,-40.75 2.44,-5.83 6.78,-24.61 14.4,-62.4 5.27,-26.14 7.16,-36.28 7.2,-36.48 v 0 a 46.51,46.51 0 0 1 1.99,-7.45 z"
     id="path22"
     style="fill:#efefef" />
  <path
     class="cls-7"
     d="m 150.30741,128.46525 c -8.81,14 -6.73,31.66 -5.76,40 0.7,6 2,12.37 1.85,22.73 -0.07,3.72 -0.34,4.52 -0.41,8.59 a 191.71,191.71 0 0 0 1.08,23.76 c 1.33,13.38 0.53,16.33 2.16,99.36 0.24,12.23 0.56,23.69 5.4,37.8 3.8,11.09 7.6,21.66 18.36,28.08 9.06,5.41 21.7,7.06 32.4,2.16 18.71,-8.56 21.32,-30.53 21.6,-33.48 0.74,-7.73 -1,-14.77 -2.52,-21.24 -1.76,-7.3 -3.73,-11.56 -6.48,-18.36 -8.16,-20.17 -11.91,-34.76 -12.6,-34.56 -0.69,0.2 2.21,18.27 5.4,43.92 0.58,4.69 1,8.9 -1.44,12.6 -4.9,7.27 -18.57,8.6 -28.08,4 -1.21,-0.59 -5.1,-2.85 -11.52,-11.16 a 77.63,77.63 0 0 1 -13.32,-27 c -5.09,-18.91 -2.67,-32.47 -2.52,-51.84 0.28,-35.6 -7.16,-75.43 -4.46,-99.8 a 41.79,41.79 0 0 1 5.54,-17.2 40.71,40.71 0 0 1 10.44,-11.52 c 0,0 -2.67,-4.38 -5,-5 -2.33,-0.62 -6.78,2.91 -10.12,8.16 z"
     id="path24"
     style="fill:#589255" />
  <path
     class="cls-2"
     d="m 202.26741,340.66525 c 4,0.26 4.3,-0.08 5.08,0.47 2,1.4 1.68,5.36 1,13.21 a 51.72,51.72 0 0 1 -1.32,8.87 c -0.87,3.41 -1.35,5.28 -2.88,7.2 -2,2.54 -6,5.39 -7.68,4.32 -2.38,-1.51 2.51,-9 0,-19.2 -1.06,-4.34 -3,-6.85 -3.36,-6.72 -0.65,0.22 2.51,8.14 -0.75,13.57 -0.46,0.77 -0.8,1.07 -1.17,1.08 -2.05,0.08 -3.72,-8.83 -4.8,-14.65 -1.5,-8 -1,-9.45 -0.12,-10.09 0.88,-0.64 1.72,0 7.08,0.86 a 88,88 0 0 0 8.92,1.08 z"
     id="path26"
     style="fill:#f3cfa0" />
  <path
     class="cls-8"
     d="m 87.427407,114.46525 c -1.39,0.12 -2.93,1.44 -6,4.08 -1.06,0.91 -1.59,1.37 -1.68,1.68 -0.79,2.8 6.76,7.91 13.2,10.56 3.56,1.46 12.830003,5.13 23.520003,1.92 8,-2.4 11.68,-7.1 12.48,-8.16 1.35,-1.81 3.29,-4.39 2.45,-7 -1,-3.16 -5.66,-4.91 -8.66,-3.82 a 6.36,6.36 0 0 0 -2.66,2.15 c -4.72,5.24 -12.75,5.73 -13.69,5.78 -0.94,0.05 -8.000003,0.39 -13.680003,-4.08 -1.99,-1.55 -3.25,-3.29 -5.28,-3.11 z"
     id="path28"
     style="fill:#afafaf" />
  <path
     class="cls-9"
     d="m 106.86741,53.465246 c -0.17,-1.5 4.41,-3.7 8.64,-4.08 a 17.34,17.34 0 0 1 9.6,2.16 c 1.56,0.78 4.52,2.25 4.29,3.39 -0.26,1.3 -4.54,1.41 -9.69,1.53 a 28.75,28.75 0 0 1 -9.84,-1.32 c -2.84,-0.88 -2.98,-1.46 -3,-1.68 z"
     id="path30"
     style="fill:#ffffff" />
  <circle
     class="cls-10"
     cx="118.62741"
     cy="52.545246"
     r="3.1199999"
     id="circle32"
     style="fill:#291d11" />
  <path
     class="cls-11"
     d="m 106.62741,53.625246 c 0.37,0.39 2.57,-1.88 6.6,-3.24 a 13.9,13.9 0 0 1 5.76,-0.73 h 0.12 a 14.84,14.84 0 0 1 4.92,1.56 17.58,17.58 0 0 1 4.16,2.65 c 1.28,1.11 1.92,2 2,1.92 0.08,-0.08 -0.74,-1.76 -2,-3.24 a 14.58,14.58 0 0 0 -3.12,-2.64 15.57,15.57 0 0 0 -4.32,-1.92 c -3.61,-1 -8.89,-0.7 -12.24,2.52 -1.26,1.25 -2.15,2.83 -1.88,3.12 z"
     id="path34"
     style="fill:#edb770" />
  <path
     class="cls-11"
     d="m 106.62741,53.625246 c 0,0 1.1,0.58 2.76,1.2 a 20.68,20.68 0 0 0 4.92,1.2 35.16,35.16 0 0 0 8.52,0.12 c 4.12,-0.37 6.85,-1 6.9,-0.83 0.05,0.17 -0.87,0.42 -1.2,0.53 a 28.06,28.06 0 0 1 -8.44,1.39 c -3.74,0 -5.77,0.08 -8.42,-0.85 a 15.89,15.89 0 0 1 -5.04,-2.76 z"
     id="path36"
     style="fill:#edb770" />
  <circle
     class="cls-12"
     cx="118.62741"
     cy="52.545246"
     r="1.3099999"
     id="circle38"
     style="fill:#312a20" />
  <path
     class="cls-9"
     d="m 99.007407,52.365246 c 0.17,-1.5 -4.42,-3.69 -8.64,-4.08 a 17.34,17.34 0 0 0 -9.6,2.16 c -1.56,0.78 -4.52,2.25 -4.29,3.39 0.26,1.3 4.53,1.41 9.69,1.53 a 28.75,28.75 0 0 0 9.84,-1.32 c 2.84,-0.92 2.98,-1.5 3,-1.68 z"
     id="path40"
     style="fill:#ffffff" />
  <circle
     class="cls-10"
     cx="87.247406"
     cy="51.405247"
     r="3.1199999"
     id="circle42"
     style="fill:#291d11" />
  <path
     class="cls-11"
     d="m 99.247407,52.465246 c -0.37,0.39 -2.57,-1.88 -6.6,-3.24 a 14.1,14.1 0 0 0 -5.77,-0.73 h -0.11 a 14.76,14.76 0 0 0 -4.92,1.56 17.58,17.58 0 0 0 -4.2,2.64 c -1.29,1.11 -1.92,2 -2,1.92 -0.08,-0.08 0.74,-1.76 2,-3.24 a 14.58,14.58 0 0 1 3.12,-2.64 15.57,15.57 0 0 1 4.32,-1.92 c 3.61,-1 8.89,-0.69 12.24,2.52 1.3,1.28 2.19,2.86 1.92,3.13 z"
     id="path44"
     style="fill:#edb770" />
  <path
     class="cls-11"
     d="m 99.247407,52.465246 c 0,0 -1.1,0.58 -2.76,1.2 a 20.68,20.68 0 0 1 -4.92,1.2 35.16,35.16 0 0 1 -8.52,0.12 c -4.12,-0.37 -6.85,-1 -6.9,-0.83 -0.05,0.17 0.87,0.42 1.2,0.53 a 28.52,28.52 0 0 0 8.44,1.4 c 3.74,0 5.77,0.07 8.42,-0.86 a 15.67,15.67 0 0 0 5.04,-2.76 z"
     id="path46"
     style="fill:#edb770" />
  <circle
     class="cls-12"
     cx="87.247406"
     cy="51.405247"
     r="1.3099999"
     id="circle48"
     style="fill:#312a20" />
  <path
     class="cls-12"
     d="m 104.99741,42.585246 a 54.79,54.79 0 0 1 7,-2.47 17.62,17.62 0 0 1 7.36,-0.45 17.17,17.17 0 0 0 -7.22,0.94 51.65,51.65 0 0 0 -6.73,2.86 z"
     id="path50"
     style="fill:#312a20" />
  <path
     class="cls-13"
     d="m 105.30741,2.8652482 c 1.42,1.64 2,4.4 -0.4,12.5499978 -2.43,8.36 -4.24,14.59 -9.800003,21.77 -9.61,12.42 -16.67,9.91 -19.68,18 -3.31,8.89 4.92,12.66 5.76,28 0.88,16 -7.61,17.810004 -6.48,32.400004 1.06,13.64 9.08,14.92 10.8,30.24 1.51,13.43 -3,26.93 -6.48,27 -2.66,0.06 -3,-8 -8.64,-21.6 -9.5,-23.11 -18.9,-25.51 -19.44,-38.88 -0.44,-10.79 5.64,-10.12 9.72,-27.000004 4.87,-20.17 -3,-24.37 2.16,-44.28 3.75,-14.41 10.62,-22.75 15.12,-28.08 6.62,-7.8399978 12.1,-10.9999978 17.64,-11.8799978 1.78,-0.32000003 7.170003,-1.18000003 9.720003,1.76 z"
     id="path52"
     style="fill:#473421" />
  <path
     class="cls-13"
     d="m 103.25741,2.1352482 c -2.3,2.65 -1,6.88 0.4,12.5499978 4.47,18.59 1.07,18.59 4.28,24.53 6.75,12.5 19.89,9 23.76,19.44 2.74,7.44 -3.56,10.15 -4.32,23.76 -0.91,16.1 7.58,18.150004 6.48,32.400004 -1.06,13.64 -9.09,14.92 -10.8,30.24 -1.51,13.42 3,26.93 6.48,27 2.66,0 3,-8 8.64,-21.6 9.5,-23.11 18.89,-25.51 19.44,-38.88 0.44,-10.79 -5.64,-10.12 -9.72,-27.000004 -4.88,-20.17 3,-24.37 -2.16,-44.28 -3.75,-14.41 -10.62,-22.75 -15.12,-28.08 -6.62,-7.8499978 -12.1,-10.9999978 -17.64,-11.87999783 -1.79,-0.28 -7.17,-1.14 -9.72,1.80000003 z"
     id="path54"
     style="fill:#473421" />
  <path
     class="cls-12"
     d="m 94.427407,40.385246 a 6.83,6.83 0 0 1 4.45,3 13.34,13.34 0 0 1 1.550003,5.28 60.2,60.2 0 0 1 0,10.74 62.92,62.92 0 0 1 -1.790003,10.57 c -0.23,0.87 -0.47,1.73 -0.73,2.59 a 4.59,4.59 0 0 0 -0.27,1.08 c 0,0.08 0,0.06 0.11,0.11 0.11,0.05 0.35,0.1 0.56,0.18 1.66,0.66 3.330003,1.27 5.000003,2 -1.77,-0.3 -3.510003,-0.67 -5.260003,-1 a 3.47,3.47 0 0 1 -0.71,-0.22 1.19,1.19 0 0 1 -0.67,-0.9 2,2 0 0 1 0.11,-0.86 l 0.19,-0.64 q 0.39,-1.26 0.72,-2.55 a 62,62 0 0 0 1.77,-10.41 60.82,60.82 0 0 0 0,-10.54 12.24,12.24 0 0 0 -1.43,-4.88 6.77,6.77 0 0 0 -3.6,-3.55 z"
     id="path56"
     style="fill:#312a20" />
  <path
     class="cls-12"
     d="m 91.077407,79.865246 a 7.62,7.62 0 0 0 4.6,1.36 c 0.79,0 1.53,-0.27 2.48,-0.36 a 2.68,2.68 0 0 1 1.48,0.32 7.76,7.76 0 0 0 1.000003,0.63 c 0.19,0.09 0.39,0 0.75,-0.2 a 4.16,4.16 0 0 1 0.61,-0.34 1.4,1.4 0 0 1 0.9,-0.12 c 0.66,0.19 0.9,0.61 1.19,0.77 a 3,3 0 0 0 1,0.41 c 1.51,0.34 3.12,-0.36 4.64,-1.05 a 11.9,11.9 0 0 1 -2.15,1.37 4.85,4.85 0 0 1 -2.62,0.45 3.31,3.31 0 0 1 -1.34,-0.44 c -0.43,-0.27 -0.73,-0.58 -0.91,-0.58 -0.18,0 -0.43,0.11 -0.8,0.36 a 2.87,2.87 0 0 1 -0.68,0.33 1.41,1.41 0 0 1 -0.93,0 6.54,6.54 0 0 1 -1.130003,-0.73 1.78,1.78 0 0 0 -0.95,-0.21 22.77,22.77 0 0 1 -2.51,0.19 6.59,6.59 0 0 1 -4.63,-2.16 z"
     id="path58"
     style="fill:#312a20" />
  <path
     class="cls-12"
     d="m 98.007407,85.965246 a 4.16,4.16 0 0 1 5.540003,1.09 c -1,-0.23 -1.86,-0.48 -2.75,-0.64 -0.890003,-0.16 -1.770003,-0.28 -2.790003,-0.45 z"
     id="path60"
     style="fill:#312a20" />
</svg>
