<?xml version="1.0" encoding="UTF-8" standalone="no"?>
<svg
   viewBox="0 0 261.46901 798.91352"
   version="1.1"
   id="svg124"
   sodipodi:docname="schoolboy_1.svg"
   width="261.46902"
   height="798.91351"
   inkscape:version="1.2.2 (b0a8486541, 2022-12-01)"
   xmlns:inkscape="http://www.inkscape.org/namespaces/inkscape"
   xmlns:sodipodi="http://sodipodi.sourceforge.net/DTD/sodipodi-0.dtd"
   xmlns="http://www.w3.org/2000/svg"
   xmlns:svg="http://www.w3.org/2000/svg">
  <sodipodi:namedview
     id="namedview126"
     pagecolor="#ffffff"
     bordercolor="#000000"
     borderopacity="0.25"
     inkscape:showpageshadow="2"
     inkscape:pageopacity="0.0"
     inkscape:pagecheckerboard="0"
     inkscape:deskcolor="#d1d1d1"
     showgrid="false"
     inkscape:zoom="0.90264555"
     inkscape:cx="90.290148"
     inkscape:cy="447.57325"
     inkscape:window-width="1920"
     inkscape:window-height="1011"
     inkscape:window-x="0"
     inkscape:window-y="32"
     inkscape:window-maximized="1"
     inkscape:current-layer="svg124" />
  <defs
     id="defs4">
    <style
       id="style2">.a{fill:#fff4c0;}.a,.p,.q,.s{stroke:#c1986c;}.a,.aa,.ab,.ad,.ae,.b,.c,.d,.e,.i,.k,.l,.m,.n,.o,.p,.q,.r,.s,.t,.v,.w,.x,.y,.z{stroke-miterlimit:10;}.ab,.b,.i,.m,.r,.y{fill:none;}.b,.c,.d,.e{stroke:#463416;}.c{fill:#71481e;}.d{fill:#7f4817;}.e{fill:#894915;}.f,.l{fill:#fff;}.g{fill:#5f3a16;}.h{fill:#513405;}.i,.k,.l{stroke:#69441a;}.j{fill:#69441a;}.k{fill:#75200c;}.m{stroke:#603913;stroke-width:0.75px;}.n{fill:#ffa300;}.n,.o{stroke:#9fd4ad;}.o{fill:#f7b64d;}.p{fill:#6d9b15;}.q{fill:#b76c13;}.r{stroke:#f7ec32;}.s{fill:#5e8e11;}.t{fill:#f6c17a;stroke:#faaf41;}.u{fill:#af20d1;}.v{fill:#6a7383;}.v,.w,.x{stroke:#1e75bb;}.w{fill:#8692a3;}.x{fill:#717f96;}.y{stroke:#f15a29;}.z{fill:#8bfc7c;}.aa,.ab,.z{stroke:#a7a8ab;}.aa{fill:#b5f4d4;}.ac{fill:#1e75bb;}.ad{fill:#8a5f3c;stroke:#221f1f;}.ae{fill:#c1b59a;stroke:#a87c51;}</style>
  </defs>
  <path
     class="a"
     d="m 173.77149,251.66889 c 6.29,15 12.33,13.65 15.47,23.93 7,22.81 -11.89,64.65 -39.79,64.91 -26.19,0.3 -47.29,-36.05 -42,-57 2.65,-10.21 9.41,-8.85 15.1,-22.72 0,0 4.19,-10.32 1.49,-51.37 l 43.11,-4.55 c 0,0 -2.19,25.79 6.62,46.8 z"
     id="path6"
     style="fill:#fff4c0;stroke:#c1986c;stroke-miterlimit:10" />
  <path
     class="a"
     d="m 236.90149,155.14889 a 11.57,11.57 0 0 1 -5,0.6 c -7.73,-0.75 -13.55,-9.59 -13.85,-9.88 v 0 l -1,7 c -0.35,2.58 -3.39,18.67 -15.12,35.28 a 95,95 0 0 1 -40.2,32.22 c -9.2,4 -18.17,7.8 -29.88,6.42 -10.29,-1.21 -17.25,-5.76 -24.24,-10.32 -6,-3.91 -21.06,-14 -30.72,-33.6 -0.59,-1.2 -11.79,-24.35 -8.88,-41.28 a 35.58,35.58 0 0 0 0.15,-13.19 35,35 0 0 0 -4.71,-12 c 2,-2.85 2.08,-4.51 1.68,-5.52 a 6.29,6.29 0 0 1 -0.91,-3 8.24,8.24 0 0 1 0.28,-1.54 c 0.22,-1 0.4,-2 0.63,-2.95 a 50.64,50.64 0 0 0 0.91,-6.000004 15.8,15.8 0 0 1 -0.38,-5.39 10,10 0 0 1 0.66,-2.36 c 9.06,-23.609996 48,-49.419996 95.43,-47.329996 41.83,1.85 80.89,25 82,45.309996 0.74,13.250004 -14.8,23.300004 -6.44,37.780004 3.09,5.33 8.56,9.81 7.84,17.5 -0.03,1.1 -0.87,9.35 -8.25,12.25 z"
     id="path8"
     style="fill:#fff4c0;stroke:#c1986c;stroke-miterlimit:10" />
  <path
     class="b"
     d="m 128.98149,142.89889 c -7.45,1.25 -11.84,7.24 -11,12.08 0.76,4.42 5.68,6.67 6.25,6.92 a 15.62,15.62 0 0 0 8.56,0.14 14.88,14.88 0 0 0 4.21,-1.9"
     id="path10"
     style="fill:none;stroke:#463416;stroke-miterlimit:10" />
  <path
     class="c"
     d="m 107.04149,94.148886 a 30.78,30.78 0 0 0 -29.69,15.940004 l -0.76,0.72 c 0.1,-0.88 1.4,-11.360004 11.27,-17.060004 a 23.64,23.64 0 0 1 16.7,-2.55 z"
     id="path12"
     style="fill:#71481e;stroke:#463416;stroke-miterlimit:10" />
  <path
     class="c"
     d="m 195.18149,115.28889 c -1,-3.38 -3.79,-11.28 -11.13,-16.000004 -7.83,-5 -16.21,-3.39 -19.4,-2.58 l 3.2,-5.71 c 3.13,-0.35 12.54,-0.88 19.81,7.07 5.31,5.850004 6.95,13.440004 7.52,17.220004 z"
     id="path14"
     style="fill:#71481e;stroke:#463416;stroke-miterlimit:10" />
  <path
     class="d"
     d="m 160.97149,41.36889 c -3.41,1.88 -5.41,1.14 -14.54,1.82 -0.83,0.06 -1.72,0.14 -2.68,0.23 -0.96,0.09 -2.07,0.18 -3.13,0.32 -1.06,0.14 -2.14,0.34 -3.23,0.54 -7.54,4.31 -16.66,5.06 -24.26,8.43 a 30.4,30.4 0 0 0 -3.16,1.63 c -9.35,10.47 -17.35,19.32 -31.35,21.53 -1,1.11 -1,3.32 -1.85,4.14 -0.46,1.28 -0.92,2.569996 -1.37,3.889996 a 80.92,80.92 0 0 1 -1.89,9.42 c -0.4,1.53 -0.83,3 -1.3,4.54 -3.59,6.770004 -4.59,15.610004 -8.59,22.250004 -10,-8.85 -9,-26.540004 -11.87,-40 0.22,-1.64 0.49,-3.28 0.8,-4.89 3,-6.32 5,-13.34 7.29,-20.18 0.45,-1.36 0.91,-2.72 1.39,-4.06 4.39,-16 20.39,-20.46 33.74,-23.7 1.15,-0.74 2.3,-1.51 3.44,-2.29 4.57,-3.13 9.08,-6.54 13.66,-10.17 q 1.74,-1.3 3.51,-2.43 c 10.65,-6.7999996 22.41,-9.2099996 34.75,-6.4499996 1.59,0 3.13,0 4.62,0.13 5.92,0.47 10.86,2.22 13.74,5.9199996 5.98,7.7 1.31,24.25 -7.72,29.38 z"
     id="path16"
     style="fill:#7f4817;stroke:#463416;stroke-miterlimit:10" />
  <path
     class="e"
     d="m 118.12149,18.87889 c -4.5,1.42 -9.5,1.42 -12.25,6 a 30.45,30.45 0 0 0 -2.42,4 c -0.61,1.16 -1.17,2.34 -1.71,3.56 -2.57,6.27 -4.71,13 -5.22,19.8 a 40.41,40.41 0 0 0 -0.1,4.12 c -0.8,20.5 21.2,15 31.6,24.92 1.23,0.659996 2.46,1.289996 3.66,1.929996 1.2,0.64 2.55,1.11 3.65,1.55 3.33,1.34 5.48,2 5.48,2 a 30.76,30.76 0 0 1 -3.87,-3 19.94,19.94 0 0 1 -2.81,-2.869996 16.4,16.4 0 0 1 -2,-3.09 c -2.54,-6.55 0.46,-17.65 7.1,-19.26 a 8.49,8.49 0 0 1 3.67,-0.15 11,11 0 0 1 4.05,1.69 l 3.77,1.18 c 8.74,2.73 17.07,5.22 26.87,4.44 1.5,0 2.75,1.11 4.16,2.26 16.84,1.07 16.84,24.359996 29.51,33.38 1,0.85 1.94,1.7 2.93,2.54 2,1.67 4,3.32 6.15,5 q 1,2.09 1.9,4.23 a 89,89 0 0 1 6.55,27 57.09,57.09 0 0 0 9.08,-6.36 c 0.7,-0.6 1.39,-1.22 2.06,-1.85 9.14,-6.39 16.63,-15.39 19.97,-26.55 0.42,-1.4 0.77,-2.83 1.06,-4.29 -2.34,-15.310004 -3.34,-29.73 -8,-44.5 -0.59,-1.19 -1.21,-2.37 -1.82,-3.55 a 40.24,40.24 0 0 0 -2.15,-3.88 23.45,23.45 0 0 0 -9.09,-8.68 c -1.36,-0.6 -2.71,-1.15 -4,-1.71 -6.59,-2.79 -12.38,-5.82 -14.25,-16.22 -1,-3.33 -3,-4.44 -6.17,-4.79 -1.37,-0.32 -2.74,-0.65 -4.1,-1 a 102.09,102.09 0 0 1 -30.4,-12.8299996 c -1.32,-0.48 -2.63,-0.91 -3.94,-1.31 -9.16,-2.75999997 -18.18,-3.37999997 -27,1.8 a 22.43,22.43 0 0 0 -4.09,0 c -9.08,0.85 -15.48,9.8299996 -23.78,13.6999996 -1.38,0.27 -2.71,0.54 -4.05,0.79 z"
     id="path18"
     style="fill:#894915;stroke:#463416;stroke-miterlimit:10" />
  <path
     class="f"
     d="m 125.40149,128.56889 c 0,8.06 -9.41,13.64 -17.4,14.58 -11.45,1.36 -24.41,-6.27 -24.16,-15 0.25,-8.55 13,-15.52 24.16,-14.14 7.95,0.97 17.4,6.5 17.4,14.56 z"
     id="path20"
     style="fill:#ffffff" />
  <ellipse
     class="g"
     cx="105.69149"
     cy="124.8689"
     rx="12.2"
     ry="11.86"
     id="ellipse22"
     style="fill:#5f3a16" />
  <path
     class="h"
     d="m 124.85149,126.39889 a 20.57,20.57 0 0 0 -4.23,-6.62 c -6.28,-6.3 -17.75,-6.7 -25.86,-2.76 a 18.88,18.88 0 0 0 -7.91,6.62 20.93,20.93 0 0 0 -2.92,9.2 c -0.16,0 -0.69,-6.4 3.11,-11.73 a 17.51,17.51 0 0 1 7.83,-5.88 c 7.45,-3.25 18,-3.19 24.45,2.65 a 22,22 0 0 1 5.53,8.52 z"
     id="path24"
     style="fill:#513405" />
  <path
     class="i"
     d="m 104.94149,167.29889 a 17.34,17.34 0 0 0 -5.15,3.85 c -0.83,1 -0.64,2.18 -1,3.37"
     id="path26"
     style="fill:none;stroke:#69441a;stroke-miterlimit:10" />
  <path
     class="i"
     d="m 167.29149,167.14889 a 13.19,13.19 0 0 1 2.51,1.59 7.21,7.21 0 0 1 2,5.19"
     id="path28"
     style="fill:none;stroke:#69441a;stroke-miterlimit:10" />
  <path
     class="j"
     d="m 122.91149,210.27889 a 23.33,23.33 0 0 1 19.62,-0.52 v 0.1 a 41,41 0 0 0 -19.6,0.42 z"
     id="path30"
     style="fill:#69441a" />
  <path
     class="k"
     d="m 156.67149,180.38889 a 29.33,29.33 0 0 1 -8.76,4.51 44.28,44.28 0 0 1 -15.61,1.25 c -10.13,-0.62 -16.74,-2.66 -24.68,-8.2 -2.39,-1.66 -3.11,-4.46 -5,-6.46 -0.33,-0.36 -0.49,-0.29 -0.73,-0.55 a 40.24,40.24 0 0 0 5.69,12 c 2.18,3.12 6.26,9 13.95,12.45 a 31.19,31.19 0 0 0 20.16,1.43 c 18.33,-4.72 24.64,-25.11 25,-26.43 l -0.07,-0.07 0.07,0.07 c 0.19,0.12 -3.08,5.34 -10.02,10 z"
     id="path32"
     style="fill:#75200c;stroke:#69441a;stroke-miterlimit:10" />
  <path
     class="l"
     d="m 141.48149,187.94889 a 40.35,40.35 0 0 0 18.72,-9.6 37.45,37.45 0 0 0 6.36,-7.84 86.09,86.09 0 0 1 -25.81,8.17 58.62,58.62 0 0 1 -11.77,0.81 55,55 0 0 1 -26.44,-8.26 29.24,29.24 0 0 0 3.85,6.21 30.25,30.25 0 0 0 11.43,8.56 c 10.29,4.71 20.18,2.7 23.66,1.95 z"
     id="path34"
     style="fill:#ffffff;stroke:#69441a;stroke-miterlimit:10" />
  <path
     class="m"
     d="m 131.30149,180.08889 q -0.11,4.8 -0.14,9.6"
     id="path36"
     style="fill:none;stroke:#603913;stroke-width:0.75px;stroke-miterlimit:10" />
  <path
     class="n"
     d="m 181.56149,501.10889 c -5.13,-22.77 -8.63,-55.34 3.14,-90 3.87,-11.4 8.3,-17.69 10.53,-24.12 17.46,-50.2 6.69,-99.56 -2.5,-128 10.17,4.47 20.69,9.58 31.42,15.45 q 4.4,2.4 8.61,4.85 1.5,30.14 2.45,61.3 0.86,28 1.2,55.2 c 0,0.11 -2.44,19.35 0.07,32.73 0.55,2.94 1.34,6.12 2.33,12.39 1.13,7.19 2.12,18 2.39,20.78 a 192.37,192.37 0 0 0 3.17,20.73 l -38.2,23.29 z"
     id="path38"
     style="fill:#ffa300;stroke:#9fd4ad;stroke-miterlimit:10" />
  <path
     class="o"
     d="m 244.34149,482.41889 -20.91,12 v 0 c 0,0 -2,-60.94 -2.69,-102 -0.47,-27.86 -0.72,-68.75 0.63,-119.5 l 11.36,6.4 c 0.2,6.21 0.52,15.58 1,27 2.06,47.94 3.63,50.23 4.56,79.44 1.09,34.07 -0.69,42.51 2.4,70.56 1.21,10.87 2.6,19.9 3.65,26.1 z"
     id="path40"
     style="fill:#f7b64d;stroke:#9fd4ad;stroke-miterlimit:10" />
  <path
     class="f"
     d="m 146.61149,127.28889 c 0,8.06 9.41,13.64 17.4,14.59 11.45,1.35 24.41,-6.27 24.16,-15 -0.25,-8.54 -13,-15.52 -24.16,-14.14 -7.95,0.96 -17.4,6.48 -17.4,14.55 z"
     id="path42"
     style="fill:#ffffff" />
  <ellipse
     class="g"
     cx="168.16148"
     cy="124.3689"
     rx="12.2"
     ry="11.86"
     id="ellipse44"
     style="fill:#5f3a16" />
  <path
     class="h"
     d="m 147.17149,125.11889 a 20.34,20.34 0 0 1 4.22,-6.61 c 6.28,-6.31 17.75,-6.71 25.86,-2.76 a 18.83,18.83 0 0 1 7.91,6.61 21.18,21.18 0 0 1 2.93,9.2 c 0.16,0 0.68,-6.4 -3.12,-11.73 a 17.51,17.51 0 0 0 -7.83,-5.88 c -7.44,-3.24 -18,-3.19 -24.45,2.65 a 21.72,21.72 0 0 0 -5.52,8.52 z"
     id="path46"
     style="fill:#513405" />
  <path
     class="p"
     d="m 53.35149,777.70889 a 38.25,38.25 0 0 1 0.18,-11.4 34.31,34.31 0 0 1 1.85,-6.74 c 0.93,-2.38 7.08,-17.51 20.33,-21.65 a 27.07,27.07 0 0 1 20.33,3.2 c 0.82,0.49 7,4.37 7,4.37 v 0 c 0,0 23.68,-10 23.06,-14.67 -0.22,-1.64 -3.26,-1.34 -3.54,-3.44 -0.28,-2.1 3.38,-3.37 8.4,-10.07 a 40.51,40.51 0 0 1 5.45,-5.95 c 5.83,-4.65 15.21,-7.63 21.53,-2 2.17,2 3.21,4.3 4.85,7.93 2.45,5.46 2.85,9.32 4.58,18.89 2.84,15.89 3.44,14.66 3.61,19.58 0.21,6.72 0.48,15.17 -3.54,19.83 -3.13,3.68 -9.22,3.3 -21.41,2.74 a 58.94,58.94 0 0 0 -8.61,-0.15 50.18,50.18 0 0 0 -11.07,2 c -4.97,1.44 -22.16,1.77 -73,-2.47 z"
     id="path48"
     style="fill:#6d9b15;stroke:#c1986c;stroke-miterlimit:10" />
  <path
     class="q"
     d="m 167.21149,775.10889 c 0,0 -0.4,1.4 -0.69,2.29 -0.22,0.68 -0.56,1.64 -1,2.81 -1.25,0.32 -2.86,0.67 -4.76,1 -2.1,0.34 -4,0.54 -6.53,0.71 0,0 -4.26,0.3 -14,0.43 a 4.5,4.5 0 0 0 -1.79,-4.81 3.87,3.87 0 0 0 -2.24,-0.42 c -2.07,0.24 -3.88,2.21 -4.64,4.95 0,0 -35.49,1.44 -55.12,-0.15 -3.82,-0.3 -7.21,-0.74 -13.41,-1.27 -1.87,-0.15 -5.64,-0.46 -10.63,-1.27 v 0 c -0.18,-0.89 -0.74,-3.37 0.44,-4.45 a 2.46,2.46 0 0 1 1.57,-0.57 c 8.22,1 15.23,1.66 20.56,2 4,0.3 17.4,1.18 35.9,1 6.3,-0.07 4.08,-0.17 16.1,-0.42 16.34,-0.34 20.22,-0.15 28.75,-0.85 2.75,-0.21 11.49,-0.98 11.49,-0.98 z"
     id="path50"
     style="fill:#b76c13;stroke:#c1986c;stroke-miterlimit:10" />
  <line
     class="r"
     x1="116.75149"
     y1="726.03894"
     x2="126.3215"
     y2="746.8689"
     id="line52"
     style="fill:none;stroke:#f7ec32;stroke-miterlimit:10" />
  <line
     class="r"
     x1="110.88149"
     y1="735.16888"
     x2="117.99148"
     y2="753.41888"
     id="line54"
     style="fill:none;stroke:#f7ec32;stroke-miterlimit:10" />
  <line
     class="r"
     x1="101.40148"
     y1="744.29889"
     x2="107.33147"
     y2="761.9389"
     id="line56"
     style="fill:none;stroke:#f7ec32;stroke-miterlimit:10" />
  <line
     class="r"
     x1="106.41149"
     y1="740.52893"
     x2="113.06149"
     y2="757.97888"
     id="line58"
     style="fill:none;stroke:#f7ec32;stroke-miterlimit:10" />
  <path
     class="s"
     d="m 117.92149,792.88889 c -3.63,-14.63 0,-30.49 8.5,-38.5 6.82,-6.44 15.9,-7 23.62,-1.62 a 17.3,17.3 0 0 1 6.37,-0.71 c 1.33,0.11 1.76,0.31 2.37,0.37 3.68,0.36 6.49,-5.34 13.38,-15.52 2,-3 4.87,-7.67 14.79,-22.78 3.5,-5.33 4.16,-6.28 5.44,-7.59 5.82,-5.95 15.18,-9.75 21.47,-2.54 2.18,2.49 3.2,5.5 4.84,10.13 2.46,7 2.84,11.89 4.55,24.1 2.85,20.29 3.41,18.72 3.6,25 0.21,8.58 0.49,19.37 -3.42,25.3 -3.13,4.69 -9.2,4.28 -21.35,3.49 a 46.54,46.54 0 0 0 -8.59,-0.19 40.91,40.91 0 0 0 -11,2.53 c -3.36,1.22 -12.11,1.82 -32.58,0.48 -8.72,-0.57 -10.83,1.39 -17.78,0.79 a 68.78,68.78 0 0 1 -14.21,-2.74 z"
     id="path60"
     style="fill:#5e8e11;stroke:#c1986c;stroke-miterlimit:10" />
  <path
     class="q"
     d="m 223.32149,791.30889 c 0,0 -0.39,1.33 -0.67,2.15 -0.22,0.65 -0.56,1.57 -1,2.67 -1.56,0.37 -3.13,0.67 -4.73,0.91 -2.13,0.32 -4.29,0.55 -6.46,0.68 0,0 -4.21,0.28 -13.85,0.4 a 4.12,4.12 0 0 0 -1.76,-4.54 3.9,3.9 0 0 0 -2.22,-0.4 c -2.05,0.22 -3.84,2.08 -4.57,4.67 0,0 -22.47,0.87 -41.4,0.45 -4.73,-0.1 -9.19,0.14 -13.18,-0.12 -8.66,-0.57 -17.33,-1.33 -17.3,-2 a 4.14,4.14 0 0 1 0.79,-4.64 7.76,7.76 0 0 0 0.84,-1.24 21.21,21.21 0 0 0 4.34,2.45 c 6.28,2.66 13.1,2.38 23,1.53 a 82.26,82.26 0 0 1 9.76,-0.81 c 3.87,0.05 8.13,0.07 12.7,0 6.22,-0.07 4,-0.16 15.92,-0.4 20.91,-0.43 24.77,-0.57 28.44,-0.8 2.59,-0.19 6.49,-0.47 11.35,-0.96 z"
     id="path62"
     style="fill:#b76c13;stroke:#c1986c;stroke-miterlimit:10" />
  <line
     class="r"
     x1="179.72148"
     y1="725.2489"
     x2="190.30147"
     y2="751.82892"
     id="line64"
     style="fill:none;stroke:#f7ec32;stroke-miterlimit:10" />
  <line
     class="r"
     x1="173.22148"
     y1="736.90894"
     x2="181.08147"
     y2="760.1889"
     id="line66"
     style="fill:none;stroke:#f7ec32;stroke-miterlimit:10" />
  <line
     class="r"
     x1="162.74147"
     y1="748.53894"
     x2="169.30147"
     y2="771.07892"
     id="line68"
     style="fill:none;stroke:#f7ec32;stroke-miterlimit:10" />
  <line
     class="r"
     x1="168.28148"
     y1="743.72888"
     x2="175.64146"
     y2="766.00891"
     id="line70"
     style="fill:none;stroke:#f7ec32;stroke-miterlimit:10" />
  <path
     class="t"
     d="m 18.84149,592.85889 a 4.55,4.55 0 0 1 2.59,-1.08 l 2.37,0.15 17.69,-6.4 q 9.24,-1.74 18.51,-3.55 24.09,-4.66 47.79,-9.52 -9.84,-30.16 -19.65,-60.38 c -30.87,19.83 -49.1,23.22 -60.33,22 l -3,-0.36 -17.25,-2.07 a 14,14 0 0 0 -1.94,0.17 c -1.89,0.28 -3.6,0.54 -4.52,1.81 a 3.88,3.88 0 0 0 -0.59999996,2 q 9.17999996,28.62 18.33999996,57.23 z"
     id="path72"
     style="fill:#f6c17a;stroke:#faaf41;stroke-miterlimit:10" />
  <polygon
     class="u"
     points="187.19,645.43 278.32,624.3 258.64,563.92 167.51,585.05 "
     id="polygon74"
     style="fill:#af20d1"
     transform="translate(-163.43851,-53.49111)" />
  <path
     class="v"
     d="m 146.92149,530.50889 a 294.67,294.67 0 0 0 -10.69,31.23 c -4.19,16.2 -14.2,40.22 -13.67,59 0,1.6 -0.11,4.61 -1.54,6.52 -0.39,0.53 -2.44,3 -3.54,3.35 3.06,1.78 4.78,1.34 8.18,3.9 0.81,0.6 -0.51,-1.94 2.41,1.8 1.71,2.2 0.26,-0.71 0.51,-0.9 0.25,-0.19 3.72,4.79 4.73,6.4 5.31,8.4 23.05,46.12 36.21,74.51 -3.65,4.68 -13.19,15.63 -28.65,20 -21.32,6 -38.3,-5.07 -42.15,-7.72 0.68,0.58 1,0.82 1.11,0.74 0.11,-0.08 -0.67,-1.22 -2.33,-3.26 1,-1.18 -16.63,-63 -25.18,-87.56 a 4.35,4.35 0 0 0 -1.19,-1.83 c -0.2,-0.13 -0.68,-0.5 -0.77,-0.55 -1.29,-0.75 -2.87,-3.21 -3.47,-4 -1.32,-1.74 -2.67,-2.65 -3.25,-4.28 -0.44,-1.12 -0.16,-1.33 -0.08,-2.76 0.09,-1.7 3.66,-39.48 10.24,-70.31 11.36,-53.28 36.09,-100.93 36.09,-100.93 h 0.13 c 20.53,-4.07 31.89,2.6 49.84,4.11 18.68,1.58 24.21,-4.14 26.4,0.05 4.44,8.49 -20.87,27.05 -39.34,72.49 z"
     id="path76"
     style="fill:#6a7383;stroke:#1e75bb;stroke-miterlimit:10" />
  <path
     class="w"
     d="m 178.12149,718.18889 a 138.19,138.19 0 0 1 -38.8,20.44 126.66,126.66 0 0 1 -42.47,6.53 l -2.7,-35.42 a 71.92,71.92 0 0 0 38.64,-0.1 c 19.31,-5.44 32,-17.55 37.64,-23.71 z"
     id="path78"
     style="fill:#8692a3;stroke:#1e75bb;stroke-miterlimit:10" />
  <path
     class="x"
     d="m 145.81149,513.77889 c 0,0 -2.68,-27 -2.26,-41.66 a 65.43,65.43 0 0 1 1.1,-10.15 61.94,61.94 0 0 1 2.09,-8 38.52,38.52 0 0 0 10.17,-0.61 39.93,39.93 0 0 0 8.95,-2.85 c 2.8,1.46 28.43,-8.28 34.89,-5.85 5.51,2.08 12.36,39.82 12.5,47.49 0,8.23 -0.44,10.6 -0.54,18.15 0,2.41 0.08,9.79 0.21,13.29 0.71,18.33 5.42,60.61 5.93,72.32 0.28,6 0.45,8.83 0.55,10.35 0.07,1.06 0.12,1.85 0.13,2 0.65,10.1 4.31,114.82 4.31,114.82 v 0 c 0,0 -15.28,10.36 -21.36,13.27 -9,4.33 -23.82,4.77 -49.17,-13.57 6.52,-59.48 7.06,-80.79 5.61,-86.53 -0.25,-1 -2.64,-6.11 -0.22,-10.46 1,-1.76 2.6,-5.42 4.14,-7.22 -1.5,-1.6 -3,-3 -4.55,-4.56 a 4.52,4.52 0 0 1 2.48,-2.93 c 0.78,-0.43 2.32,0.26 2.79,-0.46 1.31,-2.09 -2.39,-4.77 -3.95,-6.51 -1.46,-5 -6,-18.63 -7.06,-21.56 -1.06,-2.93 -0.28,-0.89 -0.28,-0.89 -0.69,-4.46 -1.66,-11.06 -2.62,-19.09 -2.82,-23.51 -1.48,-25.01 -3.84,-48.79 z"
     id="path80"
     style="fill:#717f96;stroke:#1e75bb;stroke-miterlimit:10" />
  <path
     class="w"
     d="m 229.16149,741.44889 a 126,126 0 0 1 -84.42,0 l 5.52,-35 a 75.41,75.41 0 0 0 37.23,12.24 74.6,74.6 0 0 0 41.67,-10.8 z"
     id="path82"
     style="fill:#8692a3;stroke:#1e75bb;stroke-miterlimit:10" />
  <path
     class="y"
     d="m 213.25149,492.14889 a 38.89,38.89 0 0 1 -26.1,-5.64 c -13.29,-8.55 -16.29,-22.31 -16.8,-24.81"
     id="path84"
     style="fill:none;stroke:#f15a29;stroke-miterlimit:10" />
  <path
     class="a"
     d="m 103.56149,347.87889 c 0,0 0,-1.34 0,-0.89 -9,-3.1 -18.32,-2.94 -26.44,-8.92 0.54,17.34 1.73,34.6 -1.67,51.89 -0.08,0.39 -0.73,2.55 -1,3.64 -0.52,2.06 -3.9,14.61 -4.07,15.61 -2.86,16.95 -2,49.91 -14.68,76.06 0,0 -2.34,4.84 -30.17,38.06 v 0 a 15.08,15.08 0 0 0 0.25,1.76 c 0.54,1.56 6.36,-0.24 13.13,-1.08 3.43,-0.43 5.37,-0.39 8.19,-1.88 a 17.25,17.25 0 0 0 3.69,-2.64 34.66,34.66 0 0 1 -3.08,5.52 c -3.15,4.69 -5.77,6.24 -5.82,9.51 0,0.52 -0.75,2 0.45,3.39 0.79,0.9 0.17,4.15 2.11,3.62 10.64,-2.93 29.69,-46 35.08,-60.37 2,-5.43 5.92,-20.57 10.3,-33.67 3.48,-10.43 13,-38.63 13.13,-54.55 a 39.75,39.75 0 0 0 0.23,-6.4 c 0,0 0.29,-33.6 0.37,-38.66 z"
     id="path86"
     style="fill:#fff4c0;stroke:#c1986c;stroke-miterlimit:10" />
  <path
     class="z"
     d="m 93.43149,276.76889 c -4,-0.29 -7.67,9.37 -9.68,14.7 -2.47,6.47 -5.33,16.85 -3.78,42 0,0.53 0.08,1.12 0.11,1.66 7.66,6.26 17.45,4.05 26.79,7.21 -0.72,-11.29 -4.26,-64.89 -13.44,-65.57 z"
     id="path88"
     style="fill:#8bfc7c;stroke:#a7a8ab;stroke-miterlimit:10" />
  <path
     class="aa"
     d="m 100.93149,353.62889 a 39,39 0 0 1 -30.22,-11.73 q 2.4,-7.71 4.84,-15.41 a 25.48,25.48 0 0 0 11.18,8.94 c 9.85,4 18.79,0 20.48,-0.84 z"
     id="path90"
     style="fill:#b5f4d4;stroke:#a7a8ab;stroke-miterlimit:10" />
  <path
     class="z"
     d="m 209.95149,286.56889 q -0.06,-7.85 -0.11,-15.66 c -2.74,-0.93 -5.51,-1.89 -8.29,-2.87 -3.47,-1.22 -6.84,-2.4 -8.42,-3 -3.67,-1.42 -9,-4.15 -15.38,-9.9 2.1,25.12 -15.12,44.62 -31.95,43.71 -13.26,-0.71 -26,-14.08 -28.72,-32.69 q -2.11,0.93 -4.26,1.83 -11,4.63 -21.62,8.33 a 82.57,82.57 0 0 0 -2.65,15 c -1.38,16.58 3,25.34 6.57,46.75 a 283.71,283.71 0 0 1 3.16,29.94 c 0.85,16.46 7.66,68.57 11.38,71 8.18,11.82 17.13,16.37 22,18.27 21.92,8.56 47.55,-3.1 58.55,-8.1 h 0.08 a 99.38,99.38 0 0 0 7.07,-24.23 c 1.09,-7.14 0.94,-11.61 2.61,-27 0.67,-6.14 1.23,-10.36 1.47,-12.22 0.72,-5.72 3.06,-34.15 3.06,-33.82 a 4,4 0 0 1 0.11,-1 c -0.46,-0.03 3.46,-39.49 5.34,-64.34 z"
     id="path92"
     style="fill:#8bfc7c;stroke:#a7a8ab;stroke-miterlimit:10" />
  <path
     class="z"
     d="m 209.80149,271.19889 c -1.32,-0.43 -15.22,14.15 -6.78,75.67 1.27,0 2.53,0.08 3.8,0.08 a 4.15,4.15 0 0 0 -0.19,-0.93 4.15,4.15 0 0 1 0.19,0.93 h 0.1 a 3.14,3.14 0 0 1 1.66,0.45 c 9.48,0.2 19.13,0.93 28.55,-0.15 -13.07,-48.18 -11.57,-70.91 -27.33,-76.05 z"
     id="path94"
     style="fill:#8bfc7c;stroke:#a7a8ab;stroke-miterlimit:10" />
  <path
     class="ab"
     d="m 148.38149,300.34889 a 234.26,234.26 0 0 0 -7.72,59.51 c 0,17.63 2.19,27.38 2.38,51.32 a 422.11,422.11 0 0 1 -1.85,44"
     id="path96"
     style="fill:none;stroke:#a7a8ab;stroke-miterlimit:10" />
  <path
     class="o"
     d="m 118.11149,255.12889 a 735.13,735.13 0 0 0 -8.55,73.76 v 0.07 c -1.94,30 -3.19,61.85 -2.4,98.87 0,0.82 0.06,2.61 0.12,4.92 a 98.46,98.46 0 0 1 -10.85,-54.86 c 0,0 0.06,-2.32 0.2,-7 0.51,-17.35 0.21,-36.24 0.21,-36.24 -0.2,-11.86 -0.72,-27 -2,-44.89 l 6.3,-25.62 c 0,0 4.73,-3 8.63,-5.11 a 80.53,80.53 0 0 1 8.34,-3.9 z"
     id="path98"
     style="fill:#f7b64d;stroke:#9fd4ad;stroke-miterlimit:10" />
  <path
     class="o"
     d="m 203.01149,436.21889 -1.56,-0.12 c -0.76,0 -2.09,-0.2 -4.6,-0.6 -1.05,-2.32 -2.51,-5.64 -4.14,-9.71 a 165.24,165.24 0 0 1 -7.39,-21.46 c -2.39,-9.78 -0.52,-12 -2.4,-29 -1.18,-10.81 -2.37,-18.56 -2.91,-22.46 -2.9,-20.93 -4,-52.69 4.53,-99.48 a 19.77,19.77 0 0 1 12.84,4.56 c -6.23,39.26 -4.53,70 -1.57,91.54 4.91,59.02 7.2,86.73 7.2,86.73 z"
     id="path100"
     style="fill:#f7b64d;stroke:#9fd4ad;stroke-miterlimit:10" />
  <path
     class="a"
     d="m 252.73149,451.32889 c 3.59,-15.49 1,-32.47 -1.24,-44.64 -2.24,-12.17 -4.57,-25 -9.82,-41.82 -2.88,-9.24 -5.72,-16.81 -7.89,-22.26 -3.18,4.24 -5.7,5 -7.36,4.94 -4.33,-0.11 -6.15,-5.64 -11.67,-6 -1.13,-0.08 -3.75,-0.27 -5.32,1.28 -4.44,4.42 3.24,19.42 12.07,51.9 2.82,10.35 7,27.15 7.07,27.34 0.07,0.19 5.5,4.15 9.56,8 a 66.62,66.62 0 0 1 7.66,8.7 79,79 0 0 0 -6.16,-7.2 c -9.13,-9.42 -15,-10.57 -22.8,-20.34 a 62.72,62.72 0 0 1 -4,-5.76 c -5.16,-8 -11.15,-26.41 -12.48,-25.86 0,0 -1.08,0.46 -0.85,11.27 a 56.69,56.69 0 0 1 2.31,5.82 c 0.41,1.22 0.8,2.64 0.79,2.6 a 104.28,104.28 0 0 0 -5.04,-12.91 q -1.15,-2.46 -2.36,-4.68 a 34.23,34.23 0 0 0 -4.05,-5.07 c -2,-2.1 -2.69,-2.24 -3.14,-2.21 -2.23,0.12 -3.52,4.51 -3.62,4.84 1,1.24 2.38,3.08 3.95,5.43 a 94.49,94.49 0 0 1 5.18,8.71 45.68,45.68 0 0 0 -5.18,-8.71 44.42,44.42 0 0 0 -5.28,-5.9 3.75,3.75 0 0 0 -2.11,0.82 5.83,5.83 0 0 0 -1.83,4.3 c 1,1.93 2.35,4.54 4.16,7.54 2.27,3.75 4.45,6.86 4.46,6.85 0.01,-0.01 -0.6,-0.92 -1.85,-2.87 -1.25,-1.95 -2.38,-3.65 -3.54,-5.52 -1.47,-2.38 -2.06,-3.49 -2.89,-3.4 a 1.74,1.74 0 0 0 -1.13,0.91 12.93,12.93 0 0 0 -0.67,3.77 15.79,15.79 0 0 0 3.6,9.88 l 1.95,2.35 -0.58,-0.69 c -0.43,-0.49 -0.73,-0.84 -0.78,-0.91 -0.78,-0.9 -2.34,-3.2 -3.74,-4.78 a 1,1 0 0 0 -0.49,-0.34 c -0.72,-0.17 -1.55,0.86 -1.87,1.51 -0.54,1.07 -0.43,2.53 0.56,5.2 a 28.61,28.61 0 0 0 3.49,6.76 c 1.84,2.68 4.33,6.13 7.42,10 a 187.76,187.76 0 0 0 15.84,17.45 c 11.75,11.58 17.62,17.36 25.26,20.64 4.61,2 14.32,6.15 20.34,0.72 a 14.73,14.73 0 0 0 4.07,-7.66 z"
     id="path102"
     style="fill:#fff4c0;stroke:#c1986c;stroke-miterlimit:10" />
  <path
     class="aa"
     d="m 238.96149,349.83889 a 181.35,181.35 0 0 1 -19.4,2.84 c -5.47,0.49 -10.62,0.7 -15.33,0.73 l -2.34,-16.63 a 65,65 0 0 0 15.13,0.84 66.63,66.63 0 0 0 22.29,-5.31 q -0.19,8.76 -0.35,17.53 z"
     id="path104"
     style="fill:#b5f4d4;stroke:#a7a8ab;stroke-miterlimit:10" />
  <path
     class="aa"
     d="m 123.76149,266.70889 c -0.26,-3.82 -0.32,-6.08 -0.29,-8.34 0,-3.1 0.27,-5.69 0.47,-7.56 -1.48,0.81 -13.67,7.65 -15,14.57 a 33.53,33.53 0 0 0 -0.57,4 55.87,55.87 0 0 0 -0.25,8.46 c 0.3,8.34 -7.92,21.31 -6.85,22 0.88,0.55 5,-9.16 11.84,-9.61 4.33,-0.29 6.32,3.37 12.19,6.4 4.06,2.1 10.23,4 19.4,3.09 a 31.77,31.77 0 0 1 -11.92,-7.57 c -1.51,-1.53 -6.75,-6.12 -7.91,-13.57 -0.31,-1.82 -0.79,-7.21 -1.11,-11.87 z"
     id="path106"
     style="fill:#b5f4d4;stroke:#a7a8ab;stroke-miterlimit:10" />
  <path
     class="aa"
     d="m 173.08149,280.14889 a 25.75,25.75 0 0 0 4.34,-13.64 c 0,-2.42 -0.6,-5.27 -1.89,-11 -0.75,-3.33 -1.48,-6.06 -2,-7.92 0,0 6.22,2.17 9.24,6.84 1.42,2.19 1.77,5 2.41,10.66 0.78,6.86 0.22,7.95 0.71,12.49 0.92,8.61 5.93,17 4.65,17.88 -1.28,0.88 -6.58,-8.27 -11.28,-7.17 -3.34,0.78 -3.07,5.93 -6.89,9.37 -2.84,2.57 -8.3,4.49 -19.8,1.39 a 172,172 0 0 0 14.28,-12.46 c 2.98,-2.93 4.63,-4.08 6.23,-6.44 z"
     id="path108"
     style="fill:#b5f4d4;stroke:#a7a8ab;stroke-miterlimit:10" />
  <ellipse
     class="ac"
     cx="149.44148"
     cy="306.63889"
     rx="1.0599999"
     ry="1.08"
     id="ellipse110"
     style="fill:#1e75bb" />
  <ellipse
     class="ac"
     cx="147.70149"
     cy="335.11887"
     rx="1.0599999"
     ry="1.08"
     id="ellipse112"
     style="fill:#1e75bb" />
  <ellipse
     class="ac"
     cx="146.80147"
     cy="440.88889"
     rx="1.0599999"
     ry="1.08"
     id="ellipse114"
     style="fill:#1e75bb" />
  <ellipse
     class="ac"
     cx="147.70149"
     cy="404.35889"
     rx="1.0599999"
     ry="1.08"
     id="ellipse116"
     style="fill:#1e75bb" />
  <ellipse
     class="ac"
     cx="145.74147"
     cy="369.50888"
     rx="1.0599999"
     ry="1.08"
     id="ellipse118"
     style="fill:#1e75bb" />
  <path
     class="ad"
     d="m 200.75149,444.65889 a 100.13,100.13 0 0 1 -93.54,7.62 q 1.23,-6.64 2.45,-13.29 a 48.78,48.78 0 0 0 8.28,4 54.62,54.62 0 0 0 13.32,2.88 c 10.37,1.22 15.56,1.83 21.67,1.32 15.33,-1.27 40.3,-9.3 44.37,-11.06 a 2,2 0 0 1 1.35,-0.14 c 1.91,0.52 2.17,5.03 2.1,8.67 z"
     id="path120"
     style="fill:#8a5f3c;stroke:#221f1f;stroke-miterlimit:10" />
  <path
     class="ae"
     d="m 144.84149,447.33889 10.84,-0.23 a 5.59,5.59 0 0 1 5.62,5.7 5.86,5.86 0 0 1 -5.62,5.92 l -10.84,0.22 a 5.57,5.57 0 0 1 -5.62,-5.69 5.85,5.85 0 0 1 5.62,-5.92 z"
     id="path122"
     style="fill:#c1b59a;stroke:#a87c51;stroke-miterlimit:10" />
</svg>
