<?xml version="1.0" encoding="UTF-8" standalone="no"?>
<svg
   id="Layer_1"
   data-name="Layer 1"
   viewBox="0 0 545.90912 559.63916"
   version="1.1"
   sodipodi:docname="bag_with_mandarins_5.svg"
   width="545.90912"
   height="559.63916"
   inkscape:version="1.2.2 (b0a8486541, 2022-12-01)"
   xmlns:inkscape="http://www.inkscape.org/namespaces/inkscape"
   xmlns:sodipodi="http://sodipodi.sourceforge.net/DTD/sodipodi-0.dtd"
   xmlns="http://www.w3.org/2000/svg"
   xmlns:svg="http://www.w3.org/2000/svg">
  <sodipodi:namedview
     id="namedview148"
     pagecolor="#ffffff"
     bordercolor="#000000"
     borderopacity="0.25"
     inkscape:showpageshadow="2"
     inkscape:pageopacity="0.0"
     inkscape:pagecheckerboard="0"
     inkscape:deskcolor="#d1d1d1"
     showgrid="false"
     inkscape:zoom="0.77685185"
     inkscape:cx="506.53159"
     inkscape:cy="456.97259"
     inkscape:window-width="1920"
     inkscape:window-height="1011"
     inkscape:window-x="0"
     inkscape:window-y="32"
     inkscape:window-maximized="1"
     inkscape:current-layer="Layer_1" />
  <defs
     id="defs4">
    <style
       id="style2">.cls-1{fill:#ae916e;}.cls-2{fill:#91724e;}.cls-11,.cls-3{fill:#644a30;}.cls-4{fill:#ff7800;}.cls-5{fill:#ff9109;}.cls-6{fill:#ffb120;}.cls-7{fill:#e85100;}.cls-8{fill:#006322;}.cls-9{fill:#009047;}.cls-10{fill:#ff6200;}.cls-11{stroke:#644a30;stroke-miterlimit:10;stroke-width:0.78px;}</style>
  </defs>
  <g
     id="layer1"
     transform="translate(-662.01085,-247.81507)">
    <g
       id="g6149">
      <g
         id="g1108">
        <path
           class="cls-1"
           d="m 697.49,623.47 c -0.72,-2.66 -1.37,-5.05 -2,-7.23 -0.34,-17 -0.66,-33.9 -1.45,-50.85 -0.79,-16.95 -1.79,-33.8 -4.43,-50.5 a 136.84,136.84 0 0 0 -0.82,-25.1 7.44,7.44 0 0 0 1,-4.86 c -3.7,-33.36 1.76,-67 -0.5,-100.15 h 0.09 c 9.15,-1.47 18.19,-3.38 27.16,-5.59 2.62,0.16 5.25,0.29 7.87,0.41 22,1 44,0.82 66,0.31 4,-0.09 7.94,-0.19 11.9,-0.34 -9.63,0.37 -0.17,0.22 2.1,0.26 l 8.21,0.13 q 8.16,0.1 16.33,0.15 19.31,0.07 38.58,-0.39 c 23,-0.55 46,-1.92 68.79,-4.64 5.89,-0.7 11.7,-1.37 17.64,-1.57 0.76,0 2.25,0 3.32,0 2,0 1.31,0 0,0 h -3.1 l 4.72,-0.05 h 7.46 q 5.61,0.57 11.24,1 c 22.33,1.47 44.57,0.15 66.59,-2.83 18.78,-2.55 37.6,-6.49 55.24,-13.43 13.22,-5.21 27.71,-13.87 36,-26.54 a 39.78,39.78 0 0 1 1.53,13 c 51.32,71.58 10.46,104.91 30.63,175 5.18,18 7.88,30 9.51,40.74 4.05,26.8 3.91,39 5.84,67.69 4.58,68.27 14.39,78.5 4.31,102.21 -8.11,19 -22.54,31.48 -33,38.8 a 345.14,345.14 0 0 1 -88,27 352.74,352.74 0 0 1 -130.87,-3.08 c -72.08,17.28 -129.18,16.5 -152.63,10.75 -12.36,-3 -35.43,-12.35 -47.32,-19 a 66.36,66.36 0 0 1 -10.64,-7.23 c -4.52,-3.92 -7.33,-7.92 -12.58,-13.77 -5.48,-6.12 -6.36,-12.91 -9.24,-20.25 -11.8,-30.33 12.7,-52.69 -5.48,-120.05 z"
           id="path6"
           style="fill:#ae916e" />
        <path
           class="cls-2"
           d="m 1115.27,357.7 a 31.77,31.77 0 0 0 7.65,-1.5 c -6.25,6.25 -15.5,10.44 -27.81,11.1 11.67,-9.2 18.27,-14.87 20.16,-9.6 z"
           id="path8"
           style="fill:#91724e" />
        <path
           class="cls-2"
           d="m 1132.4,336.45 a 48.51,48.51 0 0 0 3,-4.22 41.4,41.4 0 0 1 1.46,8.65 c 0.41,6.49 3.63,11.6 6.22,16.68 0.59,1.66 -0.07,1.11 1.32,1.55 2.07,1.18 8.36,11.36 7,13.08 -3,1.33 -1.43,-6.37 -3.76,-5.75 -1.4,0.46 -5.13,-7.85 -6.4,-9.25 -7.57,-16.44 -5.06,-5.46 -18.4,-1 a 33.67,33.67 0 0 0 9.56,-19.74 z"
           id="path10"
           style="fill:#91724e" />
        <path
           class="cls-2"
           d="m 1036.14,380 c -6.93,-0.15 -13.51,-0.32 -19.78,-0.51 0.08,0.64 0.14,1.28 0.18,1.93 a 18.52,18.52 0 0 1 -3.11,11 c 37.8,2.13 72,-3.08 83.84,-30.65 -10.8,11.97 -44.15,22.58 -61.13,18.23 z"
           id="path12"
           style="fill:#91724e" />
        <path
           class="cls-2"
           d="m 1017.41,391.11 c 0,-0.69 -1.18,-1.1 -2.52,-1.35 a 17.44,17.44 0 0 1 -0.8,1.55 c 1.73,0.33 3.29,0.34 3.32,-0.2 z"
           id="path14"
           style="fill:#91724e" />
        <path
           class="cls-2"
           d="m 1006.64,591.43 -0.24,1.74 c 2.62,0 5.47,2.12 8,2.65 4.03,0.56 -3.77,-2.9 -7.76,-4.39 z"
           id="path16"
           style="fill:#91724e" />
        <path
           class="cls-2"
           d="m 1017.75,488.93 c 0,0.46 -0.06,0.92 -0.1,1.38 a 53.39,53.39 0 0 0 9.08,3.72 c 4.48,0.71 -6.16,-4.16 -8.98,-5.1 z"
           id="path18"
           style="fill:#91724e" />
        <path
           class="cls-2"
           d="m 1012.84,540.88 -0.15,1.42 a 58.31,58.31 0 0 0 9.19,3.45 c 4.45,0.66 -5.38,-3.59 -9.04,-4.87 z"
           id="path20"
           style="fill:#91724e" />
        <path
           class="cls-2"
           d="m 1162.6,535.09 c -0.09,-0.93 -0.14,-1.9 -0.23,-2.86 0,-0.28 -0.13,-0.73 -0.25,-1.43 -0.42,-2.46 -0.89,-4.9 -1.38,-7.34 -0.94,-4.71 -2,-9.4 -2.91,-14.1 -4.61,-22.47 -7.28,-44.4 -2.84,-67.1 0.34,-1.72 0.71,-3.41 1.11,-5.11 a 173.91,173.91 0 0 1 -6.22,-27.28 c -1.48,-9.45 -2.64,-18.95 -3.81,-28.44 -20.71,0.94 -41.42,0.85 -62.09,0.44 -4,-0.08 -8,-0.17 -11.92,-0.31 9.64,0.34 0.18,0.23 -2.1,0.28 l -8.22,0.17 q -8.17,0.17 -16.35,0.23 -14.43,0.13 -28.84,-0.07 a 17.94,17.94 0 0 1 -0.58,4.64 c 2.22,0 4.23,0.12 4.61,0.9 0,0.76 -0.75,0.75 -1.51,0.67 -3.53,-0.27 7.83,4.26 3.51,0.12 -1.33,-1.95 8.83,1.06 9.9,1.83 1,0.92 5.62,2.74 3,0.44 -0.89,-0.86 -1.51,-1.46 -0.1,-1.27 1.75,0 1.55,2.5 3,2.5 1.45,0 0,3 1.7,3.29 0.58,0.09 1.42,0.45 1.23,0.9 -0.67,1.66 -2.64,-0.2 -3.15,-1.42 -0.51,-1.22 -4.15,-3.39 -5.17,-1.54 -0.29,0.54 0.32,0.84 0.49,0.84 3.17,-0.23 5.44,2.6 0.64,1.45 -1.4,-0.28 -5.21,-2.54 -2.48,-4.23 1.62,-0.8 -3,-1.63 -2.23,0.14 0.77,1.77 -3.34,0.75 -2.53,0.26 3.42,-0.95 -2.43,-3.63 -1.62,-0.88 0.91,2.34 -6.93,-0.75 -6,0.65 2.57,2.75 -2.35,1 -2.63,2.28 0.1,1.4 2.45,-0.47 2.39,1.69 0.2,2.73 6,1.45 5.56,3.16 -0.19,0.53 -1.23,0.65 -1.76,0.51 -1.23,-0.51 -2.63,0.9 -1,1.53 0.34,0.21 1,0.3 0.67,1 -1.86,1.47 -6.29,-1.85 -8.13,-0.1 -0.33,1.77 5.07,0.42 5.93,2.74 0.5,1 0.85,1.53 1.08,0.44 0.23,-1.09 1.24,-1 2,-0.75 1.78,0.52 3.17,0.88 0.48,1.3 -4.11,0.78 6.06,0.63 5.41,4.39 a 2.48,2.48 0 0 0 1.63,2 c 1.38,0.32 3,4.86 0.65,3.94 -0.66,-0.33 -1.06,-0.7 -0.85,-1.44 0.21,-0.74 -0.53,-1.58 -1.22,-2.06 -1.74,-2.21 -3.77,-5.75 -7.31,-4.93 -0.38,0.13 0.86,5.26 1.25,2.83 0.2,-1.39 0.34,-1.26 0.67,-0.44 0.09,1.35 2.94,2.8 0.8,3.62 -2.14,1 1.93,0.69 1.63,2 -0.3,1.31 -2.48,-0.18 -2.7,1.22 0,0.69 0.63,0.91 1.24,1.11 1.56,0.38 1.08,2.8 3.11,2.93 1.38,0.41 1.51,0.14 0.69,-0.74 -1.06,-1.14 -2.79,-7.23 -0.79,-7.26 0.68,0 0.6,0.79 0.6,1.74 0.37,2.27 4.14,3.71 6,5.06 -1,-0.06 -7.23,-3 -5.68,-0.85 1.06,0.8 2.17,6.21 0.23,4.27 -1.94,-1.94 -6.85,-1.31 -8.61,-3.57 -0.55,-1 -0.49,0.24 -0.54,0.54 -0.16,0.9 0.06,3.94 -1.45,3.67 -1.5,-1 1.05,-4.45 -0.39,-5.72 -1.72,0.13 -0.58,4.8 -2.47,5.5 h -0.13 c 0.12,0.48 0.23,1 0.33,1.46 a 1.25,1.25 0 0 0 0.53,-0.49 c 1,-1.77 4.74,3 4.37,-0.24 -0.83,-2.51 6.12,-2.31 4.56,0.26 -1.56,2.57 1.82,1.54 1.07,3.46 -0.3,0.74 0.3,1.37 0.41,1.65 0.11,0.28 -4.89,-1 -10.47,-2 0.07,0.45 0.13,0.91 0.2,1.37 0.1,0.75 0.18,1.51 0.27,2.26 a 1.64,1.64 0 0 1 0.42,1.85 c -0.05,0.19 -0.09,0.37 -0.13,0.54 q 0.28,2.49 0.51,5 c 1.5,2.06 4.43,0.84 1.56,-0.57 -3,-1 0.26,-3.62 2.27,0.51 0.67,2.33 3.51,1.48 5.21,2.79 a 27.94,27.94 0 0 0 4,1.86 c 4.34,0.81 -7.37,-5.12 -8.69,-5.47 3.2,0.53 7.55,1.42 9.64,3.73 1,1 1.85,2 2.72,2 0.87,0 0.49,0.93 0.51,1.58 0,2.48 2.56,1.73 2.62,3 -0.62,1.78 -2.87,-0.27 -3.43,-1.49 -0.56,-1.22 -4.68,-3.68 -5.68,-1.66 -0.29,0.59 0.41,0.9 0.59,0.9 0.86,0 3.87,0.42 3.8,1.37 -1.14,1.9 -9.72,-1.81 -6,-4.36 1.75,-0.84 -3.4,-1.76 -2.42,0.16 0.98,1.92 -3.63,0.83 -2.77,0.31 2,-0.63 1,-1.93 -0.47,-2.13 -0.23,0 -1.52,0 -3.27,0 0.42,5.15 0.68,10.31 0.81,15.47 1.62,0.48 2.59,0.76 0,1.2 0,0.26 0,0.52 0,0.78 2.07,0.45 6.21,1.21 5.78,3.7 0,1 0.84,1.64 1.76,2.08 1.46,0.29 3.42,5 0.81,4.07 -1.82,-0.65 -0.24,-2.61 -2.34,-3.58 -1.62,-2 -3.28,-4.66 -6,-5.05 0,0.71 0,1.43 0,2.15 0,0.1 0.11,0.23 0.18,0.4 0.11,1.41 3.15,2.86 0.84,3.75 -2.29,1.07 2,0.65 1.75,2.05 -0.25,1.4 -2.27,0.12 -2.8,1 0,0.24 0,0.48 0,0.72 0.22,0.41 0.78,0.57 1.29,0.71 1.79,0.34 1.14,2.85 3.49,3 1.48,0.38 1.72,0.12 0.77,-0.79 -1.23,-1.17 -3.28,-7.41 -1.07,-7.52 0.76,0 0.61,0.8 0.66,1.8 0.54,2.4 4.7,3.73 6.76,5.08 -9.94,-2.36 -5.84,-2.67 -4.82,2.71 -0.06,1.34 0.11,2.07 -1.14,1 -1.37,-1.26 -3.84,-1.41 -6,-1.82 0,0.5 0,1 0,1.49 1.45,0 2.52,0.35 1.9,1.93 -0.52,1.29 -0.44,1.83 0.44,2 1.77,0.21 0.16,2.53 1.4,3.15 0.31,0.26 1.74,0.08 0.76,0.9 a 11.06,11.06 0 0 1 -4.84,0.12 c -0.13,2.5 -0.27,5 -0.44,7.49 6.71,0.52 8.07,2.55 13,5.49 0.94,0 0.55,0.89 0.57,1.59 0,2.52 2.79,1.69 2.88,3 -0.68,1.81 -3.1,-0.15 -3.78,-1.45 -0.68,-1.3 -5.15,-3.65 -6.28,-1.59 -0.33,0.6 0.45,0.89 0.64,0.89 3.69,-0.37 6.78,2.77 0.88,1.56 -1.54,-0.24 -6.76,-6.24 -5.86,-4.29 0.53,1.25 -1.4,1.23 -2.48,0.93 q -0.59,7.58 -1.33,15.14 c 2.15,0.48 4.4,1.33 4.13,3.15 0.35,2.24 4,2.13 4.12,4.74 0.64,2.56 -3,-1.74 -3.82,-2.19 -1.38,-1.5 -2.77,-3.27 -4.57,-4.24 l -0.63,6.48 v 0 a 5.89,5.89 0 0 1 3.45,-1.81 c 0.8,0 0.72,0.76 0.71,1.78 0.52,2.49 5,3.65 7.11,5 -10.79,-2.23 -6.27,-2.51 -5.39,2.75 -0.11,1.35 0.06,2 -1.26,1 -1.32,-1 -3.34,-1.25 -5.37,-1.53 0,0.44 -0.08,0.88 -0.13,1.32 0.94,0.15 1.51,0.62 1,1.82 -0.51,1.2 0.58,4.44 1.86,5 a 32.53,32.53 0 0 1 -3.46,-0.32 l -0.87,8.51 c 4.4,0.45 14.51,4.47 13.8,7.06 -0.14,2.44 2.83,1.62 2.86,2.85 -0.83,1.7 -3.21,0 -3.93,-1.4 -0.72,-1.4 -5.3,-3.48 -6.54,-1.54 -0.64,1.61 5.07,0.48 5,2.15 -0.11,1 -2.73,0.34 -3.49,0.23 a 6.1,6.1 0 0 1 -1.4,-0.42 c -1.36,-0.55 -3.24,-1.79 -3,-2.7 a 2.67,2.67 0 0 1 1.17,-1.31 c 1.29,-0.71 -3.29,-1.2 -2.85,0.19 0.51,1.11 -1,1.19 -2.19,1 q -0.78,7.4 -1.64,14.79 c 6.08,1.9 8.58,9.64 6.08,8.78 -0.7,-0.26 -1.28,-0.62 -1,-1.38 0.15,-2 -2.85,-2.25 -3.41,-4.33 a 4.39,4.39 0 0 0 -1.89,-1.48 c -0.23,2 -0.46,4.09 -0.71,6.12 0.45,0.16 0.81,0.42 0.8,0.88 -0.01,0.46 -0.51,0.65 -1,0.68 l -0.24,1.91 c 1.12,0.67 0.67,2.44 3,2.54 1.46,0.3 2,0.2 0.9,-0.76 -1.4,-1.23 -2.94,-7 -0.63,-7.14 0.79,0 0.71,0.7 0.67,1.7 0.51,2.45 5,3.46 7.11,4.75 -11,-2.18 -6.27,-2.36 -5.58,2.64 -0.15,1.34 0,2 -1.31,1 -1,-0.77 -2.75,-0.7 -4.72,-0.37 l -0.06,0.45 c 0.38,0.27 0.49,0.72 0.1,1.48 -0.66,1.32 -0.5,1.76 0.39,1.93 1.91,0.17 0.06,2.33 1.38,3 0.26,0.24 1.92,0 0.78,0.85 -0.48,0.34 -2,0.36 -3.63,0.24 -0.32,2.33 -0.64,4.67 -1,7 4.62,0.8 13.22,4.35 12.35,6.68 -0.23,2.41 2.73,1.58 2.72,2.79 -0.87,1.64 -3.16,0.09 -3.84,-1.36 -0.68,-1.45 -5.12,-3.37 -6.36,-1.49 -0.36,0.55 7.28,3.48 1.4,2.32 -1.53,-0.22 -6.19,-5.48 -5.84,-4.13 0.32,0.8 -0.42,1.05 -1.29,1.05 -0.43,2.85 -0.86,5.7 -1.32,8.55 q -0.48,2.94 -1,5.88 c 3,2.37 6.29,5.68 6.27,7.26 0.43,2.41 -2.89,1.32 -2.36,-0.12 0.19,-0.44 -1.79,-3 -4.32,-4.81 -0.52,2.93 -1.06,5.86 -1.64,8.78 0.67,0.79 0.56,2.17 2.52,2.27 1.41,0.31 1.89,0.21 0.87,-0.75 -0.4,-0.38 -0.09,-0.71 0.57,-0.94 1.06,1.43 1.56,5.51 -0.38,3.82 a 8.54,8.54 0 0 0 -4.2,-1.39 c -0.1,0.5 -0.2,1 -0.31,1.5 0.29,0.29 0.34,0.73 0,1.4 -1.73,2.52 2,1.33 1.09,3.28 -0.43,0.77 0.32,1.3 0.35,1.56 0.03,0.26 2.5,0 0.5,0.85 a 13.93,13.93 0 0 1 -3.61,0.22 c -1.14,4.67 -2.41,9.31 -3.89,13.89 -3.26,10.12 -7.33,20 -14,28 0,0.07 0,0.14 0,0.21 0,0.65 0.11,1.29 0.18,1.93 0.06,0.23 0.1,0.43 0.13,0.57 1,6.08 2.15,12.12 2.93,18.25 a 53.77,53.77 0 0 1 -0.9,17.69 c -1.71,8.62 -5.74,16.6 -7.68,25.16 l -0.11,0.49 c 0,0.89 -0.13,2.23 -0.13,2.11 0,1.55 0.12,3.09 0.2,4.63 0.26,0.75 0.48,2.61 0.59,3 0.51,1.94 1.12,3.84 1.74,5.75 3.18,9.81 4.77,19.23 3.45,29.54 -0.39,3.05 -0.86,6.08 -1.39,9.09 l 1.6,1.19 0.44,0.38 0.56,0.58 c 98.52,0.06 166,-1.28 166.12,-5.11 0.15,-4.31 -84.63,-12.5 -84.51,-13.4 0,0 0,0 0.11,0 0.71,-0.37 3.63,-1.59 3.89,-1.71 2.7,-1.28 5.36,-2.66 8,-4.15 2.64,-1.49 5.23,-3.22 7.78,-4.93 a 12.76,12.76 0 0 1 1.29,-0.9 l 1.93,-1.5 a 104.43,104.43 0 0 0 10.81,-10 c 1,-1 1.93,-2.13 2.87,-3.22 1.86,-2.94 2,-2.9 1.53,-2.12 0.79,-1 1.59,-2.07 2.31,-3.14 a 112.06,112.06 0 0 0 7,-12.08 c 0.56,-1.11 1.08,-2.23 1.61,-3.35 0.83,-2.13 1.67,-4.25 2.43,-6.4 1.56,-4.46 2.9,-9 4,-13.57 1.26,-5 2.29,-10.13 3.13,-15.25 0.31,-1.87 0.94,-9 0.24,-1.29 0.22,-2.42 0.6,-4.83 0.85,-7.25 1,-10.17 1.54,-20.4 1.73,-30.62 0.37,-19.8 -0.42,-39.6 -0.44,-59.41 0,-12.43 10.53,-21.63 23,-22.17 a 21.23,21.23 0 0 1 13.73,4.46 c 0.56,-5.7 1,-11.41 1.28,-17.13 a 214.51,214.51 0 0 0 -0.75,-31.18 z M 981.76,727.33 c 0.58,0.61 -0.56,2.11 0.37,2.63 0.28,0.23 1.55,0.06 0.6,0.8 a 6.65,6.65 0 0 1 -2.39,0.3 z m 5.35,18.17 c -0.45,-1.41 -4.05,-3.12 -5.2,-1.41 -0.68,1.5 4.08,0.5 3.86,2 -0.22,0.88 -2.11,0.39 -2.92,0.24 -1.61,-0.3 -5.15,-2.48 -2.18,-4.15 1.77,-0.82 -3.09,-1.52 -2.43,0.23 0.37,1.13 -1.38,1.14 -2.33,0.87 l 0.27,-0.78 c 0.61,-0.32 0.63,-0.71 0.37,-1 0.17,-0.5 0.35,-1 0.54,-1.54 a 1.32,1.32 0 0 0 0.5,0.07 c 2.31,-0.1 4.68,2 6.85,2.49 3.6,0.62 -3.56,-3.07 -6.7,-4.37 l 0.1,-0.29 c 5.38,0.63 5.9,1.72 10.11,4.8 0.8,0 0.31,0.91 0.21,1.47 -0.4,2.34 2.13,1.55 2,2.71 -0.81,1.48 -2.59,0.08 -3.05,-1.34 z m -0.79,-22.74 c -0.21,1.13 -0.1,1.94 -1.17,0.93 a 4,4 0 0 0 -1.63,-0.87 l 0.5,-1.27 c 1.06,0.38 2.15,0.33 1.13,-0.69 a 3.1,3.1 0 0 1 -0.5,-0.9 c 0.44,-1.1 0.89,-2.22 1.34,-3.36 1,1.57 3.85,2.57 5.28,3.57 -8.98,-2 -5.21,-2.35 -4.95,2.59 z"
           id="path22"
           style="fill:#91724e" />
        <path
           class="cls-2"
           d="m 1183,630.67 c 0.88,-0.53 1.87,-1.27 0.23,-1.53 -1.64,-0.26 -1.62,-4.84 0.21,-5.42 1.83,-0.58 1.34,2.34 0.38,3.35 -0.7,0.73 -1.2,1.39 0.11,1 1.31,-0.39 1.17,0.57 1,1.67 0.17,2.5 -3.03,1.78 -1.93,0.93 z"
           id="path24"
           style="fill:#91724e" />
        <path
           class="cls-2"
           d="m 1183.16,620.27 c -2.43,1.63 -0.75,-4.1 0.94,-3.45 1.53,0.11 -0.16,2.89 -0.94,3.45 z"
           id="path26"
           style="fill:#91724e" />
        <path
           class="cls-2"
           d="m 1182.93,616 c -2.52,0 2.93,-2.65 -1.06,-2.25 -0.91,-0.82 1.3,-3.39 0.21,-4.28 -0.6,-0.22 0.2,-0.77 0.49,-1.14 2.33,-1.88 -3.67,0.06 -0.31,-5.77 1.42,-2.74 2,2.13 0.74,2.66 -0.63,0.57 -1,0.19 -0.08,0.67 1.31,0.7 1.67,4.46 0.92,5.82 -0.48,1 1.28,1.59 0.68,2.91 a 1.72,1.72 0 0 1 -1.59,1.38 z"
           id="path28"
           style="fill:#91724e" />
        <path
           class="cls-2"
           d="m 1181.76,601.45 c 0.94,0.4 -0.38,1.51 -0.88,-0.9 0.25,-3.76 -1.63,-9.11 -0.16,-12.62 0.54,-0.2 0.88,-0.21 0.86,-0.82 -0.02,-0.61 -0.41,-0.38 -1.13,-0.4 -1.59,-0.05 -1.6,-3.17 -0.34,-4.05 0.47,-0.32 0.21,-0.27 -0.45,-0.48 -2.81,-1.58 -1.24,-3.82 0.12,-5.71 1.42,1.64 1.26,7.84 2.38,10.48 a 3.38,3.38 0 0 1 -0.29,3.26 c -1,1.47 -1.93,2.63 0.28,1.38 1.8,-1 0.82,1.5 0.28,2.55 -2.22,5.57 1.37,0.79 1.08,3 a 13.66,13.66 0 0 0 0,2.39 c 0.09,0.65 0.22,1.18 -0.6,0.77 -0.82,-0.41 -1.65,0.87 -1.15,1.15 z"
           id="path30"
           style="fill:#91724e" />
        <path
           class="cls-2"
           d="m 1179.76,686 c -1.22,-1.27 -0.16,-8.77 1.22,-10.22 2.55,-0.87 0.63,3.42 0.17,4.1 -0.46,0.68 0.55,6.52 0.52,7.18 a 9.82,9.82 0 0 1 -1.77,2.54 c 0.61,-0.74 1.44,-2 0.16,-1.38 -0.54,0.25 0.85,-1.42 0.71,-2 -0.14,-0.58 -0.25,-0.38 -1.01,-0.22 z"
           id="path32"
           style="fill:#91724e" />
        <path
           class="cls-2"
           d="m 1161.34,499.85 c 1.43,0.26 0.53,3.36 1.62,2.89 1.09,-0.47 1.68,2.22 0.66,2.55 -0.65,0.22 0,2.11 0.43,2.48 a 7.1,7.1 0 0 1 1,3.59 c 0,0.14 -2.42,1.77 -2.84,0.16 -0.42,-1.61 1.6,-0.27 0.36,-3.81 -0.36,-0.71 -2.57,-8.29 -1.23,-7.86 z"
           id="path34"
           style="fill:#91724e" />
        <path
           class="cls-2"
           d="m 1161.59,471.73 c 0.81,2.13 0.8,7.28 -0.76,8.35 -1,0.69 -1,0.24 -0.34,0.72 1.67,1.16 2.34,4.26 1,5.64 -1,0.94 -1,0.81 0,1.57 1,0.76 1.07,1.55 0.77,2.85 -0.72,1.19 1.19,4.51 -0.25,4.52 -1.44,0.01 -0.78,1.74 0.27,1.8 0.55,0.13 0.84,1.14 1.29,1.62 0,0 -0.3,-0.31 0.09,0.1 0.6,0.61 -0.22,1.19 -1.27,0.24 -3.11,-2.2 -1.69,-5.48 -2.25,-8.7 -0.9,-3.23 -1.67,-12.4 -0.12,-14.36 1.55,-1.96 0.39,-1.16 0,-2.08 -0.39,-0.92 -1.06,-1 -0.33,-1.4 0.73,-0.4 0.75,-0.92 0.59,-1.79 -0.59,-3.35 -1.1,-10.8 0.62,-13.24 1,-1.42 0.35,-0.84 0.21,-1.64 -0.14,-0.8 -0.45,-1.17 0.12,-1.45 0.57,-0.28 0.77,-0.48 0.71,-1.06 -0.06,-0.58 -0.39,-0.57 -0.89,-0.3 -0.5,0.27 -0.5,-0.21 -0.38,-0.82 0.2,-1.05 2.54,-2.15 2.69,-1.09 0.28,1.85 -0.85,10 -1.27,9 -0.82,-2.15 -1.69,3.35 -0.3,3.63 1.81,1 -1.2,2.3 0,4.05 1.02,1.41 -0.67,2.56 -0.2,3.84 z"
           id="path36"
           style="fill:#91724e" />
        <path
           class="cls-2"
           d="m 1165.91,427.39 c -0.13,-1.41 -0.26,-2.82 -0.42,-4.23 -0.1,-0.87 -0.82,-6.83 -0.43,-3.46 0.36,3 0,0.31 -0.06,-0.26 -0.17,-1.05 -0.33,-2.09 -0.51,-3.14 -0.3,-1.82 -0.62,-3.65 -0.94,-5.47 v -0.16 c -0.55,0.38 -0.42,1.32 0,2.77 2,7.27 -0.17,16.29 -0.54,22.94 0,1.74 0.12,2.93 -0.55,3.56 -0.67,0.63 -0.41,0.45 -0.12,1.05 0.7,2.19 -3,7.07 -0.75,8.78 0.65,0.28 0.55,0 1.57,-0.75 1.71,-1.18 1.71,-10 1.47,-12.6 0.37,-2.42 0.79,-5.8 1.28,-9.03 z"
           id="path38"
           style="fill:#91724e" />
        <path
           class="cls-2"
           d="m 1159.2,385.39 a 2.61,2.61 0 0 0 -1,-1.3 c -1.06,-0.65 -2.14,-3.95 -2.92,-4 -0.78,-0.05 -0.56,0.77 -0.2,1.5 1,1.42 1.42,7 3.69,6.59 a 0.88,0.88 0 0 0 0.71,-0.61 c -0.07,-0.75 -0.17,-1.46 -0.28,-2.18 z"
           id="path40"
           style="fill:#91724e" />
        <path
           class="cls-2"
           d="m 1179.28,711.33 c -1.55,0.68 -1.29,-3.12 0.12,-2.54 2.1,0.8 1.57,5.93 0.52,7.42 -0.54,0.76 -0.75,0.95 0.16,1 1.87,0.17 -1.57,1.71 0.51,2.88 0.81,0.64 1.08,1 -0.55,0.91 -2.76,-0.57 -1.52,-7.16 -0.84,-9.08 0.8,-0.92 0.8,-0.92 0.08,-0.59 z"
           id="path42"
           style="fill:#91724e" />
        <path
           class="cls-2"
           d="m 1152.61,376.31 c -2.24,-4 0.87,-3.31 2,-0.45 2.27,3.95 -0.84,3.3 -2,0.45 z"
           id="path44"
           style="fill:#91724e" />
        <path
           class="cls-2"
           d="m 1161.21,397.77 c 0,0 0,0 0,-0.06 q -0.63,-3.61 -1.22,-7.25 a 1,1 0 0 0 -0.69,-0.25 c -0.71,0.05 -0.29,1.74 0,3.1 1.34,3.67 1.55,11.79 3.77,14.9 q -0.92,-5.21 -1.86,-10.44 z"
           id="path46"
           style="fill:#91724e" />
        <path
           class="cls-2"
           d="m 1183.4,652.59 c -0.24,1.7 -0.59,12.39 -1.58,12.52 -0.99,0.13 -0.62,-0.1 -0.3,0.61 2.54,6.23 -1.52,6.38 0.14,7.44 0.49,0.46 0.45,1.43 -0.18,1.35 -2.53,1.8 -0.89,-3.69 -1.24,-5.18 -0.17,-1.4 0.16,-5.14 1.06,-5.79 a 1.06,1.06 0 0 1 0.5,-0.23 2.54,2.54 0 0 1 -0.64,-0.64 c -2.24,-5.12 2.59,-15 1.23,-20.56 -0.9,-1.71 -0.76,-9.68 1.09,-9.19 2.23,0.51 0.8,3 0.22,4.36 -0.34,0.78 -1.44,0.79 0.07,2.2 1.51,1.41 -0.11,11.37 -0.37,13.11 z"
           id="path48"
           style="fill:#91724e" />
        <path
           class="cls-2"
           d="m 1152.22,769 a 2.58,2.58 0 0 1 2.09,0 c 0.9,0.49 -2.97,0.53 -2.09,0 z"
           id="path50"
           style="fill:#91724e" />
        <path
           class="cls-2"
           d="M 1164.24,768 Z"
           id="path52"
           style="fill:#91724e" />
        <path
           class="cls-2"
           d="m 1164.12,513.67 c 1.37,0.31 2,3.75 2.47,6.24 0.23,4.18 5.78,15.24 4.17,18.44 -1,0.65 -0.18,0.49 0.38,1 a 4,4 0 0 1 1.1,2.71 c -0.17,0.69 -0.2,1.66 0.29,1.47 1.81,-0.31 -1.42,2.73 -0.15,4 1.23,1.88 -0.48,-1.94 0.74,-1.74 1.87,0.39 -0.27,5.89 1.24,6.21 0.59,-0.27 0.5,1 0.52,1.38 0.02,0.38 -0.24,1.57 -0.75,1.33 -1.18,-0.52 -0.9,1.41 0.31,1.29 1.83,0.75 1.31,4.4 2.25,6 0.36,0.87 0.44,1.29 -0.21,1.59 -1.2,0.39 3.19,3.38 1.15,7.33 -0.55,1 -0.73,1.06 0.31,1.19 1.94,0.26 2.34,2 0.79,3.46 -0.58,0.6 -1.47,1.5 -1.69,-1.64 -0.21,-1.37 -0.73,-4.56 -0.49,-5.59 0.32,-1.37 0.38,-1.93 -0.53,-1.77 -0.91,0.16 -1,-0.35 -1,-1.25 -0.49,-4.4 -3.35,-11 -2.52,-15.07 a 3.82,3.82 0 0 1 0.16,-0.78 0.5,0.5 0 0 1 -0.41,0.06 c -0.8,-0.18 -1.32,-4.65 -1.68,-5.65 -0.49,-1.35 -2.17,-6.17 -1,-7.37 0.74,-0.79 1.07,-0.53 0.12,-1.08 -1.37,-1.24 -4.48,-9.84 -3.72,-11.38 1,-1.63 -0.78,-3.91 -1.13,-5.82 0,1.56 0.23,6.66 -0.4,2 0.14,-1.34 -2.51,-7.18 -0.32,-6.56 z"
           id="path54"
           style="fill:#91724e" />
        <path
           class="cls-3"
           d="m 1207.92,746.69 c 0,-0.46 0,-0.92 0,-1.39 -0.11,-2.38 -0.27,-4.75 -0.5,-7.12 -0.1,-1.08 -0.22,-2.15 -0.34,-3.23 -0.1,-0.78 -0.37,-4.32 -0.14,-1.19 0.24,3.39 -0.42,-1.83 -0.48,-2.11 -0.17,-0.85 -0.36,-1.7 -0.53,-2.56 q -0.6,-3 -1.14,-6 c -0.72,-4 -1.36,-7.94 -2,-11.92 -0.89,-5.89 -1.71,-11.79 -2.53,-17.7 -0.28,-2 -0.55,-4 -0.83,-5.95 0,-0.19 0,-0.33 -0.06,-0.45 -0.07,-0.47 -0.15,-1 -0.22,-1.42 -0.63,-4.32 -1.42,-8.6 -2.27,-12.87 -5.22,-15.18 -9.09,-30.1 -8.77,-43.33 a 361.82,361.82 0 0 1 -4.22,-41.65 c -0.61,-14.41 -0.7,-28.67 -1.91,-43 -0.09,-0.78 -0.35,-3.09 -0.51,-4 q -0.49,-2.83 -1.07,-5.65 -1,-5 -2.23,-9.89 c -1.77,-7.15 -3.8,-14.25 -5.91,-21.32 q -1.1,-3.72 -2,-7.43 c -2.74,-6 -4.69,-12.31 -4.27,-19.09 a 28.56,28.56 0 0 1 0.79,-4.91 c -0.42,-6.36 -0.5,-12.79 -0.36,-19.32 0.16,-7.9 0.23,-15.77 -0.36,-23.65 0,-0.62 -0.11,-1.24 -0.16,-1.86 a 129.51,129.51 0 0 1 -5.09,-14.48 c -1.68,-6.38 -1.33,-12.19 -0.11,-18.23 -1,-5.92 -1.93,-11.87 -2.6,-17.83 a 22.92,22.92 0 0 1 -4.44,-9 c -9.34,1.71 -18.78,2.9 -28.21,3.92 -24,2.62 -48.11,4 -72.21,5.06 -4.35,0.19 -8.71,0.37 -13.06,0.5 10.58,-0.32 0.21,0.21 -2.28,0.41 l -4.67,0.38 a 8.5,8.5 0 0 1 1.45,0.3 c 1.14,0.36 -1.47,0.24 -1.67,0.22 a 10.26,10.26 0 0 1 -1.91,-0.35 l -2.17,0.18 -3,0.22 v 0 c 0.09,0.43 0.19,0.86 0.29,1.29 h 0.72 c 0.91,0 2,0.44 2.15,0.88 0.15,0.44 0.24,0.85 -0.26,0.78 a 13.39,13.39 0 0 1 -2.12,-0.92 l -0.33,-0.16 c 0.11,0.42 0.2,0.83 0.33,1.24 l 0.28,0.78 a 5.17,5.17 0 0 1 1.41,0 c 0.63,0.11 3.79,0.31 3.52,1 -0.46,1.23 -3,0.47 -4.64,-0.22 a 31.89,31.89 0 0 0 1.48,3.26 c 0.64,0.09 1.09,0.23 0.75,0.49 a 1.08,1.08 0 0 1 -0.42,0.14 l 0.27,0.49 a 16.48,16.48 0 0 1 2.14,0 c 0.29,0 3.38,0.24 3.2,0.52 -0.53,0.83 -3.13,0.87 -4.78,0.46 0.56,0.94 1.16,1.86 1.79,2.75 0.41,0.08 0.84,0.16 1.28,0.21 2.39,0.29 1.08,-0.25 5.36,1.15 6.71,2.19 17.84,5.45 27.58,7.62 a 1.34,1.34 0 0 1 0,0.19 c -1.57,0 -7.81,-0.53 -8.55,-0.61 -1.85,-0.22 -8.7,-0.71 -8.34,0.17 0.36,0.88 3.32,1.07 4.27,1.16 0.95,0.09 3.06,0.27 2.91,1 -0.15,0.73 0,1.16 1,1.49 1,0.33 1.27,-0.29 1.09,-1.14 -0.23,-1.11 1,-1.56 2.76,-1.27 1.29,0.22 3.14,0.33 4.12,0.54 0.98,0.21 1.21,0.35 1.27,1 0.06,0.65 -2.67,0.31 -3.33,0.13 -0.66,-0.18 -3.42,-0.5 -3.24,0.37 0.18,0.87 1.19,0.94 2.28,1.19 1.09,0.25 2,0.43 2.37,1.55 0.45,1.58 6.41,1.75 7.8,1.73 1,0 7.95,0.27 6.85,1.17 -1.8,1.47 -10.39,-0.47 -13.25,-1 -0.6,-0.12 -2.15,-0.3 -2.33,0.41 -0.18,0.71 -1.72,0.45 -2.92,0.09 -1.87,-0.55 -2.57,-0.07 -1.62,1.16 0.66,0.86 1.09,1.85 -0.06,1.94 -1.15,0.09 -1.73,-1.33 -1.87,-1.85 -0.14,-0.52 -0.8,-2.09 -1.75,-1.83 -3.13,0.82 1.46,5.17 3.6,5.93 a 1.81,1.81 0 0 1 1.33,1.45 c 0.07,0.79 1.95,1.29 3.19,1.38 2.06,0.15 3.21,0.26 0.63,0.88 a 18.56,18.56 0 0 1 -5.73,-0.05 c -1.23,-0.21 -3.32,-0.67 -3,0.37 0.32,1.04 4.52,1.28 5.81,1.37 1.29,0.09 5.41,0.22 5.76,1.25 0.35,1.03 -5,0.12 -5.51,0 -0.51,-0.12 -6,-1 -4.67,0.18 1.33,1.18 7,1.5 8.23,1.61 1.54,0.14 7.18,0.41 5,1.11 -1.73,0.56 -6.93,0.1 -8.26,0 -1.33,-0.1 -6,-0.68 -5.16,0.26 0.84,0.94 7.45,1.36 8.62,1.4 1.47,0 7.43,0.59 5.77,1.13 -1.66,0.54 -4.48,0.19 -5.76,0.06 -1.28,-0.13 -3.16,-0.52 -3,0.4 0.16,0.92 3.43,1.11 4.38,1.21 0.95,0.1 4.53,0.26 4.32,1.22 -0.21,0.96 -4.19,0.47 -6.14,0.18 a 14.91,14.91 0 0 0 -5.2,0.12 c 0.57,1 1.14,1.9 1.68,2.88 l 0.21,0.38 c 3.25,1.3 8.33,2.21 9.5,0.86 0.46,-0.54 -2.78,-0.93 -3.7,-1 -0.92,-0.07 -3.77,-0.36 -4.47,-1.24 -0.7,-0.88 2.33,-0.62 3.53,-0.46 1.2,0.16 4.64,0.82 5.51,1.74 a 5.43,5.43 0 0 0 3.17,1.45 c 1.15,0.22 2.19,0.43 2.38,1.23 0.19,0.8 -1.16,0.53 -2.16,0.29 a 7.29,7.29 0 0 0 -3.92,-0.15 c -1.38,0.46 -5.84,0.07 -7,-0.14 -0.37,-0.07 -0.93,-0.15 -1.54,-0.2 l 1.11,2 c 0.72,0.12 1.18,0.22 0.27,0.5 0.38,0.7 0.75,1.42 1.13,2.13 0.48,0.1 1,0.18 1.37,0.23 1.12,0.12 3.62,0.4 4,1.31 0.38,0.91 -1.5,0.49 -2,0.35 -0.5,-0.14 -2.31,-0.63 -2.15,0.11 0.16,0.74 1.71,1.17 2.59,1.53 0.88,0.36 2.13,0.54 2.29,1.47 0.16,0.93 2.37,2.31 3.35,3 1.63,1.15 3.22,2.4 4.2,0.88 0.43,-0.66 1.22,0.95 1.8,2.32 l -0.39,-0.22 c -0.38,-0.23 -1,-0.27 -0.91,0.31 0.09,0.58 0.72,0.93 1.11,1 a 2.57,2.57 0 0 0 0.62,0 l 0.15,0.41 c 0.15,0.41 1.59,4.06 1.73,5 -1.64,-0.08 -8.07,-0.72 -9.29,-0.86 0.38,0.81 0.76,1.62 1.13,2.43 0,-0.94 1.29,-1.2 2.93,-0.9 1.38,0.25 3.49,0.42 4.57,0.66 1.08,0.24 1.36,0.39 1.5,1 0.14,0.61 -3,0.23 -3.63,0 -0.63,-0.23 -3.8,-0.63 -3.5,0.3 0.3,0.93 1.43,1 2.63,1.29 1.2,0.29 2.29,0.48 2.79,1.67 0.7,1.67 7.17,2 8.78,2 0.4,0 1.54,0.07 2.84,0.18 a 3.86,3.86 0 0 0 1,1.71 59.08,59.08 0 0 1 -6.9,-1.09 c -0.1,-0.37 -0.78,-0.71 -1.14,-0.91 -0.36,-0.2 -1,-0.3 -1,0.29 a 0.86,0.86 0 0 0 0,0.17 l -1.79,-0.38 c -0.63,-0.13 -2.37,-0.39 -2.52,0.36 -0.15,0.75 -1.91,0.41 -3.2,0 l -0.52,-0.14 c 1.21,2.79 2.36,5.61 3.48,8.43 l 0.54,0.07 c 2.23,0.19 3.59,0.32 0.72,0.9 a 6.29,6.29 0 0 1 -0.83,0.1 c 0.23,0.6 0.48,1.2 0.71,1.8 1.57,0.21 3.07,0.56 3.28,1.16 0.21,0.6 -1.18,0.53 -2.71,0.37 0.18,0.46 0.35,0.92 0.52,1.39 0.35,0.06 0.34,0.16 0.1,0.28 0.32,0.86 0.65,1.72 1,2.59 2.48,0.24 7.13,0.87 5.52,1.27 a 17.18,17.18 0 0 1 -5.07,0 c 0.2,0.56 0.39,1.12 0.58,1.68 a 5.93,5.93 0 0 1 0.8,0.41 c -0.38,-0.09 -0.66,0.17 -0.08,0.78 0,0 -0.08,0 0,0 0.08,0 0.16,0.21 0.27,0.44 h -0.46 c 0.17,0.52 0.36,1 0.53,1.55 1.57,0.35 3.39,0.88 4,1.51 a 6.19,6.19 0 0 0 3.44,1.53 c 1.2,0.24 2.42,0.45 2.57,1.28 a 0.36,0.36 0 0 1 -0.1,0.33 c -0.25,0 -0.47,-0.06 -0.61,-0.07 a 2.49,2.49 0 0 0 -0.83,0.17 c -0.32,-0.06 -0.65,-0.14 -1,-0.21 a 9.5,9.5 0 0 0 -4.41,-0.28 7.45,7.45 0 0 1 -1.7,0.16 q 1.65,5.36 3,10.78 c 0.83,0.6 1.79,1.18 2.33,1.53 1.56,1 3.28,2.32 4.37,1.37 l 0.07,0.1 a 13.45,13.45 0 0 1 1.28,2.83 c 0.33,0.87 0.71,1.14 1.74,1.39 a 30.13,30.13 0 0 1 1.09,4.1 c -1.39,-0.1 -5.9,-0.6 -8.51,-0.9 0.12,0.61 0.23,1.22 0.35,1.83 a 25.12,25.12 0 0 1 5.89,0.11 c 0.37,0.41 0.87,0.93 1.33,1 0.46,0.07 0.46,-0.28 0.42,-0.62 0.82,0.21 1.1,0.38 1.17,1 0.07,0.62 -3.4,0.14 -4,-0.06 -0.6,-0.2 -4.15,-0.75 -3.93,0.2 a 1.13,1.13 0 0 0 0.19,0.38 0.43,0.43 0 0 0 -0.07,0.3 c 0,0.62 0.82,1 1.23,1 0.41,0 1.14,0.14 1.13,-0.27 a 0.64,0.64 0 0 0 -0.06,-0.18 l 0.35,0.08 c 1.2,0.29 2.45,0.47 2.9,1.71 0.53,1.45 5.67,2 8.28,2.14 a 2.29,2.29 0 0 0 1,0.59 27.4,27.4 0 0 0 4.81,0.76 c 1.28,0.14 2.39,0.16 2.92,-0.39 0.84,0.21 1.26,0.46 0.85,0.72 -2.33,1.52 -12.67,-1.12 -16.08,-1.82 a 6.69,6.69 0 0 0 -2.08,-0.17 c -0.25,-0.52 -0.58,-1.1 -0.93,-1.09 -0.54,0 -0.32,1.22 -0.25,1.68 0,0.05 0,0.11 0,0.18 -0.4,0.14 -2.43,-0.13 -3.89,-0.13 l 0.18,1.1 c 0.3,2.13 0.55,4.27 0.77,6.4 a 11.6,11.6 0 0 0 2.26,0.44 c 2.57,0.25 4,0.44 0.49,0.87 a 16.87,16.87 0 0 1 -2.63,0.06 c 0,0.51 0.09,1 0.13,1.52 2.1,0.19 5,0.57 5.15,1.4 0.15,0.83 -2.9,0.4 -5,0.06 0,0.46 0.08,0.91 0.12,1.37 l 1.84,0.18 1.37,0.15 v 0.25 a 5.11,5.11 0 0 0 0.18,1 c -1.14,-0.07 -2.3,-0.17 -3.32,-0.26 0,0.48 0,1 0.07,1.45 l 1,0.08 c 0.89,0.05 3.25,0.33 5.09,0.64 0.25,0.57 1,0.83 1.25,0.23 1.06,0.23 1.56,0.45 0.73,0.59 a 30.46,30.46 0 0 1 -7.45,-0.32 l -0.61,-0.08 c 0,0.5 0.06,1 0.08,1.51 l 1.7,0.19 c 0.94,0.11 5.61,0.41 5.22,1.45 v 0 a 5.12,5.12 0 0 0 -1.83,0 c -0.64,0.12 0,0.29 0.62,0.42 a 29,29 0 0 1 -5.64,-0.5 v 1.34 h 0.31 a 27.54,27.54 0 0 1 5.26,1.27 c -0.56,0.15 -1.08,0.35 -0.84,0.36 0.4,0 1.9,0.86 2.41,0.94 h 0.33 a 7.8,7.8 0 0 0 2.76,0.94 c 1.13,0.23 2.52,0.45 2.55,1.23 a 0.42,0.42 0 0 0 -0.12,0.3 c 0,0 0,0 0,0 -0.41,0.43 -1.77,0.11 -2.77,-0.14 a 12.44,12.44 0 0 0 -4.92,-0.39 10.71,10.71 0 0 1 -2,0.11 1.09,1.09 0 0 0 0,-0.55 1.11,1.11 0 0 0 -0.69,-0.76 5.69,5.69 0 0 0 2.89,-0.57 c 0.77,-0.5 -3.36,-1.07 -4.28,-1.13 -0.2,0 -0.54,0 -0.94,-0.09 0,0.54 0,1.08 0,1.62 l 1.19,0.12 c -0.18,0.15 -0.2,0.38 0,0.65 a 4.57,4.57 0 0 0 0.65,0.67 c -0.39,0 -1,-0.07 -1.84,-0.15 0,1.51 0,3 0,4.53 1.1,0.21 2.16,0.54 2.29,1.1 0.13,0.56 -1.07,0.37 -2.32,0.24 0,0.55 0,1.1 -0.07,1.65 1,0.5 8,6.27 8.9,6.46 1.7,0.37 2,3.28 1.57,4.8 a 6.8,6.8 0 0 0 -0.1,2.57 c -1.74,-0.17 -6.75,-0.75 -9.32,-1.06 h -0.24 l -1.23,-0.16 -0.35,-0.05 c -0.1,1.14 -0.19,2.29 -0.31,3.43 a 1.83,1.83 0 0 0 0.48,-0.79 1.85,1.85 0 0 1 1.58,-1.09 2.4,2.4 0 0 0 0.38,0.1 c 0.38,0.05 1.08,0.14 1.24,-0.16 a 10.93,10.93 0 0 1 1.13,0.15 c 1.43,0.29 4,0.58 5.1,0.84 1.1,0.26 1.41,0.37 1.16,1 -0.25,0.63 -3.57,0.08 -4.43,-0.15 -0.86,-0.23 -4.21,-0.82 -4.46,0.11 -0.25,0.93 1.36,1 2.38,1.28 h 0.2 c 0,0.22 0,0.43 0,0.58 0,0.49 0.14,1.68 1,1.73 0.86,0.05 0.76,-1.11 0.61,-1.6 0,-0.06 0,-0.14 -0.07,-0.22 a 1.06,1.06 0 0 1 0.61,1.12 c -0.19,1.71 8.35,2.24 9.37,2.26 0.72,0 9.57,0.86 7.72,1.59 -3,1.2 -12.31,-1.12 -16.21,-2 -0.82,-0.18 -2.68,-0.51 -3.29,0.2 a 1.85,1.85 0 0 1 -1.5,0.35 1.87,1.87 0 0 0 -0.16,-1.39 c -0.37,-0.77 -0.66,0.67 -0.69,1 0,0.06 0,0.17 0,0.28 -0.52,-0.1 -1.05,-0.23 -1.48,-0.36 a 10.25,10.25 0 0 0 -1.14,-0.27 q -0.46,3.92 -1,7.83 c 0.37,0.07 0.75,0.12 1.1,0.16 2.51,0.25 3.72,0.47 0.18,0.83 -0.42,0 -0.92,0.06 -1.45,0.06 l -0.24,1.58 c 1.65,0.23 3.28,0.6 3.17,1.19 -0.11,0.59 -1.75,0.48 -3.4,0.27 -0.06,0.42 -0.12,0.84 -0.19,1.26 1.65,0.18 8.42,0.83 5.35,1.31 a 29.9,29.9 0 0 1 -5.56,-0.06 c -0.08,0.47 -0.17,0.94 -0.25,1.41 a 32.91,32.91 0 0 1 5.33,0.9 h -0.28 c -0.48,0.08 -0.28,0.2 0.1,0.3 h -0.07 a 21.21,21.21 0 0 1 -5.28,-0.06 c -0.09,0.47 -0.16,1 -0.25,1.42 1.54,0.17 4,0.52 3.47,1.26 -0.35,0.53 -2,0.53 -3.76,0.36 -0.09,0.51 -0.19,1 -0.29,1.51 a 13.49,13.49 0 0 1 1.31,0.41 1.56,1.56 0 0 0 1,0.8 0.53,0.53 0 0 0 0.26,0 0.39,0.39 0 0 1 0.08,0.1 c 0.53,1 1.73,1.26 2.74,1.47 1.01,0.21 2.26,0.46 1.92,1.21 -0.34,0.75 -1.59,0.46 -2.77,0.15 a 10.89,10.89 0 0 0 -4.61,-0.34 c -0.18,0 -0.4,0 -0.64,0.07 q -1.2,6.08 -2.57,12.11 a 2.29,2.29 0 0 0 3.08,0.15 c 0,0 0,0 0,0.06 a 2,2 0 0 0 0.72,0.86 9.76,9.76 0 0 1 -0.66,2.53 42.08,42.08 0 0 1 -1.65,4.49 c -0.65,-0.05 -1.91,-0.18 -3.32,-0.34 -0.09,0.39 -0.19,0.79 -0.29,1.18 0.75,0.11 1.44,0.22 1.88,0.32 1,0.25 1.25,0.38 0.94,1 -0.23,0.45 -1.95,0.3 -3.16,0.1 l -0.81,3.33 c 0.59,0.57 2.26,1 3.91,1.19 0,0.17 0,0.32 0,0.45 0,0.13 0,0.27 0,0.5 l -3.66,-0.85 c -0.17,0 -0.39,-0.08 -0.62,-0.11 q -3,12.12 -6.41,24.14 c 0.77,0.2 1.4,0.47 1.14,1 -0.26,0.53 -0.83,0.53 -1.54,0.41 q -3.78,13.24 -8,26.34 a 36.42,36.42 0 0 0 4,0.41 l 1,0.07 a 1.3,1.3 0 0 0 0.45,1.49 c -1.89,-0.28 -3.93,-0.72 -5.67,-1.13 q -3.92,11.94 -8.25,23.74 a 0.56,0.56 0 0 1 0.3,0.73 0.77,0.77 0 0 1 -0.74,0.46 c -1,2.63 -1.93,5.25 -2.93,7.86 l -3,7.81 a 40.41,40.41 0 0 1 -1.33,4.06 h -0.22 c -0.19,0.49 -0.37,1 -0.55,1.46 0.27,0.16 0.28,0.35 0.12,0.72 -0.06,0.13 -0.25,0.2 -0.49,0.24 l -1.5,4 a 26.9,26.9 0 0 0 5.49,0.78 45.06,45.06 0 0 1 5.13,0.66 c -0.14,0.32 -0.28,0.75 -0.31,0.85 -0.03,0.1 0,0.16 0,0.3 -2.91,0.13 -7.72,-1.08 -10.56,-1.79 q -2.57,6.84 -5,13.71 a 0.14,0.14 0 0 1 0,0.06 c -0.31,0.88 -0.63,1.76 -0.93,2.64 0,0 0,0 0,0.07 q -1.2,3.48 -2.35,7 a 5.84,5.84 0 0 0 1.32,0.43 c 1,0.22 1.86,0.48 1.6,1.18 -0.26,0.7 -1.29,0.5 -2.31,0.2 -0.34,-0.1 -0.71,-0.2 -1.1,-0.28 q -2.1,6.44 -3.93,12.91 a 2.24,2.24 0 0 0 1.34,-0.62 c 1,-0.8 0.35,2.67 0,3.56 a 47.13,47.13 0 0 1 -1.31,4.53 c -0.42,0 -1.15,-0.11 -2,-0.21 l -0.3,1.21 a 9,9 0 0 1 0.89,0.19 c 0.91,0.25 1,0.41 0.81,1 -0.15,0.34 -1.12,0.33 -2,0.22 -0.29,1.19 -0.57,2.39 -0.84,3.58 1.59,0.86 5.62,1.16 6.45,1.17 0.39,0 2.46,0.2 4.18,0.48 a 0.81,0.81 0 0 0 0.12,0.41 c 0,0 -0.07,0 0,0 0.07,0 0.11,0.61 0.16,0.91 -3.25,0.06 -8.59,-1.39 -11,-2 h -0.09 q -1.23,5.55 -2.17,11.18 c 2.93,0.25 5.46,0.41 7.51,0.5 6.91,0.32 8.22,0 8.25,-0.22 0.03,-0.22 -0.72,-0.62 -2.8,-1.17 -2.32,-0.61 3.14,0.16 4.39,0.24 1.47,0.08 7.35,1 8.37,2.26 1.02,1.26 0.91,1.09 1.45,-0.25 0.54,-1.34 4.45,-1.1 6.35,-0.48 1.22,0.41 5.62,0.78 6.07,0.32 1.68,-1.72 5.14,-0.09 5.33,1.3 0.19,1.39 -0.16,1.22 0.87,0.07 a 3.82,3.82 0 0 1 2.9,-1.25 18.2,18.2 0 0 0 2.44,0.17 c 1.34,0 4.26,-0.11 5.71,-0.24 1.88,-0.16 5.32,-0.16 6.21,0.85 0.89,1.01 0.69,0.85 1.16,0.12 1,-1.48 2.72,-1 2.62,0.82 -0.06,1.17 0.75,0.33 1.58,-0.47 a 5.56,5.56 0 0 1 1.78,-1.2 c -0.19,0.6 0.64,0.58 0.94,-0.17 a 2.57,2.57 0 0 1 0.67,0.06 14.31,14.31 0 0 0 4.73,0.16 c 2.5,-0.22 3.29,0.29 3.84,2.16 0.17,0.56 0.53,1.78 0.72,2.44 0.11,-0.71 0.12,-1.73 0.24,-2.41 0.41,-2.43 1.94,-2.52 5.38,-2.79 2.14,-0.17 6.27,-0.27 8.16,-0.26 a 14.07,14.07 0 0 0 4.35,-0.32 70.7,70.7 0 0 1 17.25,-2.85 c 2.47,0 0.56,0 0.89,-0.65 a 3.61,3.61 0 0 1 2.56,-1.55 c 1.12,-0.17 2.61,-0.72 2.59,-1.48 -0.02,-0.76 1.64,-0.18 2.31,0 0.67,0.18 2.54,0.74 2,-0.35 -0.54,-1.09 1.82,-1.37 2.55,-1.61 0.73,-0.24 2.56,-0.17 2.22,-0.77 -0.34,-0.6 4.85,-3 6.3,-3.51 1.45,-0.51 6.33,-2.73 7.27,-3.74 0.94,-1.01 2.16,-0.64 3.29,-0.71 1.61,-0.1 2.45,-0.08 1.49,-1 -0.96,-0.92 -1.53,-0.79 0,-1.6 2.66,-1.37 6.11,-4.34 7.13,-6.83 a 0.77,0.77 0 0 0 0.09,-0.38 c 0.07,0 0.33,0 1.18,-0.33 9.41,-4.13 13.94,-15.45 17.18,-24.07 z"
           id="path56"
           style="fill:#644a30" />
      </g>
      <g
         id="g6088">
        <path
           id="ellipse23870-2-2-84"
           class="cls-4"
           d="m 898.74,293.47 c -5.3,-3.53 -19.46,-7.06 -24.46,-7.12 -32.68,-0.42 -55.94,19.21 -69.15,44.11 0.35,0.06 0.41,0.25 0.63,0.19 3.12,-0.91 3.56,-5.72 4.1,-8.29 a 50.12,50.12 0 0 1 2.95,-4.66 48.13,48.13 0 0 1 4.42,-5.19 78.1,78.1 0 0 0 -18.05,35 c -1.27,5.38 -1.81,12.81 -2.46,18.59 0.94,0.75 1.06,1.47 2.16,2.15 a 27.17,27.17 0 0 0 4.21,1.75 c 2.93,-0.41 7.55,-1.07 10.11,-1.18 a 43.38,43.38 0 0 1 5.56,0.33 36.38,36.38 0 0 1 4.3,0.11 c 1.92,0.25 4.5,0.93 6.55,1.36 2.05,0.43 3.89,0.78 6,1.28 2.11,0.5 4.93,1.3 6.88,1.9 1.95,0.6 2.8,1.18 4.72,1.68 1.92,0.5 3.94,0.67 6.09,1.19 2.15,0.52 4.76,1.44 7,2 a 59.63,59.63 0 0 0 6.28,1.69 49.86,49.86 0 0 0 6.83,0.73 c 2.89,0.13 8.79,-0.17 11.66,-0.36 2.87,-0.19 3.77,-0.1 6.32,-0.32 2.55,-0.22 5.4,-0.7 8,-1 l 7.56,-1 c 2.7,-0.35 6.35,-1 9,-1.33 2.65,-0.33 4.51,-0.52 7,-0.67 2.49,-0.15 4.85,-0.4 7.48,-0.33 2.63,0.07 5.34,1.14 8.06,1.51 4.16,-8.38 9.07,-17.56 8.28,-26.81 -1.36,-16 -9.71,-27.54 -21.45,-38.66 -9.65,-5.57 -17.63,-11.84 -26.58,-18.65 z"
           style="fill:#ff7800" />
        <path
           id="path23874-2-7-9"
           class="cls-5"
           d="m 864,300.52 a 9.2,9.2 0 0 0 -5.8,0 c -8.85,3.25 -14.53,17.8 -23.17,18.34 -8.64,0.54 17,-16.84 4,-16.41 -14.6,0.48 -29.65,25.38 -33.47,39.32 -1.53,5.59 -3.84,20.56 -2.18,27.63 2.83,0.6 7.38,-0.56 9.88,-0.6 2.5,-0.04 3.65,0.24 5.55,0.35 a 41.13,41.13 0 0 1 4.29,0.12 c 1.91,0.26 4.51,0.93 6.55,1.36 2.04,0.43 3.89,0.77 6,1.28 2.11,0.51 4.93,1.3 6.88,1.9 1.95,0.6 2.8,1.18 4.72,1.68 1.92,0.5 3.94,0.67 6.09,1.19 2.15,0.52 4.76,1.44 7,2 a 62,62 0 0 0 6.27,1.69 50.23,50.23 0 0 0 6.82,0.73 c 2.87,0.13 8.85,-0.17 11.64,-0.35 2.79,-0.18 3.92,-0.12 6.22,-0.32 2.3,-0.2 5.7,-0.71 7.56,-1 1.86,-0.29 1.77,-0.11 3.29,-0.42 1.13,-5.7 1.72,-16.95 1.1,-21.8 -2.82,-21.68 -14.82,-50.34 -39.24,-56.69 z"
           style="fill:#ff9109" />
        <path
           id="path1974-8"
           class="cls-6"
           d="m 826,325.58 c 10.05,2.87 6.13,14.39 3.28,21.05 -2.85,6.66 -8.17,19.28 -17.66,16.24 -9.49,-3.04 -6.49,-14.37 -3.72,-21.31 2.77,-6.94 8.1,-18.85 18.1,-15.98 z"
           style="fill:#ffb120" />
        <path
           id="ellipse23870-2-64-38"
           class="cls-4"
           d="m 961.46,267.45 c -9,2.85 -9.06,0.83 -19.68,6.57 -9.42,5.1 -22.36,16 -28.36,29.25 -3.84,8.47 -9.56,23.43 -10.06,33.88 1.7,1.06 3.55,1.26 5.56,1.76 a 56.09,56.09 0 0 0 6,1.44 48.67,48.67 0 0 0 6.51,0.65 c 2.77,0.11 8.46,-0.18 11.22,-0.32 2.76,-0.14 3.61,0 6.09,-0.16 2.48,-0.16 5.3,-0.54 7.86,-0.77 2.56,-0.23 4.61,-0.48 7.28,-0.78 2.67,-0.3 6.29,-0.88 9,-1.25 2.71,-0.37 4.29,-0.55 7,-0.7 a 71.75,71.75 0 0 1 8,-0.39 c 3.27,0.11 7.37,1 11.21,1 3.84,0 5.29,0.19 10.11,0.05 4.82,-0.14 6.25,0.41 14.08,0.18 7.83,-0.23 26.29,-0.24 35.61,-2.62 -0.19,-10.31 -8.94,-29.76 -13.27,-36.65 -11.71,-18.65 -34.57,-26.7 -50.58,-29.45 -8.78,-1.51 -5.4,-0.3 -7.64,-0.52 -7.78,-0.78 -9.85,-0.36 -15.94,-1.17 z"
           style="fill:#ff7800" />
        <path
           id="path23874-2-7-9-2"
           data-name="path23874-2-7-9"
           class="cls-5"
           d="m 1003.19,279.33 c -9.92,-3.6 -15.24,-6.59 -23,-4.8 -9.55,2.19 -13.42,9.16 -22.52,10.58 -0.64,0.09 -0.62,-0.08 -1.38,-0.27 -3.06,-0.77 -1.2,-5 -4.38,-5.66 -4.49,-1 -8,2.41 -12.07,8.65 -1.35,2.09 -7.49,14.7 -8.06,22.67 -0.25,3.38 -3.61,21.08 -2.44,26.67 3.18,0.83 8.25,-0.5 11.15,-0.62 2.9,-0.12 4.48,0 6.76,-0.06 2.28,-0.06 2.86,-0.38 5.2,-0.29 2.34,0.09 5.69,0.48 8.25,0.61 2.56,0.13 4.88,0.17 7.51,0.33 2.63,0.16 6.28,0.55 8.75,0.85 2.47,0.3 3.59,0.71 6,0.9 2.41,0.19 4.82,0 7.45,0.26 2.63,0.26 6,0.69 8.68,0.92 2.68,0.23 4.87,0.65 7.53,0.92 2.66,0.27 4.53,0.48 7.6,0.59 3.07,0.11 9.27,-0.15 12.18,-0.23 2.91,-0.08 4,-0.11 6.33,-0.25 2.33,-0.14 5.59,-0.76 7.46,-1 a 15.14,15.14 0 0 1 3.3,-0.33 c 3.29,-10.52 5,-18.55 0.82,-29.8 -5.96,-16.1 -26.19,-25.22 -41.12,-30.64 z"
           style="fill:#ff9109" />
        <path
           id="path23882-1-8-1"
           class="cls-7"
           d="m 865.64,293.59 c -0.08,2.62 2.42,4.29 2.75,6.94 0.68,5.32 0.09,10.63 -0.63,16 -0.36,2.67 -1.71,5.22 -2.71,7.73 a 65.57,65.57 0 0 0 2,-7.94 c 0.38,-2.64 0.58,-5.26 0.74,-7.87 a 74.16,74.16 0 0 0 0.13,-7.87 15.91,15.91 0 0 0 -2.31,-7 c -0.61,-1.08 -0.25,-0.12 0.03,0.01 z"
           style="fill:#e85100" />
        <path
           id="path23884-0-5-0"
           class="cls-7"
           d="m 866.39,295.73 a 16.79,16.79 0 0 1 2.92,2 25,25 0 0 1 2.76,2.86 9.71,9.71 0 0 1 1.9,3.59 23.36,23.36 0 0 1 0.56,4.17 c -0.38,-1.25 -0.77,-2.56 -1.22,-3.78 a 12.51,12.51 0 0 0 -1.72,-3.4 c -0.8,-1 -1.67,-1.92 -2.53,-2.85 -0.86,-0.93 -1.75,-1.72 -2.67,-2.59 z"
           style="fill:#e85100" />
        <path
           id="path23886-1-83-3"
           class="cls-7"
           d="m 869.32,292.64 a 9.65,9.65 0 0 1 3.31,1.16 38.23,38.23 0 0 1 6.78,5.73 23.06,23.06 0 0 1 2.75,3.93 c -1,-1.13 -2.07,-2.4 -3.15,-3.43 -1.08,-1.03 -2.21,-2.09 -3.28,-3 a 18.61,18.61 0 0 0 -3.19,-2.47 c -1.17,-0.6 -2.54,-0.93 -3.22,-1.93 -0.41,-0.63 0.08,-0.13 0,0.01 z"
           style="fill:#e85100" />
        <path
           id="path23888-3-0-7"
           class="cls-7"
           d="m 868.69,289.9 a 9.79,9.79 0 0 0 2.36,0.45 9.6,9.6 0 0 1 2.44,0.69 c 0.77,0.19 1.77,0.55 2.64,0.81 0.87,0.26 1.89,0.68 2.75,1 a 20.88,20.88 0 0 1 -2.73,-0.19 13.37,13.37 0 0 1 -2.59,-0.61 17.55,17.55 0 0 1 -2.46,-1 c -0.79,-0.43 -1.52,-1.29 -2.41,-1.18 z"
           style="fill:#e85100" />
        <path
           id="path23890-8-6-4"
           class="cls-7"
           d="m 857,294.52 c -2.11,1.1 -4.15,2.05 -6.27,3.18 -2.12,1.13 -4.28,2.38 -6.3,3.7 -2.02,1.32 -4,2.71 -5.88,4.17 -1.88,1.46 -3.84,3.13 -5.73,4.67 a 61.41,61.41 0 0 1 5.21,-5.37 54.2,54.2 0 0 1 5.9,-4.48 50.16,50.16 0 0 1 6.5,-3.56 57.54,57.54 0 0 1 6.57,-2.31 z"
           style="fill:#e85100" />
        <path
           id="path23880-0-2-3"
           class="cls-7"
           d="m 862.16,295.54 c -2.92,1.11 -3.45,4 -5.44,6.24 -1.99,2.24 -4.6,4.53 -6.88,6.76 -2.28,2.23 -4.48,4.35 -6.88,6.63 -2.4,2.28 -5.25,4.7 -7.85,6.87 l 7.27,-7.47 c 2.28,-2.36 4.35,-4.65 6.68,-6.78 2.33,-2.13 4.62,-4.8 7.12,-6.43 2.5,-1.63 5.15,-3.39 6,-5.82 0.61,-1.83 -0.33,-0.34 -0.02,0 z"
           style="fill:#e85100" />
        <path
           id="path3432-2-8"
           class="cls-8"
           d="m 862.45,298 c -3.39,1.51 -5.58,-1.61 -7.48,-3.74 a 7.79,7.79 0 0 1 -1.92,-3.5 1.57,1.57 0 0 1 0.11,-1.09 7.45,7.45 0 0 1 3.07,-3.2 8.86,8.86 0 0 1 4.81,-1.17 13.49,13.49 0 0 1 6.64,2.29 5.17,5.17 0 0 1 2.44,3.17 6.73,6.73 0 0 1 -2,6.49 c -1.22,1.26 -2.71,1.2 -4.41,1.12 -0.26,0 -0.93,-0.5 -1.18,-0.41 -0.25,0.09 0.02,0.04 -0.08,0.04 z"
           style="fill:#006322" />
        <path
           id="path3432-3-7-3"
           class="cls-9"
           d="m 862.57,297.53 c -1.91,-1.77 -4.55,-2.21 -6.66,-3.64 -1.18,-0.8 -1.39,-1.92 -1.83,-3.12 a 1.34,1.34 0 0 1 0.11,-1 6.68,6.68 0 0 1 2.65,-2.86 7.86,7.86 0 0 1 4.38,-1.07 12.39,12.39 0 0 1 6.08,2.1 4.69,4.69 0 0 1 2.23,2.9 6.16,6.16 0 0 1 -1.79,6 c -1.13,1.16 -2.5,1 -4.09,1 a 2.21,2.21 0 0 1 -1.08,-0.31 c -0.2,-0.18 -0.04,-0.1 0,0 z"
           style="fill:#009047" />
        <path
           id="path23894-4-6-3-1-9"
           class="cls-8"
           d="m 867.71,291.22 c 0.73,1.91 -1,3 -2.39,3.34 -3.27,0.72 -7.14,0 -8.11,-3 -0.97,-3 1.74,-4.76 4.77,-4.76 2.47,0.04 5.02,2.51 5.73,4.42 z"
           style="fill:#006322" />
        <path
           id="ellipse23870-2-3"
           class="cls-4"
           d="m 1041.06,302.22 c -22.9,7.78 -37.09,22.15 -45.3,43.11 -4.22,10.76 -3.65,22.39 -2.55,33.7 36.37,-4.48 52.54,3.87 91.43,-7.77 19.14,-5.73 20.24,-16.53 38.47,-22.94 -10.63,-23.53 -27.51,-43 -55.6,-48.13 a 48.87,48.87 0 0 0 -26.45,2.03 z"
           style="fill:#ff7800" />
        <path
           id="path23872-3-6"
           class="cls-10"
           d="m 1070.1,299.92 c 10.5,10.67 19.84,20.06 29.2,31.95 3.08,3.93 6.17,10.53 8.37,15.83 a 35.87,35.87 0 0 1 2,6.35 c 4.39,-2.5 9.44,-3.85 13.88,-6.26 -0.48,-4.17 -6.6,-13 -8.21,-15.59 -4,-6.51 -11.79,-15 -15.78,-18 -10.96,-8.12 -17.98,-9.63 -29.46,-14.28 z m -72.9,59.87 c -4.55,1.51 -2,14.89 0.19,18.34 a 10.39,10.39 0 0 0 5.89,-0.74 c -2.41,-2.94 -1.53,-19.12 -6.08,-17.6 z"
           style="fill:#ff6200" />
        <path
           id="path23874-2-3"
           class="cls-5"
           d="m 1039.86,311.77 c -20.75,6.65 -33.9,21.29 -40.47,39.89 -3.26,9.26 -0.42,17.41 0.39,26.67 a 102.64,102.64 0 0 1 14.62,-1 c 0.17,-0.95 0.19,-4.2 1.78,-4 1.59,0.2 1.34,2.95 1.74,4 29.58,6.49 38.4,2.18 66.44,-6 6.2,-1.81 7.27,-2.32 12,-5.24 0.25,-7.6 0.69,-16.77 -2.4,-23.67 -6.89,-15.4 -17.6,-26.15 -33.67,-31.57 -8.23,-2.77 -13.51,-1.3 -20.43,0.92 z"
           style="fill:#ff9109" />
        <path
           id="path1974-1"
           class="cls-6"
           d="m 1033.42,332.9 c 7.09,-1 11,7 12.74,12.14 1.74,5.14 2.77,14.66 -4.61,15.63 -7.38,0.97 -10.84,-8.45 -12.3,-13.4 -1.46,-4.95 -2.93,-13.27 4.17,-14.37 z"
           style="fill:#ffb120" />
        <path
           id="ellipse23870-2-64-38-2"
           data-name="ellipse23870-2-64-38"
           class="cls-4"
           d="m 941,309.41 c -13.71,1 -15.19,-0.79 -32,3.84 -11.22,3.08 -32.75,13.42 -41.2,27.81 -5.41,9.22 -12,24.07 -13,35.61 1.71,1.14 3.6,1.46 5.67,2.06 a 49.07,49.07 0 0 0 6.17,1.68 50.54,50.54 0 0 0 6.81,0.72 c 2.87,0.12 8.79,-0.17 11.65,-0.36 2.86,-0.19 3.77,-0.1 6.32,-0.32 2.55,-0.22 5.39,-0.7 8,-1 2.61,-0.3 4.83,-0.63 7.56,-1 2.73,-0.37 6.28,-1 9,-1.33 2.72,-0.33 4.3,-0.56 7.13,-0.67 a 58.65,58.65 0 0 1 7.93,-0.27 c 3.61,0.23 7.79,2 12.39,2.51 4.6,0.51 6.35,1.2 12.69,1.51 6.34,0.31 8.63,1.18 19.22,0.53 10.59,-0.65 35.78,-6 48.82,-1.89 -0.27,-42.36 -27.11,-56.5 -67.91,-66.44 -5.65,-1.38 -10.34,-0.3 -15.27,-3 -0.11,0.25 -0.11,0.23 0.02,0.01 z"
           style="fill:#ff7800" />
        <path
           id="ellipse23870-2-40"
           class="cls-4"
           d="M 880.61,248.35 A 58.69,58.69 0 0 0 841.18,257 c -25.07,16 -37.91,38.63 -26.11,66.37 3.23,0.72 4.27,0.78 7.84,1.44 30.11,5.57 64.46,9.51 93.85,16.39 16.64,-19.26 20.07,-42.44 6.71,-65.35 -8.63,-14.79 -23.94,-25.05 -42.86,-27.5 z"
           style="fill:#ff7800" />
        <path
           id="path23872-3-60"
           class="cls-10"
           d="m 884.18,250.94 c -4.47,5.36 -24.73,3.88 -23.74,3.9 0.99,0.02 20,-1.3 29.19,2.62 3.68,1.57 22.49,9.91 26,17.35 4.63,9.73 6.56,27 3.31,35.55 -5.27,13.91 -10.51,17.86 -19.9,27.73 6.06,0.28 11.76,1.83 17.62,3.11 12.13,-12.9 15.89,-26.37 16.24,-43.53 0.17,-8.53 -9.51,-23.93 -13.41,-29 -6.44,-8.37 -13.27,-9.12 -18.51,-13.49 -4.21,-3.52 -15.32,-6 -16.82,-4.24 -1.27,-0.02 -1.03,0 0.02,0 z"
           style="fill:#ff6200" />
        <path
           id="path23874-2-40"
           class="cls-5"
           d="m 875.51,252.63 c -5.24,3.07 -18.28,0.3 -26.68,4.93 -22.4,12.35 -40.29,40.83 -24.9,64.84 a 17.27,17.27 0 0 0 2.51,3.06 c 16.84,3.84 33.09,9 50.34,10.78 11.54,-11.21 16.88,-18.69 22.2,-34.65 2.75,-8.22 8.29,-25.2 -1.1,-33.55 -7,-6.23 -21.11,0.85 -22.93,-4.12 -1.82,-4.97 14.59,-0.95 13.73,-8 -0.48,-4 -7.93,-6.39 -13.17,-3.31 -1.17,1.2 5.24,-3.06 0,0.02 z"
           style="fill:#ff9109" />
        <path
           id="path1974-9"
           class="cls-6"
           d="m 856.27,278.6 c 8.61,0.7 9.36,10 8.2,16.31 -1.16,6.31 -5.47,15.41 -14.05,14 -8.58,-1.41 -9.8,-9.62 -8.48,-16.09 1.32,-6.47 5.71,-14.92 14.33,-14.22 z"
           style="fill:#ffb120" />
        <path
           id="path3432-23"
           class="cls-8"
           d="m 901.69,268.89 c -3.09,-1.19 -1.75,-4.69 -1.3,-6.91 a 5.26,5.26 0 0 1 1.58,-3.05 1.43,1.43 0 0 1 0.89,-0.49 7.23,7.23 0 0 1 4.42,0.6 20.42,20.42 0 0 1 5.61,4 16.41,16.41 0 0 1 4.19,7.19 c 0.33,1.62 0.64,2.45 -0.71,3.35 -2.56,1.74 -5.42,0.92 -8.47,0.07 a 11.29,11.29 0 0 1 -5.36,-3.51 c -0.21,-0.24 -0.53,-1.09 -0.85,-1.21 z"
           style="fill:#006322" />
        <path
           id="path3432-3-71"
           class="cls-9"
           d="m 901.46,269.21 c -2.39,-1.24 -2.68,-3.49 -2.91,-5.72 a 4.82,4.82 0 0 1 0.58,-3.1 1.22,1.22 0 0 1 0.66,-0.64 6.54,6.54 0 0 1 4.06,-0.51 18.92,18.92 0 0 1 6,2.16 15.37,15.37 0 0 1 5.57,5.33 c 0.69,1.34 1.21,2 0.25,3.15 -1.81,2.13 -4.52,2.1 -7.44,2.07 a 11.26,11.26 0 0 1 -5.67,-1.85 c -0.25,-0.16 -0.77,-0.74 -1,-0.84 -0.23,-0.1 -0.09,-0.02 -0.1,-0.05 z"
           style="fill:#009047" />
        <path
           id="path23894-4-6-3-8"
           class="cls-8"
           d="m 913,269 c 0.14,1.88 -5.13,0.68 -6.22,0.18 -2.53,-1.15 -7.52,-3.55 -5.92,-6.63 1.6,-3.08 6.62,-1.65 9,0 2,1.3 3,4.6 3.13,6.49 0.12,0.96 0.52,0.09 0.01,-0.04 z"
           style="fill:#006322" />
        <path
           id="path23882-1-68"
           class="cls-7"
           d="m 908.56,268.51 a 29.26,29.26 0 0 1 -2.32,6 52,52 0 0 1 -8,10.45 65.92,65.92 0 0 1 -5.24,4.59 c 1.52,-1.67 3.18,-3.36 4.65,-5 1.47,-1.64 2.92,-3.29 4.23,-5 1.31,-1.71 2.5,-3.47 3.66,-5.29 a 63,63 0 0 0 3.02,-5.75 z"
           style="fill:#e85100" />
        <path
           id="path23884-0-53"
           class="cls-7"
           d="m 907.55,270.66 c 1.22,0.43 1.42,1.58 1.79,2.63 a 11.83,11.83 0 0 1 0.73,3.18 9.77,9.77 0 0 1 -0.33,3.18 13.35,13.35 0 0 1 -1.36,3 c 0.18,-1 0.44,-2.06 0.55,-3.06 a 14.3,14.3 0 0 0 0.08,-3 9.33,9.33 0 0 0 -0.51,-3 6.82,6.82 0 0 1 -1,-2.93 c 0.18,-0.66 0.12,-0.06 0.05,0 z"
           style="fill:#e85100" />
        <path
           id="path23886-1-7"
           class="cls-7"
           d="m 913.94,270.57 a 14.05,14.05 0 0 1 2.89,2.76 13,13 0 0 1 2.4,7 9.72,9.72 0 0 1 -0.68,3.49 26.84,26.84 0 0 0 -0.13,-3.47 18.72,18.72 0 0 0 -0.79,-3.43 17.37,17.37 0 0 0 -1.51,-3.25 35.82,35.82 0 0 0 -2.18,-3.1 z"
           style="fill:#e85100" />
        <path
           id="path23888-3-68"
           class="cls-7"
           d="m 915.39,268.71 a 30.57,30.57 0 0 1 2.54,1.8 c 0.81,0.64 1.61,1.32 2.36,2 0.75,0.68 1.47,1.45 2.17,2.18 0.7,0.73 1.33,1.46 1.95,2.23 a 27,27 0 0 1 -2.56,-1.76 c -0.81,-0.65 -1.6,-1.34 -2.36,-2 -0.76,-0.66 -1.47,-1.4 -2.17,-2.13 -0.7,-0.73 -1.32,-1.52 -1.93,-2.32 z"
           style="fill:#e85100" />
        <path
           id="path23890-8-67"
           class="cls-9"
           d="m 899,264.42 c -1.91,-0.28 -3.81,-0.62 -5.74,-0.82 -1.93,-0.2 -3.85,-0.34 -5.79,-0.39 -1.94,-0.05 -3.88,0 -5.83,0.13 -1.95,0.13 -3.91,0.31 -5.85,0.46 a 47.35,47.35 0 0 1 5.79,-1.25 38.11,38.11 0 0 1 5.94,-0.34 39.86,39.86 0 0 1 5.9,0.61 37.91,37.91 0 0 1 5.58,1.6 z"
           style="fill:#009047" />
        <path
           id="path23880-0-18"
           class="cls-7"
           d="m 902.89,267.62 c -0.84,2.5 -4.72,1.54 -7.14,1.93 -2.42,0.39 -5,1.06 -7.44,1.52 -2.44,0.46 -5,1 -7.48,1.52 -2.48,0.52 -5,1 -7.49,1.35 2.42,-0.71 4.87,-1.47 7.32,-2.1 2.45,-0.63 5,-1.22 7.44,-1.72 2.44,-0.5 5.14,-0.94 7.48,-1.36 2.34,-0.42 5.25,-0.84 7.31,-1.14 1.26,-0.18 0.11,0 0,0 z"
           style="fill:#e85100" />
        <path
           id="path23872-3-78-6"
           class="cls-10"
           d="m 973.8,315.79 c -1.3,1.43 -2.75,-0.18 -6.72,0.54 -9.63,1.74 -24.12,6.56 -33.65,12.82 -16.24,14 -23.12,32.22 -21.15,54.78 5,0.45 10.06,0.33 14.89,1.11 -0.12,-14.87 -1.61,-20.49 5.14,-36.09 3.91,-9 21.62,-21.34 31.69,-25 7.71,-2.82 28.26,0.69 31.83,0.86 8.94,0.42 26.19,16 27.19,11.07 1,-4.93 -25.85,-18.93 -33.66,-18.71 -1.83,0.05 -11.67,-5.67 -15.56,-1.36 0.42,-0.1 0.56,-0.11 0,-0.02 z"
           style="fill:#ff6200" />
        <path
           id="path23874-2-4-8"
           class="cls-5"
           d="m 996.92,324.33 c -2.2,5.91 11.43,11.28 7.19,13.95 -4.24,2.67 -13.5,-10.14 -22.11,-9.23 -11.53,1.21 -23.38,18.29 -27.42,26.57 -6.38,13.11 -6.39,17.5 -8.54,30 2.71,-0.46 4.06,0 6.92,-0.12 2.86,-0.12 7.35,-0.39 10.38,-0.65 3.03,-0.26 5.45,-0.44 8.43,-0.75 2.98,-0.31 7,-1.49 9.8,-1.78 a 52,52 0 0 1 7.06,0 57.2,57.2 0 0 1 6.36,0.37 c 2.46,0.25 5.86,0.85 8.35,1.12 l 6.86,0.77 c 2.4,0.27 5.09,0.75 7.41,0.95 2.32,0.2 3,0.1 5.6,0.3 2.6,0.2 8.64,0.63 11.24,0.59 a 46.58,46.58 0 0 0 6.1,-0.51 6.73,6.73 0 0 0 3.4,-1 c 1.45,-13.66 -6.1,-30.72 -13.22,-39.76 -10.84,-13.77 -18.56,-18.15 -33.36,-21.38 -0.98,-0.25 -0.29,0.15 -0.45,0.56 z"
           style="fill:#ff9109" />
        <path
           id="path23882-1-6-2"
           class="cls-7"
           d="m 972.07,324.44 c -0.9,1.63 -0.54,4.4 -0.13,6.41 0.41,2.01 0.27,4.3 0.73,6.38 0.46,2.08 0.91,4.21 1.57,6.26 0.66,2.05 1.5,4.11 2.36,6.08 a 29.42,29.42 0 0 1 -3.19,-5.83 34.31,34.31 0 0 1 -2.21,-12.89 c 0.09,-2.25 2.11,-4.31 0.87,-6.41 0.17,-0.08 0.56,-1.01 0,0 z"
           style="fill:#e85100" />
        <path
           id="path23884-0-2-97"
           class="cls-7"
           d="m 969.43,329 a 24,24 0 0 0 -2.27,2.68 20.47,20.47 0 0 0 -1.77,2.94 c -0.51,1 -0.89,2.1 -1.3,3.19 a 11,11 0 0 1 0.48,-3.46 11.35,11.35 0 0 1 1.68,-3.19 15.33,15.33 0 0 1 2.6,-2.68 17.77,17.77 0 0 1 3.16,-2 c -0.85,0.81 -1.76,1.67 -2.58,2.52 z"
           style="fill:#e85100" />
        <path
           id="path23886-1-47-3"
           class="cls-7"
           d="m 966.39,323.9 a 8.8,8.8 0 0 0 -3.61,2 c -1,0.82 -2.21,1.54 -3.18,2.46 a 30.43,30.43 0 0 0 -2.74,2.93 39,39 0 0 0 -2.33,3.34 13.59,13.59 0 0 1 1.69,-3.74 17.43,17.43 0 0 1 6.22,-5.57 c 1.25,-0.63 3.09,0 3.95,-1.38 0.09,-0.01 0.61,-0.13 0,-0.04 z"
           style="fill:#e85100" />
        <path
           id="path23888-3-4-4"
           class="cls-7"
           d="m 966.31,321.56 c -0.4,0.86 -2,1.18 -2.94,1.34 -0.94,0.16 -2,0.74 -3,1 -1,0.26 -2,0.59 -3.06,0.81 -1.06,0.22 -2.09,0.42 -3.13,0.55 1,-0.47 1.94,-0.91 2.93,-1.29 0.99,-0.38 2,-0.72 3,-1 1,-0.28 2,-0.58 3.06,-0.83 a 11,11 0 0 1 3.11,-0.54 c -0.04,-0.09 0.27,-0.6 0.03,-0.04 z"
           style="fill:#e85100" />
        <path
           id="path23890-8-18-8"
           class="cls-7"
           d="m 983.09,323.56 c 2,-1 4,-0.15 5.95,0.25 a 54.78,54.78 0 0 1 5.68,1.31 c 1.82,0.59 3.47,1.19 5.17,1.93 a 31.11,31.11 0 0 1 4.75,2.65 c -1.72,-0.65 -3.4,-1.33 -5.14,-1.9 -1.74,-0.57 -3.4,-1.18 -5.2,-1.72 a 45.08,45.08 0 0 0 -5.52,-1.42 c -1.91,-0.32 -3.95,0 -5.69,-1.1 z"
           style="fill:#e85100" />
        <path
           id="path23880-0-58-6"
           class="cls-7"
           d="m 977.54,325.2 c 1.83,1.88 4.14,2.35 6.36,3.49 2.22,1.14 4.26,2.47 6.46,3.79 2.2,1.32 4.47,2.66 6.75,4 2.28,1.34 4.67,2.74 6.92,4.15 -2.43,-1.1 -5,-2.28 -7.37,-3.48 a 77.58,77.58 0 0 1 -6.9,-3.77 c -2.18,-1.4 -4.26,-2.47 -6.31,-4.08 -2.05,-1.61 -3.05,-4.25 -5.91,-4.06 z"
           style="fill:#e85100" />
        <path
           id="path3432-37-9"
           class="cls-8"
           d="m 978.54,327.71 c -0.29,0.06 -1.22,0.44 -1.54,0.52 a 12.39,12.39 0 0 1 -6.66,-0.16 c -2.77,-1.09 -5.31,-2.33 -5.72,-5.61 -0.22,-1.72 0.72,-2.17 2.15,-3.2 a 20.07,20.07 0 0 1 8.26,-2.92 23.9,23.9 0 0 1 6.82,0.34 6.42,6.42 0 0 1 3.77,1.94 1,1 0 0 1 0.33,0.88 5.15,5.15 0 0 1 -1.13,3.37 c -1.63,2.27 -3.49,4.2 -6.28,4.84 0,0.02 0.29,-0.07 0,0 z"
           style="fill:#006322" />
        <path
           id="path3432-3-73-8"
           class="cls-9"
           d="m 976.8,327.78 a 11.76,11.76 0 0 1 -6.08,-0.16 c -2.55,-1 -4.87,-2.14 -5.25,-5.14 -0.2,-1.58 0.66,-2 2,-2.93 a 18.54,18.54 0 0 1 7.56,-2.68 21.86,21.86 0 0 1 6.26,0.31 6,6 0 0 1 3.45,1.78 0.91,0.91 0 0 1 0.3,0.81 4.47,4.47 0 0 1 -1.06,3.06 16.37,16.37 0 0 1 -5.74,4.47 12.93,12.93 0 0 1 -1.44,0.48 z"
           style="fill:#009047" />
        <path
           id="path23894-4-6-3-25-0"
           class="cls-8"
           d="m 968,322.66 c -1.26,-0.86 5.28,-5 6.67,-5 1.71,0 8.15,-0.24 7.63,3.42 -0.52,3.66 -6.08,4.59 -9.14,4.08 A 18,18 0 0 1 968,322.61 c -0.12,0.28 -0.13,0.33 0,0.05 z"
           style="fill:#006322" />
        <path
           id="path1974"
           class="cls-6"
           d="m 1027.28,356.23 c 3.15,6.6 1.66,15.07 -7.73,15.88 -9.39,0.81 -16.55,-6.19 -18.55,-13.39 -2,-7.2 0.18,-14 8.8,-15.38 8.62,-1.38 14.32,6.3 17.48,12.89 z"
           style="fill:#ffb120" />
        <path
           id="ellipse23870-2-64-3"
           class="cls-4"
           d="m 740.05,284.83 c -12.2,12.63 -12.86,28.9 -12.94,32.61 a 56.86,56.86 0 0 0 3.6,20.72 c 0.76,-0.12 1.34,-0.42 2.2,-0.55 0.86,-0.13 2,-0.2 2.93,-0.31 l 2,0.72 1.28,1.35 a 49,49 0 0 0 -2.82,9 v 0 c 30.23,2.43 46.44,-1.42 55.76,-5.81 a 171.25,171.25 0 0 1 25.42,-9.91 c 4.42,-1.33 9,-2.5 14.15,-3.56 -0.94,-16.27 -5.18,-33.44 -18.11,-45.46 -16.51,-15.36 -35.86,-4.29 -55.15,-10.08 a 43.78,43.78 0 0 0 -18.32,11.28 z"
           style="fill:#ff7800" />
        <path
           id="path23872-3-78-7"
           class="cls-10"
           d="m 753.9,274.72 a 19.47,19.47 0 0 0 -8.07,5.14 c -10,9.94 -15,14.91 -17.43,21.74 -5.26,14.87 -0.47,29.44 0.88,33.58 a 61.49,61.49 0 0 0 2.26,5.87 l 2.45,4.23 a 7.36,7.36 0 0 0 1.07,2.35 c 6.77,9.73 36,-0.4 39.56,-1.68 A 29.9,29.9 0 0 1 755.91,344.47 26.7,26.7 0 0 1 745,336.85 c -5,-6 -4.78,-12.94 -5.88,-18.42 -1.78,-8.88 2.75,-24.89 9.2,-31.75 4.94,-5.24 21.45,-8.52 24.55,-10 7.76,-3.68 27.6,4.54 26.68,-0.27 C 798.63,271.6 769.76,269 764.1,273 a 14.28,14.28 0 0 1 -4.64,0.84 19.05,19.05 0 0 0 -5.56,0.88 z"
           style="fill:#ff6200" />
        <path
           id="path23874-2-4-1"
           class="cls-5"
           d="m 773.28,275.87 c 0.06,2.27 10.68,3.83 11.46,7.38 a 1.52,1.52 0 0 1 -0.15,1 c -1.83,3.73 -14,-2.8 -20.13,0.92 -8.28,5 -7.64,22.42 -6.35,30 0.52,3.09 0.8,3 5.09,19.16 1.59,6 2.84,10.88 3.65,14.08 v 0 c 15.38,-2.36 16,-2.49 16,-2.49 9.88,-2.13 11.56,-4.88 25.32,-10.18 4,-1.55 9.33,-3.41 15.72,-5.17 3.93,-15.79 -4,-37.32 -16.2,-48.2 a 33.64,33.64 0 0 0 -10.46,-6.61 c -12.53,-4.76 -20.86,-2.12 -22.9,-1 -0.47,0.24 -1.07,0.57 -1.05,1.11 z"
           style="fill:#ff9109" />
        <path
           id="path23882-1-6-0"
           class="cls-7"
           d="m 754.83,284.1 a 51,51 0 0 0 3.18,5.26 c 1.15,1.69 2.35,3.35 3.65,4.92 a 46,46 0 0 0 4.16,4.43 c 1.47,1.38 3,2.59 4.51,3.88 a 37.94,37.94 0 0 1 -5,-3.41 44.21,44.21 0 0 1 -7.91,-9.39 c -1.13,-1.7 -3.71,-3.68 -2.6,-5.69 z"
           style="fill:#e85100" />
        <path
           id="path23884-0-2-9"
           class="cls-7"
           d="m 755.79,286 a 7.12,7.12 0 0 0 -0.51,2.77 c 0,0.91 -0.21,1.88 -0.17,2.83 a 22,22 0 0 0 0.27,2.89 c 0.17,1 0.44,2 0.7,2.93 a 11.77,11.77 0 0 1 -1.41,-2.87 10.75,10.75 0 0 1 -0.5,-3.05 8,8 0 0 1 0.44,-2.95 c 0.36,-0.9 1.64,-1.45 1.18,-2.55 0.05,0 0.21,-0.4 0,0 z"
           style="fill:#e85100" />
        <path
           id="path23886-1-47-7"
           class="cls-7"
           d="m 750.13,285.75 a 5,5 0 0 0 -1.65,2.71 c -0.23,1 -0.86,2 -1,3 a 20.48,20.48 0 0 0 -0.41,3.25 c 0,1.11 0,2.27 0.11,3.39 a 13.6,13.6 0 0 1 -0.87,-3.5 10.62,10.62 0 0 1 1.59,-6.53 c 0.64,-1 2.35,-1 2.27,-2.35 0.06,0.05 0.61,-0.31 -0.04,0.03 z"
           style="fill:#e85100" />
        <path
           id="path23888-3-4-1"
           class="cls-7"
           d="m 748.73,283.81 c -1,0.18 -1.07,1.26 -1.6,2 a 14.24,14.24 0 0 1 -1.8,1.84 c -0.62,0.6 -1.29,1.13 -2,1.67 a 21.15,21.15 0 0 1 -2.16,1.48 21.6,21.6 0 0 1 1.56,-2 21.82,21.82 0 0 1 1.79,-1.81 20.24,20.24 0 0 1 2,-1.66 c 0.73,-0.5 1.67,-0.68 2.17,-1.49 z"
           style="fill:#e85100" />
        <path
           id="path23890-8-18-7"
           class="cls-7"
           d="m 762.53,280.35 c 1.44,0.15 3.08,-1.17 4.48,-1.82 a 20.92,20.92 0 0 1 4.89,-1.11 33.37,33.37 0 0 1 5.1,-0.42 32.5,32.5 0 0 1 5.11,0.34 c -1.69,0.1 -3.39,0.26 -5.07,0.39 -1.68,0.13 -3.34,0.39 -5,0.62 -1.66,0.23 -3.26,0.6 -4.9,0.85 -1.64,0.25 -3.63,-0.25 -4.64,1.17 -0.05,-0.1 -0.86,-0.11 0.03,-0.02 z"
           style="fill:#e85100" />
        <path
           id="path23880-0-58-4"
           class="cls-7"
           d="m 759.51,283.25 c 1.79,-0.19 4.4,0.51 6.44,0.9 2.04,0.39 4.38,0.41 6.51,0.64 2.13,0.23 4.33,0.39 6.48,0.61 2.15,0.22 4.3,0.43 6.44,0.78 -2.16,0 -4.32,0 -6.49,-0.07 -2.17,-0.07 -4.3,-0.23 -6.48,-0.4 -2.18,-0.17 -4.38,-0.53 -6.58,-0.78 -2.2,-0.25 -4.82,0.42 -6.32,-1.68 -0.08,0.06 -1.11,0.12 0,0 z"
           style="fill:#e85100" />
        <path
           id="path3432-37-8"
           class="cls-8"
           d="m 760.51,285.9 a 9.55,9.55 0 0 1 -5.11,1.85 c -2.79,0 -5.54,-0.36 -7.51,-2.6 -1,-1.17 -0.67,-1.85 -0.08,-3.16 a 12.12,12.12 0 0 1 4.5,-4.91 17.33,17.33 0 0 1 5.22,-2 6.08,6.08 0 0 1 3.87,0.38 1.49,1.49 0 0 1 0.73,0.62 5.29,5.29 0 0 1 1,3.12 9.84,9.84 0 0 1 -1.8,5.87 4.62,4.62 0 0 1 -0.82,0.83 z"
           style="fill:#006322" />
        <path
           id="path3432-3-73-2"
           class="cls-9"
           d="m 760.91,284.79 a 8.33,8.33 0 0 1 -0.79,0.78 8.64,8.64 0 0 1 -4.67,1.7 c -2.55,0.05 -5.05,-0.33 -6.86,-2.37 -1,-1.07 -0.58,-1.69 -0.08,-2.9 a 10.66,10.66 0 0 1 4.1,-4.49 15,15 0 0 1 4.76,-1.85 5.72,5.72 0 0 1 3.55,0.36 1.33,1.33 0 0 1 0.66,0.57 5.2,5.2 0 0 1 1,2.86 c 0.1,2.08 -0.13,3.88 -1.64,5.34 0.06,-0.03 0.13,-0.15 -0.03,0 z"
           style="fill:#009047" />
        <path
           id="path23894-4-6-3-25-5"
           class="cls-8"
           d="m 750.9,284.24 c -0.46,-1.95 0.2,-4.61 1.82,-5.75 2,-1.38 6,-2.7 7.7,0.14 1.7,2.84 -2,5 -4.18,6.13 -1,0.47 -4.87,1.43 -5.34,-0.52 -0.24,0.16 0.23,0.95 0,0 z"
           style="fill:#006322" />
        <path
           id="ellipse23870-2-64-3-2"
           data-name="ellipse23870-2-64-3"
           class="cls-4"
           d="m 705.51,339.91 c -12.2,12.62 -12.86,28.9 -12.94,32.61 a 56.63,56.63 0 0 0 3.6,20.71 c 0.76,-0.11 1.34,-0.41 2.19,-0.55 0.85,-0.14 2,-0.19 2.94,-0.3 l 2,0.72 1.29,1.35 a 48.6,48.6 0 0 0 -2.83,9 v 0 c 30.24,2.43 46.45,-1.43 55.77,-5.82 a 172.92,172.92 0 0 1 25.42,-9.9 c 4.42,-1.34 9,-2.51 14.14,-3.56 -0.93,-16.27 -5.17,-33.45 -18.1,-45.47 -16.52,-15.35 -35.86,-4.28 -55.15,-10.07 a 43.67,43.67 0 0 0 -18.33,11.28 z"
           style="fill:#ff7800" />
        <path
           id="path23872-3-78-7-2"
           data-name="path23872-3-78-7"
           class="cls-10"
           d="m 719.35,329.8 a 19.3,19.3 0 0 0 -8.06,5.14 c -10,9.94 -15,14.91 -17.43,21.74 -5.27,14.87 -0.48,29.43 0.88,33.58 a 62.57,62.57 0 0 0 2.26,5.87 l 2.44,4.23 a 7.7,7.7 0 0 0 1.08,2.35 c 6.77,9.73 36,-0.41 39.56,-1.68 a 29.9,29.9 0 0 1 -18.71,-1.48 26.64,26.64 0 0 1 -10.87,-7.63 c -5,-6 -4.78,-12.94 -5.88,-18.41 -1.78,-8.89 2.74,-24.9 9.2,-31.76 4.94,-5.24 21.45,-8.52 24.55,-10 7.75,-3.67 27.6,4.54 26.67,-0.27 -0.93,-4.81 -29.82,-7.45 -35.48,-3.39 a 14.06,14.06 0 0 1 -4.64,0.84 19.23,19.23 0 0 0 -5.57,0.87 z"
           style="fill:#ff6200" />
        <path
           id="path23874-2-4-1-2"
           data-name="path23874-2-4-1"
           class="cls-5"
           d="m 738.73,330.94 c 0.07,2.27 10.69,3.83 11.47,7.39 a 1.51,1.51 0 0 1 -0.16,1 c -1.82,3.74 -13.94,-2.79 -20.12,0.93 -8.29,5 -7.64,22.42 -6.35,30 0.52,3.09 0.79,2.95 5.09,19.15 1.58,6 2.84,10.88 3.65,14.08 v 0 c 15.38,-2.35 16,-2.49 16,-2.49 9.87,-2.13 11.55,-4.87 25.32,-10.17 4,-1.56 9.33,-3.41 15.72,-5.18 3.93,-15.79 -4,-37.31 -16.21,-48.2 a 33.68,33.68 0 0 0 -10.45,-6.61 c -12.54,-4.75 -20.86,-2.11 -22.9,-1 -0.48,0.16 -1.07,0.57 -1.06,1.1 z"
           style="fill:#ff9109" />
        <path
           id="path23882-1-6-0-2"
           data-name="path23882-1-6-0"
           class="cls-7"
           d="m 720.29,339.18 a 54,54 0 0 0 3.17,5.26 c 1.16,1.69 2.35,3.35 3.65,4.91 a 50.07,50.07 0 0 0 4.16,4.44 c 1.48,1.37 3,2.59 4.52,3.88 a 39,39 0 0 1 -5,-3.42 43.67,43.67 0 0 1 -7.91,-9.39 c -1.13,-1.69 -3.72,-3.68 -2.6,-5.68 z"
           style="fill:#e85100" />
        <path
           id="path23884-0-2-9-2"
           data-name="path23884-0-2-9"
           class="cls-7"
           d="m 721.25,341.09 a 7.21,7.21 0 0 0 -0.51,2.78 c 0,0.9 -0.22,1.88 -0.18,2.83 a 23.77,23.77 0 0 0 0.28,2.88 c 0.17,1 0.43,2 0.69,2.93 a 11.71,11.71 0 0 1 -1.41,-2.86 11.23,11.23 0 0 1 -0.49,-3.06 7.75,7.75 0 0 1 0.44,-2.94 c 0.36,-0.91 1.63,-1.45 1.18,-2.56 0.05,-0.01 0.23,-0.41 0,0 z"
           style="fill:#e85100" />
        <path
           id="path23886-1-47-7-2"
           data-name="path23886-1-47-7"
           class="cls-7"
           d="m 715.59,340.82 a 5.11,5.11 0 0 0 -1.66,2.72 c -0.22,0.95 -0.85,2 -1,3 a 21.68,21.68 0 0 0 -0.4,3.26 c 0,1.11 0,2.26 0.1,3.38 a 14.28,14.28 0 0 1 -0.87,-3.49 10.66,10.66 0 0 1 1.6,-6.53 c 0.63,-1 2.34,-1 2.27,-2.36 0.05,0.05 0.61,-0.31 -0.04,0.02 z"
           style="fill:#e85100" />
        <path
           id="path23888-3-4-1-2"
           data-name="path23888-3-4-1"
           class="cls-7"
           d="m 714.19,338.89 c -1,0.17 -1.07,1.26 -1.6,2 a 14.91,14.91 0 0 1 -1.8,1.84 c -0.63,0.6 -1.29,1.12 -2,1.67 a 19.89,19.89 0 0 1 -2.15,1.47 18.83,18.83 0 0 1 1.56,-2 21.94,21.94 0 0 1 1.8,-1.87 20.11,20.11 0 0 1 2,-1.66 c 0.74,-0.49 1.68,-0.68 2.18,-1.48 z"
           style="fill:#e85100" />
        <path
           id="path23890-8-18-7-2"
           data-name="path23890-8-18-7"
           class="cls-7"
           d="m 728,335.43 c 1.44,0.14 3.07,-1.17 4.48,-1.82 a 20.92,20.92 0 0 1 4.89,-1.11 33.26,33.26 0 0 1 5.12,-0.45 35.19,35.19 0 0 1 5.11,0.34 c -1.69,0.1 -3.39,0.26 -5.07,0.4 -1.68,0.14 -3.34,0.39 -5,0.61 -1.66,0.22 -3.25,0.61 -4.89,0.85 -1.64,0.24 -3.64,-0.25 -4.64,1.18 -0.09,-0.09 -0.9,-0.09 0,0 z"
           style="fill:#e85100" />
        <path
           id="path23880-0-58-4-2"
           data-name="path23880-0-58-4"
           class="cls-7"
           d="m 725,338.33 c 1.8,-0.19 4.4,0.5 6.45,0.9 2.05,0.4 4.38,0.41 6.51,0.64 2.13,0.23 4.33,0.38 6.48,0.61 2.15,0.23 4.3,0.42 6.44,0.78 -2.16,0 -4.32,0 -6.49,-0.08 -2.17,-0.08 -4.31,-0.22 -6.49,-0.39 -2.18,-0.17 -4.38,-0.54 -6.58,-0.78 -2.2,-0.24 -4.81,0.42 -6.32,-1.68 -0.11,0.06 -1.14,0.11 0,0 z"
           style="fill:#e85100" />
        <path
           id="path3432-37-8-2"
           data-name="path3432-37-8"
           class="cls-8"
           d="m 726,341 a 9.54,9.54 0 0 1 -5.11,1.84 c -2.79,0 -5.54,-0.36 -7.52,-2.59 -1,-1.18 -0.66,-1.86 -0.08,-3.17 a 12.16,12.16 0 0 1 4.5,-4.9 17.17,17.17 0 0 1 5.22,-2 6.1,6.1 0 0 1 3.88,0.38 1.53,1.53 0 0 1 0.73,0.61 5.31,5.31 0 0 1 1,3.12 9.8,9.8 0 0 1 -1.8,5.87 A 5.38,5.38 0 0 1 726,341 Z"
           style="fill:#006322" />
        <path
           id="path3432-3-73-2-2"
           data-name="path3432-3-73-2"
           class="cls-9"
           d="m 726.36,339.87 a 9.75,9.75 0 0 1 -0.79,0.78 8.71,8.71 0 0 1 -4.66,1.7 c -2.55,0 -5,-0.33 -6.86,-2.37 -0.95,-1.08 -0.59,-1.69 -0.08,-2.9 a 10.78,10.78 0 0 1 4.09,-4.5 14.93,14.93 0 0 1 4.77,-1.84 5.65,5.65 0 0 1 3.55,0.36 1.28,1.28 0 0 1 0.66,0.57 5.15,5.15 0 0 1 1,2.86 c 0.1,2.07 -0.13,3.88 -1.65,5.34 0.04,-0.03 0.13,-0.15 -0.03,0 z"
           style="fill:#009047" />
        <path
           id="path23894-4-6-3-25-5-2"
           data-name="path23894-4-6-3-25-5"
           class="cls-8"
           d="m 716.36,339.32 c -0.46,-1.95 0.19,-4.62 1.82,-5.75 2,-1.38 6,-2.7 7.7,0.13 1.7,2.83 -2,5 -4.18,6.13 -1,0.47 -4.88,1.44 -5.34,-0.51 -0.24,0.15 0.22,0.94 0,0 z"
           style="fill:#006322" />
        <path
           id="ellipse23870-2-40-2"
           data-name="ellipse23870-2-40"
           class="cls-4"
           d="m 769.22,331.52 c -13.36,22.91 -9.93,46.09 6.71,65.35 29.39,-6.88 63.74,-10.82 93.86,-16.39 3.56,-0.66 4.6,-0.72 7.84,-1.44 11.79,-27.75 -1,-50.35 -26.12,-66.37 A 58.64,58.64 0 0 0 812.08,304 c -18.92,2.47 -34.23,12.73 -42.86,27.52 z"
           style="fill:#ff7800" />
        <path
           id="path23872-3-60-2"
           data-name="path23872-3-60"
           class="cls-10"
           d="m 808.51,306.6 c -1.49,-1.78 -12.6,0.73 -16.82,4.25 -5.24,4.36 -12.07,5.12 -18.5,13.49 -3.9,5.06 -13.59,20.47 -13.42,29 0.35,17.15 4.11,30.63 16.25,43.53 5.85,-1.28 11.55,-2.83 17.62,-3.11 -9.4,-9.87 -14.64,-13.82 -19.91,-27.73 -3.24,-8.57 -1.32,-25.83 3.31,-35.55 3.53,-7.44 22.34,-15.78 26,-17.35 9.23,-3.92 28.21,-2.6 29.19,-2.62 0.98,-0.02 -19.23,1.49 -23.72,-3.91 z"
           style="fill:#ff6200" />
        <path
           id="path23874-2-40-2"
           data-name="path23874-2-40"
           class="cls-5"
           d="m 817.18,308.29 c -5.24,-3.07 -12.69,-0.64 -13.17,3.32 -0.86,7 15.55,3 13.73,8 -1.82,5 -15.93,-2.11 -22.93,4.12 -9.39,8.35 -3.85,25.33 -1.1,33.55 5.32,16 10.66,23.44 22.2,34.65 17.25,-1.74 33.5,-6.94 50.34,-10.78 a 17.27,17.27 0 0 0 2.51,-3.06 c 15.39,-24 -2.49,-52.49 -24.89,-64.84 -8.41,-4.63 -21.45,-1.86 -26.69,-4.94 -5.24,-3.08 1.18,1.16 0,-0.02 z"
           style="fill:#ff9109" />
        <path
           id="path1974-9-2"
           data-name="path1974-9"
           class="cls-6"
           d="m 850.76,348.53 c 1.31,6.47 0.1,14.75 -8.49,16.1 -8.59,1.35 -12.88,-7.77 -14,-14.05 -1.12,-6.28 -0.41,-15.61 8.2,-16.31 8.61,-0.7 12.97,7.79 14.29,14.26 z"
           style="fill:#ffb120" />
        <path
           id="path3432-23-2"
           data-name="path3432-23"
           class="cls-8"
           d="m 791,324.56 c -0.32,0.12 -0.64,1 -0.84,1.21 a 11.44,11.44 0 0 1 -5.37,3.51 c -3,0.85 -5.91,1.67 -8.47,-0.07 -1.35,-0.91 -1,-1.74 -0.71,-3.35 a 16.45,16.45 0 0 1 4.19,-7.19 20.1,20.1 0 0 1 5.62,-4 7.19,7.19 0 0 1 4.41,-0.6 1.45,1.45 0 0 1 0.9,0.49 5.29,5.29 0 0 1 1.58,3 c 0.44,2.23 1.79,5.73 -1.31,6.92 z"
           style="fill:#006322" />
        <path
           id="path3432-3-71-2"
           data-name="path3432-3-71"
           class="cls-9"
           d="m 791.13,324.93 c -0.21,0.09 -0.73,0.68 -1,0.84 a 11.42,11.42 0 0 1 -5.68,1.85 c -2.92,0 -5.63,0.06 -7.44,-2.07 -1,-1.12 -0.44,-1.81 0.25,-3.15 a 15.37,15.37 0 0 1 5.57,-5.33 19,19 0 0 1 6,-2.16 6.5,6.5 0 0 1 4,0.51 1.19,1.19 0 0 1 0.66,0.64 4.82,4.82 0 0 1 0.58,3.1 c -0.23,2.23 -0.52,4.48 -2.91,5.72 0.06,0.02 0.19,-0.05 -0.03,0.05 z"
           style="fill:#009047" />
        <path
           id="path23894-4-6-3-8-2"
           data-name="path23894-4-6-3-8"
           class="cls-8"
           d="m 779.66,324.62 c 0.13,-1.88 1.18,-5.18 3.13,-6.49 2.39,-1.6 7.42,-3 9,0.05 1.58,3.05 -3.4,5.48 -5.93,6.63 -1.09,0.49 -6.36,1.7 -6.22,-0.19 -0.45,0.17 -0.06,1.03 0.02,0 z"
           style="fill:#006322" />
        <path
           id="path23882-1-68-2"
           data-name="path23882-1-68"
           class="cls-7"
           d="m 787.17,329.85 c 1.15,1.82 2.33,3.55 3.65,5.29 1.32,1.74 2.75,3.35 4.23,5 1.48,1.65 3.13,3.36 4.66,5 a 64.33,64.33 0 0 1 -5.24,-4.58 51.92,51.92 0 0 1 -8,-10.45 29.26,29.26 0 0 1 -2.32,-6 60.66,60.66 0 0 0 3.02,5.74 z"
           style="fill:#e85100" />
        <path
           id="path23884-0-53-2"
           data-name="path23884-0-53"
           class="cls-7"
           d="m 785.14,326.32 a 6.81,6.81 0 0 1 -0.95,2.94 9.91,9.91 0 0 0 -0.51,3 14.3,14.3 0 0 0 0.08,3 c 0.12,1 0.37,2.06 0.55,3.06 a 13.77,13.77 0 0 1 -1.36,-3 9.77,9.77 0 0 1 -0.33,-3.18 11.75,11.75 0 0 1 0.73,-3.18 c 0.37,-1 0.57,-2.2 1.79,-2.64 -0.07,-0.05 -0.14,-0.68 0,0 z"
           style="fill:#e85100" />
        <path
           id="path23886-1-7-2"
           data-name="path23886-1-7"
           class="cls-7"
           d="m 776.57,329.32 a 17.32,17.32 0 0 0 -1.5,3.25 18,18 0 0 0 -0.8,3.43 26.84,26.84 0 0 0 -0.13,3.47 10,10 0 0 1 -0.68,-3.49 13.1,13.1 0 0 1 2.4,-7 14.06,14.06 0 0 1 2.9,-2.75 33.86,33.86 0 0 0 -2.19,3.09 z"
           style="fill:#e85100" />
        <path
           id="path23888-3-68-2"
           data-name="path23888-3-68"
           class="cls-7"
           d="m 775.37,326.67 c -0.69,0.74 -1.41,1.45 -2.17,2.14 -0.76,0.69 -1.55,1.38 -2.36,2 a 27,27 0 0 1 -2.56,1.76 c 0.62,-0.78 1.26,-1.5 2,-2.23 0.74,-0.73 1.41,-1.48 2.17,-2.18 0.76,-0.7 1.55,-1.37 2.36,-2 0.81,-0.63 1.66,-1.22 2.54,-1.79 a 27.83,27.83 0 0 1 -1.98,2.3 z"
           style="fill:#e85100" />
        <path
           id="path23890-8-67-2"
           data-name="path23890-8-67"
           class="cls-9"
           d="m 799.26,318.49 a 38.69,38.69 0 0 1 5.9,-0.61 38.11,38.11 0 0 1 5.94,0.34 47,47 0 0 1 5.79,1.25 c -1.94,-0.15 -3.9,-0.34 -5.85,-0.46 -1.95,-0.12 -3.88,-0.18 -5.83,-0.13 -1.95,0.05 -3.87,0.19 -5.79,0.39 -1.92,0.2 -3.82,0.53 -5.74,0.82 a 37.91,37.91 0 0 1 5.58,-1.6 z"
           style="fill:#009047" />
        <path
           id="path23880-0-18-2"
           data-name="path23880-0-18"
           class="cls-7"
           d="m 789.8,323.29 c 2.06,0.3 5,0.71 7.31,1.14 2.31,0.43 5,0.86 7.48,1.36 2.48,0.5 5,1.09 7.44,1.72 2.44,0.63 4.9,1.39 7.33,2.1 -2.52,-0.36 -5,-0.82 -7.5,-1.35 -2.5,-0.53 -5,-1.07 -7.48,-1.53 -2.48,-0.46 -5,-1.13 -7.44,-1.51 -2.44,-0.38 -6.3,0.57 -7.14,-1.93 -0.08,0 -1.25,-0.18 0,0 z"
           style="fill:#e85100" />
      </g>
      <path
         class="cls-2"
         d="m 680.39,449.47 a 654.39,654.39 0 0 0 115.43,-6.75 c 65.78,-9.74 61.61,-19.45 110.38,-24.07 57.66,-5.47 105.44,4.14 170.36,-3 a 135.25,135.25 0 0 0 43.2,-11.58 129.43,129.43 0 0 0 41.37,-30.47 c 0.31,-1.26 4.94,-22.08 -9.54,-34.61 a 33.15,33.15 0 0 0 -15,-7.16 458,458 0 0 1 -104.82,36.48 c -88.34,18.93 -102.81,-6.16 -192.22,14.15 -36.67,8.32 -63,19.08 -103.36,12.47 a 177.87,177.87 0 0 1 -60.83,-22.16 c -2.52,3 -16.47,20.42 -12.71,44.24 2.79,17.73 13.81,28.84 17.74,32.46 z"
         id="path141"
         style="fill:#91724e" />
      <path
         class="cls-11"
         d="m 687.5,454.05 c 23.15,-1.45 60.28,-4.07 106,-8.73 80.45,-8.2 95.39,-13.3 123.53,-17 16,-2.08 28.4,-2.8 37.77,-3.39 73.93,-4.63 115,-2.49 148.22,-14.57 5.71,-2.07 5.26,-2.41 23.84,-9.92 23.18,-9.36 31.85,-12.05 32.61,-17.93 0.6,-4.66 -4.4,-6.52 -6.13,-16.21 a 32.81,32.81 0 0 1 0,-11.44 c -36.86,37.88 -69.3,48.88 -92.46,51.76 -27.67,3.44 -89.67,1.21 -114.67,3.7 -1.14,0.12 -8.07,0.84 -17.63,1.66 -14.19,1.22 -21.14,1.48 -55.63,4.81 -37.7,3.63 -60.07,5.79 -91.19,9.59 -29.42,3.59 -31,4.33 -41,4.71 a 234.41,234.41 0 0 1 -75,-9.22 25.42,25.42 0 0 0 3,16.95 c 5.24,9.35 15.07,13.76 18.74,15.23 z"
         id="path143"
         style="fill:#644a30;stroke:#644a30;stroke-width:0.78px;stroke-miterlimit:10" />
    </g>
  </g>
</svg>
