<?xml version="1.0" encoding="UTF-8" standalone="no"?>
<svg
   viewBox="0 0 672.00002 604.15995"
   version="1.1"
   id="svg174"
   sodipodi:docname="apples_with_box.svg"
   width="672"
   height="604.15997"
   inkscape:version="1.2.2 (b0a8486541, 2022-12-01)"
   xmlns:inkscape="http://www.inkscape.org/namespaces/inkscape"
   xmlns:sodipodi="http://sodipodi.sourceforge.net/DTD/sodipodi-0.dtd"
   xmlns="http://www.w3.org/2000/svg"
   xmlns:svg="http://www.w3.org/2000/svg">
  <sodipodi:namedview
     id="namedview176"
     pagecolor="#ffffff"
     bordercolor="#000000"
     borderopacity="0.25"
     inkscape:showpageshadow="2"
     inkscape:pageopacity="0.0"
     inkscape:pagecheckerboard="0"
     inkscape:deskcolor="#d1d1d1"
     showgrid="false"
     inkscape:zoom="1.2151914"
     inkscape:cx="331.22354"
     inkscape:cy="485.52022"
     inkscape:window-width="1920"
     inkscape:window-height="1011"
     inkscape:window-x="0"
     inkscape:window-y="0"
     inkscape:window-maximized="1"
     inkscape:current-layer="svg174" />
  <defs
     id="defs4">
    <style
       id="style2">.a{fill:#c99550;}.b{fill:#f4c171;stroke:#f4c171;stroke-miterlimit:10;}.c{fill:#5ba12c;}.d{fill:#502d16;}.e{fill:#447821;}.f{fill:#338000;}.g{fill:#fccd8d;}</style>
  </defs>
  <path
     class="a"
     d="M 671.32,288.79 Q 629.41,203.55 587.5,118.26 V 65.79 q 41.22,84 82.45,168 0.69,27.51 1.37,55 z"
     id="path6"
     style="fill:#c99550" />
  <path
     class="a"
     d="M 670.25,350.62 587.5,177.11 q 0,-27.41 0,-54.82 40.79,88.71 81.56,177.42 0.6,25.46 1.19,50.91 z"
     id="path8"
     style="fill:#c99550" />
  <path
     class="a"
     d="m 671.5,419.03 -84,-176.76 q 0,-27.87 0,-55.74 40.79,88.7 81.56,177.41 1.23,27.56 2.44,55.09 z"
     id="path10"
     style="fill:#c99550" />
  <path
     class="a"
     d="m 670.18,485.25 q -41.34,-90.48 -82.67,-181 0,-26.24 0,-52.47 l 83,180.18 q -0.16,26.67 -0.33,53.29 z"
     id="path12"
     style="fill:#c99550" />
  <path
     class="a"
     d="M 669.06,548.11 587.5,366.28 v -52.47 l 83.43,183.74 z"
     id="path14"
     style="fill:#c99550" />
  <path
     class="a"
     d="m 670.41,603.79 q -41.45,-89.65 -82.91,-179.33 0,-23.21 0,-46.42 42.25,93.89 84.5,187.75 z"
     id="path16"
     style="fill:#c99550" />
  <rect
     class="b"
     x="0.5"
     y="377.73001"
     width="587"
     height="40.07"
     id="rect18"
     style="fill:#f4c171;stroke:#f4c171;stroke-miterlimit:10" />
  <rect
     class="b"
     x="0.5"
     y="65.790001"
     width="587"
     height="52.470001"
     id="rect20"
     style="fill:#f4c171;stroke:#f4c171;stroke-miterlimit:10" />
  <rect
     class="b"
     x="0.5"
     y="127.8"
     width="587"
     height="52.470001"
     id="rect22"
     style="fill:#f4c171;stroke:#f4c171;stroke-miterlimit:10" />
  <rect
     class="b"
     x="0.5"
     y="189.8"
     width="587"
     height="52.470001"
     id="rect24"
     style="fill:#f4c171;stroke:#f4c171;stroke-miterlimit:10" />
  <rect
     class="b"
     x="0.5"
     y="251.81001"
     width="587"
     height="52.470001"
     id="rect26"
     style="fill:#f4c171;stroke:#f4c171;stroke-miterlimit:10" />
  <rect
     class="b"
     x="0.5"
     y="313.81003"
     width="587"
     height="52.470001"
     id="rect28"
     style="fill:#f4c171;stroke:#f4c171;stroke-miterlimit:10" />
  <path
     class="c"
     d="m 89.770001,569.99 c -5.74,-0.07 -15.16,-2.15 -23.29,-6.56 A 80.2,80.2 0 0 1 26.57,511.89 c -2.31,-9.75 -2.66,-16.19 -1.35,-25 q 2.09,-14 10.5,-22.36 c 6.14,-6.09 11.46,-8 24.480001,-8.7 4.76,-0.27 11.81,-2.22 11.49,-3.19 l 2.26,-0.57 c 0.29,0.07 3.85,-1.88 7.9,-4.34 16.38,-9.93 28.199999,-10.83 42.919999,-3.29 24.81,12.72 35.1,45.39 25.19,80 -2.47,8.61 -7.83,19.49 -14.65,25.79 -15.38,12.58 -28.84,18.7 -45.539999,19.71 z M 148.06,489.55 c 0,-16.68 -9.86,-32 -24.38,-37.88 -6.43,-2.61 -7.71,-2.46 -3.27,0.38 a 62.68,62.68 0 0 1 14.39,13.2 c 6.23,8.15 11.75,22 11.92,29.91 0,1 0.27,1.32 0.69,0.82 0.42,-0.5 0.66,-3.35 0.65,-6.43 z"
     id="path30"
     style="fill:#5ba12c" />
  <path
     class="c"
     d="m 74.110001,443.83 c -1.93,0 -2,-0.39 -0.59,-5.73 A 43.48,43.48 0 0 1 105.39,406.84 c 8.13,-1.86 8.52,-1.67 7.17,3.54 a 48.61,48.61 0 0 1 -15.999999,24.29 c -2.79,2.2 -6.11,3.82 -12.43,6.07 a 74.28,74.28 0 0 1 -10.06,3.09 z"
     id="path32"
     style="fill:#5ba12c" />
  <path
     class="d"
     d="m 71.690001,452.69 c -1,-3.23 -8.11,-14.46 -11.67,-18.6 A 47.73,47.73 0 0 1 55.65,428.62 a 35.48,35.48 0 0 1 4.260001,-2.21 l 4.13,-1.94 1.71,2.78 c 2.68,4.37 6,13.85 6.89,19.54 0.43,2.86 1,5.26 1.31,5.33"
     id="path34"
     style="fill:#502d16" />
  <path
     class="c"
     d="m 330.59,300.22 c -5.75,-0.08 -15.16,-2.15 -23.3,-6.56 a 80.23,80.23 0 0 1 -39.91,-51.54 c -2.31,-9.75 -2.65,-16.19 -1.35,-24.95 q 2.09,-14 10.51,-22.37 c 6.14,-6.09 11.45,-8 24.47,-8.7 4.77,-0.26 11.81,-2.21 11.5,-3.18 l 2.25,-0.57 c 0.3,0.07 3.85,-1.88 7.91,-4.34 16.37,-9.93 28.19,-10.84 42.92,-3.29 24.81,12.72 35.09,45.39 25.18,80 -2.46,8.61 -7.83,19.49 -14.65,25.79 -15.38,12.57 -28.84,18.7 -45.53,19.71 z m 58.29,-80.49 c 0,-16.68 -9.87,-32 -24.39,-37.88 -6.43,-2.61 -7.71,-2.47 -3.27,0.37 a 63,63 0 0 1 14.39,13.26 c 6.23,8.14 11.75,22 11.92,29.91 0,1 0.28,1.32 0.69,0.82 0.41,-0.5 0.66,-3.35 0.66,-6.48 z"
     id="path36"
     style="fill:#5ba12c" />
  <path
     class="c"
     d="m 314.93,174.06 c -1.94,0 -2,-0.39 -0.6,-5.73 a 43.47,43.47 0 0 1 31.87,-31.26 c 8.13,-1.87 8.52,-1.67 7.17,3.54 a 48.65,48.65 0 0 1 -16,24.29 c -2.79,2.2 -6.11,3.82 -12.42,6.07 a 75.19,75.19 0 0 1 -10.06,3.09 z"
     id="path38"
     style="fill:#5ba12c" />
  <path
     class="d"
     d="m 312.5,182.92 c -1.06,-3.23 -8.11,-14.46 -11.68,-18.6 a 44.46,44.46 0 0 1 -4.36,-5.48 36.07,36.07 0 0 1 4.26,-2.2 l 4.12,-1.94 1.71,2.78 c 2.69,4.37 6,13.85 6.89,19.54 0.43,2.86 1,5.25 1.31,5.33"
     id="path40"
     style="fill:#502d16" />
  <path
     class="e"
     d="m 469.31,373.13 c -1.38,-5.83 -1.83,-15.88 0.2,-25.22 5,-23.1 18.84,-42.68 37.65,-53.35 8.45,-4.8 14.32,-6.77 22.77,-7.66 q 13.49,-1.43 23.35,5 c 7.22,4.65 10.28,9.56 14.22,22.54 1.44,4.76 5,11.4 5.84,10.83 l 1.1,2.14 c 0,0.31 2.71,3.42 6,6.9 13.32,14.06 17.14,25.78 13.86,42.58 -5.52,28.3 -33.17,46.94 -67.72,45.64 -8.59,-0.32 -20,-3 -27.56,-8.32 -15.52,-12.38 -24.52,-24.45 -29.71,-41.08 z m 89.19,38.67 a 40.33,40.33 0 0 0 29,-34.25 c 0.8,-7.16 0.34,-8.42 -1.17,-3.21 a 66.12,66.12 0 0 1 -8.65,17.89 c -6,8.36 -17.4,17.43 -24.68,19.6 -0.94,0.28 -1.16,0.61 -0.59,0.91 0.57,0.3 3.22,-0.19 6.09,-0.94 z"
     id="path42"
     style="fill:#447821" />
  <path
     class="f"
     d="m 582.16,325.49 c -0.51,-1.95 -0.13,-2.1 5.16,-2.05 15.31,0.15 29.84,9.73 37,24.35 3.78,7.76 3.7,8.2 -1.47,8.15 -8.83,-0.09 -19.28,-4 -26.5,-10 -2.74,-2.27 -5.09,-5.22 -8.76,-11 a 81.68,81.68 0 0 1 -5.4,-9.39 z"
     id="path44"
     style="fill:#338000" />
  <path
     class="d"
     d="m 573.35,325.27 c 2.72,-1.88 11.35,-11.85 14.28,-16.5 a 46.21,46.21 0 0 1 4,-5.79 38.16,38.16 0 0 1 3.11,3.75 l 2.84,3.68 -2.14,2.44 c -3.37,3.81 -11.31,9.58 -16.36,11.89 -2.53,1.16 -4.6,2.36 -4.6,2.67"
     id="path46"
     style="fill:#502d16" />
  <path
     class="e"
     d="m 142.19,321.25 c -4.6,3.59 -13.28,7.93 -22.31,9.6 C 97.560001,334.98 74.940001,329.28 58.220001,315.31 50.71,309.04 46.69,304.15 42.63,296.37 q -6.49,-12.45 -4.68,-24.44 c 1.33,-8.73 4.45,-13.61 14.36,-22.46 3.630001,-3.24 8.090001,-9.27 7.280001,-9.83 l 1.46,-1.89 c 0.27,-0.13 2,-3.94 3.74,-8.47 7.23,-18.3 16.08,-26.53 32.16,-29.9 C 124.04,193.71 151.22,213.1 163.49,246.87 c 3.06,8.41 5.13,20.45 3.38,29.79 -4.89,19.75 -12,33.17 -24.68,44.59 z m -0.56,-100.94 c -9.72,-13.23 -26.44,-19.11 -41.4,-14.57 -6.619999,2 -7.559999,2.94 -2.379999,2.38 A 58.85,58.85 0 0 1 116.98,209.49 c 9.69,2.5 22.13,10 26.87,16.16 0.61,0.8 1,0.87 1,0.21 0,-0.66 -1.35,-3.08 -3.22,-5.55 z"
     id="path48"
     style="fill:#447821" />
  <path
     class="f"
     d="M 56.350001,231.07 C 54.83,232.32 54.56,232.01 52.55,226.9 a 46.15,46.15 0 0 1 7.100001,-45.08 c 5.37,-6.65 5.79,-6.74 7.75,-1.74 3.35,8.53 3.93,20.13 1.47,29.42 -0.94,3.52 -2.63,6.92 -6.33,12.72 a 81.55,81.55 0 0 1 -6.19,8.85 z"
     id="path50"
     style="fill:#338000" />
  <path
     class="d"
     d="M 59.590001,239.64 C 56.870001,237.74 44.73,233.31 39.49,232.29 a 43.49,43.49 0 0 1 -6.65,-1.57 41.68,41.68 0 0 1 2.1,-4.45 l 2.15,-4.17 3,1.12 c 4.68,1.76 12.85,7.16 16.840001,11.13 2,2 3.87,3.52 4.15,3.4"
     id="path52"
     style="fill:#502d16" />
  <path
     class="e"
     d="m 173.95,356.85 c -10,-14 -14.16,-28.73 -14.83,-49.13 0.23,-9.51 4.75,-20.79 9.48,-28.3 19,-30.19 49.54,-43 74.81,-31.28 15,6.94 21.94,17 25.19,36.48 0.8,4.83 1.66,8.93 1.9,9.11 l 1,2.18 c -0.91,0.37 2.19,7.26 5.06,11.25 7.84,10.89 9.88,16.36 9.36,25.19 q -0.7,12.09 -9.64,22.78 c -5.58,6.68 -10.52,10.54 -19.15,15 -19.22,9.85 -42.49,10.28 -63.42,1.19 a 57.48,57.48 0 0 1 -19.79,-14.43 z m 17.18,-93.73 c -0.1,0.66 0.29,0.67 1.05,0 5.91,-5 19.6,-9.43 29.58,-9.68 a 59,59 0 0 1 19,3 c 4.94,1.72 4.22,0.6 -1.82,-2.86 -13.67,-7.83 -31.21,-5.88 -43.45,4.83 -2.33,2.03 -4.27,4.14 -4.36,4.71 z"
     id="path54"
     style="fill:#447821" />
  <path
     class="f"
     d="m 276.5,288.28 a 83.63,83.63 0 0 1 -4.2,-10 c -2.42,-6.5 -3.36,-10.21 -3.54,-13.86 -0.48,-9.62 2.49,-20.81 7.54,-28.38 3,-4.44 3.34,-4.25 7.2,3.46 7.28,14.55 6.33,32.47 -2.42,45.61 -3,4.54 -3.36,4.77 -4.58,3.21 z"
     id="path56"
     style="fill:#338000" />
  <path
     class="d"
     d="m 270.5,293.73 c 0.24,0.19 2.38,-0.88 4.75,-2.37 4.72,-3 13.82,-6.39 18.75,-7.05 l 3.14,-0.42 1.22,4.55 a 40.83,40.83 0 0 1 1.13,4.83 44.07,44.07 0 0 1 -6.82,0 c -5.32,-0.2 -18.09,1.38 -21.14,2.61"
     id="path58"
     style="fill:#502d16" />
  <path
     class="c"
     d="m 386.91,438.55 c -16.7,-1 -30.16,-7.13 -45.54,-19.71 -6.82,-6.3 -12.18,-17.17 -14.65,-25.78 -9.91,-34.62 0.38,-67.29 25.19,-80 14.72,-7.55 26.54,-6.65 42.92,3.29 4.05,2.45 7.61,4.41 7.9,4.33 l 2.26,0.58 c -0.32,1 6.73,2.91 11.5,3.18 13,0.72 18.33,2.61 24.47,8.7 q 8.4,8.41 10.54,22.41 c 1.31,8.77 1,15.2 -1.35,25 a 80.15,80.15 0 0 1 -39.91,51.53 c -8.13,4.41 -17.55,6.49 -23.29,6.56 z m -57.64,-74 c 0.42,0.5 0.67,0.2 0.7,-0.82 0.17,-7.91 5.69,-21.76 11.91,-29.91 a 63,63 0 0 1 14.4,-13.27 c 4.43,-2.84 3.15,-3 -3.27,-0.38 -14.53,5.91 -24.37,21.21 -24.39,37.89 -0.01,3.16 0.29,6.07 0.65,6.49 z"
     id="path60"
     style="fill:#5ba12c" />
  <path
     class="f"
     d="m 402.57,312.43 a 78.07,78.07 0 0 1 -10.07,-3.09 c -6.31,-2.25 -9.64,-3.88 -12.43,-6.08 a 48.61,48.61 0 0 1 -15.95,-24.28 c -1.35,-5.22 -1,-5.41 7.16,-3.54 a 43.43,43.43 0 0 1 31.87,31.26 c 1.39,5.34 1.34,5.76 -0.59,5.73 z"
     id="path62"
     style="fill:#338000" />
  <path
     class="d"
     d="m 402.73,320.71 c 0.29,-0.07 0.88,-2.47 1.31,-5.32 0.86,-5.7 4.21,-15.18 6.89,-19.54 l 1.71,-2.79 4.13,1.95 a 37,37 0 0 1 4.26,2.2 47,47 0 0 1 -4.36,5.47 c -3.57,4.14 -10.62,15.38 -11.68,18.61"
     id="path64"
     style="fill:#502d16" />
  <path
     class="c"
     d="m 345.71,570.61 c -5.74,-0.07 -15.16,-2.15 -23.29,-6.56 a 80.2,80.2 0 0 1 -39.92,-51.5 c -2.31,-9.75 -2.66,-16.19 -1.35,-25 q 2.08,-14 10.5,-22.36 c 6.14,-6.09 11.46,-8 24.48,-8.7 4.76,-0.27 11.81,-2.22 11.49,-3.18 l 2.26,-0.58 c 0.29,0.07 3.85,-1.88 7.9,-4.34 16.38,-9.93 28.2,-10.83 42.92,-3.29 24.81,12.72 35.1,45.39 25.19,80 -2.47,8.61 -7.83,19.49 -14.65,25.79 -15.38,12.58 -28.84,18.7 -45.54,19.71 z M 404,490.13 c 0,-16.69 -9.86,-32 -24.38,-37.89 -6.43,-2.61 -7.71,-2.46 -3.27,0.38 a 62.68,62.68 0 0 1 14.39,13.25 c 6.23,8.15 11.75,22 11.92,29.91 0,1 0.27,1.32 0.69,0.82 0.42,-0.5 0.66,-3.35 0.65,-6.47 z"
     id="path66"
     style="fill:#5ba12c" />
  <path
     class="c"
     d="m 330.05,444.45 c -1.93,0 -2,-0.39 -0.59,-5.73 a 43.48,43.48 0 0 1 31.87,-31.26 c 8.13,-1.86 8.52,-1.67 7.17,3.54 a 48.61,48.61 0 0 1 -16,24.29 c -2.79,2.2 -6.11,3.82 -12.43,6.07 a 74.73,74.73 0 0 1 -10.06,3.09 z"
     id="path68"
     style="fill:#5ba12c" />
  <path
     class="d"
     d="m 327.63,453.32 c -1.05,-3.24 -8.11,-14.47 -11.67,-18.61 a 47.73,47.73 0 0 1 -4.37,-5.47 37.21,37.21 0 0 1 4.26,-2.21 l 4.13,-1.94 1.71,2.78 c 2.68,4.37 6,13.85 6.89,19.54 0.43,2.86 1,5.26 1.31,5.33"
     id="path70"
     style="fill:#502d16" />
  <path
     class="e"
     d="m 268.69,520.69 c -5.74,-0.07 -15.16,-2.14 -23.29,-6.56 A 80.18,80.18 0 0 1 205.5,462.6 c -2.31,-9.75 -2.66,-16.19 -1.35,-24.95 q 2.09,-14 10.5,-22.37 c 6.14,-6.09 11.46,-8 24.48,-8.7 4.76,-0.26 11.81,-2.21 11.49,-3.18 l 2.26,-0.58 c 0.29,0.08 3.85,-1.87 7.9,-4.33 16.38,-9.93 28.2,-10.84 42.92,-3.29 24.81,12.71 35.1,45.39 25.19,80 -2.47,8.61 -7.83,19.48 -14.65,25.78 -15.38,12.58 -28.84,18.71 -45.54,19.71 z m 58.29,-80.48 c 0,-16.68 -9.86,-32 -24.38,-37.88 -6.43,-2.62 -7.71,-2.47 -3.27,0.37 a 62.9,62.9 0 0 1 14.39,13.25 c 6.23,8.15 11.75,22 11.92,29.91 0,1 0.27,1.32 0.69,0.82 0.42,-0.5 0.66,-3.35 0.65,-6.47 z"
     id="path72"
     style="fill:#447821" />
  <path
     class="f"
     d="m 253.03,394.55 c -1.93,0 -2,-0.39 -0.59,-5.73 a 43.45,43.45 0 0 1 31.87,-31.27 c 8.13,-1.87 8.52,-1.68 7.17,3.54 a 48.58,48.58 0 0 1 -16,24.28 c -2.79,2.2 -6.11,3.83 -12.43,6.08 a 74.28,74.28 0 0 1 -10.02,3.1 z"
     id="path74"
     style="fill:#338000" />
  <path
     class="d"
     d="m 250.61,403.4 c -1.05,-3.23 -8.11,-14.47 -11.67,-18.6 a 47.31,47.31 0 0 1 -4.37,-5.48 38.06,38.06 0 0 1 4.26,-2.2 l 4.13,-1.95 1.71,2.79 c 2.68,4.36 6,13.85 6.89,19.54 0.43,2.85 1,5.25 1.31,5.32"
     id="path76"
     style="fill:#502d16" />
  <path
     class="e"
     d="m 459.35,553.75 c -5.75,-0.08 -15.16,-2.15 -23.3,-6.56 a 80.23,80.23 0 0 1 -39.91,-51.54 c -2.31,-9.75 -2.65,-16.19 -1.35,-25 q 2.08,-14 10.51,-22.37 c 6.14,-6.08 11.45,-8 24.47,-8.7 4.77,-0.26 11.81,-2.21 11.5,-3.18 l 2.25,-0.57 c 0.3,0.07 3.85,-1.88 7.91,-4.34 16.37,-9.93 28.19,-10.84 42.92,-3.29 24.81,12.72 35.09,45.39 25.18,80 -2.46,8.61 -7.83,19.49 -14.65,25.79 -15.38,12.57 -28.84,18.7 -45.53,19.71 z m 58.29,-80.49 c 0,-16.68 -9.87,-32 -24.39,-37.88 -6.43,-2.61 -7.71,-2.47 -3.27,0.37 a 63,63 0 0 1 14.39,13.26 c 6.23,8.14 11.75,22 11.92,29.91 0,1 0.28,1.32 0.69,0.82 0.41,-0.5 0.66,-3.35 0.66,-6.48 z"
     id="path78"
     style="fill:#447821" />
  <path
     class="f"
     d="m 443.69,427.55 c -1.94,0 -2,-0.39 -0.6,-5.73 a 43.48,43.48 0 0 1 31.87,-31.26 c 8.13,-1.87 8.52,-1.67 7.17,3.54 a 48.61,48.61 0 0 1 -16,24.29 c -2.79,2.2 -6.11,3.82 -12.42,6.07 a 75.19,75.19 0 0 1 -10.02,3.09 z"
     id="path80"
     style="fill:#338000" />
  <path
     class="d"
     d="m 441.27,436.45 c -1.06,-3.23 -8.11,-14.46 -11.68,-18.6 a 44.46,44.46 0 0 1 -4.36,-5.48 36.07,36.07 0 0 1 4.26,-2.2 l 4.12,-1.94 1.71,2.78 c 2.69,4.37 6,13.85 6.89,19.54 0.43,2.86 1,5.26 1.31,5.33"
     id="path82"
     style="fill:#502d16" />
  <path
     class="e"
     d="m 557.39,572.41 c -5.74,-0.07 -15.16,-2.15 -23.3,-6.56 a 80.18,80.18 0 0 1 -39.9,-51.54 c -2.31,-9.75 -2.66,-16.19 -1.35,-25 q 2.08,-14 10.5,-22.36 c 6.14,-6.09 11.45,-8 24.47,-8.7 4.77,-0.27 11.82,-2.22 11.5,-3.19 l 2.26,-0.57 c 0.29,0.07 3.85,-1.88 7.9,-4.34 16.38,-9.93 28.19,-10.83 42.92,-3.29 24.81,12.72 35.1,45.39 25.19,80 -2.47,8.61 -7.83,19.49 -14.65,25.79 -15.38,12.58 -28.84,18.7 -45.54,19.71 z m 58.29,-80.49 c 0,-16.68 -9.86,-32 -24.39,-37.88 -6.42,-2.61 -7.7,-2.46 -3.27,0.38 a 62.48,62.48 0 0 1 14.39,13.25 c 6.23,8.15 11.75,22 11.92,29.91 0,1 0.28,1.32 0.7,0.82 0.42,-0.5 0.66,-3.35 0.65,-6.48 z"
     id="path84"
     style="fill:#447821" />
  <path
     class="f"
     d="m 541.73,446.25 c -1.93,0 -2,-0.39 -0.59,-5.73 a 43.47,43.47 0 0 1 31.87,-31.26 c 8.13,-1.86 8.51,-1.67 7.16,3.54 a 48.59,48.59 0 0 1 -15.95,24.29 c -2.79,2.2 -6.12,3.82 -12.43,6.07 a 74.73,74.73 0 0 1 -10.06,3.09 z"
     id="path86"
     style="fill:#338000" />
  <path
     class="d"
     d="m 539.31,455.11 c -1.06,-3.23 -8.11,-14.46 -11.68,-18.6 a 47,47 0 0 1 -4.36,-5.47 34.59,34.59 0 0 1 4.26,-2.21 l 4.13,-1.94 1.71,2.78 c 2.68,4.37 6,13.85 6.89,19.54 0.43,2.86 1,5.26 1.31,5.33"
     id="path88"
     style="fill:#502d16" />
  <path
     class="e"
     d="m 189.5,446.47 c -12.18,12 -25.68,18 -45,21 -9.07,0.85 -20.31,-2.55 -28,-6.6 -30.869999,-16.25 -46.509999,-46.51 -38.309999,-74.09 4.88,-16.37 13.62,-24.72 31.779999,-30.33 4.5,-1.39 8.3,-2.75 8.45,-3 l 1.95,-1.32 c 0.45,0.9 6.65,-3.11 10.11,-6.55 9.45,-9.39 14.41,-12.13 22.86,-12.6 q 11.58,-0.66 22.77,7.39 c 7,5 11.22,9.71 16.41,18.17 11.56,18.83 14.65,42.93 8.41,65.71 -2.53,9.21 -7.56,17.79 -11.45,22.2 z m -90.999999,-7.08 c 0.63,0 0.6,-0.38 -0.1,-1.09 -5.38,-5.57 -11.21,-19.28 -12.6,-29.61 a 67.67,67.67 0 0 1 0.68,-20 c 1.07,-5.32 0.09,-4.45 -2.51,2.22 a 42.18,42.18 0 0 0 9.53,44.52 c 2.2,2.12 4.42,3.93 5,3.96 z"
     id="path90"
     style="fill:#447821" />
  <path
     class="f"
     d="m 112.59,347.9 a 78.29,78.29 0 0 1 -9.06,5.51 c -5.899999,3.25 -9.309999,4.66 -12.759999,5.26 a 44.61,44.61 0 0 1 -27.84,-4.57 c -4.56,-2.55 -4.42,-3 2.46,-7.87 13,-9.23 30.14,-10.3 43.629999,-2.72 4.66,2.62 4.92,2.94 3.57,4.39 z"
     id="path92"
     style="fill:#338000" />
  <path
     class="d"
     d="m 118.5,353.47 c 0.14,-0.27 -1.12,-2.37 -2.8,-4.66 -3.37,-4.57 -7.66,-13.62 -8.85,-18.66 l -0.76,-3.21 4.18,-1.8 a 36.89,36.89 0 0 1 4.46,-1.72 48.21,48.21 0 0 1 0.77,7.13 c 0.42,5.55 3.39,18.62 4.91,21.65"
     id="path94"
     style="fill:#502d16" />
  <path
     class="e"
     d="m 133.9,540.31 c -4.27,-4 -10.05,-12 -13.39,-21 -8.26,-22.07 -7.36,-46.37 2.46,-66.25 4.41,-8.93 8.2,-14 14.71,-19.7 q 10.4,-9.1 22,-9.6 c 8.45,-0.35 13.64,1.89 23.89,10.31 3.76,3.08 10.29,6.47 10.66,5.52 l 2.06,1.12 c 0.17,0.26 4.08,1.24 8.68,2.18 18.58,3.81 28,11.26 34.36,27.08 10.65,26.65 -2.2,58.31 -31.47,77.53 -7.29,4.78 -18.18,9.26 -27.28,9.31 -19.49,-1.13 -33.48,-5.78 -46.68,-16.52 z m 94.6,-20.41 c 10.5,-12.56 12.73,-30.85 5.53,-45.29 -3.18,-6.39 -4.24,-7.17 -2.69,-2 a 67.49,67.49 0 0 1 2.45,19.94 c -0.45,10.41 -5,24.63 -9.88,30.7 -0.63,0.79 -0.63,1.19 0,1.1 0.63,-0.09 2.59,-2.1 4.59,-4.45 z"
     id="path96"
     style="fill:#447821" />
  <path
     class="f"
     d="m 201.63,434.62 c -1.47,-1.31 -1.24,-1.65 3.17,-4.72 a 41,41 0 0 1 43.7,-1.57 c 7.29,4.19 7.46,4.6 3.16,7.59 a 44.82,44.82 0 0 1 -27.31,7.29 c -3.49,-0.27 -7,-1.33 -13.18,-4 a 76.5,76.5 0 0 1 -9.52,-4.6 z"
     id="path98"
     style="fill:#338000" />
  <path
     class="d"
     d="m 194.23,439.62 c 1.24,-3.16 3,-16.47 2.94,-22 a 47.35,47.35 0 0 1 0.17,-7.13 36.52,36.52 0 0 1 4.59,1.28 l 4.33,1.37 -0.47,3.28 c -0.73,5.13 -4.19,14.57 -7.13,19.44 -1.48,2.45 -2.54,4.66 -2.37,4.91"
     id="path100"
     style="fill:#502d16" />
  <path
     class="c"
     d="m 349.67,123.89 c -4.68,16.82 -13.42,29.23 -28.6,42.2 -7.4,5.6 -18.75,8.74 -27.33,9.4 -34.51,2.65 -62.69,-14.89 -69,-42.94 -3.74,-16.65 -0.24,-28.51 12.69,-43.08 3.21,-3.61 5.82,-6.81 5.82,-7.12 l 1,-2.18 c 0.83,0.53 4.23,-6.24 5.55,-11.05 3.59,-13.13 6.54,-18.14 13.6,-23.09 6.44,-4.52 14.2,-6.49 23.22,-5.9 8.47,0.56 14.39,2.3 23,6.76 19.11,9.93 33.46,28.94 39.13,51.82 2.29,9.25 2.12,19.3 0.9,25.18 z m -82,42.85 c 0.56,-0.32 0.33,-0.64 -0.61,-0.88 -7.35,-1.88 -19,-10.5 -25.23,-18.61 a 64.67,64.67 0 0 1 -9.14,-17.54 c -1.65,-5.14 -2.08,-3.86 -1.08,3.26 a 39.68,39.68 0 0 0 29.87,33 c 2.96,0.72 5.74,1.05 6.23,0.77 z"
     id="path102"
     style="fill:#5ba12c" />
  <path
     class="c"
     d="m 235.5,80.73 a 86.1,86.1 0 0 1 -5.14,9.59 c -3.52,6 -5.78,9 -8.45,11.37 -7.07,6.26 -17.41,10.61 -26.24,11 -5.17,0.26 -5.26,-0.18 -1.69,-8.07 6.73,-14.89 21,-25 36.3,-25.78 5.3,-0.26 5.68,-0.12 5.22,1.85 z"
     id="path104"
     style="fill:#5ba12c" />
  <path
     class="d"
     d="m 243.26,82.35 c 0,-0.32 -2.11,-1.44 -4.67,-2.49 -5.12,-2.11 -13.22,-7.56 -16.69,-11.24 l -2.21,-2.35 2.74,-3.79 a 38.26,38.26 0 0 1 3,-3.87 45.76,45.76 0 0 1 4.13,5.63 c 3.06,4.53 12,14.15 14.73,15.93"
     id="path106"
     style="fill:#502d16" />
  <path
     class="e"
     d="m 410.33,237.14 c -5.74,-0.07 -15.16,-2.15 -23.3,-6.56 a 80.16,80.16 0 0 1 -39.9,-51.54 c -2.31,-9.75 -2.66,-16.19 -1.36,-25 q 2.1,-14 10.51,-22.36 c 6.14,-6.09 11.45,-8 24.47,-8.7 4.77,-0.27 11.82,-2.22 11.5,-3.18 l 2.26,-0.58 c 0.29,0.07 3.84,-1.88 7.9,-4.34 16.38,-9.93 28.19,-10.83 42.92,-3.29 24.81,12.72 35.1,45.39 25.19,80 -2.47,8.61 -7.84,19.49 -14.66,25.79 -15.37,12.58 -28.83,18.7 -45.53,19.71 z m 58.29,-80.48 c 0,-16.69 -9.86,-32 -24.39,-37.89 -6.42,-2.61 -7.71,-2.46 -3.27,0.38 a 62.9,62.9 0 0 1 14.39,13.25 c 6.23,8.15 11.75,22 11.92,29.91 0,1 0.28,1.32 0.7,0.82 0.42,-0.5 0.65,-3.35 0.65,-6.47 z"
     id="path108"
     style="fill:#447821" />
  <path
     class="f"
     d="m 394.67,110.99 c -1.94,0 -2,-0.39 -0.6,-5.73 A 43.46,43.46 0 0 1 425.94,74 c 8.13,-1.87 8.52,-1.68 7.17,3.53 a 48.61,48.61 0 0 1 -16,24.29 c -2.79,2.2 -6.11,3.82 -12.42,6.07 a 77.57,77.57 0 0 1 -10.06,3.1 z"
     id="path110"
     style="fill:#338000" />
  <path
     class="d"
     d="m 392.25,119.85 c -1.06,-3.24 -8.11,-14.47 -11.68,-18.61 a 47,47 0 0 1 -4.36,-5.47 34.43,34.43 0 0 1 4.29,-2.22 l 4.12,-2 1.72,2.78 c 2.68,4.37 6,13.85 6.88,19.55 0.44,2.85 1,5.25 1.32,5.32"
     id="path112"
     style="fill:#502d16" />
  <path
     class="e"
     d="m 82.420001,181.92 c -5.74,-0.07 -15.16,-2.15 -23.3,-6.56 A 80.17,80.17 0 0 1 19.22,123.83 c -2.31,-9.76 -2.66,-16.19 -1.36,-25 q 2.1,-14 10.51,-22.36 c 6.14,-6.09 11.45,-8 24.47,-8.7 4.770001,-0.22 11.820001,-2.22 11.500001,-3.14 l 2.26,-0.58 c 0.29,0.08 3.84,-1.88 7.9,-4.33 16.38,-9.94 28.189999,-10.84 42.919999,-3.29 24.81,12.71 35.1,45.38 25.19,80 -2.47,8.62 -7.84,19.49 -14.66,25.79 -15.37,12.58 -28.829999,18.7 -45.529999,19.71 z M 140.71,101.44 c 0,-16.68 -9.86,-32 -24.39,-37.89 -6.42,-2.61 -7.71,-2.46 -3.27,0.38 a 62.9,62.9 0 0 1 14.39,13.25 c 6.23,8.15 11.75,22 11.92,29.91 0,1 0.28,1.32 0.7,0.82 0.42,-0.5 0.65,-3.36 0.65,-6.47 z"
     id="path114"
     style="fill:#447821" />
  <path
     class="f"
     d="m 66.760001,55.77 c -1.93,0 -2,-0.39 -0.6,-5.73 a 43.46,43.46 0 0 1 31.87,-31.26 C 106.16,16.91 106.55,17.1 105.2,22.31 A 48.61,48.61 0 0 1 89.200001,46.6 c -2.78,2.2 -6.11,3.83 -12.42,6.07 a 77.57,77.57 0 0 1 -10.06,3.1 z"
     id="path116"
     style="fill:#338000" />
  <path
     class="d"
     d="m 64.340001,64.63 c -1.06,-3.23 -8.11,-14.47 -11.680001,-18.61 a 47,47 0 0 1 -4.36,-5.47 36.07,36.07 0 0 1 4.26,-2.2 l 4.120001,-2 1.72,2.79 c 2.68,4.36 6,13.84 6.88,19.54 0.44,2.85 1,5.25 1.32,5.32"
     id="path118"
     style="fill:#502d16" />
  <path
     class="e"
     d="m 160.61,239.44 c -5.24,-2.34 -13.07,-8 -18.8,-15.24 A 80.18,80.18 0 0 1 125.5,161.09 c 1.73,-9.87 3.95,-15.92 8.62,-23.45 5,-8 11.14,-13.51 18.48,-16.4 8,-3.16 13.68,-2.8 25.92,1.68 4.49,1.64 11.73,2.64 11.82,1.62 l 2.3,0.37 c 0.24,0.18 4.28,-0.21 9,-0.86 19,-2.65 30.19,1.18 40.73,13.94 17.77,21.48 14.3,55.56 -8.48,83.44 -5.67,6.93 -14.89,14.8 -23.65,17.89 -19.09,5.48 -33.88,5.79 -49.62,0.12 z m 85.36,-50.89 c 6.53,-15.34 3.53,-33.28 -7.47,-44.45 -4.87,-4.94 -6.11,-5.31 -3.16,-1 a 63,63 0 0 1 8,17.87 c 2.5,9.94 2.1,24.84 -0.87,32.18 -0.39,0.94 -0.27,1.32 0.31,1 0.58,-0.32 1.96,-2.74 3.19,-5.6 z"
     id="path120"
     style="fill:#447821" />
  <path
     class="f"
     d="m 196.09,117.36 c -1.79,-0.74 -1.67,-1.14 1.71,-5.5 a 43.47,43.47 0 0 1 41.63,-16.12 c 8.21,1.5 8.49,1.83 5.19,6.08 a 48.57,48.57 0 0 1 -24.26,16 c -3.43,0.92 -7.12,1.1 -13.81,0.67 a 77.09,77.09 0 0 1 -10.46,-1.14 z"
     id="path122"
     style="fill:#338000" />
  <path
     class="d"
     d="m 190.36,124.55 c 0.31,-3.38 -1.73,-16.49 -3.37,-21.7 a 47.87,47.87 0 0 1 -1.85,-6.75 35.23,35.23 0 0 1 4.79,-0.34 l 4.57,-0.21 0.48,3.23 c 0.74,5.07 0.06,15.11 -1.4,20.68 -0.73,2.79 -1.14,5.23 -0.9,5.41"
     id="path124"
     style="fill:#502d16" />
  <path
     class="c"
     d="m 458.01,286.21 c -5,-2.86 -12.44,-9.29 -17.67,-17.17 -12.92,-19.47 -17.42,-43.33 -12.26,-65 2.31,-9.75 4.88,-15.62 9.94,-22.73 q 8.12,-11.37 19.29,-14.65 c 8.14,-2.39 13.69,-1.47 25.52,4.25 4.34,2.09 11.44,3.81 11.59,2.8 l 2.26,0.59 c 0.22,0.21 4.24,0.22 8.92,0 18.92,-0.79 29.77,4.18 39.42,18 16.26,23.35 10.77,57.26 -13.46,83 -6,6.41 -15.63,13.41 -24.48,15.65 -19.21,3.62 -33.85,2.47 -49.07,-4.79 z m 87.49,-42.72 c 7.44,-14.76 5.56,-33.09 -4.64,-45.41 -4.51,-5.44 -5.72,-5.94 -3.06,-1.26 a 66.55,66.55 0 0 1 6.82,18.73 c 1.87,10.25 0.56,25.19 -2.82,32.27 -0.44,0.91 -0.35,1.3 0.24,1.06 0.59,-0.24 2.08,-2.63 3.46,-5.39 z"
     id="path126"
     style="fill:#5ba12c" />
  <path
     class="c"
     d="m 500.5,167.01 c -1.72,-0.92 -1.58,-1.31 2,-5.36 a 41.42,41.42 0 0 1 42.2,-12.1 c 8,2.32 8.28,2.68 4.76,6.63 a 45.79,45.79 0 0 1 -25,13.69 c -3.45,0.58 -7.12,0.4 -13.7,-0.69 a 74.55,74.55 0 0 1 -10.26,-2.17 z"
     id="path128"
     style="fill:#5ba12c" />
  <path
     class="c"
     d="m 494.42,173.67 c 0.51,-3.38 -0.71,-16.75 -2,-22.15 a 50.26,50.26 0 0 1 -1.41,-7 35,35 0 0 1 4.75,0.13 l 4.52,0.29 0.27,3.3 c 0.42,5.17 -0.86,15.19 -2.64,20.64 -0.89,2.74 -1.44,5.14 -1.21,5.35"
     id="path130"
     style="fill:#5ba12c" />
  <path
     class="c"
     d="m 364.9,125.95 c -4,-4.25 -9.39,-12.62 -12.25,-21.72 -7.07,-22.51 -4.88,-46.72 6,-66 4.85,-8.68 8.92,-13.51 15.72,-18.82 q 10.88,-8.47 22.48,-8.3 c 8.46,0.14 13.52,2.68 23.31,11.68 3.58,3.3 9.92,7.06 10.34,6.14 l 2,1.24 c 0.16,0.27 4,1.47 8.55,2.68 18.35,4.88 27.4,12.87 32.87,29 9.21,27.23 -5.31,58.09 -35.56,75.57 -7.53,4.35 -18.64,8.2 -27.73,7.71 -19.41,-2.26 -33.12,-7.72 -45.73,-19.22 z m 95.53,-14.87 a 42.25,42.25 0 0 0 7.93,-44.9 c -2.84,-6.57 -3.86,-7.4 -2.59,-2.13 a 67.3,67.3 0 0 1 1.41,20 c -1,10.37 -6.33,24.3 -11.5,30.08 -0.67,0.75 -0.69,1.15 -0.05,1.1 0.64,-0.05 2.71,-1.92 4.8,-4.15 z"
     id="path132"
     style="fill:#5ba12c" />
  <path
     class="c"
     d="m 438.16,24.37 c -1.4,-1.4 -1.15,-1.73 3.41,-4.53 a 41.05,41.05 0 0 1 43.7,1 c 7.06,4.61 7.21,5 2.75,7.77 a 44.66,44.66 0 0 1 -27.66,5.68 c -3.46,-0.46 -6.93,-1.73 -12.94,-4.74 a 77.74,77.74 0 0 1 -9.26,-5.15 z"
     id="path134"
     style="fill:#5ba12c" />
  <path
     class="d"
     d="m 430.5,28.93 c 1.41,-3.08 3.89,-16.27 4.11,-21.83 a 48.15,48.15 0 0 1 0.55,-7.1 33.94,33.94 0 0 1 4.52,1.55 l 4.25,1.62 -0.64,3.25 c -1,5.08 -5,14.3 -8.16,19 -1.61,2.36 -2.79,4.51 -2.63,4.77"
     id="path136"
     style="fill:#502d16" />
  <path
     class="e"
     d="m 489.85,162.86 c -12.31,-11.84 -19,-25.5 -23.27,-45.41 -1.45,-9.39 1,-21.36 4.31,-29.65 13.32,-33.34 41.09,-51.79 68,-45.19 16,3.91 24.56,12.44 31.2,31 1.65,4.58 3.21,8.45 3.48,8.58 l 1.4,1.95 c -0.83,0.53 3.44,6.71 7,10.07 9.63,9.19 12.59,14.17 13.65,23 q 1.44,12 -5.44,24.25 c -4.3,7.65 -8.48,12.39 -16.18,18.41 -17.15,13.39 -39.93,18.31 -62.12,13.42 -9,-2 -17.51,-6.61 -22,-10.36 z m 0.3,-95.43 c 0,0.66 0.4,0.6 1,-0.17 4.93,-6 17.6,-13.07 27.36,-15.24 a 59.56,59.56 0 0 1 19.17,-0.72 c 5.15,0.75 4.25,-0.22 -2.3,-2.45 -14.82,-5 -31.71,0.25 -41.84,13.14 -1.87,2.42 -3.41,4.86 -3.39,5.44 z"
     id="path138"
     style="fill:#447821" />
  <path
     class="f"
     d="m 578.5,75.66 a 83.43,83.43 0 0 1 -5.9,-9.06 c -3.52,-5.92 -5.11,-9.38 -5.93,-12.93 -2.17,-9.36 -1.23,-20.93 2.39,-29.35 2.11,-4.93 2.53,-4.82 7.69,2 a 46.21,46.21 0 0 1 5.69,45.29 c -2.17,5.05 -2.46,5.34 -3.94,4 z"
     id="path140"
     style="fill:#338000" />
  <path
     class="d"
     d="m 573.56,82.17 c 0.27,0.14 2.18,-1.32 4.25,-3.24 4.12,-3.84 12.45,-9 17.18,-10.55 l 3,-1 2,4.23 a 38,38 0 0 1 2,4.53 43.65,43.65 0 0 1 -6.7,1.34 c -5.26,0.84 -17.53,4.86 -20.31,6.66"
     id="path142"
     style="fill:#502d16" />
  <path
     class="e"
     d="m 582.69,276.03 c -5.75,-0.07 -15.16,-2.15 -23.3,-6.56 A 80.16,80.16 0 0 1 519.5,217.93 c -2.31,-9.75 -2.66,-16.19 -1.36,-24.95 q 2.08,-14 10.51,-22.36 c 6.14,-6.09 11.45,-8 24.47,-8.7 4.77,-0.27 11.81,-2.22 11.5,-3.18 l 2.26,-0.58 c 0.29,0.07 3.84,-1.88 7.9,-4.34 16.38,-9.93 28.19,-10.83 42.92,-3.29 24.81,12.72 35.09,45.39 25.18,80 -2.46,8.61 -7.83,19.49 -14.65,25.79 -15.37,12.58 -28.83,18.7 -45.53,19.71 z m 58.29,-80.48 c 1,-12.57 -11.35,-32.58 -24.39,-37.89 -6.42,-2.61 -7.71,-2.46 -3.27,0.38 a 62.68,62.68 0 0 1 14.39,13.25 c 6.23,8.15 11.75,22 11.92,29.91 0,0.2 0.13,1 0.31,1 0.47,0.06 0.99,-6 1.04,-6.65 z"
     id="path144"
     style="fill:#447821" />
  <path
     class="f"
     d="m 567.03,149.87 c -1.94,0 -2,-0.39 -0.6,-5.72 a 43.45,43.45 0 0 1 31.87,-31.26 c 8.13,-1.87 8.52,-1.68 7.17,3.53 a 48.61,48.61 0 0 1 -16,24.29 c -2.79,2.2 -6.11,3.82 -12.42,6.07 a 77.57,77.57 0 0 1 -10.06,3.1 z"
     id="path146"
     style="fill:#338000" />
  <path
     class="d"
     d="m 564.61,158.74 c -1.06,-3.24 -8.11,-14.47 -11.68,-18.61 a 45.71,45.71 0 0 1 -4.36,-5.47 35.31,35.31 0 0 1 4.26,-2.21 l 4.12,-1.94 1.71,2.78 c 2.69,4.37 6,13.85 6.89,19.54 0.43,2.86 1,5.26 1.32,5.33"
     id="path148"
     style="fill:#502d16" />
  <rect
     class="g"
     x="60.800003"
     y="234.15999"
     width="610"
     height="55"
     id="rect150"
     style="fill:#fccd8d" />
  <rect
     class="g"
     x="60.800003"
     y="298.16"
     width="610"
     height="55"
     id="rect152"
     style="fill:#fccd8d" />
  <rect
     class="g"
     x="60.800003"
     y="364.16"
     width="610"
     height="55"
     id="rect154"
     style="fill:#fccd8d" />
  <rect
     class="g"
     x="60.800003"
     y="430.15997"
     width="610"
     height="55"
     id="rect156"
     style="fill:#fccd8d" />
  <rect
     class="g"
     x="60.800003"
     y="496.15997"
     width="610"
     height="55"
     id="rect158"
     style="fill:#fccd8d" />
  <rect
     class="g"
     x="60.800003"
     y="562.15997"
     width="610"
     height="42"
     id="rect160"
     style="fill:#fccd8d" />
  <path
     class="a"
     d="M 62.000001,288.79 0.49999965,118.26 V 65.79 l 60.50000135,168 q 0.5,27.51 1,55 z"
     id="path162"
     style="fill:#c99550" />
  <path
     class="a"
     d="M 61.210001,350.62 Q 30.87,263.88 0.49999965,177.11 V 122.29 L 60.350001,299.71 q 0.42,25.46 0.86,50.91 z"
     id="path164"
     style="fill:#c99550" />
  <path
     class="a"
     d="M 62.140001,419.03 0.49999965,242.27 V 186.55 L 60.350001,363.94 q 0.89,27.56 1.79,55.09 z"
     id="path166"
     style="fill:#c99550" />
  <path
     class="a"
     d="M 61.160001,485.25 0.49999965,304.28 V 251.81 Q 30.95,341.9 61.420001,431.99 q -0.13,26.64 -0.26,53.26 z"
     id="path168"
     style="fill:#c99550" />
  <path
     class="a"
     d="M 60.350001,548.11 0.49999965,366.28 V 313.81 L 61.710001,497.55 Z"
     id="path170"
     style="fill:#c99550" />
  <path
     class="a"
     d="M 61.340001,603.79 0.49999965,424.46 V 378.04 Q 31.5,471.93 62.500001,565.79 q -0.58,19 -1.16,38 z"
     id="path172"
     style="fill:#c99550" />
</svg>
