<?xml version="1.0" encoding="UTF-8" standalone="no"?>
<svg
   id="Layer_5"
   data-name="Layer 5"
   viewBox="0 0 557.71024 256.07159"
   version="1.1"
   sodipodi:docname="apples_in_plane.svg"
   width="557.71027"
   height="256.07159"
   inkscape:version="1.2.2 (b0a8486541, 2022-12-01)"
   xmlns:inkscape="http://www.inkscape.org/namespaces/inkscape"
   xmlns:sodipodi="http://sodipodi.sourceforge.net/DTD/sodipodi-0.dtd"
   xmlns="http://www.w3.org/2000/svg"
   xmlns:svg="http://www.w3.org/2000/svg">
  <sodipodi:namedview
     id="namedview203"
     pagecolor="#ffffff"
     bordercolor="#000000"
     borderopacity="0.25"
     inkscape:showpageshadow="2"
     inkscape:pageopacity="0.0"
     inkscape:pagecheckerboard="0"
     inkscape:deskcolor="#d1d1d1"
     showgrid="false"
     inkscape:zoom="2.0413625"
     inkscape:cx="370.58582"
     inkscape:cy="180.76162"
     inkscape:window-width="1920"
     inkscape:window-height="1011"
     inkscape:window-x="0"
     inkscape:window-y="32"
     inkscape:window-maximized="1"
     inkscape:current-layer="Layer_5" />
  <defs
     id="defs4">
    <style
       id="style2">.cls-1{fill:#d7e1e2;}.cls-2{fill:#fbb040;}.cls-3{fill:#e2e8e7;}.cls-4{fill:#bababa;}.cls-4,.cls-5{opacity:0.11;}.cls-5,.cls-6{fill:#fff;}.cls-7{fill:#d1d3d4;}.cls-8{fill:#fdf9cc;}.cls-9{fill:#a97c50;}.cls-10,.cls-20,.cls-22,.cls-23,.cls-29,.cls-30{fill:#fdeb01;}.cls-10{stroke:#a97c50;stroke-width:0.56px;}.cls-10,.cls-11,.cls-12,.cls-14,.cls-22,.cls-23,.cls-26,.cls-27,.cls-28,.cls-29,.cls-30,.cls-31,.cls-32,.cls-33{stroke-miterlimit:10;}.cls-11,.cls-19{fill:#f8e877;}.cls-11{stroke:#c49a6c;stroke-width:0.61px;}.cls-12,.cls-27,.cls-32{fill:#cdbb2c;}.cls-12,.cls-22,.cls-23,.cls-27,.cls-29,.cls-30,.cls-32{stroke:#fdeb01;}.cls-12,.cls-14{stroke-width:0.61px;}.cls-13{fill:#9b8d3a;}.cls-14{fill:#4c2d1c;}.cls-14,.cls-28,.cls-33{stroke:#3c2415;}.cls-15{fill:#ebc569;}.cls-16{fill:#ffe2a1;}.cls-17{fill:#894e21;}.cls-18{fill:#603913;}.cls-21{fill:#f26522;}.cls-22{stroke-width:0.58px;}.cls-23{stroke-width:0.46px;}.cls-24{fill:#895931;}.cls-25,.cls-28,.cls-33{fill:#3c2415;}.cls-26,.cls-31{fill:none;stroke:#000;}.cls-26{stroke-width:0.43px;}.cls-27,.cls-28{stroke-width:0.57px;}.cls-29{stroke-width:0.61px;}.cls-30{stroke-width:0.49px;}.cls-31{stroke-width:0.45px;}.cls-32,.cls-33{stroke-width:0.6px;}</style>
  </defs>
  <ellipse
     class="cls-1"
     cx="278.50003"
     cy="127.69863"
     rx="277.82999"
     ry="127.44"
     id="ellipse6"
     style="fill:#d7e1e2" />
  <path
     class="cls-2"
     d="m 557.71004,127.69864 c 0.06,21.28 -11.7,40.63 -26.65,55 -44.12,41.37 -111.83,59.16 -170.35,67.88 -99.92,13.56 -234.00001,4.44 -318.550007,-54.93 -21.9,-16 -42.18999977,-39.46 -42.159999773966,-67.95 C 0.03003323,99.208641 20.350033,75.808651 42.260033,59.888646 126.72003,0.7686463 260.83004,-8.1113537 360.62004,5.6686463 c 60.66,8.8299997 145.57,31.6499997 182.87,83.5699947 a 71.61,71.61 0 0 1 12,28.219999 65,65 0 0 1 0.88,10.24 z m -1.34,0 c 0,-20.92 -11.55,-39.909989 -26.25,-53.999994 -43.86,-41.14 -111.31,-58.83 -169.53,-67.4899997 -99.6,-13.53 -233.39001,-4.47 -317.600007,54.6599997 -21.59,15.710005 -41.6599998,38.770005 -41.6499998,66.829994 0.01,28.06 20.1399998,51 41.7099998,66.73001 65.769997,46.07999 156.660007,59.14999 235.450007,59.69999 68.15,-0.45999 137.78,-10.27999 200,-39.3 24.32,-11.82999 48.17,-27 63.92,-49.43 a 70.15,70.15 0 0 0 11.74,-27.69 62.26,62.26 0 0 0 0.87,-10 z"
     id="path8"
     style="fill:#fbb040" />
  <ellipse
     class="cls-3"
     cx="279.09003"
     cy="127.69863"
     rx="173.78"
     ry="79.709999"
     id="ellipse10"
     style="fill:#e2e8e7" />
  <path
     class="cls-4"
     d="m 225.26004,60.318646 c 8.06,-1.36 16.12,-2.69 24.24,-3.71 10.15,-1.27 20.38,-2 30.6,-2.35 a 382.18,382.18 0 0 1 53.81,1.64 c 7.53,0.77 15.06,1.78 22.52,3.07 l 10.77,2 a 112.11,112.11 0 0 1 38.63,14.709995 61.65,61.65 0 0 1 30.88,14.55001 37.4,37.4 0 0 1 4.88,4.44999 52.1,52.1 0 0 1 9.12,11.679999 39.19,39.19 0 0 1 5.06,19.46 c -0.1,7.72 -3.53,15.16 -7.9,21.33 -5.56,7.88 -13.17,14.23 -21.14,19.56 -12.21,8.16001 -25.69,13.83 -39.35,19 a 0.78,0.78 0 0 0 -0.26,1.18 2.71,2.71 0 0 0 2.09,0.47001 c 17.51,-6.76 34.82,-14.38 49.17,-26.8 a 64.82,64.82 0 0 0 13,-14.69 41.64,41.64 0 0 0 4.16,-7.9 33.75,33.75 0 0 0 2.12,-8.12001 c 3,-17.15 -7.05,-32.719989 -20,-42.999989 -18.56,-14.810005 -41.37,-22.600005 -64.22,-28.000005 -22.19,-5.27 -45.12,-7.47 -67.87,-8.19 a 388.11,388.11 0 0 0 -42.73,1.17 c -14.25,1.13 -28.33,3.18 -42.45,5.4 -1.27,0.2 0.83,1.61 0.83,1.61 1.07,0.56 2.79,1.74 4.04,1.48 z"
     id="path12"
     style="opacity:0.11;fill:#bababa" />
  <path
     class="cls-4"
     d="m 222.01004,58.108646 c 12.09,-2.08 24.14,-4 36.38,-5 q 15.26,-1.24 30.55,-1.39 a 353.18,353.18 0 0 1 64.21,4.92 l 10.79,2 a 128.37,128.37 0 0 1 32.37,10.56 86.35,86.35 0 0 1 28.63,12.169995 l 6,4.17 a 64.38,64.38 0 0 1 13.65,13.48 l 3.15,4.739999 a 37.6,37.6 0 0 1 5.25,19.35 l 0.08,-3.16 -0.55,8 0.46,-3.19 -1.58,7.92 0.86,-3.09 -2.67,7.77 1.27,-3 -3.7,7.62 1.65,-2.79 a 73.2,73.2 0 0 1 -17.84,20.57 85.45,85.45 0 0 1 -8.87,6.38 c -11.42,7.52 -23.65,12.85 -36.29,17.84 -1.48,0.58 2.17,1.37 1.83,1.3 1.25,0.21 2.51,0.36 3.77,0.45 a 3.58,3.58 0 0 0 2,-0.13 c 13.57,-6.16 27.06,-12.9 38.45,-22.68 8.22,-7.06 15.78,-15.49 19.88,-25.66 a 40.67,40.67 0 0 0 0.44,-30.12 49.82,49.82 0 0 0 -8.87,-14.099999 77.13,77.13 0 0 0 -14.63,-13 133.64,133.64 0 0 0 -21.53,-11.829995 c -15.16,-6.68 -31.52,-11.15 -47.78,-14.16 a 370.26,370.26 0 0 0 -63.29,-6.06 q -18.37,-0.21 -36.67,1.22 c -14.23,1.12 -28.28,3.17 -42.37,5.39 -1.3,0.2 0.84,1.67 0.86,1.67 0.96,0.69 2.81,2.05 4.11,1.84 z"
     id="path14"
     style="opacity:0.11;fill:#bababa" />
  <path
     class="cls-4"
     d="m 223.79004,54.968646 a 235.74,235.74 0 0 1 24.07,-3.94 q 12.19,-1.44 24.46,-2.08 c 12.09,-0.63 24.26,-0.7 36.35,-0.2 25.92,1.08 52.12,4.57 77,12.05 a 193.37,193.37 0 0 1 26.64,10.13 115.52,115.52 0 0 1 14.26,8.059995 75.12,75.12 0 0 1 19,17.76 c 4.79,7.389999 7.54,14.409999 7.27,23.849999 q -11.16,33.4 -41.76,47.4 a 201.16,201.16 0 0 1 -25.65,11.39 c -0.66,0.27 -0.26,1 0.18,1.2 0.83,0.32 2.45,-0.17 3.23,-0.49 13,-5.45 26,-11.28 37.43,-19.57 8,-5.82 15.69,-12.21 21.21,-20.57 a 44.67,44.67 0 0 0 6.1,-13.95 35.42,35.42 0 0 0 -1.58,-20.61 c -3.27,-8.639989 -9.42,-15.749999 -16.35,-21.659999 -14.22,-12.139995 -32,-19.469995 -49.78,-24.789995 -25,-7.5 -51.32,-11 -77.35,-12.09 -12.13,-0.51 -24.34,-0.44 -36.47,0.19 q -12.3,0.63 -24.52,2.08 a 207.33,207.33 0 0 0 -24,4 c -1.23,0.24 -0.74,2.03 0.26,1.84 z"
     id="path16"
     style="opacity:0.11;fill:#bababa" />
  <path
     class="cls-4"
     d="m 224.35004,56.778646 c 10.08,-1.71 20.15,-3.28 30.33,-4.34 q 12.22,-1.26 24.5,-1.74 a 398.84,398.84 0 0 1 53.88,1.55 c 9.38,0.9 18.71,2.31 28,4.05 a 244.8,244.8 0 0 1 25.78,6.06 c 13.16,4 26.1,8.84 37.92,15.930005 a 96,96 0 0 1 11.95,8.38999 c 4,3.29 8.18,7.06 11,11.38 l 8,18.659999 0.29,4.87 a 35.66,35.66 0 0 1 -2.37,12 c -3,8 -8.3,14.82 -14.47,20.67 -14.09,13.36001 -32.45,21.7 -50.2,28.76 a 0.42,0.42 0 0 0 0,0.72001 3.54,3.54 0 0 0 1.89,0.47 c 1.62,0.19 4.05,0.64 5.61,-0.06 11.24,-5.06 22.52,-10.38 32.5,-17.72 10.75,-7.9 21.1,-17.48 26.46,-30 a 42.12,42.12 0 0 0 3.29,-21.25001 43.23,43.23 0 0 0 -8.53,-21.069989 c -8.57,-11.22 -20.17,-19.830005 -32.76,-26.070005 -17.81,-8.83 -37.25,-14.51 -56.77,-18.06 a 375.11,375.11 0 0 0 -64.07,-5.92 q -18.54,-0.17 -37,1.34 c -14.24,1.15 -28.36,3.18 -42.49,5.28 -1.57,0.24 1.28,2.26 1.32,2.29 1.22,0.94 2.48,1.84 3.76,2.7 a 5.38,5.38 0 0 0 2.18,1.11 z"
     id="path18"
     style="opacity:0.11;fill:#bababa" />
  <path
     class="cls-4"
     d="m 225.95004,54.268646 11.92,-2.09 24.13,-2.88 c 10.14,-0.95 20.38,-1.25 30.56,-1.3 a 372.53,372.53 0 0 1 53.09,3.42 275.53,275.53 0 0 1 47.06,10.54 185.74,185.74 0 0 1 17.81,6.77 114.58,114.58 0 0 1 18.43,9.849995 c 7.3,5 14,10.78 19.19,18 a 38,38 0 0 1 6.8,16.739999 16.3,16.3 0 0 1 -0.66,9.4 17.61,17.61 0 0 1 -2,9.26 c -3.42,7.67 -9,14.23 -15.3,19.72 -14.4,12.54 -31.85,20.28 -49.39,27.14 -0.48,0.18 -0.89,0.65 -0.48,1.17 0.41,0.52 1.48,0.25 2,0.06 13.12,-5.25 26,-10.94999 37.83,-18.81999 5.42,-3.62001 11.22,-7.88 15.7,-12.67 3.82,-4.1 7.55,-8.57 10,-13.62 a 38.47,38.47 0 0 0 4.25,-17.33001 c 0,-9.33 -3.9,-17.849989 -9.6,-24.999989 -8.44,-10.66 -20,-18.000005 -32.1,-24.000005 a 176.59,176.59 0 0 0 -26.95,-10.28 270.11,270.11 0 0 0 -31.53,-7.4 358.62,358.62 0 0 0 -70.77,-5.25 c -10.28,0.25 -20.52,0.85 -30.76,1.87 -10.24,1.02 -20.3,2.62 -30.42,4.39 -1.46,0.25 0.27,2.48 1.19,2.31 z"
     id="path20"
     style="opacity:0.11;fill:#bababa" />
  <path
     class="cls-4"
     d="m 221.71004,57.718646 q 11.92,-2.55 24,-3.89 l 12.23,-1.25 c 12.12,-1.09 24.42,-1.46 36.58,-1.34 23,0.25 46.25,2.29 68.74,7.22 a 234.86,234.86 0 0 1 29.73,8.21 c 15,5.42 30.61,12.190005 42.16,23.500005 l 4.4,4.47 3.66,4.56999 -17.08,35.859999 q -1.19,30.87 -24.82,39.73001 -8.62,4 -17.57,7.32999 c -0.76,0.30001 -0.66,0.87001 0,1.21 a 9.65,9.65 0 0 0 2.08,0.2 9.14,9.14 0 0 0 2.09,-0.12 c 15.43,-6.66 30.62,-14.16 43.43,-25.23 a 97.67,97.67 0 0 0 8.48,-8.3 50.71,50.71 0 0 0 6.26,-8.24 c 3.33,-5.81 6,-12.09 6.24,-18.87 a 37.38,37.38 0 0 0 -2.91,-15.77 c -3.88,-9.339999 -11.09,-16.999999 -19,-23.059999 -13.84,-10.699995 -30.53,-17.369995 -47.17,-22.319995 -25,-7.41 -51.27,-11 -77.27,-11.92 -12.14,-0.43 -24.29,-0.41 -36.43,0.23 q -12.29,0.66 -24.5,2.1 a 228.68,228.68 0 0 0 -24,3.94 c -1.16,0.23 -0.39,1.93 0.67,1.74 z"
     id="path22"
     style="opacity:0.11;fill:#bababa" />
  <path
     class="cls-4"
     d="m 223.46004,61.098646 a 434.35,434.35 0 0 1 48.64,-5.83 387.13,387.13 0 0 1 48.17,0.34 335.71,335.71 0 0 1 44.87,6.07 217.67,217.67 0 0 1 42.8,13.21 c 9.65,4.210005 18.89,9.319995 27,16.110005 a 66.48,66.48 0 0 1 9,9 q 9.41,9.999999 1.1,25.999999 7,16.25999 -2.7,25.9 c -14.82,16.85 -36.21,26.23999 -56.72,34.1 a 0.75,0.75 0 0 0 -0.31,1.17 3.15,3.15 0 0 0 2.27,0.6 c 15.28,-5.94 30.24,-12.51 43.39,-22.47 9.3,-7.06 18,-16 22.2,-27.11 a 38.13,38.13 0 0 0 2.1,-18.1 c -1.3,-10.21 -6.81,-19.38 -14.08,-26.539999 -8.9,-8.76 -19.57,-15.09 -30.85,-20.320005 a 174.18,174.18 0 0 0 -26.94,-9.62 279.68,279.68 0 0 0 -31.2,-6.78 392.9,392.9 0 0 0 -58.14,-4.53 357.94,357.94 0 0 0 -36.61,1.62 c -12.16,1.18 -24.2,3 -36.26,5 a 0.67,0.67 0 0 0 -0.44,1.13 4.45,4.45 0 0 0 2.71,1.05 z"
     id="path24"
     style="opacity:0.11;fill:#bababa" />
  <path
     class="cls-4"
     d="m 226.45004,56.578646 a 438.36,438.36 0 0 1 48.72,-5.81 389.19,389.19 0 0 1 48.3,0.35 336.12,336.12 0 0 1 45,6.1 219.34,219.34 0 0 1 43,13.28 c 9.72,4.25 19,9.409995 27.16,16.249995 a 36.48,36.48 0 0 1 4.9,4.48 26.72,26.72 0 0 1 7.62,11.709999 20.42,20.42 0 0 1 5.81,11.91 16.44,16.44 0 0 1 0.54,4.94 17.58,17.58 0 0 1 -0.2,4.91 q -0.59,11.13 -11.59,18.33 a 35.82,35.82 0 0 1 -14.2,18 60.52,60.52 0 0 1 -6.12,4.11 c -11.25,7.1 -23.33,12.3 -35.7,17.12 a 0.66,0.66 0 0 0 0,1.21 5,5 0 0 0 3.1,0.07 c 14.81,-6.05 29.27,-12.72 42.05,-22.5 9.07,-6.95 17.67,-15.58 22.1,-26.33 a 39,39 0 0 0 3.07,-15.87 42,42 0 0 0 -2.72,-13.28 53.06,53.06 0 0 0 -12.11,-18.149999 c -9.18,-9.19 -20.23,-15.859995 -31.94,-21.329995 a 177,177 0 0 0 -27.63,-9.91 284.11,284.11 0 0 0 -31.85,-6.92 396.87,396.87 0 0 0 -59.14,-4.53 c -24.65,-0.11 -49,2.8 -73.33,6.45 -1.34,0.2 0.52,1.86 0.73,2.06 0.88,0.85 1.8,1.65 2.76,2.41 a 3.37,3.37 0 0 0 1.67,0.94 z"
     id="path26"
     style="opacity:0.11;fill:#bababa" />
  <path
     class="cls-4"
     d="m 222.35004,56.048646 a 376.49,376.49 0 0 1 48.49,-5.9 c 12.11,-0.57 24.24,-0.71 36.36,-0.22 24.29,1 48.59,4.17 72.05,10.6 10.79,3 21.55,6.47 31.61,11.42 a 114.6,114.6 0 0 1 20.14,12.179995 61,61 0 0 1 18.36,22.669999 l -25,54 a 151.83,151.83 0 0 1 -21.78,12.52 q -8.61,4.06 -17.54,7.38 c -0.91,0.36001 -0.66,0.92001 0.08,1.21 a 14.14,14.14 0 0 0 2.52,0 13.93,13.93 0 0 0 2.5,-0.34 c 15.17,-6.73 30,-14.28 42.64,-25.24 5.38,-4.67 10.78,-10.15 14.43,-16.35 a 42.9,42.9 0 0 0 5.73,-14.88 38.4,38.4 0 0 0 -0.82,-15.24 c -2.17,-9.27999 -9.13,-17.749989 -16,-23.929999 -14.65,-13.219995 -33.84,-20.919995 -52.51,-26.409995 -25,-7.36 -51.34,-10.93 -77.37,-11.81 -12.16,-0.41 -24.33,-0.38 -36.48,0.28 q -12.3,0.66 -24.54,2.13 -12,1.41 -23.85,3.79 c -1.66,0.27 0.02,2.31 0.98,2.14 z"
     id="path28"
     style="opacity:0.11;fill:#bababa" />
  <path
     class="cls-4"
     d="m 223.50004,54.578646 c 12.1,-2.05 24.19,-3.83 36.41,-5 12.22,-1.17 24.43,-1.46 36.66,-1.42 a 337.64,337.64 0 0 1 74.14,8.3 225.74,225.74 0 0 1 29.13,8.61 125.15,125.15 0 0 1 12.87,5.34 68.18,68.18 0 0 1 16.48,10.170005 50.57,50.57 0 0 1 13.27,10.71 41.4,41.4 0 0 1 5.39,7 34.19,34.19 0 0 1 4,7.239999 35.25,35.25 0 0 1 2.2,19.44 l 0.39,-2.15001 -1.57,6.87 0.62,-2.09999 -33.27,37.31 a 123.77,123.77 0 0 1 -10.88,6 c -7,3.55999 -14.14,6.52 -21.43,9.42999 -0.92,0.37 -0.88,1 0.1,1.21 a 19.14,19.14 0 0 0 2.93,-0.06 18.87,18.87 0 0 0 2.9,-0.38 c 9.81,-4.41 19.33,-9 28.34,-14.89 a 113.82,113.82 0 0 0 19,-15.41 58.89,58.89 0 0 0 10.44,-14.15 43.8,43.8 0 0 0 4.71,-15.61 c 1,-9.84 -2.55,-19.41 -8.24,-27.299999 a 77.58,77.58 0 0 0 -22.38,-20.159995 c -14.69,-9.11 -31,-15 -47.64,-19.38 -23.87,-6.26 -48.56,-9.29 -73.2,-10.11 -12.26,-0.41 -24.52,-0.18 -36.77,0.47 -16.35,0.87 -32.5,3.21 -48.65,5.75 -1.19,0.19 0.23,1.57 0.46,1.79 0.64,0.63 2.51,2.69 3.59,2.48 z"
     id="path30"
     style="opacity:0.11;fill:#bababa" />
  <path
     class="cls-4"
     d="m 226.22004,58.578646 c 10.11,-1.7 20.17,-3.27 30.36,-4.32 10.19,-1.05 20.38,-1.72 30.6,-2 a 364.35,364.35 0 0 1 59.14,3.2 286.8,286.8 0 0 1 47,10.34 c 13.87,4.44 27.46,10.150005 39.38,18.609995 4.48,3.17 9.25,6.78 12.74,11 l 10.68,18.699999 0.94,4.92 c 1.15,8.34 -1.67,17.08 -6,24.06 -5.55,8.86 -14,16.19 -22.69,21.9 -4.41,2.9 -9,5.55 -13.64,8 -8.2,4.38 -16.86,7.76 -25.52,11.1 a 0.69,0.69 0 0 0 -0.15,1.2 3.94,3.94 0 0 0 2.7,0.33 236,236 0 0 0 25.92,-11.64 121.54,121.54 0 0 0 19.83,-13 c 8.21,-6.89 15.39,-14.8 19.6,-24.77 a 38.84,38.84 0 0 0 0.81,-27 c -2.31,-7 -6.49,-12.819999 -11.43,-18.219999 -9.36,-10.23 -21.65,-17.779995 -34.31,-23.259995 -17.26,-7.46 -35.47,-12.24 -54,-15.44 a 369.81,369.81 0 0 0 -64.51,-5.2 c -12.31,0.06 -24.74,0.6 -37,1.83 -12.26,1.23 -24.21,3 -36.28,4.78 -1.42,0.21 0.9,1.93 1,2 1,0.73 2,1.42 3,2.07 a 3.38,3.38 0 0 0 1.83,0.81 z"
     id="path32"
     style="opacity:0.11;fill:#bababa" />
  <path
     class="cls-4"
     d="m 221.88004,59.268646 q 12,-2.44 24.06,-3.82 9.13,-1.14 18.32,-1.67 18.18,-1.26 36.38,-0.81 c 24.52,0.6 49.14,3.31 73,9.3 a 211.29,211.29 0 0 1 28.2,9 144.49,144.49 0 0 1 16,7.580005 l 25.41,21.15 q 21.56,28.919999 -20.26,64.389999 l -6.38,4.09 c -10.22,6.31 -21.31,10.88 -32.45,15.26 -1,0.39 -0.59,1 0.26,1.32 a 6.73,6.73 0 0 0 4.24,0.28 c 11.26,-4.79 22.27,-9.87 32.41,-16.78 7.52,-5.13 14.78,-11.09 20.43,-18.29 a 59.43,59.43 0 0 0 7.69,-12.18 37,37 0 0 0 0.4,-30.4 c -3.23,-7.48 -8.58,-13.839999 -14.66,-19.179999 -12.25,-10.77 -27.53,-17.710005 -42.82,-22.910005 -24,-8.15 -49.43,-12.15 -74.63,-13.86 a 392.67,392.67 0 0 0 -48.15,-0.29 q -12.24,0.68 -24.41,2.13 -12.17,1.45 -23.94,3.85 c -1.43,0.28 -0.11,2.02 0.9,1.84 z"
     id="path34"
     style="opacity:0.11;fill:#bababa" />
  <path
     class="cls-5"
     d="m 156.71003,74.688646 c -7.22,3.770005 -14.92,7.630005 -20.91,13.190005 -3.31,3.06 -6.64,6.1 -9.73,9.38999 -5,5.289999 -9.5,11.199999 -12,18.109999 a 42.76,42.76 0 0 0 -2.66,15.74001 46.74,46.74 0 0 0 5.83,21.15 c 3.36,6.13999 7.67,12.52 13.35,16.7 2.71,2 5.24,4.18 8,6.09999 a 114.82,114.82 0 0 0 17.37,9.85001 206.17,206.17 0 0 0 36.45001,12.36 359.88,359.88 0 0 0 59.84,9.3 355.94,355.94 0 0 0 81.85,-3.41 c 19.77,-3.11 39.64,-7.94 58.27,-15.37 1.21,-0.48001 -1.24,-1.35001 -1.21,-1.34 -1.26,-0.37 -2.93,-0.86 -4.22,-0.47 -11,3.32 -22,6.76999 -33.19,9.18 a 354,354 0 0 1 -73.22,7.82 c -6.89,0 -13.77,-0.21 -20.66,-0.31 a 68.16,68.16 0 0 1 -8.88,-0.58 c -4.72,-0.61 -9.46,-1.1 -14.19,-1.73 -8.24,-1.10001 -16.55,-2.12 -24.71,-3.73001 a 288.68,288.68 0 0 1 -28.42,-7 199.1,199.1 0 0 1 -25.17001,-9.37 115.5,115.5 0 0 1 -24,-14.87 40.7,40.7 0 0 1 -5,-4.29 65,65 0 0 1 -5.73,-7.09 l -6.68,-37.88 a 41.29,41.29 0 0 1 3.48,-7.21 42.33,42.33 0 0 1 3.95,-5.77 103.1,103.1 0 0 1 9.21,-9.829999 c 1.68,-1.63 3.4,-3.23 5.11,-4.84 a 47,47 0 0 1 8,-5.52 c 3.8,-2.33 7.65,-4.49 11.6,-6.57 1.18,-0.64 -0.94,-2.139995 -1.73,-1.709995 z"
     id="path36"
     style="opacity:0.11;fill:#ffffff" />
  <path
     class="cls-5"
     d="m 155.55003,73.258646 a 136.83,136.83 0 0 0 -14.77,8.139995 40.14,40.14 0 0 0 -6,4.36001 c -2.6,2.55 -5.47,4.82 -8.07,7.37 a 64.49,64.49 0 0 0 -12.18,15.449989 42.57,42.57 0 0 0 -5.13,18.26 c -0.4,10.25 3.24,20.14 8.85,28.57 a 59,59 0 0 0 7.08,8.76 21.63,21.63 0 0 0 2.47,2.22 c 3.59,2.65 6.83,5.53 10.61,8 19.22,12.47 41.88001,18.85 64.11001,23.48 a 373.4,373.4 0 0 0 50.41,6.67 348.86,348.86 0 0 0 85.48,-4.96 271,271 0 0 0 50.5,-13.89 c 1.24,-0.48 -1.21,-1.43 -1.21,-1.43 -1.22,-0.43 -3.11,-1.17 -4.42,-0.77999 -12,3.57 -23.95,7.33999 -36.2,9.86 a 360.55,360.55 0 0 1 -75.16,7.17 q -7.87,-0.29 -15.76,-0.34 a 22.61,22.61 0 0 1 -6.26,-0.16 c -1.34,-0.21 -2.68,-0.42 -4,-0.58 q -8.86,-1 -17.71,-2.32 c -9.84,-1.44 -19.63,-2.89 -29.31,-5.21 a 252.08,252.08 0 0 1 -29.00001,-8.62 c -4.26,-1.58 -8.43,-3.29 -12.55,-5.2 a 93,93 0 0 1 -14.39,-7.8 c -3.35,-2.36 -6.74,-4.83 -9.94,-7.39 l -4.78,-4.1 -0.36,-0.51 a 68.37,68.37 0 0 1 -8.7,-16.85 17.91,17.91 0 0 1 -0.86,-3 19.33,19.33 0 0 1 -0.21,-10 q -1.45,-13.53 7.61,-24.64 l 1.78,-1.75 c 3.06,-3.129999 6.05,-6.299999 9.33,-9.219999 q 2.94,-2.61 6.08,-5 c 5.88,-4.47 12.84,-7.58 19.51,-10.68 1.25,-0.59 -1.09,-1.69 -1.34,-1.83 -1.13,-0.590005 -2.29,-1.130005 -3.47,-1.620005 a 3.58,3.58 0 0 0 -2.04,-0.43 z"
     id="path38"
     style="opacity:0.11;fill:#ffffff" />
  <path
     class="cls-5"
     d="m 155.12003,68.728646 a 137.39,137.39 0 0 0 -14.81,8.259995 38.67,38.67 0 0 0 -6,4.46001 c -2.94,2.94999 -6.3,5.47 -9.22,8.44999 a 72.39,72.39 0 0 0 -8.43,9.91 46.68,46.68 0 0 0 -8,22.799999 c -0.94,12.72 4.75,25.42 12.83,35 a 43.31,43.31 0 0 0 6,5.85 129,129 0 0 0 11.22,8.39 122.74,122.74 0 0 0 15,8 c 21.62001,9.8 45.36001,15.08 68.78001,18.39 a 397.45,397.45 0 0 0 50.42,3.86 332.18,332.18 0 0 0 87.5,-10.27 228.41,228.41 0 0 0 30.51,-9.86 c 0.37,-0.16 0.79,-0.51 0.71,-1 -0.06,-0.31 -0.93,-1 -1.25,-0.9 -18.46,7.68001 -38.3,12.42001 -58,15.67001 a 337.14,337.14 0 0 1 -64.48,4.41 373.94,373.94 0 0 1 -73.48,-9 c -16.81,-3.86 -33.72001,-9 -48.85001,-17.4 a 64.17,64.17 0 0 1 -8.29,-5.22 59.86,59.86 0 0 1 -7.38,-5.81 23.05,23.05 0 0 1 -2.42,-1.88 c -11.75,-10.33 -19,-28.41 -14.95,-44 a 52.55,52.55 0 0 1 5.47,-13.27 c 5.24,-8.939999 13.37,-15.939999 21.6,-22.049999 6.19,-4.59 13.27,-8.070005 20.21,-11.410005 1,-0.5 -1,-1.23 -1,-1.25 -1.1,-0.21 -2.69,-0.63 -3.69,-0.13 z"
     id="path40"
     style="opacity:0.11;fill:#ffffff" />
  <path
     class="cls-5"
     d="m 158.71003,72.418646 c -7.33,3.620005 -15,7.370005 -21.15,12.840005 -2.94,2.63 -5.92,5.19999 -8.73,8 -5.5,5.47 -10.34,11.609999 -13.25,18.879989 a 43.47,43.47 0 0 0 -3,13.55 c -0.8,12.92 5.44,25.64 13.81,35.13 a 35.94,35.94 0 0 0 4.59,4.39 c 2.63,2.1 5.18,4.18 7.94,6.11 a 102.05,102.05 0 0 0 10.94,6.71 c 14.23,7.53 29.79001,12.42 45.39001,16.16 a 357.81,357.81 0 0 0 57.7,8.74001 350.33,350.33 0 0 0 84.09,-4 c 18.45,-3.15 36.84,-7.67001 54.29,-14.53 1.48,-0.58 -1.8,-1.92 -1.83,-1.93 q -2.13,-1 -4.33,-1.8 a 5.37,5.37 0 0 0 -2.38,-0.59 c -3.28,0.9 -6.55,1.83 -9.82,2.76 -6.47,1.83 -12.94,3.8 -19.48,5.36 a 292.37,292.37 0 0 1 -31,5.34 q -17.25,2.22 -34.66,2.71 c -6.51,0.18999 -13,0.18999 -19.53,0 q -5.33,-0.15 -10.65,-0.17001 a 20.5,20.5 0 0 1 -6.21,-0.17 c -3.41,-0.56 -6.83,-1 -10.25,-1.4 -15.41,-1.89999 -30.81,-4.08999 -45.86,-8 a 241.74,241.74 0 0 1 -25.22001,-7.8 l -6.14,-2.43 -22,-12.17 c -1.18,-0.81 -8.87,-6.54 -9.8,-7.55 a 28.24,28.24 0 0 1 -2.77,-3.67 87.6,87.6 0 0 1 -5.16,-8.38 l -1.28,-2.68 -2.64,-9 5.19,-25.68 2.8,-4.55 c 1.2,-1.42 2.61,-2.749999 3.91,-4.089999 a 117.29,117.29 0 0 1 9.36,-8.75 c 1.46,-1.21 3,-2.4 4.5,-3.51 6.09,-4.36 13,-7.59 19.71,-10.76 1.3,-0.609995 -1.43,-1.609995 -1.51,-1.649995 -1.18,-0.45 -2.37,-0.85 -3.58,-1.2 a 3.56,3.56 0 0 0 -1.99,-0.22 z"
     id="path42"
     style="opacity:0.11;fill:#ffffff" />
  <path
     class="cls-5"
     d="m 157.37003,68.048646 a 135.24,135.24 0 0 0 -14.8,8.219995 43.32,43.32 0 0 0 -6,4.39 c -2.71,2.56 -5.63,4.89 -8.3,7.5 -4.76,4.65 -9.4,9.74 -12.46,15.709999 a 46.59,46.59 0 0 0 -4.85,14.31 c -2.07,13.76 3.41,27.39 12,37.92 a 39.35,39.35 0 0 0 7.4,7.3 c 1.9,1.35 3.6,3 5.45,4.37 1.85,1.37 3.7,2.7 5.53,3.88 9.68,6.24 20.49,10.64 31.34001,14.36 a 264.59,264.59 0 0 0 33.69,8.75 323.28,323.28 0 0 0 50.64,6.38 c 14.35,0.56 28.67,1 43,0 a 363.36,363.36 0 0 0 42.36,-5.29 261.1,261.1 0 0 0 50.41,-14.27 c 1.34,-0.55 -1.29,-2.37 -2.17,-2 a 256,256 0 0 1 -39,11.91001 332.2,332.2 0 0 1 -81.91,8 392.6,392.6 0 0 1 -41.81,-3.22001 c -20.72,-2.77999 -41.73,-6.92 -61.31001,-14.39999 -4.3,-1.64 -8.55,-3.41001 -12.72,-5.37 a 60.17,60.17 0 0 1 -13.83,-8.55001 39,39 0 0 0 -8,-5.56 33.14,33.14 0 0 1 -5.18,-4.43 53.55,53.55 0 0 1 -8.84,-12.4 46.55,46.55 0 0 1 -5.2,-16.74 25.14,25.14 0 0 1 -0.17,-6.37 l 3.29,-13.54 a 47.46,47.46 0 0 1 6.23,-10.579999 91.53,91.53 0 0 1 9.82,-10.45 c 2.49,-2.3 5.1,-4.46 7.76,-6.56 6.13,-4.82 13.26,-8.359995 20.22,-11.799995 a 0.69,0.69 0 0 0 0.13,-1.2 4,4 0 0 0 -2.72,-0.27 z"
     id="path44"
     style="opacity:0.11;fill:#ffffff" />
  <path
     class="cls-5"
     d="m 153.18003,71.418646 a 136.93,136.93 0 0 0 -14.8,8.220005 39.88,39.88 0 0 0 -6,4.47 c -2.59,2.56 -5.47,4.83 -8.07,7.38999 -4.67,4.59 -9.26,9.679999 -12.23,15.569999 a 44.49,44.49 0 0 0 -5.07,22.38 c 0.62,11.75 6.13,23.23 13.9,31.95 a 44.77,44.77 0 0 0 3.64,3.65 98.69,98.69 0 0 0 11.87,9.12 c 19.47,12.68 42.61001,19.1 65.18001,23.67 a 330.25,330.25 0 0 0 50.72,6.41001 392.75,392.75 0 0 0 43.13,0.09 365.64,365.64 0 0 0 42.5,-5.25 c 17.23,-3.17 34.54,-7.64 50.76,-14.35 1.15,-0.48 0.15,-2.09 -0.8,-1.7 a 243.17,243.17 0 0 1 -43.3,12.77 337.84,337.84 0 0 1 -40.29,5.92 q -9.42,0.77 -18.87,1.1 c -10.3,0.37 -20.48,-0.08 -30.76,-0.45999 a 326.61,326.61 0 0 1 -37.45,-3.86001 c -22.45,-3.47 -45.08001,-8.81 -65.66001,-18.63999 a 105.57,105.57 0 0 1 -24.57,-16.15 44.32,44.32 0 0 1 -5,-5.32 50.73,50.73 0 0 1 -5.41,-8.67 53.08,53.08 0 0 1 -3.47,-8.1 41.21,41.21 0 0 1 -1.46,-18.62 44.67,44.67 0 0 1 2.87,-10 40.47,40.47 0 0 1 2,-4.33 42,42 0 0 1 4,-7 c 3.29,-3.639999 6.78,-7.199999 10.42,-10.499999 2.22,-2 4.57,-3.87 6.9,-5.76 5.92,-4.8 13.25,-8.09 20.08,-11.320005 1,-0.49 -0.61,-1.38 -0.88,-1.52 -0.77,-0.37 -2.93,-1.63 -3.88,-1.16 z"
     id="path46"
     style="opacity:0.11;fill:#ffffff" />
  <path
     class="cls-5"
     d="m 154.92003,75.048646 a 134.56,134.56 0 0 0 -14.62,8.240005 39.94,39.94 0 0 0 -6,4.47999 c -2.94,2.94 -6.15,5.58001 -9,8.58001 -4.19,4.369999 -8.29,9.059989 -11,14.539989 a 45.14,45.14 0 0 0 -4.89,18.1 c -0.41,10.41 3.34,20.76 9.17,29.25 a 60,60 0 0 0 8.1,9.67 19.91,19.91 0 0 0 2.4,1.87 l 4.89,4 a 93.82,93.82 0 0 0 8.16,5.42 c 9.83,6 20.63,10.35001 31.58001,13.89 a 277.82,277.82 0 0 0 36.63,9 409.11,409.11 0 0 0 43.73,5.36 330,330 0 0 0 43.23,0.16001 349,349 0 0 0 42.5,-5.05 282.83,282.83 0 0 0 50.8,-13.94 0.67,0.67 0 0 0 0.14,-1.2 4.5,4.5 0 0 0 -2.94,-0.35001 324.77,324.77 0 0 1 -36.61,10.51 341.8,341.8 0 0 1 -80.82,7.58 l -10.66,-0.3 a 42.65,42.65 0 0 1 -7,-0.28 c -1.6,-0.19 -3.2,-0.35 -4.8,-0.51 -8.41,-0.85 -16.77,-2 -25.13,-3.20999 -9.4,-1.33 -18.67,-3.2 -27.89,-5.45 a 209.29,209.29 0 0 1 -32.64001,-10.58 c -4.14,-1.77 -8.26,-3.64 -12.22,-5.77 a 129.74,129.74 0 0 1 -13.21,-8.58 c -3.19,-2.25 -6.59,-4.56 -9.17,-7.53 a 64.62,64.62 0 0 1 -12,-20 23,23 0 0 1 -0.5,-15 19.5,19.5 0 0 1 1.56,-13.98 43,43 0 0 1 5.39,-9.28 102.29,102.29 0 0 1 9.14,-9.999999 c 2,-1.92 4,-3.83 6,-5.72 a 46.93,46.93 0 0 1 5.46,-4 132.13,132.13 0 0 1 14.01,-7.95 c 1.33,-0.66 -1,-2.390005 -1.79,-1.970005 z"
     id="path48"
     style="opacity:0.11;fill:#ffffff" />
  <path
     class="cls-5"
     d="m 159.21003,71.478646 c -4.12,2.08 -8.13,4.229995 -12.07,6.610005 a 49.25,49.25 0 0 0 -8.18,5.63 c -2.46,2.28 -5,4.42 -7.45,6.75 a 80.74,80.74 0 0 0 -10.51,11.889999 44.39,44.39 0 0 0 -7.82,22.8 c -0.54,12.38 4.78,24.44 12.67,33.79 a 40.55,40.55 0 0 0 6.34,6.29 c 2.72,2.06 5.28,4.19 8.09,6.11 a 106.5,106.5 0 0 0 14.15,8.37 c 20.42001,9.83 43.00001,15.53 65.29001,19.05 a 378.85,378.85 0 0 0 39.62,4.4 359.73,359.73 0 0 0 87.22,-5.77 267,267 0 0 0 46.91,-13.25 c 1.32,-0.52 -1.16,-1.73 -1.33,-1.82 -1.12,-0.58 -2.26,-1.11 -3.43,-1.6 a 3.67,3.67 0 0 0 -1.94,-0.49 c -4.55,1.35 -9.08,2.76 -13.64,4.08999 -4.2,1.23001 -8.42,2.44 -12.64,3.60001 -5.1,1.39999 -10.27,2.45999 -15.46,3.45999 a 350.65,350.65 0 0 1 -39.27,5.26 c -7.78,0.60001 -15.57,0.9 -23.37,1 q -7.51,0.13 -15,-0.14 l -11.3,-0.09 c -4.24,-0.51 -8.49,-1 -12.75,-1.44 q -5.78,-0.64 -11.54,-1.42 c -4.78,-0.65 -9.6,-1.11001 -14.36,-1.91001 a 290.9,290.9 0 0 1 -31.27,-7 c -10.63,-3 -21.38001,-6.5 -31.27001,-11.51 a 110.26,110.26 0 0 1 -10.48,-6.08 c -3.81,-2.47 -7.23,-5.1 -10.86,-7.77 a 30.84,30.84 0 0 1 -5.2,-5.14 c -6.81,-8.15 -11.53,-18.07 -11.42,-28.84 0.08,-7.81 2.77,-15 6.7,-21.65 2.77,-4.679999 6.84,-8.649999 10.75,-12.419999 2.6,-2.52 5.33,-4.87999 8.14,-7.16999 6.07,-4.92 13.39,-8.45 20.36,-11.850005 0.88,-0.43 -0.45,-1.22 -0.7,-1.32 -0.81,-0.32 -2.15,-0.84 -2.98,-0.42 z"
     id="path50"
     style="opacity:0.11;fill:#ffffff" />
  <path
     class="cls-5"
     d="m 154.43003,70.128646 a 136.63,136.63 0 0 0 -14.84,8.230005 37.44,37.44 0 0 0 -6,4.44999 c -2.9,3 -6.24,5.45 -9.14,8.41 a 66.36,66.36 0 0 0 -11.14,14.459999 42.4,42.4 0 0 0 -4.93,24.36 c 1.19,11.8 7.07,23.06 15.28,31.55 a 74.94,74.94 0 0 0 8.5,7.18 104.73,104.73 0 0 0 17.12,10.47001 c 15.62,7.67 32.58001,12.51 49.53001,16.12 a 353.63,353.63 0 0 0 53,7.2 c 29,1.69 58.22,0.43 86.79,-5 17.22,-3.28 34.49,-7.58 50.74,-14.26 1.58,-0.65 -0.57,-2.35001 -1.46,-2 a 238.4,238.4 0 0 1 -36.41,11.14999 336.86,336.86 0 0 1 -70.66,8.42001 361.23,361.23 0 0 1 -46.79,-2.29001 322,322 0 0 1 -55.47,-10.89999 q -3.37,-0.94 -6.69001,-2.12 a 77.43,77.43 0 0 1 -18.66,-8.63 57.8,57.8 0 0 1 -20.3,-11.35 28.29,28.29 0 0 1 -6.7,-5.67 51.31,51.31 0 0 1 -9.06,-13.42 42,42 0 0 1 -1.68,-33.37 61.48,61.48 0 0 1 4.12,-8.58 l 2.93,-4.579999 c 1,-1 2.07,-2 3,-3.08 a 117.81,117.81 0 0 1 8.73,-8.29 c 2.06,-1.79 4.24,-3.44 6.45,-5 6.16,-4.45 13.16,-7.73 20,-10.940005 1.25,-0.58 -1.33,-1.48 -1.38,-1.49 -1,-0.34 -2.11,-0.63 -3.19,-0.87 a 2.77,2.77 0 0 0 -1.69,-0.16 z"
     id="path52"
     style="opacity:0.11;fill:#ffffff" />
  <path
     class="cls-5"
     d="m 157.15003,69.948646 c -4.17,2.07 -8.24,4.22 -12.22,6.630005 -2.8,1.68999 -5.8,3.34999 -8.14,5.61 -2.34,2.26 -5,4.34 -7.37,6.62 a 77.71,77.71 0 0 0 -10.55,11.869999 44.21,44.21 0 0 0 -7.83,22.34 c -0.67,12.28 4.37,24.24 12,33.68 a 37,37 0 0 0 6.22,6.47 c 2.7,2 5.27,4.21 8.05,6.14 a 106.39,106.39 0 0 0 14.15,8.44999 189.88,189.88 0 0 0 32.75001,12 306.62,306.62 0 0 0 32.57,7.06 395.4,395.4 0 0 0 39.59,4.39 354.78,354.78 0 0 0 87.22,-5.82 271.65,271.65 0 0 0 46.81,-13.23 c 1.16,-0.45 -0.68,-1.51 -0.91,-1.65 a 28.87,28.87 0 0 0 -2.68,-1.31 2.36,2.36 0 0 0 -1.55,-0.33999 350.57,350.57 0 0 1 -42.09,11.62 342.53,342.53 0 0 1 -39.59,5.45999 c -7.83,0.62001 -15.67,0.94 -23.53,1 q -7.51,0.16001 -15,-0.16 l -11.22,-0.13 c -4.37,-0.45 -8.75,-0.89999 -13.11,-1.38 -8.69,-1 -17.48,-2 -26.1,-3.45 a 280.41,280.41 0 0 1 -31.72,-7.23 c -10.78001,-3.17 -21.67001,-6.88 -31.64001,-12.16 a 108,108 0 0 1 -10.62,-6.53 67,67 0 0 1 -8,-5.83 16.22,16.22 0 0 1 -2.71,-2.24 42.58,42.58 0 0 1 -4.82,-6.14 52.27,52.27 0 0 1 -6.78,-13.47 40.32,40.32 0 0 1 -1.54,-16 c 0.81,-7.38 3.89,-14.26 7.87,-20.48 a 12.2,12.2 0 0 1 3.45,-4.229989 l 2.15,-2.25 c 1.79,-1.81 3.69,-3.56 5.58,-5.26 a 81.15,81.15 0 0 1 8.23,-6.57 140.38,140.38 0 0 1 20.54,-11.210005 c 1.38,-0.64 -1.8,-1.5 -1.7,-1.47 -1.23,-0.32 -2.47,-0.59 -3.72,-0.8 a 3.62,3.62 0 0 0 -2.04,0 z"
     id="path54"
     style="opacity:0.11;fill:#ffffff" />
  <path
     class="cls-5"
     d="m 158.50003,73.308646 c -7.26,3.709995 -14.91,7.529995 -21,12.999995 -3,2.68 -5.91,5.34 -8.71,8.18 -5.47,5.539999 -10.47,11.819999 -13.17,19.219999 a 42.64,42.64 0 0 0 -2.68,18 49.68,49.68 0 0 0 7.28,21.49 57.18,57.18 0 0 0 7,9.45 66.06,66.06 0 0 0 7.49,6.73 c 17.75,14.3 40.28001,21.65 62.17001,26.84 a 359.38,359.38 0 0 0 57.83,8.64 353.33,353.33 0 0 0 84.2,-4.14 c 18.47,-3.18 36.93,-7.72 54.38,-14.67 1.36,-0.54 -1.49,-1.64 -1.49,-1.64 q -1.74,-0.68 -3.54,-1.2 a 3.45,3.45 0 0 0 -1.95,-0.27 c -4,1.12001 -8,2.27 -11.94,3.42001 -6.82,2 -13.68,4 -20.63,5.51 a 354.05,354.05 0 0 1 -72.42,7.79 c -6.88,0 -13.76,-0.18 -20.64,-0.25 a 21.79,21.79 0 0 1 -6.25,-0.15 c -0.85,-0.12 -1.69,-0.26 -2.53,-0.4 -4.63,-0.61 -9.28,-1.07 -13.91,-1.67 -8.2,-1.06 -16.46,-2 -24.57,-3.55 -9.46,-1.83 -18.9,-3.95 -28.14,-6.69 a 203.43,203.43 0 0 1 -25.00001,-9 114.69,114.69 0 0 1 -24.11,-14.51 44.91,44.91 0 0 1 -6.24,-5.43 l -4.66,-5.79 -8.63,-25.64 a 36.67,36.67 0 0 1 1.21,-8.19 47.82,47.82 0 0 1 5,-11.42 37.82,37.82 0 0 1 4.09,-5.69 109,109 0 0 1 9.38,-9.729999 c 1.72,-1.6 3.48,-3.15 5.26,-4.69 a 53.12,53.12 0 0 1 8,-5.39 c 3.85,-2.27 7.76,-4.34 11.76,-6.340005 1.25,-0.61 -1.96,-2.27 -2.84,-1.82 z"
     id="path56"
     style="opacity:0.11;fill:#ffffff" />
  <path
     class="cls-5"
     d="m 153.44003,73.018646 c -4.16,2.08 -8.23,4.229995 -12.2,6.650005 a 47.92,47.92 0 0 0 -8.19,5.66 c -2.42,2.28 -5,4.40999 -7.38,6.71 a 68.79,68.79 0 0 0 -11.89,14.309989 43,43 0 0 0 -6.37,22.48 c 0.09,12.19 5.44,23.77 13.23,33 a 34.06,34.06 0 0 0 6.07,5.87 l 4.89,4 5.38,3.72001 a 113.16,113.16 0 0 0 17.54,9.38 c 17,7.45 35.12001,12.1 53.28001,15.45999 a 342.43,342.43 0 0 0 45.48,5.51 414.4,414.4 0 0 0 42.15,0.09 328.62,328.62 0 0 0 46.28,-5.89 c 16.09,-3.17 32.18,-7.32 47.37,-13.59 1.28,-0.52999 -0.17,-2.1 -1.12,-1.70999 a 243.89,243.89 0 0 1 -36.92,11.19 335.09,335.09 0 0 1 -81.33,8.23 358.73,358.73 0 0 1 -42,-3.16 c -20.49,-2.79001 -41.08,-6.80001 -60.50001,-14.08 l -6.5,-2.54 -23.9,-13 c -4.27,-2.91 -8.79,-6 -12,-10 a 63,63 0 0 1 -6.36,-9.80001 c -5,-9.46 -7.07,-19.8 -4.92,-30.37 a 44.19,44.19 0 0 1 3.68,-10.21 26.61,26.61 0 0 1 2.47,-4.58 12.82,12.82 0 0 1 3.16,-4.21 c 3,-3.319999 6,-6.539999 9.3,-9.559999 2,-1.8 4,-3.53 6.06,-5.25 5.73,-4.77 12.9,-8 19.58,-11.23 1.36,-0.7 -3.35,-3.519995 -4.34,-3.079995 z"
     id="path58"
     style="opacity:0.11;fill:#ffffff" />
  <path
     class="cls-6"
     d="m 14.710033,139.13864 c 36.29,35.48001 79.74,65.09 128.669997,79.57 a 513.43,513.43 0 0 0 83.87001,16.31 c 22.21,2.49 44.36,2.88 66.79,2.43 l 0.12,0.94 a 244.55,244.55 0 0 1 -57.87,5.93 256.75,256.75 0 0 1 -38.85,-3.49 c -12.81,-2.13 -25.32001,-5.55 -37.81001,-9.07999 -36,-9.87001 -70.129997,-26.44 -99.479997,-49.49001 a 355.75,355.75 0 0 1 -32.72,-28.58 q -6.87,-6.78 -13.38,-13.88 l 0.68,-0.66 z"
     id="path60"
     style="fill:#ffffff" />
  <path
     class="cls-7"
     d="m 302.51004,3.3786463 c 69.93,0.85 153.79,16.9199997 209.05,62.3499997 15.64,13.229995 29,30.479995 33.47,50.819994 a 66.71,66.71 0 0 1 -3.84,39.91 70.94,70.94 0 0 0 -2.23,-43.3 c -9,-22.729999 -28.42,-39.349994 -48.63,-52.149994 a 263.88,263.88 0 0 0 -25.75,-14.05 c -50.87,-23.69 -106.76,-35.18 -162.07,-43.5799997 z"
     id="path62"
     style="fill:#d1d3d4" />
  <path
     class="cls-8"
     d="m 75.360033,138.40864 a 30.1,30.1 0 0 1 7.08,-7.43999 34.65,34.65 0 0 1 11.34,-5.26 101.84,101.84 0 0 0 8.219997,-11.7 96.59,96.59 0 0 1 7.44,-11.23 c 4.79,-5.999999 10.44,-11.349999 16.12,-16.689999 10.09,-9.47 21.63,-16.870005 34.23,-23.500005 a 23.65,23.65 0 0 1 9.09,-2.47 77.29,77.29 0 0 0 1.09,-9.58 c -6.91,2.17 -14.14,4.63 -21.63,7.44 -7.49,2.81 -14.64,5.75 -21.26,8.67 A 213.61,213.61 0 0 0 90.910033,89.648651 c -8.77,6.95 -14.89,12.679999 -19.26,16.869999 a 283.47,283.47 0 0 0 -24,26.08 c 10.52,1.33 14.56,1.63 15.8,1.53 0.35,0 2.06,0.17 4.28,0.39 v 0 c 2.75,0.8 6.46,1.95 7.63,3.88999 z"
     id="path64"
     style="fill:#fdf9cc" />
  <path
     class="cls-9"
     d="m 75.530033,138.67864 -0.15,-0.87 c 0,-0.24 -0.22,-0.22 -0.1,-0.34 a 29.79,29.79 0 0 1 7.76,-7.63 36,36 0 0 1 10.59,-4.67 l -0.28,0.18 c 5.58,-6.47 9.299997,-14.16999 14.309997,-21.08 5.16,-6.879989 11.42,-12.739999 17.63,-18.559999 9.37,-8.75999 20.16,-15.839995 31.42,-21.909995 l 2.82,-1.51 a 24.07,24.07 0 0 1 9.32,-2.53 l -0.32,0.3 a 78.26,78.26 0 0 0 1.1,-9.54 l 0.45,0.35 a 387.41,387.41 0 0 0 -43.77,16.46 222.52,222.52 0 0 0 -53.119997,37.939994 315,315 0 0 0 -25.48,27.31 c 5,0.6 10,1.33 15,1.57 a 48.08,48.08 0 0 1 5,0.38 c 2.74,0.89 6.14,1.53 7.79,4.14 z m 0.09,0.14 c -1.62,-2.71 -5.09,-3.36 -7.89,-4.25 -3.28,-0.44 -6.78,-0.32 -10.06,-0.72 -3.28,-0.4 -6.69,-0.74 -10,-1.15 h -0.1 l 0.06,-0.07 c 19.72,-24.15 43,-45.869999 70.239997,-61.259994 3.42,-1.89 6.8,-3.87 10.37,-5.48 1.48,-0.68 5,-2.12 6.46,-2.77 q 17.29,-7.25 35.2,-12.89 l 0.48,-0.15 v 0.5 a 80.19,80.19 0 0 1 -1.12,9.9 26.16,26.16 0 0 0 -12.12,4 155.11,155.11 0 0 0 -48.6,40.399994 c -4.94,6.89 -8.699997,14.69 -14.269997,21.19 l -0.11,0.14 h -0.18 a 30.61,30.61 0 0 0 -17.27,11.37 l -0.41,0.57 a 2.19,2.19 0 0 1 -0.64,0.65 z"
     id="path66"
     style="fill:#a97c50" />
  <path
     class="cls-10"
     d="m 157.38003,142.01864 a 61,61 0 0 0 9.44,-14.12 65.58,65.58 0 0 0 4.07,-11.4 c 4.27001,-15.1 6.40001,-22.649999 6.20001,-31.359989 -0.16,-6.87001 -1.44,-12.450005 -3.28,-20.460005 -1.84001,-8.01 -3.79001,-14.1 -3.84001,-14.1 -0.05,0 3.00001,9.45 5.69001,22.54 3.59,17.529995 3.29,25.830005 2.49,31.909994 a 76,76 0 0 1 -1.69,8.69 c -1.36,5.32 -6.00001,22.59 -20.89001,36.31 -0.52,0.47 -2.94,2.68 -6.45,5.28 a 75.72,75.72 0 0 1 -17.71,10.07 80.69,80.69 0 0 1 -45.209997,1.47 l -0.58,-0.15 c -0.67,-0.18 -1.65,-0.45 -2.87,-0.83 a 65.29,65.29 0 0 1 -25.61,-15.53 c -0.37,-0.36 -1.08,-1.09 -1.89,-2.05 a 44.37,44.37 0 0 1 -8.25,-15.52 c 3.81,-0.61 7,-1.34 9.48,-2 a 100.34,100.34 0 0 0 12,-4.05 l 1.43,-0.66 c 0,0 3,-1.31 14.11,-7.22 0,0 7.19,24.54 25.559997,34.09 0.94,0.49 13.89,7 26.85,3.45 v 0 z"
     id="path68"
     style="fill:#fdeb01;stroke:#a97c50;stroke-width:0.56px;stroke-miterlimit:10" />
  <path
     class="cls-11"
     d="m 84.110033,120.28864 v 0 c 3,-2.69 7.18,-6.52 12.29,-11.08 4.359997,-3.88 17.049997,-14.999999 24.549997,-21.379989 23.71,-20.070005 49,-37.290005 49,-37.290005 v 0 c 0,0 6.60001,19.28 7.00001,39.000005 0.14,6.25 -0.19,20.809989 -6.26001,34.809989 a 78.3,78.3 0 0 1 -11.25,18.37001 l -4,4.47999 c 0,0 -12.24,11 -25.69,12.28 -9.72,0.94 -17.8,-3.37 -22.85,-6.07 -3.44,-1.84 -11.679997,-6.37 -17.379997,-15.72999 a 37.32,37.32 0 0 1 -5.41,-17.39001 z"
     id="path70"
     style="fill:#f8e877;stroke:#c49a6c;stroke-width:0.61px;stroke-miterlimit:10" />
  <path
     class="cls-12"
     d="m 89.890033,143.63864 v 0 l -2,-3.91999 c -0.57,-1.14 -4.87,-9.79 -2.25,-17 1.91,-5.32 6.77,-7.74001 6.4,-8.13 -0.37,-0.39 -5.66,3.8 -14.76,8.84999 a 81.67,81.67 0 0 1 -9.57,4.67 c -2.23,0.87 -6.74,2.5 -6.74,2.5 v 0 c 0,0 2.58,2.57 3.74,3.64 a 33.38,33.38 0 0 0 9.26,5.78 32.65,32.65 0 0 0 7.55,2.62 66.74,66.74 0 0 0 8.37,0.99 z"
     id="path72"
     style="fill:#cdbb2c;stroke:#fdeb01;stroke-width:0.61px;stroke-miterlimit:10" />
  <path
     class="cls-13"
     d="m 82.230033,137.97864 a 32.65,32.65 0 0 1 0.76,-5.63 c 2.29,-10.25999 9.09,-17.43 15.17,-23.69999 3.999997,-4.07 7.519997,-7.09 7.469997,-7.14 -0.05,-0.05 -23.479997,18.56 -27.469997,21.72 a 41.28,41.28 0 0 1 -7.88,4.74 v 0 l -4.25,2.34 8.45,6.32 z"
     id="path74"
     style="fill:#9b8d3a" />
  <path
     class="cls-14"
     d="m 74.870033,128.21864 c 1.53,-1.41 3.67,-3.38 6.27,-5.69 1.74,-1.54 12.38,-11 12.89,-10.54 0.51,0.46 -6.46,6 -12.16,16.12 a 64.24,64.24 0 0 0 -3.72,7.79 13.32,13.32 0 0 0 -2.49,-1.95 19,19 0 0 0 -1.88,-1 c -0.8,-0.37 -1.8,-0.81 -3,-1.27 z"
     id="path76"
     style="fill:#4c2d1c;stroke:#3c2415;stroke-width:0.61px;stroke-miterlimit:10" />
  <path
     class="cls-15"
     d="m 144.54003,69.068646 c 3.16,11.190005 2.52,17.570005 1.33,21.300005 l -0.1,0.28 c -1.42,4.27 -4.2,6.62 -9.71,11.129999 -7.85,6.44 -12.93,8.22999 -16.64,8.62 a 20.76,20.76 0 0 1 -3.31,0 34.84,34.84 0 0 1 -16,-4.69"
     id="path78"
     style="fill:#ebc569" />
  <path
     class="cls-16"
     d="m 100.15003,105.74864 c -0.319997,-0.24 0.58,-2.59 2.39,-7.289999 a 59.5,59.5 0 0 1 3.28,-7.75 25.59,25.59 0 0 1 7.54,-7.72 c 10.13,-7.44999 29.12,-13.289995 31.18,-13.919995 a 232.82,232.82 0 0 0 -23.33,18.260005 c -10.85,9.66999 -19.68,19.389989 -21.06,18.419989 z"
     id="path80"
     style="fill:#ffe2a1" />
  <path
     class="cls-17"
     d="m 118.06003,83.298641 c -0.81,0.66 -0.89,1 -3.11,4.21001 -1,1.44 -2,2.87 -3,4.31 v 0 a 50.22,50.22 0 0 0 6.49,-3.91 c 2.64,-2.32 4.4,-5.67 3.7,-6.31 -0.55,-0.5 -2.69,0.55 -4.08,1.69999 z"
     id="path82"
     style="fill:#894e21" />
  <path
     class="cls-18"
     d="m 128.71003,91.418651 c -0.7,0.84999 -1,1 -4.53,3.43 -1.56,1.1 -3.09,2.23 -4.64,3.34 3.06,-5.59 4,-6.66 4,-6.66 2.44,-2.79 6.09,-4.82 6.84,-4.21 0.54,0.47 -0.51,2.63999 -1.67,4.1 z"
     id="path84"
     style="fill:#603913" />
  <path
     class="cls-19"
     d="m 316.31004,29.988646 c 1.13,-0.2 3.24,-0.54 4.59,0.71 2.59,2.41 -0.72,7.87 2.4,13.52 a 14.47,14.47 0 0 1 1.61,3.06 c 0.63,1.94 0.55,3.82 0.39,6.79 -0.09,1.64 -0.22,2.77 -0.22,2.77 -1.23,10.61 -1.85,15.91 -3.45,19.939995 -1.05,2.63 -3.08,6.33001 -10,12.11001 -19.8,16.529989 -40.17,20.999989 -40.17,20.999989 -28.9,6.78 -57.78,-2.9 -71.84,-15.289989 -4,-3.53 -12.36,-11 -14.92,-23.130005 a 35.56,35.56 0 0 1 -0.74,-8.43 c 0,0 26.83,-5.31 72.72,-18 a 429.26,429.26 0 0 1 59.63,-15.05 z"
     id="path86"
     style="fill:#f8e877" />
  <path
     class="cls-20"
     d="m 316.28004,29.798646 c 7.81,-1.42 5.47,5 5.94,9.91 0.16,2.4 1.33,4.4 2.57,6.4 1.56,3.41 0.86,7.09 0.75,10.65 l -0.35,3.52 c -0.89,7 -0.87,14.65 -4.81,20.850005 a 48.64,48.64 0 0 1 -9.95,10.45 109.34,109.34 0 0 1 -37.72,20.599989 89.48,89.48 0 0 1 -57.42,-4 c -18.2,-7.46 -35.73,-24.219999 -34.43,-45.289994 l 0.12,-2.5 2.27,-0.43 c 23.71,-4.39 47.4,-9.71 70.81,-15.47 a 602.64,602.64 0 0 1 62.22,-14.73 z m 0.07,0.39 a 477,477 0 0 0 -61.94,15.72 c -23.29,6.4 -46.72,12.49 -70.36,17.46 l 0.27,-0.33 c -0.68,14.509995 8.71,26.940005 20.21,34.820005 19.49,13.119989 44.74,16.829989 67.49,11.549989 a 106.93,106.93 0 0 0 37.4,-19.109989 47.47,47.47 0 0 0 10,-9.85 c 4,-5.870005 4.07,-13.420005 5.07,-20.250005 l 0.41,-3.51 c 0.18,-3.41 0.91,-7.17 -0.56,-10.34 a 14.39,14.39 0 0 1 -2.57,-6.59 c -0.49,-4.51 2,-11 -5.38,-9.57 z"
     id="path88"
     style="fill:#fdeb01" />
  <path
     class="cls-8"
     d="m 192.28004,58.578646 v 0 c -4.72,-0.19 -7,-0.38 -7.59,-1 l -0.15,-0.19 v 0 c 0.25,-0.45 -0.22,-1 -0.37,-1.57 a 7.11,7.11 0 0 1 0.68,-2.49 l 1.87,-0.9 2.74,-1.33 16.65,-8.07 a 259,259 0 0 1 43.3,-15.67 210.26,210.26 0 0 1 37.81,-5.8 v 0 a 180.45,180.45 0 0 1 19.06,-0.26 h 0.61 c 8.42,0.48 13.34,4.21 13.48,5.75 a 10.22,10.22 0 0 1 -0.08,1.9 4,4 0 0 0 -0.12,0.6 v 0 c -31.27,7.58 -38.79,9.29 -47.88,11.51 -22.6,5.53 -25.78,7 -31.9,8.58 -2.27,0.6 -5.27,1.31 -9.41,2.14 -6.85,1.4 -20.71,3.86 -38.7,6.8 z"
     id="path90"
     style="fill:#fdf9cc" />
  <path
     class="cls-20"
     d="m 192.22004,58.578646 c 0.05,0.05 0.08,0 0.06,0 h -1 c -0.91,0 -2.14,-0.08 -3,-0.11 -1.28,-0.18 -3,0.06 -3.94,-0.95 l -0.08,-0.14 c 0.32,-0.37 -0.21,-1 -0.33,-1.43 a 7.86,7.86 0 0 1 0.62,-2.74 v -0.11 l 0.12,-0.06 1.88,-0.95 v 0 c 7.08,-3.51 16.64,-8.61 23.69,-11.9 16.17,-7.25 33,-13.28 50.45,-16.63 a 215.32,215.32 0 0 1 26.42,-3.39 188.25,188.25 0 0 1 18.86,-0.35 c 4.89,0.18 10.07,1.24 14,4.43 a 5.57,5.57 0 0 1 1.5,1.82 5.2,5.2 0 0 1 0.22,2.4 11.66,11.66 0 0 1 -0.47,2.24 l -0.8,0.19 c -24.92,6.06 -55.17,12.54 -79.61,19.52 -15.88,3.71 -32.9,5.36 -48.67,8.14 z m 0.13,-0.09 c 6.19,-1.15 34.73,-6 40.29,-7.18 4.73,-1 11.32,-2.66 15.86,-4.12 13.13,-3.81 26.47,-6.88 39.75,-10.1 -0.12,0.13 32.45,-8 31.77,-7.55 0.2,-1 0.52,-2.42 -0.19,-3.26 -3.52,-3.65 -9,-4.59 -13.9,-4.85 a 185.2,185.2 0 0 0 -18.7,0.27 207.9,207.9 0 0 0 -39.17,6.14 260.33,260.33 0 0 0 -37.41,13.2 c -7,3.18 -16.84,8.11 -23.89,11.46 l -1.86,0.9 v -0.05 a 9,9 0 0 0 -0.66,2.51 c 0.12,0.52 0.62,1 0.34,1.58 v -0.1 c 0.37,0.53 1.15,0.57 1.74,0.69 a 39.19,39.19 0 0 0 4,0.33 l 1,0.05 h 0.87 0.12 c 0,0 0,0 0.07,0 z"
     id="path92"
     style="fill:#fdeb01" />
  <path
     class="cls-16"
     d="m 228.79004,51.818646 a 28.82,28.82 0 0 1 7.21,-9.56 c 5.85,-5 12.47,-6.26 16.76,-7.08 a 45,45 0 0 1 13.84,-0.43 42.28,42.28 0 0 1 13.49,4.25"
     id="path94"
     style="fill:#ffe2a1" />
  <path
     class="cls-21"
     d="m 184.83004,53.278646 c 24.68,-14.32 51.9,-24.88 80.26,-28.79 11.3,-1.66 22.62,-3.77 34.11,-3.42 5.77,0.16 11.25,2.09 16.77,3.59 v 0.12 c -5.56,-1.23 -11,-3.11 -16.77,-3.08 -11.41,-0.14 -22.67,2.2 -33.92,3.87 -28.25,4 -55.44,14.72 -80.43,27.71 z"
     id="path96"
     style="fill:#f26522" />
  <path
     class="cls-15"
     d="m 279.92004,40.708646 c 2.1,9.58 -7.51,19.07 -8.49,20 -3.13,3.09 -6.38,3.9 -12.75,5.39 -12.11,2.82 -16.5,0.65 -19.41,-1.32 -2.91,-1.97 -9,-6.08 -10.48,-13"
     id="path98"
     style="fill:#ebc569" />
  <path
     class="cls-22"
     d="m 321.37004,49.168646 c -2.16,-4.27 -6.7,-6.06 -12.68,-8.31 -9.08,-3.42 -15.15,-3.09 -15.29,-4.66 -0.2,-2.31 10.62,-5.89 13.55,-6.85 4.45,-1.47 7.91,-2.17 7.89,-3.42 0,-0.83 -1.56,-1.46 -4.09,-2.48 a 42.14,42.14 0 0 0 -7.55,-2.24 c 8.39,0.74 14.44,2.06 15.69,2.74 a 10.38,10.38 0 0 1 2.31,1.77 c 0,0 0.29,0.31 0.55,0.66 2,2.65 1.77,9.46 1.77,9.46 -0.16,4.69 1.79,6.25 3.49,12 a 81,81 0 0 1 1,20.68 c -1.27,18.210005 -29.43,32.670004 -33.6,34.999994 -32.94,18.15 -67.33,8.35 -79.22,2.5 a 84.54,84.54 0 0 1 -19,-13.499999 c -4.69,-4.4 -6.37,-7 -7.41,-8.93999 -4.23,-7.94 -3.74,-16.280005 -3.54,-16.310005 a 24.47,24.47 0 0 0 2,7.999995 c 2.11,4.63 5.34,7.47 8,9.81001 a 68.46,68.46 0 0 0 8.89,6.28 c 3.07,2 5.9,3.62 7.31,4.38999 7.2,4 20.36,8.549999 36.09,8.549999 a 85.66,85.66 0 0 0 15.33,-1.46 93.4,93.4 0 0 0 37.23,-16.349999 c 8.38,-6.05 17.13,-12.549995 21,-24.159995 2.62,-8.19 0.72,-12.27 0.28,-13.16 z"
     id="path100"
     style="fill:#fdeb01;stroke:#fdeb01;stroke-width:0.58px;stroke-miterlimit:10" />
  <path
     class="cls-23"
     d="m 185.93004,59.448646 c 0.58,0.67 1.65,1.21 5.63,0.78 6.2,-0.66 10.34,-2.69 10.48,-2.38 0.14,0.31 -2.34,2 -5.74,3.39 -4.35,1.77 -5.37,1.27 -7.19,2.83 a 10,10 0 0 0 -3.21,6.56 c -0.11,2.35 0.8,4.13 2.27,6.669995 4.53,7.86001 8.31,12.46001 8,12.76 -0.31,0.30001 -3.44,-2.18 -6.53,-5.91999 a 50.32,50.32 0 0 1 -8.86,-18.290005 c -0.65,-2.48 -0.66,-3.94 -0.24,-5.19 0.22,-0.68 1,-2.54 1,-2.54 l 3.32,-4.79 c 0,0 -0.53,4.32 1.07,6.12 z"
     id="path102"
     style="fill:#fdeb01;stroke:#fdeb01;stroke-width:0.46px;stroke-miterlimit:10" />
  <path
     class="cls-24"
     d="m 187.09004,66.498646 c -4.39,9.580005 6.26,16.879995 13.16,21.580005 7.64,5.3 15.78,9.87 24.79,12.279999 18.86,5.27999 39.47,3.20999 57.35,-4.539999 a 97.86,97.86 0 0 0 28.9,-20.48 c 2.93,-3.100005 5.84,-6.320005 7.7,-10.190005 1.86,-3.87 3.14,-8.12 2.87,-12.21 -0.4,-4.37 -4,-7.23 -7.72,-9.15 -7.6,-4.13 -16.38,-5.82 -25.06,-6.09 v -0.12 c 8.7,0.11 17.55,1.63 25.33,5.69 10.52,5.11 9.39,12.8 5.36,22.25 -1.87,4 -4.78,7.31 -7.77,10.479995 a 96.38,96.38 0 0 1 -20.48,16.2 85.91,85.91 0 0 1 -66.74,8.999999 c -9,-2.519999 -17.26,-7.239999 -24.88,-12.649999 -6.78,-4.71 -17.85,-12.94 -12.81,-22.079995 z"
     id="path104"
     style="fill:#895931" />
  <path
     class="cls-13"
     d="m 186.36004,68.238646 7.41,-3.86 c 3.36,-1.74 4.35,-2.45 6.23,-3.33 a 46.28,46.28 0 0 1 9.17,-3.07 c 8.23,-2.1 17.82,-5.07 17.73,-5.5 -0.09,-0.43 -6.84,1 -13.77,2.06 a 200.91,200.91 0 0 1 -28.64,2.17 c 0.77,1.35 1.53,2.74 2.28,4.19 0.28,0.52 0.54,1 0.8,1.56 -0.4,1.93 -0.8,3.85 -1.21,5.78 z"
     id="path106"
     style="fill:#9b8d3a" />
  <path
     class="cls-25"
     d="m 184.92004,59.808646 a 4.93,4.93 0 0 1 4.47,-0.89 l 3.18,1 -2,2.68 a 4.9,4.9 0 0 1 -4.25,1.88 l -0.21,-0.16 c 0.71,-1.15 1.54,-2.21 2.31,-3.32 l 0.13,0.41 c -1.23,-0.47 -2.49,-0.86 -3.7,-1.39 l 0.09,-0.26 z"
     id="path108"
     style="fill:#3c2415" />
  <path
     class="cls-26"
     d="m 312.37004,32.338646 -123.75,28.87"
     id="path110"
     style="fill:none;stroke:#000000;stroke-width:0.43px;stroke-miterlimit:10" />
  <path
     class="cls-27"
     d="m 318.89004,23.948646 c -0.82,-0.58 -2.74,1.41 -5.57,3.69 -4.14,3.32 -8.09,4.85 -14.38,7 -5.66,1.91 -8.85,2.28 -8.78,2.93 0.08,0.84 5.3,0.5 14.41,2 8.27,1.41 10.87,2.86 11.92,3.49 4.15,2.51 6.19,5.6 6.85,5.1 0.66,-0.5 -1.57,-4.06 -3.63,-11.58 a 25.22,25.22 0 0 1 -1.05,-5.07 c -0.35,-4.44 1.05,-6.93 0.23,-7.56 z"
     id="path112"
     style="fill:#cdbb2c;stroke:#fdeb01;stroke-width:0.57px;stroke-miterlimit:10" />
  <path
     class="cls-13"
     d="m 316.92004,26.908646 -10,3.86 c -14.74,4.57 -17.94,6.24 -17.8,6.87 0.24,1 8.82,-1.76 19.95,1 2.62,0.65 9.59,2.64 9.59,2.64 v 0 q -1.29,-5 -2.57,-9.94 z"
     id="path114"
     style="fill:#9b8d3a" />
  <path
     class="cls-28"
     d="m 306.86004,36.458646 -14.64,0.24 v 0 l 13,-3.93 7.55,-2.35 a 10.06,10.06 0 0 0 0.12,2.78 10.59,10.59 0 0 0 2.53,5.15 z"
     id="path116"
     style="fill:#3c2415;stroke:#3c2415;stroke-width:0.57px;stroke-miterlimit:10" />
  <path
     class="cls-17"
     d="m 255.59004,38.478646 c -1,0.11 -1.27,0.33 -4.92,1.88 -1.62,0.68 -3.26,1.34 -4.89,2 v 0 c 6.09,0.51 7.42,0.31 7.42,0.31 3.44,-0.5 6.79,-2.41 6.61,-3.36 -0.1,-0.73 -2.45,-1.04 -4.22,-0.83 z"
     id="path118"
     style="fill:#894e21" />
  <path
     class="cls-18"
     d="m 259.24004,51.578646 c -1,0.33 -1.37,0.24 -5.58,0.39 -1.87,0.06 -3.74,0.16 -5.61,0.24 5.68,-3.09 7.05,-3.49 7.05,-3.49 3.55,-1 7.62,-0.71 7.86,0.25 0.19,0.74 -1.91,2.03 -3.72,2.61 z"
     id="path120"
     style="fill:#603913" />
  <path
     class="cls-8"
     d="m 343.44004,75.268641 a 30.15,30.15 0 0 1 8.9,-5.129995 34.82,34.82 0 0 1 12.37,-1.81 101.92,101.92 0 0 0 11.21,-8.88 94.5,94.5 0 0 1 10.32,-8.65 c 6.31,-4.4 13.24,-7.92 20.21,-11.42 12.36,-6.21 25.53,-10 39.49,-12.79 a 23.66,23.66 0 0 1 9.43,0.22 78.52,78.52 0 0 0 3.76,-8.88 c -7.24,0.11 -14.88,0.42 -22.85,1 -7.97,0.58 -15.68,1.35 -22.85,2.27 a 214.23,214.23 0 0 0 -41.23,11.79 c -10.38,4.18 -17.88,7.93 -23.26,10.7 a 285.09,285.09 0 0 0 -30.43,18.18 c 9.71,4.27 13.5,5.71 14.71,6 0.34,0.08 1.93,0.75 4,1.59 v 0 c 2.41,1.45 5.65,3.61 6.22,5.809995 z"
     id="path122"
     style="fill:#fdf9cc" />
  <path
     class="cls-9"
     d="m 343.52004,75.578651 0.11,-0.880005 c 0,-0.24 -0.15,-0.27 0,-0.35 a 30.38,30.38 0 0 1 9.61,-5.11 36.11,36.11 0 0 1 11.47,-1.47 l -0.32,0.09 c 7.19,-4.61 12.94,-10.94 19.71,-16.14 6.77,-5.2 14.58,-9 22.18,-12.78 11.48,-5.73 23.84,-9.45 36.36,-12.07 l 3.13,-0.64 a 24.18,24.18 0 0 1 9.66,0.22 l -0.4,0.19 a 78.71,78.71 0 0 0 3.77,-8.82 l 0.33,0.46 a 386.79,386.79 0 0 0 -46.63,3.3 222.28,222.28 0 0 0 -61.72,21.27 318.26,318.26 0 0 0 -32.25,18.92 c 4.63,2 9.22,4.13 14,5.79 a 48.55,48.55 0 0 1 4.72,1.8 c 2.38,1.63 5.45,3.21 6.29,6.179995 z m 0.05,0.15999 a 7.13,7.13 0 0 0 -2.78,-3.839995 34.53,34.53 0 0 0 -3.58,-2.47 44.61,44.61 0 0 0 -4.71,-1.78 c -4.78,-1.64 -9.37,-3.75 -14,-5.74 h -0.09 l 0.08,-0.05 c 29.6,-20.09 62.94,-36.11 98.58,-41.35 a 412.14,412.14 0 0 1 42.56,-2.93 82.25,82.25 0 0 1 -4.06,9.64 26.14,26.14 0 0 0 -12.76,0.41 c -12.44,2.66 -24.73,6.4 -36.11,12.14 -7.58,3.84 -15.2,7.69 -22,12.77 -6.8,5.08 -12.52,11.61 -19.71,16.26 l -0.15,0.09 h -0.13 a 30.49,30.49 0 0 0 -19.76,6 l -0.56,0.419995 a 2.19,2.19 0 0 1 -0.8,0.44 z"
     id="path124"
     style="fill:#a97c50" />
  <path
     class="cls-10"
     d="m 421.04004,102.04864 a 60.73,60.73 0 0 0 13.07,-10.849989 64.73,64.73 0 0 0 7.14,-9.77001 c 8.39,-13.259995 12.58,-19.899995 14.86,-28.309995 1.8,-6.62 2.16,-12.34 2.68,-20.54 0.52,-8.2 0.38,-14.63 0.34,-14.63 -0.04,0 0.19,9.91 -1,23.23 -1.54,17.83 -4.2,25.7 -6.69,31.3 a 78.39,78.39 0 0 1 -4.09,7.850005 c -2.81,4.71999 -12.16,19.999999 -30.36,28.869989 a 81.72,81.72 0 0 1 -7.68,3.22 75.63,75.63 0 0 1 -19.84,4.63 80.73,80.73 0 0 1 -43.76,-11.47 l -0.52,-0.31 c -0.59,-0.36 -1.45,-0.9 -2.51,-1.61 a 65.37,65.37 0 0 1 -20.14,-22.169999 c -0.25,-0.45 -0.72,-1.35 -1.23,-2.5 a 44.48,44.48 0 0 1 -3.49,-17.229995 c 3.83,0.5 7.1,0.71 9.65,0.8 a 98.8,98.8 0 0 0 12.69,-0.46 l 1.56,-0.22 c 0,0 3.2,-0.43 15.58,-2.92 0,0 -0.09,25.579995 14.81,39.999995 0.76,0.73 11.33,10.669999 24.76,10.999999 v 0 z"
     id="path126"
     style="fill:#fdeb01;stroke:#a97c50;stroke-width:0.56px;stroke-miterlimit:10" />
  <path
     class="cls-11"
     d="m 356.98004,60.378646 v 0 c 3.6,-1.74 8.74,-4.21 14.93,-7.12 5.29,-2.48 20.62,-9.57 29.62,-13.52 28.44,-12.5 57.6,-21.81 57.6,-21.81 v 0 c 0,0 0.84,20.36 -4.37,39.4 -1.65,6 -6.1,19.889995 -15.91,31.579995 a 77.79,77.79 0 0 1 -16,14.409999 l -5.14,3.15 c 0,0 -14.86,7 -28.13,4.47 -9.58,-1.85 -16.1,-8.29 -20.17,-12.309999 -2.78,-2.74 -9.39,-9.43 -12.19,-20 a 37.29,37.29 0 0 1 -0.24,-18.249995 z"
     id="path128"
     style="fill:#f8e877;stroke:#c49a6c;stroke-width:0.61px;stroke-miterlimit:10" />
  <path
     class="cls-12"
     d="m 355.88004,84.408651 v 0 c 0,0 -0.7,-3.91 -0.77,-4.32 -0.21,-1.25 -1.87,-10.760005 2.69,-17.000005 3.35,-4.55 8.69,-5.5 8.45,-6 -0.24,-0.5 -6.5,2 -16.67,4.28 a 80,80 0 0 1 -10.58,1.77 c -2.39,0.21 -7.17,0.48 -7.17,0.48 v 0 c 0,0 1.74,3.21 2.55,4.56 a 42.23,42.23 0 0 0 13.73,12.830005 64.77,64.77 0 0 0 7.77,3.4 z"
     id="path130"
     style="fill:#cdbb2c;stroke:#fdeb01;stroke-width:0.61px;stroke-miterlimit:10" />
  <path
     class="cls-13"
     d="m 350.15004,76.798641 a 32.43,32.43 0 0 1 2.33,-5.179995 c 5.11,-9.18 13.67,-14.12 21.28,-18.4 4.95,-2.78 9.23,-4.66 9.19,-4.72 -0.04,-0.06 -27.79,11.11 -32.51,13 a 41,41 0 0 1 -8.9,2.31 v 0 l -4.74,1 6.3,8.47 z"
     id="path132"
     style="fill:#9b8d3a" />
  <path
     class="cls-14"
     d="m 345.87004,65.348646 c 1.86,-0.92 4.48,-2.19 7.63,-3.66 2.1,-1 15,-7 15.35,-6.45 0.35,0.55 -7.9,3.93 -16.24,12 a 63.81,63.81 0 0 0 -5.78,6.41 12.89,12.89 0 0 0 -1.84,-2.57 18.85,18.85 0 0 0 -1.53,-1.45 c -0.66,-0.59 -1.5,-1.29 -2.5,-2.07 z"
     id="path134"
     style="fill:#4c2d1c;stroke:#3c2415;stroke-width:0.61px;stroke-miterlimit:10" />
  <path
     class="cls-15"
     d="m 429.48004,28.458646 c -0.15,11.63 -2.58,17.57 -4.79,20.8 a 1.86,1.86 0 0 1 -0.17,0.24 c -2.57,3.69 -5.91,5.15 -12.47,7.91 -9.36,3.94 -14.74,4.21 -18.41,3.53 a 19.69,19.69 0 0 1 -3.18,-0.9 34.66,34.66 0 0 1 -14,-9"
     id="path136"
     style="fill:#ebc569" />
  <path
     class="cls-16"
     d="m 376.50004,50.998646 c -0.25,-0.31 1.28,-2.32 4.36,-6.31 a 61.41,61.41 0 0 1 5.34,-6.5 25.77,25.77 0 0 1 9.43,-5.25 c 11.83,-4.26 31.7,-4.46 33.85,-4.48 a 232.69,232.69 0 0 0 -27.56,10.88 c -13.15,6.18 -24.38,12.98 -25.42,11.66 z"
     id="path138"
     style="fill:#ffe2a1" />
  <path
     class="cls-17"
     d="m 400.04004,34.578646 c -1,0.41 -1.12,0.68 -4.18,3.16 -1.36,1.1 -2.74,2.18 -4.1,3.27 v 0 c 6.1,-1.33 7.33,-1.9 7.33,-1.9 3.19,-1.47 5.83,-4.19 5.35,-5 -0.38,-0.64 -2.73,-0.25 -4.4,0.47 z"
     id="path140"
     style="fill:#894e21" />
  <path
     class="cls-18"
     d="m 407.90004,45.378646 c -0.9,0.61 -1.26,0.62 -5.31,2 -1.8,0.61 -3.6,1.25 -5.4,1.87 4.53,-4.48 5.74,-5.24 5.74,-5.24 3.13,-2 7.2,-2.89 7.75,-2.09 0.42,0.66 -1.21,2.4 -2.78,3.46 z"
     id="path142"
     style="fill:#603913" />
  <path
     class="cls-8"
     d="m 436.81004,156.75864 a 30.33,30.33 0 0 0 -9.05,-4.85 34.91,34.91 0 0 0 -12.42,-1.43999 100.61,100.61 0 0 1 -11.47,-8.53001 96.53,96.53 0 0 0 -10.58,-8.36 c -6.44,-4.21 -13.48,-7.51 -20.55,-10.8 -12.54,-5.83 -25.82,-9.24 -39.86,-11.59 a 23.68,23.68 0 0 0 -9.41,0.5 78.58,78.58 0 0 1 -4,-8.75 c 7.25,-0.11 14.89,0 22.87,0.29 7.98,0.29 15.71,0.87 22.92,1.56 a 214.47,214.47 0 0 1 41.56,10.55 c 10.5,3.86 18.11,7.38 23.57,10 a 282.23,282.23 0 0 1 31,17.25 c -9.57,4.56 -13.32,6.11 -14.53,6.4 -0.33,0.09 -1.9,0.81 -3.94,1.71 v 0 c -2.44,1.59 -5.6,3.88 -6.11,6.06 z"
     id="path144"
     style="fill:#fdf9cc" />
  <path
     class="cls-9"
     d="m 436.71004,157.22864 a 4.47,4.47 0 0 1 -1.38,-0.82 30.53,30.53 0 0 0 -19.94,-5.37999 h -0.18 l -0.15,-0.09 c -7.35,-4.42 -13.35,-10.66 -20.21,-15.65 -6.86,-4.99 -14.66,-8.49 -22.35,-12.09 -11.54,-5.38999 -23.94,-8.76 -36.46,-11 a 26.13,26.13 0 0 0 -12.49,-0.09 l -0.27,0.06 -0.13,-0.24 a 79.67,79.67 0 0 1 -4.22,-9.27 412.6,412.6 0 0 1 42.63,1.59 c 35.79,4.16 69.59,19.17 99.79,38.34 l 0.09,0.06 h -0.09 c -4.58,2.12 -9.11,4.37 -13.83,6.16 a 48,48 0 0 0 -4.66,1.91 c -2.38,1.73 -5.48,3.43 -6.17,6.51 z m 0,-0.16 a 7.17,7.17 0 0 1 2.62,-3.77 34.07,34.07 0 0 1 3.49,-2.61 44,44 0 0 1 4.66,-1.93 c 4.71,-1.8 9.23,-4.07 13.8,-6.21 a 317.62,317.62 0 0 0 -32.79,-17.97 222.19,222.19 0 0 0 -62.33,-19.39 387.67,387.67 0 0 0 -46.72,-1.92 l 0.31,-0.47 a 77.26,77.26 0 0 0 4,8.71 l -0.41,-0.18 a 24,24 0 0 1 9.65,-0.51 l 3.15,0.54 c 12.6,2.24 25.06,5.58 36.71,11 7.71,3.58 15.5,7.18 22.55,12.09 7.05,4.91 12.87,11.15 20.2,15.54 l -0.33,-0.08 a 36.19,36.19 0 0 1 11.53,1.11 30.29,30.29 0 0 1 9.76,4.82 c 0.15,0.08 0,0.11 0,0.35 l 0.13,0.88 z"
     id="path146"
     style="fill:#a97c50" />
  <path
     class="cls-10"
     d="m 360.06004,185.87864 a 60.36,60.36 0 0 1 -13.35,-10.44 64.71,64.71 0 0 1 -7.44,-9.56 c -8.78,-13 -13.17,-19.5 -15.71,-27.84 -2,-6.56999 -2.54,-12.27 -3.3,-20.44999 -0.76,-8.18001 -0.83,-14.61 -0.78,-14.62 0.05,-0.01 0.11,9.91999 1.66,23.18999 2.08,17.78 5,25.57 7.64,31.09001 a 75.29,75.29 0 0 0 4.32,7.72 c 3,4.62999 12.76,19.58 31.22,27.94 0.63,0.27999 3.62,1.62 7.77,3 a 76.33,76.33 0 0 0 20,4 80.76,80.76 0 0 0 43.39,-12.77 l 0.51,-0.33 c 0.57,-0.38 1.42,-0.94 2.46,-1.69 a 65.32,65.32 0 0 0 19.46,-22.77 c 0.23,-0.46 0.68,-1.37 1.15,-2.53 a 44.37,44.37 0 0 0 3,-17.33 c -3.81,0.61 -7.08,0.92 -9.63,1.09 a 97.69,97.69 0 0 1 -12.7,-0.08 l -1.56,-0.17 c 0,0 -3.21,-0.33 -15.66,-2.44 0,0 0.86,25.56 -13.6,40.38 -0.73,0.76 -11,11 -24.41,11.69 v 0 z"
     id="path148"
     style="fill:#fdeb01;stroke:#a97c50;stroke-width:0.56px;stroke-miterlimit:10" />
  <path
     class="cls-11"
     d="m 422.82004,142.29864 v 0 c -3.65,-1.64 -8.86,-3.95 -15.14,-6.67 -5.35,-2.31999 -20.9,-8.94 -30,-12.62 -28.81,-11.63 -58.24,-20.05 -58.24,-20.05 v 0 c 0,0 -0.22,20.37 5.57,39.24 1.83,6 6.69,19.7 16.85,31.09 a 78.22,78.22 0 0 0 16.43,13.92 l 5.23,3 c 0,0 15.06,6.58 28.25,3.61 9.52,-2.14999 15.84,-8.76999 19.79,-12.92 2.7,-2.83 9.1,-9.7 11.58,-20.39 a 37.23,37.23 0 0 0 -0.32,-18.21 z"
     id="path150"
     style="fill:#f8e877;stroke:#c49a6c;stroke-width:0.61px;stroke-miterlimit:10" />
  <path
     class="cls-12"
     d="m 424.65004,166.27864 v 0 l 0.64,-4.34 c 0.18,-1.26 1.55,-10.82 -3.21,-16.89 -3.48,-4.44 -8.85,-5.23 -8.62,-5.71 0.23,-0.48 6.56,1.83 16.79,3.78 a 80.12,80.12 0 0 0 10.63,1.46 c 2.39,0.13 7.18,0.26 7.18,0.26 v 0 c 0,0 -1.64,3.26 -2.41,4.64 a 42.47,42.47 0 0 1 -13.33,13.24 66.86,66.86 0 0 1 -7.67,3.56 z"
     id="path152"
     style="fill:#cdbb2c;stroke:#fdeb01;stroke-width:0.61px;stroke-miterlimit:10" />
  <path
     class="cls-13"
     d="m 430.15004,158.49864 a 32.94,32.94 0 0 0 -2.48,-5.11 c -5.39,-9 -14.1,-13.7 -21.84,-17.75 -5,-2.63 -9.36,-4.38 -9.33,-4.44 0.03,-0.06 28.12,10.27 32.9,12 a 41.09,41.09 0 0 0 9,2 v 0 l 4.77,0.89 -6,8.66 z"
     id="path154"
     style="fill:#9b8d3a" />
  <path
     class="cls-14"
     d="m 434.08004,146.92864 c -1.89,-0.87 -4.54,-2.06 -7.73,-3.44 -2.14,-0.92 -15.2,-6.57 -15.54,-6 -0.34,0.57 8,3.69 16.59,11.51 a 63.63,63.63 0 0 1 6,6.23 12.84,12.84 0 0 1 1.75,-2.63 18.88,18.88 0 0 1 1.49,-1.49 c 0.64,-0.61 1.46,-1.34 2.43,-2.14 z"
     id="path156"
     style="fill:#4c2d1c;stroke:#3c2415;stroke-width:0.61px;stroke-miterlimit:10" />
  <path
     class="cls-15"
     d="m 349.40004,112.57864 c 0.5,11.61 3.1,17.47 5.41,20.64 0,0.07 0.1,0.14 0.17,0.24 2.69,3.61 6.07,5 12.71,7.52 9.48,3.66 14.86,3.77001 18.51,3 a 20.54,20.54 0 0 0 3.15,-1 34.81,34.81 0 0 0 13.68,-9.46"
     id="path158"
     style="fill:#ebc569" />
  <path
     class="cls-16"
     d="m 403.03004,133.50864 c 0.24,-0.32 -1.35,-2.28 -4.55,-6.16999 a 60.44,60.44 0 0 0 -5.54,-6.34 25.64,25.64 0 0 0 -9.58,-5 c -11.95,-3.90001 -31.82,-3.51 -34,-3.45 a 230.52,230.52 0 0 1 27.87,10 c 13.37,5.85 24.8,12.31 25.8,10.95999 z"
     id="path160"
     style="fill:#ffe2a1" />
  <path
     class="cls-17"
     d="m 379.00004,117.79864 c 1,0.38 1.15,0.64 4.27,3 1.39,1.06 2.81,2.09 4.21,3.15 v 0 c -6.15,-1.15 -7.39,-1.68 -7.39,-1.68 -3.24,-1.38 -6,-4 -5.5,-4.84 0.36,-0.61 2.73,-0.29 4.41,0.37 z"
     id="path162"
     style="fill:#894e21" />
  <path
     class="cls-18"
     d="m 371.47004,128.83864 c 0.93,0.58 1.28,0.58 5.37,1.83 1.82,0.56 3.63,1.15 5.45,1.72 -4.66,-4.35 -5.89,-5.07 -5.89,-5.07 -3.19,-1.88 -7.28,-2.66999 -7.81,-1.86 -0.4,0.64 1.28,2.37 2.88,3.38 z"
     id="path164"
     style="fill:#603913" />
  <path
     class="cls-19"
     d="m 183.90004,128.23864 c -1.14,-0.12 -3.27,-0.3 -4.56,1.24 -2.47,2.95 1.13,8.76 -1.7,15.4 a 16.72,16.72 0 0 0 -1.46,3.58001 c -0.53,2.24 -0.35,4.33 0,7.65 0.17,1.84 0.36,3.08 0.36,3.08 1.78,11.79 2.67,17.68 4.48,21.99999 1.19,2.86001 3.41,6.82 10.63,12.63 20.67,16.63 41.31,19.67001 41.31,19.67001 29.29,4.82 57.72,-8.83 71.16,-24.08 3.83,-4.34 11.81,-13.51 13.75,-27.37 a 44.24,44.24 0 0 0 0.31,-9.53 c 0,0 -27.14,-3.37 -73.76,-13.21 -0.04,0.03 -25.24,-7.33 -60.52,-11.06001 z"
     id="path166"
     style="fill:#f8e877" />
  <path
     class="cls-20"
     d="m 183.88004,128.44864 a 5.72,5.72 0 0 0 -3.51,0.48 3.2,3.2 0 0 0 -1.19,1.23 4.48,4.48 0 0 0 -0.46,1.7 21.77,21.77 0 0 0 0.16,3.68 33.75,33.75 0 0 1 0.2,3.77 15.7,15.7 0 0 1 -1.89,7.3 10,10 0 0 0 -0.91,3.49 20.54,20.54 0 0 0 0.08,3.67 c 0.47,4.93 1.42,9.83 2.27,14.74 0.46,2.45 0.9,4.9 1.54,7.28 a 28.58,28.58 0 0 0 2.54,6.79 c 2.36,4.12 6.12,7.38 10,10.32 a 103.3,103.3 0 0 0 12.38,8 97.4,97.4 0 0 0 13.35,6 82.73,82.73 0 0 0 14,3.81 c 1.07,0.19 2.35,0.25 3.53,0.38 l 1.8,0.17 0.89,0.09 h 0.9 l 3.6,0.08 c 1.19,0.05 2.39,-0.09 3.59,-0.12 2.39,-0.05 4.77,-0.4 7.14,-0.62 1.19,-0.18 2.37,-0.4 3.54,-0.59 l 1.77,-0.31 1.75,-0.42 a 86,86 0 0 0 13.65,-4.36 78.53,78.53 0 0 0 12.71,-6.52 c 2,-1.24 3.94,-2.66 5.83,-4.07 l 2.76,-2.21 2.61,-2.36 c 0.83,-0.81 1.61,-1.67 2.43,-2.5 0.82,-0.83 1.62,-1.8 2.38,-2.69 a 57.75,57.75 0 0 0 4.22,-5.63 47.54,47.54 0 0 0 5.84,-12.51 44.18,44.18 0 0 0 1.34,-6.76 43.36,43.36 0 0 0 0.21,-6.93 l 2.66,2.92 -4.12,-0.68 -4.23,-0.74 -8.42,-1.56 q -8.42,-1.6 -16.78,-3.35 c -11.16,-2.32 -22.29,-4.82 -33.36,-7.43 l -4.14,-1 -2.07,-0.49 c -0.85,-0.21 -1.44,-0.43 -2.13,-0.63 -2.71,-0.81 -5.45,-1.57 -8.19,-2.31 q -8.25,-2.1 -16.6,-3.81 c -5.56,-1.19 -11.16,-2.15 -16.78,-3 -5.62,-0.85 -11.25,-1.63 -16.89,-2.3 z m 0,-0.41999 q 17,1.81 33.78,5 8.38,1.56999 16.71,3.50999 c 2.76,0.66 5.53,1.34 8.28,2.08001 0.68,0.16999 1.38,0.4 2,0.53999 l 2.09,0.43001 4.18,0.87 c 11.14,2.28 22.3,4.44999 33.5,6.43 11.2,1.98 22.41,3.85 33.7,5.34 h 0.28 v 0.29 a 46.3,46.3 0 0 1 -0.07,7.54 47.86,47.86 0 0 1 -1.32,7.41999 49.06,49.06 0 0 1 -6.14,13.72 71.34,71.34 0 0 1 -9.55,11.61001 68.28,68.28 0 0 1 -11.9,9.18 c -17,10.54 -37.85,15.17 -57.67,11.69999 a 85.61,85.61 0 0 1 -14.36,-4.37999 99.37,99.37 0 0 1 -13.48,-6.58 105.43,105.43 0 0 1 -12.38,-8.48 56.43,56.43 0 0 1 -5.58,-5 27.61,27.61 0 0 1 -4.49,-6.06001 29.69,29.69 0 0 1 -2.47,-7.11 c -0.57,-2.44 -1,-4.91 -1.4,-7.37 -0.76,-4.93 -1.63,-9.86 -2,-14.85 a 14.25,14.25 0 0 1 1,-7.46 15,15 0 0 0 1.88,-7.06 33,33 0 0 0 -0.17,-3.71 21.59,21.59 0 0 1 -0.13,-3.78 5.18,5.18 0 0 1 0.52,-1.87 3.64,3.64 0 0 1 1.38,-1.4 6.17,6.17 0 0 1 3.85,-0.55 z"
     id="path168"
     style="fill:#fdeb01" />
  <path
     class="cls-8"
     d="m 309.59004,148.30864 v 0 c 4.71,-0.67 7,-1.1 7.56,-1.8 0,0 0.13,-0.23 0.13,-0.23 v 0 c -0.27,-0.48 0.18,-1.13 0.29,-1.79 a 8.55,8.55 0 0 0 -0.81,-2.73 l -1.91,-0.83 -2.82,-1.23 -17.09,-7.44 a 230.35,230.35 0 0 0 -44.17,-13.4 185.5,185.5 0 0 0 -38.16,-2.87 v 0 a 165.85,165.85 0 0 0 -19.11,1.54 l -0.6,0.09 c -8.42,1.35 -13.15,6 -13.21,7.74 a 14.44,14.44 0 0 0 0.17,2.14 3.23,3.23 0 0 1 0.16,0.65 v 0 c 31.7,5.49 39.33,6.68 48.54,8.29 22.92,4 26.18,5.33 32.39,6.56 2.31,0.45 5.35,1 9.53,1.49 6.94,0.87 20.94,2.3 39.11,3.82 z"
     id="path170"
     style="fill:#fdf9cc" />
  <path
     class="cls-20"
     d="m 309.51004,148.26864 c 0.06,-0.06 0.08,0 0.07,0 h 0.06 0.06 0.12 0.25 l 0.5,-0.08 1,-0.17 c 0.67,-0.11 1.33,-0.23 2,-0.37 0.67,-0.14 1.32,-0.27 1.95,-0.46 0.63,-0.19 1.33,-0.4 1.56,-0.9 v 0.25 a 1.64,1.64 0 0 1 0.05,-1.35 4.44,4.44 0 0 0 0.15,-0.54 c 0,-0.07 0,-0.28 -0.06,-0.46 a 22.81,22.81 0 0 0 -0.77,-2.19 l 0.18,0.19 -1.92,-0.91 v 0 l -12.29,-5.06 c -4.09,-1.69 -8.18,-3.4 -12.28,-5 a 224,224 0 0 0 -25.22,-7.91 c -4.28,-1.07 -8.58,-2 -12.9,-2.87 -4.32,-0.87 -8.67,-1.45 -13,-1.93 a 186.74,186.74 0 0 0 -26.33,-1.05 v 0 a 165.19,165.19 0 0 0 -19,1.61 24.39,24.39 0 0 0 -8.53,2.87 13.13,13.13 0 0 0 -3.45,2.64 l -0.29,0.37 -0.2,0.34 c 0,0.06 -0.11,0.21001 -0.07,0.15 0.04,-0.06 0,0 0,0 v 0.25 c 0,0.37001 0,0.76 0.07,1.1 0,0.19 0,0.31 0,0.33001 l 0.19,0.77 -1.22,-1.22 32.33,5.64 16.19,2.84 q 8.07,1.5 16.12,3.18 4,0.84 8,1.79 c 2.67,0.63 5.31,1.33 7.95,1.88999 l 8,1.36001 c 0.67,0.1 1.34,0.24 2,0.31999 l 2,0.22 4,0.48 c 10.77,1.28 21.66,2.69 32.73,3.88 z m 0.15,0.08 -32.72,-3.13999 -4.1,-0.39 -2,-0.2 c -0.69,-0.07 -1.36,-0.2 -2,-0.3 l -8.13,-1.28001 c -2.69,-0.53 -5.34,-1.19999 -8,-1.8 -2.66,-0.6 -5.34,-1.16 -8,-1.7 -10.72,-2.13999 -21.52,-3.88999 -32.3,-5.72999 l -32.35,-5.51 h -0.1 v -0.11001 l -0.25,-0.61 a 2.79,2.79 0 0 1 -0.11,-0.62 c 0,-0.4 -0.07,-0.81 -0.09,-1.21 a 2.3,2.3 0 0 1 0.24,-1.25 6.57,6.57 0 0 1 0.7,-1 14.61,14.61 0 0 1 3.78,-3 25.14,25.14 0 0 1 9.13,-3.08 165,165 0 0 1 19.23,-1.54 v 0 a 188.21,188.21 0 0 1 26.54,1.16 c 4.4,0.52 8.79,1.16 13.14,2 4.35,0.84 8.66,1.91 12.94,3 a 223.67,223.67 0 0 1 25.26,8.24 c 4.11,1.65 8.16,3.46 12.22,5.23 l 12.18,5.31 v 0 l 1.92,0.84 v 0 0 a 21.92,21.92 0 0 1 0.74,2.25 1.45,1.45 0 0 1 0.05,0.63 4.74,4.74 0 0 1 -0.17,0.57 c -0.12,0.37 -0.28,0.76 -0.1,1.07 v 0 0.05 a 1.53,1.53 0 0 1 -0.8,0.68 6.52,6.52 0 0 1 -1,0.33 c -0.65,0.18 -1.32,0.31 -2,0.43 -0.68,0.12 -1.33,0.23 -2,0.33001 l -1,0.15 -0.5,0.07 h -0.25 -0.13 -0.12 c 0,0 0.1,0.18999 0.2,0.12999 z"
     id="path172"
     style="fill:#fdeb01" />
  <path
     class="cls-16"
     d="m 272.71004,144.28864 a 29.91,29.91 0 0 0 -7.71,-10 c -6.12,-5.06 -12.82,-5.83 -17.16,-6.33 a 38.18,38.18 0 0 0 -5.62,-0.24 40.67,40.67 0 0 0 -8.26,1.09 41.33,41.33 0 0 0 -13.29,6.07"
     id="path174"
     style="fill:#ffe2a1" />
  <path
     class="cls-21"
     d="m 316.71004,141.80864 c -5.25,-2.3 -10.5,-4.58 -15.85,-6.61 -5.35,-2.03 -10.69,-4 -16.13,-5.78 a 223.75,223.75 0 0 0 -33.18,-8.15 c -5.6,-1 -11.28,-1.48 -17,-2 l -17.11,-1.42 a 96.87,96.87 0 0 0 -17,0 33.93,33.93 0 0 0 -8.27,1.79 q -4.08,1.4 -8.16,2.73 l -0.05,-0.12 8.05,-3 a 34.77,34.77 0 0 1 8.34,-2.07 96.66,96.66 0 0 1 17.18,-0.29 c 5.72,0.32 11.43,0.81 17.14,1.25 5.71,0.44 11.43,1 17.09,1.88 22.64,3.8 44.47,11.58 65,21.69 z"
     id="path176"
     style="fill:#f26522" />
  <path
     class="cls-15"
     d="m 220.91004,136.74864 c -1.62,11 8.49,20.67 9.52,21.66 3.29,3.17 6.59,3.76 13,4.82 12.27,2 16.56,-0.86 19.37,-3.35 2.81,-2.49 8.69,-7.68 9.83,-15.59"
     id="path178"
     style="fill:#ebc569" />
  <path
     class="cls-29"
     d="m 179.83004,150.23864 c 1.94,-5 6.4,-7.44 12.26,-10.54 8.92,-4.71 15,-4.93 15.08,-6.69999 0.08,-2.62001 -10.94,-5.58001 -13.92,-6.38 -4.53,-1.22 -8,-1.67 -8.08,-3.07 0,-0.93 1.49,-1.8 4,-3.18 a 40.74,40.74 0 0 1 7.45,-3.24001 c -8.37,1.63 -14.36,3.7 -15.58,4.59001 a 11.23,11.23 0 0 0 -2.22,2.19999 c 0,0 -0.28,0.38 -0.52,0.79 -1.87,3.17 -1.28,10.78 -1.28,10.78 0.4,5.25 -1.47,7.19 -2.89,13.78 a 102.09,102.09 0 0 0 0.1,23.29 c 2.2,20.29 31.15,33.8 35.44,36.00001 33.92,17.18 67.87,2.87999 79.47,-4.83 a 91.35,91.35 0 0 0 18.39,-17 c 4.47,-5.39 6,-8.46 7,-10.74 3.83,-9.32 2.91,-18.63 2.71,-18.64 a 31.58,31.58 0 0 1 -1.6,9.17 c -1.88,5.38999 -5,8.89 -7.52,11.78 a 74,74 0 0 1 -8.58,7.88999 c -3,2.5 -5.71,4.63 -7.09,5.63 -7,5.14 -19.95,11.55001 -35.7,13.07 a 76.19,76.19 0 0 1 -15.43,-0.17 c -5.19,-0.57 -20.77,-2.82 -38.13,-14.74 -8.7,-6 -17.8,-12.43 -22.26,-25.07 -3.22,-8.88 -1.51,-13.63 -1.1,-14.67 z"
     id="path180"
     style="fill:#fdeb01;stroke:#fdeb01;stroke-width:0.61px;stroke-miterlimit:10" />
  <path
     class="cls-30"
     d="m 316.00004,148.71864 c -0.55,0.8 -1.6,1.51 -5.6,1.42 -6.25,-0.15 -10.5,-2 -10.62,-1.66 -0.12,0.34 2.45,2 5.92,3.24 4.45,1.57 5.45,0.91 7.35,2.48 a 10.93,10.93 0 0 1 3.55,7 c 0.23,2.62 -0.59,4.71 -1.93,7.7 -4.14,9.25 -7.68,14.77 -7.37,15.08 0.31,0.31 3.33,-2.78 6.24,-7.27 a 62.6,62.6 0 0 0 7.94,-21.37 c 0.52,-2.84 0.46,-4.47 0,-5.84 -0.26,-0.74 -1.12,-2.75 -1.12,-2.75 l -3.65,-5 c 0,0 0.79,4.83 -0.71,6.97 z"
     id="path182"
     style="fill:#fdeb01;stroke:#fdeb01;stroke-width:0.49px;stroke-miterlimit:10" />
  <path
     class="cls-24"
     d="m 315.30004,156.66864 a 12.83,12.83 0 0 1 1.27,3.44 9.42,9.42 0 0 1 0.21,1.83 v 0.93001 c 0,0.3 -0.05,0.61 -0.08,0.91999 a 17.86,17.86 0 0 1 -2.32,7 50.87,50.87 0 0 1 -9.4,11.27001 145.29,145.29 0 0 1 -11.07,9.51999 70.88,70.88 0 0 1 -12.6,7.64 75.07,75.07 0 0 1 -28.56,6.9 84.9,84.9 0 0 1 -29.13,-4.07 h 0.17 l -0.37,-0.11 -0.23,-0.09 -0.42,-0.15 -0.81,-0.31 c -0.55,-0.20999 -1.08,-0.44 -1.61,-0.66 -1.06,-0.45 -2.12,-0.91 -3.16,-1.42 -2.1,-1 -4.13,-2.06 -6.15,-3.18 a 94,94 0 0 1 -21.78,-16.89 c -1.52,-1.75 -3.13,-3.38 -4.5,-5.29 a 33.36,33.36 0 0 1 -3.54,-6.05 35.25,35.25 0 0 1 -2.21,-6.62 21.43,21.43 0 0 1 -0.82,-7 13,13 0 0 1 2.45,-6.68 21.29,21.29 0 0 1 5.13,-4.77 c 7.62,-5.3 16.72,-7.94 25.79,-8.76 v 0.12 c -9,1 -18,3.79 -25.44,9.14 a 21,21 0 0 0 -4.91,4.68 12.22,12.22 0 0 0 -2.26,6.32 20.8,20.8 0 0 0 0.87,6.73 34,34 0 0 0 2.22,6.44 33.07,33.07 0 0 0 5.68,8.47 l 2.29,2.54 a 92.51,92.51 0 0 0 10.18,9.1 94.7,94.7 0 0 0 11.4,7.52 84.94,84.94 0 0 0 12.37,5.73 v 0 a 84.78,84.78 0 0 0 28.75,4.16 75.13,75.13 0 0 0 28.2,-6.64999 70.2,70.2 0 0 0 12.52,-7.42001 142.58,142.58 0 0 0 11.15,-9.37 50.26,50.26 0 0 0 9.5,-11 17.5,17.5 0 0 0 2.41,-6.8 c 0,-0.3 0.07,-0.6 0.09,-0.9 v -0.91 a 9,9 0 0 0 -0.18,-1.8 12.19,12.19 0 0 0 -1.19,-3.42 z"
     id="path184"
     style="fill:#895931" />
  <path
     class="cls-13"
     d="m 316.01004,158.57864 -7.61,-3.61 c -3.46,-1.63 -4.49,-2.33 -6.41,-3.14 a 41.35,41.35 0 0 0 -9.34,-2.55 c -8.36,-1.57 -18.11,-4 -18,-4.46 0.11,-0.46 6.9,0.5 13.89,1 a 179.36,179.36 0 0 0 28.79,-0.33 q -1,2.39 -2.06,4.92 c -0.25,0.61 -0.49,1.22 -0.73,1.83 q 0.73,3.19 1.47,6.34 z"
     id="path186"
     style="fill:#9b8d3a" />
  <path
     class="cls-25"
     d="m 317.14004,149.28864 a 6.46,6.46 0 0 1 -0.41,1.5 6.22,6.22 0 0 1 -0.61,1.09 4.63,4.63 0 0 1 -1.61,1.37001 l 0.92,-3.86001 a 4.36,4.36 0 0 1 0.9,2 5.24,5.24 0 0 1 0.08,1.28 6,6 0 0 1 -0.31,1.58001 l -0.23,0.18 c -0.48,-0.54 -0.93,-1.08001 -1.37,-1.65 l -1.33,-1.67 -0.23,-0.29 0.33,-0.14 c 1.25,-0.55 2.47,-1.17 3.75,-1.65 z"
     id="path188"
     style="fill:#3c2415" />
  <path
     class="cls-31"
     d="m 187.98004,130.48864 125.42,20.45"
     id="path190"
     style="fill:none;stroke:#000000;stroke-width:0.45px;stroke-miterlimit:10" />
  <path
     class="cls-32"
     d="m 181.01004,121.71864 c 0.79,-0.74 2.82,1.32 5.77,3.59 4.32,3.33 8.35,4.66 14.76,6.44 5.77,1.61 9,1.71 8.95,2.45 0,0.94 -5.29,1.07 -14.33,3.69 -8.22,2.37 -10.75,4.25 -11.76,5.06 -4,3.21 -5.92,6.88 -6.6,6.38 -0.68,-0.5 1.37,-4.74 3.09,-13.44 a 32.2,32.2 0 0 0 0.79,-5.78 c 0.03,-4.95 -1.46,-7.64 -0.67,-8.39 z"
     id="path192"
     style="fill:#cdbb2c;stroke:#fdeb01;stroke-width:0.6px;stroke-miterlimit:10" />
  <path
     class="cls-13"
     d="m 183.13004,124.83864 10.26,3.36 c 15,3.71 18.29,5.27001 18.18,6 -0.19,1.16 -8.92,-1.13 -19.93,3 -2.59,1 -9.47,3.88 -9.47,3.88 v 0 q 1,-5.7 2.06,-11.4 z"
     id="path194"
     style="fill:#9b8d3a" />
  <path
     class="cls-33"
     d="m 193.71004,134.57864 14.67,-1.15 v 0 l -13.24,-3.15 -7.68,-1.91 a 12.82,12.82 0 0 1 0,3.13 13.43,13.43 0 0 1 -2.27,6 z"
     id="path196"
     style="fill:#3c2415;stroke:#3c2415;stroke-width:0.6px;stroke-miterlimit:10" />
  <path
     class="cls-17"
     d="m 245.15004,131.90864 c 1,0 1.29,0.25 5,1.63 1.66,0.62 3.34,1.19 5,1.80001 v 0 c -6.07,1.15 -7.4,1.06 -7.4,1.06 -3.48,-0.23 -6.93,-2 -6.8,-3.13 0.12,-0.85 2.42,-1.42 4.2,-1.36001 z"
     id="path198"
     style="fill:#894e21" />
  <path
     class="cls-18"
     d="m 242.17004,146.94864 c 1.06,0.28 1.39,0.13 5.61,-0.1 1.87,-0.11 3.75,-0.16999 5.63,-0.27 -5.85,-2.92 -7.24,-3.23 -7.24,-3.23 -3.61,-0.8 -7.67,-0.06 -7.86,1 -0.15,0.89 2.02,2.13 3.86,2.6 z"
     id="path200"
     style="fill:#603913" />
</svg>
