<?xml version="1.0" encoding="UTF-8" standalone="no"?>
<svg
   viewBox="0 0 544.47551 247.26389"
   version="1.1"
   id="svg182"
   sodipodi:docname="fruits_for_tray.svg"
   width="544.47552"
   height="247.2639"
   inkscape:version="1.2.2 (b0a8486541, 2022-12-01)"
   xmlns:inkscape="http://www.inkscape.org/namespaces/inkscape"
   xmlns:sodipodi="http://sodipodi.sourceforge.net/DTD/sodipodi-0.dtd"
   xmlns="http://www.w3.org/2000/svg"
   xmlns:svg="http://www.w3.org/2000/svg">
  <sodipodi:namedview
     id="namedview184"
     pagecolor="#ffffff"
     bordercolor="#000000"
     borderopacity="0.25"
     inkscape:showpageshadow="2"
     inkscape:pageopacity="0.0"
     inkscape:pagecheckerboard="0"
     inkscape:deskcolor="#d1d1d1"
     showgrid="false"
     inkscape:zoom="0.92370265"
     inkscape:cx="353.46873"
     inkscape:cy="50.882175"
     inkscape:window-width="1920"
     inkscape:window-height="1011"
     inkscape:window-x="0"
     inkscape:window-y="32"
     inkscape:window-maximized="1"
     inkscape:current-layer="svg182" />
  <defs
     id="defs4">
    <style
       id="style2">.a{fill:#ff7800;}.b{fill:#ff6200;}.c{fill:#ff9109;}.d{fill:#ffb120;}.e{fill:#e85100;}.f{fill:#006322;}.g{fill:#009047;}.h{fill:#ffea00;}.i{fill:#2d4b1d;}.j{fill:#549429;}.k{fill:#338000;}.l{fill:#502d16;}.m{fill:#447821;}.n{fill:#c8cacb;}.o{fill:#7a90a2;}.p{fill:#e0e3ed;}.q{fill:none;stroke:#7a90a2;stroke-miterlimit:10;}</style>
  </defs>
  <ellipse
     class="a"
     cx="53.880001"
     cy="169.62337"
     rx="53.880001"
     ry="51.41"
     id="ellipse92-8-8"
     style="fill:#ff7800" />
  <path
     class="c"
     d="m 43.551331,204.2559 c -14,0.92 -26.31999,-9.39 -31.59,-19.92 -10.8699901,-21.68 4.13,-52.44 25.41,-60.12 15.999997,-5.76 34.609997,1.78 34.479997,4.59 -0.11,2.49 -15.13,3.65 -15,5.54 0.13,1.89 14.71,-1.33 21.41,5.76 9.000003,9.5 -1.48,31.9 -3.09,35.26 -3.95,8.19 -13.38,27.69 -31.599997,28.89 z"
     id="path10"
     style="fill:#ff9109" />
  <path
     class="e"
     d="m 87.661331,143.3959 a 27.62,27.62 0 0 1 -3.78999,4.76 31.93,31.93 0 0 1 -10.000003,6.86 27.51,27.51 0 0 1 -5.80001,1.82 c 1.88,-0.75 3.71001,-1.56 5.48,-2.48 a 49.31,49.31 0 0 0 5.13,-3.07 47.67,47.67 0 0 0 4.700003,-3.69 55,55 0 0 0 4.31,-4.2 z"
     id="path14"
     style="fill:#e85100" />
  <path
     class="e"
     d="m 86.251331,144.8759 a 9.38,9.38 0 0 1 0.54,3.19 11.41,11.41 0 0 1 -0.44,3.24 11.62,11.62 0 0 1 -1.3,3 9.57,9.57 0 0 1 -2.12,2.41 29.35,29.35 0 0 0 1.47,-2.77 20.75,20.75 0 0 0 1.05,-2.89 19.09,19.09 0 0 0 0.6,-3 25.62,25.62 0 0 0 0.2,-3.15 z"
     id="path16"
     style="fill:#e85100" />
  <path
     class="e"
     d="m 91.471341,146.7959 a 10.67,10.67 0 0 1 1.53999,3.4 13,13 0 0 1 -0.27,7.45 10.62,10.62 0 0 1 -1.76,3.26 24.4,24.4 0 0 0 1.06,-3.47 19.93,19.93 0 0 0 0.44,-3.53 19.27,19.27 0 0 0 -0.18,-3.56 24.06,24.06 0 0 0 -0.82999,-3.55 z"
     id="path18"
     style="fill:#e85100" />
  <path
     class="e"
     d="m 93.271331,145.4559 a 24.6,24.6 0 0 1 1.52,2.38 c 0.47001,0.82 0.89,1.65 1.29001,2.5 0.39999,0.85 0.77999,1.7 1.11,2.58 a 21.61,21.61 0 0 1 0.87,2.69 21.9,21.9 0 0 1 -1.53,-2.38 c -0.47,-0.82 -0.89,-1.65 -1.29,-2.49 -0.4,-0.84 -0.77,-1.71 -1.11,-2.59 a 21.56,21.56 0 0 1 -0.86001,-2.69 z"
     id="path20"
     style="fill:#e85100" />
  <path
     class="e"
     d="m 81.121328,136.4559 c -1.47,-0.93 -2.93,-1.83 -4.42,-2.67 -1.49,-0.84 -3,-1.61 -4.56,-2.3 -1.56,-0.69 -3.13,-1.34 -4.73,-1.91 -1.59999,-0.57 -3.24,-1.08 -4.9,-1.59 a 27,27 0 0 1 5.11001,0.86 33.93,33.93 0 0 1 4.88999,1.76 31.86,31.86 0 0 1 4.57,2.54 26.07,26.07 0 0 1 4.04,3.31 z"
     id="path22"
     style="fill:#e85100" />
  <path
     class="e"
     d="m 83.531331,140.7659 c -2.220003,-0.21 -4.430003,-0.52 -6.630003,-0.86 -2.2,-0.34 -4.4,-0.72 -6.59,-1.11 -2.19,-0.39 -4.38,-0.86 -6.55,-1.33 -2.17,-0.47 -4.36,-1 -6.53,-1.57 2.23,0.21 4.44,0.51 6.64,0.85 2.2,0.34 4.4,0.72 6.59,1.12 2.19,0.4 4.38,0.86 6.55,1.32 2.17,0.46 4.37,1 6.520003,1.58 z"
     id="path24"
     style="fill:#e85100" />
  <path
     class="f"
     d="m 81.101328,141.7259 a 11.58,11.58 0 0 1 -0.61,-6.81 4.78,4.78 0 0 1 1.57,-2.75 3,3 0 0 1 0.830003,-0.38 5.32,5.32 0 0 1 3.66,0.9 17.41,17.41 0 0 1 4.75,4.21 16.61,16.61 0 0 1 3.3,7.19 3.43,3.43 0 0 1 -0.81,3.18 c -1.38999,1.24 -4.56999,1.13 -7.50999,-0.26 a 10.46,10.46 0 0 1 -4.520013,-4 c -0.15,-0.25 -0.57,-1.09 -0.66,-1.32 z"
     id="path28"
     style="fill:#006322" />
  <path
     class="g"
     d="m 81.611328,141.6259 a 10.57,10.57 0 0 1 -0.56,-6.24 4.44,4.44 0 0 1 1.430003,-2.52 3.36,3.36 0 0 1 0.77001,-0.35 4.89,4.89 0 0 1 3.34999,0.83 16,16 0 0 1 4.35,3.86 15,15 0 0 1 3.00001,6.58 3.09,3.09 0 0 1 -0.74,2.91 c -1.27001,1.14 -4.19,1 -6.88,-0.24 a 9.47,9.47 0 0 1 -4.13,-3.62 c -0.140003,-0.23 -0.520003,-1 -0.610003,-1.21 z"
     id="path30"
     style="fill:#009047" />
  <path
     class="f"
     d="m 91.321331,145.2759 c -1.38,0.9 -4,-0.78 -5.22999,-1.84 -2.86001,-2.47 -4.510003,-7 -3.09,-8.37 1.41999,-1.37 5.69999,0.16 7.74,3.07 1.68,2.37 2.12,6.15 0.57999,7.14 z"
     id="path32"
     style="fill:#006322" />
  <path
     class="j"
     d="m 125.45133,239.31618 a 50.87,50.87 0 0 1 -20.69,-4.8 c -17.749999,-8.46 -30.370002,-23.62 -34.430002,-41.33 -1.82,-7.95 -2,-13.23 -0.58,-20.47 1.48,-7.7 4.81,-13.93 10,-18.64 5.650003,-5.16 10.460003,-6.84 22.140002,-7.77 4.27,-0.33 10.63,-2.11 10.37,-2.9 l 2,-0.53 a 56.94,56.94 0 0 0 7.18,-3.76 c 14.92001,-8.58 25.52,-9.62 38.52,-3.79 21.89,9.82 30.27,36.4 20.52,65.09 -2.42,7.13 -7.5,16.21 -13.77,21.55 -14.09,10.73 -26.29,16.1 -41.27,17.35 z m 54.23,-67.64 c 1.21,-10.35 -9.33999,-26.48 -20.88,-30.51 -5.68,-2 -6.83999,-1.83 -2.93,0.39 a 50.44,50.44 0 0 1 12.55001,10.53 c 5.37,6.53 10,17.77 9.91,24.27 0,0.16 0.1,0.86 0.25,0.85 0.42,0.04 1.04,-4.95 1.09999,-5.53 z"
     id="path38"
     style="fill:#549429" />
  <path
     class="k"
     d="m 114.62133,136.06618 c -1.73,0.07 -1.75999,-0.27 -0.38,-4.7 4,-12.79 15.5,-23.2 29.32,-26.49 7.33,-1.74 7.67001,-1.59 6.33,2.73 -2.29,7.38 -8.17,15.4 -14.9,20.36 -2.56,1.88 -5.56999,3.3 -11.27999,5.3 a 76,76 0 0 1 -9.09001,2.8 z"
     id="path40"
     style="fill:#338000" />
  <path
     class="l"
     d="m 112.23134,143.40618 c -0.86001,-2.63 -6.89,-11.68 -10,-15 a 35.53,35.53 0 0 1 -3.770009,-4.39 35.78,35.78 0 0 1 3.869999,-1.92 l 3.74,-1.7 1.46,2.25 c 2.3,3.51 5.05,11.22 5.68,15.88 0.31,2.33 0.78,4.29 1,4.34"
     id="path42"
     style="fill:#502d16" />
  <path
     class="h"
     d="m 395.00133,62.906177 -24.88,4.08 -13.12,3.69 -19.39999,1.74 -13.84,-1.22 -16.43,-3.83 -25.33,-10.57 -23.93,-14.58999 -20,-16.00001 -28.07001,-19.5300054 -12,-2.9 -16.25,12.3200004 5.5,21.580015 17.07,24.53 14.82,15.13 25.95,19 34.8,16.999993 30.58,8.34 21.29,1.42 17.95,-2.52 18.75001,-7 14.27,-9.52 12.38,-14.999993 3.44,-10.05 0.11,-8.64 z"
     id="path44"
     style="fill:#ffea00" />
  <path
     class="i"
     d="m 199.80133,59.196177 c -1.1,-1.23999 -5.27999,-6.91 -7,-9.54999 -8.73,-13.16 -13.11,-26.00001 -13,-38.150015 a 13.17,13.17 0 0 1 0.5,-4.3400004 12.31,12.31 0 0 1 5.14,-6.31999996 c 1.83,-1 3.16001,-1.09 5.59,-0.34 0.57,0.18 2.32,0.57999996 3.88,0.89999996 a 78.35,78.35 0 0 1 28.66,12.0000004 c 5.48,3.61 7.71,5.33 15.32,11.810005 15.15,12.89001 27.51,21.48001 41.74,29.00001 13.22001,7 30.3,13.22999 42,15.34999 11.26,2 24.69,1.22 41.45001,-2.54 l 7.30999,-1.64 c 1.34001,-0.3 4.87,-0.87 7.85,-1.28 6.32001,-0.86 11.57001,-1.89 13.54,-2.65 1.97,-0.76 5.22,-2.9 9.08001,-6.07 3.86,-3.17 5,-4.39 9.57,-10.19 1.78,-2.28 3.43,-4.36999 3.67,-4.64999 a 3.41,3.41 0 0 1 4.26999,-0.51001 c 1.73001,1 4.27,4.26001 5.9,7.70001 1.54,3.25 0.89,4.36 -4.21,7.18999 a 27.67,27.67 0 0 0 -5.25,3.69 c -5,4.09 -10.24,9.53 -12.46,12.81 -1.77,2.61 -2.52,4.42001 -3.9,9.42001 -2.45,8.83999 -4.45,12.83999 -8.45,17.56 a 71.79,71.79 0 0 1 -14.40999,11.999993 c -14.91,9.47 -32.38,13.86 -52.59001,13.2 a 153.45,153.45 0 0 1 -17.47,-1.85 176,176 0 0 1 -59,-22.489993 c -17.47,-10.61 -33,-23.32001 -44.7,-36.66001 l -3,-3.44 z m -2.06999,-7.84999 a 95.91,95.91 0 0 0 9.69999,11.99999 c 13.27,14.37 31.05001,28 49.83,38.110003 a 177.7,177.7 0 0 0 44.31,16.41 q 26,5.52 47.57,0.77 a 74.38,74.38 0 0 0 9.81,-2.77 65.53,65.53 0 0 0 6.77,-2.74 6.68,6.68 0 0 0 -1.67,0.5 c -5.38,2 -13.06,3.45 -21.31,4.14 -23.72,2 -49.1,-3.1 -74.79,-15 -22.57,-10.470003 -41,-23.210003 -56.39,-38.929993 a 205.66,205.66 0 0 1 -16.22,-18.67001 80.77,80.77 0 0 1 -10.08,-20.41001 c -0.27,-0.92 0,1.59001 0.28,3 1.33,5.86002 5.6,14.14002 12.19,23.60001 z m -2.37,-11.67 c 2.37,3.91 3.51999,5.42 9.05,11.88 a 176.71,176.71 0 0 0 54.53,43.38999 c 32.13,16.920003 62.23,23.240003 90.93,19.070003 a 69.23,69.23 0 0 0 29.6,-11.26 c 7.72,-5.340003 12.64,-11.250003 15.78999,-19.000003 0.88,-2.17 1.68,-4.65 1.44001,-4.46 -0.07,0.06 -0.58001,0.73 -1.15,1.51 -0.57,0.78001 -1.56,2 -2.21,2.73 a 55.22,55.22 0 0 1 -4.92,4.62 18.65,18.65 0 0 1 1.14,-2 c 0.67,-1.11 1.67,-2.94 2.23,-4.06999 a 72.47,72.47 0 0 0 3.18,-7.36001 10.78,10.78 0 0 0 -1.19001,1.23001 32.17,32.17 0 0 1 -9.53,7.1 11.17,11.17 0 0 1 -3.47,1.09999 4.29,4.29 0 0 1 1.08001,-1.19999 50.29,50.29 0 0 0 7.47,-9.54001 l 1.2,-1.95 -1.28,0.5 a 84,84 0 0 1 -13.72,3.76 c -1.62,0.34 -5.2,1.2 -8,1.91 -14.41,3.72 -26.11,5.42 -37.18,5.42 a 81.85,81.85 0 0 1 -23.35001,-3.21 q -30.58999,-8.43 -59.52999,-29.18 a 279.41,279.41 0 0 1 -23.24,-18.72999 c -10.73001,-9.410015 -16.07,-13.890015 -22.10001,-18.550015 -4.67,-3.6100004 -5.76999,-4.1000004 -5.49,-2.45 0.32,1.83 0.94,2.82 5.87,9.32 2.94,3.880005 4.61,6.219995 4.4,6.130005 -1.05,-0.43 -5.89,-4.510005 -10,-8.450005 -3.41,-3.25 -4.57,-3.82 -4.62,-2.26 0,1.13 1.14,5.65 2.42,9.370005 1.35,3.89 1.41,3.77 -1,2 a 40.19,40.19 0 0 1 -4.72,-4.160005 9.19,9.19 0 0 0 -1.07,-1 c -0.46,-0.17 -0.27,0.87 0.59,3.350005 a 76.76,76.76 0 0 0 6.85001,14.44001 z m 6.56,-33.5700154 c -0.38,-0.09 -0.54001,-0.07 -0.42001,0.07 l 2.24,2.5 a 160.66,160.66 0 0 0 15.67001,15.1900054 c 2.32999,2 6.44,5.57 9.13,7.92001 20.57999,18 38.79,29.71999 59.31,38.36 9.12,3.83999 21.86,7.81 28.68,9 12,2 24.58999,1.38999 40.46999,-1.90001 13.86001,-2.88 22.32001,-5.84999 26.54,-9.31 l 1.62,-1.33 -2.79,0.26 c -4,0.37 -5.89999,0.7 -16.47,2.91 a 159.32,159.32 0 0 1 -20.42,3.35 c -11.64,1.09 -19.94,0.52 -29.79,-2 a 156.12,156.12 0 0 1 -27.89,-10 c -17.82,-8.22 -32.73,-18.06 -51.16,-33.78 a 124.37,124.37 0 0 0 -9.92,-8.000005 95,95 0 0 0 -16.05,-9.6100004 82.48,82.48 0 0 0 -8.75,-3.45 z"
     id="path46"
     style="fill:#2d4b1d" />
  <path
     class="h"
     d="m 396.42133,76.946177 -22,12.23 -11.13,7.89 -17.68,8.180003 -13.44,3.52 -16.79,1.91 -27.38,-1.36 -27.43,-5.64 -24.23,-8.320003 -33,-8.93 -12.34,1.34 -11.1,17.080003 12.45,18.42 24.35,17.33 19.06,9.25 30.83,9.12 38.51,4.28 31.6,-2.47 20.52001,-5.84 16,-8.43 15.26999,-13 10.22001,-13.77 6.58,-18.35 -0.16,-10.610003 -2.8,-8.17 z"
     id="path48"
     style="fill:#ffea00" />
  <path
     class="i"
     d="m 211.44133,139.31618 c -1.45999,-0.79 -7.3,-4.72 -9.83999,-6.61 -12.66001,-9.45 -21.10001,-20 -25.13,-31.52 a 13.23,13.23 0 0 1 -1,-4.250003 12.35,12.35 0 0 1 2.7,-7.69 c 1.37999,-1.57 2.61,-2.09 5.14999,-2.2 0.60001,0 2.38,-0.24 4,-0.47 a 78.19,78.19 0 0 1 31,1.66 c 6.38,1.55 9.06,2.42 18.41001,5.95 18.6,7.000003 33.13999,10.930003 49.06999,13.210003 14.81001,2.11 33,2.22 44.69,0.28 11.29001,-1.87 23.65,-7.18 38.15,-16.370003 l 6.33001,-4 c 1.15999,-0.74 4.28999,-2.46999 7,-3.86 5.65999,-2.95 10.25,-5.68 11.86,-7.07 1.61,-1.39 3.92999,-4.48999 6.49,-8.77 2.55999,-4.27999 3.26,-5.83 5.55999,-12.82 0.91,-2.75 1.76,-5.27999 1.89,-5.61999 a 3.41,3.41 0 0 1 3.85,-1.92 c 2,0.31 5.46001,2.57 8.16,5.24999 2.54,2.54 2.3,3.81001 -1.54,8.20001 a 27,27 0 0 0 -3.7,5.23999 c -3.28,5.51001 -6.42,12.42 -7.4,16.26001 -0.78999,3.06 -0.88,5 -0.49,10.19 0.67,9.049993 0.22,13.499993 -2,19.299993 a 71.76,71.76 0 0 1 -9.49,16.2 c -10.84,14 -25.80999,24 -45,30.17 a 155.1,155.1 0 0 1 -17.07,4.16 176,176 0 0 1 -63.15,-1.25 c -20,-4.09 -38.91,-10.83 -54.45,-19.42 l -4,-2.22 z m -4.6,-6.68 a 97.52,97.52 0 0 0 13.16,8.04 c 17.34,9.05 38.67001,15.85 59.76,19.05 a 177.44,177.44 0 0 0 47.26,0.49 q 26.34,-3.59 45,-15.32 a 72.76,72.76 0 0 0 8.3,-5.92 64.57,64.57 0 0 0 5.45,-4.87 7.35,7.35 0 0 0 -1.4,1 c -4.39999,3.66 -11.13,7.66 -18.65999,11.1 -21.66001,9.88 -47.27,13.64 -75.48,11.09 -24.77,-2.24 -46.44,-8 -66.21,-17.62 a 205.43,205.43 0 0 1 -21.58,-12.09 80.47,80.47 0 0 1 -16.37,-15.82 c -0.57,-0.77 0.5,1.52 1.28,2.75 3.23,5.08 10,11.43 19.44,18.11 z m -6.16,-10.16 c 3.55,2.88 5.14,3.91 12.53,8.12 21.27,12.13 41.41,19 66,22.45 36,5.08 66.42,0.86 92,-12.74 a 69.16,69.16 0 0 0 24.07,-20.63 c 5.46,-7.62 8.09,-14.85 8.45001,-23.180003 0.11,-2.34 0,-4.94 -0.14,-4.68 -0.05,0.07 -0.3,0.88 -0.57001,1.81 -0.27,0.93001 -0.78999,2.41 -1.16999,3.31 a 55.36,55.36 0 0 1 -3.06,6.000003 15.56,15.56 0 0 1 0.38,-2.31 c 0.25,-1.280003 0.57,-3.340003 0.72,-4.580003 a 74.25,74.25 0 0 0 0.51,-8 10.08,10.08 0 0 0 -0.71,1.55 32.11,32.11 0 0 1 -6.57001,9.9 11,11 0 0 1 -2.89999,2.210003 4.53,4.53 0 0 1 0.62,-1.5 50.19,50.19 0 0 0 3.80999,-11.499993 l 0.47,-2.24001 -1,0.91 a 84.08,84.08 0 0 1 -11.63999,8.16 c -1.41,0.87 -4.5,2.89 -6.85001,4.490003 -12.30999,8.36 -22.74,13.92 -33.17,17.65 a 81.66,81.66 0 0 1 -23.06,4.85 c -21.1,1.59 -43.11,-0.88 -65.89,-7.38 a 277.71,277.71 0 0 1 -28.2,-9.79 c -13.27999,-5.23 -19.81,-7.640003 -27.06,-10.000003 -5.61,-1.82 -6.82,-1.91 -6,-0.45 0.91001,1.62 1.83,2.34 8.66001,6.800003 4.07999,2.66 6.45,4.29 6.20999,4.28 -1.13,0 -7.06,-2.26 -12.27999,-4.57 -4.3,-1.910003 -5.59,-2.060003 -5.11,-0.57 0.35,1.07 3,4.93 5.44,8 2.57999,3.22 2.58999,3.08 -0.22001,2.25 a 41.53,41.53 0 0 1 -5.83999,-2.33 8.55,8.55 0 0 0 -1.36001,-0.58 c -0.48,0 0,0.91 1.7,3 a 77.6,77.6 0 0 0 11.26,11.3 z m -5.16,-33.800003 c -0.39,0 -0.53,0.13 -0.37,0.21 l 2.93,1.52 a 160.84,160.84 0 0 0 19.88,9 c 2.87,1.100003 7.94,3.060003 11.26,4.360003 25.43,9.91 46.55,14.91 68.78,16.1 9.88,0.53 23.21,0 30,-1.26 11.94,-2.16 23.63,-7 37.46001,-15.45 12.08,-7.390003 19,-13.000003 21.84,-17.710003 l 1.08,-1.8 -2.54,1.18 c -3.68,1.72 -5.32,2.65 -14.52,8.3 -8.72,5.35 -12.31,7.340003 -18.09,10.000003 -10.59,5 -18.6,7.23 -28.73,8.15 a 156,156 0 0 1 -29.63,0 c -19.55,-1.72 -36.9,-6 -59.56,-14.530003 -7.34,-2.78 -7.91,-3 -12,-4.21 a 96.53,96.53 0 0 0 -18.36,-3.63 85.34,85.34 0 0 0 -9.4,-0.29 z"
     id="path50"
     style="fill:#2d4b1d" />
  <path
     class="j"
     d="m 459.23134,191.77618 a 50.87,50.87 0 0 1 -20.69001,-4.8 c -17.74,-8.46 -30.37,-23.62 -34.42999,-41.33 -1.82001,-7.95 -2,-13.23 -0.58001,-20.47 1.49,-7.7 4.82001,-13.93 10,-18.64 5.65,-5.16 10.45001,-6.839993 22.13,-7.769993 4.27,-0.34 10.63,-2.12 10.38,-2.9 l 2,-0.53 a 57.45,57.45 0 0 0 7.19001,-3.76 c 14.90999,-8.58001 25.51999,-9.62 38.50999,-3.79001 21.89,9.82 30.28,36.400003 20.53,65.090003 -2.42999,7.13 -7.51,16.2 -13.78,21.55 -14.08,10.73 -26.28999,16.1 -41.26999,17.35 z m 54.24,-67.6 c 1.21,-10.35 -9.34001,-26.479993 -20.88,-30.509993 -5.69001,-2 -6.84001,-1.83 -2.94001,0.39 a 50.05,50.05 0 0 1 12.55,10.529993 c 5.37,6.53 10,17.77 9.92,24.27 0,0.16 0.09,0.85 0.24,0.85 0.42,-0.03 1.04,-5.03 1.11001,-5.53 z"
     id="path80"
     style="fill:#549429" />
  <path
     class="k"
     d="m 448.41133,88.526177 c -1.74,0.07 -1.77,-0.26999 -0.39,-4.69999 4,-12.79001 15.5,-23.20001 29.33001,-26.49 7.32,-1.74001 7.66999,-1.59001 6.32,2.72999 -2.29,7.38001 -8.16,15.4 -14.9,20.36001 -2.55,1.88 -5.57,3.28999 -11.28,5.29999 a 75.49,75.49 0 0 1 -9.08001,2.8 z"
     id="path82"
     style="fill:#338000" />
  <path
     class="l"
     d="m 446.00133,95.866177 c -0.87,-2.63 -6.89999,-11.68 -10,-15 a 36.61,36.61 0 0 1 -3.76999,-4.39 36.92,36.92 0 0 1 3.87,-1.92 l 3.74,-1.7 1.47,2.25 c 2.29,3.51 5,11.22 5.67,15.88 0.30999,2.33 0.77999,4.29 1,4.34"
     id="path84"
     style="fill:#502d16" />
  <path
     class="l"
     d="m 233.64133,155.95618 c 2.06,-2.16 7.82,-12.25 9.54,-16.7 a 41.33,41.33 0 0 1 2.43001,-5.63 31.83,31.83 0 0 1 3.43999,2.35 l 3.19,2.35 -1.44,2.48 c -2.25999,3.87 -8.18999,10.38 -12.22,13.41 -2,1.52 -3.63,3 -3.57,3.23"
     id="path90"
     style="fill:#502d16" />
  <ellipse
     class="a"
     cx="403.50137"
     cy="177.18617"
     rx="53.880001"
     ry="51.41"
     id="ellipse92"
     style="fill:#ff7800" />
  <path
     class="b"
     d="m 457.39133,178.98618 a 42.29,42.29 0 0 1 -9.84,28.2 c -3.8,4.87 -10.93,11.5 -16.27,14 -14.65,6.89 -17.4,6.68 -25.29,7.28 15.60001,-9.51 19,-12.38 27.53,-20.73 a 44.11,44.11 0 0 0 8.58001,-13.06 c 5.58,-13.9 1.36,-32.7 -9.36001,-45.49 -4.07,-4.87 -16.25999,-17.42 -33.67999,-16.9 -13.32001,0.39 -22.67,8.21 -27.78,12.48 -12.75,10.67 -16.53,22.92 -17.15,22.58 -0.78,-0.43 4.2,-20.55 21.52,-32.85 a 51,51 0 0 1 17.93,-8.06 c 3.91999,-0.9 18,-3.69 32.76,3.16 19.65999,11.13 30.49,25.31 31.04999,49.39 z"
     id="path94"
     style="fill:#ff6200" />
  <path
     class="c"
     d="m 428.69134,200.48618 c -5.14,13 -19.73,19.79 -31.5,20.06 -24.25,0.57 -45.66,-26.12 -43.51,-48.65 1.6,-16.91 16.38,-30.53 18.87,-29.22 2.2,1.16 -3.17,15.23 -1.41,15.95 1.76,0.72 5.08,-13.87 14.35,-16.9 12.43,-4.07 28.22,15 30.57,17.85 5.71,7.07 19.32,23.92 12.63,40.91 z"
     id="path96"
     style="fill:#ff9109" />
  <path
     class="e"
     d="m 392.49133,134.60618 a 27.74,27.74 0 0 1 2.68,5.47 32.05,32.05 0 0 1 1.93,12 26.64,26.64 0 0 1 -0.84,6 57.72,57.72 0 0 0 0.1,-6 49.52,49.52 0 0 0 -0.58,-6 51.17,51.17 0 0 0 -1.33,-5.83 54.66,54.66 0 0 0 -2,-5.69 z"
     id="path100"
     style="fill:#e85100" />
  <path
     class="e"
     d="m 393.22134,136.51618 a 9.36,9.36 0 0 1 3.12,0.87 11.75,11.75 0 0 1 4.88,4.24 9.27,9.27 0 0 1 1.26999,2.94 26.79,26.79 0 0 0 -1.87,-2.51 20.55,20.55 0 0 0 -4.63,-4 26.58,26.58 0 0 0 -2.76999,-1.52 z"
     id="path102"
     style="fill:#e85100" />
  <path
     class="e"
     d="m 397.19134,132.61618 a 10.68,10.68 0 0 1 3.74,0.06 13.07,13.07 0 0 1 6.61,3.43 10.25,10.25 0 0 1 2.2,3 24.78,24.78 0 0 0 -2.68,-2.44 20.42,20.42 0 0 0 -3,-1.91 19.37,19.37 0 0 0 -3.3,-1.35 23.75,23.75 0 0 0 -3.56,-0.77 z"
     id="path104"
     style="fill:#e85100" />
  <path
     class="e"
     d="m 396.75133,130.41618 a 21.87,21.87 0 0 1 2.8,-0.36 c 0.94,-0.07 1.87,-0.09 2.81,-0.1 0.94,-0.01 1.87,0 2.81,0.1 a 22.11,22.11 0 0 1 2.8,0.36 20.24,20.24 0 0 1 -2.8,0.37 c -0.94,0.07 -1.88,0.1 -2.81,0.1 -0.93,0 -1.87,0 -2.81,-0.1 a 20.24,20.24 0 0 1 -2.8,-0.37 z"
     id="path106"
     style="fill:#e85100" />
  <path
     class="e"
     d="m 383.42133,137.56618 c -1.47,0.93 -2.9,1.86 -4.3,2.85 -1.39999,0.99 -2.73,2 -4,3.14 -1.26999,1.14 -2.53999,2.26 -3.74,3.46 -1.2,1.2 -2.36,2.47 -3.52999,3.76 a 25.45,25.45 0 0 1 3,-4.25 32.26,32.26 0 0 1 7.91999,-6.73 26.44,26.44 0 0 1 4.65,-2.23 z"
     id="path108"
     style="fill:#e85100" />
  <path
     class="e"
     d="m 388.35134,137.21618 c -1.14,1.92 -2.36001,3.79 -3.61001,5.64 -1.25,1.85 -2.52999,3.67 -3.82,5.48 -1.29,1.81 -2.65,3.59 -4,5.36 -1.35,1.77 -2.74,3.52 -4.21,5.22 1.14,-1.92 2.36,-3.79 3.61,-5.63 1.25,-1.84 2.53,-3.67 3.82,-5.48 1.29,-1.81 2.65,-3.6 4,-5.36 1.35,-1.76 2.75,-3.53 4.21001,-5.23 z"
     id="path110"
     style="fill:#e85100" />
  <ellipse
     class="d"
     cx="365.4314"
     cy="171.93617"
     rx="8.9700003"
     ry="12.9"
     id="ellipse112"
     style="fill:#ffb120" />
  <ellipse
     class="a"
     cx="312.63895"
     cy="187.01917"
     rx="55.488865"
     ry="52.32267"
     id="ellipse92-8"
     style="fill:#ff7800;stroke-width:1.02379" />
  <path
     class="m"
     d="m 150.72134,218.67618 a 47.92,47.92 0 0 1 -4.5,-20.6 70.57,70.57 0 0 1 23.32,-52.06 c 6.57,-5.83 11.38,-8.78 18.67,-11.42 q 11.64,-4.23 21.52999,-1.26 c 7.21,2.18 10.84,5.47 16.74001,15.15 2.16,3.55 6.55,8.14 7.16,7.5 l 1.37,1.49 a 49.38,49.38 0 0 0 6.58,4.25 c 14.37,8.43 19.91,17.12 20.14,31.56 0.38,24.32 -20.57,45.81 -51.29001,52.62 -7.64,1.69 -18.21999,2.1 -25.87,-0.51 -16,-6.56 -26.23,-14.33 -33.84999,-26.72 z m 85.89,11.21 c 10.08999,-4.47 20.43999,-22.27 19.18,-34.48 -0.62,-6 -1.26,-6.94 -1.63,-2.35 a 54.89,54.89 0 0 1 -4.31,16.55 c -3.72001,8.17 -12.12,18.17 -18.15,21.6 -0.15,0.08 -0.75,0.54 -0.68,0.67 0.18,0.34 5.06,-1.79 5.59,-2.02 z"
     id="path86"
     style="fill:#447821" />
  <path
     class="c"
     d="m 306.43722,225.28261 c -14.41804,0.93634 -27.10591,-9.55669 -32.53329,-20.27364 -11.19457,-22.06487 4.25333,-53.37095 26.16876,-61.18728 16.47775,-5.86227 35.64345,1.81159 35.50957,4.67148 -0.11329,2.5342 -15.58178,3.7148 -15.44791,5.63835 0.13389,1.92355 15.14925,-1.35361 22.04931,5.86225 9.26874,9.66866 -1.52419,32.46631 -3.18227,35.88597 -4.06794,8.33539 -13.77952,28.18157 -32.54358,29.40287 z"
     id="path10-9"
     style="fill:#ff9109;stroke-width:1.02379" />
  <path
     class="e"
     d="m 351.86435,163.34218 a 28.444737,28.110331 0 0 1 -3.90316,4.84451 32.883434,32.496845 0 0 1 -10.2986,6.98178 28.331452,27.998378 0 0 1 -5.9732,1.8523 c 1.93614,-0.76331 3.82079,-1.58769 5.64364,-2.52402 a 50.782404,50.185388 0 0 0 5.28318,-3.1245 49.093434,48.516273 0 0 0 4.84034,-3.75551 56.642308,55.976401 0 0 0 4.4387,-4.27456 z"
     id="path14-3"
     style="fill:#e85100;stroke-width:1.02379" />
  <path
     class="e"
     d="m 350.41225,164.84846 a 9.6600882,9.5465207 0 0 1 0.55612,3.24663 11.750704,11.612559 0 0 1 -0.45313,3.29752 11.966975,11.826287 0 0 1 -1.33882,3.05326 9.8557616,9.7398938 0 0 1 -2.18331,2.45277 30.226396,29.871043 0 0 0 1.5139,-2.81917 21.369598,21.11837 0 0 0 1.08135,-2.9413 19.66003,19.4289 0 0 0 0.61792,-3.05326 26.385017,26.074826 0 0 0 0.20597,-3.20592 z"
     id="path16-6"
     style="fill:#e85100;stroke-width:1.02379" />
  <path
     class="e"
     d="m 355.78813,166.80254 a 10.988608,10.859422 0 0 1 1.58597,3.46036 13.388182,13.230786 0 0 1 -0.27806,7.58226 10.937115,10.808534 0 0 1 -1.81255,3.31787 25.128587,24.833167 0 0 0 1.09164,-3.53161 20.525112,20.283813 0 0 0 0.45315,-3.59266 19.845405,19.612095 0 0 0 -0.18538,-3.6232 24.778436,24.487131 0 0 0 -0.85477,-3.61302 z"
     id="path18-1"
     style="fill:#e85100;stroke-width:1.02379" />
  <path
     class="e"
     d="m 357.64187,165.43875 a 25.334559,25.036718 0 0 1 1.56538,2.42225 c 0.48405,0.83456 0.91658,1.6793 1.32853,2.54439 0.41194,0.86509 0.80329,1.73018 1.14315,2.6258 a 22.255278,21.993637 0 0 1 0.89597,2.73776 22.553938,22.288785 0 0 1 -1.57568,-2.42226 c -0.48403,-0.83456 -0.91657,-1.67929 -1.32852,-2.5342 -0.41194,-0.85491 -0.79299,-1.74036 -1.14315,-2.63598 a 22.203785,21.942749 0 0 1 -0.88568,-2.73776 z"
     id="path20-2"
     style="fill:#e85100;stroke-width:1.02379" />
  <path
     class="f"
     d="m 388.18133,139.82618 a 11.59,11.59 0 0 1 -6.42,-2.35 4.84,4.84 0 0 1 -1.82,-2.59 3.16,3.16 0 0 1 0,-0.92 5.33,5.33 0 0 1 2.38,-2.92 17.5,17.5 0 0 1 5.84,-2.51 16.41,16.41 0 0 1 7.91,0.1 3.42,3.42 0 0 1 2.53,2.08 c 0.52,1.79 -0.94,4.62 -3.45,6.69 a 10.43,10.43 0 0 1 -5.5,2.39 c -0.3,0 -1.23,0 -1.48,0 z"
     id="path114"
     style="fill:#006322" />
  <path
     class="g"
     d="m 388.33134,139.33618 a 10.71,10.71 0 0 1 -5.88,-2.15 4.37,4.37 0 0 1 -1.66,-2.38 2.57,2.57 0 0 1 0,-0.83 4.84,4.84 0 0 1 2.17,-2.68 16.14,16.14 0 0 1 5.35,-2.3 15.08,15.08 0 0 1 7.25,0.09 3.11,3.11 0 0 1 2.30999,1.91 c 0.49001,1.64 -0.85,4.23 -3.14999,6.12 a 9.5,9.5 0 0 1 -5,2.19 12.56,12.56 0 0 1 -1.36,0 z"
     id="path116"
     style="fill:#009047" />
  <path
     class="f"
     d="m 395.75133,132.10618 c 0.23001,1.63 -2.40999,3.29 -3.89999,3.94 -3.45001,1.54 -8.28,1.08 -8.88,-0.78 -0.60001,-1.86 2.58,-5.08 6.08,-5.69 2.86,-0.5 6.45,0.75 6.69999,2.53 z"
     id="path118"
     style="fill:#006322" />
  <ellipse
     class="a"
     cx="490.57217"
     cy="191.18863"
     rx="53.880001"
     ry="51.41"
     id="ellipse92-4"
     style="fill:#ff7800" />
  <path
     class="b"
     d="m 544.46212,192.98868 a 42.29,42.29 0 0 1 -9.84,28.2 c -3.8,4.87 -10.93,11.5 -16.27,14 -14.65,6.89 -17.4,6.68 -25.29,7.28 15.60001,-9.51 19,-12.38 27.53,-20.73 a 44.11,44.11 0 0 0 8.58001,-13.06 c 5.58,-13.9 1.36,-32.7 -9.36001,-45.49 -4.07,-4.87 -16.25999,-17.42 -33.67999,-16.9 -13.32001,0.39 -22.67,8.21 -27.78,12.48 -12.75,10.67 -16.53,22.92 -17.15,22.58 -0.78,-0.43 4.2,-20.55 21.52,-32.85 a 51,51 0 0 1 17.93,-8.06 c 3.91999,-0.9 18,-3.69 32.76,3.16 19.65999,11.13 30.49,25.31 31.04999,49.39 z"
     id="path94-5"
     style="fill:#ff6200" />
  <path
     class="e"
     d="m 525.2345,161.97696 a 27.74,27.74 0 0 1 -2.46259,5.57126 32.05,32.05 0 0 1 -7.94369,9.19906 26.64,26.64 0 0 1 -5.13332,3.21786 57.72,57.72 0 0 0 4.65715,-3.78431 49.52,49.52 0 0 0 4.21958,-4.30482 51.17,51.17 0 0 0 3.60685,-4.76953 54.66,54.66 0 0 0 3.06856,-5.19231 z"
     id="path100-36"
     style="fill:#e85100" />
  <path
     class="e"
     d="m 524.24221,163.7648 a 9.36,9.36 0 0 1 1.34168,2.94808 11.75,11.75 0 0 1 -0.10542,6.46381 9.27,9.27 0 0 1 -1.43326,2.86395 26.79,26.79 0 0 0 0.71802,-3.04654 20.55,20.55 0 0 0 0.0826,-6.11801 26.58,26.58 0 0 0 -0.61891,-3.09842 z"
     id="path102-1"
     style="fill:#e85100" />
  <path
     class="e"
     d="m 529.78212,164.29415 a 10.68,10.68 0 0 1 2.36067,2.90145 13.07,13.07 0 0 1 1.62783,7.26686 10.25,10.25 0 0 1 -0.88076,3.61445 24.78,24.78 0 0 0 0.14323,-3.62153 20.42,20.42 0 0 0 -0.46839,-3.52544 19.37,19.37 0 0 0 -1.09009,-3.39473 23.75,23.75 0 0 0 -1.70136,-3.22054 z"
     id="path104-0"
     style="fill:#e85100" />
  <path
     class="e"
     d="m 531.18301,162.54169 a 21.87,21.87 0 0 1 2.0773,1.91165 c 0.65845,0.6745 1.27219,1.37351 1.88472,2.08662 0.61252,0.7131 1.2033,1.43142 1.73162,2.21531 a 22.11,22.11 0 0 1 1.52616,2.37495 20.24,20.24 0 0 1 -2.08495,-1.90522 c -0.65845,-0.67449 -1.28629,-1.37473 -1.88472,-2.08661 -0.59843,-0.71188 -1.2033,-1.43142 -1.73162,-2.21531 a 20.24,20.24 0 0 1 -1.51851,-2.38139 z"
     id="path106-6"
     style="fill:#e85100" />
  <path
     class="e"
     d="m 517.1324,156.93887 c -1.65779,-0.52681 -3.28985,-1.02299 -4.94853,-1.45761 -1.65867,-0.4346 -3.28762,-0.80277 -4.97746,-1.04135 -1.68984,-0.23857 -3.36438,-0.49002 -5.05512,-0.63642 -1.69073,-0.14639 -3.4093,-0.21712 -5.14961,-0.28262 a 25.45,25.45 0 0 1 5.18366,-0.43837 32.26,32.26 0 0 1 10.24791,1.7319 26.44,26.44 0 0 1 4.69915,2.12447 z"
     id="path108-3"
     style="fill:#e85100" />
  <path
     class="e"
     d="m 520.57265,160.48741 c -2.20326,0.36284 -4.41972,0.63226 -6.64018,0.86586 -2.22046,0.23359 -4.43725,0.42493 -6.65284,0.60216 -2.21557,0.17724 -4.45323,0.28159 -6.6768,0.38716 -2.22357,0.10557 -4.45757,0.16766 -6.70477,0.13633 2.20326,-0.36284 4.41972,-0.63227 6.63253,-0.85943 2.2128,-0.22716 4.43725,-0.42493 6.65283,-0.60217 2.21558,-0.17723 4.46089,-0.28802 6.6768,-0.38716 2.21592,-0.0991 4.47166,-0.16643 6.71243,-0.14275 z"
     id="path110-2"
     style="fill:#e85100" />
  <ellipse
     class="d"
     cx="452.50211"
     cy="185.93863"
     rx="8.9700003"
     ry="12.9"
     id="ellipse112-0"
     style="fill:#ffb120" />
  <path
     class="f"
     d="m 529.2459,162.86369 c -1.09971,1.22493 -4.06916,0.27227 -5.52549,-0.45001 -3.39881,-1.64992 -6.15468,-5.64312 -5.117,-7.29926 1.03768,-1.65615 5.54874,-1.29395 8.26784,0.99266 2.22307,1.8675 3.57632,5.41987 2.37465,6.75661 z"
     id="path118-6"
     style="fill:#006322" />
  <path
     class="e"
     d="m 351.23794,163.16118 a 28.56832,28.232461 0 0 1 -4.16328,4.63732 33.007017,32.618976 0 0 1 -10.67781,6.45488 27.435474,27.112933 0 0 1 -6.04481,1.52802 59.443527,58.744688 0 0 0 5.75541,-2.22474 50.998674,50.399116 0 0 0 5.48947,-2.86496 52.697943,52.078408 0 0 0 5.03421,-3.5054 56.292155,55.630366 0 0 0 4.63881,-4.08211 z"
     id="path100-3"
     style="fill:#e85100;stroke-width:1.02379" />
  <path
     class="e"
     d="m 345.12907,156.27898 c -1.5139,-0.94652 -3.01749,-1.86249 -4.55198,-2.71741 -1.53449,-0.85491 -3.08959,-1.63858 -4.69617,-2.34083 -1.60658,-0.70225 -3.22346,-1.36378 -4.87124,-1.9439 -1.64777,-0.58012 -3.33675,-1.09918 -5.04631,-1.61823 a 27.806224,27.479324 0 0 1 5.26259,0.87527 34.943154,34.532351 0 0 1 5.03601,1.79124 32.811344,32.425603 0 0 1 4.70646,2.5851 26.848454,26.532814 0 0 1 4.16064,3.36876 z"
     id="path22-9"
     style="fill:#e85100;stroke-width:1.02379" />
  <path
     class="e"
     d="m 349.70375,164.58666 a 9.639491,9.5261657 0 0 1 0.39129,3.27378 12.100857,11.958594 0 0 1 -2.13104,6.23328 9.5468036,9.434568 0 0 1 -2.30433,2.33197 27.589953,27.265597 0 0 0 1.66,-2.7307 21.163626,20.914819 0 0 0 2.00017,-5.90515 27.373682,27.051868 0 0 0 0.36486,-3.19544 z"
     id="path102-5"
     style="fill:#e85100;stroke-width:1.02379" />
  <path
     class="e"
     d="m 347.61102,160.66549 c -2.28628,-0.21372 -4.56228,-0.52924 -6.82796,-0.87527 -2.26569,-0.34603 -4.53139,-0.73278 -6.78678,-1.12971 -2.2554,-0.39691 -4.51079,-0.87526 -6.74558,-1.3536 -2.23481,-0.47834 -4.4902,-1.01776 -6.72499,-1.59788 2.29658,0.21374 4.57258,0.51906 6.83826,0.86509 2.2657,0.34604 4.53139,0.73279 6.78679,1.13989 2.25539,0.4071 4.51078,0.87527 6.74558,1.34343 2.2348,0.46817 4.50049,1.01775 6.71468,1.60805 z"
     id="path24-3"
     style="fill:#e85100;stroke-width:1.02379" />
  <path
     class="e"
     d="m 354.97192,166.81722 a 10.998906,10.869599 0 0 1 1.40548,3.54445 13.460272,13.302029 0 0 1 -0.68279,7.54905 10.556067,10.431966 0 0 1 -1.99778,3.23078 25.519934,25.219913 0 0 0 1.27654,-3.46628 21.029744,20.782511 0 0 0 0.64645,-3.56272 19.948391,19.71387 0 0 0 -0.004,-3.62875 24.459179,24.171627 0 0 0 -0.65865,-3.64939 z"
     id="path104-6"
     style="fill:#e85100;stroke-width:1.02379" />
  <path
     class="e"
     d="m 356.89581,165.55268 a 22.523042,22.258253 0 0 1 1.43801,2.49711 c 0.4343,0.85798 0.81706,1.72585 1.1942,2.60702 0.37714,0.88115 0.73132,1.76063 1.00367,2.68431 a 22.770207,22.502513 0 0 1 0.75203,2.77537 20.844369,20.599315 0 0 1 -1.44752,-2.49325 c -0.4343,-0.85797 -0.8305,-1.73139 -1.19421,-2.60701 -0.3637,-0.87561 -0.73131,-1.76063 -1.00366,-2.68431 a 20.844369,20.599315 0 0 1 -0.74252,-2.77924 z"
     id="path106-2"
     style="fill:#e85100;stroke-width:1.02379" />
  <path
     class="f"
     d="m 345.10847,161.64254 a 11.92578,11.785577 0 0 1 -0.62822,-6.93091 4.9227315,4.8648582 0 0 1 1.61688,-2.79881 3.0895804,3.0532583 0 0 1 0.85479,-0.38675 5.4788559,5.4144447 0 0 1 3.76929,0.91598 17.929865,17.719076 0 0 1 4.89183,4.28474 17.105978,16.904873 0 0 1 3.39854,7.31764 3.5324203,3.4908919 0 0 1 -0.83419,3.23645 c -1.43149,1.26202 -4.70645,1.15006 -7.73424,-0.26461 a 10.772337,10.645694 0 0 1 -4.65497,-4.07101 c -0.15448,-0.25444 -0.58703,-1.10935 -0.67971,-1.34344 z"
     id="path28-9"
     style="fill:#006322;stroke-width:1.02379" />
  <path
     class="e"
     d="m 344.87082,155.7656 c -1.46092,-1.0246 -2.90619,-2.01154 -4.39689,-2.94704 -1.49069,-0.9355 -2.97308,-1.79738 -4.55584,-2.55251 -1.58276,-0.75514 -3.14649,-1.51801 -4.75904,-2.18405 -1.61255,-0.66605 -3.27616,-1.26738 -4.96271,-1.87038 a 26.20994,25.901807 0 0 1 5.22228,1.182 33.223288,32.832703 0 0 1 9.50912,4.85579 27.229502,26.909383 0 0 1 3.94308,3.51619 z"
     id="path108-9"
     style="fill:#e85100;stroke-width:1.02379" />
  <path
     class="g"
     d="m 345.6337,161.54076 a 10.885622,10.757647 0 0 1 -0.57673,-6.35077 4.5725791,4.5188222 0 0 1 1.4727,-2.56474 3.4603301,3.4196492 0 0 1 0.79301,-0.35622 5.0360161,4.9768109 0 0 1 3.45002,0.84473 16.477762,16.284044 0 0 1 4.47989,3.92853 15.447902,15.266291 0 0 1 3.08959,6.69681 3.1822678,3.144856 0 0 1 -0.76209,2.96166 c -1.30794,1.16024 -4.31512,1.01775 -7.08544,-0.24425 a 9.7527756,9.6381185 0 0 1 -4.25333,-3.68427 c -0.14417,-0.23408 -0.53553,-1.01775 -0.62821,-1.23148 z"
     id="path30-4"
     style="fill:#009047;stroke-width:1.02379" />
  <path
     class="e"
     d="m 347.13229,160.27202 c -2.27505,-0.33128 -4.53374,-0.75722 -6.78512,-1.21913 -2.25137,-0.4619 -4.48589,-0.96364 -6.71482,-1.47867 -2.2289,-0.51504 -4.4566,-1.10756 -6.67087,-1.69453 -2.21427,-0.58698 -4.42511,-1.21934 -6.61963,-1.94635 2.27505,0.33128 4.53375,0.75721 6.7756,1.22299 2.24184,0.46576 4.4859,0.96365 6.7148,1.47867 2.22892,0.51502 4.46614,1.10369 6.67088,1.69452 2.20474,0.59085 4.43856,1.2249 6.62916,1.9425 z"
     id="path110-1"
     style="fill:#e85100;stroke-width:1.02379" />
  <path
     class="f"
     d="m 355.63364,165.25556 c -1.4212,0.91597 -4.11944,-0.79385 -5.38616,-1.87267 -2.94541,-2.51385 -4.64466,-7.12427 -3.18227,-8.51859 1.46239,-1.39432 5.87019,0.16284 7.97112,3.1245 1.73017,2.41207 2.18331,6.25918 0.59731,7.26676 z"
     id="path32-7"
     style="fill:#006322;stroke-width:1.02379" />
  <path
     class="f"
     d="m 344.57922,161.12067 a 11.936079,11.795754 0 0 1 -0.27185,-6.95277 4.9845231,4.9259233 0 0 1 1.75577,-2.71453 3.2543581,3.2160986 0 0 1 0.8765,-0.35558 5.4891545,5.4246222 0 0 1 3.7127,1.11229 18.022553,17.810673 0 0 1 4.67523,4.52839 16.900005,16.701323 0 0 1 2.99816,7.48604 3.5221217,3.4807144 0 0 1 -0.99222,3.18592 c -1.50201,1.18139 -4.76918,0.90052 -7.7229,-0.66268 a 10.741441,10.615161 0 0 1 -4.42793,-4.25465 c -0.11732,-0.28244 -0.48103,-1.15806 -0.5788,-1.39343 z"
     id="path114-7"
     style="fill:#006322;stroke-width:1.02379" />
  <path
     class="g"
     d="m 345.10471,161.07253 a 11.029802,10.900132 0 0 1 -0.2512,-6.36705 4.5004888,4.4475795 0 0 1 1.61826,-2.48275 2.6467406,2.6156245 0 0 1 0.79076,-0.32078 4.9845231,4.9259233 0 0 1 3.40193,1.00733 16.621943,16.426529 0 0 1 4.28351,4.1482 15.530291,15.347712 0 0 1 2.74959,6.86078 3.202865,3.1652111 0 0 1 -0.91631,2.91307 c -1.37082,1.09519 -4.3624,0.83453 -7.06252,-0.6005 a 9.7836714,9.6686511 0 0 1 -4.04184,-3.86118 12.935043,12.782975 0 0 1 -0.53187,-1.28047 z"
     id="path116-0"
     style="fill:#009047;stroke-width:1.02379" />
  <path
     class="f"
     d="m 354.89465,165.26432 c -1.46297,0.84651 -4.07693,-0.99753 -5.2789,-2.14917 -2.81642,-2.65306 -4.26708,-7.37836 -2.72967,-8.66212 1.5374,-1.28378 5.84879,0.46578 7.79872,3.52534 1.59484,2.49949 1.80792,6.36263 0.20985,7.28595 z"
     id="path118-9"
     style="fill:#006322;stroke-width:1.02379" />
  <path
     class="k"
     d="m 241.46133,154.11618 c -0.82,-1.47 -0.51,-1.68 4.17,-2.84 a 37.7,37.7 0 0 1 37.15,11.4 c 4.77,5.46 4.78,5.84 0.21,7 a 42.38,42.38 0 0 1 -25.25,-2.12 c -2.84,-1.23 -5.45,-3.1 -9.77,-7 a 64.35,64.35 0 0 1 -6.51,-6.43 z"
     id="path88"
     style="fill:#338000" />
</svg>
