<?xml version="1.0" encoding="UTF-8" standalone="no"?>
<svg
   id="Layer_5"
   data-name="Layer 5"
   viewBox="0 0 142.09029 99.843039"
   version="1.1"
   sodipodi:docname="part_of_apple.svg"
   width="142.0903"
   height="99.84304"
   inkscape:version="1.2.2 (b0a8486541, 2022-12-01)"
   xmlns:inkscape="http://www.inkscape.org/namespaces/inkscape"
   xmlns:sodipodi="http://sodipodi.sourceforge.net/DTD/sodipodi-0.dtd"
   xmlns="http://www.w3.org/2000/svg"
   xmlns:svg="http://www.w3.org/2000/svg">
  <sodipodi:namedview
     id="namedview203"
     pagecolor="#ffffff"
     bordercolor="#000000"
     borderopacity="0.25"
     inkscape:showpageshadow="2"
     inkscape:pageopacity="0.0"
     inkscape:pagecheckerboard="0"
     inkscape:deskcolor="#d1d1d1"
     showgrid="false"
     inkscape:zoom="2.0413625"
     inkscape:cx="-67.356974"
     inkscape:cy="130.795"
     inkscape:window-width="1920"
     inkscape:window-height="1011"
     inkscape:window-x="0"
     inkscape:window-y="32"
     inkscape:window-maximized="1"
     inkscape:current-layer="Layer_5" />
  <defs
     id="defs4">
    <style
       id="style2">.cls-1{fill:#d7e1e2;}.cls-2{fill:#fbb040;}.cls-3{fill:#e2e8e7;}.cls-4{fill:#bababa;}.cls-4,.cls-5{opacity:0.11;}.cls-5,.cls-6{fill:#fff;}.cls-7{fill:#d1d3d4;}.cls-8{fill:#fdf9cc;}.cls-9{fill:#a97c50;}.cls-10,.cls-20,.cls-22,.cls-23,.cls-29,.cls-30{fill:#fdeb01;}.cls-10{stroke:#a97c50;stroke-width:0.56px;}.cls-10,.cls-11,.cls-12,.cls-14,.cls-22,.cls-23,.cls-26,.cls-27,.cls-28,.cls-29,.cls-30,.cls-31,.cls-32,.cls-33{stroke-miterlimit:10;}.cls-11,.cls-19{fill:#f8e877;}.cls-11{stroke:#c49a6c;stroke-width:0.61px;}.cls-12,.cls-27,.cls-32{fill:#cdbb2c;}.cls-12,.cls-22,.cls-23,.cls-27,.cls-29,.cls-30,.cls-32{stroke:#fdeb01;}.cls-12,.cls-14{stroke-width:0.61px;}.cls-13{fill:#9b8d3a;}.cls-14{fill:#4c2d1c;}.cls-14,.cls-28,.cls-33{stroke:#3c2415;}.cls-15{fill:#ebc569;}.cls-16{fill:#ffe2a1;}.cls-17{fill:#894e21;}.cls-18{fill:#603913;}.cls-21{fill:#f26522;}.cls-22{stroke-width:0.58px;}.cls-23{stroke-width:0.46px;}.cls-24{fill:#895931;}.cls-25,.cls-28,.cls-33{fill:#3c2415;}.cls-26,.cls-31{fill:none;stroke:#000;}.cls-26{stroke-width:0.43px;}.cls-27,.cls-28{stroke-width:0.57px;}.cls-29{stroke-width:0.61px;}.cls-30{stroke-width:0.49px;}.cls-31{stroke-width:0.45px;}.cls-32,.cls-33{stroke-width:0.6px;}</style>
  </defs>
  <path
     class="cls-8"
     d="m 25.900295,57.752194 a 30.15,30.15 0 0 1 8.9,-5.129995 34.82,34.82 0 0 1 12.37,-1.81 101.92,101.92 0 0 0 11.21,-8.88 94.5,94.5 0 0 1 10.32,-8.65 c 6.31,-4.4 13.24,-7.92 20.21,-11.42 12.360005,-6.21 25.530005,-10 39.490005,-12.7899996 a 23.66,23.66 0 0 1 9.43,0.22 78.52,78.52 0 0 0 3.76,-8.87999997 c -7.24,0.11 -14.88,0.42 -22.85,0.99999997 -7.97,0.58 -15.68,1.35 -22.850005,2.27 a 214.23,214.23 0 0 0 -41.23,11.7899996 c -10.38,4.18 -17.88,7.93 -23.26,10.7 a 285.09,285.09 0 0 0 -30.42999991,18.18 c 9.70999991,4.27 13.49999991,5.71 14.70999991,6 0.34,0.08 1.93,0.75 4,1.59 v 0 c 2.41,1.45 5.65,3.61 6.22,5.809995 z"
     id="path122"
     style="fill:#fdf9cc" />
  <path
     class="cls-9"
     d="m 25.980295,58.062204 0.11,-0.880005 c 0,-0.24 -0.15,-0.27 0,-0.35 a 30.38,30.38 0 0 1 9.61,-5.11 36.11,36.11 0 0 1 11.47,-1.47 l -0.32,0.09 c 7.19,-4.61 12.94,-10.94 19.71,-16.14 6.77,-5.2 14.58,-9 22.18,-12.78 11.480005,-5.73 23.840005,-9.45 36.360005,-12.0699996 l 3.13,-0.64 a 24.18,24.18 0 0 1 9.66,0.22 l -0.4,0.19 a 78.71,78.71 0 0 0 3.77,-8.81999997 l 0.33,0.46 a 386.79,386.79 0 0 0 -46.630005,3.29999997 222.28,222.28 0 0 0 -61.72,21.2699996 318.26,318.26 0 0 0 -32.24999991,18.92 c 4.63000001,2 9.21999991,4.13 13.99999991,5.79 a 48.55,48.55 0 0 1 4.72,1.8 c 2.38,1.63 5.45,3.21 6.29,6.179995 z m 0.05,0.15999 a 7.13,7.13 0 0 0 -2.78,-3.839995 34.53,34.53 0 0 0 -3.58,-2.47 44.61,44.61 0 0 0 -4.71,-1.78 c -4.78,-1.64 -9.3699999,-3.75 -13.99999991,-5.74 h -0.09 l 0.08,-0.05 C 30.550295,24.252199 63.890295,8.2321994 99.530295,2.9921994 a 412.14,412.14 0 0 1 42.560005,-2.92999997 82.25,82.25 0 0 1 -4.06,9.63999997 26.14,26.14 0 0 0 -12.76,0.4099996 c -12.44,2.66 -24.73,6.4 -36.110005,12.14 -7.58,3.84 -15.2,7.69 -22,12.77 -6.8,5.08 -12.52,11.61 -19.71,16.26 l -0.15,0.09 h -0.13 a 30.49,30.49 0 0 0 -19.76,6 l -0.56,0.419995 a 2.19,2.19 0 0 1 -0.8,0.44 z"
     id="path124"
     style="fill:#a97c50" />
  <path
     class="cls-10"
     d="m 103.5003,84.532197 a 60.73,60.73 0 0 0 13.07,-10.84999 64.73,64.73 0 0 0 7.14,-9.770013 c 8.39,-13.259995 12.58,-19.899995 14.86,-28.309995 1.8,-6.62 2.16,-12.34 2.68,-20.54 0.52,-8.1999996 0.38,-14.62999957 0.34,-14.62999957 -0.04,0 0.19,9.90999957 -1,23.22999957 -1.54,17.83 -4.2,25.7 -6.69,31.3 a 78.39,78.39 0 0 1 -4.09,7.850005 c -2.81,4.719993 -12.16,20.000003 -30.360005,28.869993 a 81.72,81.72 0 0 1 -7.68,3.22 75.63,75.63 0 0 1 -19.84,4.63 80.73,80.73 0 0 1 -43.76,-11.47 l -0.52,-0.31 c -0.59,-0.36 -1.45,-0.9 -2.51,-1.61 A 65.37,65.37 0 0 1 5.0002951,63.972194 c -0.25,-0.45 -0.72,-1.35 -1.23,-2.5 A 44.48,44.48 0 0 1 0.28029509,44.242199 c 3.83000001,0.5 7.10000001,0.71 9.65000001,0.8 a 98.8,98.8 0 0 0 12.6899999,-0.46 l 1.56,-0.22 c 0,0 3.2,-0.43 15.58,-2.92 0,0 -0.09,25.579998 14.81,39.999998 0.76,0.73 11.33,10.67 24.76,11 v 0 z"
     id="path126"
     style="fill:#fdeb01;stroke:#a97c50;stroke-width:0.56px;stroke-miterlimit:10" />
  <path
     class="cls-11"
     d="m 39.440295,42.862199 v 0 c 3.6,-1.74 8.74,-4.21 14.93,-7.12 5.29,-2.48 20.62,-9.57 29.62,-13.52 C 112.4303,9.7221994 141.5903,0.41219943 141.5903,0.41219943 v 0 c 0,0 0.84,20.35999957 -4.37,39.39999957 -1.65,6 -6.1,19.889995 -15.91,31.579998 a 77.79,77.79 0 0 1 -16,14.41 l -5.14,3.15 c 0,0 -14.860005,7 -28.130005,4.47 -9.58,-1.85 -16.1,-8.29 -20.17,-12.31 -2.78,-2.74 -9.39,-9.43 -12.19,-20.000003 a 37.29,37.29 0 0 1 -0.24,-18.249995 z"
     id="path128"
     style="fill:#f8e877;stroke:#c49a6c;stroke-width:0.61px;stroke-miterlimit:10" />
  <path
     class="cls-12"
     d="m 38.340295,66.892207 v 0 c 0,0 -0.7,-3.910003 -0.77,-4.320003 -0.21,-1.25 -1.87,-10.760005 2.69,-17.000005 3.35,-4.55 8.69,-5.5 8.45,-6 -0.24,-0.5 -6.5,2 -16.67,4.28 a 80,80 0 0 1 -10.58,1.77 c -2.39,0.21 -7.17,0.48 -7.17,0.48 v 0 c 0,0 1.74,3.21 2.55,4.56 a 42.23,42.23 0 0 0 13.73,12.830005 64.77,64.77 0 0 0 7.77,3.400003 z"
     id="path130"
     style="fill:#cdbb2c;stroke:#fdeb01;stroke-width:0.61px;stroke-miterlimit:10" />
  <path
     class="cls-13"
     d="m 32.610295,59.282194 a 32.43,32.43 0 0 1 2.33,-5.179995 c 5.11,-9.18 13.67,-14.12 21.28,-18.4 4.95,-2.78 9.23,-4.66 9.19,-4.72 -0.04,-0.06 -27.79,11.11 -32.51,13 a 41,41 0 0 1 -8.9,2.31 v 0 l -4.74,1 6.3,8.47 z"
     id="path132"
     style="fill:#9b8d3a" />
  <path
     class="cls-14"
     d="m 28.330295,47.832199 c 1.86,-0.92 4.48,-2.19 7.63,-3.66 2.1,-1 15,-7 15.35,-6.45 0.35,0.55 -7.9,3.93 -16.24,12 a 63.81,63.81 0 0 0 -5.78,6.41 12.89,12.89 0 0 0 -1.84,-2.57 18.85,18.85 0 0 0 -1.53,-1.45 c -0.66,-0.59 -1.5,-1.29 -2.5,-2.07 z"
     id="path134"
     style="fill:#4c2d1c;stroke:#3c2415;stroke-width:0.61px;stroke-miterlimit:10" />
  <path
     class="cls-15"
     d="m 111.9403,10.942199 c -0.15,11.63 -2.58,17.57 -4.79,20.8 a 1.86,1.86 0 0 1 -0.17,0.24 c -2.57,3.69 -5.91,5.15 -12.470005,7.91 -9.36,3.94 -14.74,4.21 -18.41,3.53 a 19.69,19.69 0 0 1 -3.18,-0.9 34.66,34.66 0 0 1 -14,-9"
     id="path136"
     style="fill:#ebc569" />
  <path
     class="cls-16"
     d="m 58.960295,33.482199 c -0.25,-0.31 1.28,-2.32 4.36,-6.31 a 61.41,61.41 0 0 1 5.34,-6.5 25.77,25.77 0 0 1 9.43,-5.25 c 11.83,-4.26 31.700005,-4.46 33.850005,-4.48 a 232.69,232.69 0 0 0 -27.560005,10.88 c -13.15,6.18 -24.38,12.98 -25.42,11.66 z"
     id="path138"
     style="fill:#ffe2a1" />
  <path
     class="cls-17"
     d="m 82.500295,17.062199 c -1,0.41 -1.12,0.68 -4.18,3.16 -1.36,1.1 -2.74,2.18 -4.1,3.27 v 0 c 6.1,-1.33 7.33,-1.9 7.33,-1.9 3.19,-1.47 5.83,-4.19 5.35,-5 -0.38,-0.64 -2.73,-0.25 -4.4,0.47 z"
     id="path140"
     style="fill:#894e21" />
  <path
     class="cls-18"
     d="m 90.360295,27.862199 c -0.9,0.61 -1.26,0.62 -5.31,2 -1.8,0.61 -3.6,1.25 -5.4,1.87 4.53,-4.48 5.74,-5.24 5.74,-5.24 3.13,-2 7.2,-2.89 7.75,-2.09 0.42,0.66 -1.21,2.4 -2.78,3.46 z"
     id="path142"
     style="fill:#603913" />
</svg>
