<?xml version="1.0" encoding="UTF-8" standalone="no"?>
<svg
   viewBox="0 0 1093.5504 717.70008"
   version="1.1"
   id="svg250"
   sodipodi:docname="mardatar.svg"
   width="1093.5504"
   height="717.70007"
   inkscape:version="1.1.1 (3bf5ae0d25, 2021-09-20)"
   xmlns:inkscape="http://www.inkscape.org/namespaces/inkscape"
   xmlns:sodipodi="http://sodipodi.sourceforge.net/DTD/sodipodi-0.dtd"
   xmlns="http://www.w3.org/2000/svg"
   xmlns:svg="http://www.w3.org/2000/svg"
   xmlns:rdf="http://www.w3.org/1999/02/22-rdf-syntax-ns#"
   xmlns:cc="http://creativecommons.org/ns#"
   xmlns:dc="http://purl.org/dc/elements/1.1/">
  <sodipodi:namedview
     id="namedview252"
     pagecolor="#ffffff"
     bordercolor="#666666"
     borderopacity="1.0"
     inkscape:pageshadow="2"
     inkscape:pageopacity="0.0"
     inkscape:pagecheckerboard="0"
     showgrid="false"
     fit-margin-top="0"
     fit-margin-left="0"
     fit-margin-right="0"
     fit-margin-bottom="0"
     inkscape:zoom="0.31599533"
     inkscape:cx="-314.87807"
     inkscape:cy="564.88177"
     inkscape:window-width="1920"
     inkscape:window-height="1009"
     inkscape:window-x="-8"
     inkscape:window-y="-8"
     inkscape:window-maximized="1"
     inkscape:current-layer="svg250" />
  <defs
     id="defs4">
    <style
       id="style2">.a{fill:#c69c6d;}.b,.s{fill:#998675;}.b,.c,.s,.t{stroke:#bf536a;}.b,.c,.n,.s,.t{stroke-miterlimit:10;}.b{stroke-width:5.42px;}.c,.t{fill:#666;}.c{stroke-width:4.51px;}.d{fill:#201600;}.e{fill:#29abe2;}.f{fill:#fcee21;}.g{fill:lime;}.h{fill:#5ba307;}.i{fill:#c1272d;}.j{fill:#fff;}.k{fill:#3eb4f0;}.l{fill:#8cc63f;}.m{fill:#73b77a;}.n{fill:#f5ec54;stroke:#fff;stroke-width:12.42px;}.o{fill:#ffff17;}.p{fill:#fff243;}.q{fill:#218bb8;}.r{fill:#b3b3b3;}.s{stroke-width:5.42px;}.t{stroke-width:4.52px;}</style>
  </defs>
  <title
     id="title6">mardatar</title>
  <metadata
     id="metadata1069">
    <rdf:RDF>
      <cc:Work
         rdf:about="">
        <dc:title>mardatar</dc:title>
      </cc:Work>
    </rdf:RDF>
  </metadata>
  <path
     class="k"
     d="m 346.27002,543.6395 h -268.39 c -37.69,0 -68.53,-26.38201 -68.53,-58.62668 V 66.20086 c 0,-16.13179 7.71,-30.788461 20.13,-41.416911 16.41,-14.042029 36.66,-16.3114495 48.4,-17.2192195 C 119.79002,4.3119 195.09002,0.94559 291.54002,0 c 29.3,1.24818 46.56,9.9665295 57,17.966239 14.45,11.06342 32,33.0957 32,33.0957 v 0 c 0,0 28,259.867481 19,260.983271 a 0.62,0.58626677 0 0 1 -0.47,-0.15129 l 485.77,9.8247 v 222.52606 q -130.06,0.14184 -260.09,0 -139.21,-0.14184 -278.48,-0.60518 z"
     id="path110"
     style="fill:#3eb4f0;stroke-width:1" />
  <path
     class="k"
     d="m 855.93002,301.83282 v 0 c 0,0 53.14,14.09878 117.3,64.12057 a 504.66,477.20224 0 0 1 70.29998,67.31666 c -17,19.0253 -42.52,43.38374 -76.99998,63.17497 -39.44,22.6942 -75.08,30.40077 -99.24,33.20918 q -11.35,-227.60389 -11.36,-227.82138 z"
     id="path112"
     style="fill:#3eb4f0;stroke-width:1" />
  <path
     class="l"
     d="m 753.05002,61.472909 h -124.51 q 14,118.548811 27.95,237.097621 l 53.36,4.23625 z"
     id="path114"
     style="fill:#8cc63f;stroke-width:1" />
  <rect
     class="k"
     x="374.54001"
     y="287.23288"
     width="372.60999"
     height="257.02124"
     id="rect116"
     style="fill:#3eb4f0;stroke-width:1" />
  <rect
     class="m"
     x="728.04053"
     y="278.95895"
     width="99.5"
     height="268.21704"
     rx="21.15"
     id="rect118"
     style="fill:#73b77a;stroke-width:1"
     ry="21.15" />
  <rect
     class="n"
     x="65.749985"
     y="61.472912"
     width="245.78999"
     height="438.28168"
     rx="50.529999"
     id="rect120"
     style="fill:#f5ec54;stroke:#ffffff;stroke-width:12.42px;stroke-miterlimit:10"
     ry="50.529999" />
  <path
     class="l"
     d="M 1018.54,499.2818 H 963.76002 V 365.0078 H 1018.54 c 30.7,12.78439 49.9,40.3673 48.7,69.82248 -1.11,27.57345 -19.98,52.53706 -48.7,64.45152 z"
     id="path122"
     style="fill:#8cc63f;stroke-width:1" />
  <path
     class="o"
     d="m 1093.54,431.19921 c -0.68,25.53097 -34,47.47815 -45,44.11184 -5.56,-1.70206 -3.33,-9.2006 -4.24,-41.60603 -1.12,-39.71484 -5,-48.37646 0.85,-50.32438 11.23,-3.73509 49.12,20.12219 48.39,47.81857 z"
     id="path124"
     style="fill:#ffff17;stroke-width:1" />
  <rect
     class="d"
     x="22.950176"
     y="553.99365"
     width="874.65002"
     height="31.157242"
     id="rect126"
     style="fill:#201600;stroke-width:1" />
  <rect
     class="p"
     x="782.54053"
     y="278.95895"
     width="102.31"
     height="226.35571"
     rx="29.139999"
     id="rect128"
     style="fill:#fff243;stroke-width:1"
     ry="29.139999" />
  <rect
     class="q"
     x="68.040024"
     y="266.66626"
     width="241"
     height="232.61552"
     rx="0.99000001"
     id="rect130"
     style="fill:#218bb8;stroke-width:1"
     ry="0.99000001" />
  <ellipse
     class="b"
     cx="236.4702"
     cy="614.53046"
     rx="114.4"
     ry="100.45965"
     id="ellipse132"
     style="fill:#998675;stroke:#bf536a;stroke-width:5.42px;stroke-miterlimit:10" />
  <ellipse
     class="c"
     cx="237.29002"
     cy="613.49976"
     rx="56.380001"
     ry="50.229824"
     id="ellipse134"
     style="fill:#666666;stroke:#bf536a;stroke-width:4.51px;stroke-miterlimit:10" />
  <ellipse
     class="d"
     cx="235.41014"
     cy="613.65106"
     rx="15.89"
     ry="14.35408"
     id="ellipse136"
     style="fill:#201600;stroke-width:1" />
  <ellipse
     class="b"
     cx="649.47021"
     cy="605.56628"
     rx="114.4"
     ry="95.410187"
     id="ellipse138"
     style="fill:#998675;stroke:#bf536a;stroke-width:5.42px;stroke-miterlimit:10" />
  <ellipse
     class="c"
     cx="650.29004"
     cy="604.59229"
     rx="56.380001"
     ry="47.705093"
     id="ellipse140"
     style="fill:#666666;stroke:#bf536a;stroke-width:4.51px;stroke-miterlimit:10" />
  <ellipse
     class="d"
     cx="648.41016"
     cy="604.73413"
     rx="15.89"
     ry="13.625975"
     id="ellipse142"
     style="fill:#201600;stroke-width:1" />
  <rect
     class="a"
     x="115.43542"
     y="666.27869"
     width="419.72299"
     height="17.686872"
     transform="matrix(0.98586099,-0.16756522,0.1867467,0.9824081,0,0)"
     id="rect146"
     style="fill:#c69c6d;stroke-width:1.0001" />
  <polygon
     class="q"
     points="4499,729.22 3493.53,729.24 3493.46,626.38 4458.2,626.38 "
     id="polygon148"
     style="fill:#218bb8;stroke-width:1.02837"
     transform="matrix(1,0,0,0.94559156,-3493.46,-116.29831)" />
  <path
     class="r"
     d="m 47.22002,353.1028 a 164.3,155.36069 0 0 0 18.73,-7.23378 c 3,-1.35219 6,-2.78949 9,-4.26461 l 9.14,-4.30245 c 3.06,-1.40893 6,-3.09208 9,-4.65231 a 42,39.714846 0 0 1 9.46,-3.58379 68,64.300226 0 0 1 10.2,-1.80608 45.29,42.825842 0 0 1 11,0.0473 l 0.49,1.17254 a 44.88,42.438149 0 0 1 -8,7.09193 68,64.300226 0 0 1 -8.77,5.25749 41.81,39.535183 0 0 1 -9.5,3.47032 c -3.32,0.7943 -6.69,1.46567 -9.95,2.41126 l -9.84,2.73276 c -3.32,0.85103 -6.69,1.6737 -10.08,2.4018 a 108.22,102.33192 0 0 1 -20.66,2.49636 z"
     id="path150"
     style="fill:#b3b3b3;stroke-width:1" />
</svg>
