<?xml version="1.0" encoding="UTF-8" standalone="no"?>
<svg
   viewBox="0 0 3088 716.90997"
   version="1.1"
   id="svg206"
   sodipodi:docname="mardatar_vagon.svg"
   width="3088"
   height="716.90997"
   inkscape:version="1.1.1 (3bf5ae0d25, 2021-09-20)"
   xmlns:inkscape="http://www.inkscape.org/namespaces/inkscape"
   xmlns:sodipodi="http://sodipodi.sourceforge.net/DTD/sodipodi-0.dtd"
   xmlns="http://www.w3.org/2000/svg"
   xmlns:svg="http://www.w3.org/2000/svg"
   xmlns:rdf="http://www.w3.org/1999/02/22-rdf-syntax-ns#"
   xmlns:cc="http://creativecommons.org/ns#"
   xmlns:dc="http://purl.org/dc/elements/1.1/">
  <sodipodi:namedview
     id="namedview208"
     pagecolor="#ffffff"
     bordercolor="#666666"
     borderopacity="1.0"
     inkscape:pageshadow="2"
     inkscape:pageopacity="0.0"
     inkscape:pagecheckerboard="0"
     showgrid="false"
     fit-margin-top="0"
     fit-margin-left="0"
     fit-margin-right="0"
     fit-margin-bottom="0"
     inkscape:zoom="0.31599534"
     inkscape:cx="1356.0327"
     inkscape:cy="805.39162"
     inkscape:window-width="1920"
     inkscape:window-height="1009"
     inkscape:window-x="-8"
     inkscape:window-y="-8"
     inkscape:window-maximized="1"
     inkscape:current-layer="svg206" />
  <defs
     id="defs4">
    <style
       id="style2">.a{fill:#c69c6d;}.b,.k{fill:#998675;}.b,.c,.k,.l{stroke:#bf536a;stroke-miterlimit:10;}.b{stroke-width:5.42px;}.c,.l{fill:#666;}.c{stroke-width:4.51px;}.d{fill:#201600;}.e{fill:#29abe2;}.f{fill:#fcee21;}.g{fill:lime;}.h{fill:#5ba307;}.i{fill:#c1272d;}.j{fill:#fff;}.k{stroke-width:5.42px;}.l{stroke-width:4.52px;}</style>
  </defs>
  <title
     id="title6">mardatar vagonner</title>
  <metadata
     id="metadata1025">
    <rdf:RDF>
      <cc:Work
         rdf:about="">
        <dc:title>mardatar vagonner</dc:title>
      </cc:Work>
    </rdf:RDF>
  </metadata>
  <rect
     class="a"
     x="1444.5"
     y="497.96002"
     width="209"
     height="31.09"
     id="rect8"
     style="fill:#c69c6d" />
  <ellipse
     class="b"
     cx="2141.7"
     cy="613.09998"
     rx="111.58"
     ry="101.1"
     id="ellipse10"
     style="fill:#998675;stroke:#bf536a;stroke-width:5.42px;stroke-miterlimit:10" />
  <ellipse
     class="c"
     cx="2142.5"
     cy="612.07001"
     rx="54.98"
     ry="50.549999"
     id="ellipse12"
     style="fill:#666666;stroke:#bf536a;stroke-width:4.51px;stroke-miterlimit:10" />
  <ellipse
     class="d"
     cx="2140.6599"
     cy="617.21997"
     rx="15.5"
     ry="14.44"
     id="ellipse14"
     style="fill:#201600" />
  <ellipse
     class="b"
     cx="2515.7"
     cy="612.09998"
     rx="111.58"
     ry="101.1"
     id="ellipse16"
     style="fill:#998675;stroke:#bf536a;stroke-width:5.42px;stroke-miterlimit:10" />
  <ellipse
     class="c"
     cx="2516.5"
     cy="611.07001"
     rx="54.98"
     ry="50.549999"
     id="ellipse18"
     style="fill:#666666;stroke:#bf536a;stroke-width:4.51px;stroke-miterlimit:10" />
  <ellipse
     class="d"
     cx="2514.6599"
     cy="616.21997"
     rx="15.5"
     ry="14.44"
     id="ellipse20"
     style="fill:#201600" />
  <ellipse
     class="b"
     cx="2882.7"
     cy="603.09998"
     rx="111.58"
     ry="101.1"
     id="ellipse22"
     style="fill:#998675;stroke:#bf536a;stroke-width:5.42px;stroke-miterlimit:10" />
  <ellipse
     class="c"
     cx="2883.5"
     cy="602.07001"
     rx="54.98"
     ry="50.549999"
     id="ellipse24"
     style="fill:#666666;stroke:#bf536a;stroke-width:4.51px;stroke-miterlimit:10" />
  <ellipse
     class="d"
     cx="2881.6599"
     cy="607.21997"
     rx="15.5"
     ry="14.44"
     id="ellipse26"
     style="fill:#201600" />
  <ellipse
     class="b"
     cx="1778.7"
     cy="613.09998"
     rx="111.58"
     ry="101.1"
     id="ellipse28"
     style="fill:#998675;stroke:#bf536a;stroke-width:5.42px;stroke-miterlimit:10" />
  <ellipse
     class="c"
     cx="1779.5"
     cy="612.07001"
     rx="54.98"
     ry="50.549999"
     id="ellipse30"
     style="fill:#666666;stroke:#bf536a;stroke-width:4.51px;stroke-miterlimit:10" />
  <ellipse
     class="d"
     cx="1777.6599"
     cy="617.21997"
     rx="15.5"
     ry="14.44"
     id="ellipse32"
     style="fill:#201600" />
  <rect
     class="e"
     x="1562"
     y="5"
     width="1526"
     height="568"
     rx="96.139999"
     id="rect40"
     style="fill:#29abe2"
     ry="96.139999" />
  <rect
     class="f"
     x="1623"
     y="49"
     width="420"
     height="256"
     rx="58.720001"
     id="rect42"
     style="fill:#fcee21"
     ry="58.720001" />
  <rect
     class="f"
     x="2096"
     y="49"
     width="420"
     height="256"
     rx="58.720001"
     id="rect44"
     style="fill:#fcee21"
     ry="58.720001" />
  <rect
     class="f"
     x="2574"
     y="49"
     width="420"
     height="256"
     rx="58.720001"
     id="rect46"
     style="fill:#fcee21"
     ry="58.720001" />
  <path
     class="g"
     d="m 1809,58.99999 a 464.44,464.44 0 0 1 -32,45 c -27.77,34.51 -44.62,55.45 -73,71 -29.57,16.2 -53.19,16.36 -54,28 -0.6,8.53 11.8,10.49 26,32 a 201.14,201.14 0 0 1 17,32 c 6,14 12,31.91 12,32 v 0 c -7.09,-0.7 -18.2,-1.63 -32,-2 -14.24,-0.39 -17,0.2 -22,-2 -16.09,-7.08 -21,-27.9 -22,-32 a 59.15,59.15 0 0 1 -1,-23 c 0.56,-4.63 1.38,-27.42 3,-73 1.74,-48.87 -4.65,-57.35 5,-79 9,-20.17 20.58,-26.35 24,-28 12.81,-6.19 25.47,-4.23 31,-3"
     id="path48"
     style="fill:#00ff00" />
  <path
     class="g"
     d="m 1845,57.99999 c -1.35,2.8 -2,9.18 30.74,43 37.64,38.87 56.09,59.07 84.36,72 31.69,14.49 54.74,16.63 55.56,28 0.62,8.52 -13.94,9.92 -26.75,32 -3.64,6.28 -6,12.24 -12.91,20 -3.88,4.37 -5.93,5.62 -10,11 a 84.28,84.28 0 0 0 -9,15 95.49,95.49 0 0 0 -6,16 c -2.73,2 -5.55,4.45 -5,6 0.75,2.1 7.16,1.1 20,0 23,-2 29.56,-1.09 42.63,-5.64 a 39.57,39.57 0 0 0 6,-2.36 c 16.58,-8.89 21.73,-28.55 22.64,-32 a 57.74,57.74 0 0 0 1,-23 c -0.58,-4.63 -1.42,-27.42 -3.09,-73 -1.79,-48.87 4.79,-57.35 -5.14,-79 a 77.16,77.16 0 0 0 -24.7,-28 c -21.28,-14.29 -41.75,-2.06 -97.37,-2 -40.37,0 -58.92,-6.39 -62.97,2 z"
     id="path50"
     style="fill:#00ff00" />
  <path
     class="h"
     d="m 2016.4,195.66999 a 221.47,221.47 0 0 1 -36.78,-24.74 220.06,220.06 0 0 1 -16.3,-15.15 c -2.58,-2.66 -5.11,-5.39 -7.54,-8.21 -2.43,-2.82 -4.73,-5.76 -7,-8.72 a 158.31,158.31 0 0 1 -12.4,-18.64 c -0.92,-1.63 -1.71,-3.34 -2.57,-5 -0.86,-1.66 -1.58,-3.4 -2.35,-5.12 -0.77,-1.72 -1.38,-3.48 -2.06,-5.22 -0.68,-1.74 -1.22,-3.54 -1.79,-5.33 a 144.38,144.38 0 0 1 -6.34,-44 h 0.4 c 1,7.32 2.27,14.57 3.83,21.73 a 191.65,191.65 0 0 0 5.91,21.07 c 0.59,1.73 1.24,3.42 1.86,5.13 l 2,5.06 c 0.75,1.65 1.41,3.34 2.19,5 0.78,1.66 1.53,3.3 2.39,4.89 a 143.32,143.32 0 0 0 11.54,18.58 c 2.13,3 4.31,5.92 6.62,8.74 2.31,2.82 4.72,5.6 7.2,8.3 a 217.73,217.73 0 0 0 15.72,15.41 220.43,220.43 0 0 0 35.67,25.92 z"
     id="path52"
     style="fill:#5ba307" />
  <path
     class="h"
     d="m 2008.33,295.48999 a 235,235 0 0 1 4.53,-31.44 q 1.66,-7.77 3.91,-15.41 c 1.5,-5.09 3.18,-10.13 5,-15.11 1.82,-4.98 3.77,-9.9 5.42,-14.88 a 57.46,57.46 0 0 0 2,-7.53 29.65,29.65 0 0 0 0.37,-7.63 30.35,30.35 0 0 0 -1.67,-7.42 17.39,17.39 0 0 0 -4,-6.25 c -1.77,-1.85 -3.75,-3.67 -5.59,-5.61 -1.84,-1.94 -3.62,-4 -5.33,-6 -1.71,-2 -3.31,-4.18 -4.9,-6.36 -1.59,-2.18 -2.93,-4.55 -4.25,-6.87 -2.64,-4.63 -5.08,-9.33 -7.52,-14 -2.44,-4.67 -4.8,-9.44 -7.15,-14.18 l -6.95,-14.27 c -2.26,-4.78 -4.52,-9.57 -6.73,-14.39 -2.21,-4.82 -4.38,-9.69 -6.11,-14.75 -1.73,-5.06 -3.29,-10.12 -4.65,-15.25 -1.36,-5.13 -2.46,-10.33 -3.32,-15.56 l 0.32,-0.06 c 1.36,5.11 2.79,10.19 4.46,15.2 1.67,5.01 3.39,10 5.36,14.85 1.97,4.85 4.19,9.61 6.53,14.34 2.34,4.73 4.73,9.45 7.12,14.16 l 7.06,14.2 7,14.23 c 2.34,4.73 4.68,9.47 7.18,14.08 1.26,2.3 2.54,4.58 4,6.7 1.46,2.12 3.06,4.24 4.66,6.3 1.6,2.06 3.32,4 5.1,5.94 1.78,1.94 3.66,3.71 5.51,5.72 a 20.9,20.9 0 0 1 2.56,3.3 20,20 0 0 1 1.82,3.79 33,33 0 0 1 1.68,8 31.83,31.83 0 0 1 -0.53,8.16 59.53,59.53 0 0 1 -2.14,7.78 c -1.76,5 -3.8,9.92 -5.68,14.85 -1.88,4.93 -3.76,9.88 -5.4,14.88 -1.64,5 -3,10.12 -4.21,15.25 a 232.06,232.06 0 0 0 -5.16,31.24 z"
     id="path54"
     style="fill:#5ba307" />
  <path
     class="h"
     d="m 1970.3,293.35999 a 405.51,405.51 0 0 0 22.5,-35.52 c 3.45,-6.1 6.68,-12.3 9.88,-18.55 3.2,-6.25 6.38,-12.49 9.18,-18.86 a 84.15,84.15 0 0 0 3.64,-9.69 24.43,24.43 0 0 0 1.15,-9.83 l -0.17,-1.19 c -0.09,-0.39 -0.21,-0.76 -0.32,-1.14 a 12.58,12.58 0 0 0 -0.87,-2.2 8.74,8.74 0 0 0 -0.61,-1 c -0.22,-0.32 -0.4,-0.68 -0.65,-1 l -0.78,-0.85 a 5.22,5.22 0 0 0 -0.39,-0.43 l -0.45,-0.35 c -2.38,-2 -5.64,-3 -9,-3.79 l -10.25,-2.34 c -1.72,-0.42 -3.44,-0.83 -5.15,-1.31 -1.71,-0.48 -3.42,-1 -5.11,-1.49 a 156.31,156.31 0 0 1 -19.84,-7.77 169,169 0 0 1 -18.63,-10.32 c -6,-3.8 -11.74,-7.93 -17.44,-12.06 -5.7,-4.13 -11.21,-8.69 -16.53,-13.35 -5.32,-4.66 -10.42,-9.57 -15.37,-14.62 -4.95,-5.05 -9.68,-10.31 -14.26,-15.69 -4.58,-5.38 -8.94,-10.94 -13.09,-16.64 a 294.41,294.41 0 0 1 -22.47,-35.75 l 0.42,-0.26 q 11.64,17.56 24.8,33.89 a 369.85,369.85 0 0 0 28.09,31 q 7.44,7.32 15.27,14.24 c 5.21,4.62 10.54,9.1 16.06,13.3 5.52,4.2 11.13,8.46 16.9,12.3 a 164,164 0 0 0 18,10.43 154.14,154.14 0 0 0 19.2,7.92 c 1.65,0.54 3.3,1.07 5,1.54 1.7,0.47 3.34,0.93 5,1.37 3.38,0.87 6.78,1.63 10.24,2.53 l 2.59,0.74 c 0.87,0.32 1.74,0.57 2.6,0.93 a 18.83,18.83 0 0 1 2.56,1.24 l 1.24,0.74 1.14,0.94 a 15.28,15.28 0 0 1 5.11,10.12 27.28,27.28 0 0 1 -1.49,10.91 89.28,89.28 0 0 1 -3.93,9.94 c -3,6.41 -6.34,12.59 -9.69,18.77 -3.35,6.18 -6.73,12.34 -10.34,18.37 a 403.73,403.73 0 0 1 -23.38,35.06 z"
     id="path56"
     style="fill:#5ba307" />
  <path
     class="i"
     d="m 1634.6,210.99999 15.29,-1 a 6.32,6.32 0 0 0 6.18,-6.18 c 0,-3.19 -2.84,-6.39 -6.18,-6.18 l -15.29,0.95 a 6.33,6.33 0 0 0 -6.18,6.19 c 0,3.18 2.83,6.39 6.18,6.18 z"
     id="path58"
     style="fill:#c1272d" />
  <path
     class="i"
     d="m 2014.6,204.99999 15.29,-1 a 6.32,6.32 0 0 0 6.18,-6.18 c 0,-3.19 -2.84,-6.39 -6.18,-6.18 l -15.29,0.95 a 6.33,6.33 0 0 0 -6.18,6.19 c 0,3.18 2.83,6.39 6.18,6.18 z"
     id="path60"
     style="fill:#c1272d" />
  <path
     class="h"
     d="m 1685.3,293.52999 a 143.75,143.75 0 0 0 -9.54,-33.59 129.17,129.17 0 0 0 -7.85,-15.59 119.21,119.21 0 0 0 -9.83,-14.37 c -1.83,-2.26 -3.69,-4.49 -5.62,-6.67 -1.93,-2.18 -3.91,-4.34 -5.8,-6.63 a 25.43,25.43 0 0 1 -4.8,-7.8 15.16,15.16 0 0 1 0,-9.42 15,15 0 0 1 2.16,-4.25 20.19,20.19 0 0 1 1.48,-1.84 c 0.55,-0.54 1.08,-1.13 1.67,-1.62 a 48.83,48.83 0 0 1 7.38,-5.2 c 5.1,-3 10.27,-5.7 15.23,-8.72 a 133.61,133.61 0 0 0 14.27,-9.82 123.41,123.41 0 0 0 12.73,-11.67 130.74,130.74 0 0 0 11,-13.27 152.21,152.21 0 0 0 17.16,-30 148.25,148.25 0 0 0 5.92,-16.31 150.15,150.15 0 0 0 4,-16.94 c 1.1,-5.71 1.77,-11.51 2.31,-17.34 h 0.4 a 138.63,138.63 0 0 1 -16.92,68 147.47,147.47 0 0 1 -9.57,15 122.95,122.95 0 0 1 -24.93,25.32 138.9,138.9 0 0 1 -14.84,9.75 c -5.09,3 -10.36,5.6 -15.38,8.46 a 46.14,46.14 0 0 0 -7,4.77 c -0.55,0.43 -1,0.94 -1.51,1.41 a 17.48,17.48 0 0 0 -1.3,1.55 12.79,12.79 0 0 0 -2,11.33 22.93,22.93 0 0 0 4.26,7.12 c 3.63,4.47 7.65,8.83 11.2,13.53 a 118.87,118.87 0 0 1 9.65,14.8 131.73,131.73 0 0 1 7.57,15.92 145.17,145.17 0 0 1 8.83,34 z"
     id="path62"
     style="fill:#5ba307" />
  <path
     class="h"
     d="m 1663.34,290.59999 a 244.34,244.34 0 0 1 -15.34,-27.31 l -1.66,-3.56 c -0.54,-1.19 -1,-2.41 -1.51,-3.62 l -1.48,-3.64 -1.3,-3.72 c -0.93,-2.45 -1.57,-5 -2.31,-7.53 -0.4,-1.25 -0.6,-2.56 -0.91,-3.84 -0.31,-1.28 -0.61,-2.56 -0.76,-3.87 l -0.58,-3.92 -0.31,-4 -0.07,-1 v -3 a 35.19,35.19 0 0 1 0.2,-4 46.06,46.06 0 0 1 4,-15.45 65.1,65.1 0 0 1 8.77,-13.27 c 3.32,-4.08 6.76,-8 10,-12 3.24,-4 6.35,-8.18 9.28,-12.44 1.4,-2.17 2.88,-4.28 4.2,-6.51 l 2,-3.3 1.91,-3.38 c 1.31,-2.22 2.48,-4.53 3.7,-6.81 1.22,-2.28 2.36,-4.63 3.52,-6.93 a 107.13,107.13 0 0 0 6,-14.15 117.91,117.91 0 0 0 4,-14.85 124.6,124.6 0 0 0 2,-15.3 119.64,119.64 0 0 0 0,-15.5 145.1,145.1 0 0 0 -1.69,-15.5 l 0.36,-0.07 a 113.44,113.44 0 0 1 3.84,31.17 108.56,108.56 0 0 1 -1.38,15.78 117.3,117.3 0 0 1 -3.74,15.44 110.88,110.88 0 0 1 -6.08,14.68 c -1.17,2.36 -2.37,4.66 -3.64,7 -1.27,2.34 -2.48,4.63 -3.86,6.88 l -2,3.39 -2.13,3.32 c -1.39,2.24 -3,4.37 -4.43,6.54 -3.07,4.28 -6.32,8.42 -9.7,12.43 -3.38,4.01 -6.89,7.89 -10.23,11.85 a 63.21,63.21 0 0 0 -8.67,12.6 44,44 0 0 0 -4,14.62 32.53,32.53 0 0 0 -0.26,3.82 v 1.92 1 l 0.06,1 0.22,3.85 0.5,3.83 c 0.12,1.28 0.43,2.54 0.66,3.81 0.23,1.27 0.44,2.55 0.8,3.79 0.67,2.5 1.24,5 2.11,7.47 l 1.19,3.71 1.38,3.63 c 0.48,1.21 0.91,2.44 1.41,3.64 l 1.57,3.57 a 240.78,240.78 0 0 0 14.65,27.56 z"
     id="path64"
     style="fill:#5ba307" />
  <path
     class="j"
     d="m 1985.28,57.99999 a 49.78,49.78 0 0 1 49.72,49.72 v 138.56 a 49.78,49.78 0 0 1 -49.72,49.72 h -302.56 a 49.78,49.78 0 0 1 -49.72,-49.72 v -138.56 a 49.78,49.78 0 0 1 49.72,-49.72 h 302.56 m 0,-9 h -302.56 a 58.72,58.72 0 0 0 -58.72,58.72 v 138.56 a 58.72,58.72 0 0 0 58.72,58.72 h 302.56 a 58.72,58.72 0 0 0 58.72,-58.72 v -138.56 a 58.72,58.72 0 0 0 -58.72,-58.72 z"
     id="path66"
     style="fill:#ffffff" />
  <path
     class="g"
     d="m 2759,58.99999 a 464.44,464.44 0 0 1 -32,45 c -27.77,34.51 -44.62,55.45 -73,71 -29.57,16.2 -53.19,16.36 -54,28 -0.6,8.53 11.8,10.49 26,32 a 201.14,201.14 0 0 1 17,32 c 6,14 12,31.91 12,32 v 0 c -7.09,-0.7 -18.2,-1.63 -32,-2 -14.24,-0.39 -17,0.2 -22,-2 -16.09,-7.08 -20.95,-27.9 -22,-32 a 59.15,59.15 0 0 1 -1,-23 c 0.56,-4.63 1.38,-27.42 3,-73 1.74,-48.87 -4.65,-57.35 5,-79 9,-20.17 20.58,-26.35 24,-28 12.81,-6.19 25.47,-4.23 31,-3"
     id="path68"
     style="fill:#00ff00" />
  <path
     class="g"
     d="m 2795,57.99999 c -1.35,2.8 -2,9.18 30.74,43 37.64,38.87 56.09,59.07 84.36,72 31.69,14.49 54.74,16.63 55.56,28 0.62,8.52 -13.94,9.92 -26.75,32 -3.64,6.28 -6,12.24 -12.91,20 -3.88,4.37 -5.93,5.62 -10,11 a 84.28,84.28 0 0 0 -9,15 95.49,95.49 0 0 0 -6,16 c -2.73,2 -5.55,4.45 -5,6 0.75,2.1 7.16,1.1 20,0 23,-2 29.56,-1.09 42.63,-5.64 a 39.57,39.57 0 0 0 6,-2.36 c 16.58,-8.89 21.73,-28.55 22.64,-32 a 57.74,57.74 0 0 0 1,-23 c -0.58,-4.63 -1.42,-27.42 -3.09,-73 -1.79,-48.87 4.79,-57.35 -5.14,-79 a 77.16,77.16 0 0 0 -24.7,-28 c -21.28,-14.29 -41.75,-2.06 -97.37,-2 -40.37,0 -58.92,-6.39 -62.97,2 z"
     id="path70"
     style="fill:#00ff00" />
  <path
     class="h"
     d="m 2966.4,195.66999 a 221.47,221.47 0 0 1 -36.78,-24.74 220.06,220.06 0 0 1 -16.3,-15.15 c -2.58,-2.66 -5.11,-5.39 -7.54,-8.21 -2.43,-2.82 -4.73,-5.76 -7,-8.72 a 158.31,158.31 0 0 1 -12.4,-18.64 c -0.92,-1.63 -1.71,-3.34 -2.57,-5 -0.86,-1.66 -1.58,-3.4 -2.35,-5.12 -0.77,-1.72 -1.38,-3.48 -2.06,-5.22 -0.68,-1.74 -1.22,-3.54 -1.79,-5.33 a 144.38,144.38 0 0 1 -6.34,-44 h 0.4 c 1,7.32 2.27,14.57 3.83,21.73 a 191.65,191.65 0 0 0 5.91,21.07 c 0.59,1.73 1.24,3.42 1.86,5.13 l 2,5.06 c 0.75,1.65 1.41,3.34 2.19,5 0.78,1.66 1.53,3.3 2.39,4.89 a 143.32,143.32 0 0 0 11.54,18.58 c 2.13,3 4.31,5.92 6.62,8.74 2.31,2.82 4.72,5.6 7.2,8.3 a 217.73,217.73 0 0 0 15.72,15.41 220.43,220.43 0 0 0 35.67,25.92 z"
     id="path72"
     style="fill:#5ba307" />
  <path
     class="h"
     d="m 2958.33,295.48999 a 235,235 0 0 1 4.53,-31.44 q 1.66,-7.77 3.91,-15.41 c 1.5,-5.09 3.18,-10.13 5,-15.11 1.82,-4.98 3.77,-9.9 5.42,-14.88 a 57.46,57.46 0 0 0 2,-7.53 29.65,29.65 0 0 0 0.37,-7.63 30.35,30.35 0 0 0 -1.67,-7.42 17.39,17.39 0 0 0 -4,-6.25 c -1.77,-1.85 -3.75,-3.67 -5.59,-5.61 -1.84,-1.94 -3.62,-4 -5.33,-6 -1.71,-2 -3.31,-4.18 -4.9,-6.36 -1.59,-2.18 -2.93,-4.55 -4.25,-6.87 -2.64,-4.63 -5.08,-9.33 -7.52,-14 -2.44,-4.67 -4.8,-9.44 -7.15,-14.18 l -6.95,-14.27 c -2.26,-4.78 -4.52,-9.57 -6.73,-14.39 -2.21,-4.82 -4.38,-9.69 -6.11,-14.75 -1.73,-5.06 -3.29,-10.12 -4.65,-15.25 -1.36,-5.13 -2.46,-10.33 -3.32,-15.56 l 0.32,-0.06 c 1.36,5.11 2.79,10.19 4.46,15.2 1.67,5.01 3.39,10 5.36,14.85 1.97,4.85 4.19,9.61 6.53,14.34 2.34,4.73 4.73,9.45 7.12,14.16 l 7.06,14.2 7,14.23 c 2.34,4.73 4.68,9.47 7.18,14.08 1.26,2.3 2.54,4.58 4,6.7 1.46,2.12 3.06,4.24 4.66,6.3 1.6,2.06 3.32,4 5.1,5.94 1.78,1.94 3.66,3.71 5.51,5.72 a 20.9,20.9 0 0 1 2.56,3.3 20,20 0 0 1 1.82,3.79 33,33 0 0 1 1.68,8 31.83,31.83 0 0 1 -0.53,8.16 59.53,59.53 0 0 1 -2.14,7.78 c -1.76,5 -3.8,9.92 -5.68,14.85 -1.88,4.93 -3.76,9.88 -5.4,14.88 -1.64,5 -3,10.12 -4.21,15.25 a 232.06,232.06 0 0 0 -5.16,31.24 z"
     id="path74"
     style="fill:#5ba307" />
  <path
     class="h"
     d="m 2920.3,293.35999 a 405.51,405.51 0 0 0 22.5,-35.52 c 3.45,-6.1 6.68,-12.3 9.88,-18.55 3.2,-6.25 6.38,-12.49 9.18,-18.86 a 84.15,84.15 0 0 0 3.64,-9.69 24.43,24.43 0 0 0 1.15,-9.83 l -0.17,-1.19 c -0.09,-0.39 -0.21,-0.76 -0.32,-1.14 a 12.58,12.58 0 0 0 -0.87,-2.2 8.74,8.74 0 0 0 -0.61,-1 c -0.22,-0.32 -0.4,-0.68 -0.65,-1 l -0.78,-0.85 a 5.22,5.22 0 0 0 -0.39,-0.43 l -0.45,-0.35 c -2.38,-2 -5.64,-3 -9,-3.79 l -10.25,-2.34 c -1.72,-0.42 -3.44,-0.83 -5.15,-1.31 -1.71,-0.48 -3.42,-1 -5.11,-1.49 a 156.31,156.31 0 0 1 -19.84,-7.77 169,169 0 0 1 -18.63,-10.32 c -6,-3.8 -11.74,-7.93 -17.44,-12.06 -5.7,-4.13 -11.21,-8.69 -16.53,-13.35 -5.32,-4.66 -10.42,-9.57 -15.37,-14.62 -4.95,-5.05 -9.68,-10.31 -14.26,-15.69 -4.58,-5.38 -8.94,-10.94 -13.09,-16.64 a 294.41,294.41 0 0 1 -22.47,-35.75 l 0.42,-0.26 q 11.64,17.56 24.8,33.89 a 369.85,369.85 0 0 0 28.09,31 q 7.44,7.32 15.27,14.24 c 5.21,4.62 10.54,9.1 16.06,13.3 5.52,4.2 11.13,8.46 16.9,12.3 a 164,164 0 0 0 18,10.43 154.14,154.14 0 0 0 19.2,7.92 c 1.65,0.54 3.3,1.07 5,1.54 1.7,0.47 3.34,0.93 5,1.37 3.38,0.87 6.78,1.63 10.24,2.53 l 2.59,0.74 c 0.87,0.32 1.74,0.57 2.6,0.93 a 18.83,18.83 0 0 1 2.56,1.24 l 1.24,0.74 1.14,0.94 a 15.28,15.28 0 0 1 5.11,10.12 27.28,27.28 0 0 1 -1.49,10.91 89.28,89.28 0 0 1 -3.93,9.94 c -3,6.41 -6.34,12.59 -9.69,18.77 -3.35,6.18 -6.73,12.34 -10.34,18.37 a 403.73,403.73 0 0 1 -23.38,35.06 z"
     id="path76"
     style="fill:#5ba307" />
  <path
     class="i"
     d="m 2584.6,210.99999 15.29,-1 a 6.32,6.32 0 0 0 6.18,-6.18 c 0,-3.19 -2.84,-6.39 -6.18,-6.18 l -15.29,0.95 a 6.33,6.33 0 0 0 -6.18,6.19 c 0,3.18 2.83,6.39 6.18,6.18 z"
     id="path78"
     style="fill:#c1272d" />
  <path
     class="i"
     d="m 2964.6,204.99999 15.29,-1 a 6.32,6.32 0 0 0 6.18,-6.18 c 0,-3.19 -2.84,-6.39 -6.18,-6.18 l -15.29,0.95 a 6.33,6.33 0 0 0 -6.18,6.19 c 0,3.18 2.83,6.39 6.18,6.18 z"
     id="path80"
     style="fill:#c1272d" />
  <path
     class="h"
     d="m 2635.3,293.52999 a 143.75,143.75 0 0 0 -9.54,-33.59 129.17,129.17 0 0 0 -7.85,-15.59 119.21,119.21 0 0 0 -9.83,-14.37 c -1.83,-2.26 -3.69,-4.49 -5.62,-6.67 -1.93,-2.18 -3.91,-4.34 -5.8,-6.63 a 25.43,25.43 0 0 1 -4.8,-7.8 15.16,15.16 0 0 1 0,-9.42 15,15 0 0 1 2.16,-4.25 20.19,20.19 0 0 1 1.48,-1.84 c 0.55,-0.54 1.08,-1.13 1.67,-1.62 a 48.83,48.83 0 0 1 7.38,-5.2 c 5.1,-3 10.27,-5.7 15.23,-8.72 a 133.61,133.61 0 0 0 14.27,-9.82 123.41,123.41 0 0 0 12.73,-11.67 130.74,130.74 0 0 0 11,-13.27 152.21,152.21 0 0 0 17.16,-30 148.25,148.25 0 0 0 5.92,-16.31 150.15,150.15 0 0 0 4,-16.94 c 1.1,-5.71 1.77,-11.51 2.31,-17.34 h 0.4 a 138.63,138.63 0 0 1 -16.92,68 147.47,147.47 0 0 1 -9.57,15 122.95,122.95 0 0 1 -24.93,25.32 138.9,138.9 0 0 1 -14.84,9.75 c -5.09,3 -10.36,5.6 -15.38,8.46 a 46.14,46.14 0 0 0 -7,4.77 c -0.55,0.43 -1,0.94 -1.51,1.41 a 17.48,17.48 0 0 0 -1.3,1.55 12.79,12.79 0 0 0 -2,11.33 22.93,22.93 0 0 0 4.26,7.12 c 3.63,4.47 7.65,8.83 11.2,13.53 a 118.87,118.87 0 0 1 9.65,14.8 131.73,131.73 0 0 1 7.57,15.92 145.17,145.17 0 0 1 8.83,34 z"
     id="path82"
     style="fill:#5ba307" />
  <path
     class="h"
     d="m 2613.34,290.59999 a 244.34,244.34 0 0 1 -15.34,-27.31 l -1.66,-3.56 c -0.54,-1.19 -1,-2.41 -1.51,-3.62 l -1.48,-3.64 -1.3,-3.72 c -0.93,-2.45 -1.57,-5 -2.31,-7.53 -0.4,-1.25 -0.6,-2.56 -0.91,-3.84 -0.31,-1.28 -0.61,-2.56 -0.76,-3.87 l -0.58,-3.92 -0.31,-4 -0.07,-1 v -3 a 35.19,35.19 0 0 1 0.2,-4 46.06,46.06 0 0 1 4,-15.45 65.1,65.1 0 0 1 8.77,-13.27 c 3.32,-4.08 6.76,-8 10,-12 3.24,-4 6.35,-8.18 9.28,-12.44 1.4,-2.17 2.88,-4.28 4.2,-6.51 l 2,-3.3 1.91,-3.38 c 1.31,-2.22 2.48,-4.53 3.7,-6.81 1.22,-2.28 2.36,-4.63 3.52,-6.93 a 107.13,107.13 0 0 0 6,-14.15 117.91,117.91 0 0 0 4,-14.85 124.6,124.6 0 0 0 2,-15.3 119.64,119.64 0 0 0 0.05,-15.5 145.1,145.1 0 0 0 -1.69,-15.5 l 0.36,-0.07 a 113.44,113.44 0 0 1 3.84,31.17 108.56,108.56 0 0 1 -1.38,15.78 117.3,117.3 0 0 1 -3.74,15.44 110.88,110.88 0 0 1 -6.08,14.68 c -1.17,2.36 -2.37,4.66 -3.64,7 -1.27,2.34 -2.48,4.63 -3.86,6.88 l -2,3.39 -2.13,3.32 c -1.39,2.24 -2.95,4.37 -4.43,6.54 -3.07,4.28 -6.32,8.42 -9.7,12.43 -3.38,4.01 -6.89,7.89 -10.23,11.85 a 63.21,63.21 0 0 0 -8.67,12.6 44,44 0 0 0 -4,14.62 32.53,32.53 0 0 0 -0.26,3.82 v 1.92 1 l 0.06,1 0.22,3.85 0.5,3.83 c 0.12,1.28 0.43,2.54 0.66,3.81 0.23,1.27 0.44,2.55 0.8,3.79 0.67,2.5 1.24,5 2.11,7.47 l 1.19,3.71 1.38,3.63 c 0.48,1.21 0.91,2.44 1.41,3.64 l 1.57,3.57 a 240.78,240.78 0 0 0 14.65,27.56 z"
     id="path84"
     style="fill:#5ba307" />
  <path
     class="j"
     d="m 2935.28,57.99999 a 49.78,49.78 0 0 1 49.72,49.72 v 138.56 a 49.78,49.78 0 0 1 -49.72,49.72 h -302.56 a 49.78,49.78 0 0 1 -49.72,-49.72 v -138.56 a 49.78,49.78 0 0 1 49.72,-49.72 h 302.56 m 0,-9 h -302.56 a 58.72,58.72 0 0 0 -58.72,58.72 v 138.56 a 58.72,58.72 0 0 0 58.72,58.72 h 302.56 a 58.72,58.72 0 0 0 58.72,-58.72 v -138.56 a 58.72,58.72 0 0 0 -58.72,-58.72 z"
     id="path86"
     style="fill:#ffffff" />
  <path
     class="g"
     d="m 2281,58.99999 a 464.44,464.44 0 0 1 -32,45 c -27.77,34.51 -44.62,55.45 -73,71 -29.57,16.2 -53.19,16.36 -54,28 -0.6,8.53 11.8,10.49 26,32 a 201.14,201.14 0 0 1 17,32 c 6,14 12,31.91 12,32 v 0 c -7.09,-0.7 -18.2,-1.63 -32,-2 -14.24,-0.39 -17,0.2 -22,-2 -16.09,-7.08 -20.95,-27.9 -22,-32 a 59.15,59.15 0 0 1 -1,-23 c 0.56,-4.63 1.38,-27.42 3,-73 1.74,-48.87 -4.65,-57.35 5,-79 9,-20.17 20.58,-26.35 24,-28 12.81,-6.19 25.47,-4.23 31,-3"
     id="path88"
     style="fill:#00ff00" />
  <path
     class="g"
     d="m 2317,57.99999 c -1.35,2.8 -2,9.18 30.74,43 37.64,38.87 56.09,59.07 84.36,72 31.69,14.49 54.74,16.63 55.56,28 0.62,8.52 -13.94,9.92 -26.75,32 -3.64,6.28 -6,12.24 -12.91,20 -3.88,4.37 -5.93,5.62 -10,11 a 84.28,84.28 0 0 0 -9,15 95.49,95.49 0 0 0 -6,16 c -2.73,2 -5.55,4.45 -5,6 0.75,2.1 7.16,1.1 20,0 23,-2 29.56,-1.09 42.63,-5.64 a 39.57,39.57 0 0 0 6,-2.36 c 16.58,-8.89 21.73,-28.55 22.64,-32 a 57.74,57.74 0 0 0 1,-23 c -0.58,-4.63 -1.42,-27.42 -3.09,-73 -1.79,-48.87 4.79,-57.35 -5.14,-79 a 77.16,77.16 0 0 0 -24.7,-28 c -21.28,-14.29 -41.75,-2.06 -97.37,-2 -40.37,0 -58.92,-6.39 -62.97,2 z"
     id="path90"
     style="fill:#00ff00" />
  <path
     class="h"
     d="m 2488.4,195.66999 a 221.47,221.47 0 0 1 -36.78,-24.74 220.06,220.06 0 0 1 -16.3,-15.15 c -2.58,-2.66 -5.11,-5.39 -7.54,-8.21 -2.43,-2.82 -4.73,-5.76 -7,-8.72 a 158.31,158.31 0 0 1 -12.4,-18.64 c -0.92,-1.63 -1.71,-3.34 -2.57,-5 -0.86,-1.66 -1.58,-3.4 -2.35,-5.12 -0.77,-1.72 -1.38,-3.48 -2.06,-5.22 -0.68,-1.74 -1.22,-3.54 -1.79,-5.33 a 144.38,144.38 0 0 1 -6.34,-44 h 0.4 c 1,7.32 2.27,14.57 3.83,21.73 a 191.65,191.65 0 0 0 5.91,21.07 c 0.59,1.73 1.24,3.42 1.86,5.13 l 2,5.06 c 0.75,1.65 1.41,3.34 2.19,5 0.78,1.66 1.53,3.3 2.39,4.89 a 143.32,143.32 0 0 0 11.54,18.58 c 2.13,3 4.31,5.92 6.62,8.74 2.31,2.82 4.72,5.6 7.2,8.3 a 217.73,217.73 0 0 0 15.72,15.41 220.43,220.43 0 0 0 35.67,25.92 z"
     id="path92"
     style="fill:#5ba307" />
  <path
     class="h"
     d="m 2480.33,295.48999 a 235,235 0 0 1 4.53,-31.44 q 1.66,-7.77 3.91,-15.41 c 1.5,-5.09 3.18,-10.13 5,-15.11 1.82,-4.98 3.77,-9.9 5.42,-14.88 a 57.46,57.46 0 0 0 2,-7.53 29.65,29.65 0 0 0 0.37,-7.63 30.35,30.35 0 0 0 -1.67,-7.42 17.39,17.39 0 0 0 -4,-6.25 c -1.77,-1.85 -3.75,-3.67 -5.59,-5.61 -1.84,-1.94 -3.62,-4 -5.33,-6 -1.71,-2 -3.31,-4.18 -4.9,-6.36 -1.59,-2.18 -2.93,-4.55 -4.25,-6.87 -2.64,-4.63 -5.08,-9.33 -7.52,-14 -2.44,-4.67 -4.8,-9.44 -7.15,-14.18 l -6.95,-14.27 c -2.26,-4.78 -4.52,-9.57 -6.73,-14.39 -2.21,-4.82 -4.38,-9.69 -6.11,-14.75 -1.73,-5.06 -3.29,-10.12 -4.65,-15.25 -1.36,-5.13 -2.46,-10.33 -3.32,-15.56 l 0.32,-0.06 c 1.36,5.11 2.79,10.19 4.46,15.2 1.67,5.01 3.39,10 5.36,14.85 1.97,4.85 4.19,9.61 6.53,14.34 2.34,4.73 4.73,9.45 7.12,14.16 l 7.06,14.2 7,14.23 c 2.34,4.73 4.68,9.47 7.18,14.08 1.26,2.3 2.54,4.58 4,6.7 1.46,2.12 3.06,4.24 4.66,6.3 1.6,2.06 3.32,4 5.1,5.94 1.78,1.94 3.66,3.71 5.51,5.72 a 20.9,20.9 0 0 1 2.56,3.3 20,20 0 0 1 1.82,3.79 33,33 0 0 1 1.68,8 31.83,31.83 0 0 1 -0.53,8.16 59.53,59.53 0 0 1 -2.14,7.78 c -1.76,5 -3.8,9.92 -5.68,14.85 -1.88,4.93 -3.76,9.88 -5.4,14.88 -1.64,5 -3,10.12 -4.21,15.25 a 232.06,232.06 0 0 0 -5.16,31.24 z"
     id="path94"
     style="fill:#5ba307" />
  <path
     class="h"
     d="m 2442.3,293.35999 a 405.51,405.51 0 0 0 22.5,-35.52 c 3.45,-6.1 6.68,-12.3 9.88,-18.55 3.2,-6.25 6.38,-12.49 9.18,-18.86 a 84.15,84.15 0 0 0 3.64,-9.69 24.43,24.43 0 0 0 1.15,-9.83 l -0.17,-1.19 c -0.09,-0.39 -0.21,-0.76 -0.32,-1.14 a 12.58,12.58 0 0 0 -0.87,-2.2 8.74,8.74 0 0 0 -0.61,-1 c -0.22,-0.32 -0.4,-0.68 -0.65,-1 l -0.78,-0.85 a 5.22,5.22 0 0 0 -0.39,-0.43 l -0.45,-0.35 c -2.38,-2 -5.64,-3 -9,-3.79 l -10.25,-2.34 c -1.72,-0.42 -3.44,-0.83 -5.15,-1.31 -1.71,-0.48 -3.42,-1 -5.11,-1.49 a 156.31,156.31 0 0 1 -19.84,-7.77 169,169 0 0 1 -18.63,-10.32 c -6,-3.8 -11.74,-7.93 -17.44,-12.06 -5.7,-4.13 -11.21,-8.69 -16.53,-13.35 -5.32,-4.66 -10.42,-9.57 -15.37,-14.62 -4.95,-5.05 -9.68,-10.31 -14.26,-15.69 -4.58,-5.38 -8.94,-10.94 -13.09,-16.64 a 294.41,294.41 0 0 1 -22.47,-35.75 l 0.42,-0.26 q 11.64,17.56 24.8,33.89 a 369.85,369.85 0 0 0 28.09,31 q 7.44,7.32 15.27,14.24 c 5.21,4.62 10.54,9.1 16.06,13.3 5.52,4.2 11.13,8.46 16.9,12.3 a 164,164 0 0 0 18,10.43 154.14,154.14 0 0 0 19.2,7.92 c 1.65,0.54 3.3,1.07 5,1.54 1.7,0.47 3.34,0.93 5,1.37 3.38,0.87 6.78,1.63 10.24,2.53 l 2.59,0.74 c 0.87,0.32 1.74,0.57 2.6,0.93 a 18.83,18.83 0 0 1 2.56,1.24 l 1.24,0.74 1.14,0.94 a 15.28,15.28 0 0 1 5.11,10.12 27.28,27.28 0 0 1 -1.49,10.91 89.28,89.28 0 0 1 -3.93,9.94 c -3,6.41 -6.34,12.59 -9.69,18.77 -3.35,6.18 -6.73,12.34 -10.34,18.37 a 403.73,403.73 0 0 1 -23.38,35.06 z"
     id="path96"
     style="fill:#5ba307" />
  <path
     class="i"
     d="m 2106.6,210.99999 15.29,-1 a 6.32,6.32 0 0 0 6.18,-6.18 c 0,-3.19 -2.84,-6.39 -6.18,-6.18 l -15.29,0.95 a 6.33,6.33 0 0 0 -6.18,6.19 c 0,3.18 2.83,6.39 6.18,6.18 z"
     id="path98"
     style="fill:#c1272d" />
  <path
     class="i"
     d="m 2486.6,204.99999 15.29,-1 a 6.32,6.32 0 0 0 6.18,-6.18 c 0,-3.19 -2.84,-6.39 -6.18,-6.18 l -15.29,0.95 a 6.33,6.33 0 0 0 -6.18,6.19 c 0,3.18 2.83,6.39 6.18,6.18 z"
     id="path100"
     style="fill:#c1272d" />
  <path
     class="h"
     d="m 2157.3,293.52999 a 143.75,143.75 0 0 0 -9.54,-33.59 129.17,129.17 0 0 0 -7.85,-15.59 119.21,119.21 0 0 0 -9.83,-14.37 c -1.83,-2.26 -3.69,-4.49 -5.62,-6.67 -1.93,-2.18 -3.91,-4.34 -5.8,-6.63 a 25.43,25.43 0 0 1 -4.8,-7.8 15.16,15.16 0 0 1 0,-9.42 15,15 0 0 1 2.16,-4.25 20.19,20.19 0 0 1 1.48,-1.84 c 0.55,-0.54 1.08,-1.13 1.67,-1.62 a 48.83,48.83 0 0 1 7.38,-5.2 c 5.1,-3 10.27,-5.7 15.23,-8.72 a 133.61,133.61 0 0 0 14.27,-9.82 123.41,123.41 0 0 0 12.73,-11.67 130.74,130.74 0 0 0 11,-13.27 152.21,152.21 0 0 0 17.16,-30 148.25,148.25 0 0 0 5.92,-16.31 150.15,150.15 0 0 0 4,-16.94 c 1.1,-5.71 1.77,-11.51 2.31,-17.34 h 0.4 a 138.63,138.63 0 0 1 -16.92,68 147.47,147.47 0 0 1 -9.57,15 122.95,122.95 0 0 1 -24.93,25.32 138.9,138.9 0 0 1 -14.84,9.75 c -5.09,3 -10.36,5.6 -15.38,8.46 a 46.14,46.14 0 0 0 -7,4.77 c -0.55,0.43 -1,0.94 -1.51,1.41 a 17.48,17.48 0 0 0 -1.3,1.55 12.79,12.79 0 0 0 -2,11.33 22.93,22.93 0 0 0 4.26,7.12 c 3.63,4.47 7.65,8.83 11.2,13.53 a 118.87,118.87 0 0 1 9.65,14.8 131.73,131.73 0 0 1 7.57,15.92 145.17,145.17 0 0 1 8.83,34 z"
     id="path102"
     style="fill:#5ba307" />
  <path
     class="h"
     d="m 2135.34,290.59999 a 244.34,244.34 0 0 1 -15.34,-27.31 l -1.66,-3.56 c -0.54,-1.19 -1,-2.41 -1.51,-3.62 l -1.48,-3.64 -1.3,-3.72 c -0.93,-2.45 -1.57,-5 -2.31,-7.53 -0.4,-1.25 -0.6,-2.56 -0.91,-3.84 -0.31,-1.28 -0.61,-2.56 -0.76,-3.87 l -0.58,-3.92 -0.31,-4 -0.07,-1 v -3 a 35.19,35.19 0 0 1 0.2,-4 46.06,46.06 0 0 1 4,-15.45 65.1,65.1 0 0 1 8.77,-13.27 c 3.32,-4.08 6.76,-8 10,-12 3.24,-4 6.35,-8.18 9.28,-12.44 1.4,-2.17 2.88,-4.28 4.2,-6.51 l 2,-3.3 1.91,-3.38 c 1.31,-2.22 2.48,-4.53 3.7,-6.81 1.22,-2.28 2.36,-4.63 3.52,-6.93 a 107.13,107.13 0 0 0 6,-14.15 117.91,117.91 0 0 0 4,-14.85 124.6,124.6 0 0 0 2,-15.3 119.64,119.64 0 0 0 0.05,-15.5 145.1,145.1 0 0 0 -1.69,-15.5 l 0.36,-0.07 a 113.44,113.44 0 0 1 3.84,31.17 108.56,108.56 0 0 1 -1.38,15.78 117.3,117.3 0 0 1 -3.74,15.44 110.88,110.88 0 0 1 -6.08,14.68 c -1.17,2.36 -2.37,4.66 -3.64,7 -1.27,2.34 -2.48,4.63 -3.86,6.88 l -2,3.39 -2.13,3.32 c -1.39,2.24 -2.95,4.37 -4.43,6.54 -3.07,4.28 -6.32,8.42 -9.7,12.43 -3.38,4.01 -6.89,7.89 -10.23,11.85 a 63.21,63.21 0 0 0 -8.67,12.6 44,44 0 0 0 -4,14.62 32.53,32.53 0 0 0 -0.26,3.82 v 1.92 1 l 0.06,1 0.22,3.85 0.5,3.83 c 0.12,1.28 0.43,2.54 0.66,3.81 0.23,1.27 0.44,2.55 0.8,3.79 0.67,2.5 1.24,5 2.11,7.47 l 1.19,3.71 1.38,3.63 c 0.48,1.21 0.91,2.44 1.41,3.64 l 1.57,3.57 a 240.78,240.78 0 0 0 14.65,27.56 z"
     id="path104"
     style="fill:#5ba307" />
  <path
     class="j"
     d="m 2457.28,57.99999 a 49.78,49.78 0 0 1 49.72,49.72 v 138.56 a 49.78,49.78 0 0 1 -49.72,49.72 h -302.56 a 49.78,49.78 0 0 1 -49.72,-49.72 v -138.56 a 49.78,49.78 0 0 1 49.72,-49.72 h 302.56 m 0,-9 h -302.56 a 58.72,58.72 0 0 0 -58.72,58.72 v 138.56 a 58.72,58.72 0 0 0 58.72,58.72 h 302.56 a 58.72,58.72 0 0 0 58.72,-58.72 v -138.56 a 58.72,58.72 0 0 0 -58.72,-58.72 z"
     id="path106"
     style="fill:#ffffff" />
  <ellipse
     class="k"
     cx="579.70001"
     cy="609.89001"
     rx="111.58"
     ry="101.4"
     id="ellipse108"
     style="fill:#998675;stroke:#bf536a;stroke-width:5.42px;stroke-miterlimit:10" />
  <ellipse
     class="l"
     cx="580.5"
     cy="608.84998"
     rx="54.98"
     ry="50.700001"
     id="ellipse110"
     style="fill:#666666;stroke:#bf536a;stroke-width:4.52px;stroke-miterlimit:10" />
  <ellipse
     class="d"
     cx="578.65997"
     cy="614.03003"
     rx="15.5"
     ry="14.49"
     id="ellipse112"
     style="fill:#201600" />
  <ellipse
     class="k"
     cx="953.69995"
     cy="608.88"
     rx="111.58"
     ry="101.4"
     id="ellipse114"
     style="fill:#998675;stroke:#bf536a;stroke-width:5.42px;stroke-miterlimit:10" />
  <ellipse
     class="l"
     cx="954.5"
     cy="607.84998"
     rx="54.98"
     ry="50.700001"
     id="ellipse116"
     style="fill:#666666;stroke:#bf536a;stroke-width:4.52px;stroke-miterlimit:10" />
  <ellipse
     class="d"
     cx="952.66003"
     cy="613.02002"
     rx="15.5"
     ry="14.49"
     id="ellipse118"
     style="fill:#201600" />
  <ellipse
     class="k"
     cx="1320.7"
     cy="599.85999"
     rx="111.58"
     ry="101.4"
     id="ellipse120"
     style="fill:#998675;stroke:#bf536a;stroke-width:5.42px;stroke-miterlimit:10" />
  <ellipse
     class="l"
     cx="1321.5"
     cy="598.82001"
     rx="54.98"
     ry="50.700001"
     id="ellipse122"
     style="fill:#666666;stroke:#bf536a;stroke-width:4.52px;stroke-miterlimit:10" />
  <ellipse
     class="d"
     cx="1319.66"
     cy="604"
     rx="15.5"
     ry="14.49"
     id="ellipse124"
     style="fill:#201600" />
  <ellipse
     class="k"
     cx="216.70001"
     cy="609.89001"
     rx="111.58"
     ry="101.4"
     id="ellipse126"
     style="fill:#998675;stroke:#bf536a;stroke-width:5.42px;stroke-miterlimit:10" />
  <ellipse
     class="l"
     cx="217.5"
     cy="608.84998"
     rx="54.98"
     ry="50.700001"
     id="ellipse128"
     style="fill:#666666;stroke:#bf536a;stroke-width:4.52px;stroke-miterlimit:10" />
  <ellipse
     class="d"
     cx="215.65997"
     cy="614.03003"
     rx="15.5"
     ry="14.49"
     id="ellipse130"
     style="fill:#201600" />
  <polygon
     class="a"
     points="901.58,732.1 526.59,799.71 529.42,815.5 904.41,747.89 "
     id="polygon132"
     style="fill:#c69c6d"
     transform="translate(-325,-160.00001)" />
  <polygon
     class="a"
     points="1646,725.66 1290.7,789.73 1294.42,810.49 1649.72,746.43 "
     id="polygon136"
     style="fill:#c69c6d"
     transform="translate(-325,-160.00001)" />
  <polygon
     class="a"
     points="904.41,747.89 901.58,732.1 526.59,799.71 529.42,815.5 "
     id="polygon132-8"
     style="fill:#c69c6d"
     transform="translate(1215.6764,-147.1531)" />
  <polygon
     class="a"
     points="1649.72,746.43 1646,725.66 1290.7,789.73 1294.42,810.49 "
     id="polygon136-0"
     style="fill:#c69c6d"
     transform="translate(1215.6764,-147.1531)" />
  <polygon
     class="a"
     points="901.58,732.1 526.59,799.71 529.42,815.5 904.41,747.89 "
     id="polygon132-8-3"
     style="fill:#c69c6d;stroke-width:1.03509"
     transform="matrix(0.88816449,0.30519588,-0.2869585,0.95226991,350.75098,-339.82531)" />
  <polygon
     class="a"
     points="529.42,815.5 904.41,747.89 901.58,732.1 526.59,799.71 "
     id="polygon132-8-3-7"
     style="fill:#c69c6d;stroke-width:1.03509"
     transform="matrix(0.88816449,0.30519588,-0.2869585,0.95226991,1925.2089,-334.9718)" />
  <rect
     class="e"
     x="0"
     y="0"
     width="1526"
     height="569.66998"
     rx="96.279999"
     id="rect138"
     style="fill:#29abe2"
     ry="96.279999" />
  <rect
     class="f"
     x="61"
     y="44.130005"
     width="420"
     height="256.75"
     rx="58.810001"
     id="rect140"
     style="fill:#fcee21"
     ry="58.810001" />
  <rect
     class="f"
     x="534"
     y="44.130005"
     width="420"
     height="256.75"
     rx="58.810001"
     id="rect142"
     style="fill:#fcee21"
     ry="58.810001" />
  <rect
     class="f"
     x="1012"
     y="44.130005"
     width="420"
     height="256.75"
     rx="58.810001"
     id="rect144"
     style="fill:#fcee21"
     ry="58.810001" />
  <path
     class="g"
     d="m 247,54.15999 a 464.72,464.72 0 0 1 -32,45.13 c -27.77,34.61 -44.62,55.62 -73,71.21 -29.57,16.24 -53.189999,16.41 -53.999999,28.08 -0.6,8.56 11.8,10.52 25.999999,32.1 a 201.85,201.85 0 0 1 17,32.09 c 6,14 12,32 12,32.1 v 0 c -7.09,-0.71 -18.2,-1.64 -32,-2 -14.239999,-0.39 -16.999999,0.2 -21.999999,-2 -16.09,-7.1 -20.95,-28 -22,-32.09 a 59.51,59.51 0 0 1 -1,-23.07 c 0.56,-4.64 1.38,-27.5 3,-73.21 1.74,-49 -4.65,-57.52 5,-79.24 9,-20.23 20.58,-26.42 24,-28.08 12.809999,-6.21 25.469999,-4.24 30.999999,-3"
     id="path146"
     style="fill:#00ff00" />
  <path
     class="g"
     d="m 283,53.15999 c -1.35,2.8 -2,9.2 30.74,43.12 37.64,39 56.09,59.25 84.36,72.21 31.69,14.53 54.74,16.69 55.56,28.09 0.62,8.55 -13.94,9.95 -26.75,32.09 -3.64,6.3 -6,12.27 -12.91,20.06 -3.88,4.38 -5.93,5.64 -10,11 a 84.59,84.59 0 0 0 -9,15.05 96.09,96.09 0 0 0 -6,16 c -2.73,2 -5.55,4.47 -5,6 0.75,2.1 7.16,1.1 20,0 23,-2 29.56,-1.09 42.63,-5.65 a 40.51,40.51 0 0 0 6,-2.37 c 16.58,-8.92 21.73,-28.64 22.64,-32.1 a 58,58 0 0 0 1,-23.06 c -0.58,-4.64 -1.42,-27.5 -3.09,-73.22 -1.79,-49 4.79,-57.52 -5.14,-79.23 a 77.31,77.31 0 0 0 -24.7,-28.08 c -21.28,-14.33 -41.75,-2.07 -97.37,-2 -40.37,0.12 -58.92,-6.32 -62.97,2.09 z"
     id="path148"
     style="fill:#00ff00" />
  <path
     class="h"
     d="m 454.4,191.23999 a 221.37,221.37 0 0 1 -36.81,-24.86 216.68,216.68 0 0 1 -16.31,-15.19 c -2.58,-2.68 -5.11,-5.42 -7.54,-8.25 -2.43,-2.83 -4.73,-5.77 -7,-8.75 a 159.68,159.68 0 0 1 -12.39,-18.69 c -0.92,-1.64 -1.71,-3.35 -2.57,-5 -0.86,-1.65 -1.57,-3.41 -2.34,-5.12 -0.77,-1.71 -1.39,-3.49 -2.05,-5.25 -0.66,-1.76 -1.23,-3.54 -1.79,-5.33 a 144.94,144.94 0 0 1 -6.33,-44.12 h 0.4 q 1.51,11 3.82,21.77 a 194.75,194.75 0 0 0 5.91,21.12 c 0.59,1.73 1.24,3.43 1.86,5.14 l 2,5.07 c 0.74,1.66 1.41,3.36 2.18,5 0.77,1.64 1.53,3.3 2.39,4.9 a 144.82,144.82 0 0 0 11.46,18.66 c 2.14,3 4.32,5.95 6.62,8.78 2.3,2.83 4.73,5.61 7.21,8.32 a 216.51,216.51 0 0 0 15.72,15.47 219.78,219.78 0 0 0 35.7,26 z"
     id="path150"
     style="fill:#5ba307" />
  <path
     class="h"
     d="m 446.33,291.33999 a 236.07,236.07 0 0 1 4.53,-31.51 q 1.67,-7.8 3.9,-15.46 2.23,-7.66 5,-15.15 c 1.81,-5 3.77,-9.93 5.42,-14.92 a 56.59,56.59 0 0 0 2,-7.55 29.37,29.37 0 0 0 0.38,-7.65 30.57,30.57 0 0 0 -1.66,-7.45 17.47,17.47 0 0 0 -4,-6.27 c -1.77,-1.86 -3.75,-3.69 -5.59,-5.63 -1.84,-1.94 -3.62,-4 -5.33,-6 -1.71,-2 -3.32,-4.19 -4.91,-6.38 -1.59,-2.19 -2.93,-4.56 -4.25,-6.89 -2.64,-4.65 -5.08,-9.36 -7.52,-14.08 -2.44,-4.72 -4.8,-9.47 -7.15,-14.23 l -7,-14.31 c -2.26,-4.8 -4.53,-9.6 -6.73,-14.44 -2.2,-4.84 -4.39,-9.72 -6.11,-14.79 -1.72,-5.07 -3.29,-10.14 -4.65,-15.29 -1.36,-5.15 -2.46,-10.35 -3.32,-15.6 l 0.32,-0.07 c 1.36,5.13 2.79,10.23 4.46,15.25 1.67,5.02 3.39,10 5.36,14.89 1.97,4.89 4.19,9.64 6.53,14.39 2.34,4.75 4.73,9.47 7.12,14.2 l 7.07,14.25 7,14.27 c 2.33,4.75 4.68,9.5 7.18,14.12 1.25,2.31 2.54,4.6 4,6.72 1.46,2.12 3,4.26 4.66,6.32 1.66,2.06 3.32,4 5.1,6 1.78,2 3.67,3.73 5.52,5.74 a 21,21 0 0 1 2.56,3.31 20.1,20.1 0 0 1 1.81,3.81 32.75,32.75 0 0 1 1.67,8.06 32,32 0 0 1 -0.53,8.18 60.29,60.29 0 0 1 -2.15,7.8 c -1.76,5 -3.8,9.94 -5.67,14.89 -1.87,4.95 -3.67,9.92 -5.28,15 -1.61,5.08 -3,10.14 -4.2,15.29 a 233.22,233.22 0 0 0 -5.16,31.32 z"
     id="path152"
     style="fill:#5ba307" />
  <path
     class="h"
     d="m 408.3,289.19999 a 402.79,402.79 0 0 0 22.48,-35.6 c 3.46,-6.11 6.68,-12.33 9.88,-18.59 3.2,-6.26 6.37,-12.52 9.18,-18.9 a 86.34,86.34 0 0 0 3.64,-9.71 24.87,24.87 0 0 0 1.18,-9.85 l -0.17,-1.19 c -0.08,-0.39 -0.21,-0.76 -0.31,-1.15 a 13,13 0 0 0 -0.86,-2.2 7.38,7.38 0 0 0 -0.6,-1 c -0.22,-0.33 -0.41,-0.67 -0.64,-1 l -0.78,-0.86 -0.38,-0.43 -0.46,-0.36 c -2.37,-2 -5.62,-3 -9,-3.82 -3.38,-0.82 -6.82,-1.53 -10.26,-2.35 -1.73,-0.42 -3.45,-0.84 -5.16,-1.32 -1.71,-0.48 -3.43,-1 -5.13,-1.49 a 156.6,156.6 0 0 1 -19.85,-7.8 169.72,169.72 0 0 1 -18.66,-10.36 c -6,-3.82 -11.74,-8 -17.45,-12.1 -5.71,-4.1 -11.2,-8.72 -16.53,-13.4 -5.33,-4.68 -10.42,-9.61 -15.33,-14.72 -4.91,-5.11 -9.68,-10.34 -14.26,-15.73 -4.58,-5.39 -8.94,-11 -13.08,-16.69 a 294.16,294.16 0 0 1 -22.46,-35.84 l 0.42,-0.25 q 11.64,17.6 24.79,34 a 369.48,369.48 0 0 0 28.09,31.07 q 7.44,7.35 15.27,14.29 c 5.21,4.63 10.54,9.13 16.07,13.34 5.53,4.21 11.13,8.49 16.9,12.35 a 167.22,167.22 0 0 0 18,10.47 153.41,153.41 0 0 0 19.22,7.99 c 1.65,0.54 3.3,1.08 5,1.54 1.7,0.46 3.35,0.94 5,1.38 3.38,0.88 6.79,1.64 10.25,2.55 0.87,0.25 1.73,0.47 2.6,0.75 0.87,0.28 1.74,0.55 2.6,0.94 a 17.79,17.79 0 0 1 2.56,1.25 c 0.41,0.25 0.83,0.49 1.23,0.76 l 1.15,0.93 a 15.45,15.45 0 0 1 5,10.18 27.45,27.45 0 0 1 -1.44,10.88 88.09,88.09 0 0 1 -3.93,10 c -3,6.42 -6.34,12.62 -9.68,18.81 -3.34,6.19 -6.74,12.37 -10.34,18.41 a 405.07,405.07 0 0 1 -23.37,35.15 z"
     id="path154"
     style="fill:#5ba307" />
  <path
     class="i"
     d="m 72.600001,206.55999 15.29,-1 a 6.34,6.34 0 0 0 6.19,-6.2 c 0,-3.18 -2.84,-6.4 -6.19,-6.19 l -15.29,1 a 6.33,6.33 0 0 0 -6.19,6.19 c 0,3.19 2.84,6.41 6.19,6.2 z"
     id="path156"
     style="fill:#c1272d" />
  <path
     class="i"
     d="m 452.6,200.53999 15.29,-1 a 6.34,6.34 0 0 0 6.19,-6.19 c 0,-3.19 -2.84,-6.41 -6.19,-6.19 l -15.29,1 a 6.33,6.33 0 0 0 -6.19,6.19 c 0,3.19 2.84,6.4 6.19,6.19 z"
     id="path158"
     style="fill:#c1272d" />
  <path
     class="h"
     d="m 123.3,289.37999 a 144.71,144.71 0 0 0 -9.53,-33.67 129.7,129.7 0 0 0 -7.85,-15.63 118.87,118.87 0 0 0 -9.829999,-14.41 c -1.82,-2.27 -3.68,-4.51 -5.62,-6.7 -1.94,-2.19 -3.91,-4.36 -5.8,-6.65 a 25.52,25.52 0 0 1 -4.8,-7.82 15.37,15.37 0 0 1 2.13,-13.7 20.32,20.32 0 0 1 1.48,-1.85 c 0.55,-0.54 1.07,-1.14 1.66,-1.62 a 47.73,47.73 0 0 1 7.39,-5.23 c 5.11,-3 10.279999,-5.73 15.249999,-8.76 a 135.57,135.57 0 0 0 14.28,-9.86 123,123 0 0 0 12.74,-11.72 c 1,-1.07 2,-2.11 2.92,-3.19 l 2.83,-3.28 c 1.84,-2.22 3.58,-4.52 5.29,-6.85 a 152.11,152.11 0 0 0 17.16,-30.07 151.76,151.76 0 0 0 6,-16.37 153.53,153.53 0 0 0 4,-17 c 1.1,-5.73 1.77,-11.54 2.31,-17.38 h 0.4 a 139.16,139.16 0 0 1 -16.9,68.18 147.45,147.45 0 0 1 -9.56,15 123.43,123.43 0 0 1 -24.94,25.41 136.89,136.89 0 0 1 -14.85,9.79 c -5.1,3 -10.379999,5.63 -15.409999,8.5 a 46,46 0 0 0 -7,4.79 c -0.55,0.43 -1,0.94 -1.51,1.41 a 19.2,19.2 0 0 0 -1.29,1.57 12.18,12.18 0 0 0 -1.85,3.51 12.7,12.7 0 0 0 -0.16,7.85 23.33,23.33 0 0 0 4.26,7.14 c 3.63,4.49 7.66,8.85 11.21,13.57 a 121.27,121.27 0 0 1 9.639999,14.85 131.48,131.48 0 0 1 7.57,16 145.78,145.78 0 0 1 8.82,34.07 z"
     id="path160"
     style="fill:#5ba307" />
  <path
     class="h"
     d="m 101.34,286.43999 a 248,248 0 0 1 -15.339999,-27.39 l -1.66,-3.57 c -0.53,-1.2 -1,-2.43 -1.51,-3.64 l -1.48,-3.65 -1.29,-3.72 c -0.93,-2.47 -1.58,-5 -2.31,-7.56 -0.4,-1.25 -0.6,-2.56 -0.91,-3.85 -0.31,-1.29 -0.61,-2.57 -0.77,-3.88 l -0.58,-3.93 -0.3,-4 -0.07,-1 v -3 a 35.54,35.54 0 0 1 0.2,-4 46.26,46.26 0 0 1 4,-15.49 65.42,65.42 0 0 1 8.78,-13.31 c 3.32,-4.09 6.76,-8 10,-12.07 3.239999,-4.07 6.359999,-8.2 9.279999,-12.48 1.41,-2.17 2.89,-4.3 4.2,-6.53 l 2,-3.32 1.91,-3.38 c 1.32,-2.23 2.49,-4.55 3.7,-6.84 1.21,-2.29 2.37,-4.64 3.53,-6.95 a 108.15,108.15 0 0 0 6,-14.19 115.63,115.63 0 0 0 4,-14.89 125.24,125.24 0 0 0 2,-15.34 122.08,122.08 0 0 0 0,-15.54 145.56,145.56 0 0 0 -1.69,-15.54 l 0.36,-0.07 a 114,114 0 0 1 3.84,31.25 109.11,109.11 0 0 1 -1.23,15.88 116.13,116.13 0 0 1 -3.73,15.47 112.85,112.85 0 0 1 -6.07,14.73 c -1.18,2.37 -2.37,4.68 -3.64,7 -1.27,2.32 -2.49,4.65 -3.86,6.9 l -2,3.4 -2.14,3.34 c -1.38,2.24 -2.94,4.38 -4.42,6.56 -3.08,4.29 -6.33,8.45 -9.71,12.47 -3.379999,4.02 -6.899999,7.93 -10.229999,11.89 a 62.76,62.76 0 0 0 -8.68,12.65 44.26,44.26 0 0 0 -4.05,14.66 35,35 0 0 0 -0.25,3.83 v 1.93 1 l 0.06,1 0.22,3.85 0.5,3.84 c 0.12,1.29 0.43,2.55 0.66,3.82 0.23,1.27 0.44,2.56 0.8,3.8 0.67,2.51 1.24,5 2.1,7.5 l 1.2,3.71 1.38,3.65 c 0.47,1.21 0.91,2.44 1.41,3.64 l 1.57,3.58 a 242,242 0 0 0 14.649999,27.65 z"
     id="path162"
     style="fill:#5ba307" />
  <path
     class="j"
     d="m 423.19,53.13999 a 49.86,49.86 0 0 1 49.8,49.8 v 139.13 a 49.86,49.86 0 0 1 -49.8,49.8 H 120.81 a 49.86,49.86 0 0 1 -49.799999,-49.8 v -139.13 a 49.86,49.86 0 0 1 49.799999,-49.8 h 302.38 m 0,-9 H 120.81 a 58.81,58.81 0 0 0 -58.809999,58.8 v 139.13 a 58.81,58.81 0 0 0 58.809999,58.81 h 302.38 a 58.81,58.81 0 0 0 58.81,-58.81 v -139.13 a 58.81,58.81 0 0 0 -58.81,-58.81 z"
     id="path164"
     style="fill:#ffffff" />
  <path
     class="g"
     d="m 1197,54.15999 a 464.72,464.72 0 0 1 -32,45.13 c -27.77,34.61 -44.62,55.62 -73,71.21 -29.57,16.24 -53.19,16.41 -54,28.08 -0.6,8.56 11.8,10.52 26,32.1 a 201.85,201.85 0 0 1 17,32.09 c 6,14 12,32 12,32.1 v 0 c -7.09,-0.71 -18.2,-1.64 -32,-2 -14.24,-0.39 -17,0.2 -22,-2 -16.09,-7.1 -21,-28 -22,-32.09 a 59.51,59.51 0 0 1 -1,-23.07 c 0.56,-4.64 1.38,-27.5 3,-73.21 1.74,-49 -4.65,-57.52 5,-79.24 9,-20.23 20.58,-26.42 24,-28.08 12.81,-6.21 25.47,-4.24 31,-3"
     id="path166"
     style="fill:#00ff00" />
  <path
     class="g"
     d="m 1233,53.15999 c -1.35,2.8 -2,9.2 30.74,43.12 37.64,39 56.09,59.25 84.36,72.21 31.69,14.53 54.74,16.69 55.56,28.09 0.62,8.55 -13.94,9.95 -26.75,32.09 -3.64,6.3 -6,12.27 -12.91,20.06 -3.88,4.38 -5.93,5.64 -10,11 a 84.59,84.59 0 0 0 -9,15.05 96.09,96.09 0 0 0 -6,16 c -2.73,2 -5.55,4.47 -5,6 0.75,2.1 7.16,1.1 20,0 23,-2 29.56,-1.09 42.63,-5.65 a 40.51,40.51 0 0 0 6,-2.37 c 16.58,-8.92 21.73,-28.64 22.64,-32.1 a 58,58 0 0 0 1,-23.06 c -0.58,-4.64 -1.42,-27.5 -3.09,-73.22 -1.79,-49 4.79,-57.52 -5.14,-79.23 a 77.31,77.31 0 0 0 -24.7,-28.08 c -21.28,-14.33 -41.75,-2.07 -97.37,-2 -40.37,0.12 -58.92,-6.32 -62.97,2.09 z"
     id="path168"
     style="fill:#00ff00" />
  <path
     class="h"
     d="m 1404.4,191.23999 a 221.37,221.37 0 0 1 -36.81,-24.86 216.68,216.68 0 0 1 -16.31,-15.19 c -2.58,-2.68 -5.11,-5.42 -7.54,-8.25 -2.43,-2.83 -4.73,-5.77 -7,-8.75 a 159.68,159.68 0 0 1 -12.39,-18.69 c -0.92,-1.64 -1.71,-3.35 -2.57,-5 -0.86,-1.65 -1.57,-3.41 -2.34,-5.12 -0.77,-1.71 -1.39,-3.49 -2,-5.25 -0.61,-1.76 -1.23,-3.54 -1.79,-5.33 a 144.94,144.94 0 0 1 -6.33,-44.12 h 0.4 q 1.52,11 3.82,21.77 a 194.75,194.75 0 0 0 5.91,21.12 c 0.59,1.73 1.24,3.43 1.86,5.14 l 2,5.07 c 0.74,1.66 1.41,3.36 2.18,5 0.77,1.64 1.53,3.3 2.39,4.9 a 144.82,144.82 0 0 0 11.46,18.66 c 2.14,3 4.32,5.95 6.62,8.78 2.3,2.83 4.73,5.61 7.21,8.32 a 216.51,216.51 0 0 0 15.72,15.47 219.78,219.78 0 0 0 35.7,26 z"
     id="path170"
     style="fill:#5ba307" />
  <path
     class="h"
     d="m 1396.33,291.33999 a 236.07,236.07 0 0 1 4.53,-31.51 q 1.67,-7.8 3.9,-15.46 2.23,-7.66 5,-15.15 c 1.81,-5 3.77,-9.93 5.42,-14.92 a 56.59,56.59 0 0 0 1.95,-7.55 29.37,29.37 0 0 0 0.38,-7.65 30.57,30.57 0 0 0 -1.66,-7.45 17.47,17.47 0 0 0 -4,-6.27 c -1.77,-1.86 -3.75,-3.69 -5.59,-5.63 -1.84,-1.94 -3.62,-4 -5.33,-6 -1.71,-2 -3.32,-4.19 -4.91,-6.38 -1.59,-2.19 -2.93,-4.56 -4.25,-6.89 -2.64,-4.65 -5.08,-9.36 -7.52,-14.08 -2.44,-4.72 -4.8,-9.47 -7.15,-14.23 l -6.95,-14.31 c -2.26,-4.8 -4.53,-9.6 -6.73,-14.44 -2.2,-4.84 -4.39,-9.72 -6.11,-14.79 -1.72,-5.07 -3.29,-10.14 -4.65,-15.29 -1.36,-5.15 -2.46,-10.35 -3.32,-15.6 l 0.32,-0.07 c 1.36,5.13 2.79,10.23 4.46,15.25 1.67,5.02 3.39,10 5.36,14.89 1.97,4.89 4.19,9.64 6.53,14.39 2.34,4.75 4.73,9.47 7.12,14.2 l 7.07,14.25 7,14.27 c 2.33,4.75 4.68,9.5 7.18,14.12 1.25,2.31 2.54,4.6 4,6.72 1.46,2.12 3.05,4.26 4.66,6.32 1.61,2.06 3.32,4 5.1,6 1.78,2 3.67,3.73 5.52,5.74 a 21,21 0 0 1 2.56,3.31 20.1,20.1 0 0 1 1.81,3.81 32.75,32.75 0 0 1 1.67,8.06 32,32 0 0 1 -0.53,8.18 60.29,60.29 0 0 1 -2.15,7.8 c -1.76,5 -3.8,9.94 -5.67,14.89 -1.87,4.95 -3.67,9.92 -5.28,15 -1.61,5.08 -3,10.14 -4.2,15.29 a 233.22,233.22 0 0 0 -5.16,31.32 z"
     id="path172"
     style="fill:#5ba307" />
  <path
     class="h"
     d="m 1358.3,289.19999 a 402.79,402.79 0 0 0 22.48,-35.6 c 3.46,-6.11 6.68,-12.33 9.88,-18.59 3.2,-6.26 6.37,-12.52 9.18,-18.9 a 86.34,86.34 0 0 0 3.64,-9.71 24.87,24.87 0 0 0 1.18,-9.85 l -0.17,-1.19 c -0.08,-0.39 -0.21,-0.76 -0.31,-1.15 a 13,13 0 0 0 -0.86,-2.2 7.38,7.38 0 0 0 -0.6,-1 c -0.22,-0.33 -0.41,-0.67 -0.64,-1 l -0.78,-0.86 -0.38,-0.43 -0.46,-0.36 c -2.37,-2 -5.62,-3 -9,-3.82 -3.38,-0.82 -6.82,-1.53 -10.26,-2.35 -1.73,-0.42 -3.45,-0.84 -5.16,-1.32 -1.71,-0.48 -3.43,-1 -5.13,-1.49 a 156.6,156.6 0 0 1 -19.85,-7.8 169.72,169.72 0 0 1 -18.66,-10.36 c -6,-3.82 -11.74,-8 -17.45,-12.1 -5.71,-4.1 -11.2,-8.72 -16.53,-13.4 -5.33,-4.68 -10.42,-9.6 -15.37,-14.67 -4.95,-5.07 -9.68,-10.34 -14.26,-15.73 -4.58,-5.39 -8.94,-11 -13.08,-16.69 a 294.16,294.16 0 0 1 -22.46,-35.84 l 0.42,-0.25 q 11.64,17.6 24.79,34 a 369.48,369.48 0 0 0 28.09,31.07 q 7.44,7.35 15.27,14.29 c 5.21,4.63 10.54,9.13 16.07,13.34 5.53,4.21 11.13,8.49 16.9,12.35 a 167.22,167.22 0 0 0 18,10.47 153.41,153.41 0 0 0 19.23,7.94 c 1.65,0.54 3.3,1.08 5,1.54 1.7,0.46 3.35,0.94 5,1.38 3.38,0.88 6.79,1.64 10.25,2.55 0.87,0.25 1.73,0.47 2.6,0.75 0.87,0.28 1.74,0.55 2.6,0.94 a 17.79,17.79 0 0 1 2.56,1.25 c 0.41,0.25 0.83,0.49 1.23,0.76 l 1.15,0.93 a 15.45,15.45 0 0 1 5,10.18 27.45,27.45 0 0 1 -1.46,10.92 88.09,88.09 0 0 1 -3.93,10 c -3,6.42 -6.34,12.62 -9.68,18.81 -3.34,6.19 -6.74,12.37 -10.34,18.41 a 405.07,405.07 0 0 1 -23.37,35.15 z"
     id="path174"
     style="fill:#5ba307" />
  <path
     class="i"
     d="m 1022.6,206.55999 15.29,-1 a 6.34,6.34 0 0 0 6.19,-6.2 c 0,-3.18 -2.84,-6.4 -6.19,-6.19 l -15.29,1 a 6.33,6.33 0 0 0 -6.19,6.19 c 0,3.19 2.84,6.41 6.19,6.2 z"
     id="path176"
     style="fill:#c1272d" />
  <path
     class="i"
     d="m 1402.6,200.53999 15.29,-1 a 6.34,6.34 0 0 0 6.19,-6.19 c 0,-3.19 -2.84,-6.41 -6.19,-6.19 l -15.29,1 a 6.33,6.33 0 0 0 -6.19,6.19 c 0,3.19 2.84,6.4 6.19,6.19 z"
     id="path178"
     style="fill:#c1272d" />
  <path
     class="h"
     d="m 1073.3,289.37999 a 144.71,144.71 0 0 0 -9.53,-33.67 129.7,129.7 0 0 0 -7.85,-15.63 118.87,118.87 0 0 0 -9.83,-14.41 c -1.82,-2.27 -3.68,-4.51 -5.62,-6.7 -1.94,-2.19 -3.9,-4.36 -5.8,-6.65 a 25.52,25.52 0 0 1 -4.8,-7.82 15.37,15.37 0 0 1 2.17,-13.7 20.32,20.32 0 0 1 1.48,-1.85 c 0.55,-0.54 1.07,-1.14 1.66,-1.62 a 47.73,47.73 0 0 1 7.39,-5.23 c 5.11,-3 10.28,-5.73 15.25,-8.76 a 135.57,135.57 0 0 0 14.28,-9.86 123,123 0 0 0 12.74,-11.72 c 1,-1.07 2,-2.11 2.92,-3.19 l 2.83,-3.28 c 1.84,-2.22 3.58,-4.52 5.29,-6.85 a 152.11,152.11 0 0 0 17.12,-30.07 151.76,151.76 0 0 0 6,-16.37 153.53,153.53 0 0 0 4,-17 c 1.1,-5.73 1.77,-11.54 2.31,-17.38 h 0.4 a 139.16,139.16 0 0 1 -16.9,68.18 147.45,147.45 0 0 1 -9.56,15 123.43,123.43 0 0 1 -24.94,25.41 136.89,136.89 0 0 1 -14.85,9.79 c -5.1,3 -10.38,5.63 -15.41,8.5 a 46,46 0 0 0 -7,4.79 c -0.55,0.43 -1,0.94 -1.51,1.41 a 19.2,19.2 0 0 0 -1.29,1.57 12.18,12.18 0 0 0 -1.85,3.51 12.7,12.7 0 0 0 -0.16,7.85 23.33,23.33 0 0 0 4.26,7.14 c 3.64,4.49 7.66,8.85 11.21,13.57 a 121.27,121.27 0 0 1 9.64,14.85 131.48,131.48 0 0 1 7.57,16 145.78,145.78 0 0 1 8.82,34.07 z"
     id="path180"
     style="fill:#5ba307" />
  <path
     class="h"
     d="m 1051.34,286.43999 a 248,248 0 0 1 -15.34,-27.39 l -1.66,-3.57 c -0.53,-1.2 -1,-2.43 -1.5,-3.64 l -1.49,-3.65 -1.29,-3.72 c -0.93,-2.47 -1.58,-5 -2.31,-7.56 -0.4,-1.25 -0.6,-2.56 -0.91,-3.85 -0.31,-1.29 -0.61,-2.57 -0.77,-3.88 l -0.58,-3.93 -0.3,-4 -0.07,-1 v -3 a 35.54,35.54 0 0 1 0.2,-4 46.26,46.26 0 0 1 4,-15.49 65.42,65.42 0 0 1 8.78,-13.31 c 3.32,-4.09 6.76,-8 10,-12.07 3.24,-4.07 6.36,-8.2 9.28,-12.48 1.41,-2.17 2.89,-4.3 4.2,-6.53 l 2,-3.32 1.91,-3.38 c 1.32,-2.23 2.49,-4.55 3.7,-6.84 1.21,-2.29 2.37,-4.64 3.53,-6.95 a 108.15,108.15 0 0 0 6,-14.19 115.63,115.63 0 0 0 4,-14.89 125.24,125.24 0 0 0 2,-15.34 122.08,122.08 0 0 0 0,-15.54 145.56,145.56 0 0 0 -1.69,-15.54 l 0.36,-0.07 a 114,114 0 0 1 3.84,31.25 109.11,109.11 0 0 1 -1.38,15.82 116.13,116.13 0 0 1 -3.73,15.47 112.85,112.85 0 0 1 -6.07,14.73 c -1.18,2.37 -2.37,4.68 -3.64,7 -1.27,2.32 -2.49,4.65 -3.86,6.9 l -2,3.4 -2.14,3.34 c -1.38,2.24 -2.94,4.38 -4.42,6.56 -3.08,4.29 -6.33,8.45 -9.71,12.47 -3.38,4.02 -6.9,7.93 -10.23,11.89 a 62.76,62.76 0 0 0 -8.68,12.65 44.26,44.26 0 0 0 -4,14.66 35,35 0 0 0 -0.25,3.83 v 1.93 1 l 0.06,1 0.22,3.85 0.5,3.84 c 0.12,1.29 0.43,2.55 0.66,3.82 0.23,1.27 0.44,2.56 0.8,3.8 0.67,2.51 1.24,5 2.1,7.5 l 1.2,3.71 1.38,3.65 c 0.47,1.21 0.91,2.44 1.41,3.64 l 1.57,3.58 a 242,242 0 0 0 14.65,27.65 z"
     id="path182"
     style="fill:#5ba307" />
  <path
     class="j"
     d="m 1373.19,53.13999 a 49.86,49.86 0 0 1 49.8,49.8 v 139.13 a 49.86,49.86 0 0 1 -49.8,49.8 h -302.38 a 49.86,49.86 0 0 1 -49.8,-49.8 v -139.13 a 49.86,49.86 0 0 1 49.8,-49.8 h 302.38 m 0,-9 h -302.38 a 58.81,58.81 0 0 0 -58.81,58.8 v 139.13 a 58.81,58.81 0 0 0 58.81,58.81 h 302.38 a 58.81,58.81 0 0 0 58.81,-58.81 v -139.13 a 58.81,58.81 0 0 0 -58.81,-58.81 z"
     id="path184"
     style="fill:#ffffff" />
  <path
     class="g"
     d="m 719,54.15999 a 464.72,464.72 0 0 1 -32,45.13 c -27.77,34.61 -44.62,55.62 -73,71.21 -29.57,16.24 -53.19,16.41 -54,28.08 -0.6,8.56 11.8,10.52 26,32.1 a 201.85,201.85 0 0 1 17,32.09 c 6,14 12,32 12,32.1 v 0 c -7.09,-0.71 -18.2,-1.64 -32,-2 -14.24,-0.39 -17,0.2 -22,-2 -16.09,-7.1 -21,-28 -22,-32.09 a 59.51,59.51 0 0 1 -1,-23.07 c 0.56,-4.64 1.38,-27.5 3,-73.21 1.74,-49 -4.65,-57.52 5,-79.24 9,-20.23 20.58,-26.42 24,-28.08 12.81,-6.21 25.47,-4.24 31,-3"
     id="path186"
     style="fill:#00ff00" />
  <path
     class="g"
     d="m 755,53.15999 c -1.35,2.8 -2,9.2 30.74,43.12 37.64,39 56.09,59.25 84.36,72.21 31.69,14.53 54.74,16.69 55.56,28.09 0.62,8.55 -13.94,9.95 -26.75,32.09 -3.64,6.3 -6,12.27 -12.91,20.06 -3.88,4.38 -5.93,5.64 -10,11 a 84.59,84.59 0 0 0 -9,15.05 96.09,96.09 0 0 0 -6,16 c -2.73,2 -5.55,4.47 -5,6 0.75,2.1 7.16,1.1 20,0 23,-2 29.56,-1.09 42.63,-5.65 a 40.51,40.51 0 0 0 6,-2.37 c 16.58,-8.92 21.73,-28.64 22.64,-32.1 a 58,58 0 0 0 1,-23.06 c -0.58,-4.64 -1.42,-27.5 -3.09,-73.22 -1.79,-49 4.79,-57.52 -5.14,-79.23 a 77.31,77.31 0 0 0 -24.7,-28.08 c -21.28,-14.33 -41.75,-2.07 -97.37,-2 -40.37,0.12 -58.92,-6.32 -62.97,2.09 z"
     id="path188"
     style="fill:#00ff00" />
  <path
     class="h"
     d="m 926.4,191.23999 a 221.37,221.37 0 0 1 -36.81,-24.86 216.68,216.68 0 0 1 -16.31,-15.19 c -2.58,-2.68 -5.11,-5.42 -7.54,-8.25 -2.43,-2.83 -4.73,-5.77 -7,-8.75 a 159.68,159.68 0 0 1 -12.39,-18.69 c -0.92,-1.64 -1.71,-3.35 -2.57,-5 -0.86,-1.65 -1.57,-3.41 -2.34,-5.12 -0.77,-1.71 -1.39,-3.49 -2,-5.25 -0.61,-1.76 -1.23,-3.54 -1.79,-5.33 a 144.94,144.94 0 0 1 -6.33,-44.12 h 0.4 q 1.52,11 3.82,21.77 a 194.75,194.75 0 0 0 5.91,21.12 c 0.59,1.73 1.24,3.43 1.86,5.14 l 2,5.07 c 0.74,1.66 1.41,3.36 2.18,5 0.77,1.64 1.53,3.3 2.39,4.9 a 144.82,144.82 0 0 0 11.46,18.66 c 2.14,3 4.32,5.95 6.62,8.78 2.3,2.83 4.73,5.61 7.21,8.32 a 216.51,216.51 0 0 0 15.72,15.47 219.78,219.78 0 0 0 35.7,26 z"
     id="path190"
     style="fill:#5ba307" />
  <path
     class="h"
     d="m 918.33,291.33999 a 236.07,236.07 0 0 1 4.53,-31.51 q 1.67,-7.8 3.9,-15.46 2.23,-7.66 5,-15.15 c 1.81,-5 3.77,-9.93 5.42,-14.92 a 56.59,56.59 0 0 0 1.95,-7.55 29.37,29.37 0 0 0 0.38,-7.65 30.57,30.57 0 0 0 -1.66,-7.45 17.47,17.47 0 0 0 -4,-6.27 c -1.77,-1.86 -3.75,-3.69 -5.59,-5.63 -1.84,-1.94 -3.62,-4 -5.33,-6 -1.71,-2 -3.32,-4.19 -4.91,-6.38 -1.59,-2.19 -2.93,-4.56 -4.25,-6.89 -2.64,-4.65 -5.08,-9.36 -7.52,-14.08 -2.44,-4.72 -4.8,-9.47 -7.15,-14.23 l -6.95,-14.31 c -2.26,-4.8 -4.53,-9.6 -6.73,-14.44 -2.2,-4.84 -4.39,-9.72 -6.11,-14.79 -1.72,-5.07 -3.29,-10.14 -4.65,-15.29 -1.36,-5.15 -2.46,-10.35 -3.32,-15.6 l 0.32,-0.07 c 1.36,5.13 2.79,10.23 4.46,15.25 1.67,5.02 3.39,10 5.36,14.89 1.97,4.89 4.19,9.64 6.53,14.39 2.34,4.75 4.73,9.47 7.12,14.2 l 7.07,14.25 7,14.27 c 2.33,4.75 4.68,9.5 7.18,14.12 1.25,2.31 2.54,4.6 4,6.72 1.46,2.12 3.05,4.26 4.66,6.32 1.61,2.06 3.32,4 5.1,6 1.78,2 3.67,3.73 5.52,5.74 a 21,21 0 0 1 2.56,3.31 20.1,20.1 0 0 1 1.81,3.81 32.75,32.75 0 0 1 1.67,8.06 32,32 0 0 1 -0.53,8.18 60.29,60.29 0 0 1 -2.15,7.8 c -1.76,5 -3.8,9.94 -5.67,14.89 -1.87,4.95 -3.67,9.92 -5.28,15 -1.61,5.08 -3,10.14 -4.2,15.29 a 233.22,233.22 0 0 0 -5.16,31.32 z"
     id="path192"
     style="fill:#5ba307" />
  <path
     class="h"
     d="m 880.3,289.19999 a 402.79,402.79 0 0 0 22.48,-35.6 c 3.46,-6.11 6.68,-12.33 9.88,-18.59 3.2,-6.26 6.37,-12.52 9.18,-18.9 a 86.34,86.34 0 0 0 3.64,-9.71 24.87,24.87 0 0 0 1.18,-9.85 l -0.17,-1.19 c -0.08,-0.39 -0.21,-0.76 -0.31,-1.15 a 13,13 0 0 0 -0.86,-2.2 7.38,7.38 0 0 0 -0.6,-1 c -0.22,-0.33 -0.41,-0.67 -0.64,-1 l -0.78,-0.86 -0.38,-0.43 -0.46,-0.36 c -2.37,-2 -5.62,-3 -9,-3.82 -3.38,-0.82 -6.82,-1.53 -10.26,-2.35 -1.73,-0.42 -3.45,-0.84 -5.16,-1.32 -1.71,-0.48 -3.43,-1 -5.13,-1.49 a 156.6,156.6 0 0 1 -19.85,-7.8 169.72,169.72 0 0 1 -18.66,-10.36 c -6,-3.82 -11.74,-8 -17.45,-12.1 -5.71,-4.1 -11.2,-8.72 -16.53,-13.4 -5.33,-4.68 -10.42,-9.6 -15.37,-14.67 -4.95,-5.07 -9.68,-10.34 -14.26,-15.73 -4.58,-5.39 -8.94,-11 -13.08,-16.69 a 294.16,294.16 0 0 1 -22.46,-35.84 l 0.42,-0.25 q 11.64,17.6 24.79,34 a 369.48,369.48 0 0 0 28.09,31.07 q 7.44,7.35 15.27,14.29 c 5.21,4.63 10.54,9.13 16.07,13.34 5.53,4.21 11.13,8.49 16.9,12.35 a 167.22,167.22 0 0 0 18,10.47 153.41,153.41 0 0 0 19.23,7.94 c 1.65,0.54 3.3,1.08 5,1.54 1.7,0.46 3.35,0.94 5,1.38 3.38,0.88 6.79,1.64 10.25,2.55 0.87,0.25 1.73,0.47 2.6,0.75 0.87,0.28 1.74,0.55 2.6,0.94 a 17.79,17.79 0 0 1 2.56,1.25 c 0.41,0.25 0.83,0.49 1.23,0.76 l 1.15,0.93 a 15.45,15.45 0 0 1 5,10.18 27.45,27.45 0 0 1 -1.46,10.92 88.09,88.09 0 0 1 -3.93,10 c -3,6.42 -6.34,12.62 -9.68,18.81 -3.34,6.19 -6.74,12.37 -10.34,18.41 a 405.07,405.07 0 0 1 -23.37,35.15 z"
     id="path194"
     style="fill:#5ba307" />
  <path
     class="i"
     d="m 544.6,206.55999 15.29,-1 a 6.34,6.34 0 0 0 6.19,-6.2 c 0,-3.18 -2.84,-6.4 -6.19,-6.19 l -15.29,1 a 6.33,6.33 0 0 0 -6.19,6.19 c 0,3.19 2.84,6.41 6.19,6.2 z"
     id="path196"
     style="fill:#c1272d" />
  <path
     class="i"
     d="m 924.6,200.53999 15.29,-1 a 6.34,6.34 0 0 0 6.19,-6.19 c 0,-3.19 -2.84,-6.41 -6.19,-6.19 l -15.29,1 a 6.33,6.33 0 0 0 -6.19,6.19 c 0,3.19 2.84,6.4 6.19,6.19 z"
     id="path198"
     style="fill:#c1272d" />
  <path
     class="h"
     d="m 595.3,289.37999 a 144.71,144.71 0 0 0 -9.53,-33.67 129.7,129.7 0 0 0 -7.85,-15.63 118.87,118.87 0 0 0 -9.83,-14.41 c -1.82,-2.27 -3.68,-4.51 -5.62,-6.7 -1.94,-2.19 -3.9,-4.36 -5.8,-6.65 a 25.52,25.52 0 0 1 -4.8,-7.82 15.37,15.37 0 0 1 2.13,-13.7 20.32,20.32 0 0 1 1.48,-1.85 c 0.55,-0.54 1.07,-1.14 1.66,-1.62 a 47.73,47.73 0 0 1 7.39,-5.23 c 5.11,-3 10.28,-5.73 15.25,-8.76 a 135.57,135.57 0 0 0 14.28,-9.86 123,123 0 0 0 12.74,-11.72 c 1,-1.07 2,-2.11 2.92,-3.19 l 2.83,-3.28 c 1.84,-2.22 3.58,-4.52 5.29,-6.85 a 152.11,152.11 0 0 0 17.16,-30.07 151.76,151.76 0 0 0 6,-16.37 153.53,153.53 0 0 0 4,-17 c 1.1,-5.73 1.77,-11.54 2.31,-17.38 h 0.4 a 139.16,139.16 0 0 1 -16.9,68.18 147.45,147.45 0 0 1 -9.56,15 123.43,123.43 0 0 1 -24.94,25.41 136.89,136.89 0 0 1 -14.85,9.79 c -5.1,3 -10.38,5.63 -15.41,8.5 a 46,46 0 0 0 -7,4.79 c -0.55,0.43 -1,0.94 -1.51,1.41 a 19.2,19.2 0 0 0 -1.29,1.57 12.18,12.18 0 0 0 -1.85,3.51 12.7,12.7 0 0 0 -0.16,7.85 23.33,23.33 0 0 0 4.26,7.14 c 3.64,4.49 7.66,8.85 11.21,13.57 a 121.27,121.27 0 0 1 9.64,14.85 131.48,131.48 0 0 1 7.57,16 145.78,145.78 0 0 1 8.82,34.07 z"
     id="path200"
     style="fill:#5ba307" />
  <path
     class="h"
     d="m 573.34,286.43999 a 248,248 0 0 1 -15.34,-27.39 l -1.66,-3.57 c -0.53,-1.2 -1,-2.43 -1.5,-3.64 l -1.49,-3.65 -1.29,-3.72 c -0.93,-2.47 -1.58,-5 -2.31,-7.56 -0.4,-1.25 -0.6,-2.56 -0.91,-3.85 -0.31,-1.29 -0.61,-2.57 -0.77,-3.88 l -0.58,-3.93 -0.3,-4 -0.07,-1 v -3 a 35.54,35.54 0 0 1 0.2,-4 46.26,46.26 0 0 1 4,-15.49 65.42,65.42 0 0 1 8.78,-13.31 c 3.32,-4.09 6.76,-8 10,-12.07 3.24,-4.07 6.36,-8.2 9.28,-12.48 1.41,-2.17 2.89,-4.3 4.2,-6.53 l 2,-3.32 1.91,-3.38 c 1.32,-2.23 2.49,-4.55 3.7,-6.84 1.21,-2.29 2.37,-4.64 3.53,-6.95 a 108.15,108.15 0 0 0 6,-14.19 115.63,115.63 0 0 0 4,-14.89 125.24,125.24 0 0 0 2,-15.34 122.08,122.08 0 0 0 0.05,-15.54 145.56,145.56 0 0 0 -1.69,-15.54 l 0.36,-0.07 a 114,114 0 0 1 3.84,31.25 109.11,109.11 0 0 1 -1.28,15.88 116.13,116.13 0 0 1 -3.73,15.47 112.85,112.85 0 0 1 -6.07,14.73 c -1.18,2.37 -2.37,4.68 -3.64,7 -1.27,2.32 -2.49,4.65 -3.86,6.9 l -2,3.4 -2.14,3.34 c -1.38,2.24 -2.94,4.38 -4.42,6.56 -3.08,4.29 -6.33,8.45 -9.71,12.47 -3.38,4.02 -6.9,7.93 -10.23,11.89 a 62.76,62.76 0 0 0 -8.68,12.65 44.26,44.26 0 0 0 -4.05,14.66 35,35 0 0 0 -0.25,3.83 v 1.93 1 l 0.06,1 0.22,3.85 0.5,3.84 c 0.12,1.29 0.43,2.55 0.66,3.82 0.23,1.27 0.44,2.56 0.8,3.8 0.67,2.51 1.24,5 2.1,7.5 l 1.2,3.71 1.38,3.65 c 0.47,1.21 0.91,2.44 1.41,3.64 l 1.57,3.58 a 242,242 0 0 0 14.65,27.65 z"
     id="path202"
     style="fill:#5ba307" />
  <path
     class="j"
     d="m 895.19,53.13999 a 49.86,49.86 0 0 1 49.8,49.8 v 139.13 a 49.86,49.86 0 0 1 -49.8,49.8 H 592.81 a 49.86,49.86 0 0 1 -49.8,-49.8 v -139.13 a 49.86,49.86 0 0 1 49.8,-49.8 h 302.38 m 0,-9 H 592.81 a 58.81,58.81 0 0 0 -58.81,58.8 v 139.13 a 58.81,58.81 0 0 0 58.81,58.81 h 302.38 a 58.81,58.81 0 0 0 58.81,-58.81 v -139.13 a 58.81,58.81 0 0 0 -58.81,-58.81 z"
     id="path204"
     style="fill:#ffffff" />
</svg>
