<?xml version="1.0" encoding="UTF-8" standalone="no"?>
<svg
   viewBox="0 0 752.11998 443.70808"
   version="1.1"
   id="svg126"
   sodipodi:docname="train.svg"
   width="752.12"
   height="443.7081"
   inkscape:version="1.2.1 (9c6d41e410, 2022-07-14)"
   xmlns:inkscape="http://www.inkscape.org/namespaces/inkscape"
   xmlns:sodipodi="http://sodipodi.sourceforge.net/DTD/sodipodi-0.dtd"
   xmlns="http://www.w3.org/2000/svg"
   xmlns:svg="http://www.w3.org/2000/svg">
  <sodipodi:namedview
     id="namedview128"
     pagecolor="#ffffff"
     bordercolor="#000000"
     borderopacity="0.25"
     inkscape:showpageshadow="2"
     inkscape:pageopacity="0.0"
     inkscape:pagecheckerboard="0"
     inkscape:deskcolor="#d1d1d1"
     showgrid="false"
     inkscape:zoom="1.3136675"
     inkscape:cx="199.82226"
     inkscape:cy="174.32113"
     inkscape:window-width="1920"
     inkscape:window-height="1011"
     inkscape:window-x="0"
     inkscape:window-y="0"
     inkscape:window-maximized="1"
     inkscape:current-layer="svg126" />
  <defs
     id="defs4">
    <style
       id="style2">.cls-1{fill:#874d08;stroke-width:0.97px;}.cls-1,.cls-17,.cls-2,.cls-4,.cls-5{stroke:#dc536c;}.cls-1,.cls-10,.cls-16,.cls-17,.cls-2,.cls-4,.cls-5,.cls-6,.cls-7,.cls-8,.cls-9{stroke-miterlimit:10;}.cls-2,.cls-4,.cls-5{fill:#ffdc37;}.cls-3{fill:#231300;}.cls-4{stroke-width:1.56px;}.cls-5{stroke-width:1.57px;}.cls-6,.cls-9{fill:#2cc697;stroke:#00a79d;}.cls-6{stroke-width:4px;}.cls-7{fill:#fbb040;stroke:#f26522;stroke-width:1.18px;}.cls-8{fill:#d7df23;stroke:#ec008c;}.cls-9{stroke-width:7px;}.cls-10{fill:none;stroke:#754c29;}.cls-11{fill:#754c29;}.cls-12{fill:#f36543;}.cls-13{fill:#ffff39;}.cls-14{fill:#654834;}.cls-15{fill:#5e5b58;}.cls-16{fill:#00a79d;stroke:#fda94e;stroke-width:0.9px;}.cls-17{fill:#08fff8;}.cls-18{fill:#9b8579;}.cls-19{fill:#ec008c;}.cls-20{fill:#d1d3d4;}</style>
  </defs>
  <g
     id="Layer_2"
     data-name="Layer 2"
     transform="translate(-45,-46.886881)">
    <ellipse
       class="cls-1"
       cx="677.37"
       cy="462.31"
       rx="20.879999"
       ry="20.52"
       id="ellipse6"
       style="fill:#874d08;stroke:#dc536c;stroke-width:0.97px;stroke-miterlimit:10" />
    <ellipse
       class="cls-2"
       cx="677.37"
       cy="461.59"
       rx="12.24"
       ry="11.16"
       id="ellipse8"
       style="fill:#ffdc37;stroke:#dc536c;stroke-miterlimit:10" />
    <ellipse
       class="cls-3"
       cx="677.25"
       cy="461.31"
       rx="5.4000001"
       ry="5.04"
       id="ellipse10"
       style="fill:#231300" />
    <ellipse
       class="cls-1"
       cx="733.87"
       cy="461.59"
       rx="21.940001"
       ry="19.799999"
       id="ellipse12"
       style="fill:#874d08;stroke:#dc536c;stroke-width:0.97px;stroke-miterlimit:10" />
    <ellipse
       class="cls-2"
       cx="733.72998"
       cy="461.03"
       rx="12.24"
       ry="11.16"
       id="ellipse14"
       style="fill:#ffdc37;stroke:#dc536c;stroke-miterlimit:10" />
    <ellipse
       class="cls-3"
       cx="734.13"
       cy="461.31"
       rx="5.4000001"
       ry="5.04"
       id="ellipse16"
       style="fill:#231300" />
    <ellipse
       class="cls-1"
       cx="574.88"
       cy="453.31"
       rx="38.419998"
       ry="35.279999"
       id="ellipse18"
       style="fill:#874d08;stroke:#dc536c;stroke-width:0.97px;stroke-miterlimit:10" />
    <ellipse
       class="cls-4"
       cx="575.15002"
       cy="452.95001"
       rx="18.93"
       ry="17.639999"
       id="ellipse20"
       style="fill:#ffdc37;stroke:#dc536c;stroke-width:1.56px;stroke-miterlimit:10" />
    <ellipse
       class="cls-3"
       cx="574.52002"
       cy="454.75"
       rx="5.3400002"
       ry="5.04"
       id="ellipse22"
       style="fill:#231300" />
    <ellipse
       class="cls-1"
       cx="450.17001"
       cy="454.82999"
       rx="38.880001"
       ry="35.279999"
       id="ellipse24"
       style="fill:#874d08;stroke:#dc536c;stroke-width:0.97px;stroke-miterlimit:10" />
    <ellipse
       class="cls-5"
       cx="450.45001"
       cy="454.47"
       rx="19.16"
       ry="17.639999"
       id="ellipse26"
       style="fill:#ffdc37;stroke:#dc536c;stroke-width:1.57px;stroke-miterlimit:10" />
    <ellipse
       class="cls-3"
       cx="449.81"
       cy="455.54999"
       rx="5.4000001"
       ry="5.04"
       id="ellipse28"
       style="fill:#231300" />
    <ellipse
       class="cls-1"
       cx="313.37"
       cy="454.82999"
       rx="38.880001"
       ry="35.279999"
       id="ellipse30"
       style="fill:#874d08;stroke:#dc536c;stroke-width:0.97px;stroke-miterlimit:10" />
    <ellipse
       class="cls-5"
       cx="313.64999"
       cy="454.47"
       rx="19.16"
       ry="17.639999"
       id="ellipse32"
       style="fill:#ffdc37;stroke:#dc536c;stroke-width:1.57px;stroke-miterlimit:10" />
    <ellipse
       class="cls-3"
       cx="313.76999"
       cy="452.59"
       rx="5.4000001"
       ry="5.04"
       id="ellipse34"
       style="fill:#231300" />
    <ellipse
       class="cls-1"
       cx="152.81"
       cy="451.23001"
       rx="38.880001"
       ry="35.279999"
       id="ellipse36"
       style="fill:#874d08;stroke:#dc536c;stroke-width:0.97px;stroke-miterlimit:10" />
    <ellipse
       class="cls-5"
       cx="153.09"
       cy="450.87"
       rx="19.16"
       ry="17.639999"
       id="ellipse38"
       style="fill:#ffdc37;stroke:#dc536c;stroke-width:1.57px;stroke-miterlimit:10" />
    <ellipse
       class="cls-3"
       cx="152.45"
       cy="451.23001"
       rx="5.4000001"
       ry="5.04"
       id="ellipse40"
       style="fill:#231300" />
  </g>
  <g
     id="Layer_1"
     data-name="Layer 1"
     transform="translate(-45,-46.886881)">
    <path
       class="cls-6"
       d="m 608.09,430.79 h -75.77 c -6.31,1.28 -12,-1.41 -13.67,-5.69 A 9.59,9.59 0 0 1 519,418 l -1.8,-190.84 c 5.5,-22.28 24.29,-38.53 46.08,-40.32 24.62,-2 48.19,14.79 54.72,40.16 q 1,41.43 2.85,84.11 1,21.76 2.16,43.2 l 137.16,3.24 V 431 q -36.74,0 -73.44,0 -39.31,-0.06 -78.64,-0.21 z"
       id="path43"
       style="fill:#2cc697;stroke:#00a79d;stroke-width:4px;stroke-miterlimit:10" />
    <rect
       class="cls-6"
       x="380.01001"
       y="279.79001"
       width="120"
       height="151"
       rx="17.83"
       id="rect45"
       style="fill:#2cc697;stroke:#00a79d;stroke-width:4px;stroke-miterlimit:10" />
    <path
       class="cls-6"
       d="M 239,430.2 55,419.55 V 307.8 l 2.88,-110.88 128,-1.36 v 0 q 26.67,50.3 53.32,100.59 z"
       id="path47"
       style="fill:#2cc697;stroke:#00a79d;stroke-width:4px;stroke-miterlimit:10" />
    <rect
       class="cls-6"
       x="254.85001"
       y="279.79001"
       width="114.48"
       height="151"
       rx="17.879999"
       id="rect49"
       style="fill:#2cc697;stroke:#00a79d;stroke-width:4px;stroke-miterlimit:10" />
    <path
       class="cls-7"
       d="m 657.57,431 h -36.72 v -95 h 37.8 z"
       id="path51"
       style="fill:#fbb040;stroke:#f26522;stroke-width:1.18px;stroke-miterlimit:10" />
    <path
       class="cls-7"
       d="m 751.53,341.35 v 0 c 0,0 11.83,16.12 35.64,48.6 l -33.48,35.64 z"
       id="path53"
       style="fill:#fbb040;stroke:#f26522;stroke-width:1.18px;stroke-miterlimit:10" />
    <rect
       class="cls-6"
       x="657.57001"
       y="335.95001"
       width="63.720001"
       height="95.040001"
       id="rect55"
       style="fill:#2cc697;stroke:#00a79d;stroke-width:4px;stroke-miterlimit:10" />
    <rect
       class="cls-7"
       x="721.28998"
       y="334.87"
       width="14.04"
       height="97.199997"
       id="rect57"
       style="fill:#fbb040;stroke:#f26522;stroke-width:1.18px;stroke-miterlimit:10" />
    <path
       class="cls-8"
       d="M 603.75,310.32 V 247.69 A 11.68,11.68 0 0 0 592.1,236.05 c -0.52,-0.89 -7.66,-12.53 -21.62,-13.21 a 26.77,26.77 0 0 0 -24.21,13.21 11.16,11.16 0 0 0 -2.66,0.31 11.55,11.55 0 0 0 -5.56,3.11 11.89,11.89 0 0 0 -3.42,8.22 q 1.51,31.82 3,63.64 a 48.92,48.92 0 0 0 66.07,-1 z"
       id="path59"
       style="fill:#d7df23;stroke:#ec008c;stroke-miterlimit:10" />
    <path
       class="cls-9"
       d="m 537.68,311.33 0.11,2.28 q 2.67,55.41 5.33,110.83 l 27.36,2.88 31.68,-2.88 1.59,-112.55 v -1.57 a 48.92,48.92 0 0 1 -66.07,1 z"
       id="path61"
       style="fill:#2cc697;stroke:#00a79d;stroke-width:7px;stroke-miterlimit:10" />
    <path
       class="cls-8"
       d="m 355.92,322.92 -85.68,0.75 q 1.11,-8.87 2.21,-17.73 c 4.58,-8.19 19.33,-14.2 36.41,-15 20.71,-1 41.38,5.75 46.34,16.05 z"
       id="path63"
       style="fill:#d7df23;stroke:#ec008c;stroke-miterlimit:10" />
    <path
       class="cls-8"
       d="M 164.76,408.34 H 114.6 l -0.18,-145.46 a 22.52,22.52 0 0 1 0.66,-8.21 c 2.55,-9.2 11.89,-18.69 24,-18.48 15.63,0.28 22.46,16.5 23,17.86 a 26.94,26.94 0 0 1 1.84,8.78 z"
       id="path65"
       style="fill:#d7df23;stroke:#ec008c;stroke-miterlimit:10" />
    <line
       class="cls-10"
       x1="114.42"
       y1="348.98999"
       x2="164.42"
       y2="348.98999"
       id="line67"
       style="fill:none;stroke:#754c29;stroke-miterlimit:10" />
    <line
       class="cls-10"
       x1="117.48"
       y1="348.98999"
       x2="118.2"
       y2="409.47"
       id="line69"
       style="fill:none;stroke:#754c29;stroke-miterlimit:10" />
    <line
       class="cls-10"
       x1="125.4"
       y1="348.98999"
       x2="126.36"
       y2="408.34"
       id="line71"
       style="fill:none;stroke:#754c29;stroke-miterlimit:10" />
    <line
       class="cls-10"
       x1="133.56"
       y1="348.98999"
       x2="133.8"
       y2="409.47"
       id="line73"
       style="fill:none;stroke:#754c29;stroke-miterlimit:10" />
    <line
       class="cls-10"
       x1="141"
       y1="348.98999"
       x2="141.48"
       y2="409.95001"
       id="line75"
       style="fill:none;stroke:#754c29;stroke-miterlimit:10" />
    <line
       class="cls-10"
       x1="149.16"
       y1="348.98999"
       x2="149.16"
       y2="409.47"
       id="line77"
       style="fill:none;stroke:#754c29;stroke-miterlimit:10" />
    <line
       class="cls-10"
       x1="157.32001"
       y1="348.98999"
       x2="157.56"
       y2="409.47"
       id="line79"
       style="fill:none;stroke:#754c29;stroke-miterlimit:10" />
    <rect
       class="cls-11"
       x="110.76"
       y="403.70999"
       width="58.080002"
       height="7.4400001"
       id="rect81"
       style="fill:#754c29" />
    <path
       class="cls-12"
       d="m 785.91,402.19 h -9.72 v -27 h 9.72 a 14.86,14.86 0 0 1 0,27 z"
       id="path83"
       style="fill:#f36543" />
    <path
       class="cls-13"
       d="m 797.07,388.87 c -0.15,7.39 -7.21,13.75 -9.54,12.78 -1.18,-0.49 -0.71,-2.67 -0.9,-12.06 -0.24,-11.51 -1.07,-14 0.18,-14.58 2.38,-1.08 10.41,5.84 10.26,13.86 z"
       id="path85"
       style="fill:#ffff39" />
    <path
       class="cls-14"
       d="m 797.07,388.87 a 16.37,16.37 0 0 1 -4.75,10.6 c -1.16,1.12 -3.8,3.58 -5.41,2.06 a 4.07,4.07 0 0 1 -0.52,-2.06 c -0.21,-4 -0.16,-7.89 -0.31,-11.84 -0.07,-3.29 -0.28,-6.57 -0.32,-9.87 -0.04,-3.3 1.15,-4 4,-2.3 a 16.8,16.8 0 0 1 7.36,13.41 z m 0,0 c 0,-5.24 -3.25,-10.29 -7.62,-13 a 3.3,3.3 0 0 0 -2.52,-0.6 c -0.65,0.51 -0.36,1.64 -0.39,2.44 0.21,3.27 0.45,6.59 0.54,9.86 0.06,2.63 0.08,5.27 0,7.9 0.08,1.83 -0.37,4 0.27,5.67 1.21,1.08 3.73,-1 4.72,-1.92 a 15.25,15.25 0 0 0 5,-10.38 z"
       id="path87"
       style="fill:#654834" />
    <rect
       class="cls-15"
       x="45"
       y="419.54999"
       width="718.77002"
       height="26.559999"
       id="rect89"
       style="fill:#5e5b58" />
    <polygon
       class="cls-7"
       points="782.44,441.99 510.35,441.99 510.32,418 771.4,418 "
       id="polygon91"
       style="fill:#fbb040;stroke:#f26522;stroke-width:1.18px;stroke-miterlimit:10" />
    <rect
       class="cls-7"
       x="380.01001"
       y="417.31"
       width="123.84"
       height="22.32"
       id="rect93"
       style="fill:#fbb040;stroke:#f26522;stroke-width:1.18px;stroke-miterlimit:10" />
    <rect
       class="cls-7"
       x="247.64999"
       y="417.07001"
       width="123.84"
       height="22.32"
       id="rect95"
       style="fill:#fbb040;stroke:#f26522;stroke-width:1.18px;stroke-miterlimit:10" />
    <rect
       class="cls-7"
       x="66.089996"
       y="416.35001"
       width="172.92"
       height="22.32"
       id="rect97"
       style="fill:#fbb040;stroke:#f26522;stroke-width:1.18px;stroke-miterlimit:10" />
    <rect
       class="cls-16"
       x="733.16998"
       y="328.39001"
       width="27"
       height="88.199997"
       id="rect99"
       style="fill:#00a79d;stroke:#fda94e;stroke-width:0.9px;stroke-miterlimit:10" />
    <rect
       class="cls-17"
       x="734.25"
       y="345.31"
       width="25.200001"
       height="5.7600002"
       id="rect101"
       style="fill:#08fff8;stroke:#dc536c;stroke-miterlimit:10" />
    <rect
       class="cls-17"
       x="733.53003"
       y="364.03"
       width="25.200001"
       height="5.7600002"
       id="rect103"
       style="fill:#08fff8;stroke:#dc536c;stroke-miterlimit:10" />
    <rect
       class="cls-17"
       x="733.53003"
       y="380.59"
       width="26.639999"
       height="6.48"
       id="rect105"
       style="fill:#08fff8;stroke:#dc536c;stroke-miterlimit:10" />
    <rect
       class="cls-17"
       x="733.53003"
       y="398.59"
       width="25.200001"
       height="6.48"
       id="rect107"
       style="fill:#08fff8;stroke:#dc536c;stroke-miterlimit:10" />
    <rect
       class="cls-17"
       x="733.53003"
       y="329.47"
       width="25.200001"
       height="5.7600002"
       id="rect109"
       style="fill:#08fff8;stroke:#dc536c;stroke-miterlimit:10" />
    <rect
       class="cls-18"
       x="151.05"
       y="448.75"
       width="162.72"
       height="4.3200002"
       id="rect111"
       style="fill:#9b8579" />
    <rect
       class="cls-18"
       x="445.72"
       y="452.59"
       width="134.45"
       height="4.5300002"
       id="rect113"
       style="fill:#9b8579" />
    <rect
       class="cls-18"
       x="676.65002"
       y="459.79001"
       width="61.919998"
       height="2.8800001"
       id="rect115"
       style="fill:#9b8579" />
    <polygon
       class="cls-19"
       points="540,334.42 548.11,329.74 556.3,334.55 556.37,344.04 548.26,348.73 540.07,343.92 "
       id="polygon117"
       style="fill:#ec008c" />
    <path
       class="cls-20"
       d="m 580.56,150.6 a 31.69,31.69 0 0 0 11.88,-18.12 C 595.86,116.74 586.21,97.64 573,94.68 a 21.58,21.58 0 0 0 -11.88,1.08 c -10.5,4 -10.4,13.28 -17.28,15.12 C 536,113 526.9,103.29 515.76,91.44 503.14,78 503.68,74 494.16,67.68 c -4.75,-3.13 -14.07,-9.1 -25.92,-7.56 -2.18,0.28 -12.68,1.65 -18.36,9.72 -4.52,6.42 -1.56,10.81 -4.32,17.28 -5.71,13.42 -30.23,22.28 -47.52,14 C 387,95.88 377.6,83 380.76,76.32 c 2.37,-5 11.22,-5.37 13,-5.4 13.12,-0.25 22.71,10.76 22.68,10.8 -0.03,0.04 -36.14,-42.91 -60.48,-33.48 -10.08,3.91 -17.77,16.65 -15.12,24.84 3.48,10.75 23.91,11 23.76,15.12 -0.23,6.3 -46.72,-1.1 -71.28,24.84 -10.91,11.53 -17.77,29.93 -11.88,38.88 4.39,6.67 18.35,11.87 18.36,11.88 -11.58,-10.28 -14,-15.12 -14,-15.12 -5.6,-11 0.23,-26.52 7.56,-35.64 A 41.89,41.89 0 0 1 314.7,99.12 c 4.42,-1.16 10.43,-1.9 33.66,4.2 12.75,3.35 36.21,9.51 35.64,14 -0.39,3.14 -11.74,0.83 -18.36,8.64 -5.11,6 -5.44,15.79 -2.16,22.68 6.64,13.93 29,18 37.8,9.72 4.89,-4.57 6.48,-13.69 5.4,-20.52 -0.9,-5.69 -3.29,-7.45 -2.16,-10.8 1.89,-5.56 11.13,-8.43 18.36,-7.56 9,1.08 16.88,8.16 19.44,16.2 3.7,11.61 -3.24,27 -3.24,27 -12.88,-5.78 25.88,15 40,14 15,-1.06 30.32,-12.45 32.4,-24.84 1.8,-10.72 -6.61,-20.46 -6.48,-20.52 0.13,-0.06 9.58,11.18 6.48,20.52 -3.35,10.1 -21,16.84 -33.48,13 C 454,157.41 444,109 458,97 c 17.72,-15.3 76,26.32 83.7,32.26 9.46,7.34 13,11.88 13,11.88 5.83,7.57 6,12.34 10.8,14 5.79,2.09 12.38,-2.62 15.06,-4.54 z"
       id="path119"
       style="fill:#d1d3d4"
       inkscape:label="path119" />
    <polygon
       class="cls-7"
       points="575.01,186.68 563.36,186.68 551.12,150.6 587.25,150.6 "
       id="polygon121"
       style="fill:#fbb040;stroke:#f26522;stroke-width:1.18px;stroke-miterlimit:10" />
    <path
       class="cls-8"
       d="m 479,322.92 -85.68,0.75 q 1.11,-8.87 2.21,-17.73 c 4.58,-8.19 19.33,-14.2 36.41,-15 20.72,-1 41.39,5.75 46.34,16.05 z"
       id="path123"
       style="fill:#d7df23;stroke:#ec008c;stroke-miterlimit:10" />
  </g>
</svg>
