<?xml version="1.0" encoding="UTF-8" standalone="no"?>
<svg
   viewBox="0 0 155.10606 551.63537"
   version="1.1"
   id="svg30"
   sodipodi:docname="flag_finish_1.svg"
   width="155.10606"
   height="551.63538"
   inkscape:version="1.1.1 (c3084ef, 2021-09-22)"
   xmlns:inkscape="http://www.inkscape.org/namespaces/inkscape"
   xmlns:sodipodi="http://sodipodi.sourceforge.net/DTD/sodipodi-0.dtd"
   xmlns="http://www.w3.org/2000/svg"
   xmlns:svg="http://www.w3.org/2000/svg">
  <sodipodi:namedview
     id="namedview32"
     pagecolor="#ffffff"
     bordercolor="#000000"
     borderopacity="0.25"
     inkscape:showpageshadow="2"
     inkscape:pageopacity="0.0"
     inkscape:pagecheckerboard="0"
     inkscape:deskcolor="#d1d1d1"
     showgrid="false"
     inkscape:zoom="5.2673354"
     inkscape:cx="30.755589"
     inkscape:cy="71.668116"
     inkscape:window-width="1920"
     inkscape:window-height="1027"
     inkscape:window-x="0"
     inkscape:window-y="25"
     inkscape:window-maximized="1"
     inkscape:current-layer="svg30"
     inkscape:pageshadow="0" />
  <defs
     id="defs4">
    <style
       id="style2">.a{fill:#6d6e71;}.a,.d{stroke:#e6e7e8;stroke-miterlimit:10;}.b{fill:#fedb04;}.c{fill:#ffe771;}.d{fill:#f1f2f2;}</style>
  </defs>
  <path
     class="a"
     d="m 109.49606,123.79 c -14.109999,4 -21.129999,11.42 -23.999999,15 -13.61,17 -9.65,41.08 -9,45 1.6,9.74 0.426528,13.36742 2.85,16.7 -23.497119,-14.83492 -41.568426,-38.65841 -72.8199997,-33.7 -6.77999999,-33 -5.99999999,-43 -5.99999999,-43 C 1.1880138,115.19015 3.37192,106.77618 6.9760613,98.94 16.976061,78.11 36.496061,70.47 52.636061,61.11 c 16.14,-9.36 37.66,-25.51 58.999999,-55.32 z"
     id="path6"
     style="fill:#6d6e71;stroke:none;stroke-miterlimit:10"
     sodipodi:nodetypes="cccccccscc" />
  <path
     class="b"
     d="m 115.10606,514 h -7 V 0 h 7 z"
     id="path8"
     style="fill:#fedb04" />
  <path
     class="b"
     d="m 155.10606,540.47 a 90.32,90.32 0 0 1 -86.999999,0 43.74,43.74 0 0 1 86.999999,0 z"
     id="path10"
     style="fill:#fedb04" />
  <path
     class="c"
     d="m 83.426061,516 c -2.36,2.25 -11.19,10.67 -8.82,18.72 0.48,1.65 1.89,4.82 3.78,4.86 3.9,0.09 3.5,-13.25 12.78,-23.4 7.89,-8.63 17.919999,-9.63 17.639999,-10.44 -0.34,-0.97 -14.769999,0.13 -25.379999,10.26 z"
     id="path12"
     style="fill:#ffe771" />
  <path
     class="d"
     d="M 108.10606,51.17 A 69.55,69.55 0 0 0 87.206061,65.9 c -0.23,-5.31 -0.71,-11 -1.56,-17.13 q -0.81,-5.76 -1.87,-11 5.68,-6.12 11.44,-12.54 6.629999,-7.4 12.889999,-14.67 z"
     id="path14"
     style="fill:#f1f2f2;stroke:none;stroke-miterlimit:10" />
  <path
     class="d"
     d="m 108.3289,124.22 c -5.7457,1.83845 -9.834504,3.95178 -14.579766,6.8323 -1.345049,-9.86692 -4.070963,-21.1392 -7.623073,-30.4423 3.811198,-2.561629 7.824429,-4.809038 12,-6.72 1.999999,-0.84 6.243829,-2.19 10.013829,-3.36 0.75,11.08667 -0.56099,22.60333 0.18901,33.69 z"
     id="path16"
     style="fill:#f1f2f2;stroke:none;stroke-miterlimit:10"
     sodipodi:nodetypes="cccccc" />
  <path
     class="d"
     d="m 57.466061,184.5 a 70.11,70.11 0 0 1 -2.12,-26.5 q 4.62,4.45 9.34,9.2 5.81,5.88 11.15,11.65 1.25,7.47 2.32,15.29 c 0.32,2.27 0.61,4.53 0.89,6.77 a 215.29,215.29 0 0 1 -21.58,-16.41 z"
     id="path18"
     style="fill:#f1f2f2;stroke:none;stroke-miterlimit:10" />
  <path
     class="d"
     d="m 29.806061,143.28 c 0.14,3.58 0.43,7.42 0.94,11.5 0.626834,5.04882 1.545032,10.05717 2.75,15 -10.056263,-2.82101 -14.876687,-3.48202 -26.9999997,-3 -1.1,-4.38 -2.12,-9 -3,-14 C 2.056219,144.73678 1.0878999,136.61626 0.59606131,128.46 11.568647,130.41778 21.725177,135.55342 29.806061,143.23 Z"
     id="path20"
     style="fill:#f1f2f2;stroke:none;stroke-miterlimit:10"
     sodipodi:nodetypes="cccccccc" />
  <path
     class="d"
     d="m 60.346061,129 c 2,-2.86 4.033333,-5.76333 6.1,-8.71 2.31,-3.35 5.94,-9.63 8.16,-12.96 -1.199342,11.36118 1.3767,25.64517 9.157729,34.01 -1.197286,1.78711 -2.263415,3.65869 -3.19,5.6 -1.550154,3.24778 -2.856026,6.6685 -3.597729,10.19 -4.8183,-4.36411 -8.829667,-9.54334 -11.85,-15.3 -2.123903,-4.05981 -3.72979,-8.37017 -4.78,-12.83 z"
     id="path22"
     style="fill:#f1f2f2;stroke:none;stroke-miterlimit:10"
     sodipodi:nodetypes="ccccsccc" />
  <path
     class="d"
     d="m 60.206061,84.29 c -3.11,2.68 -6.34,5.67 -9.62,9 -2.55,2.59 -4.89,5.15 -7,7.63 -3.3,-2.92 -6.826667,-5.873333 -10.58,-8.86 -4.59,-3.64 -9.09,-7 -13.43,-10 8.851126,-8.516948 16.166113,-12.540839 26.87,-17.51 2.61,3.15 5.32,6.68 8,10.6 2.15,3.17 4.06,6.22 5.76,9.14 z"
     id="path24"
     style="fill:#f1f2f2;stroke:none;stroke-miterlimit:10"
     sodipodi:nodetypes="cccccccc" />
  <path
     class="d"
     d="m 60.346061,129 c -6.233843,8.29988 -8.094516,19.09178 -5,29 -2.867406,-5.36689 -7.392156,-9.66365 -12.9,-12.25 -3.961496,-1.80101 -8.292494,-2.64049 -12.64,-2.45 0.672384,-14.50901 5.087714,-30.74353 13.78,-42.38 3.398903,9.70395 9.51355,20.78561 16.76,28.08 z"
     id="path26"
     style="fill:#f1f2f2;stroke:none;stroke-miterlimit:10"
     sodipodi:nodetypes="cccccc" />
  <path
     class="d"
     d="m 86.126061,100.61 -11.52,6.72 c -1.946667,-3.29333 -4.026667,-6.65333 -6.24,-10.08 -2.726667,-4.22 -5.446667,-9.18 -8.16,-12.96 6.117162,-3.700153 12.044628,-6.745198 17.76,-11.04 3.27,-2.46 6.35,-4.92 9.24,-7.35 -2.293559,11.428765 -2.658599,23.160753 -1.08,34.71 z"
     id="path28"
     style="fill:#f1f2f2;stroke:none;stroke-miterlimit:10"
     sodipodi:nodetypes="ccccccc" />
</svg>
