<?xml version="1.0" encoding="UTF-8" standalone="no"?>
<svg
   id="Layer_1"
   data-name="Layer 1"
   viewBox="0 0 622.20549 366.8394"
   version="1.1"
   sodipodi:docname="01.svg"
   width="622.20551"
   height="366.83942"
   inkscape:version="1.2 (1:1.2+202206011326+fc4e4096c5)"
   xmlns:inkscape="http://www.inkscape.org/namespaces/inkscape"
   xmlns:sodipodi="http://sodipodi.sourceforge.net/DTD/sodipodi-0.dtd"
   xmlns:xlink="http://www.w3.org/1999/xlink"
   xmlns="http://www.w3.org/2000/svg"
   xmlns:svg="http://www.w3.org/2000/svg"
   xmlns:rdf="http://www.w3.org/1999/02/22-rdf-syntax-ns#"
   xmlns:cc="http://creativecommons.org/ns#"
   xmlns:dc="http://purl.org/dc/elements/1.1/">
  <sodipodi:namedview
     id="namedview479"
     pagecolor="#ffffff"
     bordercolor="#000000"
     borderopacity="0.25"
     inkscape:showpageshadow="2"
     inkscape:pageopacity="0.0"
     inkscape:pagecheckerboard="0"
     inkscape:deskcolor="#d1d1d1"
     showgrid="false"
     inkscape:zoom="1.3892621"
     inkscape:cx="380.41777"
     inkscape:cy="156.19802"
     inkscape:window-width="1920"
     inkscape:window-height="1007"
     inkscape:window-x="0"
     inkscape:window-y="0"
     inkscape:window-maximized="1"
     inkscape:current-layer="Layer_1" />
  <defs
     id="defs22">
    <style
       id="style2">.cls-1{fill:#adca56;}.cls-2{fill:#589255;}.cls-3{fill:#78834f;}.cls-4{fill:#5c6069;}.cls-5{fill:#9bb958;}.cls-6{fill:#9fbc58;}.cls-7{fill:#74b65f;}.cls-8{fill:#c9c8c8;}.cls-9{fill:#dee253;}.cls-10{fill:#977571;}.cls-11{fill:#645e57;}.cls-12{fill:#645d65;}.cls-13{fill:#794044;}.cls-14,.cls-16,.cls-17,.cls-19,.cls-41,.cls-42{fill:none;stroke-miterlimit:10;}.cls-14{stroke:#794044;stroke-width:6px;}.cls-15{fill:#886f78;}.cls-16{stroke:#a57464;}.cls-17{stroke:#886f78;}.cls-18{fill:#e7c9d2;}.cls-19{stroke:#e7c9d2;}.cls-20{fill:#b58775;}.cls-21{fill:#bb9283;}.cls-22{fill:#bf8f7d;}.cls-23{fill:#bc897c;}.cls-24{fill:#a57464;}.cls-25{fill:#b4887a;}.cls-26{fill:#fff;}.cls-26,.cls-31{opacity:0.11;}.cls-27{fill:#638b9a;}.cls-28{fill:#939e92;}.cls-29{fill:#93b259;}.cls-30{fill:#e0e24b;}.cls-31{fill:#d65988;}.cls-32{fill:#6c7c4e;}.cls-33{fill:#f0eb62;}.cls-34{fill:url(#Orange_Yellow);}.cls-35{fill:url(#Orange_Yellow-2);}.cls-36{fill:#dae161;}.cls-37{fill:#c7d4b3;}.cls-38{fill:#111312;}.cls-39{fill:#8c8687;}.cls-40{fill:#efefef;}.cls-41{stroke:#afafaf;}.cls-42{stroke:#645e57;}.cls-43{opacity:0.81;}.cls-44{fill:#ccda4f;}</style>
    <linearGradient
       id="Orange_Yellow"
       x1="634.44"
       y1="161.41"
       x2="712.32001"
       y2="161.41"
       gradientUnits="userSpaceOnUse">
      <stop
         offset="0"
         stop-color="#fff359"
         id="stop4" />
      <stop
         offset="0.05"
         stop-color="#fae353"
         id="stop6" />
      <stop
         offset="0.12"
         stop-color="#f5d04b"
         id="stop8" />
      <stop
         offset="0.2"
         stop-color="#f1c546"
         id="stop10" />
      <stop
         offset="0.28"
         stop-color="#f0c145"
         id="stop12" />
      <stop
         offset="0.67"
         stop-color="#dc8a52"
         id="stop14" />
      <stop
         offset="0.89"
         stop-color="#d46d50"
         id="stop16" />
      <stop
         offset="1"
         stop-color="#cf584f"
         id="stop18" />
    </linearGradient>
    <linearGradient
       id="Orange_Yellow-2"
       x1="628.21997"
       y1="172.34"
       x2="723.25"
       y2="172.34"
       xlink:href="#Orange_Yellow"
       gradientTransform="translate(-98.794482,-97.78)" />
  </defs>
  <title
     id="title24">ծղրիդմը</title>
  <path
     class="cls-1"
     d="m 331.26552,254.6 c 1.18,-0.73 3.76,-0.28 6.91,-0.63 1,-0.12 8.59,-1.05 11.32,-1.66 7.56,-1.66 14.42,-6.54 22.47,-6.5 3.07,0 6.12,1.62 7.14,4.42 1.54,4.24 -7.71,6.79 -8.87,7.05 -12.85,2.84 -22.15,0.38 -34.61,4.36 -3.9,1.25 -9.58,8.3 -11.36,12.95 -0.88,2.3 -2.24,7.38 -2.79,9.37 -1,3.48 -1.7,7.09 -2.4,9.71 -1.94,7.25 -4,12.21 -5.93,19.43 -0.74,2.77 -0.9,9.15 -3.62,11.16 -1,0.71 -0.63,-1 -1.33,-1.09 -0.7,-0.09 -1.53,0.73 -1.87,1.13 -4.09,4.79 -8.87,10.56 -14.24,13.19 -2.28,1.11 2.17,-2.48 0.41,-2.26 -1.76,0.22 -3.68,2.88 -5.31,4.07 -1.63,1.19 -5.05,3.89 -7.06,2.61 -1,-0.61 0.64,-1.87 1,-2.73 0.61,-1.34 0.61,-3.84 1.51,-5.2 3.07,-4.65 10.24,-4.28 14.68,-6.13 4.44,-1.85 8.12,-6.16 9.94,-9.74 4.38,-8.66 4.4,-17.1 6.36,-26 0.7,-3.2 1.92,-9.27 2.61,-11.49 3.56,-11.24 4.8,-19.6 15.04,-26.02 z"
     id="path26"
     style="fill:#adca56" />
  <path
     class="cls-2"
     d="m 282.58552,339.75 a 17,17 0 0 1 1.6,-4.1 7.16,7.16 0 0 1 3.31,-3 19.9,19.9 0 0 1 4.25,-1.31 c 0.37,-0.08 0.73,-0.14 1.1,-0.2 0.37,-0.06 0.74,-0.11 1,-0.18 a 10.36,10.36 0 0 0 1.94,-0.78 33.32,33.32 0 0 0 3.72,-2.2 27,27 0 0 0 3.42,-2.56 31.42,31.42 0 0 0 6.57,-10.87 c 0.46,-1.33 0.82,-2.75 1.21,-4.15 0.74,-2.81 1.4,-5.64 2,-8.49 1.22,-5.7 2.27,-11.46 3.56,-17.19 0.64,-2.85 1.38,-5.75 2.31,-8.55 a 67,67 0 0 1 3.23,-8.29 34,34 0 0 1 2.22,-3.93 c 0.46,-0.66 0.81,-1.16 1.22,-1.81 a 14.84,14.84 0 0 1 1.4,-1.86 8.44,8.44 0 0 1 0.85,-0.84 l 0.81,-0.72 c 0.54,-0.48 1.09,-1 1.69,-1.47 a 9.52,9.52 0 0 1 4.31,-2.03 13.67,13.67 0 0 1 4.61,0.06 34,34 0 0 0 4.27,0.48 c 2.81,0.08 5.59,-0.84 8.39,-1.67 2.8,-0.83 5.61,-1.63 8.44,-2.41 a 36.45,36.45 0 0 1 8.65,-1.54 23.14,23.14 0 0 0 -4.3,0.81 c -1.41,0.37 -2.81,0.79 -4.19,1.24 -2.77,0.91 -5.54,1.9 -8.3,2.84 -2.76,0.94 -5.6,2 -8.69,2 -3.09,0 -6,-0.92 -8.57,-0.32 a 7.9,7.9 0 0 0 -3.51,1.82 c -0.53,0.44 -1,0.93 -1.59,1.44 l -0.82,0.74 a 9.28,9.28 0 0 0 -0.69,0.71 15.21,15.21 0 0 0 -1.21,1.67 c -0.36,0.59 -0.84,1.3 -1.2,1.85 a 31.82,31.82 0 0 0 -2,3.73 80.77,80.77 0 0 0 -5.3,16.47 c -1.31,5.68 -2.38,11.42 -3.67,17.15 -0.65,2.86 -1.37,5.72 -2.17,8.55 -0.41,1.41 -0.78,2.83 -1.31,4.25 a 30.37,30.37 0 0 1 -1.94,4.13 c -0.73,1.31 -1.53,2.54 -2.38,3.78 a 19.65,19.65 0 0 1 -3,3.4 27.82,27.82 0 0 1 -3.69,2.57 35.81,35.81 0 0 1 -3.91,2.12 11.77,11.77 0 0 1 -2.17,0.73 c -0.42,0.07 -0.77,0.1 -1.12,0.14 -0.35,0.04 -0.72,0.08 -1.08,0.14 a 19.19,19.19 0 0 0 -4.15,1.12 6.73,6.73 0 0 0 -3.26,2.63 16.74,16.74 0 0 0 -1.86,3.9 z"
     id="path28"
     style="fill:#589255" />
  <path
     class="cls-3"
     d="m 395.07552,261.87 a 92.19,92.19 0 0 0 10.44,24.12 c 1.85,3 3.54,5 5,9 1.29,3.49 1.63,5.42 4,17.28 1.57,8 1.84,9.28 2.52,11.52 1.19,3.91 3,8.87 3.24,9.36 2,5.36 2.71,6.42 2.88,9 0.25,4 -1,6.94 -0.51,7.13 0.79,0.28 3,-6.94 6,-6.78 1.06,0.05 1.83,1 2.44,1.81 2.25,2.87 1.57,6.47 1.8,6.48 0.23,0.01 1.36,-4.51 -0.72,-9 a 14.15,14.15 0 0 0 -3.24,-4.32 c -4.36,-4.35 -4.43,-11.5 -5,-18 -1.73,-18.18 -10.13,-17.57 -13.75,-40 -0.7,-4.38 -1.3,-10.23 -5.91,-14.1 a 16.21,16.21 0 0 0 -9.19,-3.5 z"
     id="path30"
     style="fill:#78834f" />
  <path
     class="cls-4"
     d="m 205.28552,94.1 c 2.46,-0.7 6.26,6.08 7.55,8.52 0,0 0.19,0.34 0.37,0.7 6.39,12.74 4.85,29.35 4.85,29.35 -0.35,3.83 -0.86,5.39 -1.28,11.33 -0.3,4.28 -0.32,7.49 -0.33,8.42 -0.24,29.77 -0.46,56.35 -1.44,71.89 -2.75,43.46 -17.4,94 -12.45,105.7 a 10.79,10.79 0 0 1 0.81,6.73 c -1.41,5.84 -8.7,9.13 -9.12,8.64 -0.42,-0.49 4,-4.51 3.48,-5 -0.28,-0.3 -1.53,1.23 -3.48,1.2 -2.3,0 -3,-2.19 -5.28,-2.4 -1.1,-0.1 -1.73,0.33 -3.84,1.44 -7.13,3.77 -10.06,4.2 -11,4.32 -0.94,0.12 -3.94,0.47 -4.32,-0.48 -0.49,-1.23 3.53,-4.22 7.08,-6 7.89,-4 12.25,-1.65 16,-4.52 5.39,-4.17 3.54,-14.9 3.12,-17.64 -4.87,-31.86 20.67,-69.62 13,-152.21 -2.3,-23.41 -7.3,-68.96 -3.72,-69.99 z"
     id="path32"
     style="fill:#5c6069" />
  <path
     class="cls-5"
     d="m 268.64552,228.11 c -0.32,3.39 6.6,3.71 24.9,15.67 17.51,11.45 19,16.29 32.29,21.7 9.57,3.91 17.71,5 24.9,6 4.9,0.68 17.74,2.18 37.68,0 22.7,-2.48 42.9,-4.69 59.21,-18.09 4.61,-3.78 13.65,-11.42 14.13,-22.3 0.16,-3.54 -0.61,-6.94 -3,-12.18 -5.87,-12.64 -21.82,-36.81 -37.1,-34.7 -6,0.83 -7,5 -14.36,10.71 -13.94,10.75 -30.74,11.48 -45.08,12.66 -29.01,2.41 -92.62,10.32 -93.57,20.53 z"
     id="path34"
     style="fill:#9bb958" />
  <path
     class="cls-6"
     d="m 74.665519,242.5 c -5.93,2.55 -6.41,3.53 -11.43,5.3 -4.850001,1.72 -5.410001,1.16 -8.500001,2.36 -8.57,3.32 -14,11.38 -13.29,12.34 0.71,0.96 7.78,-7.2 18.000001,-7 2.52,0.05 9,0.7 9,0.7 v 0 c -3.31,3.87 -5.7,8.82 -9.670001,11.87 -8.11,6.22 -17.71,2.18 -18,4.19 -0.29,2.01 10.15,7.16 21.340001,8 v 0 c 0,0 1.23,-1.34 2.24,-2.56 1.64,-2 1.63,-2.34 2.08,-2.39 1.36,-0.14 1.71,3.07 4.32,4.95 3.48,2.5 8.4,0.83 22.85,0.46 4.53,-0.12 9.060001,0 13.590001,0 h 15.44 c 13.8,0 25.46,-1.15 41.37,-1.81 26.88,-1.11 53.11,-0.45 53.11,-0.45 8.39,0.22 14.46,0.52 23.47,-0.45 9.41,-1 11.7,-2.29 23.47,-3.6 8,-0.89 14.47,-1.13 20.38,-1.35 14.28,-0.52 16.7,0.22 24.7,-0.9 9.65,-1.35 15.81,-2.21 17.29,-4.95 4.16,-7.66 -27.55,-31.21 -61.14,-30.61 a 45.48,45.48 0 0 0 -5.13,0.35 143.16,143.16 0 0 0 -23.89,5.05 c -12.46,4.12 -27.74,-1.66 -53.17,-2.46 -36.07,-1.13 -72.77,8.39 -86.060001,1.72 a 20.63,20.63 0 0 0 -9.5,-2.58 c -3.95,0.01 -7.01,1.29 -12.87,3.82 z"
     id="path36"
     style="fill:#9fbc58" />
  <path
     class="cls-7"
     d="m 59.055518,258.13 a 68.85,68.85 0 0 0 22.350001,6.84 79.86,79.86 0 0 0 11.59,0.42 c 3.91,-0.11 7.860001,-0.41 11.830001,-0.62 l 6,-0.38 5.92,-0.46 c 3.93,-0.25 7.9,-0.59 11.87,-0.92 7.93,-0.69 15.85,-1.32 23.82,-1.81 7.97,-0.49 16,-0.92 24.14,-0.7 4.09,0.12 8.17,0.53 12.11,1 3.94,0.47 7.9,0.62 11.88,0.72 3.98,0.1 7.95,0.07 11.94,-0.09 3.99,-0.16 8,-0.28 11.93,-0.6 l 6,-0.46 6,-0.54 11.95,-1.11 c 8,-0.71 15.93,-1.48 23.94,-2 2,-0.13 4,-0.26 6,-0.35 2,-0.09 3.84,-0.26 5.82,-0.47 3.92,-0.39 7.83,-0.79 11.69,-1.37 3.86,-0.58 7.7,-1.27 11.51,-2.11 3.81,-0.84 7.64,-1.8 11.6,-2.72 a 112.24,112.24 0 0 1 24.53,-3.09 78.75,78.75 0 0 1 12.54,0.72 c 4.17,0.55 8.19,1.46 12,2.29 a 98.3,98.3 0 0 0 11.4,1.84 c 3.81,0.39 7.69,0.51 11.59,0.53 3.9,0.02 7.81,-0.19 11.72,-0.52 3.91,-0.33 7.81,-0.78 11.7,-1.41 a 177.84,177.84 0 0 0 23.17,-5.39 l 0.29,0.75 a 126.84,126.84 0 0 1 -46.68,12.84 118,118 0 0 1 -12.35,0.3 106.38,106.38 0 0 1 -12.33,-1.33 c -4,-0.64 -7.82,-1.36 -11.59,-1.73 a 82.79,82.79 0 0 0 -11.37,-0.37 c -3.82,0.1 -7.69,0.4 -11.51,0.85 -3.82,0.45 -7.58,1.1 -11.43,1.86 -3.85,0.76 -7.78,1.67 -11.79,2.41 -4.01,0.74 -8.08,1.31 -12.13,1.76 -4.05,0.45 -8.1,0.74 -12.14,0.94 -2,0.11 -4.09,0.18 -6.14,0.19 h -6 l -23.93,-0.06 c -8,0 -16,0.16 -24,0.46 -8,0.3 -16,0.42 -24,0.55 -4,0.07 -8.05,0.08 -12.06,0 a 116,116 0 0 0 -11.82,0.18 c -3.91,0.3 -7.83,0.79 -11.77,1.32 l -11.85,1.6 c -7.93,1 -15.92,1.77 -23.91,2.27 -4,0.29 -8,0.48 -12,0.61 l -6,0.18 -6,0.06 c -4,0.06 -8.000001,0 -12.120001,-0.2 -2,-0.1 -4.09,-0.25 -6.14,-0.5 -2.05,-0.25 -4.1,-0.63 -6.11,-1.1 A 56.61,56.61 0 0 1 58.715518,258.85 Z"
     id="path38"
     style="fill:#74b65f" />
  <path
     class="cls-8"
     d="m 120.26552,261.86 c -0.73,1.82 -1.51,3.26 -2.07,4.62 a 11.46,11.46 0 0 0 -1,3.55 9.32,9.32 0 0 0 0.44,3.5 c 0.39,1.36 1.07,2.84 1.7,4.7 a 8.22,8.22 0 0 1 -5,-2.62 7.9,7.9 0 0 1 -2.08,-6 8.35,8.35 0 0 1 2.85,-5.53 8.8,8.8 0 0 1 5.16,-2.22 z"
     id="path40"
     style="fill:#c9c8c8" />
  <path
     class="cls-8"
     d="m 85.855519,262.52 a 47.49,47.49 0 0 1 0.76,4.9 c 0.16,1.48 0.3,2.87 0.42,4.27 0.12,1.4 0.24,2.81 0.33,4.31 a 36.93,36.93 0 0 1 0,5 9.52,9.52 0 0 1 -3.77,-3.78 12.54,12.54 0 0 1 -0.89,-10.32 9.26,9.26 0 0 1 3.15,-4.38 z"
     id="path42"
     style="fill:#c9c8c8" />
  <path
     class="cls-8"
     d="m 154.91552,259.66 -0.22,9.49 a 34.12,34.12 0 0 1 -0.48,4.76 c -0.16,0.82 -0.36,1.39 -0.43,2 a 4.17,4.17 0 0 0 0.47,2.3 3.45,3.45 0 0 1 -2.74,-1.35 7.45,7.45 0 0 1 -1.23,-2.82 16.78,16.78 0 0 1 -0.58,-5.13 13,13 0 0 1 1.31,-5.29 8.64,8.64 0 0 1 3.9,-3.96 z"
     id="path44"
     style="fill:#c9c8c8" />
  <path
     class="cls-8"
     d="m 193.83552,255.42 c -1.43,2.05 -2.84,3.78 -4,5.53 a 14.61,14.61 0 0 0 -2.3,5 9.56,9.56 0 0 0 0.35,5.14 41.27,41.27 0 0 0 2.76,6 11,11 0 0 1 -6.21,-4.15 10.33,10.33 0 0 1 -1.76,-3.74 10,10 0 0 1 0,-4.32 11.73,11.73 0 0 1 4.34,-6.7 13.56,13.56 0 0 1 6.82,-2.76 z"
     id="path46"
     style="fill:#c9c8c8" />
  <path
     class="cls-8"
     d="m 218.00552,253.11 a 41.34,41.34 0 0 0 -2.16,7.69 14.22,14.22 0 0 0 0.52,6.75 20.69,20.69 0 0 0 3.47,6.17 c 1.55,2 3.4,4 5.31,6.2 a 17.55,17.55 0 0 1 -8,-3.37 15.3,15.3 0 0 1 -5.49,-7.44 13.08,13.08 0 0 1 0.48,-9.45 14.09,14.09 0 0 1 5.87,-6.55 z"
     id="path48"
     style="fill:#c9c8c8" />
  <path
     class="cls-8"
     d="m 250.71552,241.15 a 46.78,46.78 0 0 0 -4.59,8.93 19.6,19.6 0 0 0 -1.07,4.45 16.13,16.13 0 0 0 0,4.39 22,22 0 0 0 3.11,8.52 69.71,69.71 0 0 0 6,8.19 21.3,21.3 0 0 1 -9.1,-5.82 20.19,20.19 0 0 1 -3.25,-4.65 17.73,17.73 0 0 1 -1.69,-5.6 17,17 0 0 1 2.51,-11.21 19,19 0 0 1 8.08,-7.2 z"
     id="path50"
     style="fill:#c9c8c8" />
  <path
     class="cls-9"
     d="m 308.20552,174.02 c 0.18,-2.28 -0.69,-4.67 -18,-20.16 -10.86,-9.72 -21.6,-18.72 -21.6,-18.72 -12.47,-10.45 -13.81,-11.19 -17.28,-15.12 -5.47,-6.2 -8.57,-11.68 -13,-19.44 -8.76,-15.48 -8.43,-19.64 -15.12,-25.2 -4.76,-3.95 -13.06,-8.61 -18,-5.76 -0.84,0.49 -1.65,1.23 -5,8.64 -3.46,7.56 -5.18,11.34 -5,13 0.53,6 8,8.45 19.44,15.84 0,0 12.34,8 21.6,17.28 7.24,7.27 7.37,10.42 20.16,32.4 16.42,28.23 20.66,30.7 24.48,31.68 11.6,2.92 26.69,-6.07 27.32,-14.44 z"
     id="path52"
     style="fill:#dee253" />
  <path
     class="cls-10"
     d="m 198.80552,82.58 c 0.56,-1.55 2,-5.47 5.76,-7.2 4.68,-2.13 10.08,0.4 13,2.88 5.61,4.84 5.23,12.58 5,16.56 -0.2,4.13 -0.42,8.61 -3.6,10.8 -4.22,2.9 -10.93,-0.11 -14.4,-2.88 a 18.6,18.6 0 0 1 -5.76,-20.16 z"
     id="path54"
     style="fill:#977571" />
  <path
     class="cls-11"
     d="m 196.50552,85.66 c 3.81,-4.39 15.16,-3.19 19.1,3.4 2.37,4 2.23,10.19 -1,12.72 -2.08,1.65 -5.08,1.43 -8.16,1.2 -2.33,-0.17 -4.17,-0.31 -6.15,-1.47 -4.88,-2.89 -5.35,-8.94 -5.37,-9.33 -0.05,-1.42 -0.23,-4.44 1.58,-6.52 z"
     id="path56"
     style="fill:#645e57" />
  <path
     class="cls-12"
     d="m 431.04552,194.28 a 39.93,39.93 0 0 1 5.76,8 74.09,74.09 0 0 1 2.14,9.44 66.53,66.53 0 0 1 0.8,9.68 c 0,1.62 0,3.24 -0.19,4.86 -0.19,1.62 -0.26,3.25 -0.59,4.84 l -0.42,2.41 c -0.14,0.8 -0.39,1.58 -0.58,2.37 l -0.6,2.37 -0.8,2.31 a 50.31,50.31 0 0 1 -3.94,8.92 58,58 0 0 1 -5.41,8.1 41.41,41.41 0 0 1 -8.33,5.26 c 1.62,-2.83 3.15,-5.57 4.42,-8.37 a 54,54 0 0 0 4.95,-7.41 46.51,46.51 0 0 0 3.59,-8.14 l 0.73,-2.1 0.55,-2.16 c 0.17,-0.72 0.4,-1.43 0.52,-2.16 l 0.39,-2.2 c 0.31,-1.45 0.36,-2.95 0.54,-4.42 0.18,-1.47 0.13,-3 0.17,-4.46 a 60.64,60.64 0 0 0 -0.74,-8.92 58.43,58.43 0 0 0 -2,-8.75 c -0.1,-1.53 -0.23,-3.09 -0.38,-4.66 -0.15,-1.57 -0.42,-3.18 -0.58,-4.81 z"
     id="path58"
     style="fill:#645d65" />
  <path
     class="cls-12"
     d="m 410.27552,202.89 a 39,39 0 0 1 1,4.2 c 0.27,1.41 0.47,2.83 0.61,4.26 -0.47,2.76 -0.93,5.47 -1.63,8.21 a 63.08,63.08 0 0 1 -2.6,8.06 c -1,2.61 -2.23,5.12 -3.37,7.55 -1.14,2.43 -2.19,4.83 -3.06,7.28 a 59.92,59.92 0 0 0 -2.1,7.5 63.08,63.08 0 0 0 -1.15,7.74 c -1,2.54 -1.79,5.18 -2.75,7.91 a 44,44 0 0 1 -2.23,-8.34 69,69 0 0 1 1.24,-8.34 64.28,64.28 0 0 1 2.28,-8.14 c 1,-2.67 2.09,-5.24 3.24,-7.72 1.15,-2.48 2.3,-4.87 3.26,-7.29 a 58.82,58.82 0 0 0 2.39,-7.42 73.15,73.15 0 0 0 1.49,-7.75 c 1.12,-2.5 2.19,-5.07 3.38,-7.71 z"
     id="path60"
     style="fill:#645d65" />
  <path
     class="cls-12"
     d="m 385.43552,212.96 a 24.65,24.65 0 0 1 1.32,7.55 c -0.31,1.2 -0.71,2.39 -1.11,3.57 a 24.64,24.64 0 0 1 -6.14,9.66 29.11,29.11 0 0 0 -4.06,5.07 18.71,18.71 0 0 0 -1.39,2.8 29.45,29.45 0 0 0 -1.08,3.06 19.28,19.28 0 0 0 -0.77,6.15 18.69,18.69 0 0 0 1.28,6 28.17,28.17 0 0 0 1.24,6.94 18.4,18.4 0 0 1 -5.89,-5.1 23.58,23.58 0 0 1 -1.63,-7.64 24.49,24.49 0 0 1 1,-7.73 32.47,32.47 0 0 1 1.26,-3.56 24.09,24.09 0 0 1 1.74,-3.51 34.41,34.41 0 0 1 4.67,-5.89 24,24 0 0 0 3.86,-5.07 24.84,24.84 0 0 0 1.25,-2.87 29.12,29.12 0 0 0 0.93,-3.15 c 0.61,-1 1.2,-2 1.81,-3 0.61,-1 1.1,-2.15 1.71,-3.28 z"
     id="path62"
     style="fill:#645d65" />
  <path
     class="cls-2"
     d="m 225.51552,77.96 c 3.3,4.42 5.36,9.61 7.5,14.63 a 89.79,89.79 0 0 0 7.33,14.56 c 5.83,9.18 13.24,17.24 20.95,25 7.71,7.76 15.71,15.28 22.9,23.63 a 112.91,112.91 0 0 1 9.92,13.2 74.43,74.43 0 0 1 7.2,14.8 81.77,81.77 0 0 0 -8,-14.26 126.5,126.5 0 0 0 -10.27,-12.71 c -7.36,-8 -15.41,-15.47 -23.15,-23.26 -7.74,-7.79 -15.19,-16 -20.86,-25.57 a 83.1,83.1 0 0 1 -6.91,-15 c -1.86,-5.19 -3.69,-10.36 -6.61,-15.02 z"
     id="path64"
     style="fill:#589255" />
  <path
     class="cls-13"
     d="m 16.545518,184.22 c -6.08,4.27 -9.7199999,10.24 -11.8199999,14.55 0,0 -9.42,13 -1.66,19.73 5.72,4.93 9.7099999,10.6 20.7299999,14.69 20.65,7.66 31,11.5 39.810001,12.84 25.06,3.8 41.230001,2.49 67.210001,2.17 45.49,-0.56 41.28,2.91 68,1.37 17.81,-1 20.64,-2.61 78.34,-13.3 26.25,-4.87 55.06,-10 91.63,-18.24 101.72,-23 38.46,-19.44 63.41,-24.92 1.53,-0.34 6.28,-1.34 7.2,-4.58 2.61,-9.21 -27.85,-29.11 -27.85,-29.11 0,0 -40.8,1.3 -77.55,3.87 -30.27,2.13 -27.36,3 -58.76,5.45 -36.46,2.86 -40.14,1.68 -98.07,4.74 -61.92,3.28 -55,4.49 -73.79,4.19 -19.730001,-0.31 -39.690001,4.7 -59.220002,1.95 -5.59,-0.82 -17.15,-2.8 -27.61,4.6 z"
     id="path66"
     style="fill:#794044" />
  <path
     class="cls-14"
     d="m 29.085518,196.22 a 32.36,32.36 0 0 0 -10.83,12.69 c 0,0 -8.5699999,11.33 -0.7,16.76 5.8,4 9.94,8.69 20.86,11.82 20.45,5.87 30.680001,8.8 39.340001,9.67 24.560001,2.46 40.240001,0.86 65.520001,-0.2 44.26,-1.85 40.31,1.22 66.28,-0.89 17.29,-1.41 20,-2.85 75.64,-13.65 25.33,-4.91 53.13,-10.12 88.35,-18.23 97.95,-22.54 36.54,-17.63 60.58,-23 1.46,-0.33 6.05,-1.32 6.79,-4.1 2.12,-7.87 -28.46,-23.87 -28.45,-23.87 0.01,0 -39.66,2.33 -75.31,5.63 -29.37,2.72 -26.49,3.36 -56.94,6.39 -35.36,3.53 -39,2.64 -95.24,7 -60.12,4.66 -53.34,5.47 -71.64,5.79 -19.220001,0.33 -38.410001,5.18 -57.550002,3.44 -5.51,-0.47 -16.85,-1.79 -26.7,4.75 z"
     id="path68"
     style="fill:none;stroke:#794044;stroke-width:6px;stroke-miterlimit:10" />
  <path
     class="cls-15"
     d="m 93.345519,235.22 c 27.520001,-3.08 55.070001,-5.7 82.420001,-9.54 13.66,-2 27.29,-4.11 40.79,-6.86 13.5,-2.75 26.91,-5.85 40.11,-9.73 13.22,-3.68 26.24,-8.51 39.81,-11.94 13.57,-3.43 27.55,-5 41.24,-6.56 a 701.78,701.78 0 0 0 81.49,-14.86 498.81,498.81 0 0 1 -81,18.68 c -6.85,1 -13.7,1.94 -20.48,3 a 196.66,196.66 0 0 0 -20.08,4.24 c -13.23,3.49 -26.2,8.34 -39.61,12.16 -13.41,3.82 -27,7 -40.61,9.56 -13.61,2.56 -27.41,4.56 -41.19,6.08 -27.56,3.17 -55.22,4.7 -82.890001,5.77 z"
     id="path70"
     style="fill:#886f78" />
  <path
     class="cls-16"
     d="m 134.56552,229.44 7.15,-8.86"
     id="path72"
     style="fill:none;stroke:#a57464;stroke-miterlimit:10" />
  <path
     class="cls-16"
     d="m 167.20552,221.29 a 64.75,64.75 0 0 0 10.48,-10.45"
     id="path74"
     style="fill:none;stroke:#a57464;stroke-miterlimit:10" />
  <path
     class="cls-16"
     d="m 162.61552,211.27 a 13.9,13.9 0 0 0 4.72,-4.68"
     id="path76"
     style="fill:none;stroke:#a57464;stroke-miterlimit:10" />
  <path
     class="cls-16"
     d="m 155.41552,211.61 a 5.57,5.57 0 0 0 3.7,-2.78"
     id="path78"
     style="fill:none;stroke:#a57464;stroke-miterlimit:10" />
  <path
     class="cls-16"
     d="m 144.06552,194.57 a 59.07,59.07 0 0 1 9.6,-8.41"
     id="path80"
     style="fill:none;stroke:#a57464;stroke-miterlimit:10" />
  <path
     class="cls-16"
     d="m 153.12552,195.09 a 51.58,51.58 0 0 0 15.54,-8.73"
     id="path82"
     style="fill:none;stroke:#a57464;stroke-miterlimit:10" />
  <path
     class="cls-16"
     d="m 164.20552,202.3 a 103.45,103.45 0 0 0 12.73,-10.25"
     id="path84"
     style="fill:none;stroke:#a57464;stroke-miterlimit:10" />
  <path
     class="cls-16"
     d="m 177.14552,200.98 a 6.09,6.09 0 0 0 4.53,-4.93"
     id="path86"
     style="fill:none;stroke:#a57464;stroke-miterlimit:10" />
  <path
     class="cls-16"
     d="m 181.66552,208.54 a 13.86,13.86 0 0 0 7.43,-4.77"
     id="path88"
     style="fill:none;stroke:#a57464;stroke-miterlimit:10" />
  <path
     class="cls-16"
     d="m 184.12552,217 a 31.37,31.37 0 0 0 13.32,-9.78"
     id="path90"
     style="fill:none;stroke:#a57464;stroke-miterlimit:10" />
  <path
     class="cls-16"
     d="m 173.92552,225.09 a 3.53,3.53 0 0 1 3.1,-3.42"
     id="path92"
     style="fill:none;stroke:#a57464;stroke-miterlimit:10" />
  <path
     class="cls-16"
     d="m 193.69552,220.74 a 37.66,37.66 0 0 0 10.63,-10.19"
     id="path94"
     style="fill:none;stroke:#a57464;stroke-miterlimit:10" />
  <path
     class="cls-17"
     d="m 20.965518,216.92 a 181.72,181.72 0 0 0 21.65,6.86 c 6.35,1.59 21.190001,4.92 49.650001,5.52 4.6,0.09 23.150001,0.4 53.590001,-2.39 22.41,-2.05 40.28,-4.77 52.46,-6.79 63.08,-10.46 64.26,-17.06 117.33,-25.21 21.08,-3.24 36.24,-4.55 64.78,-10.72 16.13,-3.48 29.22,-6.94 37.73,-9.3"
     id="path96"
     style="fill:none;stroke:#886f78;stroke-miterlimit:10" />
  <path
     class="cls-17"
     d="m 27.205518,213.86 a 350.29,350.29 0 0 0 43.680001,14.88 295.89,295.89 0 0 0 60.480001,10.56 281.42,281.42 0 0 0 51.84,-1.44"
     id="path98"
     style="fill:none;stroke:#886f78;stroke-miterlimit:10" />
  <path
     class="cls-17"
     d="m 23.365518,217.7 c 4.58,2.08 11,4.83 18.72,7.68 4.93,1.84 28.120001,10.16 61.440002,14.84 a 341.65,341.65 0 0 0 49,3.36"
     id="path100"
     style="fill:none;stroke:#886f78;stroke-miterlimit:10" />
  <path
     class="cls-17"
     d="m 20.485518,223.94 a 220.12,220.12 0 0 0 22.56,9.6 225.33,225.33 0 0 0 90.720002,13"
     id="path102"
     style="fill:none;stroke:#886f78;stroke-miterlimit:10" />
  <path
     class="cls-17"
     d="m 20.485518,231.62 a 145.06,145.06 0 0 0 13.44,6.72 149.06,149.06 0 0 0 49.440001,12"
     id="path104"
     style="fill:none;stroke:#886f78;stroke-miterlimit:10" />
  <path
     class="cls-17"
     d="m 42.565518,208.58 a 287.93,287.93 0 0 0 30.240001,12 292.5,292.5 0 0 0 59.000001,13 295.26,295.26 0 0 0 66.72,0"
     id="path106"
     style="fill:none;stroke:#886f78;stroke-miterlimit:10" />
  <path
     class="cls-17"
     d="m 53.725518,183.22 a 231.87,231.87 0 0 0 30.700001,14.73 c 8.34,3.27 26.160001,9.7 59.560001,14.89 34.32,5.33 63.08,5.93 63.16,5 0.08,-0.93 -25.17,-2.18 -63.74,-10.38 -18,-3.84 -33.66,-8 -50.910001,-14.75 -8.32,-3.24 -15.16,-6.33 -20.06,-8.67"
     id="path108"
     style="fill:none;stroke:#886f78;stroke-miterlimit:10" />
  <path
     class="cls-17"
     d="m 129.39552,181.09 a 141.32,141.32 0 0 0 21.54,14.07 c 5.87,3.1 18.41,9.15 42.07,13.63 24.31,4.61 44.77,4.61 44.85,3.72 0.08,-0.89 -17.87,-1.64 -45.14,-9 a 169.4,169.4 0 0 1 -35.92,-13.67 c -5.86,-3 -10.66,-6 -14.1,-8.24"
     id="path110"
     style="fill:none;stroke:#886f78;stroke-miterlimit:10" />
  <path
     class="cls-17"
     d="m 162.33552,183.49 c 3.77,2.73 8.3,4.19 12.75,5.56 a 680.28,680.28 0 0 0 68.48,17.22"
     id="path112"
     style="fill:none;stroke:#886f78;stroke-miterlimit:10" />
  <path
     class="cls-17"
     d="m 177.60552,182.65 c 14,10 31.87,12.52 49,13.65 17.13,1.13 34.8,1.3 50.77,7.68"
     id="path114"
     style="fill:none;stroke:#886f78;stroke-miterlimit:10" />
  <path
     class="cls-17"
     d="m 271.46552,189.82 a 392,392 0 0 1 134,-19.54"
     id="path116"
     style="fill:none;stroke:#886f78;stroke-miterlimit:10" />
  <path
     class="cls-17"
     d="m 285.82552,194.51 c 27.86,0.88 53.94,-12.45 81,-19.17 17.09,-4.24 34.71,-5.85 52.24,-7.45"
     id="path118"
     style="fill:none;stroke:#886f78;stroke-miterlimit:10" />
  <path
     class="cls-18"
     d="m 313.89552,208.69 29.38,-6.15 c 27.2,-5.69 54.55,-11.42 80.42,-21.56"
     id="path120"
     style="fill:#e7c9d2" />
  <path
     class="cls-19"
     d="m 48.975518,230.8 q 17.550001,3.87 35.360001,6.45 c 10.25,1.49 21.050001,-0.47 31.450001,-1 5.17,-0.25 10.33,-0.5 15.49,-0.81 50.18,-3 100.2,-11.66 147.69,-28.15"
     id="path122"
     style="fill:none;stroke:#e7c9d2;stroke-miterlimit:10" />
  <path
     class="cls-19"
     d="m 137.20552,240 c 16.21,1.55 32.52,-0.51 48.68,-2.56 9.25,-1.17 18.5,-2.35 27.68,-4 24.05,-4.29 47.4,-11.7 70.68,-19.08"
     id="path124"
     style="fill:none;stroke:#e7c9d2;stroke-miterlimit:10" />
  <path
     class="cls-19"
     d="m 19.665518,214.91 a 3,3 0 0 1 2.65,-3.1"
     id="path126"
     style="fill:none;stroke:#e7c9d2;stroke-miterlimit:10" />
  <path
     class="cls-19"
     d="m 24.705518,218.65 a 20.27,20.27 0 0 0 4,-3.16"
     id="path128"
     style="fill:none;stroke:#e7c9d2;stroke-miterlimit:10" />
  <path
     class="cls-19"
     d="m 33.935518,215.38 a 51.13,51.13 0 0 1 -2.5,4.82 c 0,0.09 -0.13,0.2 -0.23,0.19 -0.1,-0.01 -0.13,-0.21 0,-0.19"
     id="path130"
     style="fill:none;stroke:#e7c9d2;stroke-miterlimit:10" />
  <path
     class="cls-19"
     d="m 37.825518,217.98 -1.77,3.63"
     id="path132"
     style="fill:none;stroke:#e7c9d2;stroke-miterlimit:10" />
  <path
     class="cls-19"
     d="m 40.435518,219.6 -0.43,2.85"
     id="path134"
     style="fill:none;stroke:#e7c9d2;stroke-miterlimit:10" />
  <path
     class="cls-19"
     d="m 44.125518,221.32 -0.54,2.27"
     id="path136"
     style="fill:none;stroke:#e7c9d2;stroke-miterlimit:10" />
  <path
     class="cls-19"
     d="m 48.305518,222.33 -0.16,2.33"
     id="path138"
     style="fill:none;stroke:#e7c9d2;stroke-miterlimit:10" />
  <path
     class="cls-19"
     d="m 51.255518,223.99 -0.05,0.71"
     id="path140"
     style="fill:none;stroke:#e7c9d2;stroke-miterlimit:10" />
  <path
     class="cls-19"
     d="m 20.765518,208.03 a 45.72,45.72 0 0 1 3.51,-4.35"
     id="path142"
     style="fill:none;stroke:#e7c9d2;stroke-miterlimit:10" />
  <path
     class="cls-19"
     d="m 25.055518,210.03 4.83,-5.68"
     id="path144"
     style="fill:none;stroke:#e7c9d2;stroke-miterlimit:10" />
  <path
     class="cls-19"
     d="m 29.355518,214.22 a 12.89,12.89 0 0 0 3.87,-5.63"
     id="path146"
     style="fill:none;stroke:#e7c9d2;stroke-miterlimit:10" />
  <path
     class="cls-19"
     d="m 33.865518,215.31 c 0.35,0.18 0.74,-0.16 1,-0.46 q 2.59,-3.15 4.86,-6.52"
     id="path148"
     style="fill:none;stroke:#e7c9d2;stroke-miterlimit:10" />
  <path
     class="cls-19"
     d="m 38.925518,217.01 c 0.31,0 0.55,-0.26 0.72,-0.51 l 3.78,-5.49"
     id="path150"
     style="fill:none;stroke:#e7c9d2;stroke-miterlimit:10" />
  <path
     class="cls-19"
     d="m 43.015518,219.85 a 35.87,35.87 0 0 0 3.73,-6.86"
     id="path152"
     style="fill:none;stroke:#e7c9d2;stroke-miterlimit:10" />
  <path
     class="cls-19"
     d="m 46.745518,221.3 a 32,32 0 0 0 4.4,-6.85"
     id="path154"
     style="fill:none;stroke:#e7c9d2;stroke-miterlimit:10" />
  <path
     class="cls-19"
     d="m 52.055518,222.13 a 22.41,22.41 0 0 0 2.69,-5"
     id="path156"
     style="fill:none;stroke:#e7c9d2;stroke-miterlimit:10" />
  <path
     class="cls-19"
     d="m 54.635518,222.06 c 0.31,0.16 0.64,-0.17 0.83,-0.46 a 36.13,36.13 0 0 0 2.37,-4.37"
     id="path158"
     style="fill:none;stroke:#e7c9d2;stroke-miterlimit:10" />
  <path
     class="cls-19"
     d="m 58.075518,223.64 a 26.43,26.43 0 0 0 2.660001,-5.08"
     id="path160"
     style="fill:none;stroke:#e7c9d2;stroke-miterlimit:10" />
  <path
     class="cls-19"
     d="m 65.655519,226.09 1.62,-5.62"
     id="path162"
     style="fill:none;stroke:#e7c9d2;stroke-miterlimit:10" />
  <path
     class="cls-19"
     d="m 69.635519,226.22 c 0.58,-1.69 1.08,-3.42 1.5,-5.16"
     id="path164"
     style="fill:none;stroke:#e7c9d2;stroke-miterlimit:10" />
  <path
     class="cls-19"
     d="m 74.765519,226.81 a 11.18,11.18 0 0 0 1.61,-4.08"
     id="path166"
     style="fill:none;stroke:#e7c9d2;stroke-miterlimit:10" />
  <path
     class="cls-19"
     d="m 80.205519,228.45 a 34.53,34.53 0 0 1 2.49,-4.79"
     id="path168"
     style="fill:none;stroke:#e7c9d2;stroke-miterlimit:10" />
  <path
     class="cls-19"
     d="m 86.605519,228.74 1,-3.2"
     id="path170"
     style="fill:none;stroke:#e7c9d2;stroke-miterlimit:10" />
  <path
     class="cls-19"
     d="m 25.205518,201.41 q 1.47,-1.8 2.83,-3.68"
     id="path172"
     style="fill:none;stroke:#e7c9d2;stroke-miterlimit:10" />
  <path
     class="cls-19"
     d="m 28.445518,203.45 4.21,-4.27"
     id="path174"
     style="fill:none;stroke:#e7c9d2;stroke-miterlimit:10" />
  <path
     class="cls-19"
     d="m 32.975518,206.58 a 12.27,12.27 0 0 1 4,-4"
     id="path176"
     style="fill:none;stroke:#e7c9d2;stroke-miterlimit:10" />
  <path
     class="cls-19"
     d="m 38.985518,208.22 a 13,13 0 0 1 2.95,-3.16"
     id="path178"
     style="fill:none;stroke:#e7c9d2;stroke-miterlimit:10" />
  <path
     class="cls-19"
     d="m 44.675518,211.1 3.71,-5"
     id="path180"
     style="fill:none;stroke:#e7c9d2;stroke-miterlimit:10" />
  <path
     class="cls-19"
     d="m 50.065518,212.28 a 15,15 0 0 0 2.86,-4.06"
     id="path182"
     style="fill:none;stroke:#e7c9d2;stroke-miterlimit:10" />
  <path
     class="cls-19"
     d="m 54.625518,214.52 c 0.33,0.07 0.62,-0.22 0.84,-0.48 l 2.68,-3.22"
     id="path184"
     style="fill:none;stroke:#e7c9d2;stroke-miterlimit:10" />
  <path
     class="cls-19"
     d="m 62.585519,217.04 a 22.39,22.39 0 0 0 2.27,-3.43"
     id="path186"
     style="fill:none;stroke:#e7c9d2;stroke-miterlimit:10" />
  <path
     class="cls-19"
     d="m 68.205519,217.68 q 1.62,-2 3.13,-4.14"
     id="path188"
     style="fill:none;stroke:#e7c9d2;stroke-miterlimit:10" />
  <path
     class="cls-19"
     d="m 76.205519,221.1 1.06,-4.62"
     id="path190"
     style="fill:none;stroke:#e7c9d2;stroke-miterlimit:10" />
  <path
     class="cls-19"
     d="m 82.035519,222.11 2.21,-5.13"
     id="path192"
     style="fill:none;stroke:#e7c9d2;stroke-miterlimit:10" />
  <path
     class="cls-19"
     d="m 89.265519,224.22 q 1.33,-2.58 2.41,-5.3"
     id="path194"
     style="fill:none;stroke:#e7c9d2;stroke-miterlimit:10" />
  <path
     class="cls-19"
     d="m 94.205519,224.59 a 16.77,16.77 0 0 0 1.35,-4.44"
     id="path196"
     style="fill:none;stroke:#e7c9d2;stroke-miterlimit:10" />
  <path
     class="cls-19"
     d="m 101.98552,226.22 0.23,-3.05"
     id="path198"
     style="fill:none;stroke:#e7c9d2;stroke-miterlimit:10" />
  <path
     class="cls-19"
     d="m 106.86552,226.58 2.05,-4"
     id="path200"
     style="fill:none;stroke:#e7c9d2;stroke-miterlimit:10" />
  <path
     class="cls-19"
     d="m 112.30552,227.33 1.07,-4.46"
     id="path202"
     style="fill:none;stroke:#e7c9d2;stroke-miterlimit:10" />
  <path
     class="cls-19"
     d="m 24.585518,220.79 a 58.27,58.27 0 0 0 18.24,7.61 c 7,1.59 14.13,1.87 21.260001,2.15 l 14.88,0.58 c 10.14,0.4 20.34,0.79 30.380001,-0.65"
     id="path204"
     style="fill:none;stroke:#e7c9d2;stroke-miterlimit:10" />
  <path
     class="cls-19"
     d="m 102.50552,232.7 1.3,2.69"
     id="path206"
     style="fill:none;stroke:#e7c9d2;stroke-miterlimit:10" />
  <path
     class="cls-19"
     d="m 110.20552,232.76 1.14,3.22 c 0,0.12 0.07,0.28 0,0.35 -0.07,0.07 -0.18,-0.21 -0.06,-0.15"
     id="path208"
     style="fill:none;stroke:#e7c9d2;stroke-miterlimit:10" />
  <path
     class="cls-19"
     d="m 94.205519,233.77 a 11.61,11.61 0 0 1 0.63,3.83"
     id="path210"
     style="fill:none;stroke:#e7c9d2;stroke-miterlimit:10" />
  <path
     class="cls-19"
     d="m 85.145519,233.69 a 7.77,7.77 0 0 1 0.84,3.63"
     id="path212"
     style="fill:none;stroke:#e7c9d2;stroke-miterlimit:10" />
  <path
     class="cls-19"
     d="m 78.995519,233.22 0.33,3.19 0.1,0.95"
     id="path214"
     style="fill:none;stroke:#e7c9d2;stroke-miterlimit:10" />
  <path
     class="cls-19"
     d="m 71.905519,232.52 a 8.06,8.06 0 0 0 0.55,3.1"
     id="path216"
     style="fill:none;stroke:#e7c9d2;stroke-miterlimit:10" />
  <path
     class="cls-19"
     d="m 63.275519,232.08 0.15,0.55"
     id="path218"
     style="fill:none;stroke:#e7c9d2;stroke-miterlimit:10" />
  <path
     class="cls-19"
     d="m 123.36552,233.06 a 0.91,0.91 0 0 0 0.77,1.44"
     id="path220"
     style="fill:none;stroke:#e7c9d2;stroke-miterlimit:10" />
  <path
     class="cls-20"
     d="m 132.52552,231.27 a 3.75,3.75 0 0 1 1.21,2.48"
     id="path222"
     style="fill:#b58775" />
  <line
     class="cls-21"
     x1="75.005516"
     y1="208.32001"
     x2="84.995506"
     y2="203.26996"
     id="line224"
     style="fill:#bb9283" />
  <path
     class="cls-22"
     d="m 42.085518,195.66 6.49,-4.89"
     id="path226"
     style="fill:#bf8f7d" />
  <path
     class="cls-23"
     d="m 49.285518,198.31 a 33.58,33.58 0 0 0 7,-4.89"
     id="path228"
     style="fill:#bc897c" />
  <path
     class="cls-24"
     d="m 55.875518,201.83 c 2.69,-1.55 5.320001,-3.22 7.860001,-5"
     id="path230"
     style="fill:#a57464" />
  <path
     class="cls-25"
     d="m 64.575519,206.12 8,-5.77"
     id="path232"
     style="fill:#b4887a" />
  <path
     class="cls-24"
     d="m 73.005519,212.29 a 58.31,58.31 0 0 0 8.9,-7.39"
     id="path234"
     style="fill:#a57464" />
  <path
     class="cls-16"
     d="m 83.115519,211.48 6.75,-5.21"
     id="path236"
     style="fill:none;stroke:#a57464;stroke-miterlimit:10" />
  <path
     class="cls-16"
     d="m 91.525519,212.89 a 8.85,8.85 0 0 0 4.92,-2.61"
     id="path238"
     style="fill:none;stroke:#a57464;stroke-miterlimit:10" />
  <path
     class="cls-16"
     d="m 98.685519,214.54 a 10.09,10.09 0 0 0 6.000001,-4.56"
     id="path240"
     style="fill:none;stroke:#a57464;stroke-miterlimit:10" />
  <path
     class="cls-16"
     d="m 106.60552,217.43 a 7.45,7.45 0 0 0 5.45,-3.1"
     id="path242"
     style="fill:none;stroke:#a57464;stroke-miterlimit:10" />
  <path
     class="cls-16"
     d="m 117.61552,218.14 a 42.53,42.53 0 0 0 7.81,-7.59"
     id="path244"
     style="fill:none;stroke:#a57464;stroke-miterlimit:10" />
  <path
     class="cls-16"
     d="m 63.205519,192.56 1.18,-1.79"
     id="path246"
     style="fill:none;stroke:#a57464;stroke-miterlimit:10" />
  <path
     class="cls-16"
     d="m 67.295519,195.22 a 29.36,29.36 0 0 0 8.52,-4.66"
     id="path248"
     style="fill:none;stroke:#a57464;stroke-miterlimit:10" />
  <path
     class="cls-16"
     d="m 53.375518,189.84 a 19.36,19.36 0 0 1 2.31,-2.56"
     id="path250"
     style="fill:none;stroke:#a57464;stroke-miterlimit:10" />
  <path
     class="cls-16"
     d="m 48.095518,187.58 4.84,-3.21"
     id="path252"
     style="fill:none;stroke:#a57464;stroke-miterlimit:10" />
  <path
     class="cls-16"
     d="m 37.965518,193.29 a 16.2,16.2 0 0 1 5.78,-4.74"
     id="path254"
     style="fill:none;stroke:#a57464;stroke-miterlimit:10" />
  <path
     class="cls-16"
     d="m 31.145518,196 a 4.8,4.8 0 0 0 1.78,-1.31"
     id="path256"
     style="fill:none;stroke:#a57464;stroke-miterlimit:10" />
  <path
     class="cls-16"
     d="m 84.985519,197.29 7.05,-4.29"
     id="path258"
     style="fill:none;stroke:#a57464;stroke-miterlimit:10" />
  <path
     class="cls-16"
     d="m 78.645519,200.58 4.13,-3"
     id="path260"
     style="fill:none;stroke:#a57464;stroke-miterlimit:10" />
  <path
     class="cls-16"
     d="m 82.445519,202.97 a 15,15 0 0 0 4.8,-3.34"
     id="path262"
     style="fill:none;stroke:#a57464;stroke-miterlimit:10" />
  <path
     class="cls-16"
     d="m 89.315519,206.22 a 41.75,41.75 0 0 1 5.42,-4.11"
     id="path264"
     style="fill:none;stroke:#a57464;stroke-miterlimit:10" />
  <path
     class="cls-16"
     d="m 95.855519,206.81 a 12.64,12.64 0 0 0 4.930001,-2.68"
     id="path266"
     style="fill:none;stroke:#a57464;stroke-miterlimit:10" />
  <path
     class="cls-16"
     d="m 102.98552,210.01 a 26.76,26.76 0 0 0 4.82,-3"
     id="path268"
     style="fill:none;stroke:#a57464;stroke-miterlimit:10" />
  <path
     class="cls-16"
     d="m 114.74552,211.45 a 18.61,18.61 0 0 0 3.06,-2.69"
     id="path270"
     style="fill:none;stroke:#a57464;stroke-miterlimit:10" />
  <path
     class="cls-16"
     d="m 96.105519,200.02 4.230001,-3.41"
     id="path272"
     style="fill:none;stroke:#a57464;stroke-miterlimit:10" />
  <path
     class="cls-16"
     d="m 80.105519,195.59 a 27.28,27.28 0 0 0 6.57,-4.92"
     id="path274"
     style="fill:none;stroke:#a57464;stroke-miterlimit:10" />
  <path
     class="cls-16"
     d="m 64.675519,188.4 a 38.6,38.6 0 0 0 11,-2.44"
     id="path276"
     style="fill:none;stroke:#a57464;stroke-miterlimit:10" />
  <path
     class="cls-16"
     d="m 83.275519,188.11 a 38,38 0 0 0 6.2,-3.53"
     id="path278"
     style="fill:none;stroke:#a57464;stroke-miterlimit:10" />
  <path
     class="cls-16"
     d="m 92.465519,190.43 a 9.72,9.72 0 0 0 4.21,-2.46"
     id="path280"
     style="fill:none;stroke:#a57464;stroke-miterlimit:10" />
  <path
     class="cls-16"
     d="m 98.565519,194.83 a 17,17 0 0 1 3.370001,-2.59"
     id="path282"
     style="fill:none;stroke:#a57464;stroke-miterlimit:10" />
  <path
     class="cls-16"
     d="m 104.82552,196.12 a 17.84,17.84 0 0 0 3.2,-2.55"
     id="path284"
     style="fill:none;stroke:#a57464;stroke-miterlimit:10" />
  <path
     class="cls-16"
     d="m 110.45552,197.68 a 14.41,14.41 0 0 0 3.87,-3.08"
     id="path286"
     style="fill:none;stroke:#a57464;stroke-miterlimit:10" />
  <path
     class="cls-16"
     d="m 115.12552,199.51 a 3.26,3.26 0 0 0 2.46,-1.85"
     id="path288"
     style="fill:none;stroke:#a57464;stroke-miterlimit:10" />
  <path
     class="cls-16"
     d="m 109.33552,206.5 a 18.64,18.64 0 0 0 3.48,-3.22"
     id="path290"
     style="fill:none;stroke:#a57464;stroke-miterlimit:10" />
  <path
     class="cls-16"
     d="m 104.20552,205.22 3.56,-4.4"
     id="path292"
     style="fill:none;stroke:#a57464;stroke-miterlimit:10" />
  <path
     class="cls-16"
     d="m 100.66552,204.04 a 11.15,11.15 0 0 0 4.73,-4.88"
     id="path294"
     style="fill:none;stroke:#a57464;stroke-miterlimit:10" />
  <path
     class="cls-16"
     d="m 115.13552,206.53 a 7.55,7.55 0 0 0 3.93,-2.77"
     id="path296"
     style="fill:none;stroke:#a57464;stroke-miterlimit:10" />
  <path
     class="cls-16"
     d="m 121.13552,207.22 a 23.52,23.52 0 0 0 5.3,-4.55"
     id="path298"
     style="fill:none;stroke:#a57464;stroke-miterlimit:10" />
  <path
     class="cls-16"
     d="m 128.06552,207.93 5.12,-3.47"
     id="path300"
     style="fill:none;stroke:#a57464;stroke-miterlimit:10" />
  <path
     class="cls-16"
     d="m 57.765518,207.58 2.530001,-2"
     id="path302"
     style="fill:none;stroke:#a57464;stroke-miterlimit:10" />
  <path
     class="cls-16"
     d="m 52.515518,206.7 a 9.13,9.13 0 0 0 2.88,-2.65"
     id="path304"
     style="fill:none;stroke:#a57464;stroke-miterlimit:10" />
  <path
     class="cls-16"
     d="m 48.785518,204.22 1.44,-2.26"
     id="path306"
     style="fill:none;stroke:#a57464;stroke-miterlimit:10" />
  <path
     class="cls-16"
     d="m 40.205518,201.22 4.1,-3.29"
     id="path308"
     style="fill:none;stroke:#a57464;stroke-miterlimit:10" />
  <path
     class="cls-16"
     d="m 37.815518,224 3.82,-2.9"
     id="path310"
     style="fill:none;stroke:#a57464;stroke-miterlimit:10" />
  <path
     class="cls-16"
     d="m 27.205518,220.35 a 5.68,5.68 0 0 1 2.14,-1"
     id="path312"
     style="fill:none;stroke:#a57464;stroke-miterlimit:10" />
  <path
     class="cls-16"
     d="m 68.255519,232.35 1.91,-1.69"
     id="path314"
     style="fill:none;stroke:#a57464;stroke-miterlimit:10" />
  <path
     class="cls-16"
     d="m 77.125519,231.38 0.24,-0.24"
     id="path316"
     style="fill:none;stroke:#a57464;stroke-miterlimit:10" />
  <path
     class="cls-16"
     d="m 76.205519,235 1.73,-2.61"
     id="path318"
     style="fill:none;stroke:#a57464;stroke-miterlimit:10" />
  <path
     class="cls-16"
     d="m 79.265519,235.52 c 1.78,0.11 2.81,-2.49 4.59,-2.43"
     id="path320"
     style="fill:none;stroke:#a57464;stroke-miterlimit:10" />
  <path
     class="cls-16"
     d="m 86.085519,236.35 a 13.4,13.4 0 0 0 3.67,-2.43"
     id="path322"
     style="fill:none;stroke:#a57464;stroke-miterlimit:10" />
  <path
     class="cls-16"
     d="m 128.11552,209.7 a 51.07,51.07 0 0 1 10,-5.21"
     id="path324"
     style="fill:none;stroke:#a57464;stroke-miterlimit:10" />
  <path
     class="cls-16"
     d="m 121.75552,208.8 q 7.27,-4.49 14.78,-8.61 h -1.33"
     id="path326"
     style="fill:none;stroke:#a57464;stroke-miterlimit:10" />
  <path
     class="cls-16"
     d="m 115.76552,206.43 12,-4.82"
     id="path328"
     style="fill:none;stroke:#a57464;stroke-miterlimit:10" />
  <path
     class="cls-16"
     d="m 110.27552,211.98 a 74.59,74.59 0 0 1 8.66,-5.23"
     id="path330"
     style="fill:none;stroke:#a57464;stroke-miterlimit:10" />
  <path
     class="cls-16"
     d="m 102.34552,207.44 9.57,-3.69"
     id="path332"
     style="fill:none;stroke:#a57464;stroke-miterlimit:10" />
  <path
     class="cls-16"
     d="m 122.74552,214.85 4.59,-3.33"
     id="path334"
     style="fill:none;stroke:#a57464;stroke-miterlimit:10" />
  <path
     class="cls-16"
     d="m 133.06552,217.16 a 12,12 0 0 1 5.9,-7.28"
     id="path336"
     style="fill:none;stroke:#a57464;stroke-miterlimit:10" />
  <path
     class="cls-16"
     d="m 138.54552,219.65 8.36,-6.82"
     id="path338"
     style="fill:none;stroke:#a57464;stroke-miterlimit:10" />
  <path
     class="cls-16"
     d="m 148.56552,218.89 7.81,-5.19"
     id="path340"
     style="fill:none;stroke:#a57464;stroke-miterlimit:10" />
  <path
     class="cls-16"
     d="m 157.04552,220.12 a 7.45,7.45 0 0 0 7.21,-3.62"
     id="path342"
     style="fill:none;stroke:#a57464;stroke-miterlimit:10" />
  <path
     class="cls-16"
     d="m 143.01552,235.04 a 79.54,79.54 0 0 1 7.66,-12"
     id="path344"
     style="fill:none;stroke:#a57464;stroke-miterlimit:10" />
  <path
     class="cls-16"
     d="m 131.20552,239.56 a 8.23,8.23 0 0 1 4.62,-5.26 l 6.29,-9.74"
     id="path346"
     style="fill:none;stroke:#a57464;stroke-miterlimit:10" />
  <path
     class="cls-16"
     d="m 146.36552,239.61 5.08,-8.62"
     id="path348"
     style="fill:none;stroke:#a57464;stroke-miterlimit:10" />
  <path
     class="cls-16"
     d="m 152.83552,237.6 a 17.81,17.81 0 0 0 7.64,-7.51"
     id="path350"
     style="fill:none;stroke:#a57464;stroke-miterlimit:10" />
  <path
     class="cls-16"
     d="m 129.06552,247.52 3.36,-5.9"
     id="path352"
     style="fill:none;stroke:#a57464;stroke-miterlimit:10" />
  <path
     class="cls-16"
     d="m 126.20552,241.88 a 22.4,22.4 0 0 0 6.32,-7.4"
     id="path354"
     style="fill:none;stroke:#a57464;stroke-miterlimit:10" />
  <path
     class="cls-16"
     d="m 163.01552,236.22 a 12.32,12.32 0 0 0 4.62,-6.81"
     id="path356"
     style="fill:none;stroke:#a57464;stroke-miterlimit:10" />
  <path
     class="cls-17"
     d="m 87.925519,201.75 a 211.59,211.59 0 0 0 29.820001,12.47 c 8.06,2.66 25.22,7.79 56.94,10.56 32.58,2.84 59.63,1.37 59.64,0.48 0.01,-0.89 -23.78,-0.36 -60.55,-5.76 -17.2,-2.53 -32.15,-5.6 -48.8,-11 -8,-2.63 -14.66,-5.22 -19.43,-7.2"
     id="path358"
     style="fill:none;stroke:#886f78;stroke-miterlimit:10" />
  <path
     class="cls-26"
     d="m 83.205519,273.51 c 10,-0.57 19.920001,-0.9 29.940001,-0.79 10.02,0.11 20,0.47 30,0.67 a 325.93,325.93 0 0 0 36.45,-0.84 c 9.6,-0.89 19.14,-2.27 28.64,-3.91 23.76,-4.09 47.11,-10.38 70.85,-14.64 16.67,-3 33.66,-4.8 50.5,-6.49 14.08,-1.41 28.16,-2.69 42.22,-4.22 14.06,-1.53 28.25,-3.19 42.2,-5.75 a 232.93,232.93 0 0 0 24.26,-5.32 c 8.5,-2.52 16.71,-5.93 23.84,-11.27 a 41.52,41.52 0 0 0 9.77,-9.89 51.61,51.61 0 0 0 5.8,-12.18 c 1.35,-4 2.29,-8 3.43,-12 l 2.3,-7.54 a 15.66,15.66 0 0 1 5.61,-7.75 l -3,2 4.34,-2.15 c 0.64,-0.31 1.63,-0.81 1.81,-1.59 a 1.35,1.35 0 0 0 -1,-1.59 c -0.92,-0.3 -2.12,0.24 -3,0.54 a 19.6,19.6 0 0 0 -4.34,2.05 15.93,15.93 0 0 0 -5.22,5.45 c -2.55,4.28 -4,9.19 -5.61,13.88 l 0.31,-0.85 a 75.89,75.89 0 0 1 -5.31,11.19 47.67,47.67 0 0 1 -7.22,9.13 58,58 0 0 1 -19.23,11.57 139.14,139.14 0 0 1 -21.83,6.17 c -27.78,5.75 -56.06,8.5 -84.25,11.41 -24.88,2.57 -49.81,5.13 -74.43,9.68 -21.15,3.91 -42.13,8.74 -63.37,12.18 -21.44,3.47 -43,4.29 -64.68,4.09 -19.93,-0.17 -39.820001,-0.29 -59.750001,0.46 a 1.05,1.05 0 0 0 -0.85,1.33 4.87,4.87 0 0 0 2.32,2.46 59.27,59.27 0 0 0 5.32,3.41 4.83,4.83 0 0 0 3.18,1.1 z"
     id="path360"
     style="opacity:0.11;fill:#ffffff" />
  <path
     class="cls-26"
     d="m 76.205519,268.6 a 162.06,162.06 0 0 1 17.62,-0.89 q 6,-0.17 12.000001,0 c 10,0.1 20,0.45 30,0.64 a 333.08,333.08 0 0 0 36.44,-0.83 c 9.59,-0.88 19.1,-2.23 28.58,-3.85 23.76,-4.05 47.08,-10.31 70.8,-14.57 16.67,-3 33.66,-4.8 50.5,-6.5 14.08,-1.41 28.17,-2.7 42.23,-4.23 14.06,-1.53 28.24,-3.18 42.19,-5.74 a 237.21,237.21 0 0 0 24.18,-5.27 c 8.44,-2.47 16.63,-5.82 23.74,-11.08 a 39.92,39.92 0 0 0 9.65,-9.67 49.23,49.23 0 0 0 5.65,-11.82 c 1.3,-3.85 2.25,-7.79 3.29,-11.71 a 68.21,68.21 0 0 1 4,-11.61 l -0.63,0.9 2.58,-3.63 -0.66,0.88 4.94,-3.14 c 1.73,-0.81 0.82,-2.39 -0.62,-2.61 a 32.11,32.11 0 0 0 -9.38,2.23 24.38,24.38 0 0 0 -4.8,4.77 30.13,30.13 0 0 0 -3.91,7.45 c -2.68,6.87 -4.43,14.08 -8.57,20.27 a 39.71,39.71 0 0 1 -9.59,10.14 59.5,59.5 0 0 1 -10.59,6 94.17,94.17 0 0 1 -14.35,4.92 c -8.58,2.3 -17.85,3.95 -26.46,5.36 -30.79,5 -61.89,7.48 -92.87,11 -14.05,1.59 -28.07,3.37 -42,5.66 -14.15,2.32 -28.16,5.5 -42.21,8.33 -14.05,2.83 -28.16,5.56 -42.38,7.2 a 345,345 0 0 1 -38.37,2.1 c -12.1,0.05 -24.2,-0.32 -36.29,-0.3 q -17.700001,0 -35.360001,0.74 a 1,1 0 0 0 -0.86,1.32 5.52,5.52 0 0 0 2.49,2.61 66.1,66.1 0 0 0 5.65,3.7 5.47,5.47 0 0 0 3.37,1.23 z"
     id="path362"
     style="opacity:0.11;fill:#ffffff" />
  <path
     class="cls-26"
     d="m 80.295519,262.37 a 101.26,101.26 0 0 1 23.180001,-1.81 l 11.92,0.13 c 12,0.19 24,0.81 36,0.76 a 271.74,271.74 0 0 0 38.81,-2.65 c 14.41,-2.13 28.66,-5.15 42.88,-8.3 14.22,-3.15 28.17,-6.47 42.41,-8.86 14,-2.35 28,-4.11 42.07,-5.59 33.84,-3.55 67.83,-5.88 101.26,-12.53 a 166.5,166.5 0 0 0 18.38,-4.51 95.34,95.34 0 0 0 10.52,-4.09 c 8.33,-3.8 16.15,-9.65 21.14,-17.43 a 45.32,45.32 0 0 0 5.8,-14.87 c 0.9,-4 1.54,-8.1 2.46,-12.12 a 52.83,52.83 0 0 1 1.67,-6.19 11,11 0 0 1 8.51,-8.14 c 1,-0.38 0.74,-2.19 0.05,-2.69 -1,-0.74 -3.72,-0.6 -4.79,-0.08 a 12.83,12.83 0 0 0 -4.8,2.71 5.43,5.43 0 0 0 -2.36,2.56 24.64,24.64 0 0 0 -2.8,5.45 54.32,54.32 0 0 0 -2,10.26 q -0.45,3.45 -1,6.89 l -10.77,21.16 c -7.35,7 -17.75,11.15 -27.33,13.87 -9.87,2.81 -20,4.41 -30.12,6 -14,2.23 -28.1,3.93 -42.23,5.36 -11.26,1.14 -22.54,2.15 -33.81,3.27 -16.85,1.67 -33.85,3.46 -50.53,6.47 -21.29,3.84 -42.28,9.16 -63.49,13.39 a 355.6,355.6 0 0 1 -35.7,5.45 286.35,286.35 0 0 1 -30.42,0.98 c -10,-0.11 -20.08,-0.52 -30.12,-0.71 l -12,-0.12 a 86.12,86.12 0 0 0 -23.000001,2 c -0.8,0.12 -1.93,1 -1.9,1.9 0.02,0.68 1.34,2.19 2.11,2.08 z"
     id="path364"
     style="opacity:0.11;fill:#ffffff" />
  <path
     class="cls-26"
     d="m 81.425519,265.56 q 8.91,-0.85 17.84,-0.83 6.000001,-0.15 12.000001,0 c 10,0.09 20,0.45 30.06,0.61 10.06,0.16 20.23,0.12 30.35,-0.48 a 304.18,304.18 0 0 0 34.68,-4.2 c 23.7,-4.17 47,-10.54 70.72,-14.51 27.94,-4.67 56.15,-6.85 84.3,-9.82 11.28,-1.19 22.55,-2.46 33.78,-4 q 12.72,-1.68 25.26,-4.3 a 120.74,120.74 0 0 0 13.3,-2.9 99.19,99.19 0 0 0 18,-6.71 57.41,57.41 0 0 0 11,-7.19 38,38 0 0 0 8.62,-10.67 c 4.28,-7.61 5.48,-16.79 7.73,-25.13 l -0.26,0.93 a 26,26 0 0 1 2.22,-5.4 13.26,13.26 0 0 1 2.88,-4.26 l -1.39,1.16 3.78,-3 -4.76,2.47 6.1,-2.57 c 0.51,-0.22 2.11,-1 1.91,-1.87 l -0.75,-0.62 a 7.65,7.65 0 0 0 -3.59,0.19 c -3.11,0.53 -6.17,1.3 -9.22,2.12 a 37.79,37.79 0 0 0 -4.18,1.23 7.78,7.78 0 0 0 -3.25,1.52 41.92,41.92 0 0 0 -4.5,5.7 c -1.59,2.42 -2.86,4.94 -4.23,7.49 -2.32,4.31 -4.5,8.58 -7.07,12.77 l 0.57,-0.79 c -1.58,2 -3.18,3.91 -4.82,5.82 l 0.73,-0.64 -3.74,3.16 0.78,-0.57 -4.07,2.95 0.82,-0.52 -4.6,2.52 0.86,-0.47 a 99.35,99.35 0 0 1 -17.51,6.44 c -14,3.69 -28.46,5.76 -42.75,7.75 -39.35,5.47 -79.12,7.56 -118.33,14.13 -32.46,5.45 -64.34,14.06 -97.29,16.37 -16.21,1.13 -32.46,0.85 -48.7,0.72 -15.920001,-0.12 -31.840001,-0.06 -47.750001,0.45 -3.52,0.11 2.32,5.27 2.36,5.31 q 3.69,3.52 7.61,6.77 a 11.54,11.54 0 0 0 4.5,2.87 z"
     id="path366"
     style="opacity:0.11;fill:#ffffff" />
  <path
     class="cls-26"
     d="m 84.435519,259.93 c 11.82,-0.22 23.610001,-0.55 35.430001,-0.26 10,0.25 20.05,0.64 30.08,0.76 6.31,0.08 12.57,0 18.89,-0.17 a 269.14,269.14 0 0 0 40.82,-4.77 c 23.7,-4.49 47.05,-10.56 70.77,-14.93 27.55,-5.07 55.72,-6.73 83.56,-9.63 14.35,-1.5 28.67,-3.15 42.93,-5.42 14.26,-2.27 29,-4.61 42.45,-10.39 7.53,-3.24 15.08,-7.84 20.23,-14.37 a 47.18,47.18 0 0 0 4.69,-7.27 52.24,52.24 0 0 0 4.25,-12.36 c 1,-4.37 1.7,-8.86 3,-13.18 l 1.23,-3.91 a 18.44,18.44 0 0 1 3.55,-5.93 l -0.7,0.7 a 10.78,10.78 0 0 1 5.25,-3 c 1.43,-0.55 1.24,-2.08 0,-2.68 a 21.6,21.6 0 0 0 -7.8,0 24.17,24.17 0 0 0 -6.08,4.59 18.07,18.07 0 0 0 -4,7.08 c -2,6.57 -2.21,13.56 -3.63,20.26 a 26.3,26.3 0 0 1 -3.27,8.43 l -9.38,10.48 c -3.68,3.05 -8.81,5.48 -13.22,7.23 a 116.24,116.24 0 0 1 -12,4 136,136 0 0 1 -19.11,4 q -12.57,2.25 -25.25,3.76 c -25.32,3.25 -50.81,4.86 -76.15,7.93 -11.2,1.36 -22.46,2.67 -33.56,4.69 -11.75,2.14 -23.4,4.71 -35,7.36 -11.6,2.65 -23.37,5.34 -35.15,7.59 a 282.31,282.31 0 0 1 -51.92,5 c -12.11,0.06 -24.22,-0.63 -36.33,-0.89 -12.33,-0.26 -24.640001,0 -37.000001,-0.16 a 2,2 0 0 0 -1.22,1 1.49,1.49 0 0 0 0.29,1.66 c 0.66,1.16 1.86,2.83 3.35,2.8 z"
     id="path368"
     style="opacity:0.11;fill:#ffffff" />
  <path
     class="cls-26"
     d="m 75.675519,268.36 a 83,83 0 0 1 17.08,-1.5 q 8.940001,-0.28 17.880001,0 c 8,0.18 16,0.48 24,0.65 a 314.63,314.63 0 0 0 36.46,-0.86 361.64,361.64 0 0 0 35.83,-5.43 c 24.1,-4.78 47.91,-10.93 72.21,-14.69 30.77,-4.76 61.86,-6.49 92.74,-10.27 14.14,-1.73 28.21,-3.76 42.18,-6.55 a 151.65,151.65 0 0 0 18.35,-4.49 c 6.93,-2.3 13.91,-5.3 19.83,-9.65 a 45,45 0 0 0 11.82,-12.35 l 3,-5.38 a 55,55 0 0 0 2.53,-7.63 c 1.16,-4.17 1.87,-8.41 2.88,-12.62 1.56,-6.48 2.91,-13.36 10.6,-15.45 1,-0.28 1.11,-1.62 0.73,-2.47 -0.47,-1 -1.88,-0.86 -2.79,-0.59 a 15,15 0 0 0 -5.66,2.5 c -1.83,1.14 -3.49,4.29 -4.18,6.13 -2.49,6.65 -3.14,13.83 -5,20.66 a 49.11,49.11 0 0 1 -2.32,7.2 33.41,33.41 0 0 1 -4.56,7.42 26.86,26.86 0 0 1 -5.59,6.12 l -8.26,5.83 a 70.82,70.82 0 0 1 -14.52,6.28 186,186 0 0 1 -26.65,6.13 c -30.76,5.29 -61.87,7.61 -92.88,10.88 -14.08,1.49 -28.12,3.25 -42.09,5.6 -14.2,2.38 -28.23,5.71 -42.3,8.8 -14.07,3.09 -28.36,6.21 -42.71,8.2 a 280.3,280.3 0 0 1 -38.72,2.64 c -12.05,0 -24.09,-0.54 -36.14,-0.73 l -12.000001,-0.12 a 101.68,101.68 0 0 0 -22.9,1.76 2.22,2.22 0 0 0 -1.49,2.23 3.15,3.15 0 0 0 2.64,1.75 z"
     id="path370"
     style="opacity:0.11;fill:#ffffff" />
  <path
     class="cls-26"
     d="m 79.055519,275.22 q 8.9,-0.73 17.81,-0.78 9.000001,-0.26 17.940001,0 c 12,0.2 24,0.8 36,0.7 a 313.65,313.65 0 0 0 31.55,-1.72 c 12.06,-1.32 24,-3.45 35.85,-5.82 14.25,-2.84 28.38,-6.23 42.62,-9.14 15.76,-3.22 31.72,-5.59 47.71,-7.4 30.94,-3.51 62,-5.6 92.8,-10.43 a 301,301 0 0 0 30.26,-5.88 96.56,96.56 0 0 0 15,-5.15 63.62,63.62 0 0 0 14.39,-8.63 c 1.55,-1.28 3,-2.68 4.42,-4.09 4.15,-4.08 7.08,-9.77 9,-15.17 2.24,-6.26 3.1,-12.74 5.09,-19.07 1.36,-4.34 2.67,-8.11 6.82,-10.73 l -2,0.86 3.79,-1.16 c 1.2,-0.38 2.18,-1 1.7,-2.4 -0.48,-1.4 -1.62,-1.15 -2.83,-0.81 -2.52,0.72 -5,1.58 -6.89,3.54 -2.49,2.62 -3.9,6.27 -4.9,9.64 l -1.11,4.07 a 65.16,65.16 0 0 1 -3.28,10.38 q -4.67,15.81 -20.34,24.86 l -4.59,2.33 a 83.29,83.29 0 0 1 -12.33,4.66 c -4.11,1.26 -8.28,2.27 -12.48,3.21 q -12.54,2.68 -25.24,4.49 -12.6,2.06 -25.3,3.44 c -28.09,3.24 -56.32,5.32 -84.33,9.28 -24.69,3.5 -48.92,9.23 -73.38,14 a 346.9,346.9 0 0 1 -42.78,6.1 c -10.12,0.68 -20.24,0.89 -30.37,0.83 -10.13,-0.06 -20,-0.38 -30.07,-0.43 -11.850001,-0.07 -23.670001,0.27 -35.520001,0.76 a 1.45,1.45 0 0 0 -1.22,2.39 17.31,17.31 0 0 0 6.21,3.19 z"
     id="path372"
     style="opacity:0.11;fill:#ffffff" />
  <path
     class="cls-26"
     d="m 86.035519,265.22 q 8.92,-0.76 17.870001,-0.76 9,-0.18 18,0.05 c 10,0.19 20.06,0.54 30.09,0.64 10.03,0.1 20.29,-0.13 30.41,-0.89 14.37,-1.08 28.74,-3.76 42.83,-6.64 14.09,-2.88 28.24,-6.34 42.44,-9.14 q 19.55,-3.86 39.29,-6.31 c 30.89,-3.86 62.05,-5.61 92.85,-10.17 16.32,-2.41 32.93,-4.66 48.48,-10.39 6.76,-2.49 13.83,-6 19.18,-10.89 a 42.41,42.41 0 0 0 8.73,-10.9 51.29,51.29 0 0 0 4.47,-12.08 c 1.12,-4.21 1.79,-8.57 3.17,-12.71 l 1.36,-3.81 a 17.13,17.13 0 0 1 3.68,-5.89 l -1.12,1.09 5.06,-3 c 0.53,-0.22 1.75,-1 1.56,-1.78 l -0.67,-0.64 a 5.55,5.55 0 0 0 -3,0.07 72.07,72.07 0 0 0 -7.79,1.81 c -1.91,0.53 -4.76,1 -6.22,2.48 l -2.51,2.57 -2,3 a 72.46,72.46 0 0 0 -4.1,7.62 c -2.27,4.55 -4.35,9.19 -6.67,13.72 l 0.48,-0.78 c -1.46,2.17 -3,4.29 -4.53,6.39 l 0.66,-0.65 -3.57,3.46 0.71,-0.58 -4,3.21 0.75,-0.52 -4.41,2.78 0.79,-0.48 a 88.52,88.52 0 0 1 -17.44,7.12 c -13.89,4 -28.43,6 -42.71,8 -39.33,5.52 -79.13,7.31 -118.31,14 -32.47,5.53 -64.29,14.71 -97.25,17.19 -16.21,1.21 -32.45,0.85 -48.69,0.6 -15.88,-0.24 -31.740001,-0.27 -47.620001,0.22 -3,0.09 0.63,4.17 1,4.65 1.7,2 3.49,4 5.36,5.83 a 7.21,7.21 0 0 0 3.39,2.51 z"
     id="path374"
     style="opacity:0.11;fill:#ffffff" />
  <path
     class="cls-26"
     d="m 77.045519,264.53 a 91.53,91.53 0 0 1 17.09,-1.31 q 9.000001,-0.24 18.000001,0.05 c 10,0.22 20,0.6 30,0.71 10.16,0.11 20.29,-0.12 30.42,-0.89 14.42,-1.09 28.83,-3.82 43,-6.74 14.17,-2.92 28.32,-6.43 42.56,-9.26 q 19.53,-3.89 39.28,-6.34 c 30.87,-3.88 62,-5.55 92.81,-10.12 14.84,-2.2 30.08,-4.09 44.32,-9 8.41,-2.9 16.91,-6.47 23.56,-12.56 a 44.44,44.44 0 0 0 8.91,-11.18 51.8,51.8 0 0 0 4.65,-12.34 c 1.24,-4.71 1.83,-9.56 3.13,-14.25 l 1.2,-4 a 11.26,11.26 0 0 1 8.37,-8.25 c 1.15,-0.45 0.67,-2.22 -0.14,-2.68 a 7.76,7.76 0 0 0 -2.76,-0.22 7.94,7.94 0 0 0 -2.72,0.5 c -2.2,1.18 -4.88,2.44 -6.3,4.65 a 33.91,33.91 0 0 0 -2.63,4.71 c -3.14,7.18 -3.11,15.4 -5.38,22.86 -2.78,9.14 -9.25,16.34 -17.35,21.21 a 49.91,49.91 0 0 1 -6.85,3.65 l -14,4.87 a 113.64,113.64 0 0 1 -13.29,2.91 q -12.53,2.63 -25.22,4.3 c -28.07,3.87 -56.33,5.91 -84.47,9.1 -16,1.81 -31.9,4.16 -47.63,7.4 -14.14,2.91 -28.19,6.31 -42.35,9.16 -11.79,2.37 -23.59,4.51 -35.56,5.83 a 311.62,311.62 0 0 1 -31.44,1.71 c -12.06,0.1 -24.12,-0.53 -36.18,-0.72 l -12.000001,-0.12 a 141,141 0 0 0 -23,1.3 1.75,1.75 0 0 0 -1.71,2.07 c 0.27,0.9 2.66,3.1 3.68,2.99 z"
     id="path376"
     style="opacity:0.11;fill:#ffffff" />
  <path
     class="cls-26"
     d="m 79.375519,260.69 c 10,-0.46 19.92,-0.77 29.920001,-0.67 10,0.1 20,0.46 30.07,0.66 a 328.39,328.39 0 0 0 36.45,-0.82 c 9.58,-0.88 19.08,-2.24 28.56,-3.87 23.72,-4.07 47,-10.36 70.72,-14.62 16.66,-3 33.66,-4.8 50.49,-6.49 14.08,-1.42 28.17,-2.69 42.24,-4.22 14.07,-1.53 28.24,-3.18 42.19,-5.74 a 239.82,239.82 0 0 0 24.19,-5.29 c 7.59,-2.22 15.36,-5.15 21.84,-9.79 1.54,-1.1 3.09,-2.28 4.54,-3.52 a 39.27,39.27 0 0 0 8.62,-10.7 c 4.37,-7.69 5.56,-16.89 7.79,-25.35 l -0.23,0.87 a 30.6,30.6 0 0 1 2.92,-7.11 12,12 0 0 1 4.32,-4.5 l -1.19,0.78 2.74,-1.21 c 0.54,-0.24 1.66,-0.7 1.59,-1.49 -0.12,-1.32 -2.35,-1.19 -3.17,-1.2 a 59.11,59.11 0 0 0 -7,0.45 c -1.71,0.2 -4.34,0.2 -5.75,1.39 a 17.3,17.3 0 0 0 -4.23,4 18.69,18.69 0 0 0 -3.08,4.48 51.27,51.27 0 0 0 -3.88,10.81 95.38,95.38 0 0 1 -2.68,9.6 l -1.24,2.91 a 27.24,27.24 0 0 1 -5.06,7.17 l 0.65,-0.59 -4,3.58 0.68,-0.55 a 44.16,44.16 0 0 1 -7.76,5 73.85,73.85 0 0 1 -8.92,3.82 c -9.91,3.59 -20.53,5.42 -30.84,7.21 -41.94,7.28 -84.61,8.87 -126.67,15.25 -35.58,5.4 -70.27,16.17 -106.26,18.95 -16.18,1.25 -32.39,0.86 -48.6,0.55 -16,-0.3 -32.000001,-0.18 -47.940001,0.14 -2.69,0.05 0.26,3.57 0.62,4 a 56.23,56.23 0 0 0 4.45,4.42 4.77,4.77 0 0 0 2.91,1.69 z"
     id="path378"
     style="opacity:0.11;fill:#ffffff" />
  <path
     class="cls-26"
     d="m 85.475519,269.56 q 8.94,-0.78 17.910001,-0.77 9,-0.19 18,0.05 c 10,0.2 20.05,0.55 30.08,0.65 10.03,0.1 20.29,-0.13 30.41,-0.9 14.38,-1.08 28.76,-3.77 42.87,-6.66 14.11,-2.89 28.25,-6.35 42.46,-9.16 q 19.54,-3.85 39.3,-6.31 c 30.89,-3.86 62.05,-5.6 92.85,-10.16 16.33,-2.42 32.94,-4.68 48.49,-10.43 a 58.12,58.12 0 0 0 22.36,-14.23 39.84,39.84 0 0 0 8.52,-14.94 c 1.45,-4.3 2.41,-8.81 3.6,-13.19 a 64.29,64.29 0 0 1 4.19,-11.47 l -0.74,1.1 a 13.11,13.11 0 0 1 4.27,-4.55 l -5.45,3 8.19,-4 a 1.37,1.37 0 1 0 -0.9,-2.53 55.26,55.26 0 0 0 -11.83,4.16 24.72,24.72 0 0 0 -5.07,6 83.54,83.54 0 0 0 -4.94,9.71 65.1,65.1 0 0 1 -9.3,15.4 27.42,27.42 0 0 1 -6.16,6.1 l -3.56,2.57 a 59.57,59.57 0 0 1 -12.51,5.89 c -14.11,5.08 -29.1,7.29 -43.86,9.54 -30.9,4.7 -62.07,6.91 -93.08,10.72 -15.93,1.95 -31.8,4.16 -47.55,7.24 -11.62,2.26 -23.2,4.72 -34.81,7 -11.61,2.28 -23.15,4.3 -34.84,5.75 a 332.48,332.48 0 0 1 -38.25,2.16 c -12.2,0.1 -24.41,-0.29 -36.61,-0.28 -11.820001,0 -23.630001,0.12 -35.440001,0.48 -3.16,0.1 1.46,4.45 1.59,4.58 q 2.94,2.79 6.1,5.33 a 7.51,7.51 0 0 0 3.71,2.15 z"
     id="path380"
     style="opacity:0.11;fill:#ffffff" />
  <path
     class="cls-26"
     d="m 75.825519,271.5 a 104.92,104.92 0 0 1 17.07,-1.21 q 9.000001,-0.26 17.930001,0 c 10,0.21 20,0.56 30,0.67 10.16,0.1 20.29,-0.13 30.43,-0.89 14.45,-1.08 29,-3.78 43.14,-6.74 11.9,-2.49 23.75,-5.22 35.63,-7.75 q 18.92,-4 38,-6.8 c 30.76,-4.46 61.87,-6.11 92.68,-10.08 q 8.49,-1 16.9,-2.43 12.75,-1.86 25.33,-4.68 c 4.25,-1.09 8.46,-2.27 12.6,-3.75 a 82.59,82.59 0 0 0 12.32,-5.46 49,49 0 0 0 9,-6.36 35.65,35.65 0 0 0 6.24,-6.81 35,35 0 0 0 4.7,-7.76 l 1.8,-5.05 c 1.64,-5 2.29,-10.14 3.56,-15.22 l 2.23,-7.74 q 2.05,-5.82 8.51,-7.63 c 1,-0.27 0.9,-1.4 0.63,-2.14 a 1.52,1.52 0 0 0 -2.1,-1 c -2.81,0.79 -4.13,1 -6.49,2.72 -1.77,1.31 -3.41,4.25 -4.15,6.18 -2.24,5.84 -3,12.18 -4.51,18.22 a 65.9,65.9 0 0 1 -3.16,9.58 l -2.91,5 a 25.88,25.88 0 0 1 -9.58,9.29 34.64,34.64 0 0 1 -10.87,7.16 c -14.42,6.29 -30.17,8.73 -45.59,11.16 -30.78,4.85 -61.86,6.77 -92.77,10.47 -16,1.91 -31.91,4.18 -47.69,7.38 -11.89,2.41 -23.71,5.08 -35.58,7.59 -11.87,2.51 -23.9,4.84 -36,6.53 a 288.58,288.58 0 0 1 -38.64,2.45 c -12,0.05 -24,-0.48 -36,-0.63 l -12.000001,-0.09 a 142.09,142.09 0 0 0 -22.8,1.54 1.89,1.89 0 0 0 -1.34,2.33 4.71,4.71 0 0 0 3.48,1.95 z"
     id="path382"
     style="opacity:0.11;fill:#ffffff" />
  <path
     class="cls-10"
     d="m 146.20552,138.02 c 0.18,2.07 2.72,2.13 3.6,5 1.16,3.83 -2.58,6 -2.16,10.08 0.38,3.71 4,6.07 7.92,8.64 3.25,2.12 9.9,6.47 16.56,4.32 2.44,-0.79 4,-2.21 7.2,-5 4,-3.61 6.06,-5.41 6.48,-7.92 0.71,-4.25 -3.53,-8 -10.8,-14.4 -7,-6.15 -10.46,-9.23 -15.12,-9.36 -6.9,-0.16 -13.94,5.08 -13.68,8.64 z"
     id="path384"
     style="fill:#977571" />
  <path
     class="cls-27"
     d="m 496.40552,201.14 c 1.28,1.18 4.14,-1.83 8.64,-0.48 3.75,1.12 5.88,4.44 6.72,5.76 3.08,4.8 1,6.92 3.6,11.76 0.45,0.83 3.63,6.54 10.08,8.16 1.06,0.27 6.11,1.54 10.32,-1.44 0.76,-0.54 3.62,-2.56 3.84,-5.52 0.25,-3.32 -3,-5.42 -6.72,-9.12 -1.17,-1.17 -5.1,-7 -13,-18.72 -6.87,-10.23 -7.47,-11.54 -9.36,-11.76 -7.69,-0.88 -16.98,18.72 -14.12,21.36 z"
     id="path386"
     style="fill:#638b9a" />
  <path
     class="cls-28"
     d="m 510.08552,176.22 c -0.19,5.25 -2.19,5.29 -3.36,15.12 -0.44,3.72 -0.57,7.18 -3.12,9.12 -1.35,1 -3.82,2 -5.76,1.2 -5.94,-2.36 1.27,-17.65 -5.76,-36.72 a 149.74,149.74 0 0 1 -5.28,-17.28 c -1.11,-4.63 -1.84,-8.63 0.24,-12.24 1.24,-2.15 3.74,-4.62 5.52,-4.08 2.4,0.73 1.7,6.4 2.64,12.48 2.63,17.06 15.37,19.06 14.88,32.4 z"
     id="path388"
     style="fill:#939e92" />
  <path
     class="cls-29"
     d="m 399.68552,162.5 c -0.2,1.65 6.1,2.34 14.46,7.47 8.36,5.13 13.5,11.45 18.31,17.88 6.08,8.14 6.07,10.16 15.47,24.33 9.7,14.63 12.21,15.77 14.4,15.84 5.39,0.17 6,-6.42 18.72,-13.68 2.92,-1.67 5.58,-2.85 10.8,-6.12 7.55,-4.72 8.8,-6.5 9.45,-7.8 1,-2.1 0.68,-3.22 -0.81,-13.44 -1.72,-11.78 -2.08,-15.58 -4,-25.12 -0.1,-0.52 -0.2,-1 -0.32,-1.52 -2.87,-13 -7.2,-27.36 -7.2,-27.36 -25.66,10.07 -29.52,11.52 -29.52,11.52 a 80.45,80.45 0 0 1 -22,11.52 c -19.72,6.67 -37.42,3.7 -37.76,6.48 z"
     id="path390"
     style="fill:#93b259" />
  <path
     class="cls-30"
     d="m 155.60552,145.94 c 3.07,-2.25 7.12,-1.17 11.52,0 4.19,1.12 9.36,2.49 11.52,7.2 1,2.23 1.72,5.94 0,8.64 -4,6.33 -20.72,6.08 -25.2,-2.16 -2.24,-4.18 -1.66,-10.88 2.16,-13.68 z"
     id="path392"
     style="fill:#e0e24b" />
  <path
     class="cls-31"
     d="m 37.875518,237.95 a 238,238 0 0 0 28.420001,3.3 l 14.62,0.41 c 14.81,0.18 29.620001,-1 44.350001,-2.5 31.85,-3.23 63.4,-9.59 94.82,-15.57 13.69,-2.61 27.36,-5.3 40.94,-8.42 13.58,-3.12 27,-6.52 40.45,-9.88 13.45,-3.36 26.66,-6.54 40.12,-9.31 q 9.9,-2.13 19.91,-3.72 13.13,-2.16 26.38,-3.23 l -1.6,0.1 14.7,-0.82 -1.6,0.07 a 219.35,219.35 0 0 1 26,0.65 c 0.81,0 2,0.26 2.55,-0.63 0.79,-1.43 -1.12,-2.73 -2,-3.38 a 54.18,54.18 0 0 0 -6.77,-4 19.62,19.62 0 0 0 -3.28,-1.54 4.39,4.39 0 0 0 -3,-0.63 q -6.63,-0.25 -13.27,-0.19 -6.61,0.24 -13.25,0.5 c -17.81,0.79 -35.63,3.88 -53.09,7.32 -31.39,6.18 -62.27,14.66 -93.62,21 -18.28,3.7 -36.69,6.87 -55.09,9.87 -14.39,2.35 -28.79,4.6 -43.26,6.36 a 503.4,503.4 0 0 1 -57.800001,4.08 q -14.31,0.13 -28.590001,-1 a 246.59,246.59 0 0 1 -26.71,-4.18 1.35,1.35 0 0 0 -1.63,1.32 7,7 0 0 0 2,4.26 83.56,83.56 0 0 0 5.56,6.88 7,7 0 0 0 3.74,2.88 z"
     id="path394"
     style="opacity:0.11;fill:#d65988" />
  <path
     class="cls-31"
     d="m 28.605518,231.02 a 265.62,265.62 0 0 0 28.13,3.27 q 14.630001,0.76 29.270001,0.19 c 14.830001,-0.63 29.590001,-2 44.310001,-3.89 31.39,-4.08 62.54,-10.2 93.59,-16.28 15.91,-3.11 31.71,-6.66 47.45,-10.54 13.42,-3.31 26.81,-6.76 40.28,-9.91 13.23,-3.1 26.52,-5.91 39.93,-8.15 q 13.14,-2.16 26.4,-3.27 a 246.57,246.57 0 0 1 26.21,-0.79 l -1.67,-0.06 14.7,0.79 a 1.34,1.34 0 0 0 1.06,-1.81 7.21,7.21 0 0 0 -3.49,-3.29 83.58,83.58 0 0 0 -7.77,-4.52 7.29,7.29 0 0 0 -4.59,-1.4 257.25,257.25 0 0 0 -26.49,0.28 q -13.32,0.82 -26.53,2.72 c -13.4,1.88 -26.71,4.49 -39.92,7.35 -31.35,6.77 -62.33,15 -93.86,20.95 -13.84,2.61 -27.73,5 -41.62,7.31 -19.21,3.2 -38.51,6.19 -57.9,8 -14.48,1.38 -29.000001,2.37 -43.540001,2.43 q -14.390001,0.09 -28.730001,-1.06 a 235.57,235.57 0 0 1 -26.79,-4.28 1.29,1.29 0 0 0 -1.56,1.41 8.07,8.07 0 0 0 2.53,4.43 q 3,3.72 6.44,7.12 a 8.18,8.18 0 0 0 4.16,3 z"
     id="path396"
     style="opacity:0.11;fill:#d65988" />
  <path
     class="cls-31"
     d="m 32.205518,222.61 a 197.23,197.23 0 0 0 28.680001,3 q 14.75,0.66 29.48,0 c 14.920001,-0.64 29.840001,-2.21 44.630001,-4.23 17.27,-2.36 34.44,-5.43 51.58,-8.65 16.42,-3.08 32.85,-6.13 49.22,-9.5 31.7,-6.52 62.75,-15.72 94.4,-22.44 13.16,-2.79 26.38,-5.32 39.75,-6.91 q 13.05,-1.61 26.21,-1.93 a 211.77,211.77 0 0 1 25.93,0.95 2.87,2.87 0 0 0 2.5,-2.56 4.5,4.5 0 0 0 -3.12,-3 216.62,216.62 0 0 0 -26.23,-1 q -13.23,0.33 -26.38,1.93 c -13.37,1.59 -26.66,4.07 -39.81,6.92 -31.49,6.81 -62.41,15.9 -94,22.44 -13.86,2.87 -27.77,5.48 -41.67,8.15 -19.38,3.71 -38.8,7.42 -58.36,10.06 -14.68,2 -29.41,3.62 -44.220001,4.29 q -14.64,0.7 -29.27,0.06 a 147.5,147.5 0 0 1 -28.790001,-3.25 c -1.12,-0.18 -2.83,0.71 -3,1.93 -0.17,0.97 1.32,3.59 2.47,3.74 z"
     id="path398"
     style="opacity:0.11;fill:#d65988" />
  <path
     class="cls-31"
     d="m 36.075518,226.92 q 14,2.25 28.140001,3.22 14.61,0.79 29.24,0.22 c 14.780001,-0.52 29.570001,-2 44.230001,-3.85 17.15,-2.21 34.2,-5.14 51.22,-8.24 16.36,-3 32.73,-6 49,-9.25 31.62,-6.38 62.62,-15.36 94.16,-22.06 13.19,-2.8 26.42,-5.35 39.81,-7 q 13.11,-1.67 26.33,-2.12 a 221.42,221.42 0 0 1 26.14,0.65 c 1.23,0.08 1.67,-0.48 1.29,-1.66 a 15.38,15.38 0 0 0 -4.9,-5.22 q -5.19,-4.39 -10.71,-8.39 a 15.4,15.4 0 0 0 -6.24,-3.49 q -13.68,-0.4 -27.32,0.55 -13.64,0.95 -27,2.93 c -13.45,1.93 -26.82,4.55 -40.1,7.4 -30.96,6.61 -61.57,14.61 -92.69,20.39 -13.6,2.53 -27.23,4.83 -40.88,7.06 -18.69,3.05 -37.46,5.91 -56.32,7.69 -14,1.33 -28.100001,2.3 -42.200001,2.38 q -14,0.15 -28.000001,-1 -13.07,-1.6 -26.07,-4.26 c -1.13,-0.47 -1.72,-0.09 -1.77,1.13 a 14.87,14.87 0 0 0 2.79,6.43 q 3.39,5.75 7.16,11.24 a 14.71,14.71 0 0 0 4.69,5.25 z"
     id="path400"
     style="opacity:0.11;fill:#d65988" />
  <path
     class="cls-31"
     d="m 39.985518,221.88 c 9.53,1.13 19,2.18 28.540001,2.74 14.63,0.84 29.32,0.11 43.920001,-1 14.85,-1.14 29.6,-3.29 44.3,-5.62 17.1,-2.71 34.09,-6.07 51.08,-9.37 13.82,-2.69 27.64,-5.35 41.41,-8.31 13.57,-2.92 27,-6.26 40.49,-9.69 13.49,-3.43 26.74,-6.82 40.19,-9.9 q 9.94,-2.34 20,-4.26 13.17,-2.56 26.5,-4.19 l -1,0.12 q 13.13,-1.62 26.34,-1.94 a 213,213 0 0 1 26.13,1 2.38,2.38 0 0 0 2.61,-2.44 9.82,9.82 0 0 0 -4.11,-4.41 220,220 0 0 0 -26.68,-1.05 q -13.38,0.31 -26.68,1.92 -13.89,1.74 -27.63,4.35 c -31.41,6 -62.06,15.33 -93.22,22.42 -13.49,3.06 -27.06,5.7 -40.62,8.4 -19.13,3.8 -38.25,7.72 -57.5,10.85 -14.42,2.32 -28.85,4.42 -43.45,5.72 q -14.350001,1.29 -28.780001,1.42 a 255,255 0 0 1 -29.110001,-1.43 l 0.89,0.09 -14.4,-1.95 a 3.3,3.3 0 0 0 -1.89,0.91 1.62,1.62 0 0 0 -0.3,1.91 c 0.33,1.55 1.26,3.51 2.97,3.71 z"
     id="path402"
     style="opacity:0.11;fill:#d65988" />
  <path
     class="cls-31"
     d="m 26.005518,231 a 223.27,223.27 0 0 0 28.51,2.85 q 14.730001,0.66 29.470001,0 c 14.9,-0.65 29.820001,-2.22 44.600001,-4.24 17.28,-2.36 34.45,-5.43 51.58,-8.65 16.43,-3.08 32.86,-6.14 49.23,-9.51 31.7,-6.53 62.76,-15.74 94.41,-22.45 13.16,-2.8 26.38,-5.32 39.75,-6.91 q 13.06,-1.59 26.21,-1.92 a 209.9,209.9 0 0 1 25.94,1 c 1.13,0.07 2.21,-2.08 2,-3 -0.34,-1.27 -2.5,-2.34 -3.7,-2.42 a 219.11,219.11 0 0 0 -26.13,-0.86 q -13.22,0.38 -26.33,2 c -13.36,1.6 -26.64,4.09 -39.79,6.93 -31.53,6.81 -62.52,15.83 -94.13,22.3 -13.88,2.84 -27.82,5.42 -41.75,8 -19.43,3.66 -38.9,7.28 -58.51,9.83 -14.72,1.9 -29.470001,3.47 -44.310001,4.06 q -14.66,0.64 -29.300001,-0.07 a 179.82,179.82 0 0 1 -28.62,-3.07 2.6,2.6 0 0 0 -2.59,2.46 c 0.05,1.23 2.22,3.51 3.46,3.67 z"
     id="path404"
     style="opacity:0.11;fill:#d65988" />
  <path
     class="cls-31"
     d="m 33.015518,239.99 c 9.41,1.36 18.73,2.64 28.240001,3.18 a 337.27,337.27 0 0 0 44.280001,-0.69 c 31.85,-2.38 63.37,-8.09 94.72,-13.95 18.45,-3.44 36.91,-6.87 55.22,-11 18.06,-4.11 36,-8.79 54,-13.14 17.6,-4.24 35.28,-8.13 53.21,-10.72 8.71,-1.26 17.43,-2.18 26.22,-2.68 a 122.82,122.82 0 0 1 13,-0.39 163,163 0 0 1 19.39,0.71 c 1.9,0.11 2.46,-2 1.47,-3.27 a 17.12,17.12 0 0 0 -4,-2.33 16.6,16.6 0 0 0 -4.46,-1.49 177,177 0 0 0 -19.54,-0.28 q -9.84,0.06 -19.63,1.08 c -11.07,1.11 -22.06,2.74 -33,4.74 -24.79,4.54 -49.16,10.92 -73.68,16.69 -22.6,5.31 -45.32,9.78 -68.17,13.88 -14.52,2.6 -29.08,5.18 -43.68,7.33 -15.12,2.23 -30.25,4 -45.46,5.44 l 1.24,-0.11 -16.000001,1.06 1.26,-0.06 -16,0.51 h 1.27 l -15.91,-0.11 h 1.28 l -15.790001,-0.79 1.29,0.08 a 226.05,226.05 0 0 1 -27.18,-3.79 c -0.78,-0.14 -1.61,-0.35 -2.25,0.31 -1,1 -0.24,2.26 0.43,3.15 a 28.38,28.38 0 0 0 4,4.15 10.56,10.56 0 0 0 2.06,1.66 2.69,2.69 0 0 0 2.17,0.83 z"
     id="path406"
     style="opacity:0.11;fill:#d65988" />
  <path
     class="cls-31"
     d="m 42.045518,226.68 a 240.58,240.58 0 0 0 28.160001,3.35 q 14.64,0.76 29.28,0.17 c 14.800001,-0.55 29.610001,-2 44.290001,-4 17.18,-2.25 34.25,-5.22 51.28,-8.35 16.38,-3 32.76,-6 49.07,-9.32 31.64,-6.42 62.64,-15.45 94.2,-22.17 13.18,-2.8 26.41,-5.35 39.79,-7 q 13.11,-1.67 26.31,-2.1 a 220.89,220.89 0 0 1 26.11,0.71 c 1.06,0 1.54,-0.49 1.43,-1.55 a 9.8,9.8 0 0 0 -3.32,-4.56 q -3.75,-3.79 -7.82,-7.25 a 9.77,9.77 0 0 0 -4.8,-3 257.61,257.61 0 0 0 -27.37,0.08 q -13.59,0.76 -27.07,2.65 c -13.46,1.84 -26.84,4.44 -40.12,7.31 -31,6.69 -61.5,15 -92.6,21.07 -13.59,2.65 -27.23,5.09 -40.87,7.49 -18.72,3.3 -37.5,6.49 -56.39,8.65 -14.07,1.61 -28.19,2.88 -42.350001,3.23 q -14.09,0.42 -28.12,-0.52 a 215.15,215.15 0 0 1 -26.000001,-3.9 c -3.66,-0.67 -1.09,4.84 -0.63,6 q 1.94,4.52 4.31,8.83 a 8.46,8.46 0 0 0 3.23,4.18 z"
     id="path408"
     style="opacity:0.11;fill:#d65988" />
  <path
     class="cls-31"
     d="m 28.565518,226.16 q 13.88,1.69 27.82,2.7 14.730001,0.74 29.480001,0.11 c 14.910001,-0.58 29.840001,-2.11 44.630001,-4.08 17.28,-2.32 34.45,-5.37 51.58,-8.57 16.43,-3.06 32.87,-6.13 49.25,-9.49 31.69,-6.5 62.75,-15.66 94.38,-22.41 13.17,-2.81 26.39,-5.36 39.77,-7 q 13.07,-1.62 26.23,-2 a 212.27,212.27 0 0 1 26,0.86 2.33,2.33 0 0 0 2.12,-2.89 10.48,10.48 0 0 0 -5,-3.69 221.79,221.79 0 0 0 -26.29,-0.71 q -13.28,0.43 -26.45,2.11 c -13.38,1.65 -26.69,4.17 -39.86,7 -31.47,6.84 -62.42,15.8 -94,22.23 -13.88,2.83 -27.81,5.42 -41.73,8 -19.38,3.63 -38.81,7.21 -58.38,9.68 -14.67,1.86 -29.390001,3.36 -44.180001,3.88 q -14.61,0.54 -29.220001,-0.24 -13.65,-1 -27.22,-2.85 a 2.31,2.31 0 0 0 -2.83,2.2 8.22,8.22 0 0 0 1.54,2.92 8.36,8.36 0 0 0 2.36,2.24 z"
     id="path410"
     style="opacity:0.11;fill:#d65988" />
  <path
     class="cls-31"
     d="m 33.205518,220.68 a 174.07,174.07 0 0 0 28.310001,3.65 q 14.63,0.74 29.28,0.14 c 14.790001,-0.56 29.590001,-2.05 44.260001,-4 17.15,-2.25 34.21,-5.25 51.23,-8.37 16.36,-3 32.73,-6.05 49,-9.37 31.61,-6.43 62.59,-15.47 94.13,-22.19 13.18,-2.81 26.42,-5.37 39.81,-7 q 13.13,-1.65 26.35,-2.09 a 219.67,219.67 0 0 1 26.16,0.72 1.4,1.4 0 0 0 1.39,-1.57 6.38,6.38 0 0 0 -2.52,-3.7 75,75 0 0 0 -6.27,-5.54 6.39,6.39 0 0 0 -4,-2.06 243.55,243.55 0 0 0 -27,-0.21 q -13.49,0.64 -26.87,2.44 c -13.44,1.78 -26.81,4.34 -40.06,7.22 -31.13,6.75 -61.8,15.34 -93.06,21.55 -13.69,2.72 -27.43,5.22 -41.17,7.7 -19,3.43 -38,6.77 -57.12,9 -14.29,1.69 -28.630001,3 -43.000001,3.41 q -14.31,0.42 -28.580001,-0.45 a 118.8,118.8 0 0 1 -27.19,-4.52 1.43,1.43 0 0 0 -1.79,1.1 6.07,6.07 0 0 0 1.28,4.17 70.26,70.26 0 0 0 4.25,6.93 6.1,6.1 0 0 0 3.18,3.04 z"
     id="path412"
     style="opacity:0.11;fill:#d65988" />
  <path
     class="cls-31"
     d="m 41.115518,232.59 a 256,256 0 0 0 28.290001,3.29 q 14.66,0.76 29.31,0.16 c 14.820001,-0.55 29.660001,-2 44.350001,-4 17.2,-2.25 34.29,-5.23 51.35,-8.37 16.38,-3 32.77,-6 49.1,-9.34 31.69,-6.4 62.69,-15.45 94.24,-22.11 13.18,-2.81 26.41,-5.35 39.79,-7 q 13.1,-1.65 26.29,-2.07 a 220.4,220.4 0 0 1 26.08,0.74 c 1.07,-0.07 1.49,-0.64 1.26,-1.69 a 10.23,10.23 0 0 0 -3.89,-4.26 q -4.22,-3.44 -8.73,-6.51 a 10.18,10.18 0 0 0 -5.18,-2.5 264,264 0 0 0 -27.13,0.38 q -13.5,0.9 -26.89,2.84 c -13.43,1.9 -26.78,4.51 -40,7.37 -31.05,6.68 -61.75,14.78 -93,20.66 -13.65,2.57 -27.35,4.92 -41.05,7.21 -18.81,3.14 -37.7,6.1 -56.68,8 -14.12,1.41 -28.28,2.48 -42.480001,2.65 q -14.08,0.24 -28.120001,-0.85 a 263.35,263.35 0 0 1 -26.08,-4.1 c -3.93,-0.72 -0.31,5.63 0.05,6.33 q 2.49,4.65 5.4,9.06 a 9.56,9.56 0 0 0 3.72,4.11 z"
     id="path414"
     style="opacity:0.11;fill:#d65988" />
  <path
     class="cls-31"
     d="m 25.205518,233.92 a 137.72,137.72 0 0 0 29,3.94 q 14.790001,0.78 29.570001,0.21 c 15,-0.54 30.000001,-2 44.820001,-3.94 17.37,-2.26 34.63,-5.28 51.86,-8.47 16.49,-3.05 33,-6.1 49.44,-9.46 31.81,-6.5 63,-15.67 94.71,-22.41 13.13,-2.79 26.33,-5.31 39.67,-6.91 q 13,-1.61 26.05,-2 a 216.28,216.28 0 0 1 25.71,0.85 c 1.32,0.08 2.09,-2.23 1.64,-3.18 -0.66,-1.43 -3.47,-2.47 -4.92,-2.54 a 223.17,223.17 0 0 0 -25.73,-0.61 q -13.05,0.44 -26,2.09 c -13.3,1.64 -26.53,4.13 -39.62,7 -31.71,6.83 -62.91,15.76 -94.72,22.14 -14,2.81 -28.07,5.36 -42.12,7.93 -19.62,3.59 -39.31,7.08 -59.12,9.4 -14.82,1.74 -29.690001,3.11 -44.610001,3.5 q -14.73,0.42 -29.430001,-0.48 a 106.44,106.44 0 0 1 -29,-4.59 2.15,2.15 0 0 0 -2.46,2.6 13.93,13.93 0 0 0 5.26,4.93 z"
     id="path416"
     style="opacity:0.11;fill:#d65988" />
  <path
     class="cls-4"
     d="m 156.70552,152.78 c -0.63,0.58 0.29,2.13 3.71,10 3.31,7.69 3,7.58 5.56,13.13 2.3,5 4.17,8.71 4.64,9.64 6.56,13 16.22,36.9 17,38.71 11.6,28.12 7.78,27.4 18.51,54.08 5.32,13.24 7.84,17.36 22.13,50.9 l 1,2.34 c 6.94,16.15 11.38,22.83 9.18,25 -0.48,0.48 -0.66,0.14 -2.16,1 -3,1.63 -5,4.48 -4.56,5 0.44,0.52 4.12,-3.11 8.4,-2.16 2.7,0.6 2.66,2.44 5,2.88 4,0.75 5.95,-4.22 10.56,-4.32 4.61,-0.1 7.91,5.05 8.16,4.8 0.25,-0.25 -8.27,-12.37 -13.44,-10.56 -2.67,0.94 -2.28,4.81 -3.84,5 -5.1,0.75 -14.61,-40.07 -22.24,-57.83 -0.55,-1.27 -3.22,-7.42 -6.56,-16.08 -0.75,-1.93 -1.51,-3.95 -2.31,-6.14 -4.3,-11.73 -4.6,-14.21 -10.18,-30.53 -3.64,-10.65 -6.25,-18.27 -10.32,-28.25 -6.61,-16.19 -7,-13.81 -11,-24.64 -6.74,-18.11 -5.74,-24.83 -13.63,-33.36 -5.24,-5.66 -12.28,-9.82 -13.61,-8.61 z"
     id="path418"
     style="fill:#5c6069" />
  <path
     class="cls-30"
     d="m 488.20552,137.3 c -0.44,3.08 0.52,4.81 4.32,13.68 5.92,13.83 4.65,12.14 7.2,17.28 2.3,4.64 2.65,4.63 10.8,18 9.48,15.55 9.95,17.11 13.68,20.88 3.24,3.27 10.08,9.36 10.08,9.36 v 0 c 0,0 4.2,5.8 7.2,5.76 4.26,-0.06 7.9,-11.9 9.36,-20.88 1.41,-8.69 0.86,-15.15 0,-24.48 a 153.34,153.34 0 0 0 -6.48,-33.12 c -4.78,-15 -8.48,-18.21 -10.08,-19.44 -6.64,-5.1 -14.59,-5.06 -18,-5 a 32.14,32.14 0 0 0 -18.72,5.76 c -3.05,2.19 -8.43,6.06 -9.36,12.2 z"
     id="path420"
     style="fill:#e0e24b" />
  <path
     class="cls-32"
     d="m 520.64552,122.9 c -1.86,3 6,8 13.68,22.32 a 101,101 0 0 1 8.64,23 c 2.2,8.24 3.73,14 3.6,21.6 -0.05,2.67 -2.35,10.2 -6.48,25.2 -1.56,5.66 -2.1,7.55 -1.44,7.92 1.6,0.9 9.62,-7.55 13.68,-18 a 48.85,48.85 0 0 0 2.88,-20.84 c -0.22,-4.55 -1.35,-9.1 -3.6,-18 -2.36,-9.34 -4.45,-15.35 -8.64,-27.36 -3,-8.7 -4.18,-11.37 -7.2,-13.68 -5.28,-4.04 -13.46,-4.84 -15.12,-2.16 z"
     id="path422"
     style="fill:#6c7c4e" />
  <path
     class="cls-33"
     d="m 248.84552,180.86 c 0,0.59 6.72,1.48 14.47,1.3 17.93,-0.41 20.07,-6 37.49,-6.7 6,-0.23 10.59,0.25 18.49,-1.37 4.64,-0.94 5.29,-1.56 10.79,-2.71 6.62,-1.38 10.65,-1.51 17.76,-2.16 6.91,-0.63 4.31,-0.61 19.92,-2.4 18.92,-2.17 28.39,-3.26 33.2,-3 a 55,55 0 0 0 10.82,-0.3 h 0.17 c 0.72,-0.07 3.39,-0.34 6.4,-0.34 v 0 a 14.51,14.51 0 0 0 5.48,-0.36 c 2.59,-0.75 3.29,-1.9 5.48,-3.24 5.89,-3.61 9.59,-0.63 14.24,-4 a 21.19,21.19 0 0 1 4.71,-2.73 c 0.58,-0.24 1,-0.37 2.59,-0.87 4.56,-1.41 6.88,-2.13 8.76,-2.52 a 33.83,33.83 0 0 1 4.39,-0.72 c 2.86,-0.24 3.47,0.13 5.11,-0.36 1.48,-0.44 1.51,-1 4,-2.52 a 32.64,32.64 0 0 1 5.09,-2.54 c 3.9,-1.54 4.49,-0.88 6.2,-2.16 a 24.06,24.06 0 0 0 3.66,-3.6 c 2.09,-2.44 3.24,-3.76 4.1,-3.5 1.2,0.36 0.91,3.48 2.47,3.86 a 1.63,1.63 0 0 0 0.79,0 c 1.93,-0.44 3,-3.13 3,-3.13 a 5.42,5.42 0 0 1 1.64,-2.95 3,3 0 0 1 0.57,-0.35 13.81,13.81 0 0 0 6.73,-3.25 26.25,26.25 0 0 1 7.67,-4.32 c 2,-0.58 3.46,-0.5 6.21,-0.36 a 30.39,30.39 0 0 1 10.22,2.16 c 8.26,3.75 10.71,13.4 11.41,13.06 0.54,-0.26 -0.65,-6 -4.68,-10.8 a 23.48,23.48 0 0 0 -9.42,-6.67 29.25,29.25 0 0 0 -12.54,-2 c -6.85,0.31 -11.88,2.51 -18.72,5.76 -23.42,11.13 -33.87,18.38 -40.18,19 0,0 -5.56,0.88 -8,2.52 -1.46,1 -1.9,1.67 -3.65,2.52 -2.17,1 -3.83,1.11 -6.21,1.44 a 69.55,69.55 0 0 0 -8,1.8 c -4.39,1.22 -5.29,2.33 -11.32,5 v 0 a 26.71,26.71 0 0 1 -12.95,2.63 c -21.4,-0.59 -42.47,5.34 -63.72,7.92 -14.39,1.75 -18.15,2.4 -28.08,3.24 -6.39,0.54 -9.27,0.65 -14.76,1.44 -10,1.44 -13.37,2.94 -21.6,4.68 -17.57,3.72 -30.21,2.8 -30.2,3.6 z"
     id="path424"
     style="fill:#f0eb62" />
  <path
     class="cls-34"
     d="m 535.64552,123.67 a 153.91,153.91 0 0 0 23.45,-27.67 133.16,133.16 0 0 0 8.91,-15.85 166.55,166.55 0 0 0 6.82,-17 c 2,-5.78 3.92,-11.66 6.25,-17.39 a 126.3,126.3 0 0 1 8.13,-16.61 144.17,144.17 0 0 1 22.53,-29.15 143.42,143.42 0 0 0 -21.44,29.76 124.94,124.94 0 0 0 -7.46,16.72 c -2.11,5.73 -3.79,11.62 -5.63,17.5 a 168.82,168.82 0 0 1 -6.34,17.46 136.7,136.7 0 0 1 -8.59,16.56 158.2,158.2 0 0 1 -23.15,29.22 z"
     id="path426"
     style="fill:#ffff00" />
  <path
     class="cls-35"
     d="m 529.42552,134.63 a 119.46,119.46 0 0 1 22.2,-32.2 c 2.27,-2.34 4.64,-4.56 7,-6.74 2.36,-2.18 4.56,-4.37 6.69,-6.68 a 99.1,99.1 0 0 0 11.17,-15.21 c 3.39,-5.41 6.83,-10.86 10.42,-16.18 3.59,-5.32 7.29,-10.57 11.11,-15.72 q 11.43,-15.46 24.19,-29.88 c -8.07,9.94 -15.76,20.19 -23,30.75 q -5.4,7.92 -10.44,16.07 c -3.37,5.43 -6.55,10.95 -9.74,16.51 -1.61,2.78 -3.25,5.57 -5,8.29 a 84.45,84.45 0 0 1 -5.88,7.85 c -2.12,2.48 -4.37,4.87 -6.63,7.15 -2.26,2.28 -4.47,4.53 -6.57,6.87 a 113.88,113.88 0 0 0 -20,31.58 z"
     id="path428"
     style="fill:#ffff00" />
  <path
     class="cls-36"
     d="m 175.76552,163.94 c 1.54,6.45 11.79,6.09 25.2,13 12.64,6.47 13.35,11.81 30.24,28.08 18.55,17.87 18.63,12.32 44.15,34.79 a 329.43,329.43 0 0 0 33.53,26.5 60.75,60.75 0 0 0 21,9.27 c 6.39,1.44 12.34,2.79 18,0 7.78,-3.83 12.75,-13.38 11.52,-21.6 -1.09,-7.31 -6.8,-11.79 -15.84,-18 a 398.72,398.72 0 0 0 -41.76,-25.2 c -43.13,-22.19 -39.38,-21.57 -50,-25.72 -11.76,-4.6 -23,-10.52 -35,-14.6 -5.06,-1.72 -9.6,-3.09 -14.4,-7.2 -8.21,-7 -8.1,-14.34 -13,-15.12 -6.03,-1.01 -15.28,8.96 -13.64,15.8 z"
     id="path430"
     style="fill:#dae161" />
  <path
     class="cls-12"
     d="m 402.08552,163.46 c 0.23,1.9 3.59,1.43 12.06,6.51 7.76,4.66 12.16,9.37 13.38,8.37 1.22,-1 -3.18,-6.52 -1.44,-8.64 2.54,-3.1 16.3,3.42 16.32,3.36 0.02,-0.06 -2.63,-0.48 -3.84,-2.4 -1.38,-2.19 -0.73,-6 1,-6.72 2.92,-1.21 8,7.35 10.08,6.24 1.8,-1 -0.58,-8.28 0.48,-8.64 0.87,-0.29 2,4.83 6.24,7.2 3.82,2.14 9.44,1.62 11,-1 0.69,-1.11 0.24,-2 -0.48,-6.72 -0.72,-4.72 -1.41,-9.24 -0.48,-9.6 0.93,-0.36 2.19,2.69 6.24,7.2 3.33,3.7 5,5.56 6.72,5.28 2.87,-0.46 5.43,-6.45 3.84,-10.56 -1.35,-3.5 -5.14,-4.18 -4.8,-5.76 0.34,-1.58 4.8,-3 7.68,-1.44 4.78,2.61 3.66,12.49 3.84,12.48 0.18,-0.01 3.51,-14.83 -3.36,-20.64 -5.32,-4.5 -13.5,-0.87 -34.56,6.24 -33.26,11.27 -50.45,14.93 -49.92,19.24 z"
     id="path432"
     style="fill:#645d65" />
  <path
     class="cls-37"
     d="m 396.39552,163.51 a 59.35,59.35 0 0 1 24.31,9.59 c 1.83,1.24 3.54,2.64 5.24,4 1.7,1.36 3.39,2.81 5,4.33 a 37.44,37.44 0 0 1 8.1,10.66 31.89,31.89 0 0 1 2.3,6.36 c 0.56,2.12 1.08,4.19 1.78,6.19 a 34.5,34.5 0 0 0 2.54,5.76 31,31 0 0 0 3.53,5.1 c 5.54,5.75 15.18,7.59 22.59,4.82 a 22.67,22.67 0 0 0 5,-3.48 c 1.7,-1.38 3.44,-2.74 5.2,-4.06 3.53,-2.62 7.14,-5.14 10.89,-7.46 1.84,-1.16 3.86,-2.24 5.44,-3.38 a 5.76,5.76 0 0 0 1.73,-2 c 0.21,-0.42 0.38,-0.87 0.58,-1.31 0.2,-0.44 0.28,-0.91 0.36,-1.38 a 13.74,13.74 0 0 0 -0.39,-5.91 47.26,47.26 0 0 0 -2.07,-6 c -1.62,-4 -3.4,-8.05 -4.7,-12.28 a 78.47,78.47 0 0 1 -2.86,-12.9 92.63,92.63 0 0 1 0.49,-26.19 99.39,99.39 0 0 0 1,26 79,79 0 0 0 3.27,12.5 c 1.43,4.07 3.24,8 5,12 a 50.44,50.44 0 0 1 2.34,6.28 16.19,16.19 0 0 1 0.55,7 c -0.09,0.6 -0.29,1.19 -0.44,1.78 -0.15,0.59 -0.45,1.13 -0.72,1.69 a 8.43,8.43 0 0 1 -2.43,2.94 c -1.94,1.44 -3.78,2.43 -5.6,3.63 -3.64,2.31 -7.19,4.79 -10.64,7.39 -1.72,1.31 -3.41,2.64 -5.08,4 -0.85,0.69 -1.68,1.39 -2.6,2.09 a 14.13,14.13 0 0 1 -3.12,1.85 21.39,21.39 0 0 1 -6.87,1.42 25.6,25.6 0 0 1 -6.88,-0.53 22.83,22.83 0 0 1 -12.1,-6.57 35.39,35.39 0 0 1 -6.46,-11.93 c -0.7,-2.13 -1.22,-4.3 -1.72,-6.41 a 29,29 0 0 0 -2,-6 36.43,36.43 0 0 0 -7.38,-10.26 c -1.5,-1.53 -3.09,-3 -4.73,-4.41 -1.64,-1.41 -3.27,-2.86 -5,-4.14 a 58.13,58.13 0 0 0 -11.11,-6.62 69.39,69.39 0 0 0 -12.34,-4.16 z"
     id="path434"
     style="fill:#c7d4b3" />
  <path
     class="cls-38"
     d="m 508.40552,126.5 c -3.24,2.2 -3.45,6.87 -3.6,10.08 -0.47,10.26 6.39,17.17 7.2,18 1.51,1.54 7.32,7.47 12.24,5.76 5.25,-1.83 5.96,-11.12 5.76,-15.12 -0.09,-2.06 -0.33,-9.83 -6.48,-15.12 -3.65,-3.14 -10.74,-6.58 -15.12,-3.6 z"
     id="path436"
     style="fill:#111312" />
  <path
     class="cls-39"
     d="m 514.20552,126.5 c 5.12,2.7 6.8,8.29 8.64,14.4 1.72,5.72 2.94,9.77 0.72,12.24 -1.78,2 -5.29,2.38 -7.92,1.44 -4.47,-1.6 -5.88,-6.9 -8.64,-17.28 -2.51,-9.44 -1.36,-11 -0.72,-11.52 1.92,-1.71 5.92,-0.32 7.92,0.72 z"
     id="path438"
     style="fill:#8c8687" />
  <path
     class="cls-40"
     d="m 514.64552,140.22 a 4.81,4.81 0 0 1 5.52,1.68 c 1.61,2.09 1.24,5.36 -0.48,6.72 a 3.64,3.64 0 0 1 -1.92,0.72 5.17,5.17 0 0 1 -5.28,-2.88 4.83,4.83 0 0 1 2.16,-6.24 z"
     id="path440"
     style="fill:#efefef" />
  <path
     class="cls-11"
     d="m 521.20552,162.22 a 16.42,16.42 0 0 0 1.58,9.52 c 0.65,1.49 1.44,2.94 2.26,4.41 0.82,1.47 1.64,3 2.43,4.55 a 49.91,49.91 0 0 1 2.21,4.93 17.85,17.85 0 0 1 1.07,5.31 19,19 0 0 1 -2.31,10.5 l -0.5,-0.08 c -0.88,-3.52 -1.42,-6.67 -2.14,-9.78 -0.36,-1.55 -0.64,-3.09 -0.9,-4.66 a 26.65,26.65 0 0 0 -1.12,-4.67 c -0.52,-1.55 -1.15,-3.11 -1.76,-4.72 a 51.94,51.94 0 0 1 -1.61,-5 23,23 0 0 1 -0.67,-5.29 12.93,12.93 0 0 1 1,-5.17 z"
     id="path442"
     style="fill:#645e57" />
  <path
     class="cls-41"
     d="m 505.62552,127.44 a 27.18,27.18 0 0 0 14.29,31.68 c 1.63,0.79 3.48,1.42 5.21,0.91 1.73,-0.51 3,-2.64 2.12,-4.19"
     id="path444"
     style="fill:none;stroke:#afafaf;stroke-miterlimit:10" />
  <path
     class="cls-41"
     d="m 508.76552,178.81 c 4.25,2.29 5.19,7.8 7,12.29 a 44,44 0 0 0 7,11.2 138.48,138.48 0 0 0 18.75,19.22"
     id="path446"
     style="fill:none;stroke:#afafaf;stroke-miterlimit:10" />
  <path
     class="cls-41"
     d="m 406.59552,264.64 7.63,0.48"
     id="path448"
     style="fill:none;stroke:#afafaf;stroke-miterlimit:10" />
  <path
     class="cls-41"
     d="m 300.80552,245.08 a 48.37,48.37 0 0 0 20.6,-3.47"
     id="path450"
     style="fill:none;stroke:#afafaf;stroke-miterlimit:10" />
  <path
     class="cls-41"
     d="m 321.87552,224.28 a 64.9,64.9 0 0 1 2.94,14.06"
     id="path452"
     style="fill:none;stroke:#afafaf;stroke-miterlimit:10" />
  <path
     class="cls-41"
     d="m 315.68552,258.06 a 27.35,27.35 0 0 0 15.8,-3.95"
     id="path454"
     style="fill:none;stroke:#afafaf;stroke-miterlimit:10" />
  <path
     class="cls-41"
     d="m 333.47552,233.52 a 27.24,27.24 0 0 1 2.78,13"
     id="path456"
     style="fill:none;stroke:#afafaf;stroke-miterlimit:10" />
  <path
     class="cls-41"
     d="m 326.82552,266.39 a 17.42,17.42 0 0 0 14.53,-1.25"
     id="path458"
     style="fill:none;stroke:#afafaf;stroke-miterlimit:10" />
  <path
     class="cls-41"
     d="m 345.77552,241.33 a 13.62,13.62 0 0 1 1,14"
     id="path460"
     style="fill:none;stroke:#afafaf;stroke-miterlimit:10" />
  <path
     class="cls-42"
     d="m 445.86552,148.68 c 2.07,1 3.4,3.06 4.38,5.14 2.34,5 3.26,10.49 4.24,15.9 0.98,5.41 2.11,10.92 4.8,15.72 2.69,4.8 7.26,8.86 12.71,9.6 l -1.75,0.1"
     id="path462"
     style="fill:none;stroke:#645e57;stroke-miterlimit:10" />
  <path
     class="cls-11"
     d="m 458.68552,184.3 c 0.28,1.41 0.56,2.8 0.94,4.18 a 41.55,41.55 0 0 0 1.22,4.08 51,51 0 0 0 3.42,7.75 51.85,51.85 0 0 0 4.64,7.1 c 0.86,1.13 1.78,2.21 2.74,3.26 0.96,1.05 1.95,2.07 3,3.08 a 38.39,38.39 0 0 1 -6.31,-5.85 40,40 0 0 1 -4.92,-7.11 39.44,39.44 0 0 1 -3.27,-8 36.7,36.7 0 0 1 -1.46,-8.49 z"
     id="path464"
     style="fill:#645e57" />
  <g
     class="cls-43"
     id="g468"
     style="opacity:0.81"
     transform="translate(-98.794482,-97.78)">
    <path
       class="cls-2"
       d="m 285.18,250.23 a 158.14,158.14 0 0 0 20.35,15.32 204.21,204.21 0 0 0 21.63,13.3 c 14.95,8 30.64,14.71 46.25,21.59 15.61,6.88 31.26,14 45.95,22.91 a 161.61,161.61 0 0 1 21,15 A 112.36,112.36 0 0 1 457,358 l -4.33,-4.71 -4.54,-4.49 -4.75,-4.21 c -1.66,-1.33 -3.29,-2.67 -4.95,-4 a 160.34,160.34 0 0 0 -20.59,-14.75 c -14.48,-8.82 -30,-15.85 -45.6,-22.72 -15.6,-6.87 -31.35,-13.57 -46.46,-21.7 a 212.13,212.13 0 0 1 -22,-13.48 126.26,126.26 0 0 1 -18.6,-17.71 z"
       id="path466"
       style="fill:#589255" />
  </g>
  <path
     class="cls-1"
     d="m 350.20552,262.7 c 1.22,-0.33 0.32,0.06 8.47,-0.81 2.72,-0.28 12.06,-1.27 18.55,-2.48 18,-3.33 20.87,-9.58 31.14,-7.63 3.91,0.74 9.73,2.83 9.94,5.72 0.32,4.37 -12.36,8.53 -14.26,9.16 -21.1,6.93 -31.83,-1.92 -47,4.32 -4.76,1.95 -11.52,6 -17.95,15.68 -1.75,3.63 -3.55,7.76 -5.29,11.85 -3,7.12 -3.35,8 -4.9,11.56 -4.31,9.74 -5.4,9.5 -11.94,22.35 -2.5,4.91 -7.18,14.45 -8.64,13.92 -0.52,-0.19 -0.39,-1.55 -1.34,-2 -0.95,-0.45 -2.42,0.63 -2.81,0.92 -4.75,3.61 -24.28,14.28 -24.89,13.52 -0.26,-0.32 2.75,-2.89 2.4,-3.36 -0.35,-0.47 -3.64,2 -8.64,3.84 -4.67,1.71 -10.08,2.56 -10.56,1.44 -0.23,-0.54 0.85,-1.2 2.4,-3.12 2.41,-3 2.75,-5.12 3.6,-6.48 2.92,-4.67 12.37,-1.28 22.08,-3.36 9.25,-2 15.23,-8.19 17.28,-10.32 4.95,-5.14 5.21,-8.66 13.68,-30.48 3,-7.81 4.55,-11.72 5.86,-14.61 6.53,-14.56 12.19,-26.73 22.82,-29.63 z"
     id="path470"
     style="fill:#adca56" />
  <path
     class="cls-2"
     d="m 266.72552,358.58 a 15.9,15.9 0 0 1 3.37,-4.85 10.21,10.21 0 0 1 5.28,-2.74 16.68,16.68 0 0 1 3,-0.1 c 1,0 2,0 2.94,0 a 41.28,41.28 0 0 0 16.82,-4.25 35,35 0 0 0 9.09,-7.08 c 5.36,-5.62 8.66,-12.82 11.6,-20.05 2.94,-7.23 5.51,-14.74 8.35,-22.07 a 110.73,110.73 0 0 1 5,-10.85 87.1,87.1 0 0 1 6.17,-10.21 c 0.58,-0.81 1.18,-1.62 1.81,-2.39 a 28.78,28.78 0 0 1 2,-2.3 30.4,30.4 0 0 1 4.57,-4 33.28,33.28 0 0 1 5.23,-3.06 15.6,15.6 0 0 1 6,-1.53 26.43,26.43 0 0 1 6,0.92 25,25 0 0 0 5.72,0.52 c 3.83,0 7.48,-1.62 11.27,-2.73 a 133.22,133.22 0 0 1 23.16,-4.78 145.3,145.3 0 0 0 -22.86,5.71 c -1.86,0.63 -3.7,1.3 -5.59,1.92 a 21.63,21.63 0 0 1 -5.93,1.14 26.42,26.42 0 0 1 -6,-0.4 25.83,25.83 0 0 0 -5.68,-0.76 14.2,14.2 0 0 0 -5.34,1.51 32.8,32.8 0 0 0 -4.92,2.94 28.66,28.66 0 0 0 -4.28,3.8 27.73,27.73 0 0 0 -1.86,2.2 c -0.61,0.76 -1.17,1.54 -1.73,2.33 a 85.86,85.86 0 0 0 -6,10 105.7,105.7 0 0 0 -4.78,10.67 c -2.91,7.33 -5.54,14.73 -8.54,22.06 a 105.48,105.48 0 0 1 -5.07,10.77 41.75,41.75 0 0 1 -7.12,9.65 36.16,36.16 0 0 1 -9.63,7.14 39.63,39.63 0 0 1 -11.51,3.51 41.07,41.07 0 0 1 -6,0.4 c -1,0 -2,-0.07 -3,-0.13 a 16.54,16.54 0 0 0 -2.9,0 9.79,9.79 0 0 0 -5.14,2.45 15.69,15.69 0 0 0 -3.5,4.64 z"
     id="path472"
     style="fill:#589255" />
  <path
     class="cls-44"
     d="m 446.11552,235.15 c -2,5.38 3.14,8.75 6.6,20.76 3.59,12.48 1.86,22.18 7.14,26.19 a 7.29,7.29 0 0 1 3,3.51 c 1,2.74 -0.44,4.87 -0.55,8.62 -0.11,3.75 1.2,6.24 1.92,8.3 3.9,11.17 -5.69,21.63 -2.19,37.05 0.8,3.57 1.83,8.11 5.21,10.86 2,1.61 3.5,1.55 5,3.83 1.57,2.47 2.2,6.34 0.82,8.62 -1.06,1.75 -2.81,1.75 -2.74,2.24 0.13,1 8.39,1.93 9.61,-1.28 1,-2.62 -3.44,-6 -2.47,-8 0.97,-2 7.19,-1.52 8.79,1.91 1.6,3.43 -2.06,8.1 -1.1,8.94 0.96,0.84 5.56,-2.22 5.77,-6.38 0.19,-3.82 -3.44,-6.64 -5.5,-7.67 -2.06,-1.03 -2.71,-0.37 -5.21,-1.27 a 15.59,15.59 0 0 1 -6.6,-4.8 c -2.78,-3.61 -1.72,-8.59 -0.82,-18.2 0.61,-6.52 1.67,-18.39 0.55,-30.66 -0.28,-3 -0.92,-6.71 -2.2,-14 -2.51,-14.39 -3.76,-21.59 -5.77,-27.14 -4.81,-13.34 -8.92,-13.94 -11,-22.68 -0.2,-0.88 -0.74,-3.31 -2.19,-3.83 -1.98,-0.72 -4.98,2.15 -6.07,5.08 z"
     id="path474"
     style="fill:#ccda4f" />
  <path
     class="cls-11"
     d="m 180.08552,157.94 c -1.39,2.65 -5.57,3.52 -8.4,3.36 -5.37,-0.31 -6.21,-4.38 -12,-5.28 -5.5,-0.85 -8.35,2.25 -9.86,0.66 -1.9,-2 0.62,-9 5.54,-12.66 6,-4.47 13.16,-2.34 13.54,-2.22 7.89,2.47 13.5,11.7 11.18,16.14 z"
     id="path476"
     style="fill:#645e57" />
  <metadata
     id="metadata2782">
    <rdf:RDF>
      <cc:Work
         rdf:about="">
        <dc:title>ծղրիդմը</dc:title>
      </cc:Work>
    </rdf:RDF>
  </metadata>
</svg>
