<?xml version="1.0" encoding="UTF-8" standalone="no"?>
<svg
   id="Layer_1"
   data-name="Layer 1"
   viewBox="0 0 841.89 595.28"
   version="1.1"
   sodipodi:docname="city_1.svg"
   inkscape:version="1.2.1 (9c6d41e410, 2022-07-14, custom)"
   xmlns:inkscape="http://www.inkscape.org/namespaces/inkscape"
   xmlns:sodipodi="http://sodipodi.sourceforge.net/DTD/sodipodi-0.dtd"
   xmlns="http://www.w3.org/2000/svg"
   xmlns:svg="http://www.w3.org/2000/svg">
  <sodipodi:namedview
     id="namedview319"
     pagecolor="#ffffff"
     bordercolor="#000000"
     borderopacity="0.25"
     inkscape:showpageshadow="2"
     inkscape:pageopacity="0.0"
     inkscape:pagecheckerboard="0"
     inkscape:deskcolor="#d1d1d1"
     showgrid="false"
     inkscape:zoom="1.1213358"
     inkscape:cx="215.81404"
     inkscape:cy="218.48942"
     inkscape:window-width="1920"
     inkscape:window-height="1151"
     inkscape:window-x="0"
     inkscape:window-y="20"
     inkscape:window-maximized="1"
     inkscape:current-layer="Layer_1" />
  <defs
     id="defs4">
    <style
       id="style2">.cls-1{fill:#ffc67e;}.cls-2{fill:#5a4a0e;stroke:#42210b;}.cls-10,.cls-12,.cls-13,.cls-14,.cls-15,.cls-16,.cls-2,.cls-3,.cls-4,.cls-5,.cls-6,.cls-7{stroke-miterlimit:10;}.cls-10,.cls-12,.cls-13,.cls-14,.cls-16,.cls-3,.cls-4,.cls-5,.cls-6,.cls-7{fill:none;}.cls-3{stroke:#eeba6f;}.cls-3,.cls-6{stroke-width:6px;}.cls-10,.cls-14,.cls-4{stroke:#eab768;}.cls-4{stroke-width:3px;}.cls-5{stroke:#976d31;}.cls-10,.cls-5{stroke-width:4px;}.cls-6,.cls-7{stroke:#ffc67e;}.cls-14,.cls-7{stroke-width:5px;}.cls-8{fill:#cc9844;}.cls-9{fill:#d4a146;}.cls-11,.cls-15{fill:#eab768;}.cls-12,.cls-16{stroke:#b48744;}.cls-12,.cls-13{stroke-width:2px;}.cls-13{stroke:#8c6239;}.cls-15{stroke:#a67c52;}</style>
  </defs>
  <title
     id="title6">hraparaki shenq</title>
  <path
     class="cls-1"
     d="m 518.79552,254.53702 c 0.0888,0 -10.00117,-43.9525 -25.15391,-109.74917 l -16.20083,9.61945 -3.83704,-10.50305 -32.37501,-7.86135 c -1.43001,-1.24798 -4.44101,0.11842 -5.11605,0.43724 -6.46612,2.96965 -8.41128,12.15185 -8.95309,15.30367 l -6.84804,68.63878 a 68.169599,69.914082 0 0 1 -10.65844,2.18624 c -14.77082,1.82186 -19.77141,-2.55061 -34.53335,-1.31174 -10.13439,0.85627 -10.48079,3.14271 -16.20082,2.18623 -9.81465,-1.63968 -16.74263,-9.71054 -21.10371,-16.39678 l -13.01218,8.19839 c -8.68663,5.4656 -32.74805,18.03647 -54.13599,25.8796 -29.45282,10.8401 -57.05817,13.8735 -97.20496,18.42816 -35.0485,3.98989 -65.06089,5.12856 -100.366969,6.55872 -15.099455,0.61032 -27.623121,0.96559 -36.416333,1.1751 l 0.355282,129.75325 c 0,0 105.62513,-4.70041 223.40088,0.43725 21.39682,0.91093 34.36459,1.92207 34.36459,1.92207 7.92277,0.61943 11.9108,1.05668 20.64184,1.63968 0,0 10.10775,0.67409 22.30278,1.10223 1.77641,-0.0729 3.27747,-0.0638 4.04133,-0.0638 17.93282,0 35.85676,0.30061 53.78959,0.61032 54.33139,-0.0638 125.77846,-1.01113 125.77846,-3.02429 v 0 l 258.9734,-4.05365 3.92586,-137.6146 c 0,0 -265.404,-3.25203 -265.45729,-3.49798 z"
     id="path8"
     style="fill:#ffc67e;stroke-width:0.899496" />
  <path
     class="cls-2"
     d="m 47.799103,280.38929 v 0 c 83.038127,-1.98584 126.755487,-5.40183 126.755487,-5.40183 5.60456,-0.43725 12.30162,-0.99292 20.80172,-1.95851 a 470.26809,482.30241 0 0 0 57.08482,-9.69232 c 24.41671,-5.82997 36.41634,-9.10933 47.96298,-15.08505 12.28385,-6.37653 31.97531,-19.02027 31.97531,-19.02027 v 41.29258 l -28.13827,10.49394 c -43.90389,16.33302 -131.0988,21.64376 -131.0988,21.64376 -63.69306,3.88057 -125.973871,1.96762 -125.982754,1.96762 z"
     id="path10"
     style="fill:#5a4a0e;stroke:none;stroke-width:0.899496;stroke-miterlimit:10" />
  <rect
     class="cls-2"
     x="50.730183"
     y="309.61203"
     width="6.2618332"
     height="13.11743"
     id="rect12"
     style="fill:#5a4a0e;stroke:none;stroke-width:0.899496;stroke-miterlimit:10" />
  <rect
     class="cls-2"
     x="316.56052"
     y="279.8063"
     width="3.1353574"
     height="13.11743"
     id="rect14"
     style="fill:#5a4a0e;stroke:none;stroke-width:0.899496;stroke-miterlimit:10" />
  <rect
     class="cls-2"
     x="304.46313"
     y="284.43384"
     width="3.1353574"
     height="13.11743"
     id="rect16"
     style="fill:#5a4a0e;stroke:none;stroke-width:0.899496;stroke-miterlimit:10" />
  <rect
     class="cls-2"
     x="292.76553"
     y="288.18689"
     width="3.1353574"
     height="13.11743"
     id="rect18"
     style="fill:#5a4a0e;stroke:none;stroke-width:0.899496;stroke-miterlimit:10" />
  <rect
     class="cls-2"
     x="280.56161"
     y="290.99255"
     width="3.1353574"
     height="13.11743"
     id="rect20"
     style="fill:#5a4a0e;stroke:none;stroke-width:0.899496;stroke-miterlimit:10" />
  <rect
     class="cls-2"
     x="265.94177"
     y="294.74561"
     width="4.1479092"
     height="13.11743"
     id="rect22"
     style="fill:#5a4a0e;stroke:none;stroke-width:0.899496;stroke-miterlimit:10" />
  <rect
     class="cls-2"
     x="249.80316"
     y="297.55127"
     width="5.0894046"
     height="13.11743"
     id="rect24"
     style="fill:#5a4a0e;stroke:none;stroke-width:0.899496;stroke-miterlimit:10" />
  <rect
     class="cls-2"
     x="234.12637"
     y="300.3934"
     width="5.6312089"
     height="13.11743"
     id="rect26"
     style="fill:#5a4a0e;stroke:none;stroke-width:0.899496;stroke-miterlimit:10" />
  <rect
     class="cls-2"
     x="218.61835"
     y="302.28812"
     width="6.2618332"
     height="13.11743"
     id="rect28"
     style="fill:#5a4a0e;stroke:none;stroke-width:0.899496;stroke-miterlimit:10" />
  <rect
     class="cls-2"
     x="201.07634"
     y="305.13022"
     width="6.2618332"
     height="13.11743"
     id="rect30"
     style="fill:#5a4a0e;stroke:none;stroke-width:0.899496;stroke-miterlimit:10" />
  <rect
     class="cls-2"
     x="184.93767"
     y="306.04117"
     width="6.2618332"
     height="13.11743"
     id="rect32"
     style="fill:#5a4a0e;stroke:none;stroke-width:0.899496;stroke-miterlimit:10" />
  <rect
     class="cls-2"
     x="166.60518"
     y="307.02496"
     width="6.2618332"
     height="13.11743"
     id="rect34"
     style="fill:#5a4a0e;stroke:none;stroke-width:0.899496;stroke-miterlimit:10" />
  <rect
     class="cls-2"
     x="148.69899"
     y="307.93591"
     width="6.2618332"
     height="13.11743"
     id="rect36"
     style="fill:#5a4a0e;stroke:none;stroke-width:0.899496;stroke-miterlimit:10" />
  <rect
     class="cls-2"
     x="127.63969"
     y="307.93591"
     width="6.2618332"
     height="13.11743"
     id="rect38"
     style="fill:#5a4a0e;stroke:none;stroke-width:0.899496;stroke-miterlimit:10" />
  <rect
     class="cls-2"
     x="108.68544"
     y="308.5918"
     width="6.2618332"
     height="13.11743"
     id="rect40"
     style="fill:#5a4a0e;stroke:none;stroke-width:0.899496;stroke-miterlimit:10" />
  <rect
     class="cls-2"
     x="70.36834"
     y="308.5918"
     width="6.2618332"
     height="13.11743"
     id="rect42"
     style="fill:#5a4a0e;stroke:none;stroke-width:0.899496;stroke-miterlimit:10" />
  <rect
     class="cls-2"
     x="90.077576"
     y="308.5918"
     width="6.2618332"
     height="13.11743"
     id="rect44"
     style="fill:#5a4a0e;stroke:none;stroke-width:0.899496;stroke-miterlimit:10" />
  <rect
     class="cls-2"
     x="328.25815"
     y="275.98038"
     width="3.1353574"
     height="13.11743"
     id="rect46"
     style="fill:#5a4a0e;stroke:none;stroke-width:0.899496;stroke-miterlimit:10" />
  <path
     class="cls-3"
     d="m 47.799103,306.62415 c 20.268798,1.19332 47.563287,2.14069 79.840587,1.31174 25.11839,-0.63765 57.66216,-1.58502 98.90144,-7.87046 a 682.8773,700.35236 0 0 0 106.15805,-25.25105"
     id="path48"
     style="fill:none;stroke:#eeba6f;stroke-width:5.39698px;stroke-miterlimit:10" />
  <path
     class="cls-4"
     d="M 60.189538,281.20002 59.789847,308.4369"
     id="path50"
     style="fill:#000000;stroke:none;stroke-width:7.59799995;stroke-miterlimit:10;fill-opacity:1;fill-rule:nonzero;stroke-dasharray:none" />
  <path
     class="cls-4"
     d="m 67.161933,281.20002 q -0.213168,13.93727 -0.408573,27.87454"
     id="path52"
     style="fill:#000000;stroke:none;stroke-width:7.59799995;stroke-miterlimit:10;fill-opacity:1;fill-rule:nonzero;stroke-dasharray:none" />
  <path
     class="cls-4"
     d="m 80.076409,279.29617 q -0.195405,14.24699 -0.417456,28.51219"
     id="path54"
     style="fill:#000000;stroke:none;stroke-width:7.59799995;stroke-miterlimit:10;fill-opacity:1;fill-rule:nonzero;stroke-dasharray:none" />
  <path
     class="cls-4"
     d="m 87.03104,279.93382 q -0.195405,13.93727 -0.408573,27.87454"
     id="path56"
     style="fill:#000000;stroke:none;stroke-width:7.59799995;stroke-miterlimit:10;fill-opacity:1;fill-rule:nonzero;stroke-dasharray:none" />
  <path
     class="cls-4"
     d="m 99.812291,278.90447 q -0.21317,15.20346 -0.4441,30.41604"
     id="path58"
     style="fill:#000000;stroke:none;stroke-width:7.59799995;stroke-miterlimit:10;fill-opacity:1;fill-rule:nonzero;stroke-dasharray:none" />
  <path
     class="cls-4"
     d="m 106.76692,279.54212 q -0.21317,14.88464 -0.43522,29.77839"
     id="path60"
     style="fill:#000000;stroke:none;stroke-width:7.59799995;stroke-miterlimit:10;fill-opacity:1;fill-rule:nonzero;stroke-dasharray:none" />
  <path
     class="cls-4"
     d="m 120.63177,278.26681 -0.45298,31.0537"
     id="path62"
     style="fill:#000000;stroke:none;stroke-width:7.59799995;stroke-miterlimit:10;fill-opacity:1;fill-rule:nonzero;stroke-dasharray:none" />
  <path
     class="cls-4"
     d="m 127.59528,278.26681 -0.45298,31.0537"
     id="path64"
     style="fill:#000000;stroke:none;stroke-width:7.59799995;stroke-miterlimit:10;fill-opacity:1;fill-rule:nonzero;stroke-dasharray:none" />
  <path
     class="cls-4"
     d="m 139.17745,277.63827 q -0.23981,15.83201 -0.46186,31.68224"
     id="path66"
     style="fill:#000000;stroke:none;stroke-width:7.59799995;stroke-miterlimit:10;fill-opacity:1;fill-rule:nonzero;stroke-dasharray:none" />
  <path
     class="cls-4"
     d="m 146.14097,277.63827 q -0.23982,15.83201 -0.46187,31.68224"
     id="path68"
     style="fill:#000000;stroke:none;stroke-width:7.59799995;stroke-miterlimit:10;fill-opacity:1;fill-rule:nonzero;stroke-dasharray:none" />
  <path
     class="cls-4"
     d="m 159.6683,276.1079 q -0.24869,16.7976 -0.49739,33.57698"
     id="path70"
     style="fill:#000000;stroke:none;stroke-width:7.59799995;stroke-miterlimit:10;fill-opacity:1;fill-rule:nonzero;stroke-dasharray:none" />
  <path
     class="cls-4"
     d="m 166.62294,276.1079 q -0.25758,16.7976 -0.4974,33.57698"
     id="path72"
     style="fill:#000000;stroke:none;stroke-width:7.59799995;stroke-miterlimit:10;fill-opacity:1;fill-rule:nonzero;stroke-dasharray:none" />
  <path
     class="cls-4"
     d="m 176.10895,275.83462 -0.45299,31.04459"
     id="path74"
     style="fill:#000000;stroke:none;stroke-width:7.59799995;stroke-miterlimit:10;fill-opacity:1;fill-rule:nonzero;stroke-dasharray:none" />
  <path
     class="cls-4"
     d="m 183.07246,275.83462 -0.45298,31.04459"
     id="path76"
     style="fill:#000000;stroke:none;stroke-width:7.59799995;stroke-miterlimit:10;fill-opacity:1;fill-rule:nonzero;stroke-dasharray:none" />
  <path
     class="cls-4"
     d="m 209.83402,272.08158 q -0.23981,15.48586 -0.46186,31.04459"
     id="path78"
     style="fill:#000000;stroke:none;stroke-width:7.59799995;stroke-miterlimit:10;fill-opacity:1;fill-rule:nonzero;stroke-dasharray:none" />
  <path
     class="cls-4"
     d="m 216.79754,272.08158 q -0.23982,15.48586 -0.46187,31.04459"
     id="path80"
     style="fill:#000000;stroke:none;stroke-width:7.59799995;stroke-miterlimit:10;fill-opacity:1;fill-rule:nonzero;stroke-dasharray:none" />
  <path
     class="cls-4"
     d="m 194.13947,273.34778 q -0.23093,14.89375 -0.43522,29.77839"
     id="path82"
     style="fill:#000000;stroke:none;stroke-width:7.59799995;stroke-miterlimit:10;fill-opacity:1;fill-rule:nonzero;stroke-dasharray:none" />
  <path
     class="cls-4"
     d="m 201.10299,273.34778 q -0.23094,14.89375 -0.43522,29.77839"
     id="path84"
     style="fill:#000000;stroke:none;stroke-width:7.59799995;stroke-miterlimit:10;fill-opacity:1;fill-rule:nonzero;stroke-dasharray:none" />
  <path
     class="cls-4"
     d="m 227.93561,268.80222 -0.88821,29.75106"
     id="path86"
     style="fill:#000000;stroke:none;stroke-width:7.59799995;stroke-miterlimit:10;fill-opacity:1;fill-rule:nonzero;stroke-dasharray:none" />
  <path
     class="cls-4"
     d="m 232.50097,268.70202 q -0.4441,14.86642 -0.8882,29.75106"
     id="path88"
     style="fill:#000000;stroke:none;stroke-width:7.59799995;stroke-miterlimit:10;fill-opacity:1;fill-rule:nonzero;stroke-dasharray:none" />
  <path
     class="cls-4"
     d="m 245.43321,265.19493 q -0.46187,15.48586 -0.8882,31.02637"
     id="path90"
     style="fill:#000000;stroke:none;stroke-width:7.59799995;stroke-miterlimit:10;fill-opacity:1;fill-rule:nonzero;stroke-dasharray:none" />
  <path
     class="cls-4"
     d="m 249.97193,265.05829 q -0.45299,15.48586 -0.88821,31.01726"
     id="path92"
     style="fill:#000000;stroke:none;stroke-width:7.59799995;stroke-miterlimit:10;fill-opacity:1;fill-rule:nonzero;stroke-dasharray:none" />
  <path
     class="cls-4"
     d="m 259.92869,262.47124 -1.11914,32.27435"
     id="path94"
     style="fill:#000000;stroke:none;stroke-width:7.59799995;stroke-miterlimit:10;fill-opacity:1;fill-rule:nonzero;stroke-dasharray:none" />
  <path
     class="cls-4"
     d="m 263.65026,261.64229 -1.14578,32.90289"
     id="path96"
     style="fill:#000000;stroke:none;stroke-width:7.59799995;stroke-miterlimit:10;fill-opacity:1;fill-rule:nonzero;stroke-dasharray:none" />
  <path
     class="cls-4"
     d="m 275.41007,257.31536 q -0.58622,16.76116 -1.16355,33.53143"
     id="path98"
     style="fill:#000000;stroke:none;stroke-width:7.59799995;stroke-miterlimit:10;fill-opacity:1;fill-rule:nonzero;stroke-dasharray:none" />
  <path
     class="cls-4"
     d="m 279.10499,257.11496 q -0.56845,16.77027 -1.16354,33.54054"
     id="path100"
     style="fill:#000000;stroke:none;stroke-width:7.59799995;stroke-miterlimit:10;fill-opacity:1;fill-rule:nonzero;stroke-dasharray:none" />
  <path
     class="cls-4"
     d="m 289.47033,253.09774 -0.0533,32.912"
     id="path102"
     style="fill:#000000;stroke:none;stroke-width:7.59799995;stroke-miterlimit:10;fill-opacity:1;fill-rule:nonzero;stroke-dasharray:none" />
  <path
     class="cls-4"
     d="m 293.15637,252.14127 q 0,16.77938 -0.0444,33.55875"
     id="path104"
     style="fill:#000000;stroke:none;stroke-width:7.59799995;stroke-miterlimit:10;fill-opacity:1;fill-rule:nonzero;stroke-dasharray:none" />
  <path
     class="cls-4"
     d="m 301.00809,248.71616 q -0.0711,18.56481 -0.12435,37.14783"
     id="path106"
     style="fill:#000000;stroke:none;stroke-width:7.59799995;stroke-miterlimit:10;fill-opacity:1;fill-rule:nonzero;stroke-dasharray:none" />
  <path
     class="cls-4"
     d="m 304.83624,247.75057 q -0.0622,18.88363 -0.12435,37.77638"
     id="path108"
     style="fill:#000000;stroke:none;stroke-width:7.59799995;stroke-miterlimit:10;fill-opacity:1;fill-rule:nonzero;stroke-dasharray:none" />
  <path
     class="cls-4"
     d="m 312.91001,241.68376 q -0.0622,18.92918 -0.14211,37.85836"
     id="path110"
     style="fill:#000000;stroke:none;stroke-width:7.59799995;stroke-miterlimit:10;fill-opacity:1;fill-rule:nonzero;stroke-dasharray:none" />
  <path
     class="cls-4"
     d="m 316.56941,240.04408 q -0.0622,19.56683 -0.151,39.12456"
     id="path112"
     style="fill:#000000;stroke:none;stroke-width:7.59799995;stroke-miterlimit:10;fill-opacity:1;fill-rule:nonzero;stroke-dasharray:none" />
  <path
     class="cls-4"
     d="m 324.11913,235.7627 -0.18652,40.08103"
     id="path114"
     style="fill:#000000;stroke:none;stroke-width:7.59799995;stroke-miterlimit:10;fill-opacity:1;fill-rule:nonzero;stroke-dasharray:none" />
  <path
     class="cls-4"
     d="m 327.76077,234.73334 q -0.10659,20.37757 -0.19541,40.74602"
     id="path116"
     style="fill:#000000;stroke:none;stroke-width:7.59799995;stroke-miterlimit:10;fill-opacity:1;fill-rule:nonzero;stroke-dasharray:none" />
  <path
     class="cls-5"
     d="m 35.02674,273.1747 c 42.78475,-0.44636 78.63264,-1.87652 105.50078,-3.27936 15.09946,-0.7834 44.69439,-1.98583 80.16035,-7.65183 33.83166,-5.40183 55.0686,-12.60731 67.92978,-17.84517 4.65419,-1.90385 9.22843,-4.01722 9.22843,-4.01722 a 261.81567,268.51562 0 0 0 38.37038,-21.64376"
     id="path118"
     style="fill:none;stroke:none;stroke-width:3.59798px;stroke-miterlimit:10" />
  <rect
     class="cls-2"
     x="50.730183"
     y="342.69714"
     width="6.2618332"
     height="25.578989"
     id="rect120"
     style="fill:#5a4a0e;stroke:none;stroke-width:0.899496;stroke-miterlimit:10" />
  <path
     class="cls-2"
     d="m 90.068695,396.23259 q 16.067595,-0.58299 32.144075,-0.71963 c 0.50628,-6.5405 1.18131,-16.3057 1.50107,-25.67008 1.00367,-29.77839 -2.30933,-35.48083 -5.56904,-38.71464 -1.30566,-1.29353 -5.51574,-5.08301 -11.37788,-5.22876 -8.224759,-0.20951 -13.918145,6.91398 -14.841877,8.07087 -2.424798,3.05162 -5.515745,8.51722 -4.201204,34.93426 0.550686,10.17512 1.572119,20.38668 2.344856,27.32798 z"
     id="path122"
     style="fill:#5a4a0e;stroke:none;stroke-width:0.899496;stroke-miterlimit:10" />
  <path
     class="cls-2"
     d="m 130.04673,395.47652 c 1.91851,0 3.84592,0 5.77332,0 q 12.05291,0.0547 24.1236,0.27328 c 0.49739,-6.7409 1.19907,-17.36238 1.53659,-27.53749 1.00367,-30.78953 -2.06952,-36.67415 -5.09829,-40.00817 -1.21684,-1.33907 -5.13381,-5.24697 -10.59626,-5.38361 -7.6652,-0.19129 -12.98553,7.18726 -13.85597,8.38969 -2.25604,3.13361 -5.15158,8.79961 -3.96139,36.16403 0.45298,10.4575 1.36783,20.96056 2.0784,28.10227 z"
     id="path124"
     style="fill:#5a4a0e;stroke:none;stroke-width:0.899496;stroke-miterlimit:10" />
  <path
     class="cls-2"
     d="m 165.6015,395.84089 q 14.46883,0.28239 28.94655,0.65588 c 0.47962,-6.22167 1.35006,-18.54659 1.73199,-30.2703 1.00367,-30.64377 -2.0251,-36.50107 -5.00058,-39.81686 -1.1902,-1.32086 -5.045,-5.21965 -10.41863,-5.34718 -7.54084,-0.19129 -12.78124,7.15993 -13.63392,8.35325 -2.2205,3.11539 -5.07164,8.75407 -3.90809,35.99095 0.49739,11.69638 1.57212,23.44741 2.28268,30.43426 z"
     id="path126"
     style="fill:#5a4a0e;stroke:none;stroke-width:0.899496;stroke-miterlimit:10" />
  <path
     class="cls-2"
     d="m 200.28584,396.64251 q 13.4474,0.34616 26.88591,0.61944 c 0.4441,-6.01216 1.35007,-19.31177 1.77641,-31.88264 1.00367,-31.35431 -1.77641,-37.34824 -4.58313,-40.7278 -1.11026,-1.35729 -4.70748,-5.32896 -9.71695,-5.4656 -7.04345,-0.17308 -11.95521,7.36034 -12.75459,8.58099 -2.08728,3.19737 -4.76077,8.97268 -3.73046,36.83811 0.43522,12.498 1.47442,25.03243 2.12281,32.0375 z"
     id="path128"
     style="fill:#5a4a0e;stroke:none;stroke-width:0.899496;stroke-miterlimit:10" />
  <path
     class="cls-2"
     d="m 234.89912,397.39859 q 7.83395,0.13664 15.6679,0.20951 c 2.3271,0 4.66307,0 6.99905,0 0.36416,-5.67511 1.27013,-20.2227 1.68758,-33.97779 0.98591,-32.46564 -1.37671,-38.65087 -3.71269,-42.13974 -0.94149,-1.40284 -3.97027,-5.4656 -8.22476,-5.60224 -5.96873,-0.15486 -10.16993,7.67006 -10.85384,8.93625 -1.77641,3.3158 -4.07686,9.30973 -3.33077,38.15897 0.35529,13.72776 1.26125,27.47373 1.76753,34.41504 z"
     id="path130"
     style="fill:#5a4a0e;stroke:none;stroke-width:0.899496;stroke-miterlimit:10" />
  <path
     class="cls-2"
     d="m 264.97368,397.63543 c 0.51516,0 1.03032,0 1.54547,0 l 1.98958,-0.0911 c 6.32401,-0.31883 12.7546,-0.69231 19.17631,-0.71964 0.40857,-6.4494 1.25236,-20.84214 1.66094,-34.48791 1.02143,-33.81382 -1.33231,-40.25411 -3.66828,-43.88874 -0.93262,-1.45749 -3.96139,-5.72065 -8.21588,-5.82996 -5.97761,-0.14575 -10.17881,7.99798 -10.86273,9.31884 -1.7764,3.46154 -4.08573,9.71054 -3.36629,39.7531 0.35528,14.33808 1.24349,28.76725 1.74088,35.9454 z"
     id="path132"
     style="fill:#5a4a0e;stroke:none;stroke-width:0.899496;stroke-miterlimit:10" />
  <path
     class="cls-2"
     d="m 294.13339,396.91579 a 98.830375,101.35948 0 0 1 13.32305,1.41195 h 4.74301 c 0.26646,-4.73685 1.19907,-22.13566 1.66982,-38.4778 1.01255,-35.37151 -0.83491,-42.09419 -2.66461,-45.87457 -0.74609,-1.52125 -3.14424,-5.9666 -6.56382,-6.04859 -4.7963,-0.11842 -8.22476,8.42613 -8.77545,9.81075 -1.45665,3.64373 -3.33965,10.17511 -2.93107,41.58407 0.20429,14.98485 0.85267,30.079 1.19907,37.59419 z"
     id="path134"
     style="fill:#5a4a0e;stroke:none;stroke-width:0.899496;stroke-miterlimit:10" />
  <line
     class="cls-6"
     x1="163.04347"
     y1="330.56348"
     x2="163.04347"
     y2="395.02112"
     id="line136"
     style="fill:none;stroke:#ffc67e;stroke-width:5.39698px;stroke-miterlimit:10" />
  <line
     class="cls-6"
     x1="196.47545"
     y1="330.56348"
     x2="196.47545"
     y2="398.32773"
     id="line138"
     style="fill:none;stroke:#ffc67e;stroke-width:5.39698px;stroke-miterlimit:10" />
  <line
     class="cls-6"
     x1="126.56499"
     y1="327.16568"
     x2="126.56499"
     y2="394.92087"
     id="line140"
     style="fill:none;stroke:#ffc67e;stroke-width:5.39698px;stroke-miterlimit:10" />
  <line
     class="cls-6"
     x1="87.430717"
     y1="333.39645"
     x2="87.430717"
     y2="394.92087"
     id="line142"
     style="fill:none;stroke:#ffc67e;stroke-width:5.39698px;stroke-miterlimit:10" />
  <line
     class="cls-6"
     x1="231.05319"
     y1="333.39645"
     x2="231.05319"
     y2="396.49683"
     id="line144"
     style="fill:none;stroke:#ffc67e;stroke-width:5.39698px;stroke-miterlimit:10" />
  <line
     class="cls-6"
     x1="261.30539"
     y1="330.2811"
     x2="261.30539"
     y2="398.04535"
     id="line146"
     style="fill:none;stroke:#ffc67e;stroke-width:5.39698px;stroke-miterlimit:10" />
  <line
     class="cls-7"
     x1="291.37103"
     y1="328.9147"
     x2="291.37103"
     y2="396.66989"
     id="line148"
     style="fill:none;stroke:#ffc67e;stroke-width:4.49748px;stroke-miterlimit:10" />
  <rect
     class="cls-8"
     x="516.15753"
     y="255.10181"
     width="273.78864"
     height="142.35146"
     id="rect150"
     style="fill:#cc9844;stroke-width:0.899496" />
  <line
     class="cls-5"
     x1="516.15753"
     y1="265.5593"
     x2="802.60303"
     y2="262.12509"
     id="line152"
     style="fill:none;stroke:#976d31;stroke-width:3.59798px;stroke-miterlimit:10" />
  <rect
     class="cls-9"
     x="431.94699"
     y="111.84852"
     width="62.200871"
     height="19.402864"
     id="rect154"
     style="fill:#d4a146;stroke-width:0.899496" />
  <path
     class="cls-9"
     d="m 517.83626,124.94774 -105.09221,-0.17308 -0.42633,83.51431 -74.82224,-1.22976 V 402.1992 c 1.8741,-0.0911 176.64586,-1.19332 180.38519,-0.96558 V 207.01366 c -0.0266,-54.00009 -0.0444,-82.06592 -0.0444,-82.06592 z"
     id="path156"
     style="fill:#d4a146;stroke-width:0.899496" />
  <path
     class="cls-10"
     d="m 47.843513,280.77188 c 24.425589,-0.79251 59.713907,-2.10426 102.534187,-4.25406 49.09987,-2.47773 59.65173,-3.64373 69.55519,-5.17409 27.31225,-4.2905 66.6863,-14.37452 112.80182,-40.80068"
     id="path158"
     style="fill:none;stroke:#eab768;stroke-width:3.59798px;stroke-miterlimit:10" />
  <rect
     class="cls-2"
     x="363.71521"
     y="223.24649"
     width="20.783955"
     height="40.88266"
     id="rect160"
     style="fill:#5a4a0e;stroke:none;stroke-width:0.899496;stroke-miterlimit:10" />
  <path
     class="cls-2"
     d="m 379.73842,348.27199 h -11.24465 v -32.35633 a 7.1056259,7.2874613 0 0 1 5.4358,-3.06073 7.1944463,7.3785546 0 0 1 5.80885,3.06073 z"
     id="path162"
     style="fill:#5a4a0e;stroke:none;stroke-width:0.899496;stroke-miterlimit:10" />
  <path
     class="cls-2"
     d="M 379.52525,284.88929 H 368.2806 v -15.9231 a 10.658439,10.931192 0 0 1 11.24465,0 z"
     id="path164"
     style="fill:#5a4a0e;stroke:none;stroke-width:0.899496;stroke-miterlimit:10" />
  <rect
     class="cls-11"
     x="363.72409"
     y="347.48859"
     width="20.783955"
     height="8.8633747"
     id="rect166"
     style="fill:#eab768;stroke-width:0.899496" />
  <path
     class="cls-12"
     d="m 412.73517,126.77871 c 0.95926,91.82201 -0.81715,182.91528 -0.72832,275.34762"
     id="path168"
     style="fill:none;stroke:#b48744;stroke-width:1.79899px;stroke-miterlimit:10" />
  <line
     class="cls-5"
     x1="336.2164"
     y1="218.73735"
     x2="412.069"
     y2="218.73735"
     id="line170"
     style="fill:none;stroke:#976d31;stroke-width:3.59798px;stroke-miterlimit:10" />
  <line
     class="cls-5"
     x1="412.71738"
     y1="132.96396"
     x2="517.88068"
     y2="132.59958"
     id="line172"
     style="fill:none;stroke:#976d31;stroke-width:3.59798px;stroke-miterlimit:10" />
  <line
     class="cls-5"
     x1="432.08908"
     y1="115.84753"
     x2="494.14789"
     y2="115.60155"
     id="line174"
     style="fill:none;stroke:#976d31;stroke-width:3.59798px;stroke-miterlimit:10" />
  <line
     class="cls-12"
     x1="412.21109"
     y1="125.61273"
     x2="517.88068"
     y2="125.13902"
     id="line176"
     style="fill:none;stroke:#b48744;stroke-width:1.79899px;stroke-miterlimit:10" />
  <path
     class="cls-12"
     d="m 517.88067,125.13903 c -0.26646,91.63983 -0.26646,182.7331 -0.009,274.7373"
     id="path178"
     style="fill:none;stroke:#b48744;stroke-width:1.79899px;stroke-miterlimit:10" />
  <path
     class="cls-2"
     d="m 437.67592,182.00856 h -9.98341 v -37.47577 a 7.1056259,7.2874613 0 0 1 9.99229,0 z"
     id="path180"
     style="fill:#5a4a0e;stroke:none;stroke-width:0.899496;stroke-miterlimit:10" />
  <path
     class="cls-2"
     d="m 453.13066,182.00856 h -10.00117 v -37.47577 a 7.1056259,7.2874613 0 0 1 10.00117,0 z"
     id="path182"
     style="fill:#5a4a0e;stroke:none;stroke-width:0.899496;stroke-miterlimit:10" />
  <path
     class="cls-2"
     d="m 470.20192,182.045 h -10.00117 v -37.47577 a 7.1056259,7.2874613 0 0 1 10.00117,0 z"
     id="path184"
     style="fill:#5a4a0e;stroke:none;stroke-width:0.899496;stroke-miterlimit:10" />
  <path
     class="cls-2"
     d="M 485.79877,182.045 H 475.7976 v -37.47577 a 7.1056259,7.2874613 0 0 1 10.00117,0 z"
     id="path186"
     style="fill:#5a4a0e;stroke:none;stroke-width:0.899496;stroke-miterlimit:10" />
  <path
     class="cls-2"
     d="m 502.05289,182.045 h -10.00117 v -37.47577 a 7.1056259,7.2874613 0 0 1 10.00117,0 z"
     id="path188"
     style="fill:#5a4a0e;stroke:none;stroke-width:0.899496;stroke-miterlimit:10" />
  <path
     class="cls-2"
     d="m 462.06598,224.64021 h -8.93532 v -28.98588 a 4.9117639,5.0374577 0 0 1 8.93532,0 z"
     id="path190"
     style="fill:#5a4a0e;stroke:none;stroke-width:0.899496;stroke-miterlimit:10" />
  <path
     class="cls-2"
     d="m 476.62363,224.64021 h -8.93532 v -28.98588 a 4.9117639,5.0374577 0 0 1 8.93532,0 z"
     id="path192"
     style="fill:#5a4a0e;stroke:none;stroke-width:0.899496;stroke-miterlimit:10" />
  <path
     class="cls-2"
     d="M 472.15597,325.87216 H 457.59832 V 255.1018 a 7.6030198,7.7975836 0 0 1 14.55765,0 z"
     id="path194"
     style="fill:#5a4a0e;stroke:none;stroke-width:0.899496;stroke-miterlimit:10" />
  <path
     class="cls-2"
     d="m 489.03183,401.98969 v -46.05676 a 33.574083,34.433255 0 0 0 -21.68992,-9.54657 c -13.70498,-0.53745 -22.6403,7.99799 -24.21242,9.54657 l 0.17764,46.53044 v 0 z"
     id="path196"
     style="fill:#5a4a0e;stroke:none;stroke-width:0.899496;stroke-miterlimit:10" />
  <path
     class="cls-2"
     d="m 538.99326,302.26078 h -9.99228 v -28.913 a 8.6777457,8.8998122 0 0 1 9.99228,0 z"
     id="path198"
     style="fill:#5a4a0e;stroke:none;stroke-width:0.899496;stroke-miterlimit:10" />
  <path
     class="cls-2"
     d="m 554.43912,302.26078 h -10.00117 v -28.913 a 8.6955097,8.9180308 0 0 1 10.00117,0 z"
     id="path200"
     style="fill:#5a4a0e;stroke:none;stroke-width:0.899496;stroke-miterlimit:10" />
  <path
     class="cls-2"
     d="m 571.51038,302.28811 h -10.00117 v -28.913 a 8.6955097,8.9180308 0 0 1 10.00117,0 z"
     id="path202"
     style="fill:#5a4a0e;stroke:none;stroke-width:0.899496;stroke-miterlimit:10" />
  <path
     class="cls-2"
     d="m 587.10723,302.28811 h -9.9834 v -28.913 a 8.6955097,8.9180308 0 0 1 10.00117,0 z"
     id="path204"
     style="fill:#5a4a0e;stroke:none;stroke-width:0.899496;stroke-miterlimit:10" />
  <path
     class="cls-2"
     d="m 603.36135,302.28811 h -10.00117 v -28.913 a 8.6955097,8.9180308 0 0 1 10.00117,0 z"
     id="path206"
     style="fill:#5a4a0e;stroke:none;stroke-width:0.899496;stroke-miterlimit:10" />
  <path
     class="cls-2"
     d="m 619.26907,302.25167 h -9.99228 v -28.92211 a 8.7221558,8.9453588 0 0 1 9.99228,0 z"
     id="path208"
     style="fill:#5a4a0e;stroke:none;stroke-width:0.899496;stroke-miterlimit:10" />
  <path
     class="cls-2"
     d="m 634.71493,302.25167 h -10.00117 v -28.92211 a 8.7399199,8.9635774 0 0 1 10.00117,0 z"
     id="path210"
     style="fill:#5a4a0e;stroke:none;stroke-width:0.899496;stroke-miterlimit:10" />
  <path
     class="cls-2"
     d="m 651.78619,302.279 h -10.00117 v -28.92211 a 8.7399199,8.9635774 0 0 1 10.00117,0 z"
     id="path212"
     style="fill:#5a4a0e;stroke:none;stroke-width:0.899496;stroke-miterlimit:10" />
  <path
     class="cls-2"
     d="m 667.38304,302.279 h -10.00117 v -28.92211 a 8.7399199,8.9635774 0 0 1 10.00117,0 z"
     id="path214"
     style="fill:#5a4a0e;stroke:none;stroke-width:0.899496;stroke-miterlimit:10" />
  <path
     class="cls-2"
     d="m 683.63716,302.279 h -10.00117 v -28.92211 a 8.7399199,8.9635774 0 0 1 10.00117,0 z"
     id="path216"
     style="fill:#5a4a0e;stroke:none;stroke-width:0.899496;stroke-miterlimit:10" />
  <path
     class="cls-2"
     d="m 700.50412,302.23345 h -9.99227 v -28.913 a 8.2958183,8.5081111 0 0 1 4.87624,-1.62146 8.4112847,8.6265324 0 0 1 5.11603,1.62146 z"
     id="path218"
     style="fill:#5a4a0e;stroke:none;stroke-width:0.899496;stroke-miterlimit:10" />
  <path
     class="cls-2"
     d="m 715.94998,302.23345 h -10.0367 v -28.913 a 8.6955097,8.9180308 0 0 1 10.00117,0 z"
     id="path220"
     style="fill:#5a4a0e;stroke:none;stroke-width:0.899496;stroke-miterlimit:10" />
  <path
     class="cls-2"
     d="m 733.02124,302.26078 h -10.00117 v -28.913 a 8.6955097,8.9180308 0 0 1 10.00117,0 z"
     id="path222"
     style="fill:#5a4a0e;stroke:none;stroke-width:0.899496;stroke-miterlimit:10" />
  <path
     class="cls-2"
     d="m 748.61809,302.26078 h -10.00117 v -28.913 a 8.6955097,8.9180308 0 0 1 10.00117,0 z"
     id="path224"
     style="fill:#5a4a0e;stroke:none;stroke-width:0.899496;stroke-miterlimit:10" />
  <path
     class="cls-2"
     d="m 764.87221,302.26078 h -9.99228 v -28.913 a 8.6777457,8.8998122 0 0 1 9.99228,0 z"
     id="path226"
     style="fill:#5a4a0e;stroke:none;stroke-width:0.899496;stroke-miterlimit:10" />
  <path
     class="cls-2"
     d="m 778.74595,302.22434 h -10.00117 v -28.92211 a 8.7221558,8.9453588 0 0 1 9.99228,0 z"
     id="path228"
     style="fill:#5a4a0e;stroke:none;stroke-width:0.899496;stroke-miterlimit:10" />
  <path
     class="cls-2"
     d="m 537.94518,357.12626 h -11.77757 v -38.04055 a 6.3506532,6.5131686 0 0 1 5.09828,-4.37248 6.4128274,6.5769339 0 0 1 6.67929,4.37248 z"
     id="path230"
     style="fill:#5a4a0e;stroke:none;stroke-width:0.899496;stroke-miterlimit:10" />
  <path
     class="cls-2"
     d="M 578.13638,357.12626 H 566.3588 v -38.04055 a 6.3328891,6.4949499 0 0 1 5.09829,-4.37248 6.4128274,6.5769339 0 0 1 6.67929,4.37248 z"
     id="path232"
     style="fill:#5a4a0e;stroke:none;stroke-width:0.899496;stroke-miterlimit:10" />
  <path
     class="cls-2"
     d="m 616.87981,357.12626 h -11.77758 v -38.04055 a 6.3506532,6.5131686 0 0 1 5.09829,-4.37248 6.4128274,6.5769339 0 0 1 6.67929,4.37248 z"
     id="path234"
     style="fill:#5a4a0e;stroke:none;stroke-width:0.899496;stroke-miterlimit:10" />
  <path
     class="cls-2"
     d="m 655.28571,357.12626 h -11.8131 v -38.04055 a 6.3506532,6.5131686 0 0 1 5.09829,-4.37248 6.4128274,6.5769339 0 0 1 6.67929,4.37248 z"
     id="path236"
     style="fill:#5a4a0e;stroke:none;stroke-width:0.899496;stroke-miterlimit:10" />
  <path
     class="cls-2"
     d="m 692.52808,357.12626 h -11.7687 v -38.04055 a 6.3328891,6.4949499 0 0 1 5.09829,-4.37248 6.4128274,6.5769339 0 0 1 6.67041,4.37248 z"
     id="path238"
     style="fill:#5a4a0e;stroke:none;stroke-width:0.899496;stroke-miterlimit:10" />
  <path
     class="cls-2"
     d="m 728.90886,357.12626 h -11.76869 v -38.04055 a 6.3328891,6.4949499 0 0 1 5.0894,-4.37248 6.4128274,6.5769339 0 0 1 6.67929,4.37248 z"
     id="path240"
     style="fill:#5a4a0e;stroke:none;stroke-width:0.899496;stroke-miterlimit:10" />
  <path
     class="cls-2"
     d="m 768.13192,357.12626 h -11.7687 v -38.04055 a 6.3240071,6.4858406 0 0 1 5.08941,-4.37248 6.4128274,6.5769339 0 0 1 6.67929,4.37248 z"
     id="path242"
     style="fill:#5a4a0e;stroke:none;stroke-width:0.899496;stroke-miterlimit:10" />
  <path
     class="cls-13"
     d="m 545.48603,397.45324 h -26.85927 v -84.37058 a 17.906177,18.364403 0 0 1 12.79013,-6.67714 c 8.34023,-0.31882 13.45628,5.90285 14.06914,6.67714 z"
     id="path244"
     style="fill:none;stroke:#8c6239;stroke-width:1.79899px;stroke-miterlimit:10" />
  <path
     class="cls-13"
     d="m 585.67723,397.45324 h -26.85927 v -84.37058 a 17.906177,18.364403 0 0 1 12.79013,-6.67714 c 8.34022,-0.31882 13.45627,5.90285 14.06914,6.67714 z"
     id="path246"
     style="fill:none;stroke:#8c6239;stroke-width:1.79899px;stroke-miterlimit:10" />
  <path
     class="cls-13"
     d="m 624.1986,397.45324 h -26.82374 v -84.37058 a 17.906177,18.364403 0 0 1 12.79013,-6.67714 c 8.34023,-0.31882 13.45628,5.90285 14.06914,6.67714 z"
     id="path248"
     style="fill:none;stroke:#8c6239;stroke-width:1.79899px;stroke-miterlimit:10" />
  <path
     class="cls-13"
     d="m 662.24923,397.45324 h -26.85927 v -84.37058 a 17.861767,18.318856 0 0 1 12.79013,-6.67714 c 8.34023,-0.31882 13.45628,5.90285 14.06914,6.67714 z"
     id="path250"
     style="fill:none;stroke:#8c6239;stroke-width:1.79899px;stroke-miterlimit:10" />
  <path
     class="cls-13"
     d="m 699.6248,397.45324 h -26.85925 v -84.37058 a 17.861767,18.318856 0 0 1 12.79013,-6.67714 c 8.34023,-0.31882 13.45626,5.90285 14.06912,6.67714 z"
     id="path252"
     style="fill:none;stroke:#8c6239;stroke-width:1.79899px;stroke-miterlimit:10" />
  <path
     class="cls-13"
     d="m 736.44971,397.45324 h -26.85927 v -84.37058 a 17.906177,18.364403 0 0 1 12.79013,-6.67714 c 8.34023,-0.31882 13.45628,5.90285 14.06914,6.67714 z"
     id="path254"
     style="fill:none;stroke:#8c6239;stroke-width:1.79899px;stroke-miterlimit:10" />
  <path
     class="cls-13"
     d="M 775.67276,397.45324 H 748.8135 v -84.37058 a 17.906177,18.364403 0 0 1 12.79012,-6.67714 c 8.34023,-0.31882 13.45628,5.90285 14.06914,6.67714 z"
     id="path256"
     style="fill:none;stroke:#8c6239;stroke-width:1.79899px;stroke-miterlimit:10" />
  <line
     class="cls-14"
     x1="549.76715"
     y1="326.60092"
     x2="549.55402"
     y2="397.45328"
     id="line258"
     style="fill:none;stroke:#eab768;stroke-width:4.49748px;stroke-miterlimit:10" />
  <line
     class="cls-14"
     x1="555.35394"
     y1="326.60092"
     x2="555.14081"
     y2="397.45328"
     id="line260"
     style="fill:none;stroke:#eab768;stroke-width:4.49748px;stroke-miterlimit:10" />
  <rect
     class="cls-15"
     x="542.61713"
     y="319.74158"
     width="18.892084"
     height="7.7064905"
     id="rect262"
     style="fill:#eab768;stroke:#a67c52;stroke-width:0.899496;stroke-miterlimit:10" />
  <line
     class="cls-14"
     x1="587.34705"
     y1="326.77399"
     x2="587.13391"
     y2="397.63547"
     id="line264"
     style="fill:none;stroke:#eab768;stroke-width:4.49748px;stroke-miterlimit:10" />
  <line
     class="cls-14"
     x1="592.93384"
     y1="326.77399"
     x2="592.72064"
     y2="397.63547"
     id="line266"
     style="fill:none;stroke:#eab768;stroke-width:4.49748px;stroke-miterlimit:10" />
  <rect
     class="cls-15"
     x="580.19702"
     y="319.9238"
     width="18.892084"
     height="7.7064905"
     id="rect268"
     style="fill:#eab768;stroke:#a67c52;stroke-width:0.899496;stroke-miterlimit:10" />
  <line
     class="cls-14"
     x1="627.41388"
     y1="326.77399"
     x2="627.20074"
     y2="397.63547"
     id="line270"
     style="fill:none;stroke:#eab768;stroke-width:4.49748px;stroke-miterlimit:10" />
  <line
     class="cls-14"
     x1="633.00952"
     y1="326.77399"
     x2="632.79639"
     y2="397.63547"
     id="line272"
     style="fill:none;stroke:#eab768;stroke-width:4.49748px;stroke-miterlimit:10" />
  <rect
     class="cls-15"
     x="620.27277"
     y="319.9238"
     width="18.892084"
     height="7.7064905"
     id="rect274"
     style="fill:#eab768;stroke:#a67c52;stroke-width:0.899496;stroke-miterlimit:10" />
  <line
     class="cls-14"
     x1="665.08258"
     y1="326.77399"
     x2="664.86938"
     y2="397.63547"
     id="line276"
     style="fill:none;stroke:#eab768;stroke-width:4.49748px;stroke-miterlimit:10" />
  <line
     class="cls-14"
     x1="670.66937"
     y1="326.77399"
     x2="670.45624"
     y2="397.63547"
     id="line278"
     style="fill:none;stroke:#eab768;stroke-width:4.49748px;stroke-miterlimit:10" />
  <rect
     class="cls-15"
     x="657.93256"
     y="319.9238"
     width="18.892084"
     height="7.7064905"
     id="rect280"
     style="fill:#eab768;stroke:#a67c52;stroke-width:0.899496;stroke-miterlimit:10" />
  <line
     class="cls-14"
     x1="741.23712"
     y1="326.77399"
     x2="741.02393"
     y2="397.63547"
     id="line282"
     style="fill:none;stroke:#eab768;stroke-width:4.49748px;stroke-miterlimit:10" />
  <line
     class="cls-14"
     x1="746.83282"
     y1="326.77399"
     x2="746.61963"
     y2="397.63547"
     id="line284"
     style="fill:none;stroke:#eab768;stroke-width:4.49748px;stroke-miterlimit:10" />
  <rect
     class="cls-15"
     x="734.08704"
     y="319.9238"
     width="18.892084"
     height="7.7064905"
     id="rect286"
     style="fill:#eab768;stroke:#a67c52;stroke-width:0.899496;stroke-miterlimit:10" />
  <line
     class="cls-14"
     x1="703.65723"
     y1="326.77399"
     x2="703.44403"
     y2="397.63547"
     id="line288"
     style="fill:none;stroke:#eab768;stroke-width:4.49748px;stroke-miterlimit:10" />
  <line
     class="cls-14"
     x1="709.24408"
     y1="326.77399"
     x2="709.03088"
     y2="397.63547"
     id="line290"
     style="fill:none;stroke:#eab768;stroke-width:4.49748px;stroke-miterlimit:10" />
  <rect
     class="cls-15"
     x="696.5072"
     y="319.9238"
     width="18.892084"
     height="7.7064905"
     id="rect292"
     style="fill:#eab768;stroke:#a67c52;stroke-width:0.899496;stroke-miterlimit:10" />
  <path
     class="cls-11"
     d="m 446.55795,265.30424 9.69918,-0.0911 a 2.6646097,2.732798 0 0 0 2.57579,-3.46154 c -1.3323,-5.4656 2.16722,-10.09314 7.65631,-8.95447 4.71636,0.97469 4.44102,5.15588 3.82816,8.94536 a 2.6646097,2.732798 0 0 0 2.56691,3.46154 l 10.26762,-0.14575 c 3.42847,0 3.43735,-5.4656 0,-5.4656 l -10.2321,0.11843 2.57579,3.45243 c 1.2879,-7.55163 -0.4441,-14.85731 -9.05967,-15.90488 -9.21067,-1.12045 -14.85964,7.1326 -12.71019,15.9231 l 2.56691,-3.46154 -9.69918,0.0911 c -3.41958,0 -3.42847,5.46559 0,5.46559 z"
     id="path294"
     style="fill:#eab768;stroke-width:0.899496" />
  <rect
     class="cls-11"
     x="448.40536"
     y="322.80234"
     width="32.943459"
     height="4.8279433"
     id="rect296"
     style="fill:#eab768;stroke-width:0.899496" />
  <line
     class="cls-16"
     x1="552.64496"
     y1="327.61206"
     x2="552.64496"
     y2="399.21136"
     id="line298"
     style="fill:none;stroke:#b48744;stroke-width:0.899496;stroke-miterlimit:10" />
  <line
     class="cls-16"
     x1="590.3847"
     y1="327.61206"
     x2="590.3847"
     y2="399.21136"
     id="line300"
     style="fill:none;stroke:#b48744;stroke-width:0.899496;stroke-miterlimit:10" />
  <line
     class="cls-16"
     x1="629.81201"
     y1="327.61206"
     x2="629.81201"
     y2="399.21136"
     id="line302"
     style="fill:none;stroke:#b48744;stroke-width:0.899496;stroke-miterlimit:10" />
  <line
     class="cls-16"
     x1="667.50739"
     y1="327.61206"
     x2="667.50739"
     y2="399.21136"
     id="line304"
     style="fill:none;stroke:#b48744;stroke-width:0.899496;stroke-miterlimit:10" />
  <line
     class="cls-16"
     x1="705.94879"
     y1="327.61206"
     x2="705.94879"
     y2="399.21136"
     id="line306"
     style="fill:none;stroke:#b48744;stroke-width:0.899496;stroke-miterlimit:10" />
  <line
     class="cls-16"
     x1="743.61755"
     y1="327.61206"
     x2="743.61755"
     y2="399.21136"
     id="line308"
     style="fill:none;stroke:#b48744;stroke-width:0.899496;stroke-miterlimit:10" />
  <path
     class="cls-6"
     d="m 316.46282,322.24664 q 0.10659,10.43018 0.15988,20.95145 0.12435,26.81786 -0.15988,53.11649"
     id="path310"
     style="fill:none;stroke:#ffc67e;stroke-width:5.39698px;stroke-miterlimit:10" />
  <line
     class="cls-6"
     x1="518.62677"
     y1="397.45328"
     x2="784.43933"
     y2="395.84091"
     id="line312"
     style="fill:none;stroke:#ffc67e;stroke-width:5.39698px;stroke-miterlimit:10" />
  <path
     class="cls-6"
     d="m 36.829793,396.54231 c 83.357877,0 144.510667,-0.31882 184.089007,-1.18421 29.20412,-0.63765 49.93479,0.81073 66.76624,1.44838 19.38947,0.73786 35.52813,1.62146 47.07477,2.31377"
     id="path314"
     style="fill:none;stroke:#ffc67e;stroke-width:5.39698px;stroke-miterlimit:10" />
  <path
     class="cls-10"
     d="m 37.03408,397.07976 q 76.52759,-1.58502 157.51397,-0.58299 73.30341,0.9838 142.94743,4.1083"
     id="path316"
     style="fill:none;stroke:#eab768;stroke-width:3.59798px;stroke-miterlimit:10" />
  <rect
     class="cls-2"
     x="50.770466"
     y="280.18491"
     width="2.3949392"
     height="25.578989"
     id="rect2537"
     style="fill:#eeba6f;stroke:none;stroke-width:0.556283;stroke-miterlimit:10;fill-opacity:1" />
  <rect
     class="cls-2"
     x="55.833557"
     y="279.8696"
     width="2.3949392"
     height="25.578989"
     id="rect2539"
     style="fill:#eeba6f;fill-opacity:1;stroke:none;stroke-width:0.556283;stroke-miterlimit:10" />
  <rect
     class="cls-2"
     x="65.119125"
     y="281.28317"
     width="2.3949392"
     height="25.578989"
     id="rect2541"
     style="fill:#eeba6f;fill-opacity:1;stroke:none;stroke-width:0.556283;stroke-miterlimit:10" />
  <rect
     class="cls-2"
     x="71.088234"
     y="281.00919"
     width="2.3949392"
     height="25.578989"
     id="rect2543"
     style="fill:#eeba6f;fill-opacity:1;stroke:none;stroke-width:0.556283;stroke-miterlimit:10" />
  <rect
     class="cls-2"
     x="80.76683"
     y="280.20337"
     width="2.3949392"
     height="25.578989"
     id="rect2545"
     style="fill:#eeba6f;fill-opacity:1;stroke:none;stroke-width:0.556283;stroke-miterlimit:10" />
  <rect
     class="cls-2"
     x="86.283325"
     y="280.20337"
     width="2.3949392"
     height="25.578989"
     id="rect2547"
     style="fill:#eeba6f;fill-opacity:1;stroke:none;stroke-width:0.556283;stroke-miterlimit:10" />
  <rect
     class="cls-2"
     x="96.473938"
     y="279.77194"
     width="2.3949392"
     height="25.578989"
     id="rect2549"
     style="fill:#eeba6f;fill-opacity:1;stroke:none;stroke-width:0.556283;stroke-miterlimit:10" />
  <rect
     class="cls-2"
     x="103.0327"
     y="280.39438"
     width="2.3949392"
     height="25.578989"
     id="rect2551"
     style="fill:#eeba6f;fill-opacity:1;stroke:none;stroke-width:0.556283;stroke-miterlimit:10" />
  <rect
     class="cls-2"
     x="112.31065"
     y="279.61703"
     width="2.3949392"
     height="25.578989"
     id="rect2553"
     style="fill:#eeba6f;fill-opacity:1;stroke:none;stroke-width:0.556283;stroke-miterlimit:10" />
  <rect
     class="cls-2"
     x="118.14227"
     y="278.87387"
     width="2.3949392"
     height="29.686102"
     id="rect2555"
     style="fill:#eeba6f;fill-opacity:1;stroke:none;stroke-width:0.599281;stroke-miterlimit:10" />
  <rect
     class="cls-2"
     x="129.71336"
     y="277.27081"
     width="2.3949392"
     height="29.686102"
     id="rect2557"
     style="fill:#eeba6f;fill-opacity:1;stroke:none;stroke-width:0.599281;stroke-miterlimit:10" />
  <rect
     class="cls-2"
     x="134.42175"
     y="277.14322"
     width="2.3949392"
     height="29.686102"
     id="rect2559"
     style="fill:#eeba6f;fill-opacity:1;stroke:none;stroke-width:0.599281;stroke-miterlimit:10" />
  <rect
     class="cls-2"
     x="146.43886"
     y="276.32782"
     width="2.3949392"
     height="29.686102"
     id="rect2561"
     style="fill:#eeba6f;fill-opacity:1;stroke:none;stroke-width:0.599281;stroke-miterlimit:10" />
  <rect
     class="cls-2"
     x="152.58621"
     y="276.32782"
     width="2.3949392"
     height="29.686102"
     id="rect2563"
     style="fill:#eeba6f;fill-opacity:1;stroke:none;stroke-width:0.599281;stroke-miterlimit:10" />
  <rect
     class="cls-2"
     x="166.00923"
     y="274.8985"
     width="2.3949392"
     height="29.686102"
     id="rect2565"
     style="fill:#eeba6f;fill-opacity:1;stroke:none;stroke-width:0.599281;stroke-miterlimit:10" />
  <rect
     class="cls-2"
     x="170.71762"
     y="274.7709"
     width="2.3949392"
     height="29.686102"
     id="rect2567"
     style="fill:#eeba6f;fill-opacity:1;stroke:none;stroke-width:0.599281;stroke-miterlimit:10" />
  <rect
     class="cls-2"
     x="182.73473"
     y="273.95551"
     width="2.3949392"
     height="29.686102"
     id="rect2569"
     style="fill:#eeba6f;fill-opacity:1;stroke:none;stroke-width:0.599281;stroke-miterlimit:10" />
  <rect
     class="cls-2"
     x="188.88208"
     y="273.95551"
     width="2.3949392"
     height="29.686102"
     id="rect2571"
     style="fill:#eeba6f;fill-opacity:1;stroke:none;stroke-width:0.599281;stroke-miterlimit:10" />
  <rect
     class="cls-2"
     x="199.69223"
     y="271.07504"
     width="2.3949392"
     height="29.686102"
     id="rect2573"
     style="fill:#eeba6f;fill-opacity:1;stroke:none;stroke-width:0.599281;stroke-miterlimit:10" />
  <rect
     class="cls-2"
     x="204.40062"
     y="270.94745"
     width="2.3949392"
     height="29.686102"
     id="rect2575"
     style="fill:#eeba6f;fill-opacity:1;stroke:none;stroke-width:0.599281;stroke-miterlimit:10" />
  <rect
     class="cls-2"
     x="216.41772"
     y="270.13205"
     width="2.3949392"
     height="29.686102"
     id="rect2577"
     style="fill:#eeba6f;fill-opacity:1;stroke:none;stroke-width:0.599281;stroke-miterlimit:10" />
  <rect
     class="cls-2"
     x="222.56508"
     y="270.13205"
     width="2.3949392"
     height="29.686102"
     id="rect2579"
     style="fill:#eeba6f;fill-opacity:1;stroke:none;stroke-width:0.599281;stroke-miterlimit:10" />
  <rect
     class="cls-2"
     x="235.9881"
     y="268.70273"
     width="2.3949392"
     height="29.686102"
     id="rect2581"
     style="fill:#eeba6f;fill-opacity:1;stroke:none;stroke-width:0.599281;stroke-miterlimit:10" />
  <rect
     class="cls-2"
     x="240.69649"
     y="268.57513"
     width="2.3949392"
     height="29.686102"
     id="rect2583"
     style="fill:#eeba6f;fill-opacity:1;stroke:none;stroke-width:0.599281;stroke-miterlimit:10" />
  <rect
     class="cls-2"
     x="252.9185"
     y="263.74411"
     width="2.3949392"
     height="29.686102"
     id="rect2585"
     style="fill:#eeba6f;fill-opacity:1;stroke:none;stroke-width:0.599281;stroke-miterlimit:10" />
  <rect
     class="cls-2"
     x="260.24783"
     y="262.36307"
     width="2.3949392"
     height="29.686102"
     id="rect2587"
     style="fill:#eeba6f;fill-opacity:1;stroke:none;stroke-width:0.599281;stroke-miterlimit:10" />
  <rect
     class="cls-2"
     x="269.14548"
     y="256.59549"
     width="2.3949392"
     height="36.408195"
     id="rect2589"
     style="fill:#eeba6f;fill-opacity:1;stroke:none;stroke-width:0.663672;stroke-miterlimit:10" />
  <rect
     class="cls-2"
     x="273.85385"
     y="256.439"
     width="2.3949392"
     height="36.408195"
     id="rect2591"
     style="fill:#eeba6f;fill-opacity:1;stroke:none;stroke-width:0.663672;stroke-miterlimit:10" />
  <rect
     class="cls-2"
     x="286.07587"
     y="250.51402"
     width="2.3949392"
     height="36.408195"
     id="rect2593"
     style="fill:#eeba6f;fill-opacity:1;stroke:none;stroke-width:0.663672;stroke-miterlimit:10" />
  <rect
     class="cls-2"
     x="293.40521"
     y="248.82027"
     width="2.3949392"
     height="36.408195"
     id="rect2595"
     style="fill:#eeba6f;fill-opacity:1;stroke:none;stroke-width:0.663672;stroke-miterlimit:10" />
  <rect
     class="cls-2"
     x="302.23978"
     y="243.05299"
     width="2.3949392"
     height="41.479366"
     id="rect2597"
     style="fill:#eeba6f;fill-opacity:1;stroke:none;stroke-width:0.708386;stroke-miterlimit:10" />
  <rect
     class="cls-2"
     x="306.94815"
     y="242.87469"
     width="2.3949392"
     height="41.479366"
     id="rect2599"
     style="fill:#eeba6f;fill-opacity:1;stroke:none;stroke-width:0.708386;stroke-miterlimit:10" />
  <rect
     class="cls-2"
     x="319.17017"
     y="236.12445"
     width="2.3949392"
     height="41.479366"
     id="rect2601"
     style="fill:#eeba6f;fill-opacity:1;stroke:none;stroke-width:0.708386;stroke-miterlimit:10" />
  <rect
     class="cls-2"
     x="326.49951"
     y="234.19478"
     width="2.3949392"
     height="41.479366"
     id="rect2603"
     style="fill:#eeba6f;fill-opacity:1;stroke:none;stroke-width:0.708386;stroke-miterlimit:10" />
</svg>
