<?xml version="1.0" encoding="UTF-8" standalone="no"?>
<svg
   id="Layer_2"
   data-name="Layer 2"
   viewBox="0 0 2186.6399 286.54"
   version="1.1"
   sodipodi:docname="kamurj-01.svg"
   width="2186.6399"
   height="286.54001"
   inkscape:version="1.2 (1:1.2+202206011326+fc4e4096c5)"
   xmlns:inkscape="http://www.inkscape.org/namespaces/inkscape"
   xmlns:sodipodi="http://sodipodi.sourceforge.net/DTD/sodipodi-0.dtd"
   xmlns="http://www.w3.org/2000/svg"
   xmlns:svg="http://www.w3.org/2000/svg">
  <sodipodi:namedview
     id="namedview21"
     pagecolor="#ffffff"
     bordercolor="#000000"
     borderopacity="0.25"
     inkscape:showpageshadow="2"
     inkscape:pageopacity="0.0"
     inkscape:pagecheckerboard="0"
     inkscape:deskcolor="#d1d1d1"
     showgrid="false"
     inkscape:zoom="0.54584423"
     inkscape:cx="1650.6541"
     inkscape:cy="23.816319"
     inkscape:window-width="1920"
     inkscape:window-height="1007"
     inkscape:window-x="0"
     inkscape:window-y="0"
     inkscape:window-maximized="1"
     inkscape:current-layer="Layer_2" />
  <defs
     id="defs4">
    <style
       id="style2">.cls-1{fill:#a0a002;}.cls-2{fill:#c2c20e;}.cls-3{fill:none;stroke:#7a7a08;stroke-width:7px;}</style>
  </defs>
  <path
     class="cls-1"
     d="m 390.25,41.15 c 48.68,31.48 74,90.63 63.71,146.52 -12.52,67.94 -71.31,96.39 -76.68,98.87 h 211.68 c -43,-15.36 -75.63,-52.5 -84.24,-97.71 C 493.56,130.4 524.23,67.35 580.33,39.9 Z"
     id="path6"
     style="fill:#a0a002" />
  <path
     class="cls-1"
     d="m 1022.41,40.4 c 61.36,25.09 96.68,88.94 87.11,148.49 -10.67,66.42 -72.06,95.55 -76.68,97.65 h 211.72 c -43.35,-15.67 -76.27,-52.31 -84.24,-96.5 -10.9,-60.45 26.34,-126.94 91.08,-150.14 z"
     id="path8"
     style="fill:#a0a002" />
  <path
     class="cls-1"
     d="m 1696.32,40.07 c 53.25,30.54 81.6,91.76 70.92,149 -12.36,66.32 -71,94.8 -76.68,97.45 h 211.68 c -2.92,-1.06 -71,-27.05 -84.24,-96.3 -11.35,-59.53 22.92,-124.71 84.24,-150.34 z"
     id="path10"
     style="fill:#a0a002" />
  <path
     class="cls-1"
     d="m 1103.04,54.7 0.12,-20.87 q 0,-7.44 0.08,-14.89 L 5.76,23.02 q 0.06,9.09 0,18.42 C 5.76,48 5.45,60.86 5.45,60.86 v 0 z"
     id="path12"
     style="fill:#a0a002" />
  <path
     class="cls-1"
     d="m 2186.25,19.07 -1094.49,4.15 -8.88,31.62 1103.76,-0.83 z"
     id="path14"
     style="fill:#a0a002" />
  <path
     class="cls-2"
     d="M 2186.25,19.07 0,21 V 0 h 2185.2 z"
     id="path16"
     style="fill:#c2c20e" />
  <path
     class="cls-3"
     d="m 5.76,23.02 2180.49,-4"
     id="path18"
     style="fill:none;stroke:#7a7a08;stroke-width:7px" />
</svg>
