<?xml version="1.0" encoding="UTF-8" standalone="no"?>
<svg
   id="Layer_1"
   data-name="Layer 1"
   viewBox="0 0 531.08716 479.39461"
   version="1.1"
   sodipodi:docname="hamakargich-01.svg"
   width="531.08716"
   height="479.39459"
   inkscape:version="1.2.2 (b0a8486541, 2022-12-01)"
   xmlns:inkscape="http://www.inkscape.org/namespaces/inkscape"
   xmlns:sodipodi="http://sodipodi.sourceforge.net/DTD/sodipodi-0.dtd"
   xmlns="http://www.w3.org/2000/svg"
   xmlns:svg="http://www.w3.org/2000/svg">
  <sodipodi:namedview
     id="namedview69"
     pagecolor="#ffffff"
     bordercolor="#000000"
     borderopacity="0.25"
     inkscape:showpageshadow="2"
     inkscape:pageopacity="0.0"
     inkscape:pagecheckerboard="0"
     inkscape:deskcolor="#d1d1d1"
     showgrid="false"
     inkscape:zoom="1.3302258"
     inkscape:cx="370.23789"
     inkscape:cy="259.35446"
     inkscape:window-width="1920"
     inkscape:window-height="1011"
     inkscape:window-x="0"
     inkscape:window-y="32"
     inkscape:window-maximized="1"
     inkscape:current-layer="Layer_1" />
  <defs
     id="defs4">
    <style
       id="style2">.cls-1,.cls-2,.cls-6{fill:#3e4144;}.cls-1{stroke:#808285;}.cls-1,.cls-10,.cls-11,.cls-2,.cls-6,.cls-7,.cls-8,.cls-9{stroke-miterlimit:10;}.cls-1,.cls-2{stroke-width:0.98px;}.cls-10,.cls-2,.cls-6,.cls-7,.cls-8,.cls-9{stroke:#939598;}.cls-3{fill:#1c75bc;}.cls-4{fill:#6098b7;}.cls-5{fill:#777e82;}.cls-6{stroke-width:0.94px;}.cls-10,.cls-7,.cls-8,.cls-9{fill:#535556;}.cls-7{stroke-width:0.58px;}.cls-8{stroke-width:0.68px;}.cls-9{stroke-width:0.68px;}.cls-10{stroke-width:0.82px;}.cls-11{fill:none;stroke:#3e4144;}</style>
  </defs>
  <path
     class="cls-1"
     d="m 335.47911,381.64 -152.8,-2.32 14.88,-8.16 c 3.08,-1.68 7.34,-4 12.48,-6.72 l 11.2,-42.8 c 1.48,-4.48 5.94,-7.84 10,-7.78 l 53.91,0.78 c 4.06,0.06 8.42,3.56 9.77,8.08 l 12.76,42.7 q 6.59,3.8 13.22,7.66 7.34,4.26 14.58,8.56 z"
     id="path6"
     style="fill:#3e4144;stroke:#808285;stroke-width:0.98px;stroke-miterlimit:10" />
  <rect
     class="cls-2"
     x="9.7791052"
     y="0.49000001"
     width="498.72"
     height="316.67001"
     rx="11.8"
     id="rect8"
     style="fill:#3e4144;stroke:#939598;stroke-width:0.98px;stroke-miterlimit:10" />
  <rect
     class="cls-3"
     x="27.729109"
     y="15.879998"
     width="462.82001"
     height="264.10001"
     id="rect10"
     style="fill:#1c75bc" />
  <path
     class="cls-4"
     d="M 490.54911,280.98 48.279106,278.2 490.54911,16.880001 Z"
     id="path12"
     style="fill:#6098b7" />
  <circle
     class="cls-5"
     cx="257.0191"
     cy="297.44"
     r="7.5"
     id="circle14"
     style="fill:#777e82" />
  <path
     class="cls-6"
     d="M 530.31911,478.92 0.75910632,475.76 42.589106,392.32 H 486.34911 Z"
     id="path16"
     style="fill:#3e4144;stroke:#939598;stroke-width:0.94px;stroke-miterlimit:10" />
  <polygon
     class="cls-7"
     points="468.67,484.66 88.41,484.66 92.6,476.28 464.48,476.28 "
     id="polygon18"
     style="fill:#535556;stroke:#939598;stroke-width:0.58px;stroke-miterlimit:10"
     transform="translate(-44.320894,-78.359999)" />
  <path
     class="cls-8"
     d="M 439.39911,442.92 H 29.679106 l 6.48,-15.4 396.720004,1.72 z"
     id="path20"
     style="fill:#535556;stroke:#939598;stroke-width:0.68px;stroke-miterlimit:10" />
  <path
     class="cls-9"
     d="m 432.75911,423.48 -396.560004,-1.44 6.48,-10.59 383.290004,-1.11 z"
     id="path22"
     style="fill:#535556;stroke:#939598;stroke-width:0.68px;stroke-miterlimit:10" />
  <path
     class="cls-10"
     d="m 446.43911,467 -426.240004,-1.44 7.2,-16.74 411.440004,1.82 q 3.84,8.17 7.6,16.36 z"
     id="path24"
     style="fill:#535556;stroke:#939598;stroke-width:0.82px;stroke-miterlimit:10" />
  <polygon
     class="cls-8"
     points="528.92,505.74 482.84,505.74 479.24,497.51 524.6,497.51 "
     id="polygon26"
     style="fill:#535556;stroke:#939598;stroke-width:0.68px;stroke-miterlimit:10"
     transform="translate(-44.320894,-78.359999)" />
  <polygon
     class="cls-8"
     points="537.56,521.5 488.52,521.5 483.72,511.42 531.56,511.2 "
     id="polygon28"
     style="fill:#535556;stroke:#939598;stroke-width:0.68px;stroke-miterlimit:10"
     transform="translate(-44.320894,-78.359999)" />
  <polygon
     class="cls-8"
     points="543.56,536.27 492.68,536.27 489.32,527.18 539,527.18 "
     id="polygon30"
     style="fill:#535556;stroke:#939598;stroke-width:0.68px;stroke-miterlimit:10"
     transform="translate(-44.320894,-78.359999)" />
  <polygon
     class="cls-8"
     points="521.24,492.48 478.28,492.48 473.72,483.12 516.44,483.36 "
     id="polygon32"
     style="fill:#535556;stroke:#939598;stroke-width:0.68px;stroke-miterlimit:10"
     transform="translate(-44.320894,-78.359999)" />
  <line
     class="cls-11"
     x1="68.419106"
     y1="395.28003"
     x2="48.279106"
     y2="470.04004"
     id="line34"
     style="fill:none;stroke:#3e4144;stroke-miterlimit:10" />
  <line
     class="cls-11"
     x1="91.479111"
     y1="395.64001"
     x2="78.999107"
     y2="470.52002"
     id="line36"
     style="fill:none;stroke:#3e4144;stroke-miterlimit:10" />
  <line
     class="cls-11"
     x1="118.8391"
     y1="397.92001"
     x2="112.59911"
     y2="469.08002"
     id="line38"
     style="fill:none;stroke:#3e4144;stroke-miterlimit:10" />
  <line
     class="cls-11"
     x1="144.27911"
     y1="395.16"
     x2="141.39911"
     y2="471.96002"
     id="line40"
     style="fill:none;stroke:#3e4144;stroke-miterlimit:10" />
  <line
     class="cls-11"
     x1="169.19911"
     y1="395.16"
     x2="168.27911"
     y2="469.56"
     id="line42"
     style="fill:none;stroke:#3e4144;stroke-miterlimit:10" />
  <line
     class="cls-11"
     x1="192.75911"
     y1="395.16"
     x2="193.7191"
     y2="470.04004"
     id="line44"
     style="fill:none;stroke:#3e4144;stroke-miterlimit:10" />
  <line
     class="cls-11"
     x1="219.6391"
     y1="397.92001"
     x2="222.03909"
     y2="471.96002"
     id="line46"
     style="fill:none;stroke:#3e4144;stroke-miterlimit:10" />
  <line
     class="cls-11"
     x1="240.75909"
     y1="394.68002"
     x2="244.11911"
     y2="470.52002"
     id="line48"
     style="fill:none;stroke:#3e4144;stroke-miterlimit:10" />
  <line
     class="cls-11"
     x1="264.5191"
     y1="395.64001"
     x2="269.4191"
     y2="472.44"
     id="line50"
     style="fill:none;stroke:#3e4144;stroke-miterlimit:10" />
  <line
     class="cls-11"
     x1="289.23911"
     y1="395.16"
     x2="295.95911"
     y2="470.52002"
     id="line52"
     style="fill:none;stroke:#3e4144;stroke-miterlimit:10" />
  <line
     class="cls-11"
     x1="312.27911"
     y1="397.92001"
     x2="322.83911"
     y2="471"
     id="line54"
     style="fill:none;stroke:#3e4144;stroke-miterlimit:10" />
  <line
     class="cls-11"
     x1="335.4791"
     y1="395.64001"
     x2="350.67911"
     y2="470.04004"
     id="line56"
     style="fill:none;stroke:#3e4144;stroke-miterlimit:10" />
  <line
     class="cls-11"
     x1="361.71912"
     y1="397.92001"
     x2="377.55911"
     y2="471.48004"
     id="line58"
     style="fill:none;stroke:#3e4144;stroke-miterlimit:10" />
  <line
     class="cls-11"
     x1="381.39911"
     y1="397.92001"
     x2="387.15912"
     y2="427.38"
     id="line60"
     style="fill:none;stroke:#3e4144;stroke-miterlimit:10" />
  <line
     class="cls-11"
     x1="398.67911"
     y1="448.82001"
     x2="404.9191"
     y2="471"
     id="line62"
     style="fill:none;stroke:#3e4144;stroke-miterlimit:10" />
  <line
     class="cls-11"
     x1="441.87912"
     y1="397.92001"
     x2="467.71909"
     y2="467"
     id="line64"
     style="fill:none;stroke:#3e4144;stroke-miterlimit:10" />
  <line
     class="cls-11"
     x1="457.75909"
     y1="397.92001"
     x2="488.5491"
     y2="467"
     id="line66"
     style="fill:none;stroke:#3e4144;stroke-miterlimit:10" />
</svg>
