<?xml version="1.0" encoding="UTF-8" standalone="no"?>
<!-- Created with Inkscape (http://www.inkscape.org/) -->

<svg
   width="34.43515mm"
   height="56.511402mm"
   viewBox="0 0 34.43515 56.511402"
   version="1.1"
   id="svg3932"
   inkscape:version="1.1.1 (3bf5ae0d25, 2021-09-20)"
   sodipodi:docname="stopwatch_resetter.svg"
   xmlns:inkscape="http://www.inkscape.org/namespaces/inkscape"
   xmlns:sodipodi="http://sodipodi.sourceforge.net/DTD/sodipodi-0.dtd"
   xmlns="http://www.w3.org/2000/svg"
   xmlns:svg="http://www.w3.org/2000/svg">
  <sodipodi:namedview
     id="namedview3934"
     pagecolor="#ffffff"
     bordercolor="#666666"
     borderopacity="1.0"
     inkscape:pageshadow="2"
     inkscape:pageopacity="0.0"
     inkscape:pagecheckerboard="0"
     inkscape:document-units="mm"
     showgrid="false"
     fit-margin-top="0"
     fit-margin-left="0"
     fit-margin-right="0"
     fit-margin-bottom="0"
     inkscape:zoom="0.73406285"
     inkscape:cx="140.31496"
     inkscape:cy="219.32727"
     inkscape:window-width="1023"
     inkscape:window-height="1000"
     inkscape:window-x="633"
     inkscape:window-y="0"
     inkscape:window-maximized="0"
     inkscape:current-layer="layer1" />
  <defs
     id="defs3929" />
  <g
     inkscape:label="Layer 1"
     inkscape:groupmode="layer"
     id="layer1"
     transform="translate(-55.562844,-90.35479)">
    <path
       style="fill:#000000;stroke-width:1"
       d="m 60.268272,136.85213 -0.06927,-10.09644 -1.798309,-0.0785 c -3.09168,-0.13498 -2.816683,1.6534 -2.828049,-18.39166 l -0.0098,-17.293207 0.676886,-0.308412 c 0.96125,-0.437972 32.089924,-0.43925 33.050994,-0.0013 l 0.67391,0.307051 v 16.176488 c 0,12.57477 -0.0736,16.25582 -0.33073,16.5328 -0.26458,0.28506 -0.26458,0.31898 0,0.1696 0.59632,-0.33667 0.41133,1.77456 -0.20146,2.29925 -0.62926,0.53878 -2.51627,0.64486 -2.22273,0.12494 0.14937,-0.26458 0.11545,-0.26458 -0.1696,0 -0.19597,0.18191 -0.68014,0.33073 -1.07593,0.33073 -0.63727,0 -0.7186,0.0984 -0.71085,0.8599 0.005,0.47294 -0.005,5.0457 -0.0212,10.16169 -0.0281,8.70916 -0.0595,9.29582 -0.493,9.20804 -0.25466,-0.0516 -1.63484,-0.154 -3.06706,-0.22763 -1.54744,-0.0796 -2.77581,-0.27302 -3.02736,-0.47679 -0.31838,-0.25792 -0.37405,-0.26094 -0.22461,-0.0122 0.15398,0.25629 -0.43334,0.33073 -2.60939,0.33073 h -2.80809 l 0.0298,-2.84427 c 0.0164,-1.56435 0.0229,-6.0292 0.0143,-9.92188 l -0.0154,-7.07765 h -5.159405 -5.159375 v 10.05415 10.05416 l -0.727604,0.0202 c -0.400182,0.0111 -0.934559,0.0599 -1.187503,0.10843 -0.42935,0.0823 -0.464502,-0.58254 -0.529167,-10.00827 z m -1.754745,-10.84884 c -0.208884,-0.25169 -0.314945,-5.44227 -0.363128,-17.77121 -0.05334,-13.648598 -0.139599,-17.439511 -0.39879,-17.525892 -0.262308,-0.08742 -0.33073,3.428042 -0.33073,16.993072 0,10.15867 -0.09738,17.0431 -0.239842,16.95506 -0.131916,-0.0815 -0.107709,0.13176 0.05379,0.47397 0.161496,0.34221 0.537316,0.74446 0.835155,0.89388 0.758079,0.38032 0.774279,0.37963 0.443545,-0.0189 z M 60.267039,108.301 c -0.05967,-15.374389 -0.116811,-17.528642 -0.46491,-17.528642 -0.348003,0 -0.405315,2.117735 -0.465425,17.197922 -0.0377,9.45885 -0.01167,17.34674 0.05784,17.52864 0.06952,0.1819 0.309576,0.33073 0.533461,0.33073 0.362958,0 0.399695,-1.89947 0.339034,-17.52865 z m 2.180924,-0.0662 c 0,-15.463421 -0.04808,-17.594788 -0.396875,-17.594788 -0.3488,0 -0.396875,2.131367 -0.396875,17.594788 0,15.46343 0.04808,17.5948 0.396875,17.5948 0.3488,0 0.396875,-2.13137 0.396875,-17.5948 z m 1.962735,17.4342 c 0.375718,-0.14418 0.418515,-1.92701 0.418515,-17.4342 0,-14.574964 -0.05796,-17.295833 -0.371007,-17.415959 -0.204054,-0.0783 -0.442179,-0.0712 -0.529167,0.0158 -0.175844,0.175839 -0.223115,34.994959 -0.04751,34.994959 0.06086,0 0.298984,-0.0723 0.529167,-0.1606 z m 2.270598,-17.4342 c 0,-9.677132 -0.06803,-17.594788 -0.151191,-17.594788 -0.08315,0 -0.337439,0.186248 -0.565073,0.413885 -0.308896,0.308893 -0.337659,0.490109 -0.113392,0.714375 0.371062,0.371062 0.396337,1.25299 0.03591,1.25299 -0.173516,0 -0.264583,5.592998 -0.264583,16.249828 0,16.38751 0.0031,16.44743 0.859896,16.53762 0.10914,0.0115 0.198437,-7.89677 0.198437,-17.57391 z m 2.24896,0 c 0,-16.413688 -0.0276,-17.46057 -0.463022,-17.544419 -0.437232,-0.0842 -0.463021,0.892945 -0.463021,17.544419 0,16.65148 0.0258,17.62863 0.463021,17.54443 0.435392,-0.0838 0.463022,-1.13073 0.463022,-17.54443 z m 2.24896,0.1606 c 0,-14.712743 -0.0579,-17.456414 -0.37101,-17.576559 -0.20405,-0.0783 -0.44218,-0.0712 -0.52917,0.0158 -0.087,0.08698 -0.15816,7.996433 -0.15816,17.576559 0,17.24201 0.005,17.4184 0.52917,17.4184 0.52381,0 0.52917,-0.17639 0.52917,-17.43419 z m 1.85208,-0.1606 c 0,-11.553469 -0.0909,-17.594788 -0.26458,-17.594788 -0.17374,0 -0.26459,6.041319 -0.26459,17.594788 0,11.55348 0.0909,17.5948 0.26459,17.5948 0.17373,0 0.26458,-6.04132 0.26458,-17.5948 z m 2.38125,0.17639 c 0,-9.58012 -0.0712,-17.489572 -0.15816,-17.576559 -0.087,-0.08699 -0.32511,-0.09409 -0.52917,-0.01579 -0.31309,0.12015 -0.371,2.863821 -0.371,17.576569 0,17.2578 0.005,17.43419 0.52916,17.43419 0.52381,0 0.52917,-0.17639 0.52917,-17.4184 z m 2.11667,-0.17639 c 0,-14.862822 -0.0572,-17.594788 -0.36857,-17.594788 -0.20271,0 -0.43906,0.1837 -0.52522,0.408223 -0.21486,0.559919 -0.19942,34.393705 0.0158,34.608925 0.0948,0.0948 0.33119,0.17244 0.52521,0.17244 0.29045,0 0.35278,-3.10886 0.35278,-17.5948 z m 1.85208,17.3146 c 0,-0.15411 0.11487,-0.2092 0.25528,-0.12243 0.35451,0.2191 0.34406,-33.632298 -0.0106,-34.294968 -0.14483,-0.270595 -0.37819,-0.49199 -0.51859,-0.49199 -0.16142,0 -0.25527,6.46907 -0.25527,17.594788 0,11.55348 0.0909,17.5948 0.26458,17.5948 0.14552,0 0.26458,-0.12609 0.26458,-0.2802 z m 2.38125,-17.13821 c 0,-9.58012 -0.0712,-17.489572 -0.15816,-17.576559 -0.087,-0.08699 -0.32511,-0.09409 -0.52917,-0.01579 -0.31304,0.120131 -0.371,2.838757 -0.371,17.400179 0,9.49179 0.0794,17.33718 0.17639,17.43419 0.097,0.097 0.33513,0.17639 0.52916,0.17639 0.29041,0 0.35278,-3.07946 0.35278,-17.4184 z m 2.11667,-0.17639 c 0,-15.463421 -0.0481,-17.594788 -0.39688,-17.594788 -0.3488,0 -0.39687,2.131367 -0.39687,17.594788 0,15.46343 0.0481,17.5948 0.39687,17.5948 0.3488,0 0.39688,-2.13137 0.39688,-17.5948 z m 2.24896,-0.004 c 0,-15.342607 -0.0481,-17.458871 -0.39688,-17.458871 -0.3481,0 -0.40524,2.156452 -0.46492,17.548411 -0.0644,16.61836 -0.0434,17.54367 0.39688,17.45888 0.4379,-0.0843 0.46492,-1.10416 0.46492,-17.54842 z m 2.50196,16.72389 c 0.58152,-0.75635 0.58868,-0.79243 0.0681,-0.34299 l -0.58179,0.50227 -0.0681,-17.10492 c -0.0447,-11.237144 -0.15886,-17.082211 -0.33268,-17.038729 -0.26436,0.06613 -0.52983,33.831039 -0.27147,34.528169 0.18883,0.5095 0.47807,0.37687 1.18594,-0.5438 z"
       id="path2101"
       sodipodi:nodetypes="sccsscsccscsssssccssssscsccccccsssssssssssssssssssssssssssssssssssssssssssssssssssssssssscsssssssscssssssssssscssssssssssssscssssccss" />
  </g>
</svg>
