<?xml version="1.0" encoding="UTF-8" standalone="no"?>
<!-- Created with Inkscape (http://www.inkscape.org/) -->

<svg
   width="6.8634887mm"
   height="123.12579mm"
   viewBox="0 0 6.8634887 123.12579"
   version="1.1"
   id="svg4258"
   inkscape:version="1.1.1 (3bf5ae0d25, 2021-09-20)"
   sodipodi:docname="stopwatch_arow.svg"
   xmlns:inkscape="http://www.inkscape.org/namespaces/inkscape"
   xmlns:sodipodi="http://sodipodi.sourceforge.net/DTD/sodipodi-0.dtd"
   xmlns="http://www.w3.org/2000/svg"
   xmlns:svg="http://www.w3.org/2000/svg">
  <sodipodi:namedview
     id="namedview4260"
     pagecolor="#ffffff"
     bordercolor="#666666"
     borderopacity="1.0"
     inkscape:pageshadow="2"
     inkscape:pageopacity="0.0"
     inkscape:pagecheckerboard="0"
     inkscape:document-units="mm"
     showgrid="false"
     fit-margin-top="0"
     fit-margin-left="0"
     fit-margin-right="0"
     fit-margin-bottom="0"
     inkscape:zoom="0.73406285"
     inkscape:cx="-80.374589"
     inkscape:cy="-42.230716"
     inkscape:window-width="1023"
     inkscape:window-height="1000"
     inkscape:window-x="888"
     inkscape:window-y="0"
     inkscape:window-maximized="0"
     inkscape:current-layer="layer1" />
  <defs
     id="defs4255" />
  <g
     inkscape:label="Layer 1"
     inkscape:groupmode="layer"
     id="layer1"
     transform="translate(-91.136874,-20.835965)">
    <path
       style="fill:#ff5555;stroke-width:1"
       d="m 94.45593,143.9612 -1.711983,-0.0112 0.04686,-5.38052 c 0.02577,-2.95928 0.09208,-5.42494 0.147367,-5.47924 0.127942,-0.12568 0.141922,-1.19006 0.01586,-1.20768 -0.05198,-0.007 -0.108085,-0.48312 -0.124771,-1.05746 -0.01669,-0.57436 0.03649,-0.97623 0.118173,-0.89308 0.08168,0.0832 0.167178,-0.16561 0.189945,-0.55286 0.02278,-0.38723 -0.07633,-0.73297 -0.220267,-0.76831 -0.143919,-0.0353 -0.175323,-0.14909 -0.06975,-0.2528 0.28902,-0.2839 0.328122,-3.10225 0.04701,-3.38844 -0.134755,-0.13719 -0.139112,-0.24851 -0.0097,-0.24734 0.129394,8.1e-4 0.254521,-1.42738 0.27801,-3.17453 l 0.04271,-3.17664 -1.02521,-1.10792 c -0.630784,-0.6817 -0.964767,-1.22614 -0.868144,-1.41514 0.08638,-0.16893 0.04173,-0.57018 -0.09917,-0.89165 -0.270386,-0.6168 0.179126,-1.48726 1.374267,-2.66121 0.537427,-0.5279 0.670168,-1.01697 0.720619,-2.65495 0.03402,-1.10431 0.04828,-2.387 0.03169,-2.85041 -0.110259,-3.08091 0.106451,-11.285834 0.303187,-11.479082 0.131544,-0.129212 0.139499,-0.679426 0.01769,-1.222711 -0.121817,-0.543293 -0.165922,-1.292706 -0.09801,-1.66538 0.0679,-0.372683 0.20058,-8.680807 0.294832,-18.462506 0.09426,-9.781705 0.223596,-17.794497 0.28742,-17.806195 0.06381,-0.01166 0.05485,-0.06831 -0.01992,-0.125744 -0.0748,-0.05745 -0.03674,-0.528466 0.08453,-1.046652 0.121276,-0.518172 0.103537,-1.061205 -0.03941,-1.206732 -0.142947,-0.145527 -0.178339,-0.344726 -0.07863,-0.442662 0.195771,-0.192302 0.386458,-24.015525 0.327161,-27.622013 0.10346,-6.834906 -0.260187,-6.347937 0.469866,0.621849 -0.134049,0.363379 0.01515,1.064997 0.03073,1.606341 0.01558,0.541424 0.02936,0.98154 0.02867,1.07542 -0.01439,1.979073 -0.08849,3.036799 -0.0199,4.629556 0.01998,0.46401 0.0167,1.650017 -0.0073,2.635569 -0.04712,1.935651 -0.01173,2.768335 0.123618,2.906094 0.04729,0.04815 0.08438,2.422113 0.08245,5.275519 -0.0074,10.922357 0.04998,17.135893 0.159201,17.247084 0.06237,0.06349 0.08204,2.035656 0.04363,4.382506 -0.0384,2.34685 -0.04282,4.240476 -0.0098,4.208052 0.05579,-0.05481 0.111186,1.780967 0.173926,5.763171 0.01424,0.903925 0.0013,2.023007 -0.02858,2.486838 -0.07293,1.128876 0.0303,3.816347 0.14237,3.706273 0.0964,-0.0947 0.01739,10.589254 -0.08533,11.539412 -0.05383,0.497921 -0.166555,0.583897 -0.832141,0.634614 -0.705062,0.05374 -0.689975,0.06436 0.179091,0.126241 l 0.948994,0.06754 -0.06612,5.089297 c -0.03636,2.799111 -0.01764,5.041681 0.04161,4.983491 0.05928,-0.0582 0.101151,1.50895 0.09312,3.48254 -0.01438,3.53554 -0.0015,3.60175 0.878373,4.49746 0.491132,0.49998 1.009866,1.23039 1.152745,1.62311 0.305868,0.84075 -0.269171,2.3783 -1.167068,3.12052 -0.517518,0.42775 -0.648494,0.87863 -0.708042,2.43701 -0.04019,1.05166 -0.05728,2.29118 -0.03799,2.75448 0.01929,0.46329 0.0367,1.73603 0.03871,2.8283 0.002,1.09227 0.04388,2.02691 0.09305,2.07697 0.04919,0.0501 0.06409,2.79279 0.03312,6.09489 -0.03099,3.30212 0.0032,5.94529 0.07613,5.87373 0.07286,-0.0715 0.11867,0.88481 0.101799,2.12526 -0.01686,1.24046 -0.06422,2.2794 -0.10523,2.30878 -0.04113,0.0292 -0.844959,0.0486 -1.786557,0.0426 z"
       id="path2101-3-1"
       sodipodi:nodetypes="ccssssssssssscsssssssssssssssccssssssssssssssscsssssssssssssccc" />
  </g>
</svg>
