<?xml version="1.0" encoding="UTF-8" standalone="no"?>
<!-- Created with Inkscape (http://www.inkscape.org/) -->

<svg
   width="210mm"
   height="297mm"
   viewBox="0 0 210 297"
   version="1.1"
   id="svg5"
   inkscape:version="1.1.1 (c3084ef, 2021-09-22)"
   sodipodi:docname="path_1.svg"
   xmlns:inkscape="http://www.inkscape.org/namespaces/inkscape"
   xmlns:sodipodi="http://sodipodi.sourceforge.net/DTD/sodipodi-0.dtd"
   xmlns="http://www.w3.org/2000/svg"
   xmlns:svg="http://www.w3.org/2000/svg">
  <sodipodi:namedview
     id="namedview7"
     pagecolor="#505050"
     bordercolor="#eeeeee"
     borderopacity="1"
     inkscape:pageshadow="0"
     inkscape:pageopacity="0"
     inkscape:pagecheckerboard="0"
     inkscape:document-units="mm"
     showgrid="false"
     inkscape:zoom="0.39622217"
     inkscape:cx="396.24234"
     inkscape:cy="593.10159"
     inkscape:window-width="1312"
     inkscape:window-height="842"
     inkscape:window-x="0"
     inkscape:window-y="38"
     inkscape:window-maximized="0"
     inkscape:current-layer="layer1" />
  <defs
     id="defs2" />
  <g
     inkscape:label="Layer 1"
     inkscape:groupmode="layer"
     id="layer1">
    <path
       style="fill:none;stroke:#000000;stroke-width:0.496043px;stroke-linecap:butt;stroke-linejoin:miter;stroke-opacity:1"
       d="m 41.920291,141.239 c 0,0 1.370177,-8.87599 4.3267,-20.60296 1.39504,-5.53339 3.104217,-11.94639 5.113384,-18.8371 1.829973,-6.276141 3.908811,-12.948593 6.225828,-19.713699 2.770678,-8.089679 5.881933,-16.311832 9.31549,-24.147262 2.975181,-6.789399 6.192353,-13.288424 9.639628,-19.159275 4.446988,-7.573399 9.27689,-14.101452 14.464181,-18.858999 6.841564,-6.274771 14.304818,-9.469714 22.331198,-7.921129 5.52872,1.066692 11.32462,4.384043 17.36857,10.495785 5.16282,5.220728 10.50664,12.480469 16.01952,22.118131 4.75615,8.314717 9.63812,18.399336 14.63828,30.471492 3.21586,7.764211 6.48062,16.350565 9.79221,25.816936 2.06115,5.89193 4.14045,12.12478 6.23742,18.71249 2.06674,6.49277 4.32602,14.43003 6.42659,21.62559 v 0 c 0.99892,-0.49945 -73.80929,-289.83326 -141.563311,0.004 z"
       id="path876"
       sodipodi:nodetypes="csssssssssssscccc" />
  </g>
</svg>
