<?xml version="1.0" encoding="UTF-8" standalone="no"?>
<svg
   viewBox="0 0 261.45946 798.91352"
   version="1.1"
   id="svg124"
   sodipodi:docname="schoolboy_2.svg"
   width="261.45947"
   height="798.91351"
   inkscape:version="1.2.2 (b0a8486541, 2022-12-01)"
   xmlns:inkscape="http://www.inkscape.org/namespaces/inkscape"
   xmlns:sodipodi="http://sodipodi.sourceforge.net/DTD/sodipodi-0.dtd"
   xmlns="http://www.w3.org/2000/svg"
   xmlns:svg="http://www.w3.org/2000/svg">
  <sodipodi:namedview
     id="namedview126"
     pagecolor="#ffffff"
     bordercolor="#000000"
     borderopacity="0.25"
     inkscape:showpageshadow="2"
     inkscape:pageopacity="0.0"
     inkscape:pagecheckerboard="0"
     inkscape:deskcolor="#d1d1d1"
     showgrid="false"
     inkscape:zoom="0.90264555"
     inkscape:cx="104.69226"
     inkscape:cy="519.5838"
     inkscape:window-width="1920"
     inkscape:window-height="1011"
     inkscape:window-x="0"
     inkscape:window-y="32"
     inkscape:window-maximized="1"
     inkscape:current-layer="svg124" />
  <defs
     id="defs4">
    <style
       id="style2">.a{fill:#fff4c0;}.a,.p,.q,.s{stroke:#c1986c;}.a,.aa,.ab,.ad,.ae,.b,.c,.d,.e,.i,.k,.l,.m,.n,.o,.p,.q,.r,.s,.t,.v,.w,.x,.y,.z{stroke-miterlimit:10;}.ab,.b,.i,.m,.r,.y{fill:none;}.b,.c,.d,.e{stroke:#463416;}.c{fill:#71481e;}.d{fill:#7f4817;}.e{fill:#894915;}.f,.l{fill:#fff;}.g{fill:#5f3a16;}.h{fill:#513405;}.i,.k,.l{stroke:#69441a;}.j{fill:#69441a;}.k{fill:#75200c;}.m{stroke:#603913;stroke-width:0.75px;}.n{fill:#ffa300;}.n,.o{stroke:#9fd4ad;}.o{fill:#f7b64d;}.p{fill:#6d9b15;}.q{fill:#b76c13;}.r{stroke:#f7ec32;}.s{fill:#5e8e11;}.t{fill:#f6c17a;stroke:#faaf41;}.u{fill:#af20d1;}.v{fill:#6a7383;}.v,.w,.x{stroke:#1e75bb;}.w{fill:#8692a3;}.x{fill:#717f96;}.y{stroke:#f15a29;}.z{fill:#8bfc7c;}.aa,.ab,.z{stroke:#a7a8ab;}.aa{fill:#b5f4d4;}.ac{fill:#1e75bb;}.ad{fill:#8a5f3c;stroke:#221f1f;}.ae{fill:#c1b59a;stroke:#a87c51;}</style>
  </defs>
  <path
     class="a"
     d="m 87.677309,251.66889 c -6.29,15 -12.33,13.65 -15.48,23.93 -7,22.81 11.9,64.65 39.800001,64.91 26.18,0.3 47.29,-36.05 42,-57 -2.64,-10.21 -9.41,-8.85 -15.09,-22.72 0,0 -4.19,-10.32 -1.5,-51.37 l -43.110001,-4.55 c 0,0 2.18,25.79 -6.62,46.8 z"
     id="path6"
     style="fill:#fff4c0;stroke:#c1986c;stroke-miterlimit:10" />
  <path
     class="a"
     d="m 24.567309,155.14889 a 11.58,11.58 0 0 0 5,0.6 c 7.73,-0.75 13.56,-9.59 13.85,-9.88 v 0 l 1,7 c 0.36,2.58 3.4,18.67 15.12,35.28 a 95.05,95.05 0 0 0 40.21,32.22 c 9.190001,4 18.170001,7.8 29.870001,6.42 10.29,-1.21 17.26,-5.76 24.24,-10.32 6,-3.91 21.07,-14 30.72,-33.6 0.59,-1.2 11.79,-24.35 8.88,-41.28 a 35.58,35.58 0 0 1 -0.15,-13.19 35,35 0 0 1 4.71,-12 c -2,-2.85 -2.08,-4.51 -1.68,-5.52 a 6.18,6.18 0 0 0 0.91,-3 6.75,6.75 0 0 0 -0.28,-1.54 c -0.21,-1 -0.4,-2 -0.63,-2.95 a 49.18,49.18 0 0 1 -0.9,-6 16.05,16.05 0 0 0 0.38,-5.39 10.51,10.51 0 0 0 -0.66,-2.36 c -9.06,-23.61 -48,-49.42 -95.430001,-47.33 -41.83,1.85 -80.9,25 -82,45.31 -0.74,13.25 14.79,23.3 6.43,37.78 -3.08,5.33 -8.56,9.81 -7.83,17.5 0,1.1 0.84,9.35 8.24,12.25 z"
     id="path8"
     style="fill:#fff4c0;stroke:#c1986c;stroke-miterlimit:10" />
  <path
     class="b"
     d="m 132.45731,142.89889 c 7.46,1.25 11.85,7.24 11,12.08 -0.77,4.42 -5.68,6.67 -6.25,6.92 a 15.63,15.63 0 0 1 -8.56,0.14 15.08,15.08 0 0 1 -4.22,-1.9"
     id="path10"
     style="fill:none;stroke:#463416;stroke-miterlimit:10" />
  <path
     class="c"
     d="m 154.40731,94.14889 a 30.8,30.8 0 0 1 29.69,15.94 l 0.75,0.72 c -0.09,-0.88 -1.4,-11.36 -11.27,-17.06 a 23.64,23.64 0 0 0 -16.7,-2.55 z"
     id="path12"
     style="fill:#71481e;stroke:#463416;stroke-miterlimit:10" />
  <path
     class="c"
     d="m 66.267309,115.28889 c 1,-3.38 3.79,-11.28 11.12,-16 7.84,-5 16.22,-3.39 19.41,-2.58 l -3.23,-5.67 c -3.13,-0.35 -12.53,-0.88 -19.81,7.07 -5.29,5.81 -6.92,13.4 -7.49,17.18 z"
     id="path14"
     style="fill:#71481e;stroke:#463416;stroke-miterlimit:10" />
  <path
     class="d"
     d="m 100.47731,41.36889 c 3.36,1.88 5.38,1.12 14.53,1.82 0.84,0.06 1.73,0.14 2.68,0.23 0.95,0.09 2.07,0.18 3.13,0.32 1.06,0.14 2.14,0.34 3.23,0.54 7.54,4.31 16.67,5.06 24.27,8.43 a 30.25,30.25 0 0 1 3.15,1.63 c 9.35,10.47 17.35,19.32 31.35,21.53 1,1.11 1,3.32 1.86,4.14 0.45,1.28 0.91,2.57 1.36,3.89 a 83.06,83.06 0 0 0 1.89,9.42 c 0.4,1.53 0.84,3 1.31,4.54 3.58,6.77 4.58,15.61 8.58,22.25 10,-8.85 9,-26.54 11.87,-40 -0.21,-1.64 -0.48,-3.28 -0.8,-4.89 -3,-6.32 -5.05,-13.34 -7.29,-20.18 -0.45,-1.36 -0.9,-2.72 -1.38,-4.06 -4.4,-16 -20.4,-20.46 -33.74,-23.7 -1.16,-0.74 -2.3,-1.51 -3.45,-2.29 -4.57,-3.13 -9.07,-6.54 -13.65,-10.17 -1.16,-0.87 -2.33,-1.68 -3.52,-2.43 -10.64,-6.7999996 -22.41,-9.2099996 -34.74,-6.4499996 -1.6,0 -3.14,0 -4.62,0.13 -5.93,0.47 -10.870001,2.22 -13.740001,5.9199996 -5.99,7.7 -1.32,24.25 7.720001,29.38 z"
     id="path16"
     style="fill:#7f4817;stroke:#463416;stroke-miterlimit:10" />
  <path
     class="e"
     d="m 143.31731,18.87889 c 4.5,1.42 9.5,1.42 12.25,6 a 31.64,31.64 0 0 1 2.43,4 c 0.61,1.16 1.17,2.34 1.7,3.56 2.58,6.27 4.72,13 5.23,19.8 a 40.41,40.41 0 0 1 0.09,4.12 c 0.8,20.5 -21.2,15 -31.6,24.92 -1.23,0.66 -2.45,1.29 -3.66,1.93 -1.21,0.64 -2.54,1.11 -3.65,1.55 -3.32,1.34 -5.47,2 -5.48,2 a 31.63,31.63 0 0 0 3.88,-3 20.48,20.48 0 0 0 2.81,-2.87 16.34,16.34 0 0 0 2,-3.09 c 2.54,-6.55 -0.46,-17.65 -7.09,-19.26 a 8.54,8.54 0 0 0 -3.68,-0.15 10.93,10.93 0 0 0 -4,1.69 l -3.78,1.18 c -8.74,2.73 -17.070001,5.22 -26.870001,4.44 -1.5,0 -2.75,1.11 -4.15,2.26 -16.85,1.07 -16.85,24.36 -29.51,33.38 -1,0.85 -2,1.7 -2.94,2.54 -2,1.67 -4,3.32 -6.15,5 -0.66,1.39 -1.3,2.8 -1.89,4.23 a 89,89 0 0 0 -6.56,27 58,58 0 0 1 -9.08,-6.36 c -0.7,-0.6 -1.39,-1.22 -2.06,-1.85 -9.18,-6.39 -16.6600001,-15.39 -19.9900001,-26.55 a 43.33,43.33 0 0 1 -1.06000005,-4.29 c 2.33000005,-15.31 3.33000005,-29.73 8.00000005,-44.5 0.6,-1.19 1.21,-2.37 1.8300001,-3.55 a 38.13,38.13 0 0 1 2.14,-3.88 23.54,23.54 0 0 1 9.1,-8.68 c 1.35,-0.6 2.71,-1.15 4,-1.71 6.6,-2.79 12.38,-5.82 14.25,-16.22 1,-3.33 3,-4.44 6.17,-4.79 q 2.07,-0.48 4.11,-1 a 102.31,102.31 0 0 0 30.4,-12.8299996 c 1.31,-0.48 2.62,-0.91 3.93,-1.31 9.16,-2.75999997 18.180001,-3.37999997 27.000001,1.8 a 22.54,22.54 0 0 1 4.1,0 c 9.07,0.85 15.47,9.8299996 23.78,13.6999996 1.33,0.27 2.67,0.54 4,0.79 z"
     id="path18"
     style="fill:#894915;stroke:#463416;stroke-miterlimit:10" />
  <path
     class="f"
     d="m 136.03731,128.56889 c 0,8.06 9.41,13.64 17.41,14.58 11.44,1.36 24.4,-6.27 24.15,-15 -0.24,-8.55 -13,-15.52 -24.15,-14.14 -7.96,0.97 -17.4,6.5 -17.41,14.56 z"
     id="path20"
     style="fill:#ffffff" />
  <ellipse
     class="g"
     cx="155.7473"
     cy="124.86889"
     rx="12.2"
     ry="11.86"
     id="ellipse22"
     style="fill:#5f3a16" />
  <path
     class="h"
     d="m 136.56731,126.39889 a 20.43,20.43 0 0 1 4.22,-6.62 c 6.28,-6.3 17.76,-6.7 25.86,-2.76 a 18.82,18.82 0 0 1 7.91,6.62 21,21 0 0 1 2.93,9.2 c 0.16,0 0.68,-6.4 -3.12,-11.73 a 17.51,17.51 0 0 0 -7.83,-5.88 c -7.44,-3.25 -18,-3.19 -24.44,2.65 a 21.81,21.81 0 0 0 -5.53,8.52 z"
     id="path24"
     style="fill:#513405" />
  <path
     class="i"
     d="m 156.49731,167.29889 a 17.25,17.25 0 0 1 5.16,3.85 c 0.82,1 0.63,2.18 1,3.37"
     id="path26"
     style="fill:none;stroke:#69441a;stroke-miterlimit:10" />
  <path
     class="i"
     d="m 94.147309,167.14889 a 13.43,13.43 0 0 0 -2.5,1.59 7.22,7.22 0 0 0 -2.05,5.19"
     id="path28"
     style="fill:none;stroke:#69441a;stroke-miterlimit:10" />
  <path
     class="j"
     d="m 138.50731,210.37889 a 110.49,110.49 0 0 0 -19.57,-0.52 33.4,33.4 0 0 1 19.57,0.52 z"
     id="path30"
     style="fill:#69441a" />
  <path
     class="k"
     d="m 104.76731,180.38889 a 29.45,29.45 0 0 0 8.76,4.51 44.36,44.36 0 0 0 15.62,1.25 c 10.12,-0.62 16.73,-2.66 24.68,-8.2 2.38,-1.66 3.1,-4.46 5,-6.46 0.32,-0.36 0.48,-0.29 0.73,-0.55 a 40.25,40.25 0 0 1 -5.7,12 c -2.18,3.12 -6.26,9 -13.95,12.45 a 31.19,31.19 0 0 1 -20.16,1.43 c -18.33,-4.72 -24.630001,-25.11 -25.000001,-26.43 l 0.08,-0.07 -0.08,0.07 c -0.18,0.12 3.08,5.34 10.020001,10 z"
     id="path32"
     style="fill:#75200c;stroke:#69441a;stroke-miterlimit:10" />
  <path
     class="l"
     d="m 119.95731,187.94889 a 40.41,40.41 0 0 1 -18.72,-9.6 37.35,37.35 0 0 1 -6.310001,-7.82 86,86 0 0 0 25.810001,8.17 58.52,58.52 0 0 0 11.76,0.81 55,55 0 0 0 26.44,-8.26 28.84,28.84 0 0 1 -3.85,6.21 30.32,30.32 0 0 1 -11.42,8.56 c -10.33,4.69 -20.22,2.68 -23.71,1.93 z"
     id="path34"
     style="fill:#ffffff;stroke:#69441a;stroke-miterlimit:10" />
  <path
     class="m"
     d="m 130.13731,180.08889 c 0.07,3.2 0.13,6.4 0.14,9.6"
     id="path36"
     style="fill:none;stroke:#603913;stroke-width:0.75px;stroke-miterlimit:10" />
  <path
     class="n"
     d="m 79.907309,501.10889 c 5.14,-22.77 8.64,-55.34 -3.13,-90 -3.87,-11.4 -8.3,-17.69 -10.54,-24.12 -17.46,-50.2 -6.69,-99.56 2.5,-128 -10.17,4.47 -20.68,9.58 -31.41,15.45 q -4.41,2.4 -8.62,4.85 -1.48,30.14 -2.45,61.3 -0.84,28 -1.2,55.2 c 0,0.11 2.44,19.35 -0.07,32.73 -0.55,2.94 -1.33,6.12 -2.33,12.39 -1.13,7.19 -2.12,18 -2.39,20.78 a 191.86,191.86 0 0 1 -3.16,20.73 l 38.19,23.29 z"
     id="path38"
     style="fill:#ffa300;stroke:#9fd4ad;stroke-miterlimit:10" />
  <path
     class="o"
     d="m 17.107309,482.41889 20.9,12 v 0 c 0,0 2,-60.94 2.7,-102 0.47,-27.86 0.72,-68.75 -0.64,-119.5 l -11.36,6.4 c -0.19,6.21 -0.51,15.58 -1,27 -2.06,47.94 -3.62,50.23 -4.56,79.44 -1.08,34.07 0.7,42.51 -2.4,70.56 -1.18,10.87 -2.6,19.9 -3.64,26.1 z"
     id="path40"
     style="fill:#f7b64d;stroke:#9fd4ad;stroke-miterlimit:10" />
  <path
     class="f"
     d="m 114.82731,127.28889 c 0,8.06 -9.41,13.64 -17.400001,14.59 -11.44,1.35 -24.41,-6.27 -24.16,-15 0.25,-8.54 13,-15.52 24.16,-14.14 7.950001,0.96 17.400001,6.48 17.400001,14.55 z"
     id="path42"
     style="fill:#ffffff" />
  <ellipse
     class="g"
     cx="93.287308"
     cy="124.36889"
     rx="12.2"
     ry="11.86"
     id="ellipse44"
     style="fill:#5f3a16" />
  <path
     class="h"
     d="m 114.27731,125.11889 a 20.47,20.47 0 0 0 -4.23,-6.61 c -6.27,-6.31 -17.750001,-6.71 -25.860001,-2.76 a 18.83,18.83 0 0 0 -7.91,6.61 21.09,21.09 0 0 0 -2.92,9.2 c -0.16,0 -0.69,-6.4 3.12,-11.73 a 17.49,17.49 0 0 1 7.82,-5.88 c 7.45,-3.24 18.000001,-3.19 24.450001,2.65 a 22,22 0 0 1 5.53,8.52 z"
     id="path46"
     style="fill:#513405" />
  <path
     class="p"
     d="m 208.08731,777.70889 a 37.84,37.84 0 0 0 -0.17,-11.4 35,35 0 0 0 -1.85,-6.74 c -0.93,-2.38 -7.09,-17.51 -20.34,-21.65 a 27.07,27.07 0 0 0 -20.33,3.2 c -0.82,0.49 -7,4.37 -7,4.37 v 0 c 0,0 -23.68,-10 -23.07,-14.67 0.22,-1.64 3.27,-1.34 3.55,-3.44 0.28,-2.1 -3.38,-3.37 -8.41,-10.07 a 40,40 0 0 0 -5.45,-5.95 c -5.83,-4.65 -15.21,-7.63 -21.52,-2 -2.17,2 -3.21,4.3 -4.850001,7.93 -2.46,5.46 -2.86,9.32 -4.58,18.89 -2.85,15.89 -3.45,14.66 -3.61,19.58 -0.22,6.72 -0.49,15.17 3.54,19.83 3.12,3.68 9.210001,3.3 21.400001,2.74 a 59.08,59.08 0 0 1 8.62,-0.15 50.39,50.39 0 0 1 11.07,2 c 4.97,1.44 22.17,1.77 73,-2.47 z"
     id="path48"
     style="fill:#6d9b15;stroke:#c1986c;stroke-miterlimit:10" />
  <path
     class="q"
     d="m 94.227309,775.10889 c 0,0 0.41,1.4 0.7,2.29 0.22,0.68 0.55,1.64 1,2.81 1.25,0.32 2.87,0.67 4.770001,1 2.1,0.34 4,0.54 6.53,0.71 0,0 4.25,0.3 14,0.43 a 4.49,4.49 0 0 1 1.78,-4.81 3.87,3.87 0 0 1 2.24,-0.42 c 2.08,0.24 3.89,2.21 4.64,4.95 0,0 35.49,1.44 55.13,-0.15 3.81,-0.3 7.2,-0.74 13.41,-1.27 1.86,-0.15 5.63,-0.46 10.62,-1.27 v 0 c 0.19,-0.89 0.74,-3.37 -0.44,-4.45 a 2.44,2.44 0 0 0 -1.57,-0.57 c -8.22,1 -15.22,1.66 -20.56,2 -4,0.3 -17.4,1.18 -35.9,1 -6.3,-0.07 -4.08,-0.17 -16.1,-0.42 -16.34,-0.34 -20.21,-0.15 -28.75,-0.85 -2.75,-0.21 -11.500001,-0.98 -11.500001,-0.98 z"
     id="path50"
     style="fill:#b76c13;stroke:#c1986c;stroke-miterlimit:10" />
  <line
     class="r"
     x1="144.6873"
     y1="726.03888"
     x2="135.1273"
     y2="746.86884"
     id="line52"
     style="fill:none;stroke:#f7ec32;stroke-miterlimit:10" />
  <line
     class="r"
     x1="150.5573"
     y1="735.16882"
     x2="143.45732"
     y2="753.41882"
     id="line54"
     style="fill:none;stroke:#f7ec32;stroke-miterlimit:10" />
  <line
     class="r"
     x1="160.03731"
     y1="744.29883"
     x2="154.11729"
     y2="761.93884"
     id="line56"
     style="fill:none;stroke:#f7ec32;stroke-miterlimit:10" />
  <line
     class="r"
     x1="155.0273"
     y1="740.52887"
     x2="148.3773"
     y2="757.97882"
     id="line58"
     style="fill:none;stroke:#f7ec32;stroke-miterlimit:10" />
  <path
     class="s"
     d="m 143.56731,792.88889 c 3.62,-14.63 0,-30.49 -8.51,-38.5 -6.82,-6.44 -15.89,-7 -23.62,-1.62 a 17.24,17.24 0 0 0 -6.36,-0.71 c -1.34,0.11 -1.77,0.31 -2.38,0.37 -3.680001,0.36 -6.490001,-5.34 -13.380001,-15.52 -2,-3 -4.87,-7.67 -14.79,-22.78 -3.49,-5.33 -4.15,-6.28 -5.44,-7.59 -5.81,-5.95 -15.18,-9.75 -21.47,-2.54 -2.17,2.49 -3.2,5.5 -4.84,10.13 -2.45,7 -2.84,11.89 -4.55,24.1 -2.84,20.29 -3.41,18.72 -3.59,25 -0.22,8.58 -0.49,19.37 3.41,25.3 3.13,4.69 9.21,4.28 21.36,3.49 a 46.54,46.54 0 0 1 8.59,-0.19 41,41 0 0 1 11,2.53 c 3.35,1.22 12.1,1.82 32.570001,0.48 8.73,-0.57 10.84,1.39 17.79,0.79 a 68.78,68.78 0 0 0 14.21,-2.74 z"
     id="path60"
     style="fill:#5e8e11;stroke:#c1986c;stroke-miterlimit:10" />
  <path
     class="q"
     d="m 38.117309,791.30889 c 0,0 0.4,1.33 0.68,2.15 0.22,0.65 0.55,1.57 1,2.67 1.55,0.37 3.13,0.67 4.72,0.91 q 3.21,0.48 6.46,0.68 c 0,0 4.22,0.28 13.85,0.4 a 4.14,4.14 0 0 1 1.77,-4.54 3.88,3.88 0 0 1 2.22,-0.4 c 2.05,0.22 3.84,2.08 4.57,4.67 0,0 22.46,0.87 41.400001,0.45 4.72,-0.1 9.18,0.14 13.17,-0.12 8.67,-0.57 17.34,-1.33 17.31,-2 a 4.15,4.15 0 0 0 -0.8,-4.64 7.66,7.66 0 0 1 -0.83,-1.24 21.63,21.63 0 0 1 -4.35,2.45 c -6.27,2.66 -13.09,2.38 -23,1.53 a 82.26,82.26 0 0 0 -9.77,-0.81 c -3.87,0.05 -8.130001,0.07 -12.700001,0 -6.22,-0.07 -4,-0.16 -15.92,-0.4 -20.91,-0.43 -24.77,-0.57 -28.44,-0.8 -2.52,-0.19 -6.48,-0.47 -11.34,-0.96 z"
     id="path62"
     style="fill:#b76c13;stroke:#c1986c;stroke-miterlimit:10" />
  <line
     class="r"
     x1="81.72731"
     y1="725.24884"
     x2="71.137314"
     y2="751.82886"
     id="line64"
     style="fill:none;stroke:#f7ec32;stroke-miterlimit:10" />
  <line
     class="r"
     x1="88.2173"
     y1="736.90887"
     x2="80.357315"
     y2="760.18884"
     id="line66"
     style="fill:none;stroke:#f7ec32;stroke-miterlimit:10" />
  <line
     class="r"
     x1="98.697311"
     y1="748.53888"
     x2="92.147324"
     y2="771.07886"
     id="line68"
     style="fill:none;stroke:#f7ec32;stroke-miterlimit:10" />
  <line
     class="r"
     x1="93.157303"
     y1="743.72882"
     x2="85.797318"
     y2="766.00885"
     id="line70"
     style="fill:none;stroke:#f7ec32;stroke-miterlimit:10" />
  <path
     class="t"
     d="m 242.56731,592.85889 a 4.61,4.61 0 0 0 -2.59,-1.08 l -2.37,0.15 -17.7,-6.4 q -9.22,-1.74 -18.5,-3.55 -24.11,-4.66 -47.8,-9.52 9.85,-30.16 19.66,-60.38 c 30.86,19.83 49.1,23.22 60.33,22 l 3,-0.36 17.29,-2.05 a 14.26,14.26 0 0 1 1.95,0.17 c 1.89,0.28 3.6,0.54 4.52,1.81 a 4,4 0 0 1 0.6,2 q -9.18,28.6 -18.39,57.21 z"
     id="path72"
     style="fill:#f6c17a;stroke:#faaf41;stroke-miterlimit:10" />
  <polygon
     class="u"
     points="401.12,645.43 309.99,624.3 329.67,563.92 420.81,585.05 "
     id="polygon74"
     style="fill:#af20d1"
     transform="translate(-163.43269,-53.49111)" />
  <path
     class="v"
     d="m 114.56731,530.50889 a 290.23,290.23 0 0 1 10.69,31.23 c 4.19,16.2 14.21,40.22 13.68,59 0,1.6 0.11,4.61 1.54,6.52 0.39,0.53 2.44,3 3.53,3.35 -3.06,1.78 -4.78,1.34 -8.17,3.9 -0.82,0.6 0.51,-1.94 -2.41,1.8 -1.71,2.2 -0.27,-0.71 -0.51,-0.9 -0.24,-0.19 -3.72,4.79 -4.74,6.4 -5.3,8.4 -23.05,46.12 -36.210001,74.51 3.65,4.68 13.200001,15.63 28.650001,20 21.33,6 38.31,-5.07 42.15,-7.72 -0.67,0.58 -1,0.82 -1.11,0.74 -0.11,-0.08 0.67,-1.22 2.33,-3.26 -1,-1.18 16.64,-63 25.18,-87.56 a 4.46,4.46 0 0 1 1.2,-1.83 c 0.19,-0.13 0.68,-0.5 0.77,-0.55 1.29,-0.75 2.87,-3.21 3.47,-4 1.32,-1.74 2.66,-2.65 3.25,-4.28 0.43,-1.12 0.15,-1.33 0.07,-2.76 -0.09,-1.7 -3.65,-39.48 -10.23,-70.31 -11.42,-53.28 -36.13,-100.93 -36.13,-100.93 h -0.14 c -20.53,-4.07 -31.89,2.6 -49.83,4.11 -18.680001,1.58 -24.210001,-4.14 -26.410001,0.05 -4.44,8.49 20.86,27.05 39.380001,72.49 z"
     id="path76"
     style="fill:#6a7383;stroke:#1e75bb;stroke-miterlimit:10" />
  <path
     class="w"
     d="m 83.327309,718.18889 a 138,138 0 0 0 38.790001,20.44 126.69,126.69 0 0 0 42.45,6.53 q 1.35,-17.71 2.71,-35.42 a 72,72 0 0 1 -38.65,-0.1 c -19.31,-5.44 -32.000001,-17.55 -37.630001,-23.71 z"
     id="path78"
     style="fill:#8692a3;stroke:#1e75bb;stroke-miterlimit:10" />
  <path
     class="x"
     d="m 115.63731,513.77889 c 0,0 2.68,-27 2.25,-41.66 a 64.15,64.15 0 0 0 -1.1,-10.15 58.78,58.78 0 0 0 -2.09,-8 38.45,38.45 0 0 1 -10.16,-0.61 39.76,39.76 0 0 1 -9.000001,-2.88 c -2.81,1.46 -28.44,-8.28 -34.9,-5.85 -5.51,2.08 -12.36,39.82 -12.5,47.49 0,8.23 0.45,10.6 0.54,18.15 0,2.41 -0.07,9.79 -0.2,13.29 -0.72,18.33 -5.42,60.61 -5.93,72.32 -0.28,6 -0.46,8.83 -0.56,10.35 -0.07,1.06 -0.12,1.85 -0.12,2 -0.66,10.1 -4.31,114.82 -4.31,114.82 v 0 c 0,0 15.31,10.41 21.36,13.32 9,4.33 23.81,4.77 49.170001,-13.57 -6.53,-59.48 -7.07,-80.79 -5.61,-86.53 0.24,-1 2.64,-6.11 0.21,-10.46 -1,-1.76 -2.6,-5.42 -4.140001,-7.22 1.510001,-1.6 3.000001,-3 4.550001,-4.56 a 4.52,4.52 0 0 0 -2.48,-2.93 c -0.780001,-0.43 -2.320001,0.26 -2.780001,-0.46 -1.32,-2.09 2.380001,-4.77 3.940001,-6.51 1.47,-5 6,-18.63 7.06,-21.56 1.06,-2.93 0.28,-0.89 0.28,-0.89 0.7,-4.46 1.66,-11.06 2.63,-19.09 2.82,-23.53 1.52,-25.03 3.89,-48.81 z"
     id="path80"
     style="fill:#717f96;stroke:#1e75bb;stroke-miterlimit:10" />
  <path
     class="w"
     d="m 32.287309,741.44889 a 126,126 0 0 0 84.420001,0 l -5.52,-35 a 75.49,75.49 0 0 1 -37.230001,12.24 74.57,74.57 0 0 1 -41.67,-10.8 z"
     id="path82"
     style="fill:#8692a3;stroke:#1e75bb;stroke-miterlimit:10" />
  <path
     class="y"
     d="m 48.187309,492.14889 a 38.88,38.88 0 0 0 26.1,-5.64 c 13.29,-8.55 16.3,-22.31 16.8,-24.81"
     id="path84"
     style="fill:none;stroke:#f15a29;stroke-miterlimit:10" />
  <path
     class="a"
     d="m 157.88731,347.87889 c 0,0 0,-1.34 0,-0.89 9,-3.1 18.31,-2.94 26.43,-8.92 -0.54,17.34 -1.72,34.6 1.67,51.89 0.08,0.39 0.73,2.55 1,3.64 0.52,2.06 3.91,14.61 4.07,15.61 2.86,16.95 2,49.91 14.68,76.06 0,0 2.34,4.84 30.18,38.06 v 0 a 15.58,15.58 0 0 1 -0.26,1.76 c -0.54,1.56 -6.36,-0.24 -13.12,-1.08 -3.43,-0.43 -5.38,-0.39 -8.19,-1.88 a 17.1,17.1 0 0 1 -3.7,-2.64 36.33,36.33 0 0 0 3.08,5.52 c 3.16,4.69 5.78,6.24 5.82,9.51 0,0.52 0.76,2 -0.44,3.39 -0.8,0.9 -0.17,4.15 -2.12,3.62 -10.63,-2.93 -29.69,-46 -35.07,-60.37 -2,-5.43 -5.93,-20.57 -10.3,-33.67 -3.49,-10.43 -13,-38.63 -13.13,-54.55 a 38.79,38.79 0 0 1 -0.24,-6.4 c 0,0 -0.28,-33.6 -0.36,-38.66 z"
     id="path86"
     style="fill:#fff4c0;stroke:#c1986c;stroke-miterlimit:10" />
  <path
     class="z"
     d="m 168.01731,276.76889 c 4,-0.29 7.66,9.37 9.68,14.7 2.46,6.47 5.33,16.85 3.77,42 0,0.53 -0.07,1.12 -0.1,1.66 -7.67,6.26 -17.46,4.05 -26.8,7.21 0.73,-11.29 4.26,-64.89 13.45,-65.57 z"
     id="path88"
     style="fill:#8bfc7c;stroke:#a7a8ab;stroke-miterlimit:10" />
  <path
     class="aa"
     d="m 160.56731,353.62889 a 39,39 0 0 0 30.22,-11.73 q -2.42,-7.71 -4.84,-15.41 a 25.59,25.59 0 0 1 -11.18,8.94 c -9.85,4 -18.8,0 -20.49,-0.84 z"
     id="path90"
     style="fill:#b5f4d4;stroke:#a7a8ab;stroke-miterlimit:10" />
  <path
     class="z"
     d="m 51.497309,286.56889 q 0.06,-7.85 0.1,-15.66 c 2.75,-0.93 5.51,-1.89 8.3,-2.87 3.47,-1.22 6.84,-2.4 8.41,-3 a 50.12,50.12 0 0 0 15.38,-9.9 c -2.1,25.12 15.13,44.62 31.950001,43.71 13.26,-0.71 26,-14.08 28.72,-32.69 1.41,0.62 2.84,1.23 4.27,1.83 q 11,4.63 21.61,8.33 a 81.71,81.71 0 0 1 2.65,15 c 1.38,16.58 -3,25.34 -6.57,46.75 a 283.69,283.69 0 0 0 -3.15,29.94 c -0.86,16.46 -7.67,68.57 -11.39,71 -8.18,11.82 -17.13,16.37 -22,18.27 -21.93,8.56 -47.560001,-3.1 -58.560001,-8.1 h -0.07 a 98.94,98.94 0 0 1 -7.07,-24.23 c -1.1,-7.14 -0.94,-11.61 -2.62,-27 -0.67,-6.14 -1.23,-10.36 -1.47,-12.22 -0.72,-5.72 -3.05,-34.15 -3.05,-33.82 a 4.51,4.51 0 0 0 -0.11,-1 c 0.46,-0.03 -3.45,-39.49 -5.33,-64.34 z"
     id="path92"
     style="fill:#8bfc7c;stroke:#a7a8ab;stroke-miterlimit:10" />
  <path
     class="z"
     d="m 51.647309,271.19889 c 1.31,-0.43 15.22,14.15 6.78,75.67 -1.27,0 -2.53,0.08 -3.8,0.08 a 3.65,3.65 0 0 1 0.18,-0.93 3.65,3.65 0 0 0 -0.18,0.93 h -0.06 a 3.17,3.17 0 0 0 -1.67,0.45 c -9.48,0.2 -19.12,0.93 -28.55,-0.15 13.03,-48.18 11.52,-70.91 27.3,-76.05 z"
     id="path94"
     style="fill:#8bfc7c;stroke:#a7a8ab;stroke-miterlimit:10" />
  <path
     class="ab"
     d="m 113.06731,300.34889 a 234.71,234.71 0 0 1 7.72,59.51 c 0,17.63 -2.19,27.38 -2.39,51.32 a 424.88,424.88 0 0 0 1.85,44"
     id="path96"
     style="fill:none;stroke:#a7a8ab;stroke-miterlimit:10" />
  <path
     class="o"
     d="m 143.32731,255.12889 a 735.13,735.13 0 0 1 8.57,73.76 v 0.07 c 1.93,30 3.19,61.85 2.39,98.87 0,0.82 -0.05,2.61 -0.11,4.92 a 98.69,98.69 0 0 0 10.85,-54.86 l -0.21,-7 c -0.51,-17.35 -0.2,-36.24 -0.2,-36.24 0.19,-11.86 0.71,-27 2,-44.89 l -6.31,-25.62 c 0,0 -4.73,-3 -8.62,-5.11 a 81.9,81.9 0 0 0 -8.36,-3.9 z"
     id="path98"
     style="fill:#f7b64d;stroke:#9fd4ad;stroke-miterlimit:10" />
  <path
     class="o"
     d="m 58.427309,436.21889 1.56,-0.12 c 0.76,0 2.1,-0.2 4.6,-0.6 1,-2.32 2.52,-5.64 4.15,-9.71 a 165.24,165.24 0 0 0 7.39,-21.46 c 2.39,-9.78 0.52,-12 2.39,-29 1.19,-10.81 2.38,-18.56 2.92,-22.46 2.89,-20.93 4,-52.69 -4.53,-99.48 a 19.8,19.8 0 0 0 -12.85,4.56 c 6.23,39.26 4.53,70 1.57,91.54 -4.9,59.02 -7.2,86.73 -7.2,86.73 z"
     id="path100"
     style="fill:#f7b64d;stroke:#9fd4ad;stroke-miterlimit:10" />
  <path
     class="a"
     d="m 8.7173089,451.32889 c -3.59,-15.49 -1,-32.47 1.23,-44.64 a 321.76,321.76 0 0 1 9.8300001,-41.82 c 2.87,-9.24 5.71,-16.81 7.89,-22.26 3.17,4.24 5.69,5 7.36,4.94 4.32,-0.11 6.15,-5.64 11.67,-6 1.12,-0.08 3.75,-0.27 5.31,1.28 4.45,4.42 -3.23,19.42 -12.07,51.9 -2.81,10.35 -7,27.15 -7.07,27.34 -0.07,0.19 -5.49,4.15 -9.56,8 a 66.62,66.62 0 0 0 -7.66,8.7 80.59,80.59 0 0 1 6.16,-7.2 c 9.13,-9.42 15,-10.57 22.81,-20.34 a 62.63,62.63 0 0 0 4,-5.76 c 5.17,-8 11.16,-26.41 12.48,-25.86 0,0 1.08,0.46 0.85,11.27 a 59.41,59.41 0 0 0 -2.3,5.82 c -0.41,1.22 -0.8,2.64 -0.79,2.6 a 104.14,104.14 0 0 1 5.06,-12.87 q 1.17,-2.46 2.36,-4.68 a 34.89,34.89 0 0 1 4,-5.07 c 2,-2.1 2.7,-2.24 3.15,-2.21 2.23,0.12 3.52,4.51 3.61,4.84 -1,1.24 -2.37,3.08 -4,5.43 a 92.78,92.78 0 0 0 -5.17,8.71 45.28,45.28 0 0 1 5.17,-8.71 44.36,44.36 0 0 1 5.29,-5.9 3.78,3.78 0 0 1 2.11,0.82 5.85,5.85 0 0 1 1.82,4.3 c -1,1.93 -2.35,4.54 -4.16,7.54 -2.26,3.75 -4.44,6.86 -4.46,6.85 -0.02,-0.01 0.61,-0.92 1.85,-2.87 1.24,-1.95 2.39,-3.65 3.54,-5.52 1.47,-2.38 2.07,-3.49 2.9,-3.4 a 1.7,1.7 0 0 1 1.12,0.91 13,13 0 0 1 0.68,3.77 15.86,15.86 0 0 1 -3.6,9.88 l -2,2.35 c 0.38,-0.44 0.58,-0.69 0.58,-0.69 l 0.79,-0.91 c 0.77,-0.9 2.34,-3.2 3.74,-4.78 a 1,1 0 0 1 0.49,-0.34 c 0.72,-0.17 1.54,0.86 1.87,1.51 0.54,1.07 0.42,2.53 -0.56,5.2 a 29.06,29.06 0 0 1 -3.49,6.76 c -1.85,2.68 -4.34,6.13 -7.42,10 a 190.74,190.74 0 0 1 -15.84,17.45 c -11.75,11.58 -17.63,17.36 -25.27,20.64 -4.6,2 -14.32,6.15 -20.33,0.72 a 14.66,14.66 0 0 1 -3.9700001,-7.7 z"
     id="path102"
     style="fill:#fff4c0;stroke:#c1986c;stroke-miterlimit:10" />
  <path
     class="aa"
     d="m 22.477309,349.83889 a 181.35,181.35 0 0 0 19.4,2.84 c 5.48,0.49 10.62,0.7 15.33,0.73 l 2.36,-16.63 a 65,65 0 0 1 -15.13,0.84 66.63,66.63 0 0 1 -22.29,-5.31 q 0.18,8.76 0.33,17.53 z"
     id="path104"
     style="fill:#b5f4d4;stroke:#a7a8ab;stroke-miterlimit:10" />
  <path
     class="aa"
     d="m 137.68731,266.70889 c 0.26,-3.82 0.31,-6.08 0.28,-8.34 0,-3.1 -0.26,-5.69 -0.46,-7.56 1.47,0.81 13.66,7.65 15,14.57 a 39,39 0 0 1 0.57,4 55.87,55.87 0 0 1 0.25,8.46 c -0.3,8.34 7.92,21.31 6.84,22 -0.88,0.55 -5,-9.16 -11.84,-9.61 -4.33,-0.29 -6.31,3.37 -12.18,6.4 -4.06,2.1 -10.24,4 -19.4,3.09 a 31.84,31.84 0 0 0 11.92,-7.57 c 1.5,-1.53 6.74,-6.12 7.9,-13.57 0.29,-1.82 0.8,-7.21 1.12,-11.87 z"
     id="path106"
     style="fill:#b5f4d4;stroke:#a7a8ab;stroke-miterlimit:10" />
  <path
     class="aa"
     d="m 88.357309,280.14889 a 25.85,25.85 0 0 1 -4.34,-13.64 c 0,-2.42 0.61,-5.27 1.89,-11 0.75,-3.33 1.48,-6.06 2,-7.92 0,0 -6.22,2.17 -9.24,6.84 -1.41,2.19 -1.76,5 -2.41,10.66 -0.78,6.86 -0.21,7.95 -0.7,12.49 -0.92,8.61 -5.93,17 -4.65,17.88 1.28,0.88 6.57,-8.27 11.27,-7.17 3.34,0.78 3.08,5.93 6.89,9.37 2.84,2.57 8.3,4.49 19.810001,1.39 a 170.4,170.4 0 0 1 -14.310001,-12.48 c -2.95,-2.91 -4.6,-4.06 -6.21,-6.42 z"
     id="path108"
     style="fill:#b5f4d4;stroke:#a7a8ab;stroke-miterlimit:10" />
  <ellipse
     class="ac"
     cx="112.00731"
     cy="306.63889"
     rx="1.0599999"
     ry="1.08"
     id="ellipse110"
     style="fill:#1e75bb" />
  <ellipse
     class="ac"
     cx="113.7473"
     cy="335.11887"
     rx="1.0599999"
     ry="1.08"
     id="ellipse112"
     style="fill:#1e75bb" />
  <ellipse
     class="ac"
     cx="114.64729"
     cy="440.88889"
     rx="1.0599999"
     ry="1.08"
     id="ellipse114"
     style="fill:#1e75bb" />
  <ellipse
     class="ac"
     cx="113.7473"
     cy="404.35889"
     rx="1.0599999"
     ry="1.08"
     id="ellipse116"
     style="fill:#1e75bb" />
  <ellipse
     class="ac"
     cx="115.70732"
     cy="369.50888"
     rx="1.0599999"
     ry="1.08"
     id="ellipse118"
     style="fill:#1e75bb" />
  <path
     class="ad"
     d="m 60.687309,444.65889 a 100.14,100.14 0 0 0 93.540001,7.62 q -1.21,-6.64 -2.45,-13.29 a 48.41,48.41 0 0 1 -8.28,4 54.52,54.52 0 0 1 -13.32,2.88 c -10.37,1.22 -15.55,1.83 -21.66,1.32 -15.330001,-1.27 -40.310001,-9.3 -44.380001,-11.06 a 1.94,1.94 0 0 0 -1.34,-0.14 c -1.9,0.52 -2.17,5.03 -2.11,8.67 z"
     id="path120"
     style="fill:#8a5f3c;stroke:#221f1f;stroke-miterlimit:10" />
  <path
     class="ae"
     d="m 116.56731,447.33889 -10.84,-0.23 a 5.58,5.58 0 0 0 -5.62,5.7 5.85,5.85 0 0 0 5.62,5.92 l 10.84,0.22 a 5.57,5.57 0 0 0 5.62,-5.69 5.86,5.86 0 0 0 -5.62,-5.92 z"
     id="path122"
     style="fill:#c1b59a;stroke:#a87c51;stroke-miterlimit:10" />
</svg>
