<?xml version="1.0" encoding="UTF-8" standalone="no"?>
<svg
   viewBox="0 0 176.95672 236.97988"
   version="1.1"
   id="svg434"
   sodipodi:docname="pizza_peace_8.svg"
   width="176.95673"
   height="236.97987"
   inkscape:version="1.2.2 (b0a8486541, 2022-12-01)"
   xmlns:inkscape="http://www.inkscape.org/namespaces/inkscape"
   xmlns:sodipodi="http://sodipodi.sourceforge.net/DTD/sodipodi-0.dtd"
   xmlns="http://www.w3.org/2000/svg"
   xmlns:svg="http://www.w3.org/2000/svg">
  <sodipodi:namedview
     id="namedview436"
     pagecolor="#ffffff"
     bordercolor="#000000"
     borderopacity="0.25"
     inkscape:showpageshadow="2"
     inkscape:pageopacity="0.0"
     inkscape:pagecheckerboard="0"
     inkscape:deskcolor="#d1d1d1"
     showgrid="false"
     inkscape:zoom="3.5403832"
     inkscape:cx="120.74964"
     inkscape:cy="164.38898"
     inkscape:window-width="1920"
     inkscape:window-height="1011"
     inkscape:window-x="0"
     inkscape:window-y="32"
     inkscape:window-maximized="1"
     inkscape:current-layer="g432" />
  <defs
     id="defs4">
    <style
       id="style2">.a{isolation:isolate;}.b{fill:#f9bb21;stroke:#a86d18;}.b,.c,.d,.e,.f,.n{stroke-miterlimit:10;}.c{fill:#ffcc5a;stroke:#ed6e18;}.d{fill:#fff0b3;stroke:#e5ba41;}.e{fill:#ee4036;stroke:#be1e2d;stroke-width:3px;}.f{fill:#eee991;stroke:#c2a56b;}.g{fill:#8a5d3b;}.h{fill:#e6e7e8;}.i{mix-blend-mode:multiply;opacity:0.81;}.j{fill:#231f20;}.k{fill:#603813;}.l{fill:#745131;}.m{fill:#673915;}.n{fill:#37b34a;stroke:#006838;}.o{fill:#006838;}.p{fill:#ffff80;}</style>
  </defs>
  <g
     class="a"
     id="g432"
     style="isolation:isolate"
     transform="translate(0.00973165,-9.3493369e-4)">
    <path
       class="b"
       d="m 335.42,256.34 q 40.8,-40.26 81.23,-80.91 c 22.11,-22.1 47.05,-41.2 69.13,-63.31 -2,-1.89 -4.12,-3.76 -6.28,-5.62 C 415.18,51.1 339,46 311.5,45.5 c -1.45,123 -1.89,206.17 -1,235.39 8.74,-7.73 16.71,-16.46 24.92,-24.55 z"
       transform="translate(-309.55,-44.99)"
       id="path6"
       style="fill:#f9bb21;stroke:#a86d18;stroke-miterlimit:10" />
    <path
       class="c"
       d="m 312,279.56 c 8.15,-7.39 15.69,-15.58 23.43,-23.22 q 40.8,-40.26 81.23,-80.91 c 16,-15.94 33.37,-30.32 50.13,-45.4 A 239.8,239.8 0 0 0 413.5,92.5 a 246.67,246.67 0 0 0 -102,-27 q -0.08,45 0,90 0.11,62.04 0.5,124.06 z"
       transform="translate(-309.55,-44.99)"
       id="path8"
       style="fill:#ffcc5a;stroke:#ed6e18;stroke-miterlimit:10" />
    <path
       class="d"
       d="m 335.42,256.34 q 40.8,-40.26 81.23,-80.91 c 8.52,-8.52 17.47,-16.59 26.5,-24.56 -13.35,-6.72 -20.44,-4.37 -34.65,-15.37 -15.67,-12.13 -13.6,-20.06 -30,-29 -9.81,-5.35 -19.21,-7.24 -28,-9 -13.72,-2.75 -21.22,-4.25 -28.68,-2.6 q -0.27,15.64 -0.7,31.3 c -0.33,12.23 -0.65,22 -0.83,27.31 -0.08,2.07 -0.13,3.59 -0.14,4 -1,28.95 -2.72,92.56 -3.38,117.59 6.37,-6.16 12.44,-12.64 18.65,-18.76 z"
       transform="translate(-309.55,-44.99)"
       id="path10"
       style="fill:#fff0b3;stroke:#e5ba41;stroke-miterlimit:10" />
    <path
       class="e"
       d="m 335.42,256.34 q 11.1,-11 22.18,-22 c -5.11,-14.33 -19.17,-25.9 -32.17,-25.9 a 24.85,24.85 0 0 0 -7.41,1.2 q -1.53,33.6 -3.33,67.2 l 0.16,0.05 c 7.07,-6.64 13.74,-13.81 20.57,-20.55 z"
       transform="translate(-309.55,-44.99)"
       id="path12"
       style="fill:#ee4036;stroke:#be1e2d;stroke-width:3px;stroke-miterlimit:10" />
    <path
       class="e"
       d="m 397.56,165.56 c -0.82,18.29 -18.46,31.36 -32.46,32.15 -15.6,0.88 -35,-13 -35.8,-32.15 -0.82,-19.33 17.49,-38.33 34.13,-38.34 16.64,-0.01 34.99,18.93 34.13,38.34 z"
       transform="translate(-309.55,-44.99)"
       id="path14"
       style="fill:#ee4036;stroke:#be1e2d;stroke-width:3px;stroke-miterlimit:10" />
    <path
       class="f"
       d="m 359,233 c -1,-3.34 -2.52,-6 -4.72,-6.62 -0.75,-0.23 -0.66,0.18 -7,1.19 -5.82,0.93 -5.93,0.48 -6.68,1 -4.17,3 -1.4,16.11 0.07,22.59 Q 349.8,242.13 359,233 Z"
       transform="translate(-309.55,-44.99)"
       id="path16"
       style="fill:#eee991;stroke:#c2a56b;stroke-miterlimit:10" />
    <path
       class="f"
       d="m 329.52,262.27 c -0.74,0.23 -1.21,0.28 -1.46,0 -0.4,-0.43 -0.05,-1.45 0.56,-2 1,-0.89 2.68,-0.35 2.84,-0.67 0.16,-0.32 -1.94,-2 -4.53,-1.55 a 7.58,7.58 0 0 0 -4.48,2.73 c -1.14,1.64 -0.8,4.64 0.8,7.86 2.1,-2.11 4.19,-4.25 6.27,-6.37 z"
       transform="translate(-309.55,-44.99)"
       id="path18"
       style="fill:#eee991;stroke:#c2a56b;stroke-miterlimit:10" />
    <path
       class="g"
       d="m 326.44,265.41 3.05,-3.11 h -0.22 c -1.28,0 -1.41,-0.29 -1.43,-0.37 -0.25,-0.83 2.87,-2.57 2.77,-2.8 -0.1,-0.23 -4.82,1.41 -4.94,3.63 a 5.8,5.8 0 0 0 0.66,2.44 1.8,1.8 0 0 0 0.11,0.21 z"
       transform="translate(-309.55,-44.99)"
       id="path20"
       style="fill:#8a5d3b" />
    <path
       class="h"
       d="m 355.05,232 a 13,13 0 0 1 -1,-2.34 c 0,-0.18 0,-0.86 0.33,-1 a 1.53,1.53 0 0 1 0.74,1.55 16.29,16.29 0 0 1 0.06,1.71 h -0.1 z"
       transform="translate(-309.55,-44.99)"
       id="path22"
       style="fill:#e6e7e8" />
    <path
       class="h"
       d="m 352.23,234.18 a 49.27,49.27 0 0 1 -1.24,-4.85 5.18,5.18 0 0 1 0.18,-1.72 h 0.1 a 5.36,5.36 0 0 1 0.87,3.23 c 0.09,1.12 0.16,2.23 0.19,3.35 z"
       transform="translate(-309.55,-44.99)"
       id="path24"
       style="fill:#e6e7e8" />
    <path
       class="h"
       d="m 348.91,238.41 c -0.24,-1.61 -0.46,-3.23 -0.66,-4.84 a 11.36,11.36 0 0 1 0,-4.89 h 0.1 a 11.29,11.29 0 0 1 0.66,4.84 c 0,1.63 0,3.26 0,4.89 z"
       transform="translate(-309.55,-44.99)"
       id="path26"
       style="fill:#e6e7e8" />
    <path
       class="h"
       d="m 328.41,258.5 c -2.33,0.95 -3.49,2.89 -4.25,5.17 h -0.1 a 2.74,2.74 0 0 1 -0.17,-2 c 0.67,-1.85 2.71,-2.95 4.49,-3.3 v 0.09 z"
       transform="translate(-309.55,-44.99)"
       id="path30"
       style="fill:#e6e7e8" />
    <path
       class="h"
       d="m 345.49,242.09 c -0.42,-2.22 -0.74,-4.45 -0.95,-6.71 -0.22,-2 -0.51,-5 0.29,-6.77 a 26.71,26.71 0 0 1 0.5,6.73 q 0.06,3.36 0.26,6.74 z"
       transform="translate(-309.55,-44.99)"
       id="path32"
       style="fill:#e6e7e8" />
    <g
       class="i"
       id="g36"
       style="opacity:0.81;mix-blend-mode:multiply">
      <path
         class="j"
         d="m 322.24,264.45 c -2.41,-1.35 -1.95,-4.85 0.06,-6.3 a 4.21,4.21 0 0 1 6.06,0.63 v 0.3 a 11.19,11.19 0 0 0 -2.24,0.4 4.66,4.66 0 0 0 -3.58,4.93 h -0.3 z"
         transform="translate(-309.55,-44.99)"
         id="path34"
         style="fill:#231f20" />
    </g>
    <path
       class="k"
       d="m 322.24,264.45 c -2.41,-1.35 -1.95,-4.85 0.06,-6.3 a 4.21,4.21 0 0 1 6.06,0.63 v 0.3 a 11.19,11.19 0 0 0 -2.24,0.4 4.66,4.66 0 0 0 -3.58,4.93 h -0.3 z"
       transform="translate(-309.55,-44.99)"
       id="path38"
       style="fill:#603813" />
    <path
       class="f"
       d="m 358.48,82.15 a 7.53,7.53 0 0 1 3.45,3.95 c 0.86,2.48 -0.32,4.85 -0.75,4.73 -0.43,-0.12 -0.1,-1.83 -1.15,-2.68 -0.63,-0.52 -1.7,-0.68 -2,-0.22 -0.61,0.79 1.37,2.76 3.43,7.5 1.07,2.48 1,3.06 1.8,3.72 2.05,1.72 5.46,0.24 6.94,-0.37 5.74,-2.41 19.28,-8.07 23.13,-4.29 0.66,0.65 0.24,0.83 2.15,6.42 2.08,6.1 2.46,5.93 2.37,6.71 -0.73,6.14 -16.23,10 -22.66,9 -0.55,-0.09 -2.22,-0.4 -2.87,0.55 -0.28,0.42 -0.48,1.24 1.12,5 1.6,3.76 2.88,6.72 5.66,8.56 0.54,0.36 1.79,1.17 2.44,0.77 0.65,-0.4 0.24,-1.86 0.57,-1.9 0.33,-0.04 2.4,2.71 2.17,4.44 -0.45,3.42 -9.55,4.22 -16.66,2.13 -11.11,-3.27 -24.87,-15.81 -26.25,-30.14 -1.54,-15.44 12.04,-26.25 17.11,-23.88 z"
       transform="translate(-309.55,-44.99)"
       id="path40"
       style="fill:#eee991;stroke:#c2a56b;stroke-miterlimit:10" />
    <path
       class="g"
       d="m 371.65,116.57 c -1.22,-1.06 -5.76,0.38 -7.82,3.28 a 7.19,7.19 0 0 0 -1.29,4.2 7.27,7.27 0 0 0 0.7,3 9.37,9.37 0 0 0 3.28,3.5 10.87,10.87 0 0 0 5.1,3.39 24.9,24.9 0 0 0 3.88,0.61 10,10 0 0 0 2.9,0.07 5.14,5.14 0 0 0 2.34,-0.81 3.52,3.52 0 0 0 1.47,-3.13 c -0.08,0 -0.17,0.48 -0.72,0.81 a 3.2,3.2 0 0 1 -2.45,0 4.79,4.79 0 0 1 -1.63,-1.32 13,13 0 0 1 -1.81,-2.26 18.23,18.23 0 0 1 -1.54,-3.23 c -1.37,-3.34 -2.05,-5 -2.15,-6.26 -0.1,-1.26 0.09,-1.53 -0.26,-1.85 z"
       transform="translate(-309.55,-44.99)"
       id="path42"
       style="fill:#8a5d3b" />
    <path
       class="g"
       d="m 366.49,100.05 c 0.59,1.19 -3.57,5.24 -8.06,4.83 a 9.28,9.28 0 0 1 -4.48,-1.83 7.47,7.47 0 0 1 -3.13,-6.88 14.53,14.53 0 0 1 1.71,-6.64 14.36,14.36 0 0 1 1.2,-1.71 7.53,7.53 0 0 1 1.06,-1.1 6.06,6.06 0 0 1 2.3,-1.06 c 2.21,-0.25 4.67,4.08 4.42,4.25 -0.25,0.17 -2.46,-2.64 -3.23,-2.26 -0.08,0 -0.36,0.22 -0.13,1.48 a 10.66,10.66 0 0 0 1.82,4 c 2.11,3.41 1,4.78 2.78,5.93 1.78,1.15 3.4,0.29 3.74,0.99 z"
       transform="translate(-309.55,-44.99)"
       id="path44"
       style="fill:#8a5d3b" />
    <path
       class="h"
       d="m 378.21,135.33 c -5.56,0.33 -11.47,-0.9 -15.83,-4.56 -5.26,-4.2 -4.18,-10.92 0.86,-14.78 a 11.76,11.76 0 0 1 8.21,-2.11 36.49,36.49 0 0 0 8.19,-0.82 c 5.42,-1 10.84,-3.27 15.93,-4.94 a 68.36,68.36 0 0 1 -15.72,5.88 32.7,32.7 0 0 1 -8.44,0.83 10.83,10.83 0 0 0 -7.69,1.76 c -4.76,3.5 -5.9,9.75 -1,13.77 4.14,3.8 10.23,4.85 15.5,4.93 z"
       transform="translate(-309.55,-44.99)"
       id="path46"
       style="fill:#e6e7e8" />
    <path
       class="h"
       d="m 354.23,127.45 c 0.3,-6.69 3.79,-13 10.46,-15.12 6.14,-2.06 12.62,-3 18.94,-4.24 4.18,-0.71 8.51,-2.24 12.48,-3.19 -7.82,3.82 -16.53,4.95 -25,6.48 -10.39,1.79 -15.36,5.46 -16.89,16.07 z"
       transform="translate(-309.55,-44.99)"
       id="path48"
       style="fill:#e6e7e8" />
    <path
       class="h"
       d="m 346.37,118.11 c 15.48,-6.8 31.37,-13.36 48.16,-16 v 0.1 c -8.15,2.31 -16.28,4.55 -24.34,7.12 -8.06,2.57 -16.14,5.85 -23.84,8.74 z"
       transform="translate(-309.55,-44.99)"
       id="path50"
       style="fill:#e6e7e8" />
    <path
       class="h"
       d="m 361.87,87.86 c -3.11,-6.13 -8.27,-3.26 -11.93,0.59 -7.21,7.18 -5.14,15.75 4.66,18.58 6.7,1.76 12.49,-3.29 18.46,-5.51 6.12,-2.5 12.86,-4.77 19.25,-5.49 a 110.41,110.41 0 0 0 -18.85,6.4 c -6,2.41 -12.21,7.37 -19.06,5.37 -10.16,-3.06 -12.48,-12.24 -4.74,-19.63 2.3,-2.14 5.45,-5 8.83,-3.86 a 6.58,6.58 0 0 1 3.51,3.51 h -0.09 z"
       transform="translate(-309.55,-44.99)"
       id="path52"
       style="fill:#e6e7e8" />
    <path
       class="h"
       d="m 346,113.45 a 145.81,145.81 0 0 0 23.76,-8.07 75.47,75.47 0 0 1 24.24,-6.75 v 0.1 a 150.89,150.89 0 0 0 -23.93,7.39 121.9,121.9 0 0 1 -24.07,7.33 z"
       transform="translate(-309.55,-44.99)"
       id="path54"
       style="fill:#e6e7e8" />
    <path
       class="l"
       d="m 380.65,132.45 c 0.06,0 0,0 0,0 0,0 0.01,0.01 0,0 z"
       transform="translate(-309.55,-44.99)"
       id="path56"
       style="fill:#745131" />
    <path
       class="l"
       d="m 380,132.58 v -0.05 l -0.06,0.13 z"
       transform="translate(-309.55,-44.99)"
       id="path58"
       style="fill:#745131" />
    <path
       class="l"
       d="m 379.26,132.6 c 0.18,0.3 0.23,-0.06 0.39,0 v 0.05 -0.2 c -0.13,0.06 -0.25,0.23 -0.39,0.15 z"
       transform="translate(-309.55,-44.99)"
       id="path60"
       style="fill:#745131" />
    <path
       class="l"
       d="m 378.63,131.79 c 0.07,0.15 0,0.09 0.1,0.07 v 0 z"
       transform="translate(-309.55,-44.99)"
       id="path62"
       style="fill:#745131" />
    <path
       class="l"
       d="m 378.7,131.82 c 0.07,0 -0.09,-0.14 0,0 z"
       transform="translate(-309.55,-44.99)"
       id="path64"
       style="fill:#745131" />
    <path
       class="l"
       d="m 378.4,131.79 0.05,-0.11 c -0.05,-0.1 -0.14,-0.16 -0.14,-0.22 0,-0.06 -0.02,0.15 0.09,0.33 z"
       transform="translate(-309.55,-44.99)"
       id="path66"
       style="fill:#745131" />
    <path
       class="l"
       d="m 378.41,132.07 v 0 c 0,0 -0.01,-0.07 0,0 z"
       transform="translate(-309.55,-44.99)"
       id="path68"
       style="fill:#745131" />
    <path
       class="l"
       d="m 378.5,131.92 -0.06,0.1 c 0,0.07 0.08,0.21 0,0 0.06,0.09 0.04,-0.02 0.06,-0.1 z"
       transform="translate(-309.55,-44.99)"
       id="path70"
       style="fill:#745131" />
    <path
       class="l"
       d="m 378.58,132 c 0.08,0.1 0.16,0.16 0.11,0.28 0.16,-0.02 0.05,-0.28 -0.11,-0.28 z"
       transform="translate(-309.55,-44.99)"
       id="path72"
       style="fill:#745131" />
    <path
       class="l"
       d="m 379.35,132.93 0.11,0.08 v -0.12 c 0.01,0.11 -0.15,-0.06 -0.11,0.04 z"
       transform="translate(-309.55,-44.99)"
       id="path74"
       style="fill:#745131" />
    <path
       class="l"
       d="m 377.77,131.33 c 0,0.1 0.11,0.3 0.15,0.44 v -0.1 a 1.49,1.49 0 0 1 -0.15,-0.34 z"
       transform="translate(-309.55,-44.99)"
       id="path76"
       style="fill:#745131" />
    <path
       class="l"
       d="m 377.92,131.77 -0.05,0.15 c 0.13,0.08 0.13,-0.04 0.05,-0.15 z"
       transform="translate(-309.55,-44.99)"
       id="path78"
       style="fill:#745131" />
    <path
       class="l"
       d="m 378.54,132.55 0.06,-0.3 q 0,0.13 -0.09,0.3 z"
       transform="translate(-309.55,-44.99)"
       id="path80"
       style="fill:#745131" />
    <polygon
       class="l"
       points="67.86,86.28 67.87,86.15 67.86,85.9 "
       id="polygon82"
       style="fill:#745131" />
    <path
       class="l"
       d="m 377.2,131.09 c 0,-0.23 -0.13,-0.45 -0.12,-0.58 0.01,-0.13 -0.06,0.19 -0.07,0.37 -0.01,-0.09 0.08,-0.03 0.19,0.21 z"
       transform="translate(-309.55,-44.99)"
       id="path84"
       style="fill:#745131" />
    <path
       class="l"
       d="m 377,131.13 a 1.57,1.57 0 0 0 0,-0.25 1.07,1.07 0 0 0 0,0.25 z"
       transform="translate(-309.55,-44.99)"
       id="path86"
       style="fill:#745131" />
    <path
       class="l"
       d="m 377.7,131.82 a 3.12,3.12 0 0 0 -0.15,-0.36 l 0.11,0.34 z"
       transform="translate(-309.55,-44.99)"
       id="path88"
       style="fill:#745131" />
    <path
       class="l"
       d="m 377.66,131.81 v 0 h -0.09 z"
       transform="translate(-309.55,-44.99)"
       id="path90"
       style="fill:#745131" />
    <path
       class="l"
       d="m 377.71,131.82 v 0 c 0,0 0,0.04 0,0 z"
       transform="translate(-309.55,-44.99)"
       id="path92"
       style="fill:#745131" />
    <path
       class="l"
       d="m 378.21,132.28 a 0.64,0.64 0 0 0 0.1,0.57 2.41,2.41 0 0 1 -0.1,-0.57 z"
       transform="translate(-309.55,-44.99)"
       id="path94"
       style="fill:#745131" />
    <path
       class="l"
       d="m 377.85,132.24 0.12,0.09 a 1.74,1.74 0 0 1 -0.07,-0.29 z"
       transform="translate(-309.55,-44.99)"
       id="path96"
       style="fill:#745131" />
    <polygon
       class="l"
       points="68.26,87.21 68.28,87.34 68.3,87.25 "
       id="polygon98"
       style="fill:#745131" />
    <path
       class="l"
       d="m 377.21,131.54 c 0,0.15 0,0.15 -0.1,0.16 -0.1,0.01 0.13,0.15 0.18,0.16 0.05,0.01 -0.03,-0.31 -0.08,-0.32 z"
       transform="translate(-309.55,-44.99)"
       id="path100"
       style="fill:#745131" />
    <path
       class="l"
       d="m 377.43,131.71 v 0 c 0,0 0.02,0.06 0,0 z"
       transform="translate(-309.55,-44.99)"
       id="path102"
       style="fill:#745131" />
    <path
       class="l"
       d="m 376.62,131.54 v 0.08 z"
       transform="translate(-309.55,-44.99)"
       id="path104"
       style="fill:#745131" />
    <path
       class="l"
       d="m 377.32,131.93 c 0.05,0.08 0.06,0 0.06,-0.1 a 0.09,0.09 0 0 1 -0.09,0 c 0,0 0.02,0.17 0.03,0.1 z"
       transform="translate(-309.55,-44.99)"
       id="path106"
       style="fill:#745131" />
    <path
       class="l"
       d="m 376.88,131.24 a 2,2 0 0 0 0.11,0.25 c -0.05,-0.13 -0.12,-0.35 -0.11,-0.25 z"
       transform="translate(-309.55,-44.99)"
       id="path108"
       style="fill:#745131" />
    <path
       class="l"
       d="m 377.39,131.63 v 0 c -0.02,-0.09 -0.01,-0.06 0,0 z"
       transform="translate(-309.55,-44.99)"
       id="path110"
       style="fill:#745131" />
    <path
       class="l"
       d="m 377.39,131.63 a 1.09,1.09 0 0 0 0,0.2 0.19,0.19 0 0 0 0.05,-0.1 z"
       transform="translate(-309.55,-44.99)"
       id="path112"
       style="fill:#745131" />
    <path
       class="l"
       d="m 376.74,134 c 0,0.05 0.08,-0.47 0.23,-0.08 a 10.23,10.23 0 0 0 -0.33,-2.27 1.13,1.13 0 0 1 0,0.54 2.18,2.18 0 0 1 0.24,0.88 c -0.11,0.2 -0.13,-0.14 -0.22,-0.36 a 1.54,1.54 0 0 1 0,0.64 v 0.36 0.23 c 0,0.05 0,0 0,0.05 0,0.05 0.08,0 0.12,-0.07 0.04,-0.07 -0.08,0.08 -0.04,0.08 z"
       transform="translate(-309.55,-44.99)"
       id="path114"
       style="fill:#745131" />
    <path
       class="l"
       d="m 376.82,131.71 v 0 a 2.5,2.5 0 0 1 -0.2,-0.56 1.6,1.6 0 0 0 0,0.43 l 0.19,0.12 z"
       transform="translate(-309.55,-44.99)"
       id="path116"
       style="fill:#745131" />
    <path
       class="l"
       d="m 377,131.73 a 3.44,3.44 0 0 0 0.09,1 c 0.12,0 0,-0.33 0.07,-0.48 -0.17,0.06 0,-0.2 -0.15,-0.46 a 0.11,0.11 0 0 1 0.08,-0.07 2,2 0 0 1 -0.12,-0.21 v 0 0 c 0,0 0,0.08 0,0 v 0 0.14 c -0.07,-0.1 0,-0.1 0,-0.14 v -0.06 0 l -0.14,0.15 c 0.06,0.14 0.11,0.14 0.17,0.13 z"
       transform="translate(-309.55,-44.99)"
       id="path118"
       style="fill:#745131" />
    <path
       class="l"
       d="m 378.37,133.51 a 0.19,0.19 0 0 1 0,-0.07 c 0,0 -0.02,0.07 0,0.07 z"
       transform="translate(-309.55,-44.99)"
       id="path120"
       style="fill:#745131" />
    <path
       class="l"
       d="m 378.24,133.34 c 0,0 0,-0.17 0,-0.14 0,0.03 0,0.14 0.07,0.24 a 0.43,0.43 0 0 0 -0.09,-0.37 v 0.05 a 1.71,1.71 0 0 1 -0.31,-0.54 6.28,6.28 0 0 0 0.33,0.76 z"
       transform="translate(-309.55,-44.99)"
       id="path122"
       style="fill:#745131" />
    <path
       class="l"
       d="m 377.62,132.72 -0.13,0.17 0.15,0.32 v -0.19 c 0.07,0.07 0,-0.16 -0.02,-0.3 z"
       transform="translate(-309.55,-44.99)"
       id="path124"
       style="fill:#745131" />
    <polygon
       class="l"
       points="66.99,86.49 67.03,86.33 67,85.88 "
       id="polygon126"
       style="fill:#745131" />
    <polygon
       class="l"
       points="66.8,86.13 66.86,86.31 66.82,85.9 "
       id="polygon128"
       style="fill:#745131" />
    <path
       class="l"
       d="m 365.32,128.72 h -0.05 z"
       transform="translate(-309.55,-44.99)"
       id="path130"
       style="fill:#745131" />
    <path
       class="l"
       d="m 365.51,129.06 v 0 c 0,0 -0.01,-0.01 0,0 z"
       transform="translate(-309.55,-44.99)"
       id="path132"
       style="fill:#745131" />
    <path
       class="l"
       d="m 372.68,129.31 c 0.18,-0.6 0.51,-1.51 0.23,-0.83 l -0.26,0.68 c 0.07,-0.1 0.06,-0.01 0.03,0.15 z"
       transform="translate(-309.55,-44.99)"
       id="path134"
       style="fill:#745131" />
    <path
       class="l"
       d="m 367.87,131.16 v 0 h 0.05 l 0.23,-0.23 c -0.15,0.07 -0.29,0.29 -0.28,0.23 z"
       transform="translate(-309.55,-44.99)"
       id="path136"
       style="fill:#745131" />
    <path
       class="l"
       d="m 367.59,131.4 v -0.11 z"
       transform="translate(-309.55,-44.99)"
       id="path138"
       style="fill:#745131" />
    <path
       class="l"
       d="m 364.41,126.77 h -0.1 c 0.03,0.06 0.06,0.01 0.1,0 z"
       transform="translate(-309.55,-44.99)"
       id="path140"
       style="fill:#745131" />
    <path
       class="l"
       d="m 374.67,130.7 a 1.62,1.62 0 0 0 -0.07,-0.42 c 0.01,0.38 0,0.9 0.07,0.42 z"
       transform="translate(-309.55,-44.99)"
       id="path142"
       style="fill:#745131" />
    <path
       class="l"
       d="m 369.21,126.66 a 2.74,2.74 0 0 0 -0.42,0.21 2.34,2.34 0 0 0 0.42,-0.21 z"
       transform="translate(-309.55,-44.99)"
       id="path144"
       style="fill:#745131" />
    <path
       class="l"
       d="m 374.48,130.21 v 0.16 c 0,-0.09 0.09,-0.15 0.12,-0.09 -0.01,-0.28 -0.03,-0.46 -0.12,-0.07 z"
       transform="translate(-309.55,-44.99)"
       id="path146"
       style="fill:#745131" />
    <path
       class="l"
       d="m 365.4,119.27 v 0 c 0,0 0,-0.01 0,0 z"
       transform="translate(-309.55,-44.99)"
       id="path148"
       style="fill:#745131" />
    <path
       class="l"
       d="m 367.25,117.9 v 0.1 c 0,0 0.01,0 0,-0.1 z"
       transform="translate(-309.55,-44.99)"
       id="path150"
       style="fill:#745131" />
    <path
       class="l"
       d="m 375.69,130.77 c 0,0 0,-0.06 0,0 z"
       transform="translate(-309.55,-44.99)"
       id="path152"
       style="fill:#745131" />
    <path
       class="l"
       d="m 375.94,132.81 a 0.86,0.86 0 0 0 0,0.24 1.49,1.49 0 0 1 0,-0.24 z"
       transform="translate(-309.55,-44.99)"
       id="path154"
       style="fill:#745131" />
    <path
       class="l"
       d="m 373.5,133.8 v 0 c 0,0 0,0.02 0,0 z"
       transform="translate(-309.55,-44.99)"
       id="path156"
       style="fill:#745131" />
    <path
       class="l"
       d="m 375.75,131 c 0,-0.07 0,-0.13 -0.05,-0.18 a 1,1 0 0 0 0.05,0.18 z"
       transform="translate(-309.55,-44.99)"
       id="path158"
       style="fill:#745131" />
    <path
       class="l"
       d="m 375.74,130.78 v 0.07 c 0.03,-0.08 0.03,-0.14 0,-0.07 z"
       transform="translate(-309.55,-44.99)"
       id="path160"
       style="fill:#745131" />
    <path
       class="l"
       d="m 375.64,130.77 c 0,0 0,0 0.06,0.08 a 0.32,0.32 0 0 1 0,-0.08 z"
       transform="translate(-309.55,-44.99)"
       id="path162"
       style="fill:#745131" />
    <path
       class="l"
       d="m 364.37,123.19 v 0 c -0.02,-0.06 -0.02,-0.04 0,0 z"
       transform="translate(-309.55,-44.99)"
       id="path164"
       style="fill:#745131" />
    <polygon
       class="l"
       points="60.28,87.95 60.29,87.95 "
       id="polygon166"
       style="fill:#745131" />
    <path
       class="l"
       d="m 369.64,132.92 c 0.12,-0.06 0.15,0 0.19,0 l 0.06,-0.24 z"
       transform="translate(-309.55,-44.99)"
       id="path168"
       style="fill:#745131" />
    <path
       class="l"
       d="m 364.88,127.89 v 0.15 c -0.18,-0.09 -0.18,-0.22 -0.23,-0.06 0.25,-0.09 0.23,0.45 0.48,0.35 v 0.1 0 c 0,0.2 0.22,0 0.29,0.22 0.07,0.22 0,0.14 0,0.11 l 0.13,0.11 c 0,0 0,0.06 0,0 l 0.14,0.21 v 0 l 0.2,0.06 c 0,0.08 0,0 -0.06,0 l 0.13,0.08 c 0,0.09 -0.15,0 -0.19,-0.06 -0.16,0.25 0.11,0.06 0.14,0.38 l -0.11,-0.09 c -0.08,0.16 0,0.21 0,0.39 0,-0.06 0,-0.38 0.17,-0.3 0,0.05 0,0.1 0.12,0.14 -0.08,0.05 0,0.1 0,0.18 l -0.11,0.07 c 0.09,0.07 0.14,0 0.22,0 0.08,0 0,0.18 0,0.25 0,0.07 0,-0.2 0.2,0 0.2,0.2 0.17,0.21 0.36,0.3 0,0.11 -0.08,0 -0.08,0.09 h 0.14 c 0,0 0,0 0,0 0,0 0.1,-0.08 0.21,0 0.11,0.08 0,0.33 0.26,0.33 0,0.05 -0.06,0 -0.09,0.09 a 1.07,1.07 0 0 0 0.41,0.1 l 0.06,0.16 c 0,-0.15 0.17,-0.14 0.32,-0.13 v 0 l 0.07,-0.1 0.16,-0.22 0.23,-0.31 0.53,-0.35 a 9.61,9.61 0 0 1 -0.71,0.79 l 0.21,-0.19 c -0.06,0.09 -0.13,0.19 -0.21,0.29 l -0.13,0.16 v 0 h -0.11 v -0.1 a 0.36,0.36 0 0 0 -0.22,0.12 h 0.07 -0.05 0.08 l -0.06,0.14 h 0.05 c 0.05,0.08 0.09,0.17 0.14,0.24 a 1.66,1.66 0 0 1 0.76,0.07 c -0.12,0 -0.11,0.12 -0.18,0.22 0,-0.15 -0.22,-0.09 -0.33,-0.21 0.06,0.06 0,0.1 0,0.1 l 0.29,0.08 c -0.06,0.07 0,0.09 0,0.17 0.07,-0.2 0.25,0 0.37,0 0,0.06 -0.09,0.1 -0.19,0 0,0.21 0.29,-0.09 0.34,0.1 0,0 0,0 -0.07,0 -0.07,0 0.23,0.13 0.16,0.15 v 0 c 0.17,0.13 0.57,0.35 0.68,0.21 a 1.12,1.12 0 0 1 -0.15,0.19 l 0.31,-0.16 h 0.08 v 0 l 0.16,-0.25 0.65,-1 -0.55,1.06 -0.15,0.29 v 0 0.08 c -0.05,0.11 -0.1,0.19 -0.2,0.19 a 0.25,0.25 0 0 0 0.2,0.1 c 0,0 0,-0.23 0.06,-0.22 0,0.2 0,0.12 0.14,0.31 0,0 0.12,-0.22 0.19,-0.18 0.07,0.04 -0.09,0.2 -0.13,0.21 l 0.29,-0.11 c -0.07,0 -0.09,0.16 -0.07,0.24 0.02,0.08 0.17,0.08 0.23,0.08 l -0.06,-0.08 c 0.21,0.11 0.33,-0.2 0.54,-0.1 0,0 -0.16,0.23 -0.06,0.3 l 0.27,-0.24 v 0 l 0.08,-0.17 0.16,-0.36 L 372,132 a 9.35,9.35 0 0 1 0.44,-0.87 l -0.14,0.51 0.3,-0.51 -0.47,1.17 -0.31,0.7 -0.08,0.18 c 0,0.06 -0.05,0.13 -0.05,0.11 h -0.05 a 3.64,3.64 0 0 1 -0.38,0.2 c 0.07,0.07 0,0.07 0.13,0.11 0.13,0.04 -0.1,0.06 -0.14,0 l 0.29,0.14 c 0,-0.13 0.27,-0.05 0.29,-0.15 h -0.37 a 0.41,0.41 0 0 1 0.5,-0.19 c 0,0.06 -0.1,0.2 -0.11,0.24 -0.01,0.04 0.23,0 0.24,0 h -0.11 c 0.1,0.08 0.24,-0.1 0.35,0 0.11,0.1 0.1,0.2 0.13,0.13 a 1,1 0 0 1 0,-0.37 l 0.27,-1 0.31,-1.06 c 0,0.09 -0.07,1.17 -0.14,1.74 l -0.06,0.34 v 0.05 a 0.21,0.21 0 0 1 -0.06,0.08 c 0,0.06 -0.09,0.11 -0.07,0.16 0.02,0.05 0.07,-0.06 0.09,-0.07 0.02,-0.01 -0.05,0.1 0.07,0.11 0.12,0.01 0.23,0.06 0.08,-0.09 0.12,0 0.11,0 0.24,0.07 0.13,0.07 0,-0.1 0.09,-0.16 0.09,-0.06 0,0 0.13,-0.26 a 3.18,3.18 0 0 1 0.16,-0.39 c 0,0.12 0,0.27 -0.06,0.4 a 0.87,0.87 0 0 0 0,0.24 c 0.22,0 0.33,0.13 0.54,0.16 0,0 0.12,0.07 0.07,0.12 a 0.16,0.16 0 0 1 0.13,-0.05 c 0.12,0.12 -0.15,0 -0.06,0.13 0,-0.07 0.18,-0.07 0.27,-0.11 0.09,-0.04 -0.21,0 -0.31,0 a 0.3,0.3 0 0 1 0,-0.1 v 0 0 -0.1 l 0.09,-0.39 a 5.84,5.84 0 0 1 0.37,-1.14 c 0.17,-0.24 0,0.74 0,0.59 0.3,0.23 0.36,-1.85 0.54,-1 a 15,15 0 0 1 0,1.82 c -0.15,0.26 -0.2,-0.45 -0.28,-0.43 l 0.09,0.34 c -0.05,0.22 -0.16,0.39 -0.2,0.18 a 0.69,0.69 0 0 0 0,0.19 h 0.08 0.22 a 2.29,2.29 0 0 1 0.47,0 h 0.07 c 0,0 0,0 0,-0.05 a 1.21,1.21 0 0 0 0,-0.19 l -0.08,0.09 c -0.07,-0.53 0.14,-0.7 0,-0.95 0.09,-0.35 0.17,-0.88 0.32,-0.57 l 0.05,0.69 c 0,-0.2 -0.1,-0.42 -0.13,-0.21 0,-0.3 0.26,0.94 0.27,0.06 l -0.12,-0.49 c 0.08,-0.33 0.13,-1 0.26,-0.74 -0.1,-0.66 0,0.07 -0.16,-0.72 0.14,1 -0.27,-0.17 -0.1,0.9 -0.13,-0.95 -0.16,-0.43 -0.28,-1.28 0,0.23 0.05,0.46 0,0.31 v 0.21 c 0,0 0,0 0,0 a 3.69,3.69 0 0 1 0.05,0.37 c 0,0.53 -0.18,0.46 -0.23,0.74 -0.06,-0.13 0,-0.27 0,-0.54 l -0.07,0.41 a 3.86,3.86 0 0 1 0,-1.23 l -0.1,-0.08 c -0.06,-0.34 -0.12,-0.52 -0.18,-0.31 0,-0.15 -0.15,0.58 -0.09,0.15 l -0.18,0.28 v -0.14 c -0.13,-0.16 -0.44,0.85 -0.47,-0.35 -0.07,0.12 -0.15,0.3 -0.21,0.07 l 0.07,-0.56 c -0.09,0.16 -0.07,-0.67 -0.2,-0.1 0.23,-1.55 -0.18,-0.53 -0.22,-0.86 l -0.19,0.75 c -0.05,-0.09 -0.17,0.08 -0.34,0.33 l -0.18,0.67 c -0.24,0.51 -0.08,-0.59 -0.22,-0.59 0.1,-0.26 0.1,-0.17 0.08,0 0.37,-1.63 -0.69,0.93 -0.44,-0.27 -0.12,0.23 -0.11,0.13 -0.07,-0.06 v 0 c 0,0 0,0 0,0 l 0.11,-0.39 a 2.51,2.51 0 0 0 -0.11,0.39 c 0,0 -0.1,0.06 -0.21,0.21 l 0.29,-0.75 v 0 c 0.08,-0.29 -0.17,0.34 -0.38,0.9 q -0.11,0.17 -0.24,0.42 c 0.48,-1.21 -0.28,0.34 0.23,-1 a 17.54,17.54 0 0 0 -1,1.63 c 0.08,-0.17 0.1,-0.26 0.13,-0.25 0,-0.18 0.05,-0.35 -0.17,0 l 0.44,-1 -0.73,1.19 a 7.24,7.24 0 0 1 0.81,-1.63 c -0.71,1 -0.32,0.34 -1,1.35 l 0.34,-0.59 c -0.05,0 -0.59,0.75 -0.33,0.24 0.58,-1.2 -0.39,-0.5 0.11,-1.68 -1.17,1.71 0.45,-0.83 -0.5,0.46 a 7.72,7.72 0 0 1 0.71,-1 c -0.39,0.3 0.35,-0.73 -0.56,0.27 0.3,-0.39 0.47,-0.54 0.65,-0.78 -0.08,0.08 -0.3,0.31 -0.12,0.08 a 3.43,3.43 0 0 1 0.42,-0.47 20.24,20.24 0 0 0 -2.05,2.23 c 0.38,-0.57 0.3,-0.51 -0.36,0.15 a 3.18,3.18 0 0 1 0.76,-0.83 c 0,-0.09 0.25,-0.7 -0.55,0.13 0.19,-0.23 0,-0.12 -0.09,0 0,-0.14 0,-0.21 -0.13,-0.22 l -0.11,0.15 c -1,0.94 -0.3,0.15 -0.48,0.19 l 0.11,-0.09 c 0.6,-0.82 -0.43,0.24 0.29,-0.66 l -0.65,0.57 c -1.44,1.17 0.71,-0.86 0.09,-0.5 l -0.35,0.34 c -0.56,0.32 1.87,-1.68 2,-1.84 a 1.66,1.66 0 0 1 0.32,-0.2 c 0.8,-0.74 -0.92,0.66 -1.2,0.72 a 14.87,14.87 0 0 0 1.32,-1 c 0.4,-0.28 -1.74,1 -0.84,0.24 a 7.11,7.11 0 0 1 -1.08,0.67 c -0.2,0 1.37,-1.08 0.07,-0.4 0.11,-0.07 0.21,-0.14 0.31,-0.19 a 9.33,9.33 0 0 0 -1.37,0.45 c 1.27,-0.7 0.9,-0.61 0.51,-0.53 -0.39,0.08 -0.8,0.16 0.4,-0.38 l -0.22,-0.11 0.25,-0.1 c 0.1,-0.16 -0.5,0 -1.11,0.21 a 2.62,2.62 0 0 1 0.52,-0.2 c 0.4,-0.35 0.29,-0.29 -1,-0.07 l 0.78,-0.26 c -0.48,0.08 1.14,-0.58 0.14,-0.49 l 0.36,-0.07 c -0.51,0 0,-0.21 0.26,-0.34 0.26,-0.13 0.27,-0.2 -1.15,0 h -0.73 c -0.17,0.23 -1.22,0.11 -1.66,0.26 -0.18,-0.08 0.8,-0.33 1,-0.24 h -0.13 c 1.45,-0.12 0.46,-0.31 1.44,-0.38 -0.17,-0.36 0.53,-0.7 0.47,-1 h -1 v -0.13 c 0.23,0 0.77,0 0.75,0.12 0.56,0 -0.5,-0.19 -0.71,-0.22 0.37,-0.13 1.16,0.19 1.17,0.14 l -0.09,-0.07 h -0.11 c -0.41,-0.1 -0.83,-0.16 -0.79,-0.27 a 4.4,4.4 0 0 1 0.61,0 c 0.07,0 0.1,0 0,0 v -0.14 l -0.72,-0.06 c -0.37,-0.14 0,-0.15 -0.79,-0.22 1.26,0.12 0.42,-0.56 0.8,-0.55 -0.47,-0.23 -0.44,-0.34 -0.38,-0.46 -0.13,0 -0.83,-0.19 -0.71,-0.29 1.39,0.48 0.63,0 1.58,0.2 -0.63,-0.13 -0.15,-0.39 -1,-0.57 0.11,-0.07 0.47,0.17 0.77,0.2 -0.45,-0.42 0.3,-0.45 0.14,-0.8 a 1.82,1.82 0 0 1 -0.53,-0.26 l 0.66,0.14 c -0.07,-0.09 -0.71,-0.4 -0.29,-0.3 -0.1,0 -0.25,-0.09 -0.28,-0.15 0.32,-0.16 0.23,-0.53 0.25,-0.88 a 1.17,1.17 0 0 1 0.39,-0.84 c -0.09,0 -0.1,0 -0.09,-0.11 0.01,-0.11 -0.11,-0.08 -0.17,-0.11 a 0.7,0.7 0 0 0 0.2,-0.18 c -0.1,-0.14 0.05,-0.32 0,-0.41 v 0.1 c 0,-0.18 -0.3,0 -0.36,-0.11 0,0.16 -0.33,0.18 -0.35,0.44 0,0 0,-0.06 0,0 0,0.06 0,0.13 -0.11,0.21 v 0 c -0.19,0.28 -0.31,0.37 -0.55,0.68 h 0.07 c -0.05,0.07 -0.08,0.07 -0.11,0.1 -0.03,0.03 0.13,-0.2 0.17,-0.07 -0.17,0 -0.29,0.5 -0.46,0.5 -0.17,0 0.09,0 0,0.11 h -0.06 v 0.06 a 0.14,0.14 0 0 1 -0.15,0.07 c 0,0 0,-0.06 0,-0.08 0,-0.02 -0.13,0.28 -0.16,0.31 l 0.08,-0.1 a 5.22,5.22 0 0 0 -0.38,1 v 0 c 0,0.26 -0.1,0.18 -0.17,0.46 v 0 a 0.41,0.41 0 0 1 0,0.22 c 0,-0.08 -0.12,0.1 -0.14,0 0,0.29 0,0.15 0.09,0.36 h -0.07 a 0.27,0.27 0 0 1 0,0.23 c 0,-0.12 -0.11,0.06 -0.14,-0.08 -0.21,0.26 0,0.46 -0.2,0.55 0.15,0.17 0.15,-0.23 0.17,-0.15 0.02,0.08 0.1,0.14 0.07,0.22 -0.03,0.08 -0.25,0.12 -0.29,0.36 0,0 0,0 0,-0.05 0,-0.05 0,0.18 -0.06,0.28 0.1,0.07 0,0.14 0.12,0.17 v -0.22 c 0,0.13 0.17,0.26 0.07,0.46 A 0.27,0.27 0 0 1 364.14,123 c -0.05,0.06 0,0.12 0,0.18 0,0.06 0,-0.27 -0.09,-0.42 -0.06,0.06 0.07,0.27 -0.07,0.18 0.18,0.12 -0.05,0.24 0.09,0.41 h -0.09 a 0.25,0.25 0 0 1 0.05,0.13 l -0.11,-0.09 c 0.09,0.13 -0.1,0.25 -0.05,0.38 0,-0.27 0.11,-0.06 0.17,-0.17 0.11,0.33 -0.22,0.19 -0.19,0.56 0,0 0.06,-0.19 0.1,-0.11 a 0.68,0.68 0 0 1 -0.1,0.21 c 0,0.25 0.09,0 0.14,0.06 -0.1,0.09 0.05,0.12 0.09,0.22 H 364 c 0,0.28 0.18,0.06 0.14,0.31 l -0.14,-0.09 0.05,0.12 h -0.11 c 0.1,0.13 0.08,0.18 0.07,0.32 0.06,0 0.16,0 0.18,0.11 0.02,0.11 -0.09,0 -0.05,0.14 -0.06,0 -0.14,-0.06 -0.07,-0.15 h -0.09 c -0.05,0.1 0,0.23 0,0.29 a 0.17,0.17 0 0 1 0,-0.07 l 0.17,0.23 c 0,0 -0.06,0 -0.09,0 -0.03,0 0.07,0.08 0.09,0.15 0.02,0.07 -0.15,0 -0.2,-0.08 l 0.12,0.22 c 0,0 -0.05,0.14 -0.09,0.12 0,0.14 0.22,0.29 0.22,0.47 h 0.05 c 0,0.17 0,0.34 0.16,0.5 l -0.09,0.15 c 0.08,0.14 0.11,-0.2 0.24,0 0.13,0.2 -0.08,0.11 -0.09,0.18 -0.01,0.07 0.29,0.15 0.26,0.35 0.18,0.19 0.18,0.12 0.15,0.08 z m 1,1.64 c 0,0 -0.14,-0.05 -0.1,-0.1 0.04,-0.05 0.07,0.03 0.08,0.1 z m 2.09,1.95 c 0,0 -0.06,0 -0.07,-0.09 a 0.16,0.16 0 0 1 0.1,0.09 z m 7.35,-0.42 v 0 c -0.07,-0.24 -0.06,-0.14 -0.02,0 z m 0.12,0.31 a 2,2 0 0 0 0,-0.25 c 0,0.15 0,0.15 -0.07,0.09 -0.01,0.16 0.01,0.28 0.05,0.16 z m -8.26,-8.3 H 367 c -0.19,-0.07 0,-0.07 0.16,0 z"
       transform="translate(-309.55,-44.99)"
       id="path170"
       style="fill:#745131" />
    <path
       class="l"
       d="m 367.63,131.37 c 0,0 0,0 0,-0.05 0,-0.05 -0.02,0.02 0,0.05 z"
       transform="translate(-309.55,-44.99)"
       id="path172"
       style="fill:#745131" />
    <polygon
       class="l"
       points="54.86,81.78 54.88,81.79 54.88,81.78 "
       id="polygon174"
       style="fill:#745131" />
    <path
       class="l"
       d="m 372.78,134 a 0.17,0.17 0 0 1 -0.06,-0.06 c 0,0 0.01,0.06 0.06,0.06 z"
       transform="translate(-309.55,-44.99)"
       id="path176"
       style="fill:#745131" />
    <path
       class="l"
       d="m 376.05,130.7 -0.07,0.1 c 0,0 0,0.12 0.08,0.21 -0.01,-0.12 -0.06,-0.31 -0.01,-0.31 z"
       transform="translate(-309.55,-44.99)"
       id="path178"
       style="fill:#745131" />
    <path
       class="l"
       d="m 377.15,133.87 c 0,0 0,0 0,0 v -0.21 c -0.05,-0.03 -0.07,0.2 0,0.21 z"
       transform="translate(-309.55,-44.99)"
       id="path180"
       style="fill:#745131" />
    <path
       class="l"
       d="m 376.24,132.49 c 0,0.44 0.09,0.3 0.15,0.23 v 0 c -0.04,-0.6 -0.1,-0.42 -0.15,-0.23 z"
       transform="translate(-309.55,-44.99)"
       id="path182"
       style="fill:#745131" />
    <path
       class="l"
       d="m 376.4,132.71 c 0,0 0,0 0.06,0 -0.01,-0.24 -0.03,-0.06 -0.06,0 z"
       transform="translate(-309.55,-44.99)"
       id="path184"
       style="fill:#745131" />
    <path
       class="l"
       d="m 375.58,131.11 c 0,0.13 0,-0.62 0,-0.41 0.05,-0.61 -0.14,0.66 0,0.41 z"
       transform="translate(-309.55,-44.99)"
       id="path186"
       style="fill:#745131" />
    <polygon
       class="l"
       points="66.78,88.85 66.85,88.95 66.79,88.41 "
       id="polygon188"
       style="fill:#745131" />
    <path
       class="l"
       d="m 375.81,133.55 0.12,0.15 a 0.47,0.47 0 0 1 0,-0.19 c -0.05,-0.02 -0.13,-0.14 -0.12,0.04 z"
       transform="translate(-309.55,-44.99)"
       id="path190"
       style="fill:#745131" />
    <path
       class="l"
       d="m 376,133.51 c 0,0 0.07,0 0.09,-0.09 0.02,-0.09 -0.09,0.02 -0.09,0.09 z"
       transform="translate(-309.55,-44.99)"
       id="path192"
       style="fill:#745131" />
    <polygon
       class="l"
       points="66.58,88.97 66.69,88.99 66.66,88.97 "
       id="polygon194"
       style="fill:#745131" />
    <path
       class="l"
       d="m 374.61,133.32 -0.14,0.17 c 0,0.23 0,0.37 0,0.29 a 1.2,1.2 0 0 0 0.14,-0.46 z"
       transform="translate(-309.55,-44.99)"
       id="path196"
       style="fill:#745131" />
    <path
       class="l"
       d="m 374.94,134.11 c 0,0 0,0 -0.06,-0.06 v 0.1 z"
       transform="translate(-309.55,-44.99)"
       id="path198"
       style="fill:#745131" />
    <path
       class="l"
       d="m 374.56,134.12 c 0,0 -0.2,0.07 0,0.07 0.2,0 0.11,-0.04 0,-0.07 z"
       transform="translate(-309.55,-44.99)"
       id="path200"
       style="fill:#745131" />
    <polygon
       class="l"
       points="63.23,88.26 63.13,88.63 63.11,88.67 63.14,88.68 63.43,87.5 "
       id="polygon202"
       style="fill:#745131" />
    <path
       class="l"
       d="m 370.85,133.56 c 0.13,0.1 0.08,-0.1 0.19,0 0.11,0.1 -0.09,-0.09 0,-0.11 -0.14,0.02 -0.18,-0.02 -0.19,0.11 z"
       transform="translate(-309.55,-44.99)"
       id="path204"
       style="fill:#745131" />
    <path
       class="l"
       d="M 371,133.46 Z"
       transform="translate(-309.55,-44.99)"
       id="path206"
       style="fill:#745131" />
    <polygon
       class="l"
       points="57.83,72.52 57.84,72.58 57.87,72.48 "
       id="polygon208"
       style="fill:#745131" />
    <path
       class="l"
       d="m 367.33,117.29 h 0.07 v -0.11 c 0,0 -0.05,0.1 -0.07,0.11 z"
       transform="translate(-309.55,-44.99)"
       id="path210"
       style="fill:#745131" />
    <path
       class="l"
       d="m 365.81,129.91 v 0 c 0,0 0,-0.05 0,-0.09 z"
       transform="translate(-309.55,-44.99)"
       id="path212"
       style="fill:#745131" />
    <polygon
       class="l"
       points="55.69,83.6 55.6,83.67 55.61,83.7 "
       id="polygon214"
       style="fill:#745131" />
    <path
       class="l"
       d="m 364.52,127.65 a 0.91,0.91 0 0 0 0.07,0.14 c -0.06,-0.1 0.05,-0.21 -0.07,-0.14 z"
       transform="translate(-309.55,-44.99)"
       id="path216"
       style="fill:#745131" />
    <path
       class="l"
       d="m 364.61,101.93 c 0.05,0 0,0 0,0 0,0 0.01,0.01 0,0 z"
       transform="translate(-309.55,-44.99)"
       id="path218"
       style="fill:#745131" />
    <path
       class="l"
       d="m 364,102.13 v 0 0.13 z"
       transform="translate(-309.55,-44.99)"
       id="path220"
       style="fill:#745131" />
    <path
       class="l"
       d="m 363.36,102.21 c 0.21,0.28 0.2,-0.07 0.36,0 v 0.05 l -0.06,-0.19 c -0.07,0.04 -0.16,0.21 -0.3,0.14 z"
       transform="translate(-309.55,-44.99)"
       id="path222"
       style="fill:#745131" />
    <path
       class="l"
       d="m 362.66,101.47 c 0.09,0.15 0,0.1 0.1,0.07 v 0 z"
       transform="translate(-309.55,-44.99)"
       id="path224"
       style="fill:#745131" />
    <path
       class="l"
       d="m 362.73,101.5 c 0.06,0 -0.1,-0.13 0,0 z"
       transform="translate(-309.55,-44.99)"
       id="path226"
       style="fill:#745131" />
    <path
       class="l"
       d="m 362.45,101.49 v -0.11 c -0.06,-0.09 -0.15,-0.14 -0.15,-0.2 0,-0.06 0.03,0.14 0.15,0.31 z"
       transform="translate(-309.55,-44.99)"
       id="path228"
       style="fill:#745131" />
    <path
       class="l"
       d="m 362.5,101.77 v -0.06 c 0,0 -0.02,-0.05 0,0.06 z"
       transform="translate(-309.55,-44.99)"
       id="path230"
       style="fill:#745131" />
    <path
       class="l"
       d="m 362.56,101.61 v 0.1 c 0,0.07 0.1,0.2 0,0 0.03,0.09 0,-0.03 0,-0.1 z"
       transform="translate(-309.55,-44.99)"
       id="path232"
       style="fill:#745131" />
    <path
       class="l"
       d="m 362.64,101.68 c 0.09,0.1 0.18,0.15 0.15,0.27 0.14,-0.04 0,-0.28 -0.15,-0.27 z"
       transform="translate(-309.55,-44.99)"
       id="path234"
       style="fill:#745131" />
    <path
       class="l"
       d="m 363.49,102.53 0.11,0.06 v -0.11 c 0,0.06 -0.16,-0.04 -0.11,0.05 z"
       transform="translate(-309.55,-44.99)"
       id="path236"
       style="fill:#745131" />
    <path
       class="l"
       d="m 361.83,101.09 c 0,0.1 0.13,0.29 0.19,0.42 v -0.1 a 1.38,1.38 0 0 1 -0.19,-0.32 z"
       transform="translate(-309.55,-44.99)"
       id="path238"
       style="fill:#745131" />
    <path
       class="l"
       d="m 362,101.51 v 0.15 c 0.09,0.04 0.07,-0.04 0,-0.15 z"
       transform="translate(-309.55,-44.99)"
       id="path240"
       style="fill:#745131" />
    <polygon
       class="l"
       points="53.12,57.24 53.15,57.23 53.16,56.93 "
       id="polygon242"
       style="fill:#745131" />
    <polygon
       class="l"
       points="51.96,56.06 51.95,55.94 51.9,55.69 "
       id="polygon244"
       style="fill:#745131" />
    <path
       class="l"
       d="m 361.3,100.89 c 0,-0.22 -0.17,-0.43 -0.18,-0.56 -0.01,-0.13 0,0.19 0,0.36 0,-0.09 0.06,-0.03 0.18,0.2 z"
       transform="translate(-309.55,-44.99)"
       id="path246"
       style="fill:#745131" />
    <path
       class="l"
       d="m 361.12,100.94 a 1.14,1.14 0 0 0 0,-0.25 1.19,1.19 0 0 0 0,0.25 z"
       transform="translate(-309.55,-44.99)"
       id="path248"
       style="fill:#745131" />
    <path
       class="l"
       d="m 361.83,101.57 a 2.3,2.3 0 0 0 -0.18,-0.34 l 0.14,0.33 z"
       transform="translate(-309.55,-44.99)"
       id="path250"
       style="fill:#745131" />
    <path
       class="l"
       d="m 361.8,101.57 v 0 h -0.07 z"
       transform="translate(-309.55,-44.99)"
       id="path252"
       style="fill:#745131" />
    <path
       class="l"
       d="m 361.84,101.58 v 0 c 0,0 0.01,0.04 0,0 z"
       transform="translate(-309.55,-44.99)"
       id="path254"
       style="fill:#745131" />
    <path
       class="l"
       d="m 362.35,102 a 0.74,0.74 0 0 0 0.17,0.56 4.1,4.1 0 0 1 -0.17,-0.56 z"
       transform="translate(-309.55,-44.99)"
       id="path256"
       style="fill:#745131" />
    <path
       class="l"
       d="m 362,102 0.12,0.08 a 1,1 0 0 1 -0.09,-0.27 z"
       transform="translate(-309.55,-44.99)"
       id="path258"
       style="fill:#745131" />
    <polygon
       class="l"
       points="52.43,56.95 52.47,57.08 52.48,56.98 "
       id="polygon260"
       style="fill:#745131" />
    <path
       class="l"
       d="m 361.37,101.34 c 0,0.14 0,0.14 -0.07,0.16 a 0.4,0.4 0 0 0 0.18,0.14 c -0.02,-0.11 -0.06,-0.3 -0.11,-0.3 z"
       transform="translate(-309.55,-44.99)"
       id="path262"
       style="fill:#745131" />
    <path
       class="l"
       d="m 361.58,101.49 v 0 c 0,0 0.02,0.06 0,0 z"
       transform="translate(-309.55,-44.99)"
       id="path264"
       style="fill:#745131" />
    <path
       class="l"
       d="m 360.87,101.37 v 0.07 z"
       transform="translate(-309.55,-44.99)"
       id="path266"
       style="fill:#745131" />
    <path
       class="l"
       d="m 361.51,101.71 c 0.06,0.08 0.06,0 0,-0.11 a 0.06,0.06 0 0 1 -0.07,0 c 0,0 0.06,0.13 0.07,0.11 z"
       transform="translate(-309.55,-44.99)"
       id="path268"
       style="fill:#745131" />
    <path
       class="l"
       d="m 361.05,101.06 a 2.68,2.68 0 0 0 0.12,0.24 c -0.05,-0.13 -0.17,-0.3 -0.12,-0.24 z"
       transform="translate(-309.55,-44.99)"
       id="path270"
       style="fill:#745131" />
    <path
       class="l"
       d="m 361.54,101.41 v 0 c -0.04,-0.09 -0.02,-0.06 0,0 z"
       transform="translate(-309.55,-44.99)"
       id="path272"
       style="fill:#745131" />
    <path
       class="l"
       d="m 361.54,101.41 a 1.42,1.42 0 0 0 0,0.19 0.12,0.12 0 0 0 0,-0.09 z"
       transform="translate(-309.55,-44.99)"
       id="path274"
       style="fill:#745131" />
    <path
       class="l"
       d="m 361.22,103.78 c 0,0 0,-0.48 0.21,-0.1 a 12.09,12.09 0 0 0 -0.54,-2.24 1.39,1.39 0 0 1 0,0.55 2.48,2.48 0 0 1 0.3,0.85 c -0.07,0.21 -0.12,-0.13 -0.22,-0.34 a 2.12,2.12 0 0 1 0.07,0.64 c 0,0.11 0,0.22 0,0.36 v 0.22 c 0,0 0,0 0,0.06 0,0.06 0.08,0 0.1,-0.08 0.02,-0.08 0.04,0.06 0.08,0.08 z"
       transform="translate(-309.55,-44.99)"
       id="path276"
       style="fill:#745131" />
    <path
       class="l"
       d="m 361.05,101.52 v 0 a 3.82,3.82 0 0 1 -0.23,-0.55 1.94,1.94 0 0 0 0,0.43 l 0.18,0.1 z"
       transform="translate(-309.55,-44.99)"
       id="path278"
       style="fill:#745131" />
    <path
       class="l"
       d="m 361.23,101.53 a 4.07,4.07 0 0 0 0.19,1 c 0.1,0 0,-0.32 0,-0.47 -0.14,0.07 0,-0.21 -0.19,-0.44 a 0.09,0.09 0 0 1 0.06,-0.08 1.74,1.74 0 0 1 -0.13,-0.2 v 0 0 0 0 0.14 c -0.07,-0.09 0,-0.1 0,-0.14 v -0.06 0 l -0.11,0.17 a 0.13,0.13 0 0 0 0.18,0.08 z"
       transform="translate(-309.55,-44.99)"
       id="path280"
       style="fill:#745131" />
    <path
       class="l"
       d="m 362.67,103.19 v -0.07 c 0,0 -0.02,0.07 0,0.07 z"
       transform="translate(-309.55,-44.99)"
       id="path282"
       style="fill:#745131" />
    <path
       class="l"
       d="m 362.53,103 c 0,0 0,-0.17 0,-0.14 0,0.03 0.05,0.14 0.09,0.23 a 0.4,0.4 0 0 0 -0.13,-0.35 v 0 a 1.72,1.72 0 0 1 -0.35,-0.51 7.11,7.11 0 0 0 0.39,0.77 z"
       transform="translate(-309.55,-44.99)"
       id="path284"
       style="fill:#745131" />
    <path
       class="l"
       d="m 361.88,102.47 -0.09,0.18 0.17,0.3 -0.06,-0.18 c 0.1,0.06 0.02,-0.16 -0.02,-0.3 z"
       transform="translate(-309.55,-44.99)"
       id="path286"
       style="fill:#745131" />
    <polygon
       class="l"
       points="51.24,56.33 51.26,56.16 51.18,55.72 "
       id="polygon288"
       style="fill:#745131" />
    <polygon
       class="l"
       points="51.05,55.97 51.11,56.15 51.04,55.75 "
       id="polygon290"
       style="fill:#745131" />
    <path
       class="l"
       d="M 351.85,97.9 V 97.85 Z"
       transform="translate(-309.55,-44.99)"
       id="path292"
       style="fill:#745131" />
    <path
       class="l"
       d="m 351.91,98.25 v 0 c 0,0 0,-0.02 0,0 z"
       transform="translate(-309.55,-44.99)"
       id="path294"
       style="fill:#745131" />
    <path
       class="l"
       d="m 357.92,99.35 c 0.24,-0.57 0.66,-1.44 0.33,-0.79 l -0.33,0.65 c 0.08,-0.1 0.08,-0.01 0,0.14 z"
       transform="translate(-309.55,-44.99)"
       id="path296"
       style="fill:#745131" />
    <path
       class="l"
       d="m 353.39,100.78 v 0 h 0.05 l 0.29,-0.17 c -0.14,0.09 -0.36,0.21 -0.34,0.17 z"
       transform="translate(-309.55,-44.99)"
       id="path298"
       style="fill:#745131" />
    <path
       class="l"
       d="m 353.07,100.93 v -0.11 a 0.45,0.45 0 0 0 0,0.11 z"
       transform="translate(-309.55,-44.99)"
       id="path300"
       style="fill:#745131" />
    <path
       class="l"
       d="m 351.46,96 h -0.09 c 0.01,0.07 0.04,0 0.09,0 z"
       transform="translate(-309.55,-44.99)"
       id="path302"
       style="fill:#745131" />
    <path
       class="l"
       d="m 359.26,100.63 a 1.68,1.68 0 0 0 0,-0.41 c -0.04,0.37 -0.05,0.89 0,0.41 z"
       transform="translate(-309.55,-44.99)"
       id="path304"
       style="fill:#745131" />
    <path
       class="l"
       d="m 356.19,97.16 -0.46,0.06 a 2.15,2.15 0 0 0 0.46,-0.06 z"
       transform="translate(-309.55,-44.99)"
       id="path306"
       style="fill:#745131" />
    <path
       class="l"
       d="m 359.13,100.15 v 0.16 c 0,-0.09 0.07,-0.15 0.09,-0.09 0,-0.22 -0.01,-0.46 -0.09,-0.07 z"
       transform="translate(-309.55,-44.99)"
       id="path308"
       style="fill:#745131" />
    <path
       class="l"
       d="m 352.68,89.13 v 0 c 0,0 0.01,-0.01 0,0 z"
       transform="translate(-309.55,-44.99)"
       id="path310"
       style="fill:#745131" />
    <path
       class="l"
       d="M 354.47,87.91 V 88 c 0,0 0.01,0 0,-0.09 z"
       transform="translate(-309.55,-44.99)"
       id="path312"
       style="fill:#745131" />
    <path
       class="l"
       d="m 360,100.65 c 0,0 0,-0.05 0,0 z"
       transform="translate(-309.55,-44.99)"
       id="path314"
       style="fill:#745131" />
    <path
       class="l"
       d="m 360.39,102.68 c 0,0 0,0.12 0,0.24 0,-0.12 0,-0.2 0,-0.24 z"
       transform="translate(-309.55,-44.99)"
       id="path316"
       style="fill:#745131" />
    <path
       class="l"
       d="M 358.22,103.76 Z"
       transform="translate(-309.55,-44.99)"
       id="path318"
       style="fill:#745131" />
    <path
       class="l"
       d="m 360.1,100.9 a 0.84,0.84 0 0 0 -0.05,-0.17 c 0,0 0.03,0.1 0.05,0.17 z"
       transform="translate(-309.55,-44.99)"
       id="path320"
       style="fill:#745131" />
    <path
       class="l"
       d="m 360.08,100.66 v 0.06 c 0.02,-0.08 0.01,-0.13 0,-0.06 z"
       transform="translate(-309.55,-44.99)"
       id="path322"
       style="fill:#745131" />
    <path
       class="l"
       d="m 360,100.66 c 0,0 0,0 0.05,0.07 0.05,0.07 0,-0.06 0,-0.08 z"
       transform="translate(-309.55,-44.99)"
       id="path324"
       style="fill:#745131" />
    <path
       class="l"
       d="m 351.69,92.75 v 0 c 0,0 -0.01,-0.04 0,0 z"
       transform="translate(-309.55,-44.99)"
       id="path326"
       style="fill:#745131" />
    <polygon
       class="l"
       points="45.33,57.76 45.32,57.77 45.33,57.77 "
       id="polygon328"
       style="fill:#745131" />
    <path
       class="l"
       d="m 354.69,102.71 c 0.12,0 0.15,0 0.18,0 l 0.1,-0.23 z"
       transform="translate(-309.55,-44.99)"
       id="path330"
       style="fill:#745131" />
    <path
       class="l"
       d="m 351.68,97.07 -0.06,0.13 c -0.14,-0.12 -0.11,-0.22 -0.2,-0.1 0.26,0 0.09,0.44 0.36,0.41 v 0.08 c 0,0 0,0 0,0 -0.1,0.17 0.21,0.07 0.21,0.26 0,0.19 0,0.12 -0.08,0.09 l 0.09,0.13 c 0,0 0,0 -0.05,0 l 0.07,0.22 v 0 a 0.64,0.64 0 0 1 0.16,0.11 c 0,0.06 0,0 -0.06,0 l 0.09,0.1 c -0.06,0.07 -0.15,0 -0.15,-0.11 -0.24,0.18 0.08,0.09 0,0.38 L 352,98.66 c -0.13,0.11 -0.06,0.19 -0.11,0.35 0,0 0.16,-0.33 0.26,-0.21 a 0.14,0.14 0 0 0 0.07,0.15 c -0.09,0 -0.05,0.09 0,0.18 h -0.12 c 0.06,0.09 0.12,0.06 0.19,0.1 0.07,0.04 -0.06,0.16 -0.13,0.21 -0.07,0.05 0.11,-0.16 0.2,0 0.09,0.16 0.09,0.24 0.22,0.38 0.13,0.14 -0.08,0 -0.1,0.06 h 0.13 c 0,0 0,0 0,0 0,0 0.12,0 0.2,0 0.08,0 -0.07,0.31 0.14,0.38 0,0 -0.08,0 -0.12,0 a 1.22,1.22 0 0 0 0.37,0.2 v 0.16 c 0,-0.14 0.2,-0.09 0.33,0 v 0 l 0.1,-0.08 0.21,-0.16 0.3,-0.24 0.59,-0.23 a 8.45,8.45 0 0 1 -0.88,0.59 l 0.24,-0.13 -0.27,0.23 -0.17,0.12 v 0 h -0.11 v -0.1 a 0.39,0.39 0 0 0 -0.24,0.06 h 0.07 -0.06 c 0,0 0,0 0.07,0 l -0.09,0.11 h 0.06 l 0.07,0.25 a 1.9,1.9 0 0 1 0.71,0.2 c -0.12,0 -0.14,0.1 -0.23,0.18 0,-0.14 -0.19,-0.12 -0.26,-0.25 0,0.07 0,0.09 -0.05,0.09 l 0.27,0.12 c -0.08,0.06 0,0.09 0,0.17 0.11,-0.18 0.22,0 0.34,0.07 0,0.06 -0.11,0.09 -0.19,0 0,0.2 0.3,0 0.31,0.14 0,0 0,0 -0.06,0 -0.06,0 0.19,0.16 0.12,0.18 v 0 c 0.14,0.15 0.49,0.4 0.61,0.28 a 0.87,0.87 0 0 1 -0.17,0.16 l 0.31,-0.11 h 0.08 v 0 l 0.19,-0.23 0.76,-1 -0.68,1 -0.18,0.27 v 0 0.08 c -0.06,0.09 -0.13,0.18 -0.23,0.16 a 0.23,0.23 0 0 0 0.19,0.11 c 0,0 0,-0.21 0.09,-0.2 a 0.94,0.94 0 0 0 0.08,0.32 c 0,-0.06 0.14,-0.21 0.2,-0.17 0.06,0.04 -0.1,0.19 -0.14,0.2 l 0.28,-0.09 c -0.06,0 -0.1,0.15 -0.09,0.23 0.01,0.08 0.15,0.09 0.21,0.09 l -0.05,-0.08 c 0.18,0.13 0.33,-0.17 0.52,-0.06 -0.05,0 -0.18,0.21 -0.09,0.29 l 0.27,-0.22 v 0 l 0.08,-0.16 0.19,-0.36 L 357,102 a 9.45,9.45 0 0 1 0.48,-0.85 l -0.18,0.5 0.32,-0.5 -0.54,1.15 -0.34,0.68 -0.09,0.17 c 0,0.06 -0.06,0.13 -0.06,0.11 h -0.05 a 2,2 0 0 1 -0.37,0.18 c 0.06,0.08 0,0.08 0.11,0.12 0.11,0.04 -0.1,0 -0.14,0 l 0.26,0.15 c 0,-0.12 0.26,0 0.29,-0.14 h -0.35 a 0.41,0.41 0 0 1 0.49,-0.17 c 0,0.06 -0.11,0.2 -0.13,0.24 -0.02,0.04 0.22,0 0.23,0 h -0.11 c 0.1,0.09 0.23,-0.09 0.33,0.06 0.1,0.15 0.09,0.2 0.12,0.13 a 1,1 0 0 1 0,-0.36 l 0.32,-1 0.35,-1 -0.24,1.72 -0.08,0.35 a 0.24,0.24 0 0 1 -0.06,0.08 c -0.05,0.06 -0.09,0.11 -0.07,0.16 0.02,0.05 0.06,-0.06 0.08,-0.07 0.02,-0.01 -0.05,0.1 0.06,0.11 0.11,0.01 0.21,0.06 0.08,-0.09 0.11,0 0.1,0.05 0.22,0.07 0.12,0.02 0,-0.1 0.09,-0.15 0.09,-0.05 0.05,0 0.13,-0.26 a 2.6,2.6 0 0 1 0.16,-0.39 c 0,0.12 -0.05,0.26 -0.07,0.4 a 1.36,1.36 0 0 0 0,0.24 c 0.21,0 0.31,0.11 0.51,0.14 0,0 0.11,0.08 0.06,0.12 -0.05,0.04 0.06,0 0.12,0 0.06,0 -0.14,0 -0.06,0.14 0,-0.07 0.17,-0.09 0.26,-0.13 0.09,-0.04 -0.2,0 -0.29,0 a 0.36,0.36 0 0 1 0,-0.11 v 0 0 -0.1 l 0.08,-0.39 a 9,9 0 0 1 0.31,-1.15 c 0.14,-0.25 0,0.73 0,0.58 0.27,0.23 0.24,-1.86 0.42,-1 a 15,15 0 0 1 0.06,1.82 c -0.12,0.26 -0.19,-0.43 -0.27,-0.41 l 0.1,0.33 c 0,0.22 -0.13,0.4 -0.18,0.2 a 0.65,0.65 0 0 0 0,0.18 h 0.27 a 2.1,2.1 0 0 1 0.44,0 h 0.06 c 0,0 0,0 0,-0.05 a 1.48,1.48 0 0 0 0,-0.19 l -0.06,0.1 c -0.1,-0.52 0.07,-0.71 0,-1 0.06,-0.36 0.09,-0.89 0.24,-0.59 l 0.1,0.69 c 0,-0.2 -0.13,-0.42 -0.14,-0.21 0,-0.29 0.31,0.94 0.25,0 l -0.15,-0.47 c 0,-0.35 0,-1 0.16,-0.77 -0.15,-0.65 0,0.07 -0.2,-0.71 0.2,1 -0.24,-0.14 0,0.91 -0.19,-0.93 -0.17,-0.42 -0.34,-1.26 0,0.23 0.08,0.45 0,0.3 v 0.21 0 a 3.49,3.49 0 0 1 0.07,0.37 c 0,0.53 -0.11,0.48 -0.14,0.76 a 4.64,4.64 0 0 1 0,-0.54 v 0.41 a 5.22,5.22 0 0 1 -0.07,-1.23 l -0.08,-0.07 c -0.06,-0.34 -0.11,-0.52 -0.15,-0.3 0,-0.15 -0.1,0.59 -0.06,0.15 l -0.13,0.29 v -0.15 c -0.1,-0.16 -0.35,0.89 -0.35,-0.32 -0.05,0.12 -0.12,0.29 -0.15,0.08 L 359,99.71 c -0.08,0.16 0,-0.65 -0.13,-0.09 0.28,-1.54 -0.05,-0.5 -0.05,-0.83 l -0.21,0.74 c 0,-0.08 -0.14,0.09 -0.3,0.34 l -0.21,0.67 c -0.25,0.5 0,-0.58 -0.1,-0.59 0.1,-0.25 0.1,-0.16 0.06,0 0.23,-0.8 0.09,-0.57 -0.1,-0.28 -0.19,0.29 -0.42,0.61 -0.21,0 -0.13,0.22 -0.11,0.12 0,-0.06 v 0 0 l 0.15,-0.38 c -0.07,0.17 -0.13,0.31 -0.15,0.37 -0.02,0.06 -0.09,0.07 -0.2,0.21 l 0.35,-0.72 v 0 c 0.12,-0.29 -0.19,0.32 -0.46,0.86 l -0.26,0.4 c 0.6,-1.16 -0.28,0.32 0.36,-0.91 -0.35,0.57 -0.36,0.33 -1.14,1.54 0.09,-0.16 0.13,-0.24 0.16,-0.24 0,-0.16 0.1,-0.33 -0.15,0 L 357,100 c -0.28,0.37 -0.56,0.75 -0.86,1.11 a 9.92,9.92 0 0 1 1,-1.51 c -0.8,0.94 -0.32,0.32 -1.15,1.24 l 0.42,-0.54 c 0,0 -0.67,0.67 -0.33,0.21 0.34,-0.46 0.33,-0.65 0.28,-0.76 -0.05,-0.11 -0.13,-0.23 0.28,-0.72 -1.5,1.43 0.64,-0.68 -0.55,0.39 0.36,-0.34 0.56,-0.53 0.89,-0.8 -0.4,0.26 0.57,-0.55 -0.52,0.25 l 0.8,-0.61 c -0.08,0.06 -0.34,0.25 -0.11,0.06 l 0.5,-0.37 -2.47,1.74 c 0.51,-0.44 0.44,-0.39 -0.37,0.09 a 4.62,4.62 0 0 1 0.95,-0.61 c 0,-0.08 0.49,-0.51 -0.5,0.06 0.25,-0.16 0.05,-0.09 -0.07,0 0,-0.11 0.11,-0.16 0,-0.19 l -0.15,0.11 c -1.27,0.57 -0.32,0.06 -0.5,0.06 h 0.13 c 0.85,-0.56 -0.48,0.1 0.52,-0.48 l -0.8,0.32 c -1.75,0.62 1,-0.54 0.26,-0.39 l -0.45,0.19 a 20.79,20.79 0 0 1 2.55,-1 c 0.15,0 0.26,0 0.37,-0.08 1,-0.4 -1.08,0.31 -1.36,0.29 0.58,-0.18 1.49,-0.4 1.58,-0.48 0.46,-0.12 -2,0.31 -0.87,-0.06 a 6.23,6.23 0 0 1 -1.25,0.28 c -0.18,-0.07 1.65,-0.59 0.2,-0.38 l 0.35,-0.09 a 7.27,7.27 0 0 0 -1.45,0 c 2.83,-0.58 -1.5,-0.25 1.12,-0.7 l -0.21,-0.23 h 0.27 c 0.12,-0.19 -0.51,-0.14 -1.14,-0.09 a 2.38,2.38 0 0 1 0.55,-0.1 c 0.45,-0.31 0.33,-0.29 -1,-0.29 l 0.82,-0.14 c -0.48,0 1.2,-0.46 0.19,-0.53 h 0.37 c -0.51,0 0,-0.23 0.29,-0.36 0.29,-0.13 0.29,-0.19 -1.14,-0.15 l -0.72,-0.11 c -0.19,0.21 -1.23,0 -1.68,0.13 -0.17,-0.09 0.82,-0.26 1,-0.16 h -0.14 c 1.46,0 0.48,-0.27 1.46,-0.28 -0.14,-0.37 0.57,-0.67 0.52,-1 l -1,-0.07 0.05,-0.12 c 0.23,0 0.77,0 0.74,0.13 0.56,0 -0.5,-0.19 -0.71,-0.23 0.37,-0.11 1.16,0.22 1.18,0.17 L 355,93 h -0.11 c -0.41,-0.1 -0.83,-0.17 -0.79,-0.27 a 3.91,3.91 0 0 1 0.62,0 c 0.06,0 0.09,0 0,0 l 0.05,-0.13 -0.73,-0.07 c -0.36,-0.14 0,-0.14 -0.79,-0.22 1.27,0.13 0.43,-0.51 0.81,-0.49 -0.48,-0.23 -0.46,-0.33 -0.39,-0.44 -0.13,0 -0.83,-0.2 -0.72,-0.29 1.39,0.49 0.63,0 1.57,0.24 -0.62,-0.14 -0.15,-0.36 -1,-0.56 0.11,0 0.47,0.17 0.77,0.22 -0.46,-0.4 0.27,-0.37 0.11,-0.71 a 2.61,2.61 0 0 1 -0.52,-0.27 l 0.65,0.16 c -0.07,-0.09 -0.71,-0.41 -0.28,-0.3 -0.1,0 -0.26,-0.09 -0.29,-0.15 0.32,-0.13 0.22,-0.49 0.23,-0.82 a 1,1 0 0 1 0.36,-0.78 c -0.09,0 -0.1,0 -0.09,-0.11 0.01,-0.11 -0.11,-0.08 -0.17,-0.11 a 0.77,0.77 0 0 0 0.19,-0.16 c -0.1,-0.14 0,-0.31 0,-0.39 v 0.09 c 0,-0.17 -0.29,0 -0.35,-0.12 0,0.15 -0.31,0.16 -0.33,0.4 0,0 0,0 0,0 a 0.22,0.22 0 0 1 -0.1,0.2 v 0 c -0.18,0.26 -0.29,0.34 -0.52,0.63 h 0.07 a 0.35,0.35 0 0 1 -0.11,0.09 c 0,0.12 0.12,-0.18 0.17,-0.06 -0.17,0 -0.28,0.46 -0.44,0.45 -0.16,-0.01 0.08,0 0,0.11 h -0.05 v 0 a 0.14,0.14 0 0 1 -0.14,0.06 0.14,0.14 0 0 0 0,-0.07 c -0.09,0.07 -0.11,0.26 -0.14,0.28 l 0.07,-0.09 a 4.19,4.19 0 0 0 -0.36,1 v 0 c 0,0.24 -0.11,0.16 -0.17,0.42 v 0 a 0.25,0.25 0 0 1 0,0.19 c 0,-0.07 -0.11,0.1 -0.13,0 0,0.27 0,0.14 0.09,0.34 h -0.06 a 0.26,0.26 0 0 1 0,0.21 c 0,-0.11 -0.11,0.06 -0.15,-0.07 -0.2,0.23 0,0.42 -0.18,0.5 0.14,0.16 0.14,-0.21 0.16,-0.13 0.02,0.08 0.11,0.12 0.07,0.2 -0.04,0.08 -0.25,0.11 -0.28,0.32 0,0 0,0 0,0 0,0 0,0.17 -0.06,0.26 0.1,0.07 0,0.13 0.11,0.16 v -0.2 c 0,0.12 0.17,0.24 0.07,0.42 a 0.36,0.36 0 0 1 -0.08,-0.12 c 0,0 0,0.11 0,0.16 0,0.05 0,-0.25 -0.09,-0.38 -0.06,0 0.07,0.24 -0.07,0.16 0.18,0.11 -0.06,0.22 0.08,0.38 h -0.08 a 0.42,0.42 0 0 1 0,0.12 l -0.11,-0.08 c 0.09,0.12 -0.1,0.23 -0.06,0.35 0,-0.25 0.11,0 0.18,-0.15 0.09,0.3 -0.23,0.16 -0.21,0.5 0,0 0.06,-0.17 0.09,-0.1 a 0.49,0.49 0 0 1 -0.1,0.19 c 0,0.23 0.09,0 0.14,0.06 -0.11,0.08 0,0.11 0.07,0.21 h -0.08 c -0.06,0.26 0.18,0.07 0.12,0.3 l -0.13,-0.1 v 0.12 h -0.11 a 0.33,0.33 0 0 1 0,0.3 c 0.06,0 0.16,0 0.17,0.12 0.01,0.12 -0.08,0 -0.06,0.12 -0.06,0 -0.13,-0.07 0,-0.14 0.13,-0.07 -0.06,0 -0.09,0 -0.03,0 0,0.21 0,0.27 a 0.08,0.08 0 0 1 0,-0.07 l 0.14,0.22 c 0,0 -0.06,0 -0.09,0 -0.03,0 0.06,0.07 0.07,0.14 0.01,0.07 -0.15,0 -0.19,-0.09 l 0.1,0.21 c 0,0 -0.08,0.12 -0.11,0.1 -0.03,-0.02 0.18,0.28 0.14,0.44 a 0.1,0.1 0 0 1 0,0.06 c 0,0.15 -0.07,0.3 0.06,0.46 l -0.12,0.12 c 0.05,0.13 0.15,-0.17 0.24,0 0.09,0.17 -0.11,0.08 -0.14,0.14 -0.03,0.06 0.24,0.19 0.16,0.35 0.12,-0.15 0.14,-0.19 0.12,-0.24 z m 0.39,1.69 c 0,0 -0.1,-0.08 -0.05,-0.12 0.05,-0.04 0.07,0.05 0.05,0.12 z m 1.32,2.33 c 0,0 -0.05,0 -0.05,-0.1 a 0.11,0.11 0 0 1 0.05,0.1 z m 6.36,-0.14 v 0 c -0.05,-0.23 -0.03,-0.13 0,0.05 z m 0.11,0.31 a 1.92,1.92 0 0 0 0,-0.24 c 0,0.14 0,0.14 -0.05,0.09 0.01,0.16 0.03,0.27 0.05,0.15 z m -5.38,-8.55 h -0.16 c -0.18,-0.08 -0.02,-0.04 0.16,0 z"
       transform="translate(-309.55,-44.99)"
       id="path332"
       style="fill:#745131" />
    <path
       class="l"
       d="m 353.11,100.92 v 0 c 0,0 0,-0.04 0,0 z"
       transform="translate(-309.55,-44.99)"
       id="path334"
       style="fill:#745131" />
    <polygon
       class="l"
       points="41.91,51.03 41.93,51.04 41.93,51.03 "
       id="polygon336"
       style="fill:#745131" />
    <path
       class="l"
       d="m 357.54,104 c 0,0 0,0 0,-0.06 0,-0.06 -0.04,0 0,0.06 z"
       transform="translate(-309.55,-44.99)"
       id="path338"
       style="fill:#745131" />
    <path
       class="l"
       d="m 360.31,100.57 v 0.11 c 0,0 0.05,0.11 0.08,0.2 a 1.27,1.27 0 0 1 -0.08,-0.31 z"
       transform="translate(-309.55,-44.99)"
       id="path340"
       style="fill:#745131" />
    <path
       class="l"
       d="m 361.59,103.65 c 0,0 0,0 0,0 l -0.06,-0.21 c -0.02,-0.03 -0.01,0.2 0.06,0.21 z"
       transform="translate(-309.55,-44.99)"
       id="path342"
       style="fill:#745131" />
    <path
       class="l"
       d="m 360.63,102.34 c 0.07,0.44 0.11,0.29 0.15,0.21 0.04,-0.08 0,0 0,0 -0.09,-0.55 -0.12,-0.41 -0.15,-0.21 z"
       transform="translate(-309.55,-44.99)"
       id="path344"
       style="fill:#745131" />
    <path
       class="l"
       d="m 360.79,102.54 c 0,0 0,0 0.06,0 -0.04,-0.24 -0.03,-0.06 -0.06,0 z"
       transform="translate(-309.55,-44.99)"
       id="path346"
       style="fill:#745131" />
    <path
       class="l"
       d="m 360,101 c 0,0.13 0,-0.62 0,-0.41 0,-0.59 -0.12,0.68 0,0.41 z"
       transform="translate(-309.55,-44.99)"
       id="path348"
       style="fill:#745131" />
    <polygon
       class="l"
       points="51.28,58.69 51.36,58.78 51.25,58.25 "
       id="polygon350"
       style="fill:#745131" />
    <path
       class="l"
       d="m 360.33,103.41 0.12,0.16 a 0.56,0.56 0 0 1 0,-0.2 c -0.06,-0.02 -0.13,-0.13 -0.12,0.04 z"
       transform="translate(-309.55,-44.99)"
       id="path352"
       style="fill:#745131" />
    <path
       class="l"
       d="m 360.46,103.37 c 0,0 0.06,0 0.07,-0.1 a 0.14,0.14 0 0 0 -0.07,0.1 z"
       transform="translate(-309.55,-44.99)"
       id="path354"
       style="fill:#745131" />
    <polygon
       class="l"
       points="51.1,58.83 51.22,58.83 51.18,58.82 "
       id="polygon356"
       style="fill:#745131" />
    <path
       class="l"
       d="m 359.24,103.24 -0.12,0.18 c 0,0.23 0,0.37 0,0.28 a 1.19,1.19 0 0 0 0.12,-0.46 z"
       transform="translate(-309.55,-44.99)"
       id="path358"
       style="fill:#745131" />
    <path
       class="l"
       d="m 359.56,104 c 0,0 0,0 -0.05,-0.06 v 0.1 z"
       transform="translate(-309.55,-44.99)"
       id="path360"
       style="fill:#745131" />
    <path
       class="l"
       d="m 359.21,104 c 0,0 -0.18,0.08 0,0.08 0.18,0 0.11,-0.01 0,-0.08 z"
       transform="translate(-309.55,-44.99)"
       id="path362"
       style="fill:#745131" />
    <polygon
       class="l"
       points="48.03,58.21 47.92,58.58 47.9,58.62 47.93,58.63 48.26,57.46 "
       id="polygon364"
       style="fill:#745131" />
    <path
       class="l"
       d="m 355.76,103.44 c 0.12,0.11 0.09,-0.09 0.18,0 0.09,0.09 -0.07,-0.09 0,-0.11 -0.12,0.03 -0.15,-0.02 -0.18,0.11 z"
       transform="translate(-309.55,-44.99)"
       id="path366"
       style="fill:#745131" />
    <path
       class="l"
       d="M 355.92,103.35 Z"
       transform="translate(-309.55,-44.99)"
       id="path368"
       style="fill:#745131" />
    <polygon
       class="l"
       points="45.03,42.56 45.04,42.62 45.07,42.52 "
       id="polygon370"
       style="fill:#745131" />
    <path
       class="l"
       d="m 354.52,87.34 h 0.07 v -0.1 c 0,0 -0.05,0.09 -0.07,0.1 z"
       transform="translate(-309.55,-44.99)"
       id="path372"
       style="fill:#745131" />
    <path
       class="l"
       d="m 351.89,99.08 v 0 c 0,0 0,0 0,-0.09 z"
       transform="translate(-309.55,-44.99)"
       id="path374"
       style="fill:#745131" />
    <polygon
       class="l"
       points="42.27,52.77 42.16,52.81 42.16,52.84 "
       id="polygon376"
       style="fill:#745131" />
    <path
       class="l"
       d="m 351.39,96.8 a 0.65,0.65 0 0 0 0,0.13 c 0,-0.09 0.14,-0.16 0,-0.13 z"
       transform="translate(-309.55,-44.99)"
       id="path378"
       style="fill:#745131" />
    <g
       class="i"
       id="g382"
       style="opacity:0.81;mix-blend-mode:multiply">
      <path
         class="j"
         d="m 383,130.25 c 4.11,6.19 -1.51,8 -6.81,8.49 a 26.91,26.91 0 0 1 -13.45,-2.47 c -10.3,-4.75 -19.19,-13.59 -22.56,-24.66 a 26.64,26.64 0 0 1 7,-26 c 3,-3.09 9.7,-6.72 13.11,-2.31 a 9.25,9.25 0 0 1 1.36,6.62 h -0.3 c 0,-4.66 -2.4,-9 -7.59,-6.65 -4,1.59 -6.74,5.31 -8.74,9 -9.2,16.27 4.05,34.58 18.78,41.94 5.58,2.8 12.62,4.19 18.56,1.83 2,-1.15 1.3,-3.92 0.36,-5.59 l 0.26,-0.15 z"
         transform="translate(-309.55,-44.99)"
         id="path380"
         style="fill:#231f20" />
    </g>
    <path
       class="k"
       d="m 383,130.25 c 4.11,6.19 -1.51,8 -6.81,8.49 a 26.91,26.91 0 0 1 -13.45,-2.47 c -10.3,-4.75 -19.19,-13.59 -22.56,-24.66 a 26.64,26.64 0 0 1 7,-26 c 3,-3.09 9.7,-6.72 13.11,-2.31 a 9.25,9.25 0 0 1 1.36,6.62 h -0.3 c 0,-4.66 -2.4,-9 -7.59,-6.65 -4,1.59 -6.74,5.31 -8.74,9 -9.2,16.27 4.05,34.58 18.78,41.94 5.58,2.8 12.62,4.19 18.56,1.83 2,-1.15 1.3,-3.92 0.36,-5.59 l 0.26,-0.15 z"
       transform="translate(-309.55,-44.99)"
       id="path384"
       style="fill:#603813" />
    <path
       class="m"
       d="m 371.72,116.48 c -5.29,-0.36 -9.47,3.64 -7.86,9 1.37,4.77 6.15,7.39 10.74,8.42 1.5,0.34 3.2,0.87 4.67,0.3 a 4.05,4.05 0 0 0 2.63,-3.68 4.19,4.19 0 0 1 -2.43,4.13 c -1.61,0.74 -3.4,0.28 -5.05,0 a 18.21,18.21 0 0 1 -4.8,-1.51 c -3.85,-1.73 -7.17,-5.57 -6.94,-10 -0.06,-4.67 4.79,-7.54 9,-6.64 z"
       transform="translate(-309.55,-44.99)"
       id="path386"
       style="fill:#673915" />
    <path
       class="m"
       d="m 366.09,101.5 c -3.09,4.63 -10.09,4.55 -13.53,0.31 -3.06,-3.4 -2.62,-8.66 -0.24,-12.29 0.9,-1.45 1.81,-3.14 3.53,-3.79 3,-1.31 4.95,1.24 5.47,3.94 -0.75,-2.33 -2.6,-4.71 -5.24,-3.35 -1.46,0.64 -2.2,2.29 -3,3.63 -2.07,3.43 -2.53,8.07 0.21,11.25 a 8.32,8.32 0 0 0 12.8,0.3 z"
       transform="translate(-309.55,-44.99)"
       id="path388"
       style="fill:#673915" />
    <path
       class="n"
       d="m 407.62,184.47 c -1.52,-0.4 -4.1,-0.76 -4.1,-0.76 a 15.7,15.7 0 0 0 1,3.84 z"
       transform="translate(-309.55,-44.99)"
       id="path390"
       style="fill:#37b34a;stroke:#006838;stroke-miterlimit:10" />
    <path
       class="n"
       d="m 396.47,195.62 q 2.5,-2.52 5,-5 c -4.1,-0.18 -14.06,2.1 -10.56,1.46 2.74,1.78 4.47,2.92 5.56,3.54 z"
       transform="translate(-309.55,-44.99)"
       id="path392"
       style="fill:#37b34a;stroke:#006838;stroke-miterlimit:10" />
    <path
       class="n"
       d="m 398.46,193.63 -7.17,-1.27 c 2.15,0.7 4.33,1.33 6.52,1.92 z"
       transform="translate(-309.55,-44.99)"
       id="path394"
       style="fill:#37b34a;stroke:#006838;stroke-miterlimit:10" />
    <path
       class="n"
       d="m 341.88,207.9 a 14.87,14.87 0 0 1 -12.36,2.92 v 0 a 9.59,9.59 0 0 1 3,-3.48 10.73,10.73 0 0 1 2.44,-0.93 c -0.05,-0.31 -6.38,2.08 -10.4,-0.63 -3,-2 -4.73,-7 -4.73,-7 a 16.44,16.44 0 0 1 4.27,-0.71 c 2.65,0 4.13,1.45 4.41,1.08 0.28,-0.37 -2.05,-2.06 -4.2,-5.34 a 76.12,76.12 0 0 1 -3.59,-7.74 c -3.42,-1.44 7.2,2.49 10.06,4.86 1.9,1.58 3,3.19 3.6,2.88 0.42,-0.23 -0.1,-1.17 0.07,-3.1 a 14.78,14.78 0 0 1 1.38,-4.76 38.51,38.51 0 0 1 3.32,3.23 c 3,3.74 0.67,10.53 0.86,10.56 a 10.86,10.86 0 0 1 1.69,-5.05 22.24,22.24 0 0 1 3.71,-3.37 c 2.45,6.18 0.88,12.91 -3.53,16.58 z"
       transform="translate(-309.55,-44.99)"
       id="path396"
       style="fill:#37b34a;stroke:#006838;stroke-miterlimit:10" />
    <path
       class="n"
       d="m 320.84,186.54 a 136.2,136.2 0 0 0 27.66,25.94"
       transform="translate(-309.55,-44.99)"
       id="path398"
       style="fill:#37b34a;stroke:#006838;stroke-miterlimit:10" />
    <path
       class="o"
       d="m 327.67,202 a 7.19,7.19 0 0 0 8.41,-7.6 5.5,5.5 0 0 1 0.21,3.5 c -0.76,3.67 -5.4,5.86 -8.62,4.1 z"
       transform="translate(-309.55,-44.99)"
       id="path400"
       style="fill:#006838" />
    <path
       class="o"
       d="m 333.9,207.36 a 6.39,6.39 0 0 0 8.4,-6.81 5.12,5.12 0 0 1 0.29,3.48 c -0.76,3.71 -5.76,5.58 -8.69,3.33 z"
       transform="translate(-309.55,-44.99)"
       id="path402"
       style="fill:#006838" />
    <path
       class="p"
       d="m 384,140.6 6.48,9.72"
       transform="translate(-309.55,-44.99)"
       id="path404"
       style="fill:#ffff80" />
    <path
       class="p"
       d="m 382.63,141.22 6.48,9.72 c 0.68,1 3.46,-0.05 2.66,-1.24 l -6.48,-9.7 c -0.68,-1 -3.46,0.05 -2.66,1.24 z"
       transform="translate(-309.55,-44.99)"
       id="path406"
       style="fill:#ffff80" />
    <path
       class="p"
       d="m 339.67,129.8 1.85,20.45"
       transform="translate(-309.55,-44.99)"
       id="path408"
       style="fill:#ffff80" />
    <path
       class="p"
       d="m 338.22,130.19 1.86,20.45 c 0.1,1.19 3,0.52 2.89,-0.78 l -1.86,-20.45 c -0.1,-1.19 -3,-0.52 -2.89,0.78 z"
       transform="translate(-309.55,-44.99)"
       id="path410"
       style="fill:#ffff80" />
    <path
       class="p"
       d="m 372.16,210.92 -25.8,17.46"
       transform="translate(-309.55,-44.99)"
       id="path412"
       style="fill:#ffff80" />
    <path
       class="p"
       d="m 371.22,210.34 -25.79,17.47 c -0.49,0.33 -0.75,1 -0.2,1.36 a 2.06,2.06 0 0 0 2.07,-0.21 l 25.8,-17.47 c 0.49,-0.33 0.75,-1 0.19,-1.36 a 2.06,2.06 0 0 0 -2.07,0.21 z"
       transform="translate(-309.55,-44.99)"
       id="path414"
       style="fill:#ffff80" />
    <path
       class="p"
       d="m 329.75,112.52 h 3.45"
       transform="translate(-309.55,-44.99)"
       id="path416"
       style="fill:#ffff80" />
    <path
       class="p"
       d="m 329.64,113.63 h 3.44 a 2,2 0 0 0 1.09,-0.4 1.23,1.23 0 0 0 0.5,-0.81 0.84,0.84 0 0 0 -0.36,-0.76 1.65,1.65 0 0 0 -1,-0.25 h -3.45 a 2,2 0 0 0 -1.09,0.4 1.27,1.27 0 0 0 -0.5,0.81 0.84,0.84 0 0 0 0.36,0.76 1.68,1.68 0 0 0 1,0.25 z"
       transform="translate(-309.55,-44.99)"
       id="path418"
       style="fill:#ffff80" />
    <path
       class="p"
       d="M 390.45,110.43 411,108.3"
       transform="translate(-309.55,-44.99)"
       id="path420"
       style="fill:#ffff80" />
    <path
       class="p"
       d="m 389.81,111 20.52,-2.13 c 0.51,0 1.63,-0.2 1.94,-0.67 0.31,-0.47 -0.27,-0.43 -0.66,-0.39 l -20.52,2.13 c -0.51,0.06 -1.63,0.21 -1.95,0.67 -0.32,0.46 0.28,0.43 0.67,0.39 z"
       transform="translate(-309.55,-44.99)"
       id="path422"
       style="fill:#ffff80" />
    <path
       class="p"
       d="m 420.68,138.44 10.8,8.64"
       transform="translate(-309.55,-44.99)"
       id="path424"
       style="fill:#ffff80" />
    <path
       class="p"
       d="m 419.54,139.2 10.8,8.64 c 0.84,0.66 3.47,-0.56 2.28,-1.52 l -10.8,-8.64 c -0.84,-0.66 -3.47,0.56 -2.28,1.52 z"
       transform="translate(-309.55,-44.99)"
       id="path426"
       style="fill:#ffff80" />
    <path
       class="p"
       d="m 411.67,178.35 -2.87,-3.19 a 27.29,27.29 0 0 0 2.27,3.73 z"
       transform="translate(-309.55,-44.99)"
       id="path428"
       style="fill:#ffff80" />
    <path
       class="p"
       d="m 413,177.79 -2.5,-2.79 -0.35,-0.39 a 1.16,1.16 0 0 0 -0.78,-0.25 3.05,3.05 0 0 0 -0.95,0.16 2.11,2.11 0 0 0 -0.78,0.42 c -0.14,0.13 -0.4,0.4 -0.29,0.62 a 28.76,28.76 0 0 0 2.37,3.9 0.86,0.86 0 0 0 0.46,0.22 2.21,2.21 0 0 0 0.68,0 2.64,2.64 0 0 0 1.37,-0.56 l 0.6,-0.54 a 0.69,0.69 0 0 0 0.29,-0.62 c -0.06,-0.23 -0.35,-0.35 -0.56,-0.39 a 2.62,2.62 0 0 0 -2.05,0.55 l -0.6,0.54 2.5,-0.34 c -0.52,-0.73 -1,-1.48 -1.47,-2.26 l 0.1,0.18 c -0.28,-0.48 -0.54,-1 -0.79,-1.47 l -2.8,0.95 2.52,2.8 0.36,0.39 a 1.1,1.1 0 0 0 0.78,0.25 2.6,2.6 0 0 0 1.13,-0.23 c 0.35,-0.15 1.22,-0.65 0.76,-1.14 z"
       transform="translate(-309.55,-44.99)"
       id="path430"
       style="fill:#ffff80" />
  </g>
</svg>
