<?xml version="1.0" encoding="UTF-8" standalone="no"?>
<svg
   viewBox="0 0 213.40545 246.71569"
   version="1.1"
   id="svg636"
   sodipodi:docname="pizza_peace_6.svg"
   width="213.40546"
   height="246.71568"
   inkscape:version="1.2.2 (b0a8486541, 2022-12-01)"
   xmlns:inkscape="http://www.inkscape.org/namespaces/inkscape"
   xmlns:sodipodi="http://sodipodi.sourceforge.net/DTD/sodipodi-0.dtd"
   xmlns="http://www.w3.org/2000/svg"
   xmlns:svg="http://www.w3.org/2000/svg">
  <sodipodi:namedview
     id="namedview638"
     pagecolor="#ffffff"
     bordercolor="#000000"
     borderopacity="0.25"
     inkscape:showpageshadow="2"
     inkscape:pageopacity="0.0"
     inkscape:pagecheckerboard="0"
     inkscape:deskcolor="#d1d1d1"
     showgrid="false"
     inkscape:zoom="1.9776075"
     inkscape:cx="115.03799"
     inkscape:cy="195.69101"
     inkscape:window-width="1920"
     inkscape:window-height="1011"
     inkscape:window-x="0"
     inkscape:window-y="32"
     inkscape:window-maximized="1"
     inkscape:current-layer="svg636" />
  <defs
     id="defs4">
    <style
       id="style2">.a{fill:#f9bb21;stroke:#a86d18;}.a,.b,.c,.d,.e,.m{stroke-miterlimit:10;}.b{fill:#ffcc5a;stroke:#ed6e18;}.c{fill:#fff0b3;stroke:#e5ba41;}.d{fill:#ee4036;stroke:#be1e2d;stroke-width:3px;}.e{fill:#eee991;stroke:#c2a56b;}.f{fill:#8a5d3b;}.g{fill:#e6e7e8;}.h{fill:#745131;}.i{fill:#603813;}.j{fill:#673915;}.k{opacity:0.81;}.l{fill:#231f20;}.m{fill:#37b34a;stroke:#006838;}.n{fill:#006838;}.o{fill:#ffff80;}</style>
  </defs>
  <path
     class="a"
     d="m 53.264794,218.16566 c 14.63,-9.39 28.78,-19.49 42.9,-29.62 14.429996,-10.36 29.499996,-19.86 44.489996,-29.37 23.83,-15.11 48,-29.73 72.05,-44.4 A 252.26,252.26 0 0 0 4.3747943,0.50565514 c -0.2,35.21999986 -1.49,70.41999986 -2.31,105.64000486 -1.08999998,46.61 -0.36,93.19 0.81,139.77 a 386.88,386.88 0 0 0 50.3899997,-27.75 z"
     id="path6"
     style="fill:#f9bb21;stroke:#a86d18;stroke-miterlimit:10" />
  <path
     class="b"
     d="m 53.264794,218.16566 c 14.63,-9.39 28.78,-19.49 42.9,-29.62 14.429996,-10.36 29.499996,-19.86 44.489996,-29.37 16.36,-10.37 32.87,-20.52 49.4,-30.61 A 228.29,228.29 0 0 0 4.0547943,24.565655 c -0.48,27.21 -1.4,54.4 -2,81.610005 -1.08999998,46.61 -0.36,93.19 0.81,139.77 a 386.88,386.88 0 0 0 50.3999997,-27.78 z"
     id="path8"
     style="fill:#ffcc5a;stroke:#ed6e18;stroke-miterlimit:10" />
  <path
     class="c"
     d="m 53.264794,218.16566 c 14.63,-9.39 28.78,-19.49 42.9,-29.62 14.429996,-10.36 29.499996,-19.86 44.489996,-29.37 q 11.13,-7.06 22.34,-14 c -1.33,-2.63 -2.47,-4.62 -3.12,-5.72 -9.09,-15.37 -21.37,-24.09 -27,-28 -20,-13.930009 -26.81,-7.69 -43.999996,-21.000005 -15.67,-12.13 -13.6,-20.06 -30,-29 -9.81,-5.35 -19.21,-7.24 -28,-9 -12.92,-2.56 -20.32,-4.06 -27.3699997,-2.86 -0.48,18.85 -1.05,37.69 -1.49,56.540005 -1.08999998,46.61 -0.36,93.19 0.81,139.77 a 386.88,386.88 0 0 0 50.4399997,-27.74 z"
     id="path10"
     style="fill:#fff0b3;stroke:#e5ba41;stroke-miterlimit:10" />
  <path
     class="d"
     d="m 5.8047943,163.43566 a 23.29,23.29 0 0 0 -4.3,0.42 c 0.09,23.29 0.48,46.58 1,69.87 a 26.67,26.67 0 0 0 5,0.2 c 13.9999997,-0.79 31.6399997,-13.86 32.4599997,-32.15 0.83,-19.41 -17.52,-38.35 -34.1599997,-38.34 z"
     id="path12"
     style="fill:#ee4036;stroke:#be1e2d;stroke-width:3px;stroke-miterlimit:10" />
  <path
     class="d"
     d="m 77.934794,120.52566 c -0.82,18.29 -18.46,31.36 -32.46,32.15 -15.6,0.88 -35,-13 -35.7999997,-32.15 -0.82,-19.33 17.4899997,-38.330005 34.1299997,-38.340005 16.64,-0.01 34.99,18.930005 34.13,38.340005 z"
     id="path14"
     style="fill:#ee4036;stroke:#be1e2d;stroke-width:3px;stroke-miterlimit:10" />
  <path
     class="d"
     d="m 140.65479,159.17566 q 5.37,-3.4 10.75,-6.77 c -11.14,-1.05 -22.67,3 -29.21,10.14 a 33.16,33.16 0 0 0 -7,13 c 8.41,-5.6 16.95,-10.97 25.46,-16.37 z"
     id="path16"
     style="fill:#ee4036;stroke:#be1e2d;stroke-width:3px;stroke-miterlimit:10" />
  <path
     class="e"
     d="m 21.894794,236.59566 c 10.72,-5.67 21.16,-11.87 31.37,-18.43 q 2.42,-1.54 4.81,-3.12 c 2.87,-6.53 3.4,-14.84 0.27,-15.79 -1.67,-0.52 -4.72,1.06 -4.74,1.39 -0.02,0.33 1.49,0.17 1.77,0.88 0.28,0.71 -0.73,1.81 -1.17,2.28 -2.29,2.42 -5.43,3.18 -9.4,4.12 -3.97,0.94 -4.75,0.6 -5.11,0.25 -0.82,-0.79 -0.23,-2.39 -0.05,-2.92 2.13,-6.16 0.92,-22.1 -5,-23.86 -0.72,-0.23 -0.63,0.19 -7,1.19 -5.82,0.9 -5.93,0.45 -6.68,1 -4.38,3.14 -1.1,17.45 0.29,23.52 0.35,1.56 1.23,5.17 -0.82,6.9 -0.81,0.65 -1.39,0.51 -4,1.15 -5.05,1.22 -7.3299997,2.83 -7.9999997,2.1 -0.44,-0.44 -0.05,-1.46 0.56,-2 1,-0.89 2.6499997,-0.27 2.8399997,-0.67 0.19,-0.4 -1.9399997,-2 -4.5299997,-1.55 a 7.61,7.61 0 0 0 -4.48,2.73 4,4 0 0 0 -0.65,2 c 0,0.52 0,1 0,1.55 0.78,5.97 8.0499997,15.63 19.7199997,17.28 z"
     id="path20"
     style="fill:#eee991;stroke:#c2a56b;stroke-miterlimit:10" />
  <path
     class="f"
     d="m 38.984794,208.64566 c -1.26,1 -0.61,5.74 1.9,8.27 a 7.28,7.28 0 0 0 7,1.81 9.41,9.41 0 0 0 4,-2.65 10.85,10.85 0 0 0 4.21,-4.44 28,28 0 0 0 1.28,-3.69 10.29,10.29 0 0 0 0.56,-2.85 5,5 0 0 0 -0.4,-2.45 3.52,3.52 0 0 0 -2.84,-2 2.18,2.18 0 0 1 0.68,0.84 3.12,3.12 0 0 1 -0.46,2.41 5,5 0 0 1 -1.57,1.39 13,13 0 0 1 -2.53,1.4 19.73,19.73 0 0 1 -3.45,1 c -3.52,0.78 -5.31,1.17 -6.53,1 -1.22,-0.17 -1.46,-0.34 -1.85,-0.04 z"
     id="path22"
     style="fill:#8a5d3b" />
  <path
     class="f"
     d="m 21.824794,210.94566 c 1.27,-0.37 4.56,4.41 3.39,8.77 a 9.33,9.33 0 0 1 -2.56,4.1 8.37,8.37 0 0 1 -2.75,1.75 8,8 0 0 1 -4.56,0.16 14.52,14.52 0 0 1 -6.2599997,-2.81 15.8,15.8 0 0 1 -1.48,-1.47 6.43,6.43 0 0 1 -0.9,-1.24 5.77,5.77 0 0 1 -0.66,-2.44 c 0.12,-2.22 4.8099997,-3.91 4.9399997,-3.63 0.13,0.28 -2.9999997,2 -2.7699997,2.8 0,0.08 0.15,0.38 1.43,0.37 a 10.73,10.73 0 0 0 4.2699997,-1.11 c 3.71,-1.5 4.88,-0.17 6.31,-1.73 1.43,-1.56 0.85,-3.33 1.6,-3.52 z"
     id="path24"
     style="fill:#8a5d3b" />
  <path
     class="g"
     d="m 36.294794,208.38566 a 11.82,11.82 0 0 0 0.68,8.45 c 2,3.83 5.66,6.07 9.36,5.7 l 1.44,-0.89 c -4,1.16 -8,-1.06 -10.08,-5.17 a 10.87,10.87 0 0 1 -0.43,-7.89 32,32 0 0 0 0.61,-8.45 67.71,67.71 0 0 0 -3.15,-16.5 c 0.77,5.3 2.15,11 2.15,16.54 a 36.46,36.46 0 0 1 -0.58,8.21 z"
     id="path26"
     style="fill:#e6e7e8" />
  <path
     class="g"
     d="m 53.264794,218.16566 0.27,-0.17 a 24,24 0 0 0 5,-12.63 v 0 c -0.89,4.77 -2.76,10.08 -6.52,13.57 z"
     id="path28"
     style="fill:#e6e7e8" />
  <path
     class="g"
     d="m 33.624794,214.78566 a 14.54,14.54 0 0 0 7.68,10.83 l 0.28,-0.18 c -6,-3.44 -7.83,-8.67 -7.83,-17.15 0,-8.48 0.3,-17.37 -2.13,-25.73 0.24,4.08 1,8.6 1,12.84 0.18,6.44 0,12.99 1,19.39 z"
     id="path30"
     style="fill:#e6e7e8" />
  <path
     class="g"
     d="m 35.284794,229.16566 c -1.32,-6.67 -2.69,-13.54 -3.64,-20.32 -1.17,-8.38 -2,-16.77 -2.88,-25.2 h -0.1 c -0.26,15.43 2.82,30.68 6.42,45.64 z"
     id="path32"
     style="fill:#e6e7e8" />
  <path
     class="g"
     d="m 9.0347943,213.39566 c -6.58,2 -4.63,7.6 -1.45,11.86 5.8399997,8.33 14.6399997,7.75 19.0899997,-1.44 2.88,-6.3 -1.11,-12.86 -2.29,-19.12 -1.42,-6.46 -2.51,-13.48 -2.13,-19.9 a 110.85,110.85 0 0 0 3.1,19.66 c 1.35,6.35 5.18,13.28 2,19.7 -4.75,9.49 -14.19,10.21 -20.1499997,1.33 -1.71,-2.63 -4,-6.22 -2.3,-9.36 a 6.56,6.56 0 0 1 4.05,-2.82 v 0.09 z"
     id="path34"
     style="fill:#e6e7e8" />
  <path
     class="g"
     d="m 31.374794,231.38566 h 0.05 a 121.43,121.43 0 0 0 -3.05,-22.97 151.29,151.29 0 0 1 -3.17,-24.82 h -0.1 a 75.56,75.56 0 0 0 2.53,25 146.59,146.59 0 0 1 3.74,22.79 z"
     id="path36"
     style="fill:#e6e7e8" />
  <path
     class="h"
     d="M 56.154794,202.47566 Z"
     id="path38"
     style="fill:#745131" />
  <path
     class="h"
     d="m 56.174794,203.19566 h -0.05 l 0.11,0.07 z"
     id="path40"
     style="fill:#745131" />
  <path
     class="h"
     d="m 56.074794,203.86566 c 0.33,-0.12 0,-0.23 0.1,-0.37 h -0.14 c 0,0.1 0.14,0.25 0.04,0.37 z"
     id="path42"
     style="fill:#745131" />
  <path
     class="h"
     d="m 55.164794,204.35566 c 0.16,0 0.09,0.05 0.09,-0.09 h -0.05 a 0.2,0.2 0 0 1 -0.04,0.09 z"
     id="path44"
     style="fill:#745131" />
  <path
     class="h"
     d="m 55.124794,204.58566 -0.1,-0.07 c -0.1,0 -0.18,0.11 -0.23,0.09 a 0.72,0.72 0 0 0 0.33,-0.02 z"
     id="path46"
     style="fill:#745131" />
  <path
     class="h"
     d="M 55.374794,204.61566 Z"
     id="path48"
     style="fill:#745131" />
  <path
     class="h"
     d="m 55.274794,204.50566 0.08,0.08 v 0 c 0.1,-0.05 0.02,-0.05 -0.08,-0.08 z"
     id="path50"
     style="fill:#745131" />
  <path
     class="h"
     d="m 55.374794,204.44566 c 0.11,-0.06 0.19,-0.14 0.3,-0.07 -0.01,-0.16 -0.3,-0.09 -0.3,0.07 z"
     id="path52"
     style="fill:#745131" />
  <path
     class="h"
     d="m 56.374794,203.83566 0.09,-0.09 h -0.09 c 0.08,-0.02 -0.07,0.11 0,0.09 z"
     id="path54"
     style="fill:#745131" />
  <path
     class="h"
     d="m 54.564794,205.11566 c 0.11,0 0.31,0 0.46,-0.07 h -0.1 a 0.77,0.77 0 0 1 -0.36,0.07 z"
     id="path56"
     style="fill:#745131" />
  <path
     class="h"
     d="m 55.024794,205.04566 0.14,0.08 c 0.06,-0.09 -0.02,-0.09 -0.14,-0.08 z"
     id="path58"
     style="fill:#745131" />
  <path
     class="h"
     d="m 55.894794,204.57566 -0.28,-0.12 0.28,0.15 z"
     id="path60"
     style="fill:#745131" />
  <polygon
     class="h"
     points="54.08,205.41 54.45,205.47 54.33,205.44 "
     id="polygon62"
     transform="translate(-0.00520568,-0.00434486)"
     style="fill:#745131" />
  <path
     class="h"
     d="m 54.234794,205.64566 h -0.59 c -0.13,0 0.18,0.09 0.34,0.13 -0.07,-0.02 0,-0.07 0.25,-0.13 z"
     id="path64"
     style="fill:#745131" />
  <path
     class="h"
     d="m 54.234794,205.86566 a 1,1 0 0 0 -0.25,-0.07 z"
     id="path66"
     style="fill:#745131" />
  <path
     class="h"
     d="m 55.034794,205.27566 a 2.34,2.34 0 0 0 -0.38,0.09 h 0.36 z"
     id="path68"
     style="fill:#745131" />
  <path
     class="h"
     d="m 55.024794,205.31566 v 0 l -0.06,0.07 z"
     id="path70"
     style="fill:#745131" />
  <path
     class="h"
     d="M 55.044794,205.26566 Z"
     id="path72"
     style="fill:#745131" />
  <path
     class="h"
     d="m 55.574794,204.85566 a 0.68,0.68 0 0 0 0.59,0 2.91,2.91 0 0 1 -0.59,0 z"
     id="path74"
     style="fill:#745131" />
  <path
     class="h"
     d="m 55.474794,205.19566 0.11,-0.1 h -0.29 z"
     id="path76"
     style="fill:#745131" />
  <polygon
     class="h"
     points="55.48,205.2 55.44,205.24 55.57,205.25 "
     id="polygon78"
     transform="translate(-0.00520568,-0.00434486)"
     style="fill:#745131" />
  <path
     class="h"
     d="m 54.684794,205.71566 c 0.14,0 0.13,0.08 0.13,0.12 a 0.43,0.43 0 0 0 0.2,-0.15 c -0.12,-0.01 -0.31,-0.03 -0.33,0.03 z"
     id="path80"
     style="fill:#745131" />
  <path
     class="h"
     d="m 55.084794,205.67566 c 0.09,0 0,-0.07 -0.09,-0.09 a 0.17,0.17 0 0 1 0,0.1 c 0.07,0 0.1,0 0.09,-0.01 z"
     id="path82"
     style="fill:#745131" />
  <path
     class="h"
     d="m 54.374794,205.94566 0.26,-0.06 c -0.18,0.06 -0.4,0.06 -0.26,0.06 z"
     id="path84"
     style="fill:#745131" />
  <path
     class="h"
     d="M 54.794794,205.54566 Z"
     id="path86"
     style="fill:#745131" />
  <path
     class="h"
     d="m 54.794794,205.54566 a 0.67,0.67 0 0 0 0.2,0 l -0.09,-0.06 z"
     id="path88"
     style="fill:#745131" />
  <path
     class="h"
     d="m 56.994794,206.58566 c 0.05,0 -0.45,-0.15 0,-0.24 a 11,11 0 0 0 -2.3,-0.06 1.24,1.24 0 0 1 0.53,0.12 2.33,2.33 0 0 1 0.91,-0.08 c 0.18,0.14 -0.16,0.1 -0.39,0.15 a 1.93,1.93 0 0 1 0.63,0.1 l 0.35,0.09 h 0.28 v -0.13 c 0,0 -0.04,0.09 -0.01,0.05 z"
     id="path90"
     style="fill:#745131" />
  <path
     class="h"
     d="m 54.774794,206.12566 v 0 a 2,2 0 0 1 -0.59,0.1 1.28,1.28 0 0 0 0.43,0.1 l 0.14,-0.17 z"
     id="path92"
     style="fill:#745131" />
  <path
     class="h"
     d="m 54.824794,205.94566 a 3.75,3.75 0 0 0 1,0.07 c 0,-0.11 -0.32,-0.08 -0.46,-0.15 0,0.18 -0.2,0 -0.48,0.07 a 0.11,0.11 0 0 1 -0.06,-0.09 l -0.22,0.09 v 0 a 1.09,1.09 0 0 0 0.13,0.17 c 0.09,-0.05 0.1,-0.09 0.09,-0.16 z"
     id="path94"
     style="fill:#745131" />
  <path
     class="h"
     d="m 56.814794,204.94566 h -0.07 c 0,0 0.07,0 0.07,0 z"
     id="path96"
     style="fill:#745131" />
  <path
     class="h"
     d="m 56.624794,204.94566 c 0,0 -0.17,0 -0.13,-0.07 0.04,-0.07 0.15,0 0.25,0 a 0.42,0.42 0 0 0 -0.38,0 v 0 a 2,2 0 0 1 -0.58,0.21 7.56,7.56 0 0 0 0.84,-0.14 z"
     id="path98"
     style="fill:#745131" />
  <path
     class="h"
     d="m 55.914794,205.50566 0.15,0.16 0.33,-0.09 h -0.19 c 0.09,-0.09 -0.15,-0.06 -0.29,-0.07 z"
     id="path100"
     style="fill:#745131" />
  <polygon
     class="h"
     points="53.91,206.26 54.51,206.37 54.36,206.3 "
     id="polygon102"
     transform="translate(-0.00520568,-0.00434486)"
     style="fill:#745131" />
  <polygon
     class="h"
     points="53.9,206.43 54.12,206.5 54.31,206.47 "
     id="polygon104"
     transform="translate(-0.00520568,-0.00434486)"
     style="fill:#745131" />
  <path
     class="h"
     d="M 50.244794,216.82566 Z"
     id="path106"
     style="fill:#745131" />
  <path
     class="h"
     d="m 51.704794,209.79566 c -0.56,-0.28 -1.4,-0.75 -0.77,-0.36 l 0.62,0.37 c -0.08,-0.09 0,-0.07 0.15,-0.01 z"
     id="path108"
     style="fill:#745131" />
  <path
     class="h"
     d="m 52.714794,214.85566 v 0 0 l -0.19,-0.27 c 0.1,0.08 0.24,0.29 0.19,0.27 z"
     id="path110"
     style="fill:#745131" />
  <path
     class="h"
     d="M 52.904794,215.16566 Z"
     id="path112"
     style="fill:#745131" />
  <path
     class="h"
     d="m 47.804794,217.51566 -0.06,0.09 c 0.1,-0.01 0.05,-0.05 0.06,-0.09 z"
     id="path114"
     style="fill:#745131" />
  <path
     class="h"
     d="m 53.374794,208.07566 a 1.48,1.48 0 0 0 -0.42,0 c 0.42,0.05 0.93,0.15 0.42,0 z"
     id="path116"
     style="fill:#745131" />
  <path
     class="h"
     d="m 48.504794,212.76566 a 3.88,3.88 0 0 0 0.14,0.45 2.59,2.59 0 0 0 -0.14,-0.45 z"
     id="path118"
     style="fill:#745131" />
  <path
     class="h"
     d="m 52.904794,208.17566 h 0.15 c -0.07,-0.06 -0.12,-0.11 -0.06,-0.13 -0.27,-0.01 -0.46,-0.03 -0.09,0.13 z"
     id="path120"
     style="fill:#745131" />
  <path
     class="h"
     d="M 40.584794,215.26566 Z"
     id="path122"
     style="fill:#745131" />
  <path
     class="h"
     d="M 39.544794,213.20566 Z"
     id="path124"
     style="fill:#745131" />
  <path
     class="h"
     d="m 55.714794,207.18566 h 0.24 z"
     id="path126"
     style="fill:#745131" />
  <path
     class="h"
     d="M 53.924794,207.06566 Z"
     id="path128"
     style="fill:#745131" />
  <path
     class="h"
     d="m 53.684794,207.03566 h 0.07 c -0.08,-0.09 -0.14,-0.09 -0.07,0 z"
     id="path130"
     style="fill:#745131" />
  <path
     class="h"
     d="M 53.654794,207.12566 Z"
     id="path132"
     style="fill:#745131" />
  <path
     class="h"
     d="M 44.264794,216.94566 Z"
     id="path134"
     style="fill:#745131" />
  <polygon
     class="h"
     points="54.82,213.22 54.81,213.22 54.82,213.23 "
     id="polygon136"
     transform="translate(-0.00520568,-0.00434486)"
     style="fill:#745131" />
  <path
     class="h"
     d="m 54.744794,213.40566 c 0,-0.13 0,-0.15 0.06,-0.18 l -0.23,-0.11 z"
     id="path138"
     style="fill:#745131" />
  <path
     class="h"
     d="m 48.984794,217.24566 h 0.14 c -0.12,0.16 -0.24,0.14 -0.1,0.22 0,-0.26 0.49,-0.15 0.43,-0.42 h 0.05 c 0.2,0.08 0.06,-0.21 0.27,-0.25 0.21,-0.04 0.14,0 0.1,0.07 l 0.13,-0.12 c 0.05,0 0.06,0 0,0 l 0.23,-0.11 v 0 a 0.76,0.76 0 0 1 0.09,-0.18 c 0.07,0 0,0 0,0.06 l 0.1,-0.11 c 0.08,0 0,0.15 -0.09,0.17 0.22,0.2 0.08,-0.1 0.4,-0.07 l -0.11,0.09 c 0.14,0.1 0.21,0 0.39,0 -0.06,0 -0.37,-0.09 -0.26,-0.22 a 0.16,0.16 0 0 0 0.15,-0.09 c 0,0.08 0.1,0 0.19,0 v 0.12 c 0.08,-0.09 0,-0.14 0.07,-0.22 0.07,-0.08 0.18,0 0.25,0.09 0.07,0.09 -0.2,-0.07 0,-0.2 a 1,1 0 0 0 0.36,-0.3 c 0.12,-0.16 0,0.07 0.08,0.08 v -0.14 0 a 0.2,0.2 0 0 1 0,-0.21 c 0.07,-0.1 0.34,0 0.38,-0.21 0,0 0,0.08 0.07,0.11 a 1,1 0 0 0 0.16,-0.39 h 0.17 c -0.14,0 -0.1,-0.19 -0.07,-0.33 v 0 l -0.09,-0.09 -0.18,-0.19 -0.28,-0.28 -0.25,-0.58 a 7.51,7.51 0 0 1 0.66,0.83 l -0.15,-0.23 0.25,0.25 0.14,0.16 v 0 a 0.24,0.24 0 0 1 0,0.12 h -0.1 a 0.41,0.41 0 0 0 0.08,0.24 0.09,0.09 0 0 1 0,-0.07 v 0 l 0.13,0.08 v 0 l 0.26,-0.1 a 1.6,1.6 0 0 1 0.19,-0.74 c 0,0.12 0.11,0.13 0.19,0.22 -0.14,0 -0.13,0.2 -0.26,0.28 h 0.09 l 0.13,-0.27 c 0.06,0.08 0.09,0 0.17,0 -0.18,-0.1 0,-0.24 0.08,-0.36 0.08,-0.12 0.09,0.1 0,0.19 0.21,0 0,-0.3 0.16,-0.32 v 0.07 c 0,0.07 0.17,-0.21 0.19,-0.14 v 0 c 0.16,-0.15 0.44,-0.51 0.32,-0.65 l 0.16,0.18 -0.08,-0.34 v -0.09 0 l -0.22,-0.2 -0.78,-0.71 1,0.73 0.26,0.19 h 0.07 c 0.09,0.06 0.17,0.13 0.14,0.23 a 0.27,0.27 0 0 0 0.14,-0.19 c 0,0 -0.22,0 -0.2,-0.09 0.21,0 0.12,0 0.33,-0.09 -0.06,0 -0.21,-0.15 -0.15,-0.21 0.06,-0.06 0.18,0.12 0.18,0.16 l -0.06,-0.3 c 0,0.07 0.15,0.11 0.23,0.11 0.08,0 0.1,-0.15 0.11,-0.22 h -0.09 c 0.16,-0.18 -0.13,-0.36 0,-0.55 0,0 0.2,0.2 0.29,0.11 a 2.2,2.2 0 0 1 -0.19,-0.3 v 0 l -0.15,-0.1 -0.33,-0.23 -0.61,-0.41 c -0.36,-0.26 -0.65,-0.47 -0.78,-0.58 l 0.48,0.22 -0.45,-0.39 1.07,0.67 0.64,0.42 0.16,0.11 0.1,0.07 v 0.06 a 2.67,2.67 0 0 1 0.13,0.4 c 0.09,0 0.08,0 0.14,-0.1 0.06,-0.1 0,0.1 0,0.14 l 0.18,-0.26 c -0.11,0 0,-0.27 -0.09,-0.31 l -0.05,0.36 a 0.4,0.4 0 0 1 -0.1,-0.52 c 0.07,0 0.18,0.14 0.22,0.15 0.04,0.01 0,-0.23 0.05,-0.23 v 0.11 c 0.1,-0.09 -0.06,-0.25 0.11,-0.33 0.17,-0.08 0.21,-0.07 0.15,-0.11 a 0.9,0.9 0 0 1 -0.36,-0.08 l -0.95,-0.44 -1,-0.49 c 0.08,0 1.14,0.27 1.69,0.44 l 0.33,0.12 v 0 a 0.23,0.23 0 0 1 0.07,0.07 c 0.05,0.06 0.09,0.11 0.15,0.1 0.06,-0.01 -0.05,-0.08 -0.06,-0.1 -0.01,-0.02 0.09,0.06 0.12,0 0.03,-0.06 0.1,-0.22 -0.08,-0.09 0,-0.12 0.07,-0.1 0.12,-0.23 0.05,-0.13 -0.1,0 -0.14,-0.12 -0.04,-0.12 0,0 -0.24,-0.17 l -0.36,-0.22 0.39,0.13 0.23,0.06 a 4,4 0 0 0 0.25,-0.51 c 0,0 0.09,-0.1 0.13,-0.05 a 0.33,0.33 0 0 1 0,-0.14 c 0.14,-0.09 0,0.15 0.12,0.09 -0.06,0 0,-0.19 -0.06,-0.29 -0.06,-0.1 -0.08,0.2 -0.06,0.3 a 0.21,0.21 0 0 1 -0.1,-0.06 h -0.12 l -0.37,-0.15 a 7.1,7.1 0 0 1 -1.06,-0.55 c -0.21,-0.21 0.72,0.11 0.58,0 0.28,-0.25 -1.76,-0.66 -0.89,-0.7 a 15.68,15.68 0 0 1 1.79,0.34 c 0.22,0.19 -0.48,0.12 -0.48,0.21 h 0.43 c 0.21,0.09 0.36,0.22 0.15,0.23 h 0.19 v -0.07 a 0.48,0.48 0 0 1 0.06,-0.21 3.45,3.45 0 0 1 0.12,-0.46 v -0.08 h -0.19 l 0.07,0.1 c -0.52,0 -0.66,-0.26 -0.92,-0.2 -0.33,-0.16 -0.84,-0.33 -0.51,-0.41 l 0.69,0.06 c -0.2,0 -0.43,0 -0.23,0.1 -0.29,-0.09 1,-0.1 0.1,-0.27 h -0.53 c -0.31,-0.13 -1,-0.3 -0.68,-0.38 h -0.74 c 1,0 -0.22,0.24 0.87,0.26 -1,0 -0.46,0.08 -1.31,0.06 0.23,0 0.46,0 0.3,0.09 h 0.56 c 0.51,0.12 0.42,0.25 0.69,0.35 -0.14,0 -0.27,-0.07 -0.54,-0.08 l 0.4,0.14 a 3.9,3.9 0 0 1 -1.22,-0.2 l -0.09,0.08 c -0.35,0 -0.54,0 -0.34,0.13 -0.15,0 0.55,0.25 0.13,0.11 l 0.25,0.23 h -0.14 c -0.18,0.11 0.76,0.58 -0.43,0.41 0.12,0.09 0.27,0.2 0,0.21 l -0.54,-0.16 c 0.14,0.12 -0.67,0 -0.13,0.18 -1.49,-0.49 -0.55,0.09 -0.89,0.07 l 0.71,0.31 c -0.1,0 0,0.19 0.27,0.4 l 0.63,0.29 c 0.46,0.33 -0.6,0 -0.63,0.11 -0.23,-0.13 -0.14,-0.13 0,-0.07 -1.55,-0.65 0.8,0.84 -0.34,0.38 0.2,0.16 0.1,0.14 -0.07,0.06 v 0 l -0.37,-0.17 0.37,0.18 c 0,0 0,0.11 0.17,0.24 l -0.69,-0.41 v 0 c -0.27,-0.13 0.3,0.22 0.82,0.53 l 0.37,0.3 c -1.11,-0.67 0.29,0.34 -0.9,-0.39 0.54,0.39 0.27,0.44 1.43,1.29 -0.15,-0.1 -0.24,-0.14 -0.23,-0.17 -0.17,0 -0.34,-0.11 0,0.17 l -0.85,-0.6 1,0.93 a 7.42,7.42 0 0 1 -1.47,-1.08 c 0.87,0.87 0.28,0.37 1.15,1.26 l -0.53,-0.44 c 0,0 0.64,0.71 0.18,0.36 -1.07,-0.77 -0.55,0.3 -1.63,-0.39 1.48,1.45 -0.74,-0.59 0.37,0.57 a 8.43,8.43 0 0 1 -0.83,-0.86 c 0.23,0.43 -0.66,-0.47 0.18,0.6 -0.34,-0.37 -0.46,-0.56 -0.66,-0.77 0.06,0.08 0.25,0.34 0,0.13 a 6.12,6.12 0 0 1 -0.39,-0.5 18.69,18.69 0 0 0 1.85,2.4 c -0.49,-0.47 -0.45,-0.38 0.09,0.38 a 3,3 0 0 1 -0.69,-0.89 c -0.09,0 -0.65,-0.36 0,0.56 -0.19,-0.22 -0.11,0 -0.05,0.09 -0.13,0 -0.2,-0.07 -0.23,0.09 l 0.13,0.13 c 0.75,1.18 0.09,0.32 0.11,0.51 l -0.08,-0.12 c -0.71,-0.74 0.17,0.46 -0.6,-0.41 l 0.45,0.74 c 0.91,1.62 -0.72,-0.85 -0.47,-0.17 l 0.27,0.41 c 0.22,0.6 -1.34,-2.14 -1.47,-2.33 a 1.51,1.51 0 0 1 -0.14,-0.35 c -0.59,-0.91 0.49,1 0.51,1.3 -0.28,-0.53 -0.65,-1.4 -0.75,-1.47 -0.21,-0.43 0.64,1.88 0.09,0.87 a 7.12,7.12 0 0 1 0.48,1.18 c 0,0.2 -0.83,-1.53 -0.39,-0.14 0,-0.11 -0.09,-0.22 -0.13,-0.33 a 11.46,11.46 0 0 0 0.21,1.43 c -0.47,-1.37 -0.44,-1 -0.43,-0.6 0.01,0.4 0,0.82 -0.31,-0.46 l -0.15,0.2 v -0.26 c -0.15,-0.12 -0.06,0.5 0,1.13 a 4.86,4.86 0 0 1 -0.11,-0.55 c -0.27,-0.46 -0.23,-0.34 -0.23,1 l -0.12,-0.82 c 0,0.49 -0.38,-1.22 -0.47,-0.22 v -0.36 c -0.07,0.5 -0.21,0 -0.3,-0.32 -0.09,-0.32 -0.14,-0.3 -0.23,1.12 l -0.17,0.71 c 0.19,0.21 -0.1,1.23 0,1.69 -0.11,0.16 -0.19,-0.85 -0.07,-1 v 0.12 c 0.12,-1.46 -0.23,-0.51 -0.13,-1.49 -0.39,0.11 -0.6,-0.64 -0.91,-0.64 l -0.21,1 -0.11,-0.06 c 0,-0.23 0.16,-0.75 0.23,-0.72 0.11,-0.54 -0.27,0.47 -0.33,0.67 -0.07,-0.38 0.39,-1.11 0.34,-1.14 l -0.09,0.08 v 0.11 c -0.17,0.4 -0.3,0.79 -0.39,0.74 a 4.29,4.29 0 0 1 0.13,-0.6 v 0 l -0.13,-0.07 -0.18,0.7 c -0.2,0.34 -0.15,-0.06 -0.35,0.75 0.33,-1.23 -0.48,-0.52 -0.4,-0.89 -0.31,0.42 -0.42,0.38 -0.53,0.3 0,0.12 -0.33,0.78 -0.41,0.65 0.72,-1.29 0.08,-0.63 0.47,-1.53 -0.23,0.6 -0.41,0.09 -0.73,0.9 -0.05,-0.12 0.24,-0.43 0.33,-0.72 -0.49,0.37 -0.39,-0.38 -0.77,-0.27 a 2.25,2.25 0 0 1 -0.34,0.47 l 0.25,-0.62 c -0.1,0.05 -0.52,0.63 -0.35,0.23 a 0.83,0.83 0 0 1 -0.19,0.26 c -0.1,-0.35 -0.49,-0.32 -0.82,-0.4 a 1.14,1.14 0 0 1 -0.77,-0.53 c 0,0.1 -0.05,0.09 -0.12,0.07 -0.07,-0.02 -0.1,0.09 -0.14,0.14 a 0.74,0.74 0 0 0 -0.14,-0.22 c -0.16,0.07 -0.31,-0.11 -0.41,-0.06 h 0.09 c -0.18,0 -0.09,0.29 -0.16,0.34 0.15,0 0.12,0.35 0.37,0.42 h -0.06 a 0.24,0.24 0 0 1 0.2,0.15 v 0 c 0.25,0.23 0.32,0.37 0.58,0.65 v -0.06 a 0.25,0.25 0 0 1 0.08,0.12 c 0.13,0 -0.17,-0.16 0,-0.18 0,0.17 0.44,0.37 0.41,0.54 -0.03,0.17 0,-0.09 0.12,0 v 0.06 h 0.06 a 0.15,0.15 0 0 1 0,0.16 h -0.07 c 0,0.11 0.25,0.17 0.27,0.2 l -0.08,-0.09 a 5.4,5.4 0 0 0 1,0.55 v 0 c 0.25,0.07 0.16,0.13 0.41,0.25 v 0 a 0.54,0.54 0 0 1 0.21,0.05 c -0.08,0 0.08,0.14 0,0.14 0.28,0.06 0.15,0 0.37,0 v 0.07 a 0.31,0.31 0 0 1 0.23,0 c -0.13,0 0.05,0.12 -0.1,0.13 0.22,0.25 0.45,0 0.51,0.28 0.19,-0.11 -0.21,-0.18 -0.12,-0.18 0.09,0 0.15,-0.08 0.23,0 0.08,0.08 0.07,0.27 0.3,0.35 h -0.05 c 0.07,0.07 0.18,0 0.27,0.11 0.09,-0.09 0.13,0 0.19,-0.09 h -0.22 c 0.13,0 0.28,-0.12 0.46,0 a 0.34,0.34 0 0 1 -0.14,0 c 0.05,0.06 0.12,0 0.17,0.06 0.05,0.06 -0.26,0 -0.42,0 0,0.08 0.27,0 0.16,0.1 0.15,-0.15 0.23,0.1 0.42,0 v 0.08 h 0.14 l -0.11,0.09 c 0.15,-0.07 0.23,0.14 0.37,0.11 -0.26,-0.05 0,-0.11 -0.14,-0.2 0.34,0 0.15,0.26 0.52,0.29 -0.05,0 -0.18,-0.09 -0.09,-0.11 a 0.8,0.8 0 0 1 0.19,0.13 c 0.24,0 0,-0.1 0.08,-0.14 0.07,0.12 0.13,0 0.23,-0.05 v 0.09 c 0.27,0.09 0.08,-0.17 0.33,-0.08 l -0.12,0.11 h 0.13 v 0.1 a 0.38,0.38 0 0 1 0.33,0 c 0,-0.07 0,-0.16 0.14,-0.16 0.14,0 0,0.09 0.13,0.07 a 0.09,0.09 0 0 1 -0.16,0.05 0.35,0.35 0 0 0 -0.05,0.08 c 0.09,0.07 0.23,0 0.3,0 h -0.07 l 0.25,-0.12 v 0.09 l 0.16,-0.07 c 0,0.08 0,0.16 -0.12,0.19 a 1.06,1.06 0 0 0 0.25,-0.09 c 0,0 0.13,0.08 0.1,0.11 0.14,0 0.32,-0.16 0.5,-0.13 h 0.06 c 0.17,0 0.34,0.07 0.51,-0.07 l 0.14,0.11 c 0.15,-0.06 -0.18,-0.14 0.06,-0.24 0.24,-0.1 0.09,0.1 0.17,0.12 0.08,0.02 0.19,-0.25 0.38,-0.19 -0.21,-0.13 -0.25,-0.14 -0.3,-0.11 z"
     id="path140"
     style="fill:#745131" />
  <path
     class="h"
     d="m 53.044794,214.82566 c 0,0 0,0.05 -0.1,0.05 a 0.14,0.14 0 0 1 0.1,-0.05 z"
     id="path142"
     style="fill:#745131" />
  <path
     class="h"
     d="m 54.204794,207.44566 h -0.24 c 0.14,0 0.13,0.06 0.07,0.09 0.16,0 0.28,0 0.17,-0.09 z"
     id="path144"
     style="fill:#745131" />
  <path
     class="h"
     d="m 44.624794,214.17566 v 0.16 c -0.14,0.17 -0.07,0 0,-0.16 z"
     id="path146"
     style="fill:#745131" />
  <path
     class="h"
     d="M 52.884794,215.12566 Z"
     id="path148"
     style="fill:#745131" />
  <polygon
     class="h"
     points="47.81,217.5 47.81,217.52 47.82,217.5 "
     id="polygon150"
     transform="translate(-0.00520568,-0.00434486)"
     style="fill:#745131" />
  <path
     class="h"
     d="m 56.374794,210.49566 a 0.15,0.15 0 0 1 -0.06,0 c 0,0 0.06,0.05 0.06,0 z"
     id="path152"
     style="fill:#745131" />
  <path
     class="h"
     d="m 53.654794,206.71566 0.09,0.08 h 0.22 c -0.13,-0.05 -0.32,-0.06 -0.31,-0.08 z"
     id="path154"
     style="fill:#745131" />
  <path
     class="h"
     d="m 56.964794,206.16566 h -0.22 c 0,0 0.2,0.07 0.22,0 z"
     id="path156"
     style="fill:#745131" />
  <path
     class="h"
     d="m 55.454794,206.82566 c 0.44,0 0.31,0 0.25,-0.1 v 0 c -0.6,-0.06 -0.43,0.02 -0.25,0.1 z"
     id="path158"
     style="fill:#745131" />
  <path
     class="h"
     d="m 55.694794,206.64566 c -0.23,0 -0.05,0 0,0.06 z"
     id="path160"
     style="fill:#745131" />
  <path
     class="h"
     d="m 53.974794,207.24566 c 0.14,0 -0.6,-0.12 -0.4,-0.1 -0.59,-0.13 0.63,0.28 0.4,0.1 z"
     id="path162"
     style="fill:#745131" />
  <polygon
     class="h"
     points="56.37,206.9 56.8,206.98 56.92,206.92 "
     id="polygon164"
     transform="translate(-0.00520568,-0.00434486)"
     style="fill:#745131" />
  <path
     class="h"
     d="m 56.374794,207.43566 0.18,-0.09 a 0.6,0.6 0 0 1 -0.19,-0.06 c 0.01,0.07 -0.12,0.12 0.01,0.15 z"
     id="path166"
     style="fill:#745131" />
  <path
     class="h"
     d="m 56.374794,207.28566 a 0.11,0.11 0 0 0 -0.08,-0.1 c -0.08,-0.03 0.08,0.06 0.08,0.1 z"
     id="path168"
     style="fill:#745131" />
  <polygon
     class="h"
     points="56.9,207.12 56.89,207.2 56.92,207.09 "
     id="polygon170"
     transform="translate(-0.00520568,-0.00434486)"
     style="fill:#745131" />
  <path
     class="h"
     d="m 55.984794,208.57566 0.15,0.17 c 0.22,0.07 0.37,0.07 0.29,0 a 1.39,1.39 0 0 0 -0.44,-0.17 z"
     id="path172"
     style="fill:#745131" />
  <path
     class="h"
     d="M 56.824794,208.38566 Z"
     id="path174"
     style="fill:#745131" />
  <path
     class="h"
     d="m 56.764794,208.76566 c 0,0 0,0.21 0.07,0 0.07,-0.21 -0.02,-0.11 -0.07,0 z"
     id="path176"
     style="fill:#745131" />
  <polygon
     class="h"
     points="56,210.57 56.01,210.53 54.9,210.05 55.61,210.38 55.96,210.54 "
     id="polygon178"
     transform="translate(-0.00520568,-0.00434486)"
     style="fill:#745131" />
  <path
     class="h"
     d="m 55.584794,212.31566 c 0.13,-0.11 -0.08,-0.09 0,-0.18 0.08,-0.09 -0.1,0.07 -0.11,0 0.03,0.12 -0.02,0.15 0.11,0.18 z"
     id="path180"
     style="fill:#745131" />
  <polygon
     class="h"
     points="39.16,212.97 39.19,213.02 39.25,213.02 "
     id="polygon182"
     transform="translate(-0.00520568,-0.00434486)"
     style="fill:#745131" />
  <path
     class="h"
     d="m 38.954794,213.02566 v -0.08 h -0.11 c 0,0 0.11,0 0.11,0.08 z"
     id="path184"
     style="fill:#745131" />
  <polygon
     class="h"
     points="49.82,217.11 49.74,217.02 49.8,217.12 "
     id="polygon186"
     transform="translate(-0.00520568,-0.00434486)"
     style="fill:#745131" />
  <path
     class="i"
     d="m 59.964794,201.33566 c 1,4.78 -0.3,9.82 -2.59,14.16 l 3.07,-2 a 27.18,27.18 0 0 0 1.13,-5.55 c 0.42,-5.3 -0.41,-11.12 -7.15,-8.18 l 0.09,0.25 c 1.8,-0.63 4.65,-0.81 5.45,1.32 z"
     id="path188"
     style="fill:#603813" />
  <path
     class="i"
     d="m 4.2847943,227.44566 a 26.59,26.59 0 0 0 14.9299997,10.5 c 1.33,-0.69 2.66,-1.38 4,-2.09 a 22.8,22.8 0 0 1 -12.77,-5.18 c -3.2599997,-2.6 -6.4599997,-6 -7.3399997,-10.14 -1.39,-5.5 3.25,-7.16 7.8399997,-6.35 l 0.05,-0.29 a 9.16,9.16 0 0 0 -6.7499997,0.22 5.1,5.1 0 0 0 -2.09,2 c 0.05,2.54 0.11,5.08 0.16,7.62 a 16.86,16.86 0 0 0 1.97,3.71 z"
     id="path190"
     style="fill:#603813" />
  <path
     class="j"
     d="m 38.904794,208.56566 c -1.24,5.19 1.93,9.91 7.51,9.26 4.93,-0.53 8.33,-4.8 10.12,-9.15 0.6,-1.42 1.41,-3 1.1,-4.55 a 4.07,4.07 0 0 0 -3.19,-3.22 4.21,4.21 0 0 1 3.66,3.1 c 0.46,1.72 -0.3,3.4 -0.86,5 a 17.53,17.53 0 0 1 -2.3,4.47 c -2.36,3.5 -6.71,6.12 -11,5.14 -4.6,-0.74 -6.61,-6 -5,-10 z"
     id="path192"
     style="fill:#673915" />
  <path
     class="j"
     d="m 23.184794,211.56566 c 4,3.83 2.76,10.71 -2,13.38 -3.87,2.43 -9,1.11 -12.1499997,-1.86 -1.28,-1.12 -2.78,-2.31 -3.13,-4.12 -0.78,-3.19 2.06,-4.66 4.8099997,-4.72 -2.4299997,0.35 -5.0899997,1.76 -4.1999997,4.6 0.39,1.55 1.89,2.56 3.08,3.57 2.9999997,2.62 7.5199997,3.87 11.1199997,1.71 a 8.32,8.32 0 0 0 3.31,-11.3 7.67,7.67 0 0 0 -0.84,-1.26 z"
     id="path194"
     style="fill:#673915" />
  <path
     class="h"
     d="m 16.054794,225.24566 h 0.13 c 0,0 -0.14,-0.14 -0.13,0 z"
     id="path196"
     style="fill:#745131" />
  <g
     class="k"
     id="g202"
     transform="translate(-0.00520568,-0.00434486)"
     style="opacity:0.81">
    <path
       class="l"
       d="m 284.91,247.5 a 26.59,26.59 0 0 0 14.93,10.5 c 1.33,-0.69 2.66,-1.38 4,-2.09 a 22.8,22.8 0 0 1 -12.77,-5.18 c -3.26,-2.6 -6.46,-6 -7.34,-10.14 -1.39,-5.5 3.25,-7.16 7.84,-6.35 l 0.05,-0.29 a 9.16,9.16 0 0 0 -6.75,0.22 5.1,5.1 0 0 0 -2.09,2 c 0.05,2.54 0.11,5.08 0.16,7.62 a 16.86,16.86 0 0 0 1.97,3.71 z"
       transform="translate(-280.62,-20.05)"
       id="path198"
       style="fill:#231f20" />
    <path
       class="l"
       d="m 340.59,221.39 c 1,4.78 -0.3,9.82 -2.59,14.16 l 3.07,-2 A 27.18,27.18 0 0 0 342.2,228 c 0.42,-5.3 -0.41,-11.12 -7.15,-8.18 l 0.09,0.25 c 1.8,-0.63 4.65,-0.81 5.45,1.32 z"
       transform="translate(-280.62,-20.05)"
       id="path200"
       style="fill:#231f20" />
  </g>
  <path
     class="e"
     d="m 38.854794,37.115655 a 7.5,7.5 0 0 1 3.45,3.95 c 0.86,2.48 -0.32,4.85 -0.75,4.73 -0.43,-0.12 -0.1,-1.83 -1.15,-2.68 -0.63,-0.52 -1.7,-0.68 -2,-0.22 -0.61,0.79 1.37,2.76 3.43,7.5 1.07,2.48 1,3.06 1.8,3.72 2.05,1.72 5.46,0.24 6.94,-0.37 5.74,-2.41 19.28,-8.07 23.13,-4.29 0.66,0.65 0.24,0.83 2.15,6.42 2.08,6.1 2.46,5.93 2.37,6.71 -0.73,6.14 -16.23,10 -22.66,9 -0.55,-0.09 -2.22,-0.4 -2.87,0.55 -0.28,0.42 -0.48,1.24 1.12,5 1.6,3.76 2.88,6.72 5.66,8.56 0.54,0.36 1.79,1.17 2.44,0.77 0.65,-0.4 0.24,-1.86 0.57,-1.9 0.33,-0.04 2.4,2.71 2.17,4.44 -0.45,3.419996 -9.55,4.219996 -16.66,2.129996 -11.11,-3.269996 -24.87,-15.809996 -26.25,-30.139996 -1.54,-15.44 12.04,-26.25 17.11,-23.88 z"
     id="path204"
     style="fill:#eee991;stroke:#c2a56b;stroke-miterlimit:10" />
  <path
     class="f"
     d="m 52.024794,71.535655 c -1.22,-1.06 -5.76,0.38 -7.82,3.28 a 7.16,7.16 0 0 0 -1.29,4.2 7.41,7.41 0 0 0 0.7,3 9.34,9.34 0 0 0 3.28,3.5 10.85,10.85 0 0 0 5.1,3.39 24.28,24.28 0 0 0 3.88,0.61 10.07,10.07 0 0 0 2.9,0.07 5,5 0 0 0 2.34,-0.81 3.53,3.53 0 0 0 1.47,-3.13 c -0.08,0 -0.17,0.48 -0.72,0.81 a 3.16,3.16 0 0 1 -2.45,0 4.73,4.73 0 0 1 -1.63,-1.32 12.73,12.73 0 0 1 -1.81,-2.26 18.39,18.39 0 0 1 -1.54,-3.23 c -1.37,-3.34 -2.05,-5 -2.15,-6.26 -0.1,-1.26 0.09,-1.53 -0.26,-1.85 z"
     id="path206"
     style="fill:#8a5d3b" />
  <path
     class="f"
     d="m 46.864794,55.015655 c 0.59,1.19 -3.57,5.24 -8.06,4.83 a 9.22,9.22 0 0 1 -4.43,-1.83 7.48,7.48 0 0 1 -3.13,-6.88 12.56,12.56 0 0 1 2.91,-8.35 7.88,7.88 0 0 1 1.06,-1.1 6.12,6.12 0 0 1 2.3,-1.06 c 2.21,-0.25 4.67,4.08 4.42,4.25 -0.25,0.17 -2.46,-2.64 -3.23,-2.26 -0.08,0 -0.36,0.22 -0.13,1.48 a 10.54,10.54 0 0 0 1.82,4 c 2.11,3.41 1,4.78 2.78,5.93 1.78,1.15 3.35,0.29 3.69,0.99 z"
     id="path208"
     style="fill:#8a5d3b" />
  <path
     class="g"
     d="m 58.584794,90.295655 c -5.56,0.33 -11.47,-0.9 -15.83,-4.56 -5.26,-4.2 -4.18,-10.92 0.86,-14.78 a 11.77,11.77 0 0 1 8.21,-2.11 36.37,36.37 0 0 0 8.19,-0.82 c 5.42,-1 10.84,-3.27 15.93,-4.94 a 68.48,68.48 0 0 1 -15.72,5.86 32.83,32.83 0 0 1 -8.44,0.83 10.85,10.85 0 0 0 -7.69,1.76 c -4.76,3.5 -5.9,9.75 -1,13.77 4.14,3.8 10.23,4.85 15.5,4.93 z"
     id="path210"
     style="fill:#e6e7e8" />
  <path
     class="g"
     d="m 34.604794,82.415655 c 0.3,-6.69 3.79,-13 10.46,-15.12 6.14,-2.06 12.62,-3 18.94,-4.24 4.18,-0.71 8.51,-2.24 12.48,-3.19 -7.82,3.82 -16.53,5 -25,6.48 -10.39,1.79 -15.36,5.46 -16.89,16.07 z"
     id="path212"
     style="fill:#e6e7e8" />
  <path
     class="g"
     d="m 26.744794,73.075655 c 15.48,-6.8 31.37,-13.36 48.16,-16 v 0.1 c -8.15,2.31 -16.28,4.55 -24.34,7.12 -8.06,2.57 -16.14,5.85 -23.84,8.74 z"
     id="path214"
     style="fill:#e6e7e8" />
  <path
     class="g"
     d="m 42.244794,42.825655 c -3.11,-6.13 -8.27,-3.26 -11.93,0.59 -7.21,7.18 -5.14,15.75 4.66,18.58 6.7,1.76 12.49,-3.29 18.46,-5.51 6.12,-2.5 12.86,-4.77 19.25,-5.49 a 110.15,110.15 0 0 0 -18.85,6.4 c -6,2.41 -12.21,7.37 -19.06,5.37 -10.16,-3.06 -12.48,-12.24 -4.74,-19.63 2.3,-2.14 5.45,-5 8.83,-3.86 a 6.62,6.62 0 0 1 3.51,3.51 h -0.09 z"
     id="path216"
     style="fill:#e6e7e8" />
  <path
     class="g"
     d="m 26.374794,68.415655 a 145.18,145.18 0 0 0 23.76,-8.07 75.58,75.58 0 0 1 24.24,-6.75 v 0.1 a 151.53,151.53 0 0 0 -23.93,7.39 122.05,122.05 0 0 1 -24.07,7.33 z"
     id="path218"
     style="fill:#e6e7e8" />
  <path
     class="h"
     d="M 61.024794,87.415655 Z"
     id="path220"
     style="fill:#745131" />
  <path
     class="h"
     d="m 60.374794,87.545655 v 0 l -0.06,0.13 z"
     id="path222"
     style="fill:#745131" />
  <path
     class="h"
     d="m 59.634794,87.565655 c 0.18,0.3 0.23,-0.06 0.39,0 v -0.15 c -0.13,0.06 -0.25,0.23 -0.39,0.15 z"
     id="path224"
     style="fill:#745131" />
  <path
     class="h"
     d="m 59.004794,86.755655 c 0.07,0.15 0,0.09 0.1,0.07 v 0 z"
     id="path226"
     style="fill:#745131" />
  <path
     class="h"
     d="m 58.774794,86.755655 0.05,-0.11 c -0.05,-0.1 -0.14,-0.16 -0.14,-0.22 a 0.63,0.63 0 0 0 0.09,0.33 z"
     id="path228"
     style="fill:#745131" />
  <path
     class="h"
     d="M 58.784794,87.035655 Z"
     id="path230"
     style="fill:#745131" />
  <path
     class="h"
     d="m 58.874794,86.885655 -0.06,0.1 c 0,0.07 0.08,0.21 0,0 0.06,0.09 0.04,-0.04 0.06,-0.1 z"
     id="path232"
     style="fill:#745131" />
  <path
     class="h"
     d="m 58.954794,86.945655 c 0.08,0.1 0.16,0.16 0.11,0.28 0.16,0 0.05,-0.28 -0.11,-0.28 z"
     id="path234"
     style="fill:#745131" />
  <path
     class="h"
     d="m 59.724794,87.945655 0.11,0.08 v -0.12 c 0.01,0.04 -0.15,-0.11 -0.11,0.04 z"
     id="path236"
     style="fill:#745131" />
  <path
     class="h"
     d="m 58.144794,86.295655 a 2.87,2.87 0 0 0 0.15,0.44 v -0.1 a 2.07,2.07 0 0 1 -0.15,-0.34 z"
     id="path238"
     style="fill:#745131" />
  <path
     class="h"
     d="m 58.294794,86.735655 -0.05,0.15 c 0.13,0.06 0.13,-0.04 0.05,-0.15 z"
     id="path240"
     style="fill:#745131" />
  <path
     class="h"
     d="m 58.914794,87.515655 0.06,-0.3 a 0.64,0.64 0 0 1 -0.09,0.3 z"
     id="path242"
     style="fill:#745131" />
  <polygon
     class="h"
     points="57.78,85.86 57.79,86.24 57.8,86.11 "
     id="polygon244"
     transform="translate(-0.00520568,-0.00434486)"
     style="fill:#745131" />
  <path
     class="h"
     d="m 57.574794,86.055655 c 0,-0.23 -0.13,-0.45 -0.12,-0.58 0.01,-0.13 -0.06,0.19 -0.07,0.37 -0.01,-0.09 0.08,-0.03 0.19,0.21 z"
     id="path246"
     style="fill:#745131" />
  <path
     class="h"
     d="m 57.374794,86.095655 a 1,1 0 0 0 0,-0.25 1,1 0 0 0 0,0.25 z"
     id="path248"
     style="fill:#745131" />
  <path
     class="h"
     d="m 58.074794,86.785655 a 2.75,2.75 0 0 0 -0.15,-0.36 l 0.11,0.34 z"
     id="path250"
     style="fill:#745131" />
  <path
     class="h"
     d="M 58.034794,86.775655 Z"
     id="path252"
     style="fill:#745131" />
  <path
     class="h"
     d="M 58.084794,86.785655 Z"
     id="path254"
     style="fill:#745131" />
  <path
     class="h"
     d="m 58.584794,87.245655 a 0.64,0.64 0 0 0 0.1,0.57 2.2,2.2 0 0 1 -0.1,-0.57 z"
     id="path256"
     style="fill:#745131" />
  <path
     class="h"
     d="m 58.224794,87.205655 0.12,0.09 a 1.37,1.37 0 0 1 -0.07,-0.29 z"
     id="path258"
     style="fill:#745131" />
  <polygon
     class="h"
     points="58.23,87.21 58.19,87.17 58.2,87.3 "
     id="polygon260"
     transform="translate(-0.00520568,-0.00434486)"
     style="fill:#745131" />
  <path
     class="h"
     d="m 57.584794,86.505655 c 0,0.15 0,0.15 -0.1,0.16 -0.1,0.01 0.13,0.15 0.18,0.16 0.05,0.01 -0.03,-0.31 -0.08,-0.32 z"
     id="path262"
     style="fill:#745131" />
  <path
     class="h"
     d="M 57.804794,86.675655 Z"
     id="path264"
     style="fill:#745131" />
  <path
     class="h"
     d="M 56.994794,86.505655 Z"
     id="path266"
     style="fill:#745131" />
  <path
     class="h"
     d="m 57.694794,86.945655 c 0.05,0.08 0.06,0 0.06,-0.1 a 0.08,0.08 0 0 1 -0.09,0 c 0,0 0.02,0.1 0.03,0.1 z"
     id="path268"
     style="fill:#745131" />
  <path
     class="h"
     d="m 57.254794,86.205655 a 1.89,1.89 0 0 0 0.11,0.25 c -0.05,-0.13 -0.12,-0.35 -0.11,-0.25 z"
     id="path270"
     style="fill:#745131" />
  <path
     class="h"
     d="m 57.764794,86.595655 v 0 c -0.02,-0.09 -0.01,-0.06 0,0 z"
     id="path272"
     style="fill:#745131" />
  <path
     class="h"
     d="m 57.764794,86.595655 a 0.67,0.67 0 0 0 0,0.2 0.19,0.19 0 0 0 0.05,-0.1 z"
     id="path274"
     style="fill:#745131" />
  <path
     class="h"
     d="m 57.114794,88.945655 c 0,0 0.08,-0.47 0.23,-0.08 a 10.2,10.2 0 0 0 -0.33,-2.27 1.23,1.23 0 0 1 0,0.54 2.22,2.22 0 0 1 0.24,0.88 c -0.11,0.2 -0.13,-0.14 -0.22,-0.36 a 1.72,1.72 0 0 1 0,0.64 v 0.65 c 0,0 0.08,0 0.12,-0.07 0.04,-0.07 -0.08,0.07 -0.04,0.07 z"
     id="path276"
     style="fill:#745131" />
  <path
     class="h"
     d="m 57.194794,86.675655 v 0 a 2.35,2.35 0 0 1 -0.2,-0.56 1.55,1.55 0 0 0 0,0.43 l 0.19,0.12 z"
     id="path278"
     style="fill:#745131" />
  <path
     class="h"
     d="m 57.374794,86.695655 a 3.36,3.36 0 0 0 0.09,1 c 0.12,0 0,-0.33 0.07,-0.48 -0.17,0.06 0,-0.2 -0.15,-0.46 a 0.1,0.1 0 0 1 0.08,-0.07 l -0.12,-0.21 v 0 0.14 c -0.07,-0.1 0,-0.1 0,-0.14 v -0.06 0 l -0.14,0.15 c 0.06,0.14 0.11,0.14 0.17,0.13 z"
     id="path280"
     style="fill:#745131" />
  <path
     class="h"
     d="m 58.744794,88.475655 v -0.07 c 0,0 -0.02,0.07 0,0.07 z"
     id="path282"
     style="fill:#745131" />
  <path
     class="h"
     d="m 58.614794,88.305655 v -0.14 a 0.42,0.42 0 0 0 0.07,0.24 0.41,0.41 0 0 0 -0.09,-0.37 v 0 a 1.62,1.62 0 0 1 -0.31,-0.54 5.63,5.63 0 0 0 0.33,0.81 z"
     id="path284"
     style="fill:#745131" />
  <path
     class="h"
     d="m 57.994794,87.685655 -0.13,0.17 0.15,0.32 v -0.23 c 0.07,0.11 0,-0.12 -0.02,-0.26 z"
     id="path286"
     style="fill:#745131" />
  <polygon
     class="h"
     points="56.92,85.84 56.92,86.45 56.96,86.29 "
     id="polygon288"
     transform="translate(-0.00520568,-0.00434486)"
     style="fill:#745131" />
  <polygon
     class="h"
     points="56.75,85.86 56.73,86.09 56.78,86.27 "
     id="polygon290"
     transform="translate(-0.00520568,-0.00434486)"
     style="fill:#745131" />
  <path
     class="h"
     d="M 45.694794,83.685655 Z"
     id="path292"
     style="fill:#745131" />
  <path
     class="h"
     d="M 45.884794,84.025655 Z"
     id="path294"
     style="fill:#745131" />
  <path
     class="h"
     d="m 53.054794,84.275655 c 0.18,-0.6 0.51,-1.51 0.23,-0.83 l -0.26,0.68 c 0.07,-0.1 0.06,-0.01 0.03,0.15 z"
     id="path296"
     style="fill:#745131" />
  <path
     class="h"
     d="m 48.244794,86.125655 h 0.05 l 0.23,-0.23 c -0.15,0.05 -0.29,0.29 -0.28,0.23 z"
     id="path298"
     style="fill:#745131" />
  <path
     class="h"
     d="M 47.964794,86.365655 Z"
     id="path300"
     style="fill:#745131" />
  <path
     class="h"
     d="m 44.784794,81.735655 h -0.1 c 0.03,0.06 0.06,0.01 0.1,0 z"
     id="path302"
     style="fill:#745131" />
  <path
     class="h"
     d="m 55.044794,85.665655 a 1.54,1.54 0 0 0 -0.07,-0.42 c 0.01,0.38 0,0.9 0.07,0.42 z"
     id="path304"
     style="fill:#745131" />
  <path
     class="h"
     d="m 49.584794,81.625655 a 2.74,2.74 0 0 0 -0.42,0.21 2.74,2.74 0 0 0 0.42,-0.21 z"
     id="path306"
     style="fill:#745131" />
  <path
     class="h"
     d="m 54.854794,85.175655 v 0.16 c 0,-0.09 0.09,-0.15 0.12,-0.09 -0.01,-0.3 -0.03,-0.46 -0.12,-0.07 z"
     id="path308"
     style="fill:#745131" />
  <path
     class="h"
     d="M 45.774794,74.235655 Z"
     id="path310"
     style="fill:#745131" />
  <path
     class="h"
     d="m 47.624794,72.865655 v 0.08 c 0,0 0.01,0 0,-0.08 z"
     id="path312"
     style="fill:#745131" />
  <path
     class="h"
     d="m 56.314794,87.775655 a 1,1 0 0 0 0,0.24 1,1 0 0 1 0,-0.24 z"
     id="path314"
     style="fill:#745131" />
  <path
     class="h"
     d="M 53.874794,88.765655 Z"
     id="path316"
     style="fill:#745131" />
  <path
     class="h"
     d="m 56.124794,85.945655 a 0.23,0.23 0 0 0 -0.05,-0.18 1.21,1.21 0 0 0 0.05,0.18 z"
     id="path318"
     style="fill:#745131" />
  <path
     class="h"
     d="m 56.114794,85.745655 v 0.07 c 0.03,-0.08 0.03,-0.14 0,-0.07 z"
     id="path320"
     style="fill:#745131" />
  <path
     class="h"
     d="m 56.014794,85.735655 0.06,0.08 v -0.08 z"
     id="path322"
     style="fill:#745131" />
  <path
     class="h"
     d="m 44.744794,78.155655 v 0 c -0.02,-0.06 -0.02,-0.04 0,0 z"
     id="path324"
     style="fill:#745131" />
  <polygon
     class="h"
     points="50.22,87.92 50.21,87.91 50.21,87.92 "
     id="polygon326"
     transform="translate(-0.00520568,-0.00434486)"
     style="fill:#745131" />
  <path
     class="h"
     d="m 50.014794,87.885655 c 0.12,-0.06 0.15,0 0.19,0 l 0.06,-0.24 z"
     id="path328"
     style="fill:#745131" />
  <path
     class="h"
     d="m 45.254794,82.855655 v 0.15 c -0.18,-0.09 -0.18,-0.22 -0.23,-0.06 0.25,-0.09 0.23,0.45 0.48,0.35 v 0.1 0 c 0,0.2 0.22,0 0.29,0.22 0.07,0.22 0,0.14 0,0.11 l 0.13,0.11 v 0 l 0.14,0.21 v 0 l 0.2,0.06 c 0,0.08 0,0 -0.06,0 l 0.13,0.08 c 0,0.09 -0.15,0 -0.19,-0.06 -0.16,0.25 0.11,0.06 0.14,0.38 l -0.11,-0.09 c -0.08,0.16 0,0.21 0,0.39 0,-0.06 0,-0.38 0.17,-0.3 0,0 0,0.1 0.12,0.14 -0.08,0 0,0.1 0,0.18 l -0.09,0.12 c 0.09,0.07 0.14,0 0.22,0 0.08,0 0,0.18 0,0.25 0,0.07 0,-0.2 0.2,0 0.2,0.2 0.17,0.21 0.36,0.3 0,0.11 -0.08,0 -0.08,0.09 h 0.14 a 0.18,0.18 0 0 1 0.21,0 c 0.11,0.08 0,0.33 0.26,0.33 0,0 -0.06,0 -0.09,0.09 a 1.17,1.17 0 0 0 0.41,0.1 l 0.06,0.16 c 0,-0.15 0.17,-0.14 0.32,-0.13 v 0 l 0.07,-0.1 0.16,-0.22 0.23,-0.31 0.53,-0.35 a 8.88,8.88 0 0 1 -0.71,0.79 l 0.21,-0.19 c -0.06,0.09 -0.13,0.19 -0.21,0.29 l -0.13,0.16 h -0.16 v -0.1 a 0.37,0.37 0 0 0 -0.22,0.12 h 0.1 l -0.06,0.14 v 0 c 0.05,0.08 0.09,0.17 0.14,0.24 a 1.62,1.62 0 0 1 0.76,0.07 c -0.12,0 -0.11,0.12 -0.18,0.22 0,-0.15 -0.22,-0.09 -0.33,-0.21 0.06,0.06 0,0.1 0,0.1 l 0.29,0.08 c -0.06,0.07 0,0.09 0,0.17 0.07,-0.2 0.25,0 0.37,0 0.12,0 -0.09,0.1 -0.19,0 0,0.21 0.29,-0.09 0.34,0.1 h -0.02 c -0.07,0 0.23,0.13 0.16,0.15 v 0 c 0.17,0.13 0.57,0.35 0.68,0.21 a 0.9,0.9 0 0 1 -0.15,0.19 l 0.31,-0.16 h 0.08 l 0.16,-0.25 0.65,-1 -0.55,1.06 -0.15,0.29 v 0 0.08 c -0.05,0.11 -0.1,0.19 -0.2,0.19 a 0.26,0.26 0 0 0 0.2,0.1 c 0,0 0,-0.23 0.06,-0.22 0,0.2 0,0.12 0.14,0.31 0,0 0.12,-0.22 0.19,-0.18 0.07,0.04 -0.09,0.2 -0.13,0.21 l 0.29,-0.11 c -0.07,0 -0.09,0.16 -0.07,0.24 0.02,0.08 0.17,0.08 0.23,0.08 l -0.06,-0.08 c 0.21,0.11 0.33,-0.2 0.54,-0.1 0,0 -0.16,0.23 -0.06,0.3 l 0.27,-0.24 v 0 l 0.08,-0.17 0.16,-0.36 0.17,-0.73 a 8.86,8.86 0 0 1 0.44,-0.87 l -0.14,0.51 0.3,-0.51 -0.47,1.17 -0.31,0.7 -0.08,0.18 c 0,0.06 -0.05,0.13 -0.05,0.11 h -0.05 l -0.38,0.2 c 0.07,0.07 0,0.07 0.13,0.11 0.13,0.04 -0.1,0.06 -0.14,0 l 0.29,0.14 c 0,-0.13 0.27,-0.05 0.29,-0.15 h -0.37 a 0.41,0.41 0 0 1 0.5,-0.19 c 0,0.06 -0.1,0.2 -0.11,0.24 -0.01,0.04 0.23,0 0.24,0 h -0.09 c 0.1,0.08 0.24,-0.1 0.35,0 0.11,0.1 0.1,0.2 0.13,0.13 a 1.15,1.15 0 0 1 0,-0.37 l 0.27,-1 0.31,-1.06 c 0,0.09 -0.07,1.17 -0.14,1.74 l -0.06,0.34 v 0 a 0.16,0.16 0 0 1 -0.06,0.08 c 0,0.06 -0.09,0.11 -0.07,0.16 0.02,0.05 0.07,-0.06 0.09,-0.07 0.02,-0.01 -0.05,0.1 0.07,0.11 0.12,0.01 0.23,0.06 0.08,-0.09 a 0.33,0.33 0 0 1 0.24,0.07 c 0.13,0.07 0,-0.1 0.09,-0.16 0.09,-0.06 0,0 0.13,-0.26 a 3.2,3.2 0 0 1 0.16,-0.39 1,1 0 0 1 -0.06,0.4 1,1 0 0 0 0,0.24 c 0.22,0 0.33,0.13 0.54,0.16 0,0 0.12,0.07 0.07,0.12 a 0.15,0.15 0 0 1 0.13,0 c 0.12,0.12 -0.15,0 -0.06,0.13 0,-0.07 0.18,-0.07 0.27,-0.11 0.09,-0.04 -0.21,0 -0.31,0 a 0.17,0.17 0 0 1 0,-0.1 v 0 -0.1 l 0.09,-0.39 a 5.84,5.84 0 0 1 0.37,-1.14 c 0.17,-0.24 0,0.74 0,0.59 0.3,0.23 0.36,-1.85 0.54,-1 a 13.82,13.82 0 0 1 0,1.82 c -0.15,0.26 -0.2,-0.45 -0.28,-0.43 l 0.09,0.34 c 0,0.22 -0.16,0.39 -0.2,0.18 a 0.61,0.61 0 0 0 0,0.19 h 0.3 a 1.85,1.85 0 0 1 0.47,0 h 0.07 v -0.24 l -0.08,0.09 c -0.07,-0.53 0.14,-0.7 0,-1 0.09,-0.35 0.17,-0.88 0.32,-0.57 l 0.05,0.69 c 0,-0.2 -0.1,-0.42 -0.13,-0.21 0,-0.3 0.26,0.94 0.27,0.06 l -0.12,-0.49 c 0.08,-0.33 0.13,-1 0.26,-0.74 a 5.86,5.86 0 0 0 -0.16,-0.72 c 0.14,1 -0.27,-0.17 -0.1,0.9 -0.13,-1 -0.16,-0.43 -0.28,-1.28 0,0.23 0.05,0.46 0,0.31 v 0.21 0 c 0,0.12 0,0.25 0.05,0.37 0,0.53 -0.18,0.46 -0.23,0.74 -0.06,-0.13 0,-0.27 0,-0.54 l -0.07,0.41 a 3.63,3.63 0 0 1 0,-1.23 l -0.1,-0.08 c -0.06,-0.34 -0.12,-0.52 -0.18,-0.31 0,-0.15 -0.15,0.58 -0.09,0.15 l -0.18,0.28 v -0.14 c -0.13,-0.16 -0.44,0.85 -0.47,-0.35 -0.07,0.12 -0.15,0.3 -0.21,0.07 l 0.07,-0.56 c -0.09,0.16 -0.07,-0.67 -0.2,-0.1 0.23,-1.55 -0.18,-0.53 -0.22,-0.86 l -0.19,0.75 c -0.05,-0.09 -0.17,0.08 -0.34,0.33 l -0.18,0.67 c -0.24,0.51 -0.08,-0.59 -0.22,-0.59 0.1,-0.26 0.1,-0.17 0.08,0 0.37,-1.63 -0.69,0.93 -0.44,-0.27 -0.12,0.23 -0.11,0.13 -0.07,-0.06 v 0 l 0.11,-0.39 a 2.85,2.85 0 0 0 -0.11,0.39 0.82,0.82 0 0 0 -0.21,0.21 l 0.29,-0.75 v 0 c 0.08,-0.29 -0.17,0.34 -0.38,0.9 q -0.11,0.17 -0.24,0.42 c 0.48,-1.21 -0.28,0.34 0.23,-1 a 18.25,18.25 0 0 0 -1,1.63 c 0.08,-0.17 0.1,-0.26 0.13,-0.25 0,-0.18 0.05,-0.35 -0.17,0 l 0.44,-1 -0.73,1.19 a 7.29,7.29 0 0 1 0.81,-1.63 c -0.71,1 -0.32,0.34 -1,1.35 l 0.37,-0.53 c -0.05,0 -0.59,0.75 -0.33,0.24 0.58,-1.2 -0.39,-0.5 0.11,-1.68 -1.17,1.71 0.45,-0.83 -0.5,0.46 a 7.85,7.85 0 0 1 0.71,-1 c -0.39,0.3 0.35,-0.73 -0.56,0.27 0.3,-0.39 0.47,-0.54 0.65,-0.78 -0.08,0.08 -0.3,0.31 -0.12,0.08 a 3.8,3.8 0 0 1 0.42,-0.47 20.6,20.6 0 0 0 -2.05,2.23 c 0.38,-0.57 0.3,-0.51 -0.36,0.15 a 3.16,3.16 0 0 1 0.76,-0.83 c 0,-0.09 0.25,-0.7 -0.55,0.13 0.19,-0.23 0,-0.12 -0.09,0 0,-0.14 0,-0.21 -0.13,-0.22 l -0.11,0.15 c -1,0.94 -0.3,0.15 -0.48,0.19 l 0.11,-0.09 c 0.6,-0.82 -0.43,0.24 0.29,-0.66 l -0.65,0.57 c -1.44,1.17 0.71,-0.86 0.09,-0.5 l -0.35,0.34 c -0.56,0.32 1.87,-1.68 2,-1.84 a 1.55,1.55 0 0 1 0.32,-0.2 c 0.8,-0.74 -0.92,0.66 -1.2,0.72 a 14.29,14.29 0 0 0 1.32,-1 c 0.4,-0.28 -1.74,1 -0.84,0.24 a 6.7,6.7 0 0 1 -1.08,0.67 c -0.2,0 1.37,-1.08 0.07,-0.4 0.11,-0.07 0.21,-0.14 0.31,-0.19 a 9.15,9.15 0 0 0 -1.37,0.45 c 1.27,-0.7 0.9,-0.61 0.51,-0.53 -0.39,0.08 -0.8,0.16 0.4,-0.38 l -0.3,-0.12 0.25,-0.1 c 0.1,-0.16 -0.5,0 -1.11,0.21 a 3.28,3.28 0 0 1 0.52,-0.2 c 0.4,-0.35 0.29,-0.29 -1,-0.07 l 0.78,-0.26 c -0.48,0.08 1.14,-0.58 0.14,-0.49 l 0.42,-0.09 c -0.51,0 0,-0.21 0.26,-0.34 0.26,-0.13 0.27,-0.2 -1.15,0 h -0.73 c -0.17,0.23 -1.22,0.11 -1.66,0.26 -0.18,-0.08 0.8,-0.33 1,-0.24 h -0.13 c 1.45,-0.12 0.46,-0.31 1.44,-0.38 -0.17,-0.36 0.53,-0.7 0.47,-1 h -1 v -0.13 c 0.23,0 0.77,0 0.75,0.12 0.56,0 -0.5,-0.19 -0.71,-0.22 0.37,-0.13 1.16,0.19 1.17,0.14 l -0.09,-0.07 h -0.11 c -0.41,-0.1 -0.83,-0.16 -0.79,-0.27 h 0.61 v -0.14 l -0.72,-0.06 c -0.37,-0.14 0,-0.15 -0.79,-0.22 1.26,0.12 0.42,-0.56 0.8,-0.55 -0.47,-0.23 -0.44,-0.34 -0.38,-0.46 -0.13,0 -0.83,-0.19 -0.71,-0.29 1.39,0.48 0.63,0 1.58,0.2 -0.63,-0.13 -0.15,-0.39 -1,-0.57 0.11,-0.07 0.47,0.17 0.77,0.2 -0.45,-0.42 0.3,-0.45 0.14,-0.8 a 1.74,1.74 0 0 1 -0.53,-0.26 l 0.66,0.14 c -0.07,-0.09 -0.71,-0.4 -0.29,-0.3 a 0.41,0.41 0 0 1 -0.28,-0.15 c 0.32,-0.16 0.23,-0.53 0.25,-0.88 a 1.17,1.17 0 0 1 0.39,-0.84 c -0.09,0 -0.1,0 -0.09,-0.11 0.01,-0.11 -0.11,-0.08 -0.17,-0.11 a 0.7,0.7 0 0 0 0.2,-0.18 c -0.1,-0.14 0.05,-0.32 0,-0.41 v 0.1 c 0,-0.18 -0.3,0 -0.36,-0.11 0,0.16 -0.33,0.18 -0.35,0.44 v 0 a 0.22,0.22 0 0 1 -0.11,0.21 v 0 c -0.19,0.28 -0.31,0.37 -0.55,0.68 h 0.07 c -0.05,0.07 -0.08,0.07 -0.11,0.1 -0.03,0.03 0.13,-0.2 0.17,-0.07 -0.17,0 -0.29,0.5 -0.46,0.5 -0.17,0 0.09,0 0,0.11 h -0.06 v 0.06 a 0.15,0.15 0 0 1 -0.15,0.07 v -0.08 c 0,0 -0.13,0.28 -0.16,0.31 l 0.08,-0.1 a 5,5 0 0 0 -0.38,1 v 0 c 0,0.26 -0.1,0.18 -0.17,0.46 v 0 a 0.41,0.41 0 0 1 0,0.22 c 0,-0.08 -0.12,0.1 -0.14,0 0,0.29 0,0.15 0.09,0.36 h -0.07 a 0.31,0.31 0 0 1 0,0.23 c 0,-0.12 -0.11,0.06 -0.14,-0.08 -0.21,0.26 0,0.46 -0.2,0.55 0.15,0.17 0.15,-0.23 0.17,-0.15 0.02,0.08 0.1,0.14 0.07,0.22 -0.03,0.08 -0.25,0.12 -0.29,0.36 v -0.05 a 0.84,0.84 0 0 1 -0.06,0.28 c 0.1,0.07 0,0.14 0.12,0.17 v -0.22 c 0,0.13 0.17,0.26 0.07,0.46 a 0.33,0.33 0 0 1 -0.07,-0.13 c -0.05,0.06 0,0.12 0,0.18 a 1.19,1.19 0 0 0 -0.09,-0.42 c -0.06,0.06 0.07,0.27 -0.07,0.18 0.18,0.12 -0.05,0.24 0.09,0.41 h -0.1 a 0.21,0.21 0 0 1 0,0.13 l -0.11,-0.09 c 0.09,0.13 -0.1,0.25 -0.05,0.38 0,-0.27 0.11,-0.06 0.17,-0.17 0.11,0.33 -0.22,0.19 -0.19,0.56 0,0 0.06,-0.19 0.1,-0.11 a 0.51,0.51 0 0 1 -0.1,0.21 c 0,0.25 0.09,0 0.14,0.06 -0.1,0.09 0.05,0.12 0.09,0.22 h -0.05 c 0,0.28 0.18,0.06 0.14,0.31 l -0.14,-0.09 0.05,0.12 h -0.11 c 0.1,0.13 0.08,0.18 0.07,0.32 -0.01,0.14 0.16,0 0.18,0.11 0.02,0.11 -0.09,0 -0.05,0.14 a 0.09,0.09 0 0 1 -0.07,-0.15 h -0.07 c -0.05,0.1 0,0.23 0,0.29 v -0.07 l 0.17,0.23 h -0.09 c 0,0 0.07,0.08 0.09,0.15 0.02,0.07 -0.15,0 -0.2,-0.08 l 0.12,0.22 c 0,0 -0.05,0.14 -0.09,0.12 0,0.14 0.22,0.29 0.22,0.47 h 0.05 a 0.62,0.62 0 0 0 0.16,0.5 l -0.09,0.15 c 0.08,0.14 0.11,-0.2 0.24,0 0.13,0.2 -0.08,0.11 -0.09,0.18 -0.01,0.07 0.29,0.15 0.26,0.35 0.16,0.21 0.16,0.21 0.13,0.12 z"
     id="path330"
     style="fill:#745131" />
  <path
     class="h"
     d="m 46.254794,84.495655 c 0,0 -0.14,0 -0.1,-0.1 0.04,-0.1 0.07,0 0.08,0.1 z"
     id="path332"
     style="fill:#745131" />
  <path
     class="h"
     d="m 48.374794,86.445655 c 0,0 -0.06,0 -0.07,-0.09 a 0.18,0.18 0 0 1 0.1,0.09 z"
     id="path334"
     style="fill:#745131" />
  <path
     class="h"
     d="m 55.694794,86.025655 v 0 c -0.07,-0.24 -0.06,-0.14 0,0 z"
     id="path336"
     style="fill:#745131" />
  <path
     class="h"
     d="m 55.814794,86.335655 a 1,1 0 0 0 0,-0.25 c 0,0.15 0,0.15 -0.07,0.09 0,0.16 0,0.28 0.05,0.16 z"
     id="path338"
     style="fill:#745131" />
  <path
     class="h"
     d="m 47.554794,78.035655 h -0.18 c -0.19,-0.07 0,-0.07 0.16,0 z"
     id="path340"
     style="fill:#745131" />
  <path
     class="h"
     d="m 48.004794,86.335655 v 0 c 0,0 -0.02,-0.03 0,0 z"
     id="path342"
     style="fill:#745131" />
  <polygon
     class="h"
     points="44.81,81.74 44.79,81.74 44.81,81.75 "
     id="polygon344"
     transform="translate(-0.00520568,-0.00434486)"
     style="fill:#745131" />
  <path
     class="h"
     d="m 53.154794,88.945655 a 0.12,0.12 0 0 1 -0.06,-0.06 c 0,0 0.01,0.06 0.06,0.06 z"
     id="path346"
     style="fill:#745131" />
  <path
     class="h"
     d="m 56.424794,85.665655 -0.07,0.1 a 0.35,0.35 0 0 0 0.08,0.21 c -0.01,-0.12 -0.06,-0.31 -0.01,-0.31 z"
     id="path348"
     style="fill:#745131" />
  <path
     class="h"
     d="m 57.524794,88.835655 v 0 -0.21 c 0,0 -0.07,0.2 0,0.21 z"
     id="path350"
     style="fill:#745131" />
  <path
     class="h"
     d="m 56.614794,87.455655 c 0,0.44 0.09,0.3 0.15,0.23 v 0 c -0.04,-0.6 -0.1,-0.42 -0.15,-0.23 z"
     id="path352"
     style="fill:#745131" />
  <path
     class="h"
     d="m 56.774794,87.675655 h 0.06 c -0.01,-0.24 -0.03,-0.06 -0.06,0 z"
     id="path354"
     style="fill:#745131" />
  <path
     class="h"
     d="m 55.954794,86.075655 v -0.41 c 0.05,-0.61 -0.14,0.66 0,0.41 z"
     id="path356"
     style="fill:#745131" />
  <polygon
     class="h"
     points="56.71,88.37 56.7,88.81 56.78,88.91 "
     id="polygon358"
     transform="translate(-0.00520568,-0.00434486)"
     style="fill:#745131" />
  <path
     class="h"
     d="m 56.184794,88.515655 0.12,0.15 a 0.61,0.61 0 0 1 0,-0.19 c -0.05,-0.02 -0.13,-0.14 -0.12,0.04 z"
     id="path360"
     style="fill:#745131" />
  <path
     class="h"
     d="m 56.374794,88.475655 c 0,0 0.07,0 0.09,-0.09 0.02,-0.09 -0.09,0.02 -0.09,0.09 z"
     id="path362"
     style="fill:#745131" />
  <polygon
     class="h"
     points="56.58,88.93 56.5,88.93 56.62,88.95 "
     id="polygon364"
     transform="translate(-0.00520568,-0.00434486)"
     style="fill:#745131" />
  <path
     class="h"
     d="m 54.984794,88.285655 -0.14,0.17 v 0.29 a 1.23,1.23 0 0 0 0.14,-0.46 z"
     id="path366"
     style="fill:#745131" />
  <path
     class="h"
     d="m 55.314794,89.075655 -0.06,-0.06 v 0.1 z"
     id="path368"
     style="fill:#745131" />
  <path
     class="h"
     d="m 54.934794,89.085655 c 0,0 -0.2,0.07 0,0.07 0.2,0 0.11,-0.04 0,-0.07 z"
     id="path370"
     style="fill:#745131" />
  <polygon
     class="h"
     points="53.03,88.63 53.07,88.64 53.36,87.46 53.15,88.22 53.05,88.59 "
     id="polygon372"
     transform="translate(-0.00520568,-0.00434486)"
     style="fill:#745131" />
  <path
     class="h"
     d="m 51.224794,88.525655 c 0.13,0.1 0.08,-0.1 0.19,0 0.11,0.1 -0.09,-0.09 0,-0.11 -0.14,0.02 -0.18,-0.02 -0.19,0.11 z"
     id="path374"
     style="fill:#745131" />
  <polygon
     class="h"
     points="47.8,72.44 47.75,72.48 47.77,72.54 "
     id="polygon376"
     transform="translate(-0.00520568,-0.00434486)"
     style="fill:#745131" />
  <path
     class="h"
     d="m 47.704794,72.255655 h 0.07 v -0.11 a 0.49,0.49 0 0 1 -0.07,0.11 z"
     id="path378"
     style="fill:#745131" />
  <path
     class="h"
     d="M 46.184794,84.875655 Z"
     id="path380"
     style="fill:#745131" />
  <polygon
     class="h"
     points="45.53,83.66 45.61,83.56 45.52,83.64 "
     id="polygon382"
     transform="translate(-0.00520568,-0.00434486)"
     style="fill:#745131" />
  <path
     class="h"
     d="m 44.894794,82.615655 a 0.61,0.61 0 0 0 0.07,0.14 c -0.06,-0.1 0.05,-0.21 -0.07,-0.14 z"
     id="path384"
     style="fill:#745131" />
  <path
     class="h"
     d="M 44.984794,56.945655 Z"
     id="path386"
     style="fill:#745131" />
  <path
     class="h"
     d="M 44.374794,57.095655 Z"
     id="path388"
     style="fill:#745131" />
  <path
     class="h"
     d="m 43.734794,57.175655 c 0.21,0.28 0.2,-0.07 0.36,0 v 0 l -0.06,-0.19 c -0.07,0.09 -0.16,0.26 -0.3,0.19 z"
     id="path390"
     style="fill:#745131" />
  <path
     class="h"
     d="m 43.034794,56.435655 c 0.09,0.15 0,0.1 0.1,0.07 v 0 z"
     id="path392"
     style="fill:#745131" />
  <path
     class="h"
     d="m 42.824794,56.455655 v -0.11 c -0.06,-0.09 -0.15,-0.14 -0.15,-0.2 0,-0.06 0.03,0.14 0.15,0.31 z"
     id="path394"
     style="fill:#745131" />
  <path
     class="h"
     d="m 42.874794,56.735655 v -0.06 c 0,0 -0.02,-0.05 0,0.06 z"
     id="path396"
     style="fill:#745131" />
  <path
     class="h"
     d="m 42.934794,56.575655 v 0.1 c 0,0.07 0.1,0.2 0,0 0.03,0.09 0,-0.03 0,-0.1 z"
     id="path398"
     style="fill:#745131" />
  <path
     class="h"
     d="m 43.014794,56.645655 c 0.09,0.1 0.18,0.15 0.15,0.27 0.14,-0.04 0,-0.28 -0.15,-0.27 z"
     id="path400"
     style="fill:#745131" />
  <path
     class="h"
     d="m 43.864794,57.495655 0.11,0.06 v -0.11 c 0,0.06 -0.16,-0.04 -0.11,0.05 z"
     id="path402"
     style="fill:#745131" />
  <path
     class="h"
     d="m 42.204794,56.055655 a 1.67,1.67 0 0 0 0.19,0.42 v -0.1 a 1.29,1.29 0 0 1 -0.19,-0.32 z"
     id="path404"
     style="fill:#745131" />
  <path
     class="h"
     d="m 42.374794,56.475655 v 0.15 c 0.09,0.04 0.07,-0.04 0,-0.15 z"
     id="path406"
     style="fill:#745131" />
  <polygon
     class="h"
     points="43.08,56.89 43.04,57.2 43.07,57.2 "
     id="polygon408"
     transform="translate(-0.00520568,-0.00434486)"
     style="fill:#745131" />
  <polygon
     class="h"
     points="41.83,55.65 41.88,56.02 41.87,55.9 "
     id="polygon410"
     transform="translate(-0.00520568,-0.00434486)"
     style="fill:#745131" />
  <path
     class="h"
     d="m 41.674794,55.855655 c 0,-0.22 -0.17,-0.43 -0.18,-0.56 a 2.64,2.64 0 0 0 0,0.36 c 0,-0.09 0.06,-0.03 0.18,0.2 z"
     id="path412"
     style="fill:#745131" />
  <path
     class="h"
     d="m 41.494794,55.945655 a 1,1 0 0 0 0,-0.25 1,1 0 0 0 0,0.25 z"
     id="path414"
     style="fill:#745131" />
  <path
     class="h"
     d="m 42.204794,56.535655 a 2.21,2.21 0 0 0 -0.18,-0.34 l 0.14,0.33 z"
     id="path416"
     style="fill:#745131" />
  <path
     class="h"
     d="M 42.174794,56.535655 Z"
     id="path418"
     style="fill:#745131" />
  <path
     class="h"
     d="M 42.214794,56.545655 Z"
     id="path420"
     style="fill:#745131" />
  <path
     class="h"
     d="m 42.724794,56.945655 a 0.76,0.76 0 0 0 0.17,0.56 3.62,3.62 0 0 1 -0.17,-0.56 z"
     id="path422"
     style="fill:#745131" />
  <path
     class="h"
     d="m 42.374794,56.945655 0.12,0.08 a 1.22,1.22 0 0 1 -0.09,-0.27 z"
     id="path424"
     style="fill:#745131" />
  <polygon
     class="h"
     points="42.4,56.94 42.36,56.91 42.39,57.04 "
     id="polygon426"
     transform="translate(-0.00520568,-0.00434486)"
     style="fill:#745131" />
  <path
     class="h"
     d="m 41.744794,56.305655 c 0,0.14 0,0.14 -0.07,0.16 a 0.49,0.49 0 0 0 0.18,0.14 c -0.02,-0.11 -0.06,-0.3 -0.11,-0.3 z"
     id="path428"
     style="fill:#745131" />
  <path
     class="h"
     d="M 41.954794,56.455655 Z"
     id="path430"
     style="fill:#745131" />
  <path
     class="h"
     d="M 41.244794,56.335655 Z"
     id="path432"
     style="fill:#745131" />
  <path
     class="h"
     d="m 41.884794,56.675655 c 0.06,0.08 0.06,0 0,-0.11 a 0,0 0 0 0 -0.07,0 c 0,0 0.06,0.13 0.07,0.11 z"
     id="path434"
     style="fill:#745131" />
  <path
     class="h"
     d="m 41.424794,56.025655 0.12,0.24 c -0.05,-0.13 -0.17,-0.32 -0.12,-0.24 z"
     id="path436"
     style="fill:#745131" />
  <path
     class="h"
     d="m 41.914794,56.375655 v 0 c -0.04,-0.09 -0.02,-0.06 0,0 z"
     id="path438"
     style="fill:#745131" />
  <path
     class="h"
     d="m 41.914794,56.375655 v 0.19 a 0.14,0.14 0 0 0 0,-0.09 z"
     id="path440"
     style="fill:#745131" />
  <path
     class="h"
     d="m 41.594794,58.745655 c 0,0 0,-0.48 0.21,-0.1 a 12.39,12.39 0 0 0 -0.54,-2.24 1.28,1.28 0 0 1 0,0.55 2.54,2.54 0 0 1 0.3,0.85 c -0.07,0.21 -0.12,-0.13 -0.22,-0.34 a 2,2 0 0 1 0.07,0.64 v 0.64 c 0,0.06 0.08,0 0.1,-0.08 0.02,-0.08 0.04,0.06 0.08,0.08 z"
     id="path442"
     style="fill:#745131" />
  <path
     class="h"
     d="m 41.424794,56.485655 v 0 a 3.76,3.76 0 0 1 -0.23,-0.55 1.55,1.55 0 0 0 0,0.43 l 0.18,0.1 z"
     id="path444"
     style="fill:#745131" />
  <path
     class="h"
     d="m 41.604794,56.495655 a 4.21,4.21 0 0 0 0.19,1 c 0.1,0 0,-0.32 0,-0.47 -0.14,0.07 0,-0.21 -0.19,-0.44 a 0.09,0.09 0 0 1 0.06,-0.08 1.37,1.37 0 0 1 -0.13,-0.2 v 0 0.14 c -0.07,-0.09 0,-0.1 0,-0.14 v -0.06 0 l -0.11,0.17 a 0.13,0.13 0 0 0 0.16,0.09 z"
     id="path446"
     style="fill:#745131" />
  <path
     class="h"
     d="m 43.044794,58.155655 v -0.07 c 0,0 -0.02,0.07 0,0.07 z"
     id="path448"
     style="fill:#745131" />
  <path
     class="h"
     d="m 42.904794,57.945655 v -0.14 a 1.26,1.26 0 0 0 0.09,0.23 0.39,0.39 0 0 0 -0.13,-0.35 v 0 a 1.6,1.6 0 0 1 -0.35,-0.51 6.18,6.18 0 0 0 0.39,0.77 z"
     id="path450"
     style="fill:#745131" />
  <path
     class="h"
     d="m 42.254794,57.435655 -0.09,0.18 0.17,0.3 -0.06,-0.18 c 0.1,0.06 0.02,-0.16 -0.02,-0.3 z"
     id="path452"
     style="fill:#745131" />
  <polygon
     class="h"
     points="41.11,55.68 41.17,56.29 41.19,56.12 "
     id="polygon454"
     transform="translate(-0.00520568,-0.00434486)"
     style="fill:#745131" />
  <polygon
     class="h"
     points="40.97,55.71 40.97,55.93 41.04,56.11 "
     id="polygon456"
     transform="translate(-0.00520568,-0.00434486)"
     style="fill:#745131" />
  <path
     class="h"
     d="M 32.224794,52.865655 Z"
     id="path458"
     style="fill:#745131" />
  <path
     class="h"
     d="M 32.284794,53.215655 Z"
     id="path460"
     style="fill:#745131" />
  <path
     class="h"
     d="m 38.294794,54.315655 c 0.24,-0.57 0.66,-1.44 0.33,-0.79 l -0.33,0.65 c 0.08,-0.1 0.08,-0.01 0,0.14 z"
     id="path462"
     style="fill:#745131" />
  <path
     class="h"
     d="m 33.764794,55.745655 h 0.05 l 0.29,-0.17 c -0.14,0.09 -0.36,0.21 -0.34,0.17 z"
     id="path464"
     style="fill:#745131" />
  <path
     class="h"
     d="M 33.444794,55.945655 Z"
     id="path466"
     style="fill:#745131" />
  <path
     class="h"
     d="m 31.834794,50.945655 h -0.09 c 0.01,0.09 0.04,0 0.09,0 z"
     id="path468"
     style="fill:#745131" />
  <path
     class="h"
     d="m 39.634794,55.595655 a 1.41,1.41 0 0 0 0,-0.41 c -0.04,0.37 -0.05,0.89 0,0.41 z"
     id="path470"
     style="fill:#745131" />
  <path
     class="h"
     d="m 36.564794,52.125655 -0.46,0.06 a 1.76,1.76 0 0 0 0.46,-0.06 z"
     id="path472"
     style="fill:#745131" />
  <path
     class="h"
     d="m 39.504794,55.115655 v 0.16 c 0,-0.09 0.07,-0.15 0.09,-0.09 0,-0.24 -0.01,-0.46 -0.09,-0.07 z"
     id="path474"
     style="fill:#745131" />
  <path
     class="h"
     d="M 33.054794,44.095655 Z"
     id="path476"
     style="fill:#745131" />
  <path
     class="h"
     d="m 34.844794,42.875655 v 0.07 c 0,0 0.01,0 0,-0.07 z"
     id="path478"
     style="fill:#745131" />
  <path
     class="h"
     d="M 40.764794,57.645655 Z"
     id="path480"
     style="fill:#745131" />
  <path
     class="h"
     d="m 40.474794,55.865655 a 1.09,1.09 0 0 0 -0.05,-0.17 z"
     id="path482"
     style="fill:#745131" />
  <path
     class="h"
     d="m 40.454794,55.625655 v 0.06 c 0.02,-0.08 0.01,-0.13 0,-0.06 z"
     id="path484"
     style="fill:#745131" />
  <path
     class="h"
     d="m 40.374794,55.625655 0.05,0.07 c 0.05,0.07 0,-0.06 0,-0.08 z"
     id="path486"
     style="fill:#745131" />
  <path
     class="h"
     d="M 32.064794,47.715655 Z"
     id="path488"
     style="fill:#745131" />
  <polygon
     class="h"
     points="35.26,57.73 35.25,57.72 35.25,57.73 "
     id="polygon490"
     transform="translate(-0.00520568,-0.00434486)"
     style="fill:#745131" />
  <path
     class="h"
     d="m 35.064794,57.675655 h 0.18 l 0.1,-0.23 z"
     id="path492"
     style="fill:#745131" />
  <path
     class="h"
     d="m 32.054794,52.035655 -0.06,0.13 c -0.14,-0.12 -0.11,-0.22 -0.2,-0.1 0.26,0 0.09,0.44 0.36,0.41 v 0.08 0 c -0.1,0.17 0.21,0.07 0.21,0.26 0,0.19 0,0.12 -0.08,0.09 l 0.09,0.13 v 0 l 0.07,0.22 v 0 a 0.91,0.91 0 0 1 0.16,0.11 c 0,0.06 0,0 -0.06,0 l 0.09,0.1 c -0.06,0.07 -0.15,0 -0.15,-0.11 -0.24,0.18 0.08,0.09 0,0.38 l -0.06,-0.11 c -0.13,0.11 -0.06,0.19 -0.11,0.35 0,0 0.16,-0.33 0.26,-0.21 a 0.15,0.15 0 0 0 0.07,0.15 c -0.09,0 -0.05,0.09 0,0.18 h -0.12 c 0.06,0.09 0.12,0.06 0.19,0.1 0.07,0.04 -0.06,0.16 -0.13,0.21 -0.07,0.05 0.11,-0.16 0.2,0 a 1.45,1.45 0 0 0 0.22,0.38 c 0.13,0.14 -0.08,0 -0.1,0.06 h 0.33 c 0.08,0 -0.07,0.31 0.14,0.38 h -0.12 a 1.11,1.11 0 0 0 0.37,0.2 v 0.16 c 0,-0.14 0.2,-0.09 0.33,0 v 0 l 0.1,-0.08 0.21,-0.16 0.3,-0.24 0.59,-0.23 a 7.5,7.5 0 0 1 -0.88,0.59 l 0.24,-0.13 -0.27,0.23 -0.17,0.12 h -0.11 v -0.1 a 0.35,0.35 0 0 0 -0.24,0.06 h 0.08 l -0.09,0.11 h 0.06 l 0.07,0.25 a 1.93,1.93 0 0 1 0.71,0.2 c -0.12,0 -0.14,0.1 -0.23,0.18 0,-0.14 -0.19,-0.12 -0.26,-0.25 0,0.07 0,0.09 -0.05,0.09 l 0.27,0.12 c -0.08,0.06 0,0.09 0,0.17 0.11,-0.18 0.22,0 0.34,0.07 0.12,0.07 -0.11,0.09 -0.19,0 0,0.2 0.3,0 0.31,0.14 h -0.06 c -0.06,0 0.19,0.16 0.12,0.18 v 0 c 0.14,0.15 0.49,0.4 0.61,0.28 a 1.29,1.29 0 0 1 -0.17,0.16 l 0.31,-0.11 h 0.08 l 0.19,-0.23 0.76,-1 -0.68,1 -0.18,0.27 v 0 0.08 c -0.06,0.09 -0.13,0.18 -0.23,0.16 a 0.21,0.21 0 0 0 0.19,0.11 c 0,0 0,-0.21 0.09,-0.2 a 0.89,0.89 0 0 0 0.08,0.32 c 0,-0.06 0.14,-0.21 0.2,-0.17 0.06,0.04 -0.1,0.19 -0.14,0.2 l 0.28,-0.09 c -0.06,0 -0.1,0.15 -0.09,0.23 0.01,0.08 0.15,0.09 0.21,0.09 l -0.05,-0.08 c 0.18,0.13 0.33,-0.17 0.52,-0.06 -0.05,0 -0.18,0.21 -0.09,0.29 l 0.27,-0.22 v 0 l 0.08,-0.16 0.19,-0.36 0.14,-0.47 c 0.15,-0.29 0.31,-0.57 0.48,-0.85 l -0.18,0.5 0.32,-0.5 -0.54,1.15 -0.34,0.68 -0.09,0.17 c 0,0.06 -0.06,0.13 -0.06,0.11 v 0 a 2.53,2.53 0 0 1 -0.37,0.18 c 0.06,0.08 0,0.08 0.11,0.12 0.11,0.04 -0.1,0 -0.14,0 l 0.26,0.15 c 0,-0.12 0.26,0 0.29,-0.14 h -0.35 a 0.4,0.4 0 0 1 0.49,-0.17 c 0,0.06 -0.11,0.2 -0.13,0.24 -0.02,0.04 0.22,0 0.23,0 h -0.11 c 0.1,0.09 0.23,-0.09 0.33,0.06 0.1,0.15 0.09,0.2 0.12,0.13 a 1.09,1.09 0 0 1 0,-0.36 l 0.32,-1 0.35,-1 -0.24,1.72 -0.08,0.35 v 0 a 0.16,0.16 0 0 1 -0.06,0.08 c -0.05,0.06 -0.09,0.11 -0.07,0.16 0.02,0.05 0.06,-0.06 0.08,-0.07 0.02,-0.01 -0.05,0.1 0.06,0.11 0.11,0.01 0.21,0.06 0.08,-0.09 0.11,0 0.1,0 0.22,0.07 0.12,0.07 0,-0.1 0.09,-0.15 0.09,-0.05 0.05,0 0.13,-0.26 a 3.2,3.2 0 0 1 0.16,-0.39 3.38,3.38 0 0 1 -0.07,0.4 1,1 0 0 0 0,0.24 c 0.21,0 0.31,0.11 0.51,0.14 0,0 0.11,0.08 0.06,0.12 -0.05,0.04 0.06,0 0.12,0 0.06,0 -0.14,0 -0.06,0.14 0,-0.07 0.17,-0.09 0.26,-0.13 0.09,-0.04 -0.2,0 -0.29,0 a 0.21,0.21 0 0 1 0,-0.11 v 0 -0.1 l 0.08,-0.39 a 9.3,9.3 0 0 1 0.31,-1.15 c 0.14,-0.25 0,0.73 0,0.58 0.27,0.23 0.24,-1.86 0.42,-1 a 13.84,13.84 0 0 1 0.06,1.82 c -0.12,0.26 -0.19,-0.43 -0.27,-0.41 l 0.1,0.33 c 0,0.22 -0.13,0.4 -0.18,0.2 a 0.54,0.54 0 0 0 0,0.18 h 0.27 a 1.62,1.62 0 0 1 0.44,0 h 0.06 v -0.24 l -0.06,0.1 c -0.1,-0.52 0.07,-0.71 0,-1 -0.07,-0.29 0.09,-0.89 0.24,-0.59 l 0.1,0.69 c 0,-0.2 -0.13,-0.42 -0.14,-0.21 0,-0.29 0.31,0.94 0.25,0 l -0.15,-0.47 c 0,-0.35 0,-1 0.16,-0.77 -0.15,-0.65 0,0.07 -0.2,-0.71 0.2,1 -0.24,-0.14 0,0.91 -0.19,-0.93 -0.17,-0.42 -0.34,-1.26 0,0.23 0.08,0.45 0,0.3 v 0.21 0 c 0,0.12 0.05,0.25 0.07,0.37 0,0.53 -0.11,0.48 -0.14,0.76 a 4.86,4.86 0 0 1 0,-0.54 v 0.41 a 5.09,5.09 0 0 1 -0.07,-1.23 l -0.08,-0.07 c -0.06,-0.34 -0.11,-0.52 -0.15,-0.3 0,-0.15 -0.1,0.59 -0.06,0.15 l -0.13,0.29 v -0.15 c -0.1,-0.16 -0.35,0.89 -0.35,-0.32 -0.05,0.12 -0.12,0.29 -0.15,0.08 l 0.07,-0.56 c -0.08,0.16 0,-0.65 -0.13,-0.09 0.28,-1.54 -0.05,-0.5 -0.05,-0.83 l -0.21,0.74 c 0,-0.08 -0.14,0.09 -0.3,0.34 l -0.21,0.67 c -0.25,0.5 0,-0.58 -0.1,-0.59 0.1,-0.25 0.1,-0.16 0.06,0 0.23,-0.8 0.09,-0.57 -0.1,-0.28 -0.19,0.29 -0.42,0.61 -0.21,0 -0.13,0.22 -0.11,0.12 0,-0.06 v 0 l 0.15,-0.38 c -0.07,0.17 -0.13,0.31 -0.15,0.37 -0.02,0.06 -0.09,0.07 -0.2,0.21 l 0.35,-0.72 v 0 c 0.12,-0.29 -0.19,0.32 -0.46,0.86 l -0.26,0.4 c 0.6,-1.16 -0.28,0.32 0.36,-0.91 -0.35,0.57 -0.36,0.33 -1.14,1.54 0.09,-0.16 0.13,-0.24 0.16,-0.24 0,-0.16 0.1,-0.33 -0.15,0 l 0.54,-0.74 c -0.28,0.37 -0.56,0.75 -0.86,1.11 a 10.13,10.13 0 0 1 1,-1.51 c -0.8,0.94 -0.32,0.32 -1.15,1.24 l 0.42,-0.54 c 0,0 -0.67,0.67 -0.33,0.21 0.34,-0.46 0.33,-0.65 0.28,-0.76 -0.05,-0.11 -0.13,-0.23 0.28,-0.72 -1.5,1.43 0.64,-0.68 -0.55,0.39 0.36,-0.34 0.56,-0.53 0.89,-0.8 -0.4,0.26 0.57,-0.55 -0.52,0.25 l 0.8,-0.61 c -0.08,0.06 -0.34,0.25 -0.11,0.06 l 0.5,-0.37 -2.47,1.74 c 0.51,-0.44 0.44,-0.39 -0.37,0.09 a 4.52,4.52 0 0 1 0.95,-0.61 c 0,-0.08 0.49,-0.51 -0.5,0.06 0.25,-0.16 0.05,-0.09 -0.07,0 0,-0.11 0.11,-0.16 0,-0.19 l -0.15,0.11 c -1.27,0.57 -0.32,0.06 -0.5,0.06 h 0.13 c 0.85,-0.56 -0.48,0.1 0.52,-0.48 l -0.8,0.32 c -1.75,0.62 1,-0.54 0.26,-0.39 l -0.45,0.19 a 21.39,21.39 0 0 1 2.55,-1 0.57,0.57 0 0 0 0.37,-0.08 c 1,-0.4 -1.08,0.31 -1.36,0.29 0.58,-0.18 1.49,-0.4 1.58,-0.48 0.46,-0.12 -2,0.31 -0.87,-0.06 a 6,6 0 0 1 -1.25,0.28 c -0.18,-0.07 1.65,-0.59 0.2,-0.38 l 0.35,-0.09 a 7,7 0 0 0 -1.45,0 c 2.83,-0.58 -1.5,-0.25 1.12,-0.7 l -0.21,-0.23 h 0.27 c 0.12,-0.19 -0.51,-0.14 -1.14,-0.09 a 2.54,2.54 0 0 1 0.55,-0.1 c 0.45,-0.31 0.33,-0.29 -1,-0.29 l 0.82,-0.14 c -0.48,0 1.2,-0.46 0.19,-0.53 h 0.37 c -0.51,0 0,-0.23 0.29,-0.36 0.29,-0.13 0.29,-0.19 -1.14,-0.15 l -0.72,-0.11 c -0.19,0.21 -1.23,0 -1.68,0.13 -0.17,-0.09 0.82,-0.26 1,-0.16 h -0.14 c 1.46,0 0.48,-0.27 1.46,-0.28 -0.14,-0.37 0.57,-0.67 0.52,-1 l -1,-0.07 0.05,-0.12 c 0.23,0 0.77,0 0.74,0.13 0.56,0 -0.5,-0.19 -0.71,-0.23 0.37,-0.11 1.16,0.22 1.18,0.17 l -0.14,-0.2 h -0.11 c -0.41,-0.1 -0.83,-0.17 -0.79,-0.27 a 3.21,3.21 0 0 1 0.62,0 v 0 -0.13 l -0.73,-0.07 c -0.36,-0.14 0,-0.14 -0.79,-0.22 1.27,0.13 0.43,-0.51 0.81,-0.49 -0.48,-0.23 -0.46,-0.33 -0.39,-0.44 -0.13,0 -0.83,-0.2 -0.72,-0.29 1.39,0.49 0.63,0 1.57,0.24 -0.62,-0.14 -0.15,-0.36 -1,-0.56 0.11,0 0.47,0.17 0.77,0.22 -0.46,-0.4 0.27,-0.37 0.11,-0.71 a 2.57,2.57 0 0 1 -0.52,-0.27 l 0.65,0.16 c -0.07,-0.09 -0.71,-0.41 -0.28,-0.3 a 0.43,0.43 0 0 1 -0.29,-0.15 c 0.32,-0.13 0.22,-0.49 0.23,-0.82 a 1,1 0 0 1 0.36,-0.78 c -0.09,0 -0.1,0 -0.09,-0.11 0.01,-0.11 -0.11,-0.08 -0.17,-0.11 a 0.74,0.74 0 0 0 0.19,-0.16 c -0.1,-0.14 0,-0.31 0,-0.39 v 0.09 c 0,-0.17 -0.29,0 -0.35,-0.12 0,0.15 -0.31,0.16 -0.33,0.4 v 0 a 0.2,0.2 0 0 1 -0.1,0.2 v 0 c -0.18,0.26 -0.29,0.34 -0.52,0.63 h 0.07 a 0.31,0.31 0 0 1 -0.11,0.09 c 0,0.12 0.12,-0.18 0.17,-0.06 -0.17,0 -0.28,0.46 -0.44,0.45 -0.16,-0.01 0.08,0 0,0.11 h -0.05 a 0.13,0.13 0 0 1 -0.14,0.06 0.09,0.09 0 0 0 0,-0.07 c -0.09,0.07 -0.11,0.26 -0.14,0.28 l 0.07,-0.09 a 4.42,4.42 0 0 0 -0.36,1 v 0 c 0,0.24 -0.11,0.16 -0.17,0.42 v 0 a 0.31,0.31 0 0 1 0,0.19 c 0,-0.07 -0.11,0.1 -0.13,0 0,0.27 0,0.14 0.09,0.34 h 0.01 a 0.26,0.26 0 0 1 0,0.21 c 0,-0.11 -0.11,0.06 -0.15,-0.07 -0.2,0.23 0,0.42 -0.18,0.5 0.14,0.16 0.14,-0.21 0.16,-0.13 0.02,0.08 0.11,0.12 0.07,0.2 -0.04,0.08 -0.25,0.11 -0.28,0.32 v 0 a 0.58,0.58 0 0 1 -0.06,0.26 c 0.1,0.07 0,0.13 0.11,0.16 v -0.2 c 0,0.12 0.17,0.24 0.07,0.42 a 0.36,0.36 0 0 1 -0.08,-0.12 v 0.18 a 1,1 0 0 0 -0.09,-0.38 c -0.06,0 0.07,0.24 -0.07,0.16 0.18,0.11 -0.06,0.22 0.08,0.38 h -0.08 a 0.24,0.24 0 0 1 0,0.12 l -0.11,-0.08 c 0.09,0.12 -0.1,0.23 -0.06,0.35 0,-0.25 0.11,0 0.18,-0.15 0.09,0.3 -0.23,0.16 -0.21,0.5 0,0 0.06,-0.17 0.09,-0.1 a 0.44,0.44 0 0 1 -0.1,0.19 c 0,0.23 0.09,0 0.14,0.06 -0.11,0.08 0,0.11 0.07,0.21 h -0.08 c -0.06,0.26 0.18,0.07 0.12,0.3 l -0.13,-0.1 v 0.12 h -0.11 a 0.32,0.32 0 0 1 0,0.3 c 0.06,0 0.16,0 0.17,0.12 0.01,0.12 -0.08,0 -0.06,0.12 0.02,0.12 -0.13,-0.07 0,-0.14 0.13,-0.07 -0.06,0 -0.09,0 -0.03,0 0,0.21 0,0.27 a 0.09,0.09 0 0 1 0,-0.07 l 0.14,0.22 h -0.09 c 0,0 0.06,0.07 0.07,0.14 0.01,0.07 -0.15,0 -0.19,-0.09 l 0.1,0.21 c 0,0 -0.08,0.12 -0.11,0.1 -0.03,-0.02 0.18,0.28 0.14,0.44 a 0.06,0.06 0 0 1 0,0.06 c 0,0.15 -0.07,0.3 0.06,0.46 l -0.12,0.12 c 0.05,0.13 0.15,-0.17 0.24,0 0.09,0.17 -0.11,0.08 -0.14,0.14 -0.03,0.06 0.24,0.19 0.16,0.35 0.1,-0.15 0.12,-0.19 0.1,-0.24 z"
     id="path494"
     style="fill:#745131" />
  <path
     class="h"
     d="m 32.444794,53.725655 c 0,0 -0.1,-0.08 -0.05,-0.12 0.05,-0.04 0.07,0.05 0.05,0.12 z"
     id="path496"
     style="fill:#745131" />
  <path
     class="h"
     d="m 33.764794,56.055655 c 0,0 -0.05,0 -0.05,-0.1 a 0.12,0.12 0 0 1 0.05,0.1 z"
     id="path498"
     style="fill:#745131" />
  <path
     class="h"
     d="m 40.124794,55.945655 v 0 c -0.05,-0.23 0,-0.13 0,0 z"
     id="path500"
     style="fill:#745131" />
  <path
     class="h"
     d="m 40.234794,56.225655 a 1,1 0 0 0 0,-0.24 c 0,0.14 0,0.14 -0.05,0.09 0.01,0.16 0.03,0.27 0.05,0.15 z"
     id="path502"
     style="fill:#745131" />
  <path
     class="h"
     d="m 34.854794,47.675655 h -0.16 c -0.18,-0.08 0,0 0.16,0 z"
     id="path504"
     style="fill:#745131" />
  <path
     class="h"
     d="M 33.484794,55.885655 Z"
     id="path506"
     style="fill:#745131" />
  <polygon
     class="h"
     points="31.85,50.99 31.84,50.99 31.85,51 "
     id="polygon508"
     transform="translate(-0.00520568,-0.00434486)"
     style="fill:#745131" />
  <path
     class="h"
     d="m 37.914794,58.945655 v 0 c 0,-0.1 -0.04,0 0,0 z"
     id="path510"
     style="fill:#745131" />
  <path
     class="h"
     d="m 40.684794,55.535655 v 0.11 c 0,0 0.05,0.11 0.08,0.2 a 1.09,1.09 0 0 1 -0.08,-0.31 z"
     id="path512"
     style="fill:#745131" />
  <path
     class="h"
     d="m 41.964794,58.615655 v 0 l -0.06,-0.21 c 0,0 -0.01,0.2 0.06,0.21 z"
     id="path514"
     style="fill:#745131" />
  <path
     class="h"
     d="m 41.004794,57.305655 c 0.07,0.44 0.11,0.29 0.15,0.21 v 0 c -0.09,-0.57 -0.12,-0.41 -0.15,-0.21 z"
     id="path516"
     style="fill:#745131" />
  <path
     class="h"
     d="m 41.164794,57.505655 h 0.06 c -0.04,-0.24 -0.03,-0.06 -0.06,0 z"
     id="path518"
     style="fill:#745131" />
  <path
     class="h"
     d="m 40.374794,55.945655 v -0.41 c 0,-0.59 -0.12,0.7 0,0.41 z"
     id="path520"
     style="fill:#745131" />
  <polygon
     class="h"
     points="41.18,58.21 41.21,58.65 41.28,58.74 "
     id="polygon522"
     transform="translate(-0.00520568,-0.00434486)"
     style="fill:#745131" />
  <path
     class="h"
     d="m 40.704794,58.375655 0.12,0.16 a 0.67,0.67 0 0 1 0,-0.2 c -0.06,-0.02 -0.13,-0.13 -0.12,0.04 z"
     id="path524"
     style="fill:#745131" />
  <path
     class="h"
     d="m 40.834794,58.335655 c 0,0 0.06,0 0.07,-0.1 a 0.14,0.14 0 0 0 -0.07,0.1 z"
     id="path526"
     style="fill:#745131" />
  <polygon
     class="h"
     points="41.11,58.78 41.03,58.79 41.14,58.79 "
     id="polygon528"
     transform="translate(-0.00520568,-0.00434486)"
     style="fill:#745131" />
  <path
     class="h"
     d="m 39.614794,58.205655 -0.12,0.18 v 0.28 a 1.21,1.21 0 0 0 0.12,-0.46 z"
     id="path530"
     style="fill:#745131" />
  <path
     class="h"
     d="m 39.934794,58.945655 -0.05,-0.06 v 0.1 z"
     id="path532"
     style="fill:#745131" />
  <path
     class="h"
     d="m 39.584794,58.945655 c 0,0 -0.18,0.08 0,0.08 0.18,0 0.11,0.01 0,-0.08 z"
     id="path534"
     style="fill:#745131" />
  <polygon
     class="h"
     points="37.83,58.58 37.86,58.59 38.19,57.42 37.96,58.17 37.85,58.54 "
     id="polygon536"
     transform="translate(-0.00520568,-0.00434486)"
     style="fill:#745131" />
  <path
     class="h"
     d="m 36.134794,58.405655 c 0.12,0.11 0.09,-0.09 0.18,0 0.09,0.09 -0.07,-0.09 0,-0.11 -0.12,0.03 -0.15,-0.02 -0.18,0.11 z"
     id="path538"
     style="fill:#745131" />
  <polygon
     class="h"
     points="35,42.49 34.95,42.52 34.97,42.58 "
     id="polygon540"
     transform="translate(-0.00520568,-0.00434486)"
     style="fill:#745131" />
  <path
     class="h"
     d="m 34.894794,42.305655 h 0.07 v -0.1 a 0.46,0.46 0 0 1 -0.07,0.1 z"
     id="path542"
     style="fill:#745131" />
  <path
     class="h"
     d="M 32.264794,54.045655 Z"
     id="path544"
     style="fill:#745131" />
  <polygon
     class="h"
     points="32.08,52.8 32.19,52.74 32.08,52.77 "
     id="polygon546"
     transform="translate(-0.00520568,-0.00434486)"
     style="fill:#745131" />
  <path
     class="h"
     d="m 31.764794,51.765655 v 0.18 c 0,-0.14 0.14,-0.21 0,-0.18 z"
     id="path548"
     style="fill:#745131" />
  <g
     class="k"
     id="g552"
     transform="translate(-0.00520568,-0.00434486)"
     style="opacity:0.81">
    <path
       class="l"
       d="m 344,105.27 c 4.11,6.19 -1.51,8 -6.81,8.49 a 26.88,26.88 0 0 1 -13.45,-2.47 C 313.44,106.54 304.55,97.7 301.18,86.63 a 26.65,26.65 0 0 1 7,-26 c 3,-3.09 9.7,-6.72 13.11,-2.31 a 9.25,9.25 0 0 1 1.36,6.62 h -0.3 c 0,-4.66 -2.4,-9 -7.59,-6.65 -4,1.59 -6.74,5.31 -8.74,9 -9.2,16.27 4.05,34.58 18.78,41.94 5.58,2.8 12.62,4.19 18.56,1.83 2,-1.15 1.3,-3.92 0.36,-5.59 l 0.26,-0.15 z"
       transform="translate(-280.62,-20.05)"
       id="path550"
       style="fill:#231f20" />
  </g>
  <path
     class="i"
     d="m 63.374794,85.215655 c 4.11,6.189996 -1.51,7.999996 -6.81,8.489996 a 26.88,26.88 0 0 1 -13.45,-2.47 c -10.3,-4.749996 -19.19,-13.589996 -22.56,-24.659996 a 26.65,26.65 0 0 1 7,-26 c 3,-3.09 9.7,-6.72 13.11,-2.31 a 9.25,9.25 0 0 1 1.36,6.62 h -0.3 c 0,-4.66 -2.4,-9 -7.59,-6.65 -4,1.59 -6.74,5.31 -8.74,9 -9.2,16.27 4.05,34.58 18.78,41.94 5.58,2.799996 12.62,4.189996 18.56,1.829996 2,-1.149996 1.3,-3.919996 0.36,-5.589996 l 0.26,-0.15 z"
     id="path554"
     style="fill:#603813" />
  <path
     class="j"
     d="m 52.094794,71.445655 c -5.29,-0.36 -9.47,3.64 -7.86,9 1.37,4.77 6.15,7.39 10.74,8.42 1.5,0.34 3.2,0.87 4.67,0.3 a 4.06,4.06 0 0 0 2.63,-3.68 4.2,4.2 0 0 1 -2.43,4.13 c -1.61,0.74 -3.4,0.28 -5.05,0 a 18.37,18.37 0 0 1 -4.8,-1.51 c -3.85,-1.73 -7.17,-5.57 -6.94,-10 -0.06,-4.67 4.79,-7.54 9,-6.64 z"
     id="path556"
     style="fill:#673915" />
  <path
     class="j"
     d="m 46.464794,56.465655 c -3.09,4.63 -10.09,4.55 -13.53,0.31 -3.06,-3.4 -2.62,-8.66 -0.24,-12.29 0.9,-1.45 1.81,-3.14 3.53,-3.79 3,-1.31 4.95,1.24 5.47,3.94 -0.75,-2.33 -2.6,-4.71 -5.24,-3.35 -1.46,0.64 -2.2,2.29 -3,3.63 -2.07,3.43 -2.53,8.07 0.21,11.25 a 8.33,8.33 0 0 0 11.71,1.36 8.55,8.55 0 0 0 1.09,-1.06 z"
     id="path558"
     style="fill:#673915" />
  <path
     class="m"
     d="m 100.95479,153.70566 a 14.87,14.87 0 0 1 -8.759996,9.2 v 0 a 9.5,9.5 0 0 1 0.6,-4.54 10.92,10.92 0 0 1 1.53,-2.11 c -0.21,-0.23 -4.21,5.23 -9.05,5.16 -3.65,-0.06 -7.77,-3.25 -7.77,-3.25 a 15.91,15.91 0 0 1 3.19,-2.94 c 2.23,-1.41 4.25,-1 4.29,-1.5 0.04,-0.5 -2.85,-0.61 -6.44,-2.18 a 71.21,71.21 0 0 1 -7.24,-4.52 c -3.66,0.66 7.39,-1.85 11.08,-1.42 2.46,0.28 4.28,1 4.59,0.44 0.31,-0.56 -0.72,-0.92 -1.64,-2.63 a 14.88,14.88 0 0 1 -1.44,-4.74 38.71,38.71 0 0 1 4.54,0.88 c 4.58,1.49 6.32,8.45 6.49,8.38 a 10.8,10.8 0 0 1 -1.34,-5.15 23.86,23.86 0 0 1 1.26,-4.85 c 5.429996,3.8 7.799996,10.29 6.109996,15.77 z"
     id="path560"
     style="fill:#37b34a;stroke:#006838;stroke-miterlimit:10" />
  <path
     class="m"
     d="m 71.664794,147.32566 a 136.25,136.25 0 0 0 37.329996,6.6"
     id="path562"
     style="fill:#37b34a;stroke:#006838;stroke-miterlimit:10" />
  <path
     class="n"
     d="m 85.814794,156.51566 a 7.2,7.2 0 0 0 3.79,-9.45 7.33,7.33 0 0 0 -0.91,-1.55 5.52,5.52 0 0 1 2.1,2.82 c 1.37,3.49 -1.33,7.86 -5,8.15 z"
     id="path564"
     style="fill:#006838" />
  <path
     class="n"
     d="m 93.974794,157.61566 a 6.38,6.38 0 0 0 3.31,-10.29 5.11,5.11 0 0 1 2.15,2.75 c 1.399996,3.53 -1.78,7.87 -5.46,7.54 z"
     id="path566"
     style="fill:#006838" />
  <path
     class="m"
     d="m 25.784794,146.28566 a 22.38,22.38 0 0 0 -3.71,3.37 10.66,10.66 0 0 0 -1.3,2.95 c 0.4,-2.31 0.7,-6 -1.25,-8.46 a 38.94,38.94 0 0 0 -3.32,-3.23 15,15 0 0 0 -1.38,4.76 c -0.17,1.93 0.35,2.87 -0.07,3.1 -0.6,0.31 -1.7,-1.3 -3.6,-2.88 -1.8999997,-1.58 -7.3099997,-3.87 -9.6299997,-4.78 0,0.3 0,0.6 0,0.9 0.95,2.3 2,4.56 3.17,6.76 2.15,3.28 4.48,5 4.2,5.34 -0.28,0.34 -1.76,-1.08 -4.41,-1.08 a 15.79,15.79 0 0 0 -3,0.38 v 3.15 a 11.86,11.86 0 0 0 3.45,4.18 c 4,2.71 10.3499997,0.32 10.3999997,0.63 a 10.59,10.59 0 0 0 -2.44,0.93 9.5,9.5 0 0 0 -2.9999997,3.48 14.89,14.89 0 0 0 12.3599997,-2.92 c 4.41,-3.67 5.98,-10.4 3.53,-16.58 z"
     id="path568"
     style="fill:#37b34a;stroke:#006838;stroke-miterlimit:10" />
  <path
     class="m"
     d="m 20.444794,154.24566 c 0,0.15 -0.05,0.31 -0.06,0.46 -0.01,0.15 -0.01,-0.18 0.06,-0.46 z"
     id="path570"
     style="fill:#37b34a;stroke:#006838;stroke-miterlimit:10" />
  <path
     class="m"
     d="m 1.5147943,141.78566 v 0.08 a 136.09,136.09 0 0 0 27.3599997,25.58 z"
     id="path572"
     style="fill:#37b34a;stroke:#006838;stroke-miterlimit:10" />
  <path
     class="n"
     d="m 8.0447943,156.94566 a 7.19,7.19 0 0 0 8.3199997,-5.84 7.4,7.4 0 0 0 0.09,-1.76 5.52,5.52 0 0 1 0.21,3.5 c -0.76,3.69 -5.4,5.88 -8.6199997,4.1 z"
     id="path574"
     style="fill:#006838" />
  <path
     class="n"
     d="m 14.274794,162.32566 a 6.39,6.39 0 0 0 8.11,-4 6.58,6.58 0 0 0 0.29,-2.82 5.15,5.15 0 0 1 0.29,3.48 c -0.76,3.72 -5.76,5.59 -8.69,3.34 z"
     id="path576"
     style="fill:#006838" />
  <path
     class="o"
     d="m 132.50479,164.34566 a 50.39,50.39 0 0 0 -0.59,-37.85 l -0.39,38.45 z"
     id="path578"
     style="fill:#ffff80" />
  <path
     class="o"
     d="m 130.59479,165.56566 3.72,-2.37 a 51.23,51.23 0 0 0 -0.95,-37.09 c -0.47,-1.11 -3.34,-0.25 -2.9,0.78 a 50.08,50.08 0 0 1 0.13,38.68 z"
     id="path580"
     style="fill:#ffff80" />
  <path
     class="o"
     d="m 98.624794,179.41566 -0.28,3.79"
     id="path582"
     style="fill:#ffff80" />
  <path
     class="o"
     d="m 99.564794,186.13566 0.549996,-7.11 c 0,-0.37 -2.829996,-0.07 -2.899996,0.78 v 0 l -0.62,8.46 c 0.96,-0.72 1.97,-1.42 2.97,-2.13 z"
     id="path584"
     style="fill:#ffff80" />
  <path
     class="o"
     d="m 72.374794,205.37566 a 46,46 0 0 0 0.08,-23.79 l -1.63,24.87 z"
     id="path586"
     style="fill:#ffff80" />
  <path
     class="o"
     d="m 70.644794,206.57566 q 1.69,-1.15 3.39,-2.34 a 46.84,46.84 0 0 0 -0.12,-23 c -0.2,-0.78 -3.11,0 -2.9,0.78 a 46.1,46.1 0 0 1 -0.37,24.56 z"
     id="path588"
     style="fill:#ffff80" />
  <path
     class="o"
     d="m 83.374794,100.56566 6.48,9.72"
     id="path590"
     style="fill:#ffff80" />
  <path
     class="o"
     d="m 82.004794,101.18566 6.48,9.72 c 0.68,1 3.46,-0.05 2.66,-1.24 l -6.48,-9.700009 c -0.68,-1 -3.46,0 -2.66,1.240009 z"
     id="path592"
     style="fill:#ffff80" />
  <path
     class="o"
     d="m 39.044794,89.765655 1.85,20.450005"
     id="path594"
     style="fill:#ffff80" />
  <path
     class="o"
     d="m 37.594794,90.155655 1.86,20.450005 c 0.1,1.19 3,0.52 2.89,-0.78 l -1.86,-20.450005 c -0.11,-1.19 -3,-0.52 -2.89,0.78 z"
     id="path596"
     style="fill:#ffff80" />
  <path
     class="o"
     d="M 10.074794,96.255651 9.0247943,114.61566"
     id="path598"
     style="fill:#ffff80" />
  <path
     class="o"
     d="m 8.6247943,96.645651 -1.05,18.300009 c 0,0.54 2.8399997,0.16 2.8899997,-0.78 l 1.06,-18.360009 c 0,-0.53 -2.8499997,-0.16 -2.8999997,0.78 z"
     id="path600"
     style="fill:#ffff80" />
  <path
     class="o"
     d="m 32.514794,146.32566 26,4.08"
     id="path602"
     style="fill:#ffff80" />
  <path
     class="o"
     d="m 31.634794,147.15566 26,4.07 a 2.42,2.42 0 0 0 2,-0.55 c 0.4,-0.4 0.36,-1 -0.3,-1.1 l -26,-4.07 a 2.42,2.42 0 0 0 -2,0.55 c -0.39,0.4 -0.36,1 0.3,1.1 z"
     id="path604"
     style="fill:#ffff80" />
  <path
     class="o"
     d="m 71.534794,170.88566 -25.8,17.46"
     id="path606"
     style="fill:#ffff80" />
  <path
     class="o"
     d="m 70.594794,170.30566 -25.79,17.47 c -0.49,0.33 -0.75,1 -0.2,1.36 a 2.05,2.05 0 0 0 2.07,-0.21 l 25.8,-17.47 c 0.49,-0.33 0.75,-1 0.19,-1.36 a 2.05,2.05 0 0 0 -2.07,0.21 z"
     id="path608"
     style="fill:#ffff80" />
  <path
     class="o"
     d="m 29.374794,180.48566 5.4,16.2"
     id="path610"
     style="fill:#ffff80" />
  <path
     class="o"
     d="m 27.884794,180.87566 5.4,16.2 c 0.36,1.06 3.24,0.25 2.9,-0.78 l -5.4,-16.2 c -0.36,-1.06 -3.24,-0.25 -2.9,0.78 z"
     id="path612"
     style="fill:#ffff80" />
  <path
     class="o"
     d="m 8.8147943,197.76566 1.08,9.72"
     id="path614"
     style="fill:#ffff80" />
  <path
     class="o"
     d="m 7.3747943,198.15566 1.08,9.72 c 0.09,0.78 2.9999997,0.18 2.8999997,-0.78 l -1.08,-9.72 c -0.09,-0.78 -2.9999997,-0.18 -2.8999997,0.78 z"
     id="path616"
     style="fill:#ffff80" />
  <path
     class="o"
     d="m 11.944794,115.71566 c 1.69,0 2.19,-2.22 0.22,-2.22 -1.69,0 -2.1899997,2.22 -0.22,2.22 z"
     id="path618"
     style="fill:#ffff80" />
  <path
     class="o"
     d="M 5.5647943,72.485655 H 32.564794"
     id="path620"
     style="fill:#ffff80" />
  <path
     class="o"
     d="M 32.684794,71.355655 H 2.9247943 l -0.06,2.26 H 32.464794 c 1.71,0 2.18,-2.26 0.22,-2.26 z"
     id="path622"
     style="fill:#ffff80" />
  <path
     class="o"
     d="m 89.824794,70.395655 20.549996,-2.13"
     id="path624"
     style="fill:#ffff80" />
  <path
     class="o"
     d="m 89.184794,70.945655 20.519996,-2.13 c 0.51,0 1.63,-0.2 1.94,-0.67 0.31,-0.47 -0.27,-0.43 -0.66,-0.39 l -20.519996,2.19 c -0.51,0.06 -1.63,0.21 -1.95,0.67 -0.32,0.46 0.28,0.39 0.67,0.33 z"
     id="path626"
     style="fill:#ffff80" />
  <path
     class="o"
     d="m 120.05479,98.405651 10.8,8.640009"
     id="path628"
     style="fill:#ffff80" />
  <path
     class="o"
     d="m 118.91479,99.165651 10.8,8.640009 c 0.84,0.66 3.47,-0.56 2.28,-1.52 l -10.8,-8.640009 c -0.82,-0.7 -3.47,0.56 -2.28,1.52 z"
     id="path630"
     style="fill:#ffff80" />
  <path
     class="o"
     d="m 108.17479,135.12566 a 27.21,27.21 0 0 0 9.72,10.8"
     id="path632"
     style="fill:#ffff80" />
  <path
     class="o"
     d="m 106.72479,135.51566 a 27.79,27.79 0 0 0 9.81,10.93 2.33,2.33 0 0 0 1.88,-0.1 c 0.18,-0.07 1.32,-0.63 0.84,-0.94 a 27.06,27.06 0 0 1 -9.63,-10.67 c -0.4,-0.79 -3.2,0.21 -2.9,0.78 z"
     id="path634"
     style="fill:#ffff80" />
</svg>
