<?xml version="1.0" encoding="UTF-8" standalone="no"?>
<svg
   viewBox="0 0 188.96186 657.70366"
   version="1.1"
   id="svg14"
   sodipodi:docname="spitak drosh-01.svg"
   width="188.96187"
   height="657.70367"
   inkscape:version="1.2 (1:1.2+202206011326+fc4e4096c5)"
   xmlns:inkscape="http://www.inkscape.org/namespaces/inkscape"
   xmlns:sodipodi="http://sodipodi.sourceforge.net/DTD/sodipodi-0.dtd"
   xmlns="http://www.w3.org/2000/svg"
   xmlns:svg="http://www.w3.org/2000/svg">
  <sodipodi:namedview
     id="namedview16"
     pagecolor="#ffffff"
     bordercolor="#000000"
     borderopacity="0.25"
     inkscape:showpageshadow="2"
     inkscape:pageopacity="0.0"
     inkscape:pagecheckerboard="0"
     inkscape:deskcolor="#d1d1d1"
     showgrid="false"
     inkscape:zoom="0.98231359"
     inkscape:cx="98.746471"
     inkscape:cy="362.40973"
     inkscape:window-width="1920"
     inkscape:window-height="1007"
     inkscape:window-x="0"
     inkscape:window-y="0"
     inkscape:window-maximized="1"
     inkscape:current-layer="svg14" />
  <defs
     id="defs4">
    <style
       id="style2">.a{fill:#fff;stroke:#e6e7e8;stroke-miterlimit:10;}.b{fill:#fedb04;}.c{fill:#ffe771;}</style>
  </defs>
  <path
     class="a"
     d="m 133.38187,147.62 c -17.19,4.72 -25.74,13.61 -29.24,17.88 -14.589999,17.81 -12.159999,41.67 -10.999999,53.65 2.15,21.6 9.859999,33.22 6.09,35.77 -2.51,1.7 -9.82,-0.84 -32.9,-23.84 -1.12,-3.24 -7.27,-19.94 -25.58,-28.62 a 51.71,51.71 0 0 0 -32.9,-3.57 C -0.41812904,159.53 0.53187096,147.62 0.53187096,147.62 A 85.72,85.72 0 0 1 8.491871,117.99 c 12.2,-24.839997 36,-33.939997 55.63,-45.099997 19.63,-11.16 45.889999,-30.41 71.869999,-65.9500039 z"
     id="path6"
     style="fill:#ffffff;stroke:#e6e7e8;stroke-miterlimit:10" />
  <rect
     class="b"
     x="131.69188"
     y="0"
     width="8.5299997"
     height="612.79999"
     id="rect8"
     style="fill:#fedb04" />
  <path
     class="b"
     d="m 188.96187,644.39 a 112.15,112.15 0 0 1 -105.999999,0 c 3,-26.68 26.369999,-47 53.549999,-46.7 26.77,0.27 49.52,20.42 52.45,46.7 z"
     id="path10"
     style="fill:#fedb04" />
  <path
     class="c"
     d="m 101.62187,615.21 c -2.879999,2.68 -13.629999,12.72 -10.749999,22.31 0.59,2 2.3,5.75 4.61,5.8 4.749999,0.1 4.26,-15.8 15.569999,-27.9 9.62,-10.29 21.84,-11.48 21.49,-12.45 -0.41,-1.15 -18,0.17 -30.92,12.24 z"
     id="path12"
     style="fill:#ffe771" />
</svg>
