<?xml version="1.0" encoding="UTF-8" standalone="no"?>
<svg
   viewBox="0 0 155.10606 551.63537"
   version="1.1"
   id="svg30"
   sodipodi:docname="финиш-01.svg"
   width="155.10606"
   height="551.63538"
   inkscape:version="1.2 (1:1.2+202206011326+fc4e4096c5)"
   xmlns:inkscape="http://www.inkscape.org/namespaces/inkscape"
   xmlns:sodipodi="http://sodipodi.sourceforge.net/DTD/sodipodi-0.dtd"
   xmlns="http://www.w3.org/2000/svg"
   xmlns:svg="http://www.w3.org/2000/svg">
  <sodipodi:namedview
     id="namedview32"
     pagecolor="#ffffff"
     bordercolor="#000000"
     borderopacity="0.25"
     inkscape:showpageshadow="2"
     inkscape:pageopacity="0.0"
     inkscape:pagecheckerboard="0"
     inkscape:deskcolor="#d1d1d1"
     showgrid="false"
     inkscape:zoom="0.98231359"
     inkscape:cx="153.71873"
     inkscape:cy="290.13138"
     inkscape:window-width="1920"
     inkscape:window-height="1007"
     inkscape:window-x="0"
     inkscape:window-y="0"
     inkscape:window-maximized="1"
     inkscape:current-layer="svg30" />
  <defs
     id="defs4">
    <style
       id="style2">.a{fill:#6d6e71;}.a,.d{stroke:#e6e7e8;stroke-miterlimit:10;}.b{fill:#fedb04;}.c{fill:#ffe771;}.d{fill:#f1f2f2;}</style>
  </defs>
  <path
     class="a"
     d="m 109.49606,123.79 c -14.109999,4 -21.129999,11.42 -23.999999,15 -13.61,17 -9.65,41.08 -9,45 1.6,9.74 4.81,15.29 2.85,16.7 -3.23,2.32 -16,-9.84 -26.82,-21.16 A 68.8,68.8 0 0 0 6.5260613,166.79 c -6.77999999,-33 -5.99999999,-43 -5.99999999,-43 A 72.85,72.85 0 0 1 6.9760613,98.94 C 16.976061,78.11 36.496061,70.47 52.636061,61.11 c 16.14,-9.36 37.66,-25.51 58.999999,-55.32 z"
     id="path6"
     style="fill:#6d6e71;stroke:#e6e7e8;stroke-miterlimit:10" />
  <path
     class="b"
     d="m 115.10606,514 h -7 V 0 h 7 z"
     id="path8"
     style="fill:#fedb04" />
  <path
     class="b"
     d="m 155.10606,540.47 a 90.32,90.32 0 0 1 -86.999999,0 43.74,43.74 0 0 1 86.999999,0 z"
     id="path10"
     style="fill:#fedb04" />
  <path
     class="c"
     d="m 83.426061,516 c -2.36,2.25 -11.19,10.67 -8.82,18.72 0.48,1.65 1.89,4.82 3.78,4.86 3.9,0.09 3.5,-13.25 12.78,-23.4 7.89,-8.63 17.919999,-9.63 17.639999,-10.44 -0.34,-0.97 -14.769999,0.13 -25.379999,10.26 z"
     id="path12"
     style="fill:#ffe771" />
  <path
     class="d"
     d="M 108.10606,51.17 A 69.55,69.55 0 0 0 87.206061,65.9 c -0.23,-5.31 -0.71,-11 -1.56,-17.13 q -0.81,-5.76 -1.87,-11 5.68,-6.12 11.44,-12.54 6.629999,-7.4 12.889999,-14.67 z"
     id="path14"
     style="fill:#f1f2f2;stroke:#e6e7e8;stroke-miterlimit:10" />
  <path
     class="d"
     d="m 109.49606,123.79 a 32.39,32.39 0 0 0 -7,1.3 31.65,31.65 0 0 0 -8.999999,4.37 130.17,130.17 0 0 0 -7.37,-28.85 84.69,84.69 0 0 1 12,-6.72 c 1.999999,-0.84 5.349999,-2.19 9.119999,-3.36 v 0 z"
     id="path16"
     style="fill:#f1f2f2;stroke:#e6e7e8;stroke-miterlimit:10" />
  <path
     class="d"
     d="m 57.466061,184.5 a 70.11,70.11 0 0 1 -2.12,-26.5 q 4.62,4.45 9.34,9.2 5.81,5.88 11.15,11.65 1.25,7.47 2.32,15.29 c 0.32,2.27 0.61,4.53 0.89,6.77 a 215.29,215.29 0 0 1 -21.58,-16.41 z"
     id="path18"
     style="fill:#f1f2f2;stroke:#e6e7e8;stroke-miterlimit:10" />
  <path
     class="d"
     d="m 29.806061,143.28 c 0.14,3.58 0.43,7.42 0.94,11.5 a 132,132 0 0 0 2.75,15 36.75,36.75 0 0 0 -19.68,-4.33 34.87,34.87 0 0 0 -7.3199997,1.33 c -1.1,-4.38 -2.12,-9 -3,-14 A 209.62,209.62 0 0 1 0.59606131,128.46 56.93,56.93 0 0 1 29.806061,143.23 Z"
     id="path20"
     style="fill:#f1f2f2;stroke:#e6e7e8;stroke-miterlimit:10" />
  <path
     class="d"
     d="m 60.346061,129 q 3,-4.29 6.1,-8.71 c 2.31,-3.35 4.59,-6.67 6.81,-10 a 39.5,39.5 0 0 0 10.36,31.05 44.5,44.5 0 0 0 -3.19,5.6 45.36,45.36 0 0 0 -3.45,10.19 55.32,55.32 0 0 1 -11.85,-15.3 54.75,54.75 0 0 1 -4.78,-12.83 z"
     id="path22"
     style="fill:#f1f2f2;stroke:#e6e7e8;stroke-miterlimit:10" />
  <path
     class="d"
     d="m 60.206061,84.29 c -3.11,2.68 -6.34,5.67 -9.62,9 -2.55,2.59 -4.89,5.15 -7,7.63 q -4.95,-4.38 -10.58,-8.86 c -4.59,-3.64 -9.09,-7 -13.43,-10 a 126.67,126.67 0 0 1 12,-9.05 125.21,125.21 0 0 1 14.87,-8.46 c 2.61,3.15 5.32,6.68 8,10.6 2.15,3.17 4.06,6.22 5.76,9.14 z"
     id="path24"
     style="fill:#f1f2f2;stroke:#e6e7e8;stroke-miterlimit:10" />
  <path
     class="d"
     d="m 60.346061,129 a 32.27,32.27 0 0 0 -5,29 28.23,28.23 0 0 0 -12.9,-12.25 27.62,27.62 0 0 0 -12.64,-2.45 72.66,72.66 0 0 1 14.37,-40.12 69,69 0 0 0 16.17,25.82 z"
     id="path26"
     style="fill:#f1f2f2;stroke:#e6e7e8;stroke-miterlimit:10" />
  <path
     class="d"
     d="m 86.126061,100.61 -11.52,6.72 q -2.92,-4.94 -6.24,-10.08 -4.09,-6.33 -8.16,-12 a 213.52,213.52 0 0 0 17.76,-12 c 3.27,-2.46 6.35,-4.92 9.24,-7.35 a 104.49,104.49 0 0 0 -1.08,34.71 z"
     id="path28"
     style="fill:#f1f2f2;stroke:#e6e7e8;stroke-miterlimit:10" />
</svg>
