<?xml version="1.0" encoding="UTF-8" standalone="no"?>
<svg
   viewBox="0 0 393.90879 750.54283"
   version="1.1"
   id="svg266"
   sodipodi:docname="book_colored_4.svg"
   width="393.90881"
   height="750.54285"
   inkscape:version="1.2.2 (b0a8486541, 2022-12-01)"
   xmlns:inkscape="http://www.inkscape.org/namespaces/inkscape"
   xmlns:sodipodi="http://sodipodi.sourceforge.net/DTD/sodipodi-0.dtd"
   xmlns="http://www.w3.org/2000/svg"
   xmlns:svg="http://www.w3.org/2000/svg">
  <sodipodi:namedview
     id="namedview268"
     pagecolor="#ffffff"
     bordercolor="#000000"
     borderopacity="0.25"
     inkscape:showpageshadow="2"
     inkscape:pageopacity="0.0"
     inkscape:pagecheckerboard="0"
     inkscape:deskcolor="#d1d1d1"
     showgrid="false"
     inkscape:zoom="0.99656723"
     inkscape:cx="300.53166"
     inkscape:cy="510.7533"
     inkscape:window-width="1920"
     inkscape:window-height="1011"
     inkscape:window-x="0"
     inkscape:window-y="32"
     inkscape:window-maximized="1"
     inkscape:current-layer="svg266" />
  <defs
     id="defs4">
    <style
       id="style2">.a{fill:#b6d333;}.a,.c,.h{stroke:#d6de23;}.a,.c,.g,.h{stroke-miterlimit:10;}.b{fill:#f8f29a;}.c{fill:#93a83b;}.d{fill:#669940;}.e{fill:#2a9859;}.f{fill:#33b568;}.g{fill:none;stroke:#8a5d3b;}.h{fill:#e0f467;}</style>
  </defs>
  <path
     class="a"
     d="m 392.81881,699.13492 -381.620001,-98 q -5.34,-242.55 -10.68999997,-485.1 L 386.16881,25.214918 q 3.33,336.960002 6.65,673.920002 z"
     id="path6"
     style="fill:#b6d333;stroke:#d6de23;stroke-miterlimit:10" />
  <path
     class="b"
     d="m 366.59881,680.40492 -33,0.33 v 0 c -11.69,-8.61 -13.13,-7.4 -13.13,-7.4 -2.25,1.88 0.48,12.43 0.19,9.33 v 0 c 0,0 -14.39,-9.32 -17.68,-5.75 -2.11,2.28 0.09,10.09 0.09,10.08 v 0 c -11.76,-13.11 -13.15,-12.22 -13.15,-12.22 -1.83,1.17 0.11,10 0.11,10 v 0 c -20.34,-7.87 -21.64,-5.73 -21.64,-5.73 a 2.82,2.82 0 0 0 0,2.16 c 1.05,3.74 1.67,9.9 0,20.65 v 0 c -24.2,-7.61 -30.42,-14.77 -35.25,-12.73 -9.83,4.17 -5.94,43.24 -4.57,43.17 4,-0.23 -8.71,-341.26 -23.54,-708.480002 -5.43,22.32 -3.23,31.74 1.18,35.48 14.17,12 62.9,-24.61 62.91,-24.61 -2.46,18.1 -1.3,18.7 -1.3,18.7 3.13,1.65 15.18,-17.49 15.18,-17.49 0,0 -3.21,14.61 -0.43,16.27 3.15,1.89 12.77,-13.44 15.32,-11.74 2.09,1.41 -3.18,12.6 -0.34,14.8 2.51,1.94 10.41,-3.86 10.41,-3.86 -0.8,14.39 0.68,15.31 0.68,15.31 3.42,2.11 12.36,-10.4 14.51,-8.66 1.57,1.26 -2.32,8.62 -0.73,9.91 2.2,1.79 11.93,-10.63 14.64,-8.63 1.89,1.41 -1.81,8.25 0.31,10.71 1.72,2 7.24,1.06 22,-8.7 q 3.59,309.560002 7.23,619.100002 z"
     id="path8"
     style="fill:#f8f29a" />
  <path
     class="c"
     d="M 241.65881,749.59492 7.658809,590.50492 q -1.95,-238.32 -3.92,-476.64 v 0 L 237.73881,0.79491762 q 1.95,374.40000238 3.92,748.80000238 z"
     id="path10"
     style="fill:#93a83b;stroke:#d6de23;stroke-miterlimit:10" />
  <path
     class="d"
     d="m 195.89881,661.06492 -167.350001,-80.64 q -2.61,-226.08 -5.23,-452.16 L 193.31881,64.904918 Z"
     id="path12"
     style="fill:#669940" />
  <path
     class="e"
     d="m 18.198809,535.58492 a 5.72,5.72 0 0 0 11.43,-0.13 z"
     id="path14"
     style="fill:#2a9859" />
  <path
     class="e"
     d="m 30.048809,571.56492 a 5.7203693,5.7203693 0 0 0 -11.44,0.13 z"
     id="path16"
     style="fill:#2a9859" />
  <polygon
     class="f"
     points="133.69,596.98 141.21,589.41 148.91,596.8 141.38,604.37 "
     id="polygon18"
     style="fill:#33b568"
     transform="translate(-117.18119,-43.315082)" />
  <path
     class="e"
     d="m 17.818809,499.48492 a 5.72,5.72 0 0 0 11.43,-0.14 z"
     id="path20"
     style="fill:#2a9859" />
  <path
     class="e"
     d="m 29.628809,535.45492 a 5.72,5.72 0 0 0 -11.43,0.13 z"
     id="path22"
     style="fill:#2a9859" />
  <polygon
     class="f"
     points="133.27,560.87 140.79,553.3 148.49,560.7 140.97,568.26 "
     id="polygon24"
     style="fill:#33b568"
     transform="translate(-117.18119,-43.315082)" />
  <path
     class="e"
     d="m 17.358809,463.37492 a 5.72,5.72 0 0 0 11.43,-0.13 z"
     id="path26"
     style="fill:#2a9859" />
  <path
     class="e"
     d="m 29.208809,499.34492 a 5.72,5.72 0 0 0 -11.43,0.14 z"
     id="path28"
     style="fill:#2a9859" />
  <polygon
     class="f"
     points="132.85,524.76 140.38,517.2 148.07,524.59 140.55,532.16 "
     id="polygon30"
     style="fill:#33b568"
     transform="translate(-117.18119,-43.315082)" />
  <path
     class="e"
     d="m 16.938809,427.26492 a 5.7203693,5.7203693 0 0 0 11.44,-0.13 z"
     id="path32"
     style="fill:#2a9859" />
  <path
     class="e"
     d="m 28.818809,463.24492 a 5.72,5.72 0 0 0 -11.43,0.13 z"
     id="path34"
     style="fill:#2a9859" />
  <polygon
     class="f"
     points="132.43,488.66 139.96,481.09 147.65,488.48 140.13,496.05 "
     id="polygon36"
     style="fill:#33b568"
     transform="translate(-117.18119,-43.315082)" />
  <path
     class="e"
     d="m 16.518809,391.16492 a 5.7204283,5.7204283 0 0 0 11.44,-0.14 z"
     id="path38"
     style="fill:#2a9859" />
  <path
     class="e"
     d="m 28.378809,427.13492 a 5.7203693,5.7203693 0 0 0 -11.44,0.13 z"
     id="path40"
     style="fill:#2a9859" />
  <polygon
     class="f"
     points="132.02,452.55 139.54,444.98 147.24,452.38 139.71,459.94 "
     id="polygon42"
     style="fill:#33b568"
     transform="translate(-117.18119,-43.315082)" />
  <path
     class="e"
     d="m 16.108809,355.05492 a 5.72,5.72 0 0 0 11.43,-0.13 z"
     id="path44"
     style="fill:#2a9859" />
  <path
     class="e"
     d="m 27.958809,391.02492 a 5.7204283,5.7204283 0 0 0 -11.44,0.14 z"
     id="path46"
     style="fill:#2a9859" />
  <polygon
     class="f"
     points="131.6,416.44 139.12,408.88 146.82,416.27 139.29,423.83 "
     id="polygon48"
     style="fill:#33b568"
     transform="translate(-117.18119,-43.315082)" />
  <path
     class="e"
     d="m 15.688809,318.94492 a 5.72,5.72 0 0 0 11.43,-0.13 z"
     id="path50"
     style="fill:#2a9859" />
  <path
     class="e"
     d="m 27.538809,354.92492 a 5.72,5.72 0 0 0 -11.43,0.13 z"
     id="path52"
     style="fill:#2a9859" />
  <polygon
     class="f"
     points="131.18,380.34 138.71,372.77 146.4,380.16 138.88,387.73 "
     id="polygon54"
     style="fill:#33b568"
     transform="translate(-117.18119,-43.315082)" />
  <path
     class="e"
     d="m 15.268809,282.83492 a 5.7203693,5.7203693 0 0 0 11.44,-0.13 z"
     id="path56"
     style="fill:#2a9859" />
  <path
     class="e"
     d="m 27.118809,318.81492 a 5.72,5.72 0 0 0 -11.43,0.13 z"
     id="path58"
     style="fill:#2a9859" />
  <polygon
     class="f"
     points="130.76,344.23 138.29,336.66 145.98,344.06 138.46,351.62 "
     id="polygon60"
     style="fill:#33b568"
     transform="translate(-117.18119,-43.315082)" />
  <path
     class="e"
     d="m 14.818809,246.73492 a 5.7203693,5.7203693 0 0 0 11.44,-0.13 z"
     id="path62"
     style="fill:#2a9859" />
  <path
     class="e"
     d="m 26.708809,282.68492 a 5.7204283,5.7204283 0 0 0 -11.44,0.14 z"
     id="path64"
     style="fill:#2a9859" />
  <polygon
     class="f"
     points="130.35,308.12 137.87,300.56 145.56,307.95 138.04,315.51 "
     id="polygon66"
     style="fill:#33b568"
     transform="translate(-117.18119,-43.315082)" />
  <path
     class="e"
     d="m 14.438809,210.62492 a 5.72,5.72 0 0 0 11.43,-0.13 z"
     id="path68"
     style="fill:#2a9859" />
  <path
     class="e"
     d="m 26.288809,246.60492 a 5.7203693,5.7203693 0 0 0 -11.44,0.13 z"
     id="path70"
     style="fill:#2a9859" />
  <polygon
     class="f"
     points="129.93,272.02 137.45,264.45 145.15,271.84 137.63,279.41 "
     id="polygon72"
     style="fill:#33b568"
     transform="translate(-117.18119,-43.315082)" />
  <path
     class="e"
     d="m 14.018809,174.51492 a 5.72,5.72 0 0 0 11.43,-0.13 z"
     id="path74"
     style="fill:#2a9859" />
  <path
     class="e"
     d="m 25.868809,210.49492 a 5.72,5.72 0 0 0 -11.43,0.13 z"
     id="path76"
     style="fill:#2a9859" />
  <polygon
     class="f"
     points="129.51,235.91 137.03,228.34 144.73,235.73 137.21,243.3 "
     id="polygon78"
     style="fill:#33b568"
     transform="translate(-117.18119,-43.315082)" />
  <path
     class="e"
     d="m 13.598809,138.41492 a 5.7203693,5.7203693 0 0 0 11.44,-0.13 z"
     id="path80"
     style="fill:#2a9859" />
  <path
     class="e"
     d="m 25.448809,174.38492 a 5.72,5.72 0 0 0 -11.43,0.14 z"
     id="path82"
     style="fill:#2a9859" />
  <polygon
     class="f"
     points="129.09,199.8 136.62,192.24 144.31,199.63 136.79,207.19 "
     id="polygon84"
     style="fill:#33b568"
     transform="translate(-117.18119,-43.315082)" />
  <path
     class="e"
     d="m 64.638809,102.36492 a 5.7209789,5.7209789 0 1 0 4,10.72 z"
     id="path86"
     style="fill:#2a9859" />
  <path
     class="e"
     d="m 33.278809,126.26492 a 5.7209789,5.7209789 0 1 0 -4,-10.72 z"
     id="path88"
     style="fill:#2a9859" />
  <polygon
     class="f"
     points="163.48,150.49 173.46,154.9 168.79,164.76 158.81,160.35 "
     id="polygon90"
     style="fill:#33b568"
     transform="translate(-117.18119,-43.315082)" />
  <path
     class="e"
     d="m 99.988809,89.184918 a 5.7209789,5.7209789 0 1 0 4.000001,10.72 z"
     id="path92"
     style="fill:#2a9859" />
  <path
     class="e"
     d="m 68.628809,113.08492 a 5.7209789,5.7209789 0 1 0 -4,-10.72 z"
     id="path94"
     style="fill:#2a9859" />
  <polygon
     class="f"
     points="198.83,137.32 208.81,141.72 204.15,151.58 194.16,147.18 "
     id="polygon96"
     style="fill:#33b568"
     transform="translate(-117.18119,-43.315082)" />
  <path
     class="e"
     d="m 135.33881,76.014918 a 5.72,5.72 0 1 0 4,10.71 z"
     id="path98"
     style="fill:#2a9859" />
  <path
     class="e"
     d="m 103.97881,99.904918 a 5.7209789,5.7209789 0 1 0 -4.000001,-10.72 z"
     id="path100"
     style="fill:#2a9859" />
  <polygon
     class="f"
     points="234.18,124.14 244.16,128.54 239.5,138.4 229.51,134 "
     id="polygon102"
     style="fill:#33b568"
     transform="translate(-117.18119,-43.315082)" />
  <path
     class="e"
     d="m 170.68881,62.834918 a 5.72,5.72 0 1 0 4,10.71 z"
     id="path104"
     style="fill:#2a9859" />
  <path
     class="e"
     d="m 139.32881,86.684918 a 5.72,5.72 0 1 0 -4,-10.71 z"
     id="path106"
     style="fill:#2a9859" />
  <polygon
     class="f"
     points="269.53,110.96 279.51,115.36 274.85,125.22 264.87,120.82 "
     id="polygon108"
     style="fill:#33b568"
     transform="translate(-117.18119,-43.315082)" />
  <path
     class="e"
     d="m 203.37881,122.17492 a 5.72,5.72 0 1 0 -11.44,0 z"
     id="path110"
     style="fill:#2a9859" />
  <path
     class="e"
     d="m 191.81881,85.364918 a 5.72,5.72 0 1 0 11.43,-0.05 z"
     id="path112"
     style="fill:#2a9859" />
  <polygon
     class="f"
     points="322.37,147.05 314.8,154.72 307.15,147.12 314.73,139.45 "
     id="polygon114"
     style="fill:#33b568"
     transform="translate(-117.18119,-43.315082)" />
  <path
     class="e"
     d="m 203.53881,159.03492 a 5.7200546,5.7200546 0 1 0 -11.44,0.05 z"
     id="path116"
     style="fill:#2a9859" />
  <path
     class="e"
     d="m 191.93881,122.22492 a 5.72,5.72 0 1 0 11.44,0 z"
     id="path118"
     style="fill:#2a9859" />
  <polygon
     class="f"
     points="322.53,183.91 314.96,191.58 307.31,183.98 314.89,176.31 "
     id="polygon120"
     style="fill:#33b568"
     transform="translate(-117.18119,-43.315082)" />
  <path
     class="e"
     d="m 203.69881,195.89492 a 5.72,5.72 0 1 0 -11.44,0 z"
     id="path122"
     style="fill:#2a9859" />
  <path
     class="e"
     d="m 192.09881,159.08492 a 5.7200546,5.7200546 0 1 0 11.44,-0.05 z"
     id="path124"
     style="fill:#2a9859" />
  <polygon
     class="f"
     points="322.7,220.77 315.12,228.44 307.48,220.84 315.05,213.17 "
     id="polygon126"
     style="fill:#33b568"
     transform="translate(-117.18119,-43.315082)" />
  <path
     class="e"
     d="m 203.81881,232.75492 a 5.72,5.72 0 1 0 -11.43,0.05 z"
     id="path128"
     style="fill:#2a9859" />
  <path
     class="e"
     d="m 192.25881,195.94492 a 5.72,5.72 0 1 0 11.44,0 z"
     id="path130"
     style="fill:#2a9859" />
  <polygon
     class="f"
     points="322.86,257.63 315.28,265.3 307.64,257.69 315.21,250.03 "
     id="polygon132"
     style="fill:#33b568"
     transform="translate(-117.18119,-43.315082)" />
  <path
     class="e"
     d="m 204.01881,269.61492 a 5.72,5.72 0 1 0 -11.43,0.05 z"
     id="path134"
     style="fill:#2a9859" />
  <path
     class="e"
     d="m 192.42881,232.79492 a 5.72,5.72 0 1 0 11.43,-0.05 z"
     id="path136"
     style="fill:#2a9859" />
  <polygon
     class="f"
     points="323.02,294.49 315.44,302.15 307.8,294.55 315.38,286.89 "
     id="polygon138"
     style="fill:#33b568"
     transform="translate(-117.18119,-43.315082)" />
  <path
     class="e"
     d="m 204.17881,306.46492 a 5.72,5.72 0 1 0 -11.43,0.05 z"
     id="path140"
     style="fill:#2a9859" />
  <path
     class="e"
     d="m 192.58881,269.68492 a 5.72,5.72 0 1 0 11.43,-0.05 z"
     id="path142"
     style="fill:#2a9859" />
  <polygon
     class="f"
     points="323.18,331.35 315.6,339.01 307.96,331.41 315.54,323.75 "
     id="polygon144"
     style="fill:#33b568"
     transform="translate(-117.18119,-43.315082)" />
  <path
     class="e"
     d="m 204.34881,343.32492 a 5.7200546,5.7200546 0 1 0 -11.44,0.05 z"
     id="path146"
     style="fill:#2a9859" />
  <path
     class="e"
     d="m 192.74881,306.51492 a 5.72,5.72 0 1 0 11.43,-0.05 z"
     id="path148"
     style="fill:#2a9859" />
  <polygon
     class="f"
     points="323.34,368.2 315.77,375.87 308.12,368.27 315.7,360.6 "
     id="polygon150"
     style="fill:#33b568"
     transform="translate(-117.18119,-43.315082)" />
  <path
     class="e"
     d="m 204.50881,380.18492 a 5.7200546,5.7200546 0 1 0 -11.44,0.05 z"
     id="path152"
     style="fill:#2a9859" />
  <path
     class="e"
     d="m 192.90881,343.37492 a 5.7200546,5.7200546 0 1 0 11.44,-0.05 z"
     id="path154"
     style="fill:#2a9859" />
  <polygon
     class="f"
     points="323.5,405.06 315.93,412.73 308.28,405.13 315.86,397.46 "
     id="polygon156"
     style="fill:#33b568"
     transform="translate(-117.18119,-43.315082)" />
  <path
     class="e"
     d="m 204.66881,417.04492 a 5.7200546,5.7200546 0 1 0 -11.44,0.05 z"
     id="path158"
     style="fill:#2a9859" />
  <path
     class="e"
     d="m 193.06881,380.23492 a 5.7200546,5.7200546 0 1 0 11.44,-0.05 z"
     id="path160"
     style="fill:#2a9859" />
  <polygon
     class="f"
     points="323.67,441.92 316.09,449.59 308.45,441.99 316.02,434.32 "
     id="polygon162"
     style="fill:#33b568"
     transform="translate(-117.18119,-43.315082)" />
  <path
     class="e"
     d="m 204.81881,453.90492 a 5.72,5.72 0 1 0 -11.43,0 z"
     id="path164"
     style="fill:#2a9859" />
  <path
     class="e"
     d="m 193.22881,417.09492 a 5.7200546,5.7200546 0 1 0 11.44,-0.05 z"
     id="path166"
     style="fill:#2a9859" />
  <polygon
     class="f"
     points="323.83,478.78 316.25,486.45 308.61,478.85 316.18,471.18 "
     id="polygon168"
     style="fill:#33b568"
     transform="translate(-117.18119,-43.315082)" />
  <path
     class="e"
     d="m 204.98881,490.76492 a 5.72,5.72 0 1 0 -11.43,0 z"
     id="path170"
     style="fill:#2a9859" />
  <path
     class="e"
     d="m 193.39881,453.95492 a 5.72,5.72 0 1 0 11.43,0 z"
     id="path172"
     style="fill:#2a9859" />
  <polygon
     class="f"
     points="323.99,515.64 316.41,523.31 308.77,515.71 316.35,508.04 "
     id="polygon174"
     style="fill:#33b568"
     transform="translate(-117.18119,-43.315082)" />
  <path
     class="e"
     d="m 205.14881,527.62492 a 5.72,5.72 0 1 0 -11.43,0 z"
     id="path176"
     style="fill:#2a9859" />
  <path
     class="e"
     d="m 193.55881,490.81492 a 5.72,5.72 0 1 0 11.43,0 z"
     id="path178"
     style="fill:#2a9859" />
  <polygon
     class="f"
     points="324.15,552.5 316.57,560.17 308.93,552.57 316.51,544.9 "
     id="polygon180"
     style="fill:#33b568"
     transform="translate(-117.18119,-43.315082)" />
  <path
     class="e"
     d="m 205.31881,564.48492 a 5.7200546,5.7200546 0 1 0 -11.44,0.05 z"
     id="path182"
     style="fill:#2a9859" />
  <path
     class="e"
     d="m 193.71881,527.68492 a 5.72,5.72 0 1 0 11.43,0 z"
     id="path184"
     style="fill:#2a9859" />
  <polygon
     class="f"
     points="324.31,589.36 316.74,597.03 309.09,589.43 316.67,581.76 "
     id="polygon186"
     style="fill:#33b568"
     transform="translate(-117.18119,-43.315082)" />
  <path
     class="e"
     d="m 205.47881,601.34492 a 5.7200546,5.7200546 0 1 0 -11.44,0.05 z"
     id="path188"
     style="fill:#2a9859" />
  <path
     class="e"
     d="m 193.87881,564.53492 a 5.7200546,5.7200546 0 1 0 11.44,-0.05 z"
     id="path190"
     style="fill:#2a9859" />
  <polygon
     class="f"
     points="324.47,626.22 316.9,633.89 309.25,626.28 316.83,618.62 "
     id="polygon192"
     style="fill:#33b568"
     transform="translate(-117.18119,-43.315082)" />
  <path
     class="e"
     d="m 205.63881,638.20492 a 5.7200546,5.7200546 0 1 0 -11.44,0.05 z"
     id="path194"
     style="fill:#2a9859" />
  <path
     class="e"
     d="m 194.03881,601.39492 a 5.7200546,5.7200546 0 1 0 11.44,-0.05 z"
     id="path196"
     style="fill:#2a9859" />
  <polygon
     class="f"
     points="324.64,663.08 317.06,670.75 309.42,663.14 316.99,655.48 "
     id="polygon198"
     style="fill:#33b568"
     transform="translate(-117.18119,-43.315082)" />
  <path
     class="e"
     d="m 136.35881,643.30492 a 5.73,5.73 0 1 0 5,-10.31 z"
     id="path200"
     style="fill:#2a9859" />
  <path
     class="e"
     d="m 176.02881,649.68492 a 5.7247271,5.7247271 0 1 0 -5,10.3 z"
     id="path202"
     style="fill:#2a9859" />
  <polygon
     class="f"
     points="270.07,696.69 266.19,686.37 276.68,682.98 280.57,693.29 "
     id="polygon204"
     style="fill:#33b568"
     transform="translate(-117.18119,-43.315082)" />
  <path
     class="e"
     d="m 101.65881,626.57492 a 5.7247271,5.7247271 0 1 0 5,-10.3 z"
     id="path206"
     style="fill:#2a9859" />
  <path
     class="e"
     d="m 141.32881,632.99492 a 5.73,5.73 0 1 0 -5,10.31 z"
     id="path208"
     style="fill:#2a9859" />
  <polygon
     class="f"
     points="235.37,679.96 231.49,669.64 241.98,666.25 245.86,676.57 "
     id="polygon210"
     style="fill:#33b568"
     transform="translate(-117.18119,-43.315082)" />
  <path
     class="e"
     d="m 66.958809,609.85492 a 5.7247271,5.7247271 0 1 0 5,-10.3 z"
     id="path212"
     style="fill:#2a9859" />
  <path
     class="e"
     d="m 106.62881,616.27492 a 5.7247271,5.7247271 0 1 0 -5,10.3 z"
     id="path214"
     style="fill:#2a9859" />
  <polygon
     class="f"
     points="200.67,663.24 196.78,652.92 207.27,649.53 211.16,659.85 "
     id="polygon216"
     style="fill:#33b568"
     transform="translate(-117.18119,-43.315082)" />
  <path
     class="e"
     d="m 32.248809,593.13492 a 5.7247271,5.7247271 0 1 0 5,-10.3 z"
     id="path218"
     style="fill:#2a9859" />
  <path
     class="e"
     d="m 71.918809,599.55492 a 5.7247271,5.7247271 0 1 0 -5,10.3 z"
     id="path220"
     style="fill:#2a9859" />
  <polygon
     class="f"
     points="165.96,646.52 162.08,636.2 172.57,632.81 176.45,643.13 "
     id="polygon222"
     style="fill:#33b568"
     transform="translate(-117.18119,-43.315082)" />
  <polygon
     class="e"
     points="145.16,159.83 145.03,160 144.91,160.18 144.8,160.36 144.7,160.56 144.61,160.76 144.53,160.98 144.45,161.2 144.39,161.42 144.33,161.66 144.29,161.89 144.25,162.14 144.22,162.39 144.21,162.64 144.2,162.9 144.2,163.16 144.22,163.43 144.24,163.69 144.27,163.97 144.32,164.24 144.37,164.51 144.44,164.79 144.51,165.07 144.6,165.34 144.7,165.62 144.81,165.9 144.92,166.16 145.04,166.42 145.18,166.67 145.31,166.92 145.46,167.15 145.61,167.38 145.77,167.6 145.93,167.81 146.1,168.01 146.28,168.2 146.46,168.38 146.64,168.55 146.83,168.71 147.02,168.86 147.21,169 147.41,169.13 147.61,169.25 147.81,169.35 148.01,169.44 148.22,169.53 148.42,169.6 148.63,169.66 148.84,169.7 149.04,169.73 149.25,169.75 149.46,169.76 149.66,169.75 149.86,169.73 150.06,169.69 150.26,169.64 150.46,169.57 146.47,158.86 146.27,158.94 146.09,159.03 145.91,159.14 145.75,159.25 145.59,159.38 145.44,159.52 145.29,159.67 "
     id="polygon224"
     style="fill:#2a9859"
     transform="translate(-117.18119,-43.315082)" />
  <polygon
     class="f"
     points="140.19,171.36 136.41,174.08 128.74,168.82 132.51,166.1 133.69,161.6 141.36,166.86 "
     id="polygon226"
     style="fill:#33b568"
     transform="translate(-117.18119,-43.315082)" />
  <polygon
     class="e"
     points="131.22,180.16 131.33,179.98 131.45,179.81 131.59,179.63 131.74,179.47 131.89,179.31 132.06,179.16 132.24,179.01 132.43,178.87 132.62,178.73 132.83,178.6 133.04,178.48 133.27,178.37 133.5,178.26 133.74,178.16 133.98,178.07 134.23,177.99 134.49,177.91 134.76,177.84 135.03,177.79 135.3,177.74 135.59,177.7 135.87,177.67 136.16,177.65 136.46,177.64 136.75,177.65 137.04,177.66 137.33,177.68 137.61,177.71 137.88,177.75 138.16,177.8 138.42,177.86 138.68,177.93 138.94,178.01 139.19,178.1 139.43,178.19 139.66,178.29 139.88,178.4 140.1,178.52 140.31,178.64 140.51,178.77 140.7,178.91 140.88,179.06 141.06,179.21 141.22,179.36 141.37,179.52 141.51,179.69 141.63,179.86 141.75,180.04 141.86,180.22 141.95,180.4 142.03,180.59 142.09,180.79 142.15,180.99 142.19,181.19 142.21,181.39 142.22,181.6 130.78,181.73 130.79,181.52 130.81,181.32 130.84,181.12 130.89,180.92 130.95,180.72 131.03,180.53 131.12,180.34 "
     id="polygon228"
     style="fill:#2a9859"
     transform="translate(-117.18119,-43.315082)" />
  <polygon
     class="e"
     points="319.93,125.44 319.81,125.08 319.69,124.73 319.55,124.38 319.4,124.05 319.24,123.73 319.07,123.42 318.88,123.13 318.69,122.84 318.5,122.57 318.29,122.32 318.07,122.07 317.84,121.85 317.61,121.63 317.37,121.44 317.12,121.26 316.87,121.09 316.61,120.95 316.34,120.82 316.07,120.71 315.79,120.62 315.51,120.55 315.23,120.5 314.94,120.47 314.64,120.46 314.35,120.47 314.06,120.51 313.77,120.56 313.49,120.63 313.21,120.72 312.94,120.84 312.68,120.97 312.42,121.11 312.17,121.28 311.92,121.46 311.68,121.66 311.45,121.87 311.23,122.1 311.01,122.35 310.81,122.61 310.61,122.88 310.42,123.16 310.24,123.46 310.07,123.77 309.92,124.09 309.77,124.43 309.63,124.77 309.51,125.13 309.39,125.49 309.29,125.86 309.21,126.24 309.13,126.63 309.07,127.03 309.02,127.43 308.99,127.84 308.96,128.26 308.96,128.68 320.39,128.63 320.39,128.21 320.36,127.79 320.32,127.38 320.27,126.98 320.21,126.58 320.13,126.19 320.04,125.81 "
     id="polygon230"
     style="fill:#2a9859"
     transform="translate(-117.18119,-43.315082)" />
  <polygon
     class="f"
     points="310.79,107.78 304.35,106.11 311.91,95.17 318.35,96.83 322.18,102.27 314.61,113.21 "
     id="polygon232"
     style="fill:#33b568"
     transform="translate(-117.18119,-43.315082)" />
  <polygon
     class="e"
     points="291.01,105.46 291.39,105.44 291.77,105.43 292.14,105.44 292.5,105.47 292.86,105.5 293.21,105.56 293.55,105.62 293.88,105.7 294.2,105.79 294.52,105.89 294.82,106.01 295.11,106.14 295.39,106.28 295.66,106.44 295.92,106.61 296.16,106.79 296.39,106.98 296.6,107.18 296.8,107.4 296.98,107.63 297.15,107.86 297.3,108.11 297.43,108.38 297.54,108.65 297.63,108.93 297.71,109.21 297.76,109.5 297.79,109.78 297.8,110.08 297.79,110.37 297.76,110.66 297.72,110.96 297.65,111.25 297.57,111.55 297.47,111.84 297.35,112.13 297.21,112.42 297.06,112.71 296.89,112.99 296.7,113.27 296.5,113.55 296.29,113.82 296.06,114.09 295.81,114.35 295.55,114.61 295.28,114.86 294.99,115.1 294.69,115.33 294.38,115.56 294.05,115.78 293.72,115.98 293.37,116.18 293.01,116.37 292.63,116.55 292.25,116.71 291.86,116.87 287.87,106.15 288.26,106.01 288.66,105.89 289.06,105.78 289.45,105.68 289.85,105.61 290.24,105.54 290.63,105.49 "
     id="polygon234"
     style="fill:#2a9859"
     transform="translate(-117.18119,-43.315082)" />
  <polygon
     class="e"
     points="291.65,704.48 292.07,704.55 292.48,704.61 292.88,704.65 293.28,704.68 293.67,704.69 294.06,704.69 294.43,704.67 294.8,704.64 295.16,704.59 295.51,704.53 295.85,704.45 296.18,704.36 296.49,704.25 296.79,704.13 297.08,704 297.36,703.85 297.62,703.69 297.86,703.51 298.09,703.32 298.2,703.22 298.3,703.11 298.4,703.01 298.5,702.89 298.59,702.78 298.67,702.66 298.75,702.54 298.83,702.42 298.9,702.29 298.97,702.16 299.03,702.02 299.09,701.89 299.14,701.75 299.18,701.61 299.22,701.47 299.25,701.33 299.28,701.18 299.3,701.04 299.32,700.89 299.33,700.75 299.34,700.45 299.32,700.14 299.29,699.84 299.23,699.53 299.16,699.22 299.06,698.91 298.95,698.6 298.82,698.29 298.67,697.98 298.5,697.66 298.31,697.35 298.11,697.04 297.89,696.74 297.65,696.44 297.4,696.14 297.13,695.84 296.84,695.55 296.54,695.27 296.23,694.99 295.9,694.72 295.55,694.45 295.19,694.19 294.82,693.94 294.44,693.7 294.04,693.47 293.63,693.25 293.21,693.04 288.25,703.34 288.68,703.54 289.1,703.72 289.53,703.88 289.96,704.03 290.39,704.17 290.81,704.29 291.23,704.39 "
     id="polygon236"
     style="fill:#2a9859"
     transform="translate(-117.18119,-43.315082)" />
  <polygon
     class="f"
     points="313.39,704.89 317.17,698.79 324.84,710.93 321.06,717.03 313.92,717.81 306.26,705.67 "
     id="polygon238"
     style="fill:#33b568"
     transform="translate(-117.18119,-43.315082)" />
  <polygon
     class="e"
     points="322.38,685.07 322.27,685.48 322.14,685.88 322.01,686.26 321.86,686.63 321.7,686.99 321.54,687.34 321.36,687.67 321.17,687.99 320.97,688.29 320.77,688.58 320.55,688.85 320.33,689.11 320.1,689.35 319.86,689.57 319.61,689.77 319.36,689.96 319.1,690.12 318.84,690.26 318.57,690.39 318.43,690.44 318.29,690.49 318.15,690.54 318.01,690.58 317.87,690.61 317.72,690.63 317.58,690.65 317.43,690.67 317.29,690.68 317.14,690.68 316.99,690.68 316.85,690.67 316.7,690.66 316.55,690.64 316.41,690.61 316.27,690.58 316.13,690.54 315.99,690.5 315.85,690.46 315.71,690.4 315.44,690.28 315.17,690.14 314.91,689.98 314.66,689.79 314.41,689.59 314.17,689.37 313.94,689.13 313.71,688.88 313.49,688.61 313.29,688.32 313.08,688.02 312.89,687.71 312.71,687.37 312.54,687.03 312.38,686.67 312.23,686.3 312.09,685.92 311.96,685.52 311.85,685.12 311.74,684.71 311.65,684.28 311.57,683.85 311.5,683.4 311.45,682.96 311.42,682.5 311.39,682.03 311.38,681.56 322.82,681.51 322.81,681.98 322.79,682.45 322.76,682.9 322.71,683.36 322.65,683.8 322.57,684.23 322.48,684.66 "
     id="polygon240"
     style="fill:#2a9859"
     transform="translate(-117.18119,-43.315082)" />
  <polygon
     class="e"
     points="136.26,616.38 136.37,616.54 136.5,616.69 136.64,616.84 136.79,616.98 136.95,617.12 137.12,617.25 137.31,617.38 137.5,617.5 137.7,617.61 137.91,617.72 138.12,617.82 138.35,617.92 138.58,618.01 138.82,618.09 139.07,618.17 139.32,618.24 139.58,618.3 139.85,618.35 140.12,618.39 140.4,618.43 140.68,618.46 140.97,618.48 141.26,618.49 141.55,618.49 141.85,618.48 142.14,618.46 142.42,618.44 142.7,618.4 142.98,618.36 143.25,618.31 143.51,618.25 143.77,618.18 144.03,618.11 144.27,618.03 144.51,617.94 144.74,617.85 144.96,617.75 145.18,617.64 145.38,617.52 145.58,617.4 145.77,617.28 145.95,617.15 146.12,617.01 146.27,616.87 146.42,616.73 146.56,616.58 146.68,616.42 146.79,616.26 146.89,616.1 146.98,615.93 147.06,615.76 147.12,615.59 147.17,615.42 147.2,615.24 147.22,615.06 147.23,614.88 135.79,615.01 135.8,615.19 135.83,615.37 135.87,615.55 135.92,615.72 135.98,615.89 136.06,616.06 136.15,616.22 "
     id="polygon242"
     style="fill:#2a9859"
     transform="translate(-117.18119,-43.315082)" />
  <polygon
     class="f"
     points="145.41,623.94 145.89,628.39 138.34,633.2 137.86,628.75 134.03,626.43 141.58,621.63 "
     id="polygon244"
     style="fill:#33b568"
     transform="translate(-117.18119,-43.315082)" />
  <polygon
     class="e"
     points="148.39,635.44 148.3,635.27 148.21,635.09 148.14,634.9 148.07,634.71 148.02,634.5 147.97,634.29 147.93,634.07 147.9,633.85 147.88,633.62 147.87,633.38 147.87,633.14 147.88,632.9 147.9,632.65 147.93,632.4 147.96,632.14 148.01,631.88 148.06,631.62 148.13,631.36 148.2,631.09 148.29,630.82 148.38,630.56 148.49,630.29 148.6,630.02 148.72,629.75 148.85,629.49 148.99,629.24 149.14,628.99 149.29,628.75 149.44,628.52 149.6,628.29 149.77,628.08 149.94,627.87 150.11,627.67 150.29,627.49 150.47,627.31 150.66,627.14 150.84,626.98 151.03,626.83 151.22,626.69 151.41,626.56 151.61,626.45 151.8,626.34 152,626.25 152.19,626.16 152.38,626.09 152.58,626.03 152.77,625.98 152.96,625.95 153.15,625.93 153.34,625.92 153.52,625.92 153.71,625.94 153.88,625.97 154.06,626.01 154.23,626.07 154.4,626.14 149.44,636.45 149.27,636.36 149.12,636.26 148.98,636.15 148.84,636.03 148.72,635.9 148.6,635.76 148.49,635.6 "
     id="polygon246"
     style="fill:#2a9859"
     transform="translate(-117.18119,-43.315082)" />
  <path
     class="g"
     d="m 267.81881,48.314918 0.6,653.560002"
     id="path248"
     style="fill:none;stroke:#8a5d3b;stroke-miterlimit:10" />
  <path
     class="g"
     d="m 282.55881,52.164918 7.47,632.630002"
     id="path250"
     style="fill:none;stroke:#8a5d3b;stroke-miterlimit:10" />
  <path
     class="g"
     d="m 297.53881,55.224918 q 2.76,315.890002 5.53,631.770002"
     id="path252"
     style="fill:none;stroke:#8a5d3b;stroke-miterlimit:10" />
  <path
     class="g"
     d="m 308.54881,62.324918 q 6.06,310.170002 12.11,620.360002"
     id="path254"
     style="fill:none;stroke:#8a5d3b;stroke-miterlimit:10" />
  <path
     class="g"
     d="m 322.28881,61.434918 11.31,619.300002"
     id="path256"
     style="fill:none;stroke:#8a5d3b;stroke-miterlimit:10" />
  <path
     class="g"
     d="m 337.04881,59.294918 q 5.47,185.540002 8.65,371.080002 2.14,124.68 3.25,249.39"
     id="path258"
     style="fill:none;stroke:#8a5d3b;stroke-miterlimit:10" />
  <path
     class="g"
     d="m 366.59881,680.40492 q -0.9,-127.23 -2.29,-254.48 -2,-182.33 -5,-364.620002 l -3.29,2.13 5.8,616.620002 -5.85,-0.25 q -1.41,-307.3 -2.84,-614.600002 l -6.89,3.71 2.67,610.850002 -4.57,0.14 -3.21,-607.580002 -4.12,-13 -1.06,620.470002 z"
     id="path260"
     style="fill:none;stroke:#8a5d3b;stroke-miterlimit:10" />
  <rect
     class="h"
     x="386.79883"
     y="23.834921"
     width="6.6100001"
     height="672.40997"
     id="rect262"
     style="fill:#e0f467;stroke:#d6de23;stroke-miterlimit:10" />
  <rect
     class="h"
     x="230.52881"
     y="4.4649191"
     width="8.8900003"
     height="745.13"
     id="rect264"
     style="fill:#e0f467;stroke:#d6de23;stroke-miterlimit:10" />
</svg>
