<?xml version="1.0" encoding="UTF-8" standalone="no"?>
<svg
   viewBox="0 0 434.09135 642.00695"
   version="1.1"
   id="svg88"
   sodipodi:docname="book_colored_3.svg"
   width="434.09137"
   height="642.00696"
   inkscape:version="1.2.2 (b0a8486541, 2022-12-01)"
   xmlns:inkscape="http://www.inkscape.org/namespaces/inkscape"
   xmlns:sodipodi="http://sodipodi.sourceforge.net/DTD/sodipodi-0.dtd"
   xmlns="http://www.w3.org/2000/svg"
   xmlns:svg="http://www.w3.org/2000/svg">
  <sodipodi:namedview
     id="namedview90"
     pagecolor="#ffffff"
     bordercolor="#000000"
     borderopacity="0.25"
     inkscape:showpageshadow="2"
     inkscape:pageopacity="0.0"
     inkscape:pagecheckerboard="0"
     inkscape:deskcolor="#d1d1d1"
     showgrid="false"
     inkscape:zoom="0.99656723"
     inkscape:cx="342.67633"
     inkscape:cy="490.68441"
     inkscape:window-width="1920"
     inkscape:window-height="1011"
     inkscape:window-x="0"
     inkscape:window-y="32"
     inkscape:window-maximized="1"
     inkscape:current-layer="svg88" />
  <defs
     id="defs4">
    <style
       id="style2">.a{fill:#0392cb;}.a,.e{stroke:#1b75bb;stroke-width:3px;}.a,.b,.c,.d,.e{stroke-miterlimit:10;}.b{fill:#f9d681;}.b,.c{stroke:#d6de23;}.c{fill:#e7bb5b;}.d{fill:none;stroke:#8a5d3b;}.e{fill:#1ab8eb;}.f{fill:#c4e4ee;}.g{fill:#3886c4;fill-rule:evenodd;}</style>
  </defs>
  <path
     class="a"
     d="m 432.59138,588.18696 -46.47,1.72 q -148.53,5.52 -297.140005,11.36 V 3.0969571 l 343.610005,-1.59 z"
     id="path6"
     style="fill:#0392cb;stroke:#1b75bb;stroke-width:3px;stroke-miterlimit:10" />
  <path
     class="b"
     d="m 414.45138,10.226957 -93.17,23.79 v 0 a 207.61,207.61 0 0 0 -80.16,13 200.61,200.61 0 0 0 -33.95,16.59 14.71,14.71 0 0 1 2.8,1.35 c 30.13,18.57 6.09,141.900003 -188.740005,549.410003 q 84.250005,6.62 171.480005,11.72 65,3.78 128.57,6.51 a 284.9,284.9 0 0 1 94.37,-42.81 z"
     id="path8"
     style="fill:#f9d681;stroke:#d6de23;stroke-miterlimit:10" />
  <path
     class="c"
     d="m 268.99138,37.286957 a 334.49,334.49 0 0 0 52.29,-3.27 c 0,0 23.31,-3.35 93.17,-23.79 v 0 L 83.451375,9.9069571 v 0 l -58.19,24.9499999 v 0 l 41.94,24.53 c -2.06,-3.1 -2,-4.72 -1.48,-5.64 3.38,-6.14 31.77,9.45 73.270005,11.19 41.5,1.74 57.48,-5.3 80.24,-7.45 z"
     id="path10"
     style="fill:#e7bb5b;stroke:#d6de23;stroke-miterlimit:10" />
  <path
     class="a"
     d="m 80.921375,580.25696 -48.4,31.71 a 1296.48,1296.48 0 0 0 19,-206.09 A 1308.06,1308.06 0 0 0 1.8713752,34.016957 L 88.981375,3.0969571 v 0 l 21.000005,-0.09 v 0 c 0,0 -18.890005,7.2899999 -35.480005,13.5699999 -25.33,9.58 -49.2,18.28 -49.2,18.28 v 0 l -8.86,-0.32 -14.5299998,-0.52 L 122.91138,546.95696 Z"
     id="path12"
     style="fill:#0392cb;stroke:#1b75bb;stroke-width:3px;stroke-miterlimit:10" />
  <path
     class="d"
     d="m 320.59138,36.896957 q 0.81,295.340003 3.89,590.940003"
     id="path14"
     style="fill:none;stroke:#8a5d3b;stroke-miterlimit:10" />
  <path
     class="d"
     d="m 323.71138,36.336957 c 3,196.330003 2.05,393.330003 3.42,589.110003"
     id="path16"
     style="fill:none;stroke:#8a5d3b;stroke-miterlimit:10" />
  <path
     class="d"
     d="m 327.18138,34.386957 c 0.65,197.160003 3.06,393.000003 3.53,589.720003"
     id="path18"
     style="fill:none;stroke:#8a5d3b;stroke-miterlimit:10" />
  <path
     class="d"
     d="m 331.19138,33.226957 c 3.36,196.090003 -1,393.080003 3.45,588.510003"
     id="path20"
     style="fill:none;stroke:#8a5d3b;stroke-miterlimit:10" />
  <path
     class="d"
     d="m 334.74138,31.586957 c 3.17,195.490003 2.22,392.480003 3.45,588.220003"
     id="path22"
     style="fill:none;stroke:#8a5d3b;stroke-miterlimit:10" />
  <path
     class="d"
     d="m 338.69138,31.066957 c 1.46,196.000003 2.74,390.770003 3.45,587.140003"
     id="path24"
     style="fill:none;stroke:#8a5d3b;stroke-miterlimit:10" />
  <path
     class="d"
     d="m 340.19138,30.756957 c 0,195.200003 2.36,391.080003 3.88,586.260003"
     id="path26"
     style="fill:none;stroke:#8a5d3b;stroke-miterlimit:10" />
  <path
     class="d"
     d="m 343.38138,29.416957 c 3.49,194.300003 1.41,390.180003 3.36,585.210003"
     id="path28"
     style="fill:none;stroke:#8a5d3b;stroke-miterlimit:10" />
  <path
     class="d"
     d="m 346.81138,28.256957 c 1.18,194.340003 2.46,390.220003 3.51,585.000003"
     id="path30"
     style="fill:none;stroke:#8a5d3b;stroke-miterlimit:10" />
  <path
     class="d"
     d="m 350.81138,27.106957 c 0.54,194.370003 0.7,389.130003 3.44,583.820003"
     id="path32"
     style="fill:none;stroke:#8a5d3b;stroke-miterlimit:10" />
  <path
     class="d"
     d="m 354.44138,26.226957 c 2.51,194.130003 2.67,388.890003 3.36,582.760003"
     id="path34"
     style="fill:none;stroke:#8a5d3b;stroke-miterlimit:10" />
  <path
     class="d"
     d="m 358.33138,24.146957 c 2,195.090003 2.14,388.730003 3.42,583.240003"
     id="path36"
     style="fill:none;stroke:#8a5d3b;stroke-miterlimit:10" />
  <path
     class="d"
     d="m 363.18138,22.726957 c 0.48,193.150003 1.77,386.790003 4.93,580.780003"
     id="path38"
     style="fill:none;stroke:#8a5d3b;stroke-miterlimit:10" />
  <path
     class="d"
     d="m 367.44138,21.386957 c 0.6,66.89 1.77,132.930003 1.83,200.090003 1.23,126.48 2.46,254.08 2.51,380.46"
     id="path40"
     style="fill:none;stroke:#8a5d3b;stroke-miterlimit:10" />
  <path
     class="d"
     d="m 372.06138,20.226957 c -0.56,193.440003 5.21,385.940003 4.53,579.570003"
     id="path42"
     style="fill:none;stroke:#8a5d3b;stroke-miterlimit:10" />
  <path
     class="d"
     d="m 377.43138,18.286957 c 3,193.120003 -1.28,386.760003 4.32,579.910003"
     id="path44"
     style="fill:none;stroke:#8a5d3b;stroke-miterlimit:10" />
  <path
     class="d"
     d="m 382.27138,17.416957 c 2.67,194.000003 5.08,386.510003 4.35,579.630003"
     id="path46"
     style="fill:none;stroke:#8a5d3b;stroke-miterlimit:10" />
  <path
     class="d"
     d="m 387.52138,16.116957 c 3,193.050003 3.19,386.690003 4.39,579.330003"
     id="path48"
     style="fill:none;stroke:#8a5d3b;stroke-miterlimit:10" />
  <path
     class="d"
     d="m 391.46138,14.666957 c -0.92,193.380003 4.85,385.900003 4.32,579.420003"
     id="path50"
     style="fill:none;stroke:#8a5d3b;stroke-miterlimit:10" />
  <path
     class="d"
     d="m 395.07138,13.326957 c 3.31,193.600003 2.36,386.120003 3.75,580.000003"
     id="path52"
     style="fill:none;stroke:#8a5d3b;stroke-miterlimit:10" />
  <path
     class="d"
     d="m 398.99138,12.176957 c 0.51,193.630003 4,386.150003 3.93,579.770003"
     id="path54"
     style="fill:none;stroke:#8a5d3b;stroke-miterlimit:10" />
  <path
     class="d"
     d="m 403.59138,11.806957 c 0.43,192.880003 0.6,386.520003 3.81,579.350003"
     id="path56"
     style="fill:none;stroke:#8a5d3b;stroke-miterlimit:10" />
  <path
     class="d"
     d="m 407.65138,10.146957 c 4.17,192.300003 2.1,385.940003 3.74,578.330003"
     id="path58"
     style="fill:none;stroke:#8a5d3b;stroke-miterlimit:10" />
  <path
     class="d"
     d="m 412.10138,9.6669571 c 3.08,192.8100029 3.25,384.2100029 3.8,576.5100029"
     id="path60"
     style="fill:none;stroke:#8a5d3b;stroke-miterlimit:10" />
  <path
     class="d"
     d="m 244.59138,34.986957 q 32.73,0.13 65.47,-0.16"
     id="path62"
     style="fill:none;stroke:#8a5d3b;stroke-miterlimit:10" />
  <path
     class="d"
     d="m 223.07138,34.876957 16.1,0.09"
     id="path64"
     style="fill:none;stroke:#8a5d3b;stroke-miterlimit:10" />
  <path
     class="d"
     d="m 84.521375,34.106957 q 13,0 26.090005,0"
     id="path66"
     style="fill:none;stroke:#8a5d3b;stroke-miterlimit:10" />
  <path
     class="d"
     d="m 36.831375,33.196957 c 9,0.44 17.92,0.68 26.89,0.8"
     id="path68"
     style="fill:none;stroke:#8a5d3b;stroke-miterlimit:10" />
  <path
     class="d"
     d="m 48.761375,28.756957 c 93.280005,1.56 185.400005,2.44 278.680005,3.22"
     id="path70"
     style="fill:none;stroke:#8a5d3b;stroke-miterlimit:10" />
  <path
     class="d"
     d="m 60.371375,24.936957 c 96.100005,0.06 193.770005,0.06 290.350005,0.91"
     id="path72"
     style="fill:none;stroke:#8a5d3b;stroke-miterlimit:10" />
  <path
     class="d"
     d="m 72.931375,20.766957 c 58.000005,1.57 114.610005,-0.21 172.330005,1.57 38.84,0.88 78.8,0 117.94,0.17"
     id="path74"
     style="fill:none;stroke:#8a5d3b;stroke-miterlimit:10" />
  <path
     class="d"
     d="m 82.871375,18.426957 c 94.770005,-0.53 190.530005,1.25 284.850005,1.4"
     id="path76"
     style="fill:none;stroke:#8a5d3b;stroke-miterlimit:10" />
  <path
     class="d"
     d="m 91.421375,14.786957 c 96.130005,2.23 190.790005,1.34 286.660005,2"
     id="path78"
     style="fill:none;stroke:#8a5d3b;stroke-miterlimit:10" />
  <path
     class="d"
     d="m 98.021375,12.296957 c 98.340005,0.28 197.390005,2.05 295.370005,1.52"
     id="path80"
     style="fill:none;stroke:#8a5d3b;stroke-miterlimit:10" />
  <rect
     class="e"
     x="1.8713747"
     y="34.01696"
     width="319.41"
     height="606.48999"
     id="rect82"
     style="fill:#1ab8eb;stroke:#1b75bb;stroke-width:3px;stroke-miterlimit:10" />
  <ellipse
     class="f"
     cx="150.69138"
     cy="190.98697"
     rx="114.94"
     ry="90.379997"
     id="ellipse84"
     style="fill:#c4e4ee" />
  <path
     class="g"
     d="m 215.68138,128.84696 c 9.63,8.18 16.15,17.28 19.81,25.55 a 50.69,50.69 0 0 1 3.53,11.69 c 0.12,0.89 0.24,1.77 0.35,2.62 0.11,0.85 0.1,1.7 0.13,2.5 v 1.18 l -0.06,1.16 -0.14,2.19 a 38.54,38.54 0 0 1 -0.71,3.93 26.24,26.24 0 0 1 -1.15,3.29 25.26,25.26 0 0 1 -1.44,2.67 19.12,19.12 0 0 1 -1.68,2.09 9.61,9.61 0 0 1 -1.8,1.54 10.15,10.15 0 0 1 -1.86,1 9,9 0 0 1 -3.79,0.71 30.73,30.73 0 0 0 1.77,-10 37.35,37.35 0 0 0 -1.8,-11.6 c -2.51,-8.15 -8.14,-16.72 -16,-24.15 a 92.59,92.59 0 0 0 -29,-18.25 116.8,116.8 0 0 0 -36.08,-8.07 119.55,119.55 0 0 0 -37.58,3.56 102.86,102.86 0 0 0 -33.800005,15.63 77.27,77.27 0 0 0 -23.79,26.7 63.81,63.81 0 0 0 -7.32,33.29 68.42,68.42 0 0 0 10,31.48 89.18,89.18 0 0 0 20.85,23.57 102.28,102.28 0 0 0 12.16,8.46 c 2,1.28 4.15,2.35 6.19,3.48 l 3.11,1.54 c 1,0.51 2.06,1 3.1,1.43 a 128.39,128.39 0 0 0 23.720005,7.92 134.76,134.76 0 0 0 20.34,3 l 2.22,0.17 2.14,0.08 c 1.4,0.05 2.75,0.12 4,0.14 h 5.42 l 1.63,-0.07 c 4.23,-0.13 7.49,-0.49 9.71,-0.68 l 3.43,-0.44 c 20.82,-2.74 40.82,-10.1 57.54,-22.26 1,-0.78 2.1,-1.5 3.09,-2.33 l 3,-2.44 c 1.93,-1.71 3.88,-3.4 5.69,-5.25 a 90.47,90.47 0 0 0 10,-11.78 84,84 0 0 0 7.83,-13.43 c 0.51,-1.2 1.08,-2.37 1.53,-3.59 l 1.35,-3.68 1.13,-3.75 c 0.37,-1.25 0.61,-2.54 0.92,-3.81 0.07,-0.3 0.17,-0.74 0.29,-1.29 0.12,-0.55 0.21,-1.21 0.33,-1.94 0.12,-0.73 0.26,-1.52 0.41,-2.34 0.15,-0.82 0.2,-1.67 0.3,-2.51 0.1,-0.84 0.23,-1.66 0.3,-2.43 0.07,-0.77 0.12,-1.48 0.18,-2.1 a 6,6 0 0 1 0.45,-2.22 6.5,6.5 0 0 1 0.28,2.24 c 0,0.63 0,1.36 0.05,2.14 0.05,0.78 -0.09,1.62 -0.14,2.48 -0.05,0.86 -0.11,1.72 -0.19,2.56 -0.08,0.84 -0.24,1.65 -0.35,2.39 -0.11,0.74 -0.22,1.42 -0.3,2 l -0.29,1.32 c -0.3,1.29 -0.54,2.61 -0.9,3.89 l -1.11,3.84 -1.34,3.76 c -0.45,1.25 -1,2.45 -1.52,3.68 a 85.39,85.39 0 0 1 -7.75,13.81 91.84,91.84 0 0 1 -10.1,12.15 c -1.81,1.91 -3.78,3.66 -5.72,5.44 l -3,2.53 c -1,0.85 -2.08,1.61 -3.11,2.42 -16.86,12.66 -37.08,20.57 -58.32,23.92 l -3.5,0.53 c -2.27,0.24 -5.61,0.69 -9.94,1 l -1.67,0.13 -1.77,0.06 -3.79,0.14 c -1.33,0 -2.71,0 -4.15,0 h -2.21 l -2.29,-0.09 a 147.7,147.7 0 0 1 -21.13,-2.22 143.17,143.17 0 0 1 -25.190005,-6.95 c -1.12,-0.4 -2.23,-0.85 -3.34,-1.32 l -3.38,-1.42 c -2.22,-1.06 -4.54,-2.05 -6.78,-3.28 a 113,113 0 0 1 -13.61,-8.17 102.6,102.6 0 0 1 -25,-24.28 83.41,83.41 0 0 1 -15,-36 80.94,80.94 0 0 1 -0.47,-21.07 84.73,84.73 0 0 1 5.21,-21.26 c 5.32,-13.9 14.35,-26.56 25.52,-37.08 a 136,136 0 0 1 38.93,-25.370003 163.71,163.71 0 0 1 46.070005,-12.34 171.27,171.27 0 0 1 49,1.29 154.26,154.26 0 0 1 48.26,16.660003 136.09,136.09 0 0 1 22.06,15.13 119.87,119.87 0 0 1 19.17,20.4 113.68,113.68 0 0 1 14.28,25.6 112.11,112.11 0 0 1 7.27,29.28 c -1.28,0.1 -2.56,-0.62 -3.87,-2 a 17.13,17.13 0 0 1 -2,-2.63 c -0.67,-1 -1.33,-2.24 -2.11,-3.58 -2.89,-5.38 -6.49,-13.12 -11.82,-21.89 l -2.13,-3.3 -1.09,-1.7 -1.19,-1.68 c -0.81,-1.13 -1.6,-2.29 -2.45,-3.44 l -2.69,-3.45 a 130.58,130.58 0 0 0 -12.73,-13.61 132.65,132.65 0 0 0 -35.38,-23.07 l 2.66,2 2.62,2.07 c 1.77,1.41 3.44,3 5.14,4.54 a 104.29,104.29 0 0 1 9.4,10.11 94.54,94.54 0 0 1 7.73,10.91 85,85 0 0 1 5.57,11 65,65 0 0 1 4.85,18.44 c 0.11,1.19 0.23,2.24 0.22,3.19 -0.01,0.95 0,1.78 -0.08,2.47 -0.09,1.37 -0.31,2.2 -0.64,2.42 -1.56,-0.3 -5,-10.5 -13.46,-21.24 a 92.42,92.42 0 0 0 -7.11,-8.05 93.91,93.91 0 0 0 -8.59,-7.56 104.14,104.14 0 0 0 -19.54,-12.05 z"
     id="path86"
     style="fill:#3886c4;fill-rule:evenodd" />
</svg>
