<?xml version="1.0" encoding="UTF-8" standalone="no"?>
<svg
   id="Layer_1"
   data-name="Layer 1"
   viewBox="0 0 560.74002 344.3891"
   version="1.1"
   sodipodi:docname="heczaniv svg-01.svg"
   width="560.73999"
   height="344.3891"
   inkscape:version="1.2.2 (b0a8486541, 2022-12-01)"
   xmlns:inkscape="http://www.inkscape.org/namespaces/inkscape"
   xmlns:sodipodi="http://sodipodi.sourceforge.net/DTD/sodipodi-0.dtd"
   xmlns="http://www.w3.org/2000/svg"
   xmlns:svg="http://www.w3.org/2000/svg">
  <sodipodi:namedview
     id="namedview459"
     pagecolor="#ffffff"
     bordercolor="#000000"
     borderopacity="0.25"
     inkscape:showpageshadow="2"
     inkscape:pageopacity="0.0"
     inkscape:pagecheckerboard="0"
     inkscape:deskcolor="#d1d1d1"
     showgrid="false"
     inkscape:zoom="1.9873981"
     inkscape:cx="369.57869"
     inkscape:cy="258.62961"
     inkscape:window-width="1920"
     inkscape:window-height="1011"
     inkscape:window-x="0"
     inkscape:window-y="32"
     inkscape:window-maximized="1"
     inkscape:current-layer="Layer_1" />
  <defs
     id="defs4">
    <style
       id="style2">.cls-1,.cls-30{fill:#5a4e51;}.cls-2{fill:#999797;}.cls-2,.cls-23,.cls-54,.cls-58{opacity:0.11;}.cls-3{fill:#a07759;}.cls-4{fill:#a17859;}.cls-5{fill:#a27959;}.cls-6{fill:#a4795a;}.cls-7{fill:#a57a5a;}.cls-8{fill:#a67b5a;}.cls-9{fill:#a77b5b;}.cls-10{fill:#a87c5b;}.cls-11{fill:#aa7d5b;}.cls-12{fill:#ab7e5c;}.cls-13{fill:#ac7e5c;}.cls-14{fill:#ad7f5c;}.cls-15{fill:#af805d;}.cls-16{fill:#b0815d;}.cls-17{fill:#b1815d;}.cls-18{fill:#b2825e;}.cls-19{fill:#b4835e;}.cls-20{fill:#b5835e;}.cls-21{fill:#b6845f;}.cls-22{fill:#f46544;}.cls-23{fill:#d59d68;}.cls-24,.cls-26,.cls-27,.cls-29,.cls-31,.cls-33,.cls-34,.cls-35,.cls-36,.cls-37,.cls-38,.cls-41,.cls-47,.cls-49,.cls-50,.cls-53,.cls-55,.cls-56{fill:none;}.cls-24,.cls-30,.cls-44,.cls-55,.cls-56{stroke:#5a4e51;}.cls-24,.cls-26,.cls-27,.cls-29,.cls-30,.cls-31,.cls-33,.cls-34,.cls-35,.cls-36,.cls-37,.cls-38,.cls-41,.cls-42,.cls-43,.cls-44,.cls-46,.cls-47,.cls-49,.cls-50,.cls-53,.cls-55,.cls-56{stroke-miterlimit:10;}.cls-24,.cls-44{stroke-width:9.58px;}.cls-25{fill:#0b0809;}.cls-26{stroke:#81c452;stroke-width:4.79px;}.cls-27{stroke:#723935;stroke-width:0.6px;}.cls-28{fill:#6c6a67;}.cls-29{stroke:#4e5034;stroke-width:11.18px;}.cls-30,.cls-37,.cls-56{stroke-width:7.19px;}.cls-31,.cls-42{stroke:#23634c;}.cls-31,.cls-33,.cls-34,.cls-35,.cls-36,.cls-42{stroke-width:7px;}.cls-32{fill:#00aa5e;}.cls-33{stroke:#00aa5e;}.cls-34{stroke:#00a55e;}.cls-35{stroke:#00a85e;}.cls-36{stroke:#00ad5e;}.cls-37{stroke:#00b15c;}.cls-38{stroke:#7bc78d;stroke-width:3px;}.cls-39{fill:#00a85e;}.cls-40{fill:#7bc78d;}.cls-41{stroke:#675f57;}.cls-41,.cls-46{stroke-width:3.19px;}.cls-42{fill:#23634c;}.cls-43,.cls-44,.cls-45,.cls-46{fill:#2e6247;}.cls-43{stroke:#374069;}.cls-43,.cls-53{stroke-width:0.8px;}.cls-46,.cls-47,.cls-49,.cls-50{stroke:#444;}.cls-47{stroke-width:2px;}.cls-48{fill:#1a1a1a;}.cls-49{stroke-width:1.6px;}.cls-50{stroke-width:2.4px;}.cls-51{fill:#b1b1b0;}.cls-52,.cls-54{fill:#817f7e;}.cls-53{stroke:#1a1a1a;}.cls-55{stroke-width:6.39px;}.cls-57{fill:#723935;}.cls-58{fill:#db766d;}</style>
  </defs>
  <path
     class="cls-1"
     d="m 210.44999,52.649103 c 0.5,0.89 -0.21,2 -1.52,4 -1.7,2.67 -2.85,4.49 -5,5.16 -1.16,0.35 -2.14,0.23 -2.5,0.95 -0.25,0.49 0,1.09 0.38,2.29 0.54,1.55 1,1.91 0.83,2.69 0,0 0,0 -0.44,1.22 l 2.31,5.16 2.31,4 c 0.2,0.34 -0.46,0.31 -0.76,0.67 -0.77,0.93 0.05,2.41 1.14,5.73 0.92,2.79 1.17,4.27 2,4.39 0.43,0.06 0.64,-0.49 1.05,-0.39 0.41,0.1 0.49,0.75 1,2.29 0.51,1.54 0.78,2 0.58,2.68 -0.2,0.68 -0.62,0.77 -0.93,1.16 -1.37,1.69 1.38,5.32 2.73,10.459997 a 24.61,24.61 0 0 1 0.7,4 c -2.1,1.75 -5,3.76 -6.54,2.86 -1,-0.58 -1.05,-2.08 -1.15,-3.25 -0.48,-5.5 -2.28,-4.59 -5.4,-15.649997 -1.23,-4.37 -0.93,-4.43 -2.3,-9.06 -1.5,-5 -1.8,-4.89 -2.22,-7.35 -0.46,-2.72 -0.41,-4.8 -1.35,-5.06 -0.65,-0.17 -1.06,0.74 -2.5,1.05 a 5,5 0 0 1 -3,-0.38 c -2.94,-1.25 -3.62,-5.14 -3.72,-5.74 a 9.89,9.89 0 0 1 2.85,-8.67 c 3.25,-3.13 8.36,-3.51 9.16,-2.31 0.14,0.21 0.11,0.4 0.66,1.93 0.38,1.07 0.46,1.17 0.58,1.24 0.79,0.51 2.47,-0.78 3.56,-1.62 a 8.64,8.64 0 0 0 2.88,-3.05 c 0.59,-1.17 0.41,-1.7 1,-2.14 a 2.78,2.78 0 0 1 3.61,0.74 z"
     id="path6"
     style="fill:#5a4e51" />
  <path
     class="cls-2"
     d="m 195.31999,62.359103 c 5.72,18.29 11.94,36.49 17.46,54.869997 0.21,0.7 0.89,-0.41 0.93,-0.49 0.32,-0.57 1,-1.62 0.82,-2.32 -0.6,-2.57 -1.38,-5.05 -2.2,-7.56 -2.11,-6.53 -4.15,-13.079997 -6.25,-19.609997 -2.9,-9 -5.77,-18.07 -8.47,-27.17 -0.32,-0.89 -2.49,1.64 -2.29,2.28 z"
     id="path8"
     style="opacity:0.11;fill:#999797" />
  <path
     class="cls-2"
     d="m 193.77999,60.849103 c 5.71,18.33 11.89,36.52 17.41,54.899997 0.28,0.93 1,-1.23 0.94,-1 0.33,-1 1,-2.54 0.73,-3.62 -0.57,-2.61 -1.36,-5.11 -2.18,-7.65 -2.12,-6.529997 -4.15,-13.089997 -6.25,-19.619997 -2.92,-9 -5.76,-18.09 -8.35,-27.24 -0.25,-0.88 -1.1,0.92 -1.08,0.88 -0.34,0.67 -1.47,2.48 -1.22,3.35 z"
     id="path10"
     style="opacity:0.11;fill:#999797" />
  <path
     class="cls-2"
     d="m 193.40999,59.259103 q 8.82,27.46 17.58,54.999997 c 0.25,0.76 1.17,-0.11 1,-0.69 q -8.79,-27.489997 -17.59,-54.999997 c -0.25,-0.76 -1.18,0.08 -0.99,0.69 z"
     id="path12"
     style="opacity:0.11;fill:#999797" />
  <path
     class="cls-2"
     d="m 195.57999,60.029103 c 5.67,18.32 11.92,36.48 17.37,54.869997 0.27,0.89 1.1,-1 1.07,-0.92 0.4,-0.83 1.41,-2.52 1.19,-3.5 -0.57,-2.6 -1.36,-5.09 -2.18,-7.62 -2.12,-6.529997 -4.15,-13.079997 -6.25,-19.609997 -2.91,-9 -5.76,-18.08 -8.38,-27.2 -0.24,-0.83 -1.13,0.67 -1.18,0.74 -0.38,0.58 -1.89,2.46 -1.64,3.24 z"
     id="path14"
     style="opacity:0.11;fill:#999797" />
  <path
     class="cls-2"
     d="m 194.65999,59.369103 c 6.3,18.08 11.92,36.4 17.75,54.629997 0.21,0.68 1.18,0.14 1,-0.44 -5.82,-18.209997 -11.31,-36.549997 -17.8,-54.529997 a 0.51,0.51 0 0 0 -0.95,0.34 z"
     id="path16"
     style="opacity:0.11;fill:#999797" />
  <path
     class="cls-2"
     d="m 192.39999,60.349103 c 5.72,18.29 11.95,36.45 17.4,54.829997 0.14,0.45 0.48,0.28 0.71,0.07 0.23,-0.21 0.3,-1.61 0.2,-2 -2.45,-9.18 -5.66,-18.199997 -8.56,-27.239997 -2.9,-9.04 -5.82,-18.15 -8.6,-27.27 -0.36,-1.15 -1.33,1.06 -1.15,1.61 z"
     id="path18"
     style="opacity:0.11;fill:#999797" />
  <path
     class="cls-2"
     d="m 194.11999,62.649103 c 5.72,18.31 11.9,36.5 17.42,54.879997 0.22,0.72 0.86,-0.59 0.86,-0.58 a 4.19,4.19 0 0 0 0.51,-2.36 c -0.58,-2.58 -1.37,-5 -2.18,-7.57 -2.12,-6.52 -4.16,-13.079997 -6.26,-19.609997 -2.9,-9 -5.77,-18.06 -8.43,-27.17 -0.26,-0.85 -2.13,1.7 -1.92,2.41 z"
     id="path20"
     style="opacity:0.11;fill:#999797" />
  <path
     class="cls-2"
     d="m 196.39999,60.239103 c 2.79,9.18 5.72,18.32 8.65,27.45 2.93,9.13 6,18.199997 8.66,27.389997 0.19,0.64 0.82,-0.32 0.88,-0.4 a 3.27,3.27 0 0 0 0.64,-2 c -0.62,-2.56 -1.41,-5 -2.22,-7.55 -2.11,-6.529997 -4.16,-13.079997 -6.25,-19.609997 -2.92,-9.08 -5.84,-18.13 -8.44,-27.31 -0.25,-0.87 -2.11,1.44 -1.92,2.03 z"
     id="path22"
     style="opacity:0.11;fill:#999797" />
  <path
     class="cls-2"
     d="m 192.99999,59.429103 q 4.35,13.68 8.73,27.36 c 2.92,9.13 6,18.219997 8.69,27.419997 0.13,0.46 0.45,0.32 0.71,0.11 a 3.41,3.41 0 0 0 0.3,-2 c -2.43,-9.2 -5.66,-18.219997 -8.56,-27.279997 -2.9,-9.06 -5.82,-18.16 -8.61,-27.28 -0.38,-1.27 -1.43,1.12 -1.26,1.67 z"
     id="path24"
     style="opacity:0.11;fill:#999797" />
  <path
     class="cls-2"
     d="m 194.66999,58.969103 q 4.29,13.74 8.7,27.42 c 2.92,9.13 6,18.229997 8.69,27.429997 0.21,0.73 0.85,-0.67 0.84,-0.64 a 4.55,4.55 0 0 0 0.47,-2.44 c -0.63,-2.6 -1.42,-5.12 -2.24,-7.66 -2.11,-6.529997 -4.16,-13.089997 -6.26,-19.619997 -2.91,-9.09 -5.82,-18.16 -8.51,-27.32 -0.21,-0.7 -0.88,0.46 -0.92,0.51 -0.31,0.51 -0.97,1.68 -0.77,2.32 z"
     id="path26"
     style="opacity:0.11;fill:#999797" />
  <path
     class="cls-2"
     d="m 196.15999,61.369103 q 4.31,13.71 8.7,27.4 c 2.92,9.12 6,18.209997 8.69,27.399997 0.2,0.7 0.88,-0.39 0.93,-0.47 0.34,-0.51 1,-1.62 0.86,-2.28 -0.6,-2.57 -1.39,-5 -2.2,-7.55 -2.11,-6.519997 -4.15,-13.069997 -6.25,-19.609997 -2.9,-9 -5.78,-18.05 -8.48,-27.14 -0.27,-0.9 -2.45,1.62 -2.25,2.25 z"
     id="path28"
     style="opacity:0.11;fill:#999797" />
  <path
     class="cls-2"
     d="m 192.77999,61.279103 c 5.72,18.23 11.91,36.33 17.35,54.639997 0.16,0.56 0.39,0.39 0.71,0.12 a 4.65,4.65 0 0 0 0.4,-2.57 c -1.87,-7.33 -4.46,-14.509997 -6.76,-21.719997 -3.52,-11 -7.1,-22.06 -10.41,-33.17 -0.2,-0.68 -0.83,0.51 -0.83,0.53 a 3.48,3.48 0 0 0 -0.46,2.17 z"
     id="path30"
     style="opacity:0.11;fill:#999797" />
  <path
     class="cls-3"
     d="m 154.07999,53.059103 c 3,11.57 17.27,14.62 17.9,14.74 1.06,0.21 10.5,1.93 18.48,-3.43 6.61,-4.45 6,-9.56 12.12,-11.88 4.44,-1.68 5.85,0.71 13.86,0.57 4.27,-0.08 18.09,-0.33 21.94,-8 1.78,-3.57 1.4,-8.7 -1.27,-10.87 -3.12,-2.54 -8.47,-0.32 -13.17,1.14 -4.7,1.46 -13.85,1.91 -32.33,2.86 -23.9,1.23 -32.45,-2.09 -36.58,3.79 -2.79,3.95 -1.42,9.22 -0.95,11.08 z"
     id="path32"
     style="fill:#a07759" />
  <path
     class="cls-4"
     d="m 155.16999,41.829103 c -2.83,3.87 -1.55,9 -1.1,10.75 2.77,11.2 16.67,14.32 17.32,14.5 1.36,0.38 10.73,2 18.75,-3.1 4.67,-3 6,-6.39 8.4,-8.74 a 10.27,10.27 0 0 1 3.45,-2.35 c 0.41,-0.17 0.84,-0.35 1.31,-0.5 a 11.38,11.38 0 0 1 6,-0.3 23,23 0 0 0 4.84,0.54 c 1.07,0 2.29,-0.17 3.55,-0.19 4,-0.08 17.1,-0.43 20.71,-7.8 1.68,-3.41 1.29,-8.27 -1.23,-10.37 a 6.45,6.45 0 0 0 -4.83,-1.2 42.78,42.78 0 0 0 -8.49,2.1 36.12,36.12 0 0 1 -5.47,1.06 c -3.25,0.43 -6.91,0.67 -12.36,1 -4.59,0.33 -9.11,0.61 -14.91,0.91 -23.33,1.24 -31.7,-2.12 -35.94,3.69 z"
     id="path34"
     style="fill:#a17859" />
  <path
     class="cls-5"
     d="m 155.30999,41.709103 c -2.86,3.76 -1.66,8.68 -1.25,10.38 2.59,10.84 16.06,14.05 16.74,14.28 1.67,0.56 11,2.17 19,-2.77 5,-3 6.34,-6.58 9.11,-8.75 a 10.78,10.78 0 0 1 3.7,-2.1 c 0.44,-0.15 0.89,-0.32 1.38,-0.46 a 14.42,14.42 0 0 1 6.33,-0.33 27.67,27.67 0 0 0 5.06,0.35 c 1.13,-0.07 2.39,-0.47 3.58,-0.49 3.8,-0.07 16.09,-0.54 19.48,-7.58 1.57,-3.25 1.18,-7.84 -1.19,-9.87 a 6.64,6.64 0 0 0 -4.86,-1.31 c -2.76,0.15 -5.78,1.16 -8.62,2 a 39.19,39.19 0 0 1 -5.54,1.06 c -3.46,0.46 -6.79,0.63 -12.52,1.06 -5.07,0.38 -9.25,0.71 -15.08,1 -22.7,1.18 -30.97,-2.21 -35.32,3.53 z"
     id="path36"
     style="fill:#a27959" />
  <path
     class="cls-6"
     d="m 155.44999,41.579103 c -2.88,3.66 -1.78,8.4 -1.41,10 2.4,10.47 15.46,13.78 16.16,14 a 26.08,26.08 0 0 0 19.29,-2.43 c 5.25,-3.08 6.72,-6.76 9.82,-8.76 a 12.09,12.09 0 0 1 4,-1.86 c 0.46,-0.13 0.95,-0.28 1.45,-0.41 a 18.45,18.45 0 0 1 6.65,-0.35 25.61,25.61 0 0 0 5.27,0.15 c 1.18,-0.15 2.5,-0.77 3.62,-0.79 3.56,-0.07 15.08,-0.64 18.25,-7.37 1.45,-3.09 1.06,-7.4 -1.17,-9.36 a 6.76,6.76 0 0 0 -4.88,-1.41 c -2.82,0.08 -5.87,1 -8.74,1.83 a 42.15,42.15 0 0 1 -5.62,1.06 c -3.66,0.5 -6.67,0.6 -12.67,1.08 -5.57,0.46 -9.4,0.83 -15.26,1.14 -22.17,1.24 -30.29,-2.19 -34.76,3.48 z"
     id="path38"
     style="fill:#a4795a" />
  <path
     class="cls-7"
     d="m 155.58999,41.459103 c -2.91,3.55 -1.9,8.11 -1.56,9.67 2.2,10.1 14.85,13.51 15.58,13.81 2.29,0.94 11.48,2.45 19.56,-2.1 5.54,-3.12 7.09,-7 10.52,-8.77 a 13.61,13.61 0 0 1 4.21,-1.61 l 1.54,-0.36 a 23.43,23.43 0 0 1 7,-0.39 23.4,23.4 0 0 0 5.49,0 c 1.24,-0.23 2.61,-1.07 3.65,-1.09 3.32,-0.06 14.09,-0.75 17,-7.15 1.35,-2.93 1,-7 -1.13,-8.86 a 6.82,6.82 0 0 0 -4.91,-1.51 c -2.89,0 -6,0.94 -8.87,1.69 a 48.25,48.25 0 0 1 -5.69,1.06 c -3.86,0.54 -6.56,0.57 -12.83,1.11 -6.05,0.52 -9.54,0.93 -15.43,1.25 -21.57,1.11 -29.54,-2.36 -34.13,3.25 z"
     id="path40"
     style="fill:#a57a5a" />
  <path
     class="cls-8"
     d="m 155.71999,41.329103 c -2.93,3.45 -2,7.84 -1.71,9.32 2,9.73 14.25,13.24 15,13.57 2.61,1.15 11.75,2.61 19.84,-1.76 5.83,-3.15 7.46,-7.14 11.22,-8.78 a 15.34,15.34 0 0 1 4.47,-1.36 c 0.53,-0.09 1.06,-0.21 1.61,-0.32 a 45.53,45.53 0 0 1 7.26,-0.42 c 2.17,-0.12 3.87,0.21 5.7,-0.23 1.31,-0.32 2.72,-1.38 3.69,-1.39 3.09,-0.06 13.09,-0.85 15.8,-6.93 1.23,-2.77 0.84,-6.56 -1.1,-8.36 a 7,7 0 0 0 -4.94,-1.61 36.17,36.17 0 0 0 -9,1.56 54.83,54.83 0 0 1 -5.77,1 c -4.06,0.57 -6.44,0.54 -13,1.13 -6.56,0.59 -9.69,1 -15.61,1.37 -20.92,1.17 -28.74,-2.32 -33.46,3.21 z"
     id="path42"
     style="fill:#a67b5a" />
  <path
     class="cls-9"
     d="m 155.85999,41.209103 c -3,3.34 -2.13,7.55 -1.86,9 1.81,9.36 13.64,13 14.42,13.34 2.91,1.36 12,2.76 20.11,-1.44 6.12,-3.17 7.83,-7.32 11.92,-8.78 a 17.9,17.9 0 0 1 4.73,-1.11 c 0.55,-0.07 1.11,-0.18 1.69,-0.28 a 72.56,72.56 0 0 1 7.56,-0.45 c 2.35,-0.18 4.11,0.12 5.92,-0.42 1.37,-0.41 2.83,-1.68 3.72,-1.69 2.85,-0.06 12.09,-1 14.57,-6.72 1.12,-2.6 0.73,-6.13 -1.06,-7.86 a 7.15,7.15 0 0 0 -5,-1.71 35,35 0 0 0 -9.12,1.43 c -1.62,0.38 -3.53,0.73 -5.84,1.06 -4.27,0.59 -6.32,0.5 -13.14,1.15 -7,0.67 -9.83,1.15 -15.78,1.48 -20.32,1.06 -28,-2.47 -32.84,3 z"
     id="path44"
     style="fill:#a77b5b" />
  <path
     class="cls-10"
     d="m 155.99999,41.079103 c -3,3.24 -2.25,7.28 -2,8.6 1.62,9 13,12.71 13.85,13.11 3.2,1.57 12.28,2.94 20.38,-1.1 6.42,-3.19 8.2,-7.52 12.62,-8.79 a 21.34,21.34 0 0 1 5,-0.86 c 0.58,-0.06 1.16,-0.15 1.76,-0.23 3.12,-0.42 5.43,-0.26 7.87,-0.49 2.44,-0.23 4.35,0 6.14,-0.61 1.43,-0.51 2.94,-2 3.76,-2 2.61,0 11.08,-1 13.33,-6.49 1,-2.45 0.63,-5.72 -1,-7.36 a 7.26,7.26 0 0 0 -5,-1.81 34.29,34.29 0 0 0 -9.24,1.29 c -1.67,0.38 -3.61,0.73 -5.92,1.06 -4.47,0.63 -6.2,0.47 -13.29,1.17 -7.51,0.75 -10,1.26 -16,1.6 -19.77,1.08 -27.3,-2.52 -32.26,2.91 z"
     id="path46"
     style="fill:#a87c5b" />
  <path
     class="cls-11"
     d="m 156.13999,40.959103 a 9.33,9.33 0 0 0 -2.17,8.24 c 1.41,8.64 12.43,12.45 13.26,12.87 3.51,1.8 12.56,3.12 20.66,-0.76 6.72,-3.21 8.57,-7.71 13.33,-8.8 a 25.35,25.35 0 0 1 5.23,-0.61 c 0.61,0 1.23,-0.12 1.84,-0.19 3.24,-0.35 5.67,-0.41 8.18,-0.52 2.74,-0.11 4.59,-0.08 6.36,-0.8 1.49,-0.61 3,-2.28 3.79,-2.3 2.37,0 10.09,-1.15 12.11,-6.27 0.9,-2.29 0.53,-5.31 -1,-6.86 a 7.31,7.31 0 0 0 -5,-1.91 33.45,33.45 0 0 0 -9.38,1.15 c -1.71,0.37 -3.67,0.73 -6,1.06 -4.67,0.67 -6.09,0.45 -13.45,1.2 -8,0.82 -10.12,1.37 -16.14,1.71 -19.16,1.06 -26.53,-2.52 -31.62,2.79 z"
     id="path48"
     style="fill:#aa7d5b" />
  <path
     class="cls-12"
     d="m 156.27999,40.839103 a 8.87,8.87 0 0 0 -2.32,7.88 c 1.21,8.27 11.81,12.18 12.68,12.64 3.8,2 12.84,3.29 20.93,-0.43 7,-3.23 8.94,-7.91 14,-8.81 a 32,32 0 0 1 5.49,-0.36 c 0.64,0 1.28,-0.09 1.92,-0.15 3.36,-0.29 5.9,-0.39 8.48,-0.55 2.93,-0.17 4.83,-0.19 6.57,-1 1.55,-0.71 3.16,-2.58 3.83,-2.6 2.14,0 9.09,-1.25 10.88,-6 a 6.53,6.53 0 0 0 -1,-6.36 7.47,7.47 0 0 0 -5,-2 32.6,32.6 0 0 0 -9.5,1 c -1.76,0.37 -3.74,0.73 -6.07,1.06 -4.87,0.7 -6,0.42 -13.6,1.22 -8.49,0.9 -10.27,1.48 -16.32,1.83 -18.54,1 -25.76,-2.62 -30.97,2.63 z"
     id="path50"
     style="fill:#ab7e5c" />
  <path
     class="cls-13"
     d="m 156.41999,40.709103 a 8.54,8.54 0 0 0 -2.48,7.53 c 1,7.91 11.21,11.91 12.11,12.4 4.09,2.24 13.11,3.48 21.2,-0.09 7.32,-3.24 9.31,-8.1 14.73,-8.82 2,-0.26 2.47,0 5.75,-0.12 0.67,0 1.33,0 2,-0.1 3.48,-0.22 6.15,-0.38 8.8,-0.57 3.1,-0.23 5.06,-0.31 6.78,-1.19 1.72,-0.88 3.27,-2.89 3.86,-2.9 1.9,0 8.09,-1.35 9.66,-5.84 a 6.19,6.19 0 0 0 -0.93,-5.85 7.51,7.51 0 0 0 -5.07,-2.12 32.33,32.33 0 0 0 -9.63,0.88 c -1.8,0.36 -3.81,0.73 -6.14,1.06 -5.08,0.74 -5.85,0.39 -13.76,1.25 -9,1 -10.41,1.59 -16.49,1.94 -18.03,1.02 -25.03,-2.63 -30.39,2.54 z"
     id="path52"
     style="fill:#ac7e5c" />
  <path
     class="cls-14"
     d="m 156.55999,40.589103 a 8.17,8.17 0 0 0 -2.63,7.17 c 0.79,7.55 10.6,11.65 11.52,12.17 4.39,2.46 13.4,3.66 21.48,0.24 7.63,-3.24 9.67,-8.3 15.43,-8.83 2.14,-0.19 2.54,0.21 6,0.13 0.69,0 1.38,0 2.07,0 3.6,-0.16 6.38,-0.37 9.1,-0.61 3.29,-0.29 5.29,-0.42 7,-1.38 1.71,-0.96 3.37,-3.19 3.9,-3.2 1.66,0 7.09,-1.45 8.42,-5.62 a 5.88,5.88 0 0 0 -0.89,-5.35 7.61,7.61 0 0 0 -5.1,-2.22 31.72,31.72 0 0 0 -9.75,0.74 c -1.85,0.35 -3.88,0.73 -6.21,1.07 -5.29,0.78 -5.74,0.36 -13.92,1.26 -9.46,1.05 -10.56,1.7 -16.67,2.06 -17.38,0.95 -24.27,-2.73 -29.75,2.37 z"
     id="path54"
     style="fill:#ad7f5c" />
  <path
     class="cls-15"
     d="m 156.69999,40.459103 a 7.93,7.93 0 0 0 -2.79,6.82 c 0.59,7.18 10,11.38 11,11.93 4.67,2.69 13.68,3.86 21.75,0.57 8.07,-3.29 10,-8.49 16.13,-8.82 2.26,-0.13 2.6,0.24 6.26,0.37 0.73,0 1.44,0 2.15,0 3.72,-0.1 6.63,-0.36 9.41,-0.64 3.48,-0.36 5.52,-0.54 7.22,-1.57 1.7,-1.03 3.48,-3.49 3.93,-3.5 1.42,0 6.09,-1.55 7.19,-5.4 a 5.57,5.57 0 0 0 -0.85,-4.85 7.72,7.72 0 0 0 -5.13,-2.33 31.27,31.27 0 0 0 -9.88,0.61 c -1.89,0.35 -3.95,0.73 -6.28,1.07 -5.49,0.82 -5.63,0.33 -14.08,1.29 -9.94,1.12 -10.69,1.8 -16.84,2.17 -16.85,0.97 -23.58,-2.73 -29.19,2.28 z"
     id="path56"
     style="fill:#af805d" />
  <path
     class="cls-16"
     d="m 156.83999,40.339103 a 7.65,7.65 0 0 0 -2.94,6.45 c 0.36,6.83 9.38,11.13 10.37,11.71 5,2.92 14,4.05 22,0.9 8.25,-3.22 10.41,-8.69 16.84,-8.83 2.37,-0.06 2.66,0.4 6.51,0.62 0.76,0 1.5,0 2.22,0 a 85.56,85.56 0 0 0 9.72,-0.67 c 3.67,-0.42 5.75,-0.65 7.43,-1.76 1.68,-1.11 3.6,-3.79 4,-3.8 1.19,0 5.1,-1.64 6,-5.19 a 5.23,5.23 0 0 0 -0.83,-4.34 7.73,7.73 0 0 0 -5.15,-2.43 30.84,30.84 0 0 0 -10,0.47 c -1.94,0.34 -4,0.72 -6.36,1.07 -5.69,0.86 -5.51,0.32 -14.23,1.31 -10.43,1.22 -10.84,1.92 -17,2.29 -16.26,0.98 -22.83,-2.73 -28.58,2.2 z"
     id="path58"
     style="fill:#b0815d" />
  <path
     class="cls-17"
     d="m 156.97999,40.209103 a 7.46,7.46 0 0 0 -3.09,6.1 c 0.14,6.47 8.77,10.86 9.78,11.47 5.25,3.16 14.26,4.26 22.3,1.24 8.56,-3.21 10.78,-8.89 17.54,-8.84 2.49,0 2.73,0.57 6.77,0.87 0.78,0.06 1.55,0.07 2.3,0.08 a 70.87,70.87 0 0 0 10,-0.71 c 3.85,-0.49 6,-0.77 7.65,-2 1.65,-1.23 3.71,-4.09 4,-4.1 0.95,0 4.11,-1.74 4.74,-5 a 5,5 0 0 0 -0.79,-3.84 c -1.12,-1.42 -2.85,-2.16 -5.18,-2.53 a 30.29,30.29 0 0 0 -10.13,0.34 c -2,0.32 -4.08,0.71 -6.43,1.06 -5.9,0.89 -5.39,0.3 -14.39,1.34 -10.91,1.29 -11,2 -17.19,2.4 -15.59,1.01 -22,-2.72 -27.88,2.12 z"
     id="path60"
     style="fill:#b1815d" />
  <path
     class="cls-18"
     d="m 157.11999,40.089103 c -3.11,2.45 -3.24,5 -3.25,5.74 -0.09,6.11 8.16,10.59 9.21,11.24 5.54,3.38 14.54,4.46 22.57,1.57 8.87,-3.2 11.15,-9.09 18.24,-8.85 2.61,0.08 2.79,0.73 7,1.12 0.81,0.07 1.6,0.1 2.37,0.12 a 60.63,60.63 0 0 0 10.33,-0.74 c 4,-0.55 6.2,-0.88 7.87,-2.14 1.84,-1.4 3.81,-4.39 4,-4.4 0.71,0 3.12,-1.83 3.5,-4.75 a 4.81,4.81 0 0 0 -0.75,-3.35 c -1.09,-1.46 -2.85,-2.21 -5.21,-2.63 a 30.26,30.26 0 0 0 -10.25,0.21 c -2,0.31 -4.16,0.71 -6.51,1.06 -6.1,0.93 -5.27,0.27 -14.54,1.36 -11.4,1.37 -11.13,2.14 -17.38,2.52 -14.94,0.91 -21.18,-2.84 -27.2,1.92 z"
     id="path62"
     style="fill:#b2825e" />
  <path
     class="cls-19"
     d="m 157.24999,39.969103 c -3.12,2.36 -3.35,4.74 -3.39,5.38 -0.35,5.75 7.55,10.33 8.63,11 5.82,3.62 14.82,4.67 22.84,1.91 9.18,-3.17 11.52,-9.3 18.94,-8.86 2.73,0.15 2.86,0.89 7.28,1.36 0.85,0.09 1.66,0.14 2.46,0.17 a 54.63,54.63 0 0 0 10.63,-0.76 c 4.23,-0.63 6.43,-1 8.09,-2.34 1.88,-1.52 3.92,-4.7 4.07,-4.7 0.47,0 2.14,-1.93 2.28,-4.53 a 4.77,4.77 0 0 0 -0.72,-2.85 c -1.06,-1.5 -2.84,-2.28 -5.24,-2.73 a 29.84,29.84 0 0 0 -10.38,0.07 c -2.07,0.3 -4.22,0.71 -6.58,1.06 -6.3,1 -5.15,0.24 -14.7,1.39 -11.88,1.44 -11.27,2.24 -17.55,2.63 -14.42,0.89 -20.49,-2.87 -26.66,1.8 z"
     id="path64"
     style="fill:#b4835e" />
  <path
     class="cls-20"
     d="m 157.38999,39.839103 c -3.13,2.27 -3.48,4.46 -3.55,5 -0.6,5.38 6.95,10.06 8.05,10.76 6.11,3.86 15.11,4.89 23.11,2.25 9.51,-3.14 11.9,-9.49 19.65,-8.87 2.85,0.22 2.93,1.06 7.54,1.61 0.87,0.11 1.71,0.17 2.53,0.22 a 50.89,50.89 0 0 0 10.94,-0.8 c 4.41,-0.7 6.65,-1.12 8.3,-2.53 a 32.56,32.56 0 0 0 4.11,-5 c 0.24,0 1.18,-2 1,-4.32 a 5,5 0 0 0 -0.68,-2.34 c -1,-1.56 -2.83,-2.34 -5.27,-2.83 a 29.67,29.67 0 0 0 -10.5,-0.07 c -2.12,0.3 -4.3,0.7 -6.66,1.07 -6.5,1 -5,0.21 -14.86,1.4 -12.36,1.52 -11.41,2.35 -17.72,2.75 -13.78,0.9 -19.68,-2.87 -25.99,1.7 z"
     id="path66"
     style="fill:#b5835e" />
  <path
     class="cls-21"
     d="m 153.82999,44.379103 c -0.9,5 6.33,9.81 7.47,10.54 6.39,4.1 15.39,5.1 23.38,2.57 9.82,-3.1 12.28,-9.68 20.36,-8.87 3,0.3 3,1.22 7.79,1.86 a 43.62,43.62 0 0 0 13.86,-0.57 c 4.59,-0.77 6.86,-1.24 8.51,-2.72 a 30.06,30.06 0 0 0 4.14,-5.3 c 0,0 0.41,-3.77 -0.83,-5.94 -0.93,-1.63 -2.82,-2.4 -5.29,-2.93 -6.23,-1.35 -11.22,-0.09 -17.36,0.86 -6.71,1 -4.92,0.18 -15,1.43 -12.85,1.59 -11.56,2.46 -17.9,2.86 -13.24,0.85 -19,-2.92 -25.42,1.55 -3.15,2.18 -3.62,4.18 -3.71,4.66 z"
     id="path68"
     style="fill:#b6845f" />
  <path
     class="cls-22"
     d="m 185.83999,77.649103 a 2.58,2.58 0 0 1 2.5,0 c 1.28,0.91 0.11,3.09 0.39,7.63 0.19,3.25 1,4.68 0.06,5.43 -0.94,0.75 -2.34,0.38 -3.34,-0.28 -3.5,-2.27 -2.98,-11.11 0.39,-12.78 z"
     id="path70"
     style="fill:#f46544" />
  <path
     class="cls-1"
     d="m 196.70999,76.719103 c -1.47,-0.38 -2.06,1.38 -4.52,1.53 -2.15,0.13 -2.91,-1.11 -3.85,-0.57 -0.94,0.54 -0.44,2.45 -0.58,7.44 -0.1,3.49 -0.47,4.73 0.39,5.34 a 3.09,3.09 0 0 0 3.65,-0.76 c 1.39,-1.66 -0.49,-4 0.89,-5.58 0.57,-0.63 0.81,-0.15 3.73,-1.29 1.18,-0.46 4.62,-2.05 3.47,-1.53 0,0 -1.11,-4.05 -3.18,-4.58 z"
     id="path72"
     style="fill:#5a4e51" />
  <path
     class="cls-23"
     d="m 158.33999,53.869103 4.87,1.53 a 30.45,30.45 0 0 0 7.94,1 44.6,44.6 0 0 0 10.93,-1 52.69,52.69 0 0 0 10.87,-3.8 l 2.88,-1.26 a 19.08,19.08 0 0 1 9.72,-0.56 c 5.41,0.91 10.71,1.63 16.2,0.77 a 34.8,34.8 0 0 0 7.77,-2.19 20.06,20.06 0 0 0 5.24,-3.06 16.8,16.8 0 0 0 4.38,-4.07 c 0.65,-0.68 -2.51,-1.2 -3,-0.77 a 27.73,27.73 0 0 1 -9.52,6 41.54,41.54 0 0 1 -7.61,1.82 c -4.81,0.7 -9.37,0.18 -14.17,-0.37 a 34.65,34.65 0 0 0 -5.93,-0.42 c -5,0.28 -9.25,2.44 -13.92,3.85 a 43.48,43.48 0 0 1 -13,1.91 l -5.22,-0.35 a 36.53,36.53 0 0 1 -9.62,-2.58 c -0.7,-0.24 -0.24,1 -0.19,1.12 0.24,0.55 0.72,2.21 1.38,2.43 z"
     id="path74"
     style="opacity:0.11;fill:#d59d68" />
  <path
     class="cls-23"
     d="m 156.51999,52.419103 a 27,27 0 0 0 7.45,2 30.8,30.8 0 0 0 8,0.63 53.35,53.35 0 0 0 10.88,-1.62 33.55,33.55 0 0 0 6.66,-2.48 q 2.13,-1 4.32,-1.91 a 20.35,20.35 0 0 1 9.72,-0.61 c 1.49,0.24 3,0.58 4.44,0.79 a 42.36,42.36 0 0 0 9.81,0.17 32.61,32.61 0 0 0 9.72,-2.35 l 3.59,-1.85 a 22.35,22.35 0 0 0 6,-5.19 c 0.68,-0.7 -2.73,-1.51 -3.21,-1.07 a 26.54,26.54 0 0 1 -9.39,6.08 37.22,37.22 0 0 1 -9.56,2 47.74,47.74 0 0 1 -6,0.19 l -6.22,-0.72 a 41.52,41.52 0 0 0 -5.79,-0.4 c -4.16,0.1 -7.8,1.7 -11.65,3.09 a 43.12,43.12 0 0 1 -15.51,2.54 l -5.27,-0.39 a 38.47,38.47 0 0 1 -9.73,-2.67 c -0.78,-0.27 0,1.2 0,1.22 0.32,0.65 1,2.31 1.74,2.55 z"
     id="path76"
     style="opacity:0.11;fill:#d59d68" />
  <path
     class="cls-23"
     d="m 157.20999,51.229103 c 4.3,1.19 5.7,1.71 10.23,2.06 a 47.37,47.37 0 0 0 16.5,-1.67 36.08,36.08 0 0 0 6.75,-2.6 c 1.44,-0.7 2.9,-1.38 4.38,-2 4.25,-1.48 7.12,-1 11.18,-0.21 6.15,1.11 12.4,1.35 18.46,-0.37 a 28.12,28.12 0 0 0 13.68,-8.79 c 0.48,-0.52 -0.27,-1.33 -0.63,-0.94 l -5.86,5.38 -3.57,1.9 c -5.52,2.66 -11.51,3 -17.37,2.44 -2.09,-0.2 -4.12,-0.56 -6.18,-0.94 -2.23,-0.41 -4.79,-0.88 -7,-0.4 -3.13,0.66 -5.89,2.38 -8.79,3.65 a 43.77,43.77 0 0 1 -13.36,3.38 23.53,23.53 0 0 1 -7.94,-0.1 26.73,26.73 0 0 1 -10.06,-1.66 c -0.61,-0.21 -1,0.71 -0.42,0.87 z"
     id="path78"
     style="opacity:0.11;fill:#d59d68" />
  <path
     class="cls-23"
     d="m 158.06999,51.579103 c 4.1,1.3 5.73,2 10,2.42 a 43.64,43.64 0 0 0 11.13,-0.27 45.64,45.64 0 0 0 12,-3.67 37.88,37.88 0 0 1 6.94,-2.68 13.27,13.27 0 0 1 4.31,-0.1 c 2.35,0.2 4.63,0.73 7,1.11 a 37.47,37.47 0 0 0 11.77,0 32,32 0 0 0 8,-2.25 l 3.58,-1.86 a 22.11,22.11 0 0 0 5.88,-5.24 c 0.38,-0.41 -2.65,-1.41 -2.58,-1.39 -0.53,-0.18 -2.29,-1.08 -2.88,-0.53 a 28.81,28.81 0 0 1 -5.38,4.13 c -5.08,2.93 -10.72,3.41 -16.32,3.52 a 33.32,33.32 0 0 1 -7.4,-0.44 29.28,29.28 0 0 0 -7.28,-0.63 28.55,28.55 0 0 0 -8.46,2 53.46,53.46 0 0 1 -9.86,2.92 c -7.65,1.32 -14,0.56 -21.92,-2.19 -0.82,-0.28 -0.18,1.34 -0.13,1.5 0.28,0.83 0.58,1.65 0.91,2.46 a 2.87,2.87 0 0 0 0.69,1.19 z"
     id="path80"
     style="opacity:0.11;fill:#d59d68" />
  <path
     class="cls-23"
     d="m 158.48999,50.769103 c 4.55,1.34 5.53,1.87 10.32,2.3 a 43.83,43.83 0 0 0 16.43,-1.62 82.27,82.27 0 0 0 9.56,-4 15.3,15.3 0 0 1 7,-1.72 27.46,27.46 0 0 1 4.23,0.52 c 5.31,0.94 10.67,1.75 16.06,0.78 a 29.3,29.3 0 0 0 11.34,-4.19 31.57,31.57 0 0 0 5.91,-5.41 c 0.61,-0.68 -0.9,-1.51 -1.22,-1.15 l -5.55,5.28 -3.47,1.9 a 29.74,29.74 0 0 1 -7.55,2.26 l -7.61,0.37 -3.86,-0.38 c -2.41,-0.36 -4.77,-0.94 -7.2,-1.17 a 15.27,15.27 0 0 0 -8.77,1.68 38.37,38.37 0 0 1 -7.87,2.93 20.22,20.22 0 0 1 -9.24,2.55 44.84,44.84 0 0 1 -18.11,-2 c -0.68,-0.19 -0.94,0.95 -0.4,1.07 z"
     id="path82"
     style="opacity:0.11;fill:#d59d68" />
  <path
     class="cls-23"
     d="m 155.77999,52.499103 a 38.64,38.64 0 0 0 10.18,2.35 l 5.48,0.14 c 1.74,0 4,-0.29 5.72,-0.53 a 34.16,34.16 0 0 0 8.1,-2.18 49.12,49.12 0 0 0 8.34,-3.59 16.11,16.11 0 0 1 8.59,-0.76 80.06,80.06 0 0 0 9.38,1.4 31.32,31.32 0 0 0 17.6,-3.66 c 0.63,-0.33 1.26,-0.66 1.89,-1 a 24,24 0 0 0 6,-5.46 c 0.48,-0.52 -0.33,-1.18 -0.72,-0.77 l -2.7,2.9 -10.53,5.65 a 31,31 0 0 1 -9.84,1.25 45.74,45.74 0 0 1 -7.2,-0.62 43.17,43.17 0 0 0 -7,-1 16,16 0 0 0 -5.76,1.07 c -1,0.38 -2,0.9 -3,1.34 l -2.87,1.34 a 28.07,28.07 0 0 1 -13.32,2.56 21.21,21.21 0 0 1 -10.72,0.3 29.68,29.68 0 0 1 -7.55,-2 c -0.85,-0.26 -0.62,1.09 -0.07,1.27 z"
     id="path84"
     style="opacity:0.11;fill:#d59d68" />
  <path
     class="cls-23"
     d="m 157.28999,54.239103 a 27.46,27.46 0 0 0 7.48,2 31.15,31.15 0 0 0 8.07,0.62 47.93,47.93 0 0 0 13.62,-2.53 27.68,27.68 0 0 0 5.58,-2.3 l 5.65,-2 c 2.71,-0.58 5.75,0 8.42,0.46 a 43.46,43.46 0 0 0 14.7,0.47 32,32 0 0 0 7.82,-2.19 l 3.64,-1.86 a 23.27,23.27 0 0 0 6.1,-5.3 c 0.61,-0.63 -1.37,-0.87 -1.77,-0.51 l -2.82,2.6 -18.51,6.08 a 41.89,41.89 0 0 1 -8,-0.33 c -4.26,-0.61 -8.17,-1.41 -12.46,-0.27 a 52,52 0 0 0 -6,2.15 46.93,46.93 0 0 1 -20.15,3.14 21.11,21.11 0 0 1 -5.19,-0.67 28.31,28.31 0 0 1 -7.24,-2.09 c -0.63,-0.21 -0.2,0.84 -0.17,0.93 0.17,0.5 0.66,1.42 1.23,1.6 z"
     id="path86"
     style="opacity:0.11;fill:#d59d68" />
  <path
     class="cls-23"
     d="m 159.24999,51.649103 a 50,50 0 0 0 10,2.41 45.11,45.11 0 0 0 11.14,-0.3 33.3,33.3 0 0 0 8,-2.1 28.94,28.94 0 0 0 5.51,-2.31 c 4.15,-1.81 6.94,-2.6 11.25,-2 3.14,0.44 6.16,1.27 9.37,1.37 a 39.06,39.06 0 0 0 11.84,-1.21 30.66,30.66 0 0 0 3.94,-1.38 17.89,17.89 0 0 0 3.71,-1.92 22.23,22.23 0 0 0 5.9,-5.29 c 0.2,-0.21 -3.53,-2.52 -4.31,-1.74 a 29.24,29.24 0 0 1 -5.34,4.39 c -5,3.1 -10.73,3.71 -16.35,3.8 a 30,30 0 0 1 -7.4,-0.51 27.23,27.23 0 0 0 -7.24,-0.76 24.17,24.17 0 0 0 -8.45,2.2 51.33,51.33 0 0 1 -9.94,3.31 20.74,20.74 0 0 1 -10,0.17 22.75,22.75 0 0 1 -12.1,-1.9 c -0.94,-0.31 -0.17,3.54 0.47,3.77 z"
     id="path88"
     style="opacity:0.11;fill:#d59d68" />
  <path
     class="cls-23"
     d="m 156.25999,51.369103 a 50.63,50.63 0 0 0 10.09,2.43 45.33,45.33 0 0 0 11.23,-0.3 53,53 0 0 0 13.71,-4.45 12.69,12.69 0 0 1 7.1,-2.24 13.6,13.6 0 0 1 4.22,0.18 84.12,84.12 0 0 0 9.36,1.38 36.92,36.92 0 0 0 8.07,-0.4 34.61,34.61 0 0 0 5.88,-1.55 22.79,22.79 0 0 0 5.57,-2.6 23.33,23.33 0 0 0 6,-5.38 c 0.58,-0.63 -0.85,-1.29 -1.22,-0.9 a 33,33 0 0 1 -5.83,5.17 19.24,19.24 0 0 1 -9.32,3.09 17,17 0 0 1 -7.7,1.24 48,48 0 0 1 -7.18,-0.63 40.2,40.2 0 0 0 -7.06,-1 21.85,21.85 0 0 0 -8.8,2.4 52,52 0 0 1 -10.75,3.65 c -8,1.67 -15,1 -23.36,-1.64 -1,-0.27 -0.55,1.38 -0.01,1.55 z"
     id="path90"
     style="opacity:0.11;fill:#d59d68" />
  <path
     class="cls-23"
     d="m 157.49999,50.479103 a 37.29,37.29 0 0 0 10,2.41 l 5.43,0.18 a 44.29,44.29 0 0 0 10.89,-1.64 c 1.78,-0.53 3.69,-1.23 5.42,-1.9 4,-1.52 7,-3.73 11.32,-3.6 2.84,0.09 5.54,0.86 8.34,1.25 a 39.23,39.23 0 0 0 11.8,0 32.47,32.47 0 0 0 9.53,-3.1 16.35,16.35 0 0 0 2,-1 22.78,22.78 0 0 0 5.89,-5.27 c 0.29,-0.3 -2.75,-2.18 -3.41,-1.49 -5.74,6 -12.13,8.23 -20,8.62 a 51.93,51.93 0 0 1 -8.08,-0.24 28.17,28.17 0 0 0 -5.54,-1 21.52,21.52 0 0 0 -5.89,0.12 25,25 0 0 0 -5.42,1.93 43.07,43.07 0 0 1 -23.35,4.13 37.5,37.5 0 0 1 -9.7,-2.53 c -0.83,-0.28 0.11,2.92 0.77,3.13 z"
     id="path92"
     style="opacity:0.11;fill:#d59d68" />
  <path
     class="cls-23"
     d="m 159.02999,52.769103 a 36.61,36.61 0 0 0 10.05,2.41 c 0.95,0.08 1.89,0.11 2.84,0.1 a 44,44 0 0 0 11,-1 32.87,32.87 0 0 0 7.92,-2.44 q 2.73,-1.38 5.56,-2.57 a 18.37,18.37 0 0 1 8.62,-0.79 c 3.19,0.41 6.13,1.22 9.38,1.38 a 39.68,39.68 0 0 0 11.87,-1.21 29.87,29.87 0 0 0 7.43,-3.22 c 2.83,-1.66 3.91,-3 6.1,-5.43 0.33,-0.34 -1.4,-0.82 -1.55,-0.86 -0.47,-0.15 -2.18,-0.87 -2.62,-0.46 -6,5.58 -12.42,7.56 -20.22,8 a 52.18,52.18 0 0 1 -8.1,-0.15 28.09,28.09 0 0 0 -5.53,-0.88 25,25 0 0 0 -11.22,1.92 59.43,59.43 0 0 1 -7.7,2.68 38.67,38.67 0 0 1 -24.65,-1.6 c -0.72,-0.25 -0.36,1 -0.3,1.2 0.12,0.52 0.48,2.72 1.12,2.92 z"
     id="path94"
     style="opacity:0.11;fill:#d59d68" />
  <path
     class="cls-23"
     d="m 155.77999,53.069103 c 4.11,1.3 6,2 10.34,2.47 a 49.21,49.21 0 0 0 10.85,-0.25 45.36,45.36 0 0 0 11.05,-3.06 c 3.4,-1.37 6.39,-3.38 10.14,-3.59 3.75,-0.21 7.71,1 11.57,1.4 a 38.08,38.08 0 0 0 11.81,-0.6 30.56,30.56 0 0 0 7.83,-2.83 c 0.65,-0.32 1.29,-0.65 1.92,-1 a 23.7,23.7 0 0 0 6,-5.45 c 0.51,-0.55 -0.51,-1.15 -0.9,-0.75 l -2.73,2.86 a 26.07,26.07 0 0 1 -12.75,6 37.47,37.47 0 0 1 -8,0.78 c -4.31,0 -8.38,-1 -12.62,-1.45 a 14.4,14.4 0 0 0 -5.62,0.47 40.75,40.75 0 0 0 -4.59,1.75 65.67,65.67 0 0 1 -8.29,3 38.07,38.07 0 0 1 -18.93,0.67 29.16,29.16 0 0 1 -7.42,-2.07 c -1.03,-0.34 -0.23,1.47 0.34,1.65 z"
     id="path96"
     style="opacity:0.11;fill:#d59d68" />
  <line
     class="cls-24"
     x1="230.11998"
     y1="185.18909"
     x2="249.09999"
     y2="244.7491"
     id="line98"
     style="fill:none;stroke:#5a4e51;stroke-width:9.58px;stroke-miterlimit:10" />
  <path
     class="cls-2"
     d="m 232.44999,195.8391 c 5.37,17.26 11.23,34.4 16.36,51.74 0.21,0.69 0.89,-0.43 0.93,-0.5 0.32,-0.58 1,-1.62 0.81,-2.32 -0.55,-2.43 -1.29,-4.76 -2,-7.12 -2,-6.16 -3.91,-12.33 -5.88,-18.49 -2.73,-8.51 -5.42,-17 -7.93,-25.59 -0.31,-0.91 -2.49,1.64 -2.29,2.28 z"
     id="path100"
     style="opacity:0.11;fill:#999797" />
  <path
     class="cls-2"
     d="m 230.92999,194.3291 c 5.36,17.28 11.17,34.43 16.36,51.77 0.28,0.92 1,-1.25 0.94,-1.06 0.32,-1 0.95,-2.54 0.72,-3.62 a 74.91,74.91 0 0 0 -2,-7.21 c -2,-6.15 -3.9,-12.34 -5.88,-18.5 -2.74,-8.52 -5.4,-17 -7.8,-25.66 -0.25,-0.88 -1.1,0.92 -1.08,0.88 -0.41,0.72 -1.53,2.53 -1.26,3.4 z"
     id="path102"
     style="opacity:0.11;fill:#999797" />
  <path
     class="cls-2"
     d="m 230.53999,192.7291 q 8.31,25.92 16.53,51.85 c 0.25,0.75 1.17,-0.11 1,-0.69 q -8.29,-25.92 -16.55,-51.84 c -0.24,-0.76 -1.17,0.1 -0.98,0.68 z"
     id="path104"
     style="opacity:0.11;fill:#999797" />
  <path
     class="cls-2"
     d="m 232.70999,193.5091 c 5.31,17.28 11.21,34.4 16.32,51.74 0.26,0.88 1.09,-1 1.07,-0.93 0.39,-0.84 1.39,-2.52 1.18,-3.5 -0.53,-2.45 -1.27,-4.79 -2,-7.18 -2,-6.15 -3.9,-12.34 -5.88,-18.49 -2.73,-8.51 -5.4,-17 -7.83,-25.62 -0.23,-0.83 -1.13,0.67 -1.18,0.75 -0.42,0.57 -1.93,2.45 -1.68,3.23 z"
     id="path106"
     style="opacity:0.11;fill:#999797" />
  <path
     class="cls-2"
     d="m 231.77999,192.8491 c 5.95,17 11.21,34.31 16.7,51.5 0.21,0.68 1.18,0.14 1,-0.45 -5.48,-17.15 -10.61,-34.46 -16.75,-51.39 a 0.51,0.51 0 0 0 -0.95,0.34 z"
     id="path108"
     style="opacity:0.11;fill:#999797" />
  <path
     class="cls-2"
     d="m 229.51999,193.8291 c 5.37,17.25 11.24,34.36 16.36,51.69 0.13,0.45 0.48,0.28 0.71,0.07 0.23,-0.21 0.29,-1.62 0.19,-2 -2.27,-8.66 -5.31,-17.15 -8,-25.67 -2.69,-8.52 -5.47,-17.1 -8.07,-25.7 -0.38,-1.15 -1.36,1.05 -1.19,1.61 z"
     id="path110"
     style="opacity:0.11;fill:#999797" />
  <path
     class="cls-2"
     d="m 231.24999,196.0891 c 5.37,17.28 11.18,34.43 16.37,51.76 0.21,0.72 0.86,-0.61 0.85,-0.6 a 4.17,4.17 0 0 0 0.51,-2.36 c -0.54,-2.43 -1.28,-4.75 -2,-7.12 -2,-6.15 -3.91,-12.33 -5.88,-18.49 -2.73,-8.5 -5.41,-17 -7.89,-25.58 -0.28,-0.82 -2.17,1.72 -1.96,2.39 z"
     id="path112"
     style="opacity:0.11;fill:#999797" />
  <path
     class="cls-2"
     d="m 233.52999,193.7191 c 2.61,8.66 5.37,17.27 8.12,25.88 2.75,8.61 5.64,17.15 8.14,25.82 0.18,0.64 0.82,-0.32 0.87,-0.4 a 3.22,3.22 0 0 0 0.63,-2 c -0.56,-2.41 -1.3,-4.74 -2.06,-7.1 -2,-6.15 -3.91,-12.33 -5.88,-18.49 -2.74,-8.55 -5.49,-17.08 -7.9,-25.73 -0.25,-0.88 -2.11,1.4 -1.92,2.02 z"
     id="path114"
     style="opacity:0.11;fill:#999797" />
  <path
     class="cls-2"
     d="m 230.12999,192.9091 q 4.08,12.9 8.2,25.79 c 2.75,8.6 5.64,17.18 8.17,25.85 0.13,0.46 0.44,0.32 0.7,0.11 a 3.45,3.45 0 0 0 0.31,-2 c -2.26,-8.67 -5.32,-17.17 -8,-25.7 -2.68,-8.53 -5.48,-17.11 -8.08,-25.71 -0.42,-1.28 -1.47,1.11 -1.3,1.66 z"
     id="path116"
     style="opacity:0.11;fill:#999797" />
  <path
     class="cls-2"
     d="m 231.77999,192.4491 c 5.35,17.26 11.28,34.36 16.34,51.71 0.21,0.74 0.85,-0.67 0.84,-0.64 a 4.56,4.56 0 0 0 0.46,-2.45 c -0.58,-2.45 -1.32,-4.81 -2.1,-7.21 -2,-6.16 -3.91,-12.34 -5.88,-18.5 -2.74,-8.56 -5.47,-17.1 -8,-25.74 -0.2,-0.7 -0.88,0.46 -0.92,0.51 -0.26,0.52 -0.92,1.68 -0.74,2.32 z"
     id="path118"
     style="opacity:0.11;fill:#999797" />
  <path
     class="cls-2"
     d="m 233.28999,194.8491 c 5.37,17.23 11.27,34.34 16.33,51.67 0.21,0.69 0.89,-0.41 0.94,-0.48 0.34,-0.53 1,-1.62 0.85,-2.29 -0.55,-2.42 -1.29,-4.74 -2.05,-7.1 -2,-6.15 -3.91,-12.33 -5.88,-18.49 -2.73,-8.5 -5.42,-17 -7.94,-25.56 -0.27,-0.9 -2.45,1.62 -2.25,2.25 z"
     id="path120"
     style="opacity:0.11;fill:#999797" />
  <path
     class="cls-2"
     d="m 229.86999,194.7591 c 5.37,17.18 11.2,34.24 16.3,51.51 0.16,0.56 0.39,0.38 0.7,0.11 a 4.57,4.57 0 0 0 0.4,-2.57 c -2.05,-8.16 -4.95,-16.16 -7.49,-24.16 -2.93,-9.18 -5.86,-18.34 -8.59,-27.59 -0.2,-0.68 -0.83,0.51 -0.83,0.53 a 3.48,3.48 0 0 0 -0.49,2.17 z"
     id="path122"
     style="opacity:0.11;fill:#999797" />
  <path
     class="cls-25"
     d="m 222.55999,180.0191 c 0,0 -0.52,1.91 -1.17,3.61 -0.9,2.38 -1.79,3.65 -1.39,4 0.17,0.13 0.48,0 0.54,0 0.72,-0.26 0.57,-1.37 1,-1.83 1,-1.21 5.71,2.24 12.07,3.66 3.66,0.82 7.23,0.82 7.59,2.33 0.19,0.84 -0.67,1.85 -0.22,2.24 0.29,0.24 0.95,0.09 1.38,-0.21 0.79,-0.55 0.61,-1.48 0.87,-3.24 0.42,-2.84 1.44,-4.18 0.74,-4.78 a 1.32,1.32 0 0 0 -1,-0.2 c -1.76,0.17 -3.29,-0.71 -8,-2.23 -6.29,-2 -12.4,-3.31 -12.4,-3.31 z"
     id="path124"
     style="fill:#0b0809" />
  <ellipse
     class="cls-26"
     cx="105.66"
     cy="239.7491"
     rx="94.459999"
     ry="93.669998"
     id="ellipse126"
     style="fill:none;stroke:#81c452;stroke-width:4.79px;stroke-miterlimit:10" />
  <ellipse
     class="cls-26"
     cx="455.07999"
     cy="238.25908"
     rx="94.459999"
     ry="93.669998"
     id="ellipse128"
     style="fill:none;stroke:#81c452;stroke-width:4.79px;stroke-miterlimit:10" />
  <line
     class="cls-27"
     x1="76.839996"
     y1="148.35912"
     x2="106.64"
     y2="245.4991"
     id="line130"
     style="fill:none;stroke:#723935;stroke-width:0.6px;stroke-miterlimit:10" />
  <line
     class="cls-27"
     x1="35.309994"
     y1="307.80911"
     x2="101.50999"
     y2="245.4991"
     id="line132"
     style="fill:none;stroke:#723935;stroke-width:0.6px;stroke-miterlimit:10" />
  <line
     class="cls-27"
     x1="24.309994"
     y1="297.49911"
     x2="106.64"
     y2="245.4991"
     id="line134"
     style="fill:none;stroke:#723935;stroke-width:0.6px;stroke-miterlimit:10" />
  <line
     class="cls-27"
     x1="4.6799965"
     y1="250.47908"
     x2="106.64"
     y2="245.4991"
     id="line136"
     style="fill:none;stroke:#723935;stroke-width:0.6px;stroke-miterlimit:10" />
  <line
     class="cls-27"
     x1="192.30998"
     y1="198.22908"
     x2="102.55"
     y2="239.38908"
     id="line138"
     style="fill:none;stroke:#723935;stroke-width:0.6px;stroke-miterlimit:10" />
  <line
     class="cls-27"
     x1="171.53"
     y1="171.86911"
     x2="101.50999"
     y2="245.4991"
     id="line140"
     style="fill:none;stroke:#723935;stroke-width:0.6px;stroke-miterlimit:10" />
  <line
     class="cls-27"
     x1="200.96999"
     y1="247.98909"
     x2="101.50999"
     y2="245.4991"
     id="line142"
     style="fill:none;stroke:#723935;stroke-width:0.6px;stroke-miterlimit:10" />
  <line
     class="cls-27"
     x1="195.77998"
     y1="213.3391"
     x2="98.229996"
     y2="247.6891"
     id="line144"
     style="fill:none;stroke:#723935;stroke-width:0.6px;stroke-miterlimit:10" />
  <line
     class="cls-27"
     x1="173.25999"
     y1="308.37912"
     x2="101.50999"
     y2="245.4991"
     id="line146"
     style="fill:none;stroke:#723935;stroke-width:0.6px;stroke-miterlimit:10" />
  <line
     class="cls-27"
     x1="159.98"
     y1="318.83911"
     x2="99.169998"
     y2="231.92909"
     id="line148"
     style="fill:none;stroke:#723935;stroke-width:0.6px;stroke-miterlimit:10" />
  <line
     class="cls-27"
     x1="147.00999"
     y1="328.98911"
     x2="108.63"
     y2="238.9391"
     id="line150"
     style="fill:none;stroke:#723935;stroke-width:0.6px;stroke-miterlimit:10" />
  <line
     class="cls-27"
     x1="127.81999"
     y1="332.61911"
     x2="99.169998"
     y2="231.92909"
     id="line152"
     style="fill:none;stroke:#723935;stroke-width:0.6px;stroke-miterlimit:10" />
  <line
     class="cls-27"
     x1="184.80998"
     y1="297.49911"
     x2="98.080002"
     y2="244.32909"
     id="line154"
     style="fill:none;stroke:#723935;stroke-width:0.6px;stroke-miterlimit:10" />
  <line
     class="cls-27"
     x1="192.88998"
     y1="281.08911"
     x2="103.98"
     y2="235.66908"
     id="line156"
     style="fill:none;stroke:#723935;stroke-width:0.6px;stroke-miterlimit:10" />
  <line
     class="cls-27"
     x1="197.50998"
     y1="266.8891"
     x2="102.55"
     y2="239.38908"
     id="line158"
     style="fill:none;stroke:#723935;stroke-width:0.6px;stroke-miterlimit:10" />
  <line
     class="cls-27"
     x1="93.289993"
     y1="142.91911"
     x2="106.06999"
     y2="248.89909"
     id="line160"
     style="fill:none;stroke:#723935;stroke-width:0.6px;stroke-miterlimit:10" />
  <line
     class="cls-27"
     x1="130.75"
     y1="148.35912"
     x2="106.06999"
     y2="248.89909"
     id="line162"
     style="fill:none;stroke:#723935;stroke-width:0.6px;stroke-miterlimit:10" />
  <line
     class="cls-27"
     x1="182.49998"
     y1="185.3591"
     x2="106.64"
     y2="245.4991"
     id="line164"
     style="fill:none;stroke:#723935;stroke-width:0.6px;stroke-miterlimit:10" />
  <line
     class="cls-27"
     x1="17.379993"
     y1="280.89911"
     x2="99.919998"
     y2="236.9091"
     id="line166"
     style="fill:none;stroke:#723935;stroke-width:0.6px;stroke-miterlimit:10" />
  <line
     class="cls-27"
     x1="8.1399956"
     y1="265.43912"
     x2="102.55"
     y2="239.38908"
     id="line168"
     style="fill:none;stroke:#723935;stroke-width:0.6px;stroke-miterlimit:10" />
  <line
     class="cls-27"
     x1="47.979992"
     y1="318.83911"
     x2="102.55"
     y2="239.38908"
     id="line170"
     style="fill:none;stroke:#723935;stroke-width:0.6px;stroke-miterlimit:10" />
  <line
     class="cls-27"
     x1="11.599995"
     y1="216.20909"
     x2="106.06999"
     y2="248.89909"
     id="line172"
     style="fill:none;stroke:#723935;stroke-width:0.6px;stroke-miterlimit:10" />
  <line
     class="cls-27"
     x1="110.35001"
     y1="142.34911"
     x2="106.64"
     y2="245.4991"
     id="line174"
     style="fill:none;stroke:#723935;stroke-width:0.6px;stroke-miterlimit:10" />
  <line
     class="cls-27"
     x1="144.97"
     y1="154.60912"
     x2="93.289993"
     y2="241.8391"
     id="line176"
     style="fill:none;stroke:#723935;stroke-width:0.6px;stroke-miterlimit:10" />
  <line
     class="cls-27"
     x1="33.149998"
     y1="173.66911"
     x2="106.06999"
     y2="242.72908"
     id="line178"
     style="fill:none;stroke:#723935;stroke-width:0.6px;stroke-miterlimit:10" />
  <line
     class="cls-27"
     x1="4.6799965"
     y1="233.3391"
     x2="106.06999"
     y2="248.89909"
     id="line180"
     style="fill:none;stroke:#723935;stroke-width:0.6px;stroke-miterlimit:10" />
  <line
     class="cls-27"
     x1="20.839993"
     y1="185.3591"
     x2="106.06999"
     y2="248.89909"
     id="line182"
     style="fill:none;stroke:#723935;stroke-width:0.6px;stroke-miterlimit:10" />
  <line
     class="cls-27"
     x1="12.759995"
     y1="201.34911"
     x2="108.63"
     y2="238.9391"
     id="line184"
     style="fill:none;stroke:#723935;stroke-width:0.6px;stroke-miterlimit:10" />
  <line
     class="cls-27"
     x1="11.599995"
     y1="216.20909"
     x2="102.55"
     y2="239.38908"
     id="line186"
     style="fill:none;stroke:#723935;stroke-width:0.6px;stroke-miterlimit:10" />
  <line
     class="cls-27"
     x1="44.599995"
     y1="161.81911"
     x2="106.06999"
     y2="248.89909"
     id="line188"
     style="fill:none;stroke:#723935;stroke-width:0.6px;stroke-miterlimit:10" />
  <line
     class="cls-27"
     x1="159.98"
     y1="164.10912"
     x2="101.50999"
     y2="245.4991"
     id="line190"
     style="fill:none;stroke:#723935;stroke-width:0.6px;stroke-miterlimit:10" />
  <line
     class="cls-27"
     x1="113.37"
     y1="338.1991"
     x2="99.919998"
     y2="241.11909"
     id="line192"
     style="fill:none;stroke:#723935;stroke-width:0.6px;stroke-miterlimit:10" />
  <line
     class="cls-27"
     x1="79.149994"
     y1="332.75909"
     x2="108.63"
     y2="238.9391"
     id="line194"
     style="fill:none;stroke:#723935;stroke-width:0.6px;stroke-miterlimit:10" />
  <line
     class="cls-27"
     x1="60.699993"
     y1="328.7991"
     x2="102.92999"
     y2="233.3791"
     id="line196"
     style="fill:none;stroke:#723935;stroke-width:0.6px;stroke-miterlimit:10" />
  <line
     class="cls-27"
     x1="202.49998"
     y1="231.92909"
     x2="98.229996"
     y2="247.6891"
     id="line198"
     style="fill:none;stroke:#723935;stroke-width:0.6px;stroke-miterlimit:10" />
  <line
     class="cls-27"
     x1="429.78"
     y1="146.80911"
     x2="459.57999"
     y2="243.94908"
     id="line200"
     style="fill:none;stroke:#723935;stroke-width:0.6px;stroke-miterlimit:10" />
  <line
     class="cls-27"
     x1="388.23999"
     y1="306.25909"
     x2="454.45001"
     y2="243.94908"
     id="line202"
     style="fill:none;stroke:#723935;stroke-width:0.6px;stroke-miterlimit:10" />
  <line
     class="cls-27"
     x1="377.23999"
     y1="295.9491"
     x2="459.57999"
     y2="243.94908"
     id="line204"
     style="fill:none;stroke:#723935;stroke-width:0.6px;stroke-miterlimit:10" />
  <line
     class="cls-27"
     x1="357.60999"
     y1="248.92909"
     x2="459.57999"
     y2="243.94908"
     id="line206"
     style="fill:none;stroke:#723935;stroke-width:0.6px;stroke-miterlimit:10" />
  <line
     class="cls-27"
     x1="545.24994"
     y1="196.67909"
     x2="455.48001"
     y2="237.8391"
     id="line208"
     style="fill:none;stroke:#723935;stroke-width:0.6px;stroke-miterlimit:10" />
  <line
     class="cls-27"
     x1="524.46997"
     y1="170.31911"
     x2="454.45001"
     y2="243.94908"
     id="line210"
     style="fill:none;stroke:#723935;stroke-width:0.6px;stroke-miterlimit:10" />
  <line
     class="cls-27"
     x1="553.90997"
     y1="246.4391"
     x2="454.45001"
     y2="243.94908"
     id="line212"
     style="fill:none;stroke:#723935;stroke-width:0.6px;stroke-miterlimit:10" />
  <line
     class="cls-27"
     x1="548.71997"
     y1="211.78911"
     x2="451.17001"
     y2="246.13908"
     id="line214"
     style="fill:none;stroke:#723935;stroke-width:0.6px;stroke-miterlimit:10" />
  <line
     class="cls-27"
     x1="526.19995"
     y1="306.8291"
     x2="454.45001"
     y2="243.94908"
     id="line216"
     style="fill:none;stroke:#723935;stroke-width:0.6px;stroke-miterlimit:10" />
  <path
     class="cls-27"
     d="m 512.91999,317.2891 -57.44,-79.45"
     id="path218"
     style="fill:none;stroke:#723935;stroke-width:0.6px;stroke-miterlimit:10" />
  <line
     class="cls-27"
     x1="499.93997"
     y1="327.43912"
     x2="461.57001"
     y2="237.38908"
     id="line220"
     style="fill:none;stroke:#723935;stroke-width:0.6px;stroke-miterlimit:10" />
  <line
     class="cls-27"
     x1="537.74994"
     y1="295.9491"
     x2="451.01999"
     y2="242.7791"
     id="line222"
     style="fill:none;stroke:#723935;stroke-width:0.6px;stroke-miterlimit:10" />
  <line
     class="cls-27"
     x1="545.82996"
     y1="279.53912"
     x2="456.92001"
     y2="234.11909"
     id="line224"
     style="fill:none;stroke:#723935;stroke-width:0.6px;stroke-miterlimit:10" />
  <line
     class="cls-27"
     x1="550.44995"
     y1="265.33911"
     x2="455.48001"
     y2="237.8391"
     id="line226"
     style="fill:none;stroke:#723935;stroke-width:0.6px;stroke-miterlimit:10" />
  <line
     class="cls-27"
     x1="446.23001"
     y1="141.36911"
     x2="459.01001"
     y2="247.34911"
     id="line228"
     style="fill:none;stroke:#723935;stroke-width:0.6px;stroke-miterlimit:10" />
  <line
     class="cls-27"
     x1="483.68997"
     y1="146.80911"
     x2="459.01001"
     y2="247.34911"
     id="line230"
     style="fill:none;stroke:#723935;stroke-width:0.6px;stroke-miterlimit:10" />
  <line
     class="cls-27"
     x1="535.43994"
     y1="183.8091"
     x2="459.57999"
     y2="243.94908"
     id="line232"
     style="fill:none;stroke:#723935;stroke-width:0.6px;stroke-miterlimit:10" />
  <line
     class="cls-27"
     x1="370.31"
     y1="279.34912"
     x2="452.85999"
     y2="235.35909"
     id="line234"
     style="fill:none;stroke:#723935;stroke-width:0.6px;stroke-miterlimit:10" />
  <line
     class="cls-27"
     x1="361.07999"
     y1="263.8891"
     x2="455.48001"
     y2="237.8391"
     id="line236"
     style="fill:none;stroke:#723935;stroke-width:0.6px;stroke-miterlimit:10" />
  <line
     class="cls-27"
     x1="400.91"
     y1="317.28912"
     x2="455.48001"
     y2="237.8391"
     id="line238"
     style="fill:none;stroke:#723935;stroke-width:0.6px;stroke-miterlimit:10" />
  <line
     class="cls-27"
     x1="364.54001"
     y1="214.6591"
     x2="459.01001"
     y2="247.34911"
     id="line240"
     style="fill:none;stroke:#723935;stroke-width:0.6px;stroke-miterlimit:10" />
  <line
     class="cls-27"
     x1="463.29001"
     y1="140.7991"
     x2="459.57999"
     y2="243.94908"
     id="line242"
     style="fill:none;stroke:#723935;stroke-width:0.6px;stroke-miterlimit:10" />
  <path
     class="cls-27"
     d="m 497.90999,153.0591 -43,88.44 c -0.37,-1.34 -0.55,-2 -0.53,-2 0.02,0 8.89,30.49 26.4,91.58"
     id="path244"
     style="fill:none;stroke:#723935;stroke-width:0.6px;stroke-miterlimit:10" />
  <line
     class="cls-27"
     x1="386.07999"
     y1="172.11911"
     x2="459.01001"
     y2="241.17909"
     id="line246"
     style="fill:none;stroke:#723935;stroke-width:0.6px;stroke-miterlimit:10" />
  <line
     class="cls-27"
     x1="357.60999"
     y1="231.78911"
     x2="459.01001"
     y2="247.34911"
     id="line248"
     style="fill:none;stroke:#723935;stroke-width:0.6px;stroke-miterlimit:10" />
  <line
     class="cls-27"
     x1="373.78"
     y1="183.8091"
     x2="459.01001"
     y2="247.34911"
     id="line250"
     style="fill:none;stroke:#723935;stroke-width:0.6px;stroke-miterlimit:10" />
  <line
     class="cls-27"
     x1="365.70001"
     y1="199.79909"
     x2="461.57001"
     y2="237.38908"
     id="line252"
     style="fill:none;stroke:#723935;stroke-width:0.6px;stroke-miterlimit:10" />
  <line
     class="cls-27"
     x1="364.54001"
     y1="214.6591"
     x2="455.48001"
     y2="237.8391"
     id="line254"
     style="fill:none;stroke:#723935;stroke-width:0.6px;stroke-miterlimit:10" />
  <line
     class="cls-27"
     x1="397.54001"
     y1="160.2691"
     x2="459.01001"
     y2="247.34911"
     id="line256"
     style="fill:none;stroke:#723935;stroke-width:0.6px;stroke-miterlimit:10" />
  <line
     class="cls-27"
     x1="512.91998"
     y1="162.55911"
     x2="454.45001"
     y2="243.94908"
     id="line258"
     style="fill:none;stroke:#723935;stroke-width:0.6px;stroke-miterlimit:10" />
  <line
     class="cls-27"
     x1="466.29999"
     y1="336.64911"
     x2="452.85999"
     y2="239.56911"
     id="line260"
     style="fill:none;stroke:#723935;stroke-width:0.6px;stroke-miterlimit:10" />
  <line
     class="cls-27"
     x1="432.09"
     y1="331.20911"
     x2="461.57001"
     y2="237.38908"
     id="line262"
     style="fill:none;stroke:#723935;stroke-width:0.6px;stroke-miterlimit:10" />
  <line
     class="cls-27"
     x1="413.63"
     y1="327.24911"
     x2="455.85999"
     y2="231.82909"
     id="line264"
     style="fill:none;stroke:#723935;stroke-width:0.6px;stroke-miterlimit:10" />
  <line
     class="cls-27"
     x1="555.42999"
     y1="230.3791"
     x2="451.17001"
     y2="246.13908"
     id="line266"
     style="fill:none;stroke:#723935;stroke-width:0.6px;stroke-miterlimit:10" />
  <ellipse
     class="cls-28"
     cx="458.19"
     cy="240.01909"
     rx="7.5900002"
     ry="7.52"
     id="ellipse268"
     style="fill:#6c6a67" />
  <ellipse
     class="cls-29"
     cx="105.66"
     cy="239.5591"
     rx="100.07"
     ry="99.239998"
     id="ellipse270"
     style="fill:none;stroke:#4e5034;stroke-width:11.18px;stroke-miterlimit:10" />
  <ellipse
     class="cls-29"
     cx="455.07999"
     cy="238.97908"
     rx="100.07"
     ry="99.239998"
     id="ellipse272"
     style="fill:none;stroke:#4e5034;stroke-width:11.18px;stroke-miterlimit:10" />
  <line
     class="cls-30"
     x1="377.13998"
     y1="34.699104"
     x2="389.81"
     y2="77.359108"
     id="line274"
     style="fill:#5a4e51;stroke:#5a4e51;stroke-width:7.19px;stroke-miterlimit:10" />
  <path
     class="cls-31"
     d="m 115.39999,230.9691 131.66,10.2"
     id="path276"
     style="fill:none;stroke:#23634c;stroke-width:7px;stroke-miterlimit:10" />
  <path
     class="cls-32"
     d="m 206.62999,108.7791 c 1.34,0.24 1.37,0.75 2.59,1 1.69,0.29 3.94,-0.27 4.51,-1.58 0.57,-1.31 -0.62,-2.65 -0.11,-3 0.31,-0.23 1,0.12 1.47,0.49 1.94,1.6 1.64,5.54 1.64,5.54 a 6.42,6.42 0 0 0 -0.87,1.24 c -0.5,1.07 0.58,2.57 0.77,2.85 3.25,4.74 3.4,11 5.49,16.33 2.42,6.23 2,6.83 11.25,37.88 3.5,11.78 3.39,11.12 4.62,15.55 3.88,13.91 3.66,15.61 6.45,23.76 2.24,6.51 6.34,16.86 6.34,16.81 0,-0.05 -0.16,-0.93 -0.78,-1.15 -0.88,-0.32 -2.36,0.94 -2.36,0.94 -1.76,0.5 -3.43,1.31 -5.23,1.65 0,0 -0.31,0.05 -3.76,0.44 -3.48,-14.56 -5.33,-22.31 -5.35,-22.31 -0.02,0 1.62,6.9 1.58,6.91 -0.04,0.01 -2,-8.55 -4.85,-19.31 -2,-7.64 -2.4,-8.48 -6.33,-22.64 -3.72,-13.43 -2.88,-10.89 -4.19,-15.33 -3.12,-10.58 -8.2,-27.2 -8.2,-27.2 -0.25,-0.8 -0.64,-2.1 -1,-3.81 -0.13,-0.55 -0.16,-0.74 -0.33,-1.47 -0.17,-0.73 -0.47,-1.93 -0.83,-3.21 -0.54,-2 -1.34,-4.58 -1.34,-4.58 a 14,14 0 0 1 -3.18,0.58 3.5,3.5 0 0 1 -2.5,-1 c -1,-1.22 -0.6,-3.62 0.77,-4.77 a 4.64,4.64 0 0 1 3.73,-0.61 z"
     id="path278"
     style="fill:#00aa5e" />
  <line
     class="cls-33"
     x1="107.31999"
     y1="234.25908"
     x2="233.75999"
     y2="244.84911"
     id="line280"
     style="fill:none;stroke:#00aa5e;stroke-width:7px;stroke-miterlimit:10" />
  <line
     class="cls-34"
     x1="214.31999"
     y1="122.9091"
     x2="390.79999"
     y2="81.919106"
     id="line282"
     style="fill:none;stroke:#00a55e;stroke-width:7px;stroke-miterlimit:10" />
  <line
     class="cls-35"
     x1="387.91"
     y1="71.379097"
     x2="427.75"
     y2="196.75908"
     id="line284"
     style="fill:none;stroke:#00a85e;stroke-width:7px;stroke-miterlimit:10" />
  <line
     class="cls-33"
     x1="427.42001"
     y1="195.7191"
     x2="458.92999"
     y2="239.5591"
     id="line286"
     style="fill:none;stroke:#00aa5e;stroke-width:7px;stroke-miterlimit:10" />
  <line
     class="cls-36"
     x1="390.79999"
     y1="81.919106"
     x2="257.42999"
     y2="236.8391"
     id="line288"
     style="fill:none;stroke:#00ad5e;stroke-width:7px;stroke-miterlimit:10" />
  <line
     class="cls-37"
     x1="212.68999"
     y1="124.3391"
     x2="107.89999"
     y2="235.6891"
     id="line290"
     style="fill:none;stroke:#00b15c;stroke-width:7.19px;stroke-miterlimit:10" />
  <line
     class="cls-38"
     x1="212.19998"
     y1="117.1791"
     x2="242.64998"
     y2="224.95909"
     id="line292"
     style="fill:none;stroke:#7bc78d;stroke-width:3px;stroke-miterlimit:10" />
  <path
     class="cls-39"
     d="m 451.99999,237.3391 0.57,1.14 c 0.37,0.75 0.56,1.12 0.62,1.29 0.34,0.95 0.07,1.33 0.25,2.22 a 4.28,4.28 0 0 0 1,2 7.94,7.94 0 0 0 0.84,0.31 9.25,9.25 0 0 0 3.44,0.4 c 0.6,-0.05 4.05,-0.47 4.81,-2.67 0.41,-1.15 -0.08,-2.39 -0.57,-3.62 a 6.19,6.19 0 0 0 -1,-1.76 7.86,7.86 0 0 0 -0.93,-0.92 14.66,14.66 0 0 1 -2.24,-2.86 20.17,20.17 0 0 0 -1.95,-2.58 c -2,-1 -4.86,1.58 -6.06,2.65 a 1.46,1.46 0 0 0 -0.5,0.79 c -0.08,0.41 0.1,0.68 0.64,1.65 -0.01,-0.04 0.53,0.91 1.08,1.96 z"
     id="path294"
     style="fill:#00a85e" />
  <polygon
     class="cls-40"
     points="252.34,194.29 254.52,196.34 151.12,304.04 "
     id="polygon296"
     style="fill:#7bc78d"
     transform="translate(-43.220005,-68.350897)" />
  <line
     class="cls-38"
     x1="107.31999"
     y1="234.25908"
     x2="219.89998"
     y2="243.6891"
     id="line298"
     style="fill:none;stroke:#7bc78d;stroke-width:3px;stroke-miterlimit:10" />
  <line
     class="cls-38"
     x1="221.15999"
     y1="121.3191"
     x2="386.26001"
     y2="82.439095"
     id="line300"
     style="fill:none;stroke:#7bc78d;stroke-width:3px;stroke-miterlimit:10" />
  <line
     class="cls-38"
     x1="387.91"
     y1="71.379097"
     x2="428.5"
     y2="199.1291"
     id="line302"
     style="fill:none;stroke:#7bc78d;stroke-width:3px;stroke-miterlimit:10" />
  <line
     class="cls-38"
     x1="428.31"
     y1="198.53911"
     x2="458.92999"
     y2="239.5591"
     id="line304"
     style="fill:none;stroke:#7bc78d;stroke-width:3px;stroke-miterlimit:10" />
  <line
     class="cls-38"
     x1="385.89999"
     y1="87.609108"
     x2="265.42001"
     y2="227.54909"
     id="line306"
     style="fill:none;stroke:#7bc78d;stroke-width:3px;stroke-miterlimit:10" />
  <path
     class="cls-41"
     d="m 101.50999,245.4991 c 10.21,8.52 44,15.7 63,21.08 26.22,7.45 26,4.88 62.35,13.2 13.83,3.17 19.78,4.89 28.76,3.11 4.24,-0.84 17.38,-3.45 23.72,-14.21 8.35,-14.18 0.61,-35.21 -12,-43.29 -9.9,-6.33 -20.14,-3 -35.29,-1 -50.43,6.8 -105.15,-7.26 -128.63,2.79 -2.11,0.91 -7.749995,3.32 -8.439995,7.65 -0.2,1.04 -0.52,4.82 6.529995,10.67 z"
     id="path308"
     style="fill:none;stroke:#675f57;stroke-width:3.19px;stroke-miterlimit:10" />
  <path
     class="cls-42"
     d="m 100.96999,229.4891 c -0.4,-0.32 -0.19,-0.69 -0.58,-1.14 a 2,2 0 0 0 -1.829995,-0.58 2.1,2.1 0 0 0 -1.73,1.91 c 0,0.53 0.41,0.74 0.29,1.15 -0.12,0.41 -0.67,0.52 -1.06,0.76 -1.07,0.66 -1.11,2.43 -1.13,3.26 a 8.31,8.31 0 0 0 2,5.14 10.66,10.66 0 0 0 5.189995,4.2 8.71,8.71 0 0 0 6,-0.39 7.8,7.8 0 0 0 3.65,-2.29 8.76,8.76 0 0 0 1.74,-5.05 13.87,13.87 0 0 0 -0.1,-3.72 c -0.22,-1.55 -0.75,-5.28 -2.4,-5.63 -1,-0.21 -1.79,0.85 -2.69,0.36 -0.17,-0.09 -0.21,-0.16 -0.78,-0.94 -1.23,-1.66 -1.39,-1.76 -1.54,-1.81 a 2.2,2.2 0 0 0 -2.4,1.15 2.43,2.43 0 0 0 -0.2,1.33 c 0.09,0.92 0.56,1.22 0.37,1.69 -0.19,0.47 -0.64,0.56 -1,0.68 -0.36,0.12 -1.25,0.37 -1.8,-0.08 z"
     id="path310"
     style="fill:#23634c;stroke:#23634c;stroke-width:7px;stroke-miterlimit:10" />
  <ellipse
     class="cls-43"
     cx="250.78999"
     cy="251.14909"
     rx="34.060001"
     ry="32.060001"
     id="ellipse312"
     style="fill:#2e6247;stroke:#374069;stroke-width:0.8px;stroke-miterlimit:10" />
  <ellipse
     class="cls-26"
     cx="250.78999"
     cy="251.00908"
     rx="27.959999"
     ry="25.91"
     id="ellipse314"
     style="fill:none;stroke:#81c452;stroke-width:4.79px;stroke-miterlimit:10" />
  <path
     class="cls-26"
     d="m 240.63999,227.3291 c -0.89,1.7 1.62,3.48 3.56,8.19 0.86,2.09 3,7.31 1.39,11.91 -1,2.77 -3.58,4.69 -8.77,8.43 -6.69,4.82 -10.2,5.82 -10.14,8.26 0.06,2.14 2.82,4 3.91,4.78 a 7.36,7.36 0 0 0 4,1.72 c 3.08,0 5.52,-3.18 8.66,-7.45 3.14,-4.27 3.22,-5.69 5.49,-6.87 a 10.54,10.54 0 0 1 7.22,-0.57 c 2.14,0.56 3.06,1.5 7.79,5.44 6.55,5.46 7.79,6.15 9,5.79 1.21,-0.36 2,-2.07 3.58,-5.54 1.77,-3.79 2.65,-5.69 2.09,-6.84 -1,-2 -4.22,-1 -10.66,-2.57 -3.85,-0.94 -8.24,-2.08 -11.26,-5.72 a 14.12,14.12 0 0 1 -2.88,-6.3 c -1.54,-7.54 3.32,-12.49 1.15,-14.62 -0.7,-0.68 -2.86,-0.42 -7.18,0.09 -4.32,0.51 -6.38,0.8 -6.95,1.87 z"
     id="path316"
     style="fill:none;stroke:#81c452;stroke-width:4.79px;stroke-miterlimit:10" />
  <line
     class="cls-44"
     x1="250.39998"
     y1="248.10909"
     x2="270.04001"
     y2="309.9191"
     id="line318"
     style="fill:#2e6247;stroke:#5a4e51;stroke-width:9.58px;stroke-miterlimit:10" />
  <line
     class="cls-45"
     x1="255.14998"
     y1="252.92909"
     x2="272.25"
     y2="306.74911"
     id="line320"
     style="fill:#2e6247" />
  <path
     class="cls-2"
     d="m 253.33999,259.0491 c 5.55,17.93 11.61,35.71 16.93,53.7 0.2,0.69 0.88,-0.42 0.93,-0.49 0.32,-0.58 1,-1.62 0.82,-2.32 -0.58,-2.51 -1.34,-4.94 -2.13,-7.39 -2.06,-6.39 -4.05,-12.8 -6.09,-19.19 -2.82,-8.84 -5.61,-17.67 -8.22,-26.57 -0.26,-0.9 -2.44,1.63 -2.24,2.26 z"
     id="path322"
     style="opacity:0.11;fill:#999797" />
  <path
     class="cls-2"
     d="m 251.77999,257.5491 c 5.55,17.93 11.57,35.73 16.94,53.72 0.28,0.92 1,-1.24 0.94,-1.05 0.33,-1 1,-2.54 0.73,-3.62 a 75.07,75.07 0 0 0 -2.12,-7.49 c -2.06,-6.38 -4,-12.8 -6.08,-19.19 -2.83,-8.85 -5.59,-17.7 -8.1,-26.65 -0.24,-0.87 -1.1,0.92 -1.07,0.88 -0.34,0.72 -1.47,2.5 -1.24,3.4 z"
     id="path324"
     style="opacity:0.11;fill:#999797" />
  <path
     class="cls-2"
     d="m 251.41999,255.9491 q 8.6,26.9 17.11,53.8 c 0.24,0.75 1.17,-0.11 1,-0.69 q -8.55,-26.91 -17.11,-53.8 c -0.25,-0.76 -1.18,0.11 -1,0.69 z"
     id="path326"
     style="opacity:0.11;fill:#999797" />
  <path
     class="cls-2"
     d="m 253.58999,256.7291 c 5.52,17.93 11.61,35.7 16.9,53.69 0.26,0.88 1.1,-1 1.07,-0.92 0.4,-0.84 1.41,-2.52 1.19,-3.5 a 77.08,77.08 0 0 0 -2.12,-7.45 c -2.06,-6.39 -4,-12.81 -6.08,-19.2 -2.83,-8.84 -5.59,-17.67 -8.13,-26.6 -0.23,-0.83 -1.12,0.67 -1.18,0.75 -0.38,0.57 -1.89,2.45 -1.65,3.23 z"
     id="path328"
     style="opacity:0.11;fill:#999797" />
  <path
     class="cls-2"
     d="m 252.67999,256.0691 c 6.1,17.68 11.6,35.58 17.27,53.45 0.21,0.68 1.18,0.14 1,-0.44 -5.65,-17.82 -11,-35.77 -17.31,-53.35 a 0.51,0.51 0 0 0 -0.96,0.34 z"
     id="path330"
     style="opacity:0.11;fill:#999797" />
  <path
     class="cls-2"
     d="m 250.40999,257.0391 c 5.56,17.91 11.64,35.67 16.93,53.65 0.13,0.46 0.48,0.28 0.71,0.08 0.23,-0.2 0.3,-1.62 0.2,-2 -2.37,-9 -5.51,-17.8 -8.32,-26.65 -2.81,-8.85 -5.66,-17.76 -8.36,-26.68 -0.35,-1.16 -1.33,1.05 -1.16,1.6 z"
     id="path332"
     style="opacity:0.11;fill:#999797" />
  <path
     class="cls-2"
     d="m 252.12999,259.3091 c 5.56,17.93 11.59,35.72 16.95,53.71 0.21,0.72 0.86,-0.59 0.85,-0.59 a 4.18,4.18 0 0 0 0.52,-2.36 c -0.56,-2.51 -1.33,-4.93 -2.12,-7.39 -2.06,-6.39 -4,-12.8 -6.08,-19.19 -2.83,-8.84 -5.61,-17.67 -8.19,-26.57 -0.28,-0.82 -2.13,1.73 -1.93,2.39 z"
     id="path334"
     style="opacity:0.11;fill:#999797" />
  <path
     class="cls-2"
     d="m 254.40999,256.9391 c 2.71,9 5.57,17.92 8.41,26.86 2.84,8.94 5.85,17.8 8.43,26.79 0.18,0.64 0.82,-0.31 0.87,-0.39 a 3.2,3.2 0 0 0 0.64,-2 c -0.59,-2.51 -1.36,-4.93 -2.14,-7.38 -2.06,-6.39 -4,-12.8 -6.09,-19.19 -2.83,-8.89 -5.68,-17.74 -8.19,-26.72 -0.25,-0.87 -2.11,1.41 -1.93,2.03 z"
     id="path336"
     style="opacity:0.11;fill:#999797" />
  <path
     class="cls-2"
     d="m 251.01999,256.1291 q 4.22,13.38 8.49,26.77 c 2.84,8.93 5.83,17.83 8.45,26.82 0.13,0.46 0.44,0.32 0.7,0.11 a 3.34,3.34 0 0 0 0.31,-2 c -2.35,-9 -5.5,-17.83 -8.32,-26.68 -2.82,-8.85 -5.67,-17.77 -8.37,-26.69 -0.38,-1.28 -1.43,1.12 -1.26,1.67 z"
     id="path338"
     style="opacity:0.11;fill:#999797" />
  <path
     class="cls-2"
     d="m 252.68999,255.6491 c 2.77,9 5.61,17.89 8.46,26.83 2.85,8.94 5.83,17.83 8.45,26.83 0.21,0.74 0.85,-0.66 0.84,-0.64 a 4.63,4.63 0 0 0 0.47,-2.44 c -0.6,-2.54 -1.38,-5 -2.18,-7.49 -2.05,-6.39 -4,-12.8 -6.08,-19.2 -2.84,-8.88 -5.67,-17.76 -8.27,-26.72 -0.2,-0.7 -0.88,0.45 -0.92,0.51 -0.31,0.53 -0.97,1.7 -0.77,2.32 z"
     id="path340"
     style="opacity:0.11;fill:#999797" />
  <path
     class="cls-2"
     d="m 254.17999,258.0691 c 2.78,8.95 5.62,17.88 8.46,26.81 2.84,8.93 5.82,17.82 8.44,26.81 0.21,0.69 0.89,-0.39 0.94,-0.47 0.34,-0.52 1,-1.62 0.85,-2.29 -0.57,-2.5 -1.34,-4.92 -2.12,-7.37 -2.06,-6.39 -4.05,-12.8 -6.09,-19.19 -2.82,-8.83 -5.61,-17.66 -8.23,-26.55 -0.27,-0.9 -2.45,1.62 -2.25,2.25 z"
     id="path342"
     style="opacity:0.11;fill:#999797" />
  <path
     class="cls-2"
     d="m 250.77999,257.9791 c 5.56,17.83 11.6,35.54 16.88,53.46 0.16,0.56 0.39,0.39 0.7,0.11 a 4.61,4.61 0 0 0 0.41,-2.56 c -2.13,-8.47 -5.13,-16.75 -7.78,-25.07 -3,-9.53 -6.07,-19 -8.91,-28.64 -0.2,-0.68 -0.83,0.51 -0.83,0.53 a 3.55,3.55 0 0 0 -0.47,2.17 z"
     id="path344"
     style="opacity:0.11;fill:#999797" />
  <ellipse
     class="cls-26"
     cx="250.78999"
     cy="249.1591"
     rx="8.1499996"
     ry="8.0799999"
     id="ellipse346"
     style="fill:none;stroke:#81c452;stroke-width:4.79px;stroke-miterlimit:10" />
  <ellipse
     class="cls-46"
     cx="250.78999"
     cy="249.1591"
     rx="3.9000001"
     ry="3.4400001"
     id="ellipse348"
     style="fill:#2e6247;stroke:#444444;stroke-width:3.19px;stroke-miterlimit:10" />
  <line
     class="cls-47"
     x1="254.89998"
     y1="154.73911"
     x2="257.57999"
     y2="163.03911"
     id="line350"
     style="fill:none;stroke:#444444;stroke-width:2px;stroke-miterlimit:10" />
  <path
     class="cls-48"
     d="m 257.61999,318.8991 c -0.72,0.81 0.16,1.72 -0.77,5 -0.37,1.31 -0.74,1.93 -0.38,2.48 a 2.6,2.6 0 0 0 3.46,0.19 c 1.12,-1.15 -0.62,-3.39 0.39,-4.38 1.01,-0.99 3.77,-0.41 5,1.25 1.45,1.91 -0.13,4.17 1.27,5.37 a 3.26,3.26 0 0 0 4.1,-0.33 c 1,-1.2 -0.4,-2.85 0.58,-4 a 3.33,3.33 0 0 1 4.33,-0.15 c 1.05,1.07 -0.07,2.77 1.06,3.81 a 2.39,2.39 0 0 0 2.88,0.19 c 0.28,-0.23 0.52,-0.62 0.58,-2.67 0.06,-2.05 0.09,-3.25 -0.19,-3.72 -1.07,-1.76 -4.7,-0.18 -9.78,-0.49 -7.01,-0.51 -11.03,-4.23 -12.53,-2.55 z"
     id="path352"
     style="fill:#1a1a1a" />
  <path
     class="cls-49"
     d="m 260.11999,315.4691 c 0,-0.51 3.54,-0.74 5.39,-0.77 a 29.57,29.57 0 0 1 7.51,1 c 2.87,0.71 6.65,2 6.54,2.48 -0.11,0.48 -3.44,0.07 -8.08,-0.58 -7.41,-1.06 -11.38,-1.61 -11.36,-2.13 z"
     id="path354"
     style="fill:none;stroke:#444444;stroke-width:1.6px;stroke-miterlimit:10" />
  <path
     class="cls-50"
     d="m 259.44999,305.2591 c 1.46,-1.29 3.15,-0.56 9.17,0.2 8.84,1.1 11.23,0.27 12.77,2.37 1.09,1.5 0.92,3.33 0.58,6.87 -0.31,3.27 -0.52,5.42 -2,7.16 -3.27,3.77 -10,2.47 -12.42,2 -2.7,-0.52 -6.76,-1.3 -8.66,-4.58 -1,-1.7 -1,-3.35 -0.93,-6.64 0.02,-3.88 0.04,-6.1 1.49,-7.38 z"
     id="path356"
     style="fill:none;stroke:#444444;stroke-width:2.4px;stroke-miterlimit:10" />
  <path
     class="cls-48"
     d="m 258.07999,317.0091 c 0.53,-1.08 3,-0.66 9.76,0.05 10.44,1.08 13.08,0.95 13.44,2.28 0.39,1.49 -2.4,3.75 -4.82,4.65 -1.59,0.59 -2.86,0.54 -5.17,0.41 -3.89,-0.22 -7.06,-0.39 -9.92,-2.59 -1.52,-1.16 -3.89,-3.55 -3.29,-4.8 z"
     id="path358"
     style="fill:#1a1a1a" />
  <path
     class="cls-48"
     d="m 259.44999,305.2591 c -0.91,1.14 -0.69,3 -0.1,4.29 3,6.33 20.3,6.39 22.47,1.6 a 3.92,3.92 0 0 0 -0.53,-3.7 c -1.39,-1.94 -4,-1.47 -9.81,-1.91 -7.83,-0.59 -10.65,-2.02 -12.03,-0.28 z"
     id="path360"
     style="fill:#1a1a1a" />
  <ellipse
     class="cls-28"
     cx="98.869995"
     cy="229.7491"
     rx="0.99000001"
     ry="0.98000002"
     id="ellipse362"
     style="fill:#6c6a67" />
  <ellipse
     class="cls-28"
     cx="105.66"
     cy="227.45909"
     rx="0.99000001"
     ry="0.98000002"
     id="ellipse364"
     style="fill:#6c6a67" />
  <ellipse
     class="cls-28"
     cx="104.84"
     cy="236.42909"
     rx="5.27"
     ry="5.2199998"
     id="ellipse366"
     style="fill:#6c6a67" />
  <ellipse
     class="cls-51"
     cx="104.84"
     cy="236.1891"
     rx="2.8099999"
     ry="2.79"
     id="ellipse368"
     style="fill:#b1b1b0" />
  <ellipse
     class="cls-48"
     cx="458.54001"
     cy="240.22908"
     rx="3.46"
     ry="2.8599999"
     id="ellipse370"
     style="fill:#1a1a1a" />
  <ellipse
     class="cls-52"
     cx="458.54001"
     cy="240.22908"
     rx="2.1400001"
     ry="2.1199999"
     id="ellipse372"
     style="fill:#817f7e" />
  <line
     class="cls-53"
     x1="456.39999"
     y1="239.4091"
     x2="461.51999"
     y2="241.1291"
     id="line374"
     style="fill:none;stroke:#1a1a1a;stroke-width:0.8px;stroke-miterlimit:10" />
  <path
     class="cls-54"
     d="m 378.02999,39.959103 c 3.69,12.78 7.72,25.47 11.25,38.3 0.19,0.7 0.89,-0.41 0.93,-0.48 a 4,4 0 0 0 0.85,-2.29 c -1.32,-6.38 -3.59,-12.61 -5.37,-18.87 -1.78,-6.26 -3.68,-12.55 -5.39,-18.86 -0.24,-0.9 -2.45,1.57 -2.27,2.2 z"
     id="path376"
     style="opacity:0.11;fill:#817f7e" />
  <path
     class="cls-54"
     d="m 376.50999,38.459103 c 3.69,12.79 7.69,25.5 11.25,38.32 0.26,0.93 1,-1.23 1,-1 0.35,-1 1,-2.53 0.8,-3.62 a 58.59,58.59 0 0 0 -1.49,-5.83 q -2,-6.55 -3.86,-13.13 c -1.78,-6.32 -3.63,-12.59 -5.26,-18.94 -0.22,-0.88 -1.11,0.9 -1.09,0.86 -0.42,0.67 -1.6,2.47 -1.35,3.34 z"
     id="path378"
     style="opacity:0.11;fill:#817f7e" />
  <path
     class="cls-54"
     d="m 376.10999,36.839103 q 5.75,19.2 11.42,38.41 c 0.23,0.77 1.17,-0.09 1,-0.68 q -5.72,-19.2 -11.42,-38.41 c -0.23,-0.77 -1.17,0.1 -1,0.68 z"
     id="path380"
     style="opacity:0.11;fill:#817f7e" />
  <path
     class="cls-54"
     d="m 378.29999,37.649103 c 3.65,12.78 7.7,25.47 11.21,38.29 0.24,0.89 1.11,-1 1.08,-0.91 0.41,-0.83 1.44,-2.48 1.24,-3.47 -1.26,-6.41 -3.58,-12.65 -5.35,-18.94 -1.77,-6.29 -3.64,-12.55 -5.29,-18.88 -0.21,-0.84 -1.14,0.64 -1.19,0.72 -0.39,0.55 -1.93,2.4 -1.7,3.19 z"
     id="path382"
     style="opacity:0.11;fill:#817f7e" />
  <path
     class="cls-54"
     d="m 377.35999,36.949103 c 4.13,12.61 7.81,25.36 11.58,38.08 0.2,0.68 1.18,0.15 1,-0.44 -3.77,-12.69 -7.37,-25.44 -11.63,-38 -0.19,-0.56 -1.14,-0.23 -0.95,0.36 z"
     id="path384"
     style="opacity:0.11;fill:#817f7e" />
  <path
     class="cls-54"
     d="m 375.10999,37.939103 c 3.69,12.76 7.74,25.43 11.24,38.24 0.13,0.47 0.47,0.29 0.71,0.09 0.24,-0.2 0.33,-1.63 0.23,-2 -1.51,-6.39 -3.65,-12.62 -5.51,-18.95 -1.86,-6.33 -3.73,-12.63 -5.51,-19 -0.3,-1.15 -1.32,1.06 -1.16,1.62 z"
     id="path386"
     style="opacity:0.11;fill:#817f7e" />
  <path
     class="cls-54"
     d="m 376.82999,40.219103 c 3.69,12.78 7.69,25.48 11.25,38.3 0.2,0.72 0.87,-0.58 0.87,-0.57 a 4.25,4.25 0 0 0 0.55,-2.35 c -1.29,-6.38 -3.57,-12.61 -5.35,-18.87 -1.78,-6.26 -3.67,-12.54 -5.35,-18.85 -0.22,-0.83 -2.17,1.66 -1.97,2.34 z"
     id="path388"
     style="opacity:0.11;fill:#817f7e" />
  <path
     class="cls-54"
     d="m 378.99999,38.009103 c 3.81,12.66 7.84,25.31 11.26,38.09 0.17,0.64 0.82,-0.31 0.87,-0.38 a 3.24,3.24 0 0 0 0.66,-2 c -1.36,-6.37 -3.6,-12.59 -5.39,-18.86 -1.79,-6.27 -3.7,-12.55 -5.44,-18.87 -0.24,-0.87 -2.18,1.4 -1.96,2.02 z"
     id="path390"
     style="opacity:0.11;fill:#817f7e" />
  <path
     class="cls-54"
     d="m 375.70999,37.019103 c 3.75,12.73 7.8,25.39 11.26,38.2 0.12,0.46 0.44,0.32 0.7,0.11 a 3.4,3.4 0 0 0 0.35,-2.05 c -1.53,-6.39 -3.66,-12.66 -5.49,-19 -1.83,-6.34 -3.74,-12.64 -5.52,-19 -0.35,-1.21 -1.46,1.19 -1.3,1.74 z"
     id="path392"
     style="opacity:0.11;fill:#817f7e" />
  <path
     class="cls-54"
     d="m 377.41999,36.489103 c 3.59,12.82 7.71,25.5 11.19,38.35 0.2,0.74 0.87,-0.66 0.85,-0.63 a 4.69,4.69 0 0 0 0.51,-2.45 c -1.39,-6.41 -3.62,-12.67 -5.42,-19 -1.8,-6.33 -3.72,-12.66 -5.4,-19 -0.19,-0.71 -0.89,0.43 -0.92,0.48 -0.32,0.48 -0.99,1.61 -0.81,2.25 z"
     id="path394"
     style="opacity:0.11;fill:#817f7e" />
  <path
     class="cls-54"
     d="m 378.86999,38.979103 c 3.7,12.74 7.75,25.41 11.22,38.22 0.19,0.69 0.89,-0.38 0.94,-0.46 0.35,-0.51 1,-1.59 0.88,-2.26 -1.32,-6.37 -3.59,-12.59 -5.37,-18.85 -1.78,-6.26 -3.68,-12.53 -5.4,-18.83 -0.24,-0.91 -2.45,1.55 -2.27,2.18 z"
     id="path396"
     style="opacity:0.11;fill:#817f7e" />
  <path
     class="cls-54"
     d="m 375.44999,38.879103 c 3.69,12.69 7.7,25.31 11.19,38.06 0.15,0.56 0.38,0.39 0.7,0.12 a 4.68,4.68 0 0 0 0.46,-2.58 c -1.5,-6.51 -3.69,-12.86 -5.54,-19.28 -1.85,-6.42 -3.72,-12.65 -5.45,-19 -0.18,-0.69 -0.84,0.5 -0.85,0.52 a 3.57,3.57 0 0 0 -0.51,2.16 z"
     id="path398"
     style="opacity:0.11;fill:#817f7e" />
  <path
     class="cls-55"
     d="m 374.62999,25.739103 a 52.31,52.31 0 0 1 14.15,-4.29 c 9.95,-1.52 15.68,0.64 17.8,-2.46 1.92,-2.81 0,-8.71 -3.66,-12.0000001 -8.42,-7.57 -26.32,-1.76 -32.62,0.29 a 119,119 0 0 1 -19.34,5.3100001 c -2.41,0.43 -4.42,0.7 -5.77,0.86"
     id="path400"
     style="fill:none;stroke:#5a4e51;stroke-width:6.39px;stroke-miterlimit:10" />
  <path
     class="cls-56"
     d="m 373.85999,36.359103 a 27.48,27.48 0 0 1 8,-1.62 37.72,37.72 0 0 1 10.49,1.14 30.42,30.42 0 0 0 5.39,1.15 19.72,19.72 0 0 0 4.94,0 c 4,-0.69 8.92,-4.29 9.2,-8.27 0.43,-6 -9.67,-10.21 -11.06,-10.79 -11,-4.58 -22.11,-0.07 -26,1.72"
     id="path402"
     style="fill:none;stroke:#5a4e51;stroke-width:7.19px;stroke-miterlimit:10" />
  <path
     class="cls-2"
     d="m 379.98999,21.649103 a 23.26,23.26 0 0 1 7.43,-2.56 32.52,32.52 0 0 1 12.87,1.36 c 5.09,1.51 9.73,3.69 12.8,8.52 l -1,-2.07 1.18,3.29 -0.56,-2.26 -0.75,6.78 0.7,-1.65 q -8.91,10.38 -15.95,5.52 a 8.5,8.5 0 0 0 -1.32,-0.73 26.73,26.73 0 0 0 -6.4,-2.29 45.39,45.39 0 0 0 -4.76,-0.91 c -3.21,-0.34 -6.69,1.33 -9.51,2.65 -0.71,0.33 0.11,1.33 0.61,1.09 2.65,-1.25 5.91,-2.82 8.94,-2.55 a 38.43,38.43 0 0 1 3.86,0.67 33,33 0 0 1 8.55,3.27 5.41,5.41 0 0 0 2,1 12.82,12.82 0 0 0 4.86,0.23 12.25,12.25 0 0 0 6.53,-3.1 c 2.31,-1.89 4.58,-4.73 4,-7.92 a 10.25,10.25 0 0 0 -4.35,-6.66 c -4.61,-3.32 -10.14,-4.89 -15.73,-5.5 a 29.55,29.55 0 0 0 -16.9,3.19 c -0.64,0.32 0.72,0.7 0.7,0.7 a 3.73,3.73 0 0 0 2.2,-0.07 z"
     id="path404"
     style="opacity:0.11;fill:#999797" />
  <path
     class="cls-2"
     d="m 377.99999,20.349103 a 25.12,25.12 0 0 1 10.78,-2.91 28.21,28.21 0 0 1 6.66,0.85 c 5.81,1.41 11.8,3.33 15.43,8.62 l -1.29,-2.37 1.78,4 -1,-2.62 1,4.24 -0.46,-2.65 -3.07,7.9 1.84,-2.24 -3.39,3.52 2.2,-1.84 -4,2.8 2.54,-1.42 -6.35,2.42 2.75,-0.4 -4.55,0.31 2.8,0.1 -4.3,-0.55 2.72,0.67 a 72.51,72.51 0 0 0 -9.06,-2.94 c -2.13,-0.5 -4.27,-1 -6.42,-1.39 -3.68,-0.73 -7.2,0.61 -10.51,2.09 -0.7,0.32 0.47,1 0.67,1.1 0.62,0.41 2.12,1.57 2.94,1.4 2.62,-0.54 5.2,-1.77 7.93,-1.55 1,0.08 2,0.29 3,0.45 3.49,0.59 7,0.74 10.5,1.32 l -3.48,-1.42 c 2,2.42 6.95,1.81 9.29,0.62 a 12.41,12.41 0 0 0 5.91,-6.13 l -1.79,2.88 a 6.43,6.43 0 0 0 3.27,-6.22 c -0.2,-2.33 -1.78,-4.55 -3.36,-6.16 a 20.54,20.54 0 0 0 -3.24,-2.24 24,24 0 0 0 -5.14,-2.44 40.45,40.45 0 0 0 -6.45,-1.5 28.65,28.65 0 0 0 -19.32,2.74 c -0.67,0.33 0.68,0.77 0.71,0.78 a 4.09,4.09 0 0 0 2.46,0.18 z"
     id="path406"
     style="opacity:0.11;fill:#999797" />
  <path
     class="cls-2"
     d="m 379.03999,18.159103 a 24.16,24.16 0 0 1 12.58,-2.8 31.14,31.14 0 0 1 7.16,1.54 c 1,0.3 1.94,0.62 2.89,1 l 6.82,3.8 1.4,1.35 1.9,6 a 7.74,7.74 0 0 1 -2.26,3 c -2.43,2.07 -5.51,4.31 -8.94,4 a 18.8,18.8 0 0 1 -5.18,-1.62 55.46,55.46 0 0 0 -5.35,-1.71 47.78,47.78 0 0 0 -6.61,-1.34 c -3.25,-0.37 -6.59,1.14 -9.47,2.43 -0.52,0.23 0.22,0.64 0.37,0.72 a 4.82,4.82 0 0 0 2.34,0.57 c 2.06,-0.39 4,-1.11 6.08,-1.43 a 19.85,19.85 0 0 1 6,0.31 41.14,41.14 0 0 1 5.62,1.14 c 1.08,0.33 0.95,0.43 1.64,1 1.21,1 4.06,1.19 5.5,1 a 13.09,13.09 0 0 0 5.85,-2.06 c 0.8,-0.6 1.48,-1.27 2.29,-1.84 a 8.68,8.68 0 0 0 3,-3.62 c 2,-5.5 -4.37,-9.81 -8.59,-11.83 a 43.58,43.58 0 0 0 -8.54,-2.88 24.51,24.51 0 0 0 -17,2.17 c -0.87,0.41 -0.03,1.35 0.5,1.1 z"
     id="path408"
     style="opacity:0.11;fill:#999797" />
  <path
     class="cls-2"
     d="m 379.31999,19.649103 a 22.77,22.77 0 0 1 4.6,-2 14.88,14.88 0 0 1 9.62,-0.07 23,23 0 0 1 8.58,1.29 q 7.4,1.78 10.66,7.59 l -1.31,-3.18 1.76,5 -1,-4.16 0.94,5.79 -0.28,-3.93 -0.17,4.6 0.39,-3 -0.94,4.18 0.88,-2.84 -1.55,3.73 1.28,-2.74 -3.52,5.35 1.94,-2.19 -3.6,3.45 2.22,-1.79 -4.04,2.75 2.5,-1.38 -5.7,1.91 2.71,-0.4 -4.57,0.32 h 2.79 l -4.31,-0.46 2.79,0.54 a 135.1,135.1 0 0 0 -14,-3.77 15.53,15.53 0 0 0 -4.29,-0.43 23.91,23.91 0 0 0 -7.7,2.23 c -0.77,0.33 0.71,1 0.82,1.07 0.8,0.42 2.27,1.36 3.24,1.22 1.9,-0.29 3.67,-1 5.59,-1.22 a 17.87,17.87 0 0 1 4.07,0 c 3.81,0.5 7.63,0.88 11.44,1.41 l -3.69,-1.26 a 2.38,2.38 0 0 0 1.63,1 11.7,11.7 0 0 0 3.66,0.52 13.08,13.08 0 0 0 4.55,-1.26 c 3.53,-1.74 7.36,-6.16 6.5,-10.4 a 11,11 0 0 0 -2.2,-5.38 c -2.13,-2.37 -5.12,-3.87 -8,-5.14 -4.19,-1.86 -9.12,-2.33 -13.66,-2.47 a 33.14,33.14 0 0 0 -15.89,3.51 c -0.86,0.42 1.22,1 1.2,1 0.88,0.29 1.76,0.54 2.66,0.76 a 3.23,3.23 0 0 0 1.4,0.25 z"
     id="path410"
     style="opacity:0.11;fill:#999797" />
  <path
     class="cls-2"
     d="m 380.11999,17.749103 a 24.94,24.94 0 0 1 14,-2.6 40.59,40.59 0 0 1 8.78,2.44 27.17,27.17 0 0 1 4.64,2.24 l 4.91,4.33 v 6 c -2.22,3.57 -9,6.27 -12.11,5.63 -1.77,-0.37 -3.36,-1.43 -5,-2.09 a 37.47,37.47 0 0 0 -6,-1.84 21.39,21.39 0 0 0 -6,-0.76 23.81,23.81 0 0 0 -7.82,2.21 c -1.27,0.55 1.46,1.18 1.95,1.05 3.53,-0.92 7,-2 10.7,-1.42 a 23.26,23.26 0 0 1 6.61,1.61 c 1.67,0.8 2.94,1.84 4.79,2.26 a 11.66,11.66 0 0 0 7.26,-0.88 17.09,17.09 0 0 0 4.21,-2.85 10,10 0 0 0 3,-3.6 c 2,-4.64 -2.93,-8.68 -6.36,-10.86 a 31,31 0 0 0 -7.05,-3.08 36.16,36.16 0 0 0 -7.23,-1.76 27.64,27.64 0 0 0 -14.75,2.67 c -0.87,0.37 0.95,1.55 1.47,1.3 z"
     id="path412"
     style="opacity:0.11;fill:#999797" />
  <path
     class="cls-2"
     d="m 378.13999,19.859103 a 28.74,28.74 0 0 1 4.43,-2 l 6.16,-1 2.94,0.21 a 39.8,39.8 0 0 1 9.63,2.84 15.9,15.9 0 0 1 2.28,1.09 6.9,6.9 0 0 1 4,4.75 c 2.28,3.3 3.8,3.39 1.93,5.85 a 10.15,10.15 0 0 1 -1.24,1.3 8.91,8.91 0 0 1 -2.36,1.85 q -4.1,4.11 -10.42,2.26 l 1.66,0.45 a 60.47,60.47 0 0 0 -15.28,-4.64 c -3.1,-0.37 -6.39,1.21 -9.12,2.43 -0.84,0.38 2.08,1.77 2.67,1.63 1.82,-0.46 3.48,-1.24 5.36,-1.54 a 11.75,11.75 0 0 1 4.63,0.1 64.52,64.52 0 0 1 10.39,2.24 l -1.53,-0.71 c 1.41,1.67 4.19,2 6.24,1.64 a 12.5,12.5 0 0 0 6.86,-3.2 c 1.5,-1.47 3.31,-2.38 4,-4.53 a 6.24,6.24 0 0 0 -1,-5.44 c -2.82,-4 -7.69,-6.23 -12.21,-7.68 a 31.13,31.13 0 0 0 -9.86,-1.85 23.25,23.25 0 0 0 -10.74,3 c -0.5,0.38 0.03,1.24 0.58,0.95 z"
     id="path414"
     style="opacity:0.11;fill:#999797" />
  <path
     class="cls-2"
     d="m 379.09999,22.039103 2,-1 a 13.51,13.51 0 0 1 9.41,-0.88 15.17,15.17 0 0 1 7.7,0.31 26.67,26.67 0 0 1 13.57,8.55 l -0.85,-1.54 q -7.69,17.33 -15.3,11.27 l -1.34,-0.76 a 30.12,30.12 0 0 0 -7.44,-2.47 31.42,31.42 0 0 0 -3.95,-0.7 c -3.21,-0.25 -6.51,1.28 -9.32,2.61 -0.71,0.33 0,1.38 0.51,1.14 3,-1.46 6.23,-2.88 9.63,-2.5 a 31.52,31.52 0 0 1 7.1,1.69 c 1.21,0.43 2.41,0.91 3.58,1.44 l 1.55,1 a 9.08,9.08 0 0 0 2.22,0.81 13,13 0 0 0 7.06,-0.73 14,14 0 0 0 3.62,-2.34 12.79,12.79 0 0 0 3.4,-3.67 c 3,-5.71 -2.88,-10.24 -7.34,-12.51 a 38.27,38.27 0 0 0 -10.46,-3.11 26.47,26.47 0 0 0 -16.73,2.66 c -0.94,0.41 0.85,0.99 1.38,0.73 z"
     id="path416"
     style="opacity:0.11;fill:#999797" />
  <path
     class="cls-2"
     d="m 380.59999,19.469103 c 6.94,-3.44 12.34,-3.61 20.67,-1.27 a 26.92,26.92 0 0 1 10.45,5.45 7.3,7.3 0 0 1 2.71,4.74 l -0.37,-2.27 0.1,3.52 0.11,-2 q -7.78,13.65 -16.9,8.4 l -2,-0.74 a 46.54,46.54 0 0 0 -6.64,-1.8 27.64,27.64 0 0 0 -3.13,-0.53 c -3.16,-0.23 -6.27,1.13 -9.1,2.33 -0.47,0.21 0.13,0.61 0.26,0.71 a 3.41,3.41 0 0 0 1.89,0.52 c 3.09,-0.76 6.05,-2 9.33,-1.61 a 35.84,35.84 0 0 1 5.82,1.13 c 1,0.26 1.92,0.55 2.88,0.84 a 2.24,2.24 0 0 1 1.79,1 8,8 0 0 0 3.59,1 13.58,13.58 0 0 0 11.45,-5.54 9,9 0 0 0 1.6,-5.57 c -0.15,-3.1 -1.8,-5.37 -4.18,-7.2 a 29.16,29.16 0 0 0 -12.6,-5.42 40.29,40.29 0 0 0 -10.67,-0.82 31.54,31.54 0 0 0 -11.33,3.24 c -0.77,0.38 0.82,1 0.9,1 0.66,0.21 2.63,1.25 3.37,0.89 z"
     id="path418"
     style="opacity:0.11;fill:#999797" />
  <path
     class="cls-2"
     d="m 378.13999,18.839103 a 25.74,25.74 0 0 1 11.08,-2.86 c 3.79,0 7.91,1.23 11.53,2.55 3.21,1.17 12.61,5.77 9.77,11.31 a 6.51,6.51 0 0 1 -1.37,1.8 9.36,9.36 0 0 1 -7,4.24 5.88,5.88 0 0 1 -4.26,0.28 q -1.58,-0.63 -3.21,-1.11 a 68.94,68.94 0 0 0 -7.18,-1.89 c -1.61,-0.35 -3.25,-0.77 -4.89,-1 -3.13,-0.35 -6.4,1.2 -9.16,2.45 -0.72,0.33 0.6,0.93 0.72,1 a 5.82,5.82 0 0 0 2.89,0.94 c 3,-0.47 5.73,-1.71 8.88,-1.38 3.49,0.37 7,0.82 10.47,1.38 l -2.54,-1 a 9.93,9.93 0 0 0 5.39,2.27 12.26,12.26 0 0 0 8.24,-2.78 c 1.66,-1.51 3.86,-2.91 4.47,-5.24 a 6.61,6.61 0 0 0 -1.3,-5.79 c -2.73,-3.61 -7.25,-5.81 -11.46,-7.16 a 45.47,45.47 0 0 0 -7.7,-1.86 c -4.94,-0.68 -9.92,0.63 -14.34,2.73 -0.94,0.46 0.46,1.37 0.97,1.12 z"
     id="path420"
     style="opacity:0.11;fill:#999797" />
  <path
     class="cls-2"
     d="m 378.77999,18.289103 a 29.36,29.36 0 0 1 7.69,-2.64 c 4.11,-0.78 7.94,0 11.84,1.07 5.46,1.49 10.85,3.82 14,8.84 l -0.82,-1.91 1,3.17 -0.4,-2 -3.5,9 1.45,-1.59 c -6.87,6 -11.31,3.12 -17.83,1.56 -2,-0.48 -4,-0.88 -6.07,-1.25 a 11.4,11.4 0 0 0 -4.81,-0.15 29.48,29.48 0 0 0 -6.36,2.23 c -0.79,0.36 0.89,1 0.94,1 1,0.41 2.4,1.18 3.48,1 1.95,-0.23 3.74,-1 5.71,-1.15 a 21.92,21.92 0 0 1 4.05,0 c 3.21,0.3 6.42,0.55 9.62,0.91 l -3.27,-1 c 2.15,1.39 3.8,2.17 6.47,2 a 13.2,13.2 0 0 0 5.06,-1.48 c 2.17,-1.11 1.59,-1.42 3.25,-2.73 a 7.27,7.27 0 0 0 3,-5.2 8.25,8.25 0 0 0 -0.73,-4 c -0.94,-2.36 -3,-3.92 -5,-5.33 a 28.49,28.49 0 0 0 -10,-4.14 44.3,44.3 0 0 0 -7.58,-1.2 29.63,29.63 0 0 0 -14.5,3.11 c -0.68,0.32 0.49,0.87 0.63,1 0.52,0.24 2.04,1.18 2.68,0.88 z"
     id="path422"
     style="opacity:0.11;fill:#999797" />
  <path
     class="cls-2"
     d="m 380.47999,20.649103 c 4.34,-2.16 8.44,-3.51 13.7,-2.8 a 44.29,44.29 0 0 1 5.71,1.23 21.24,21.24 0 0 1 4.26,1.57 16.32,16.32 0 0 1 5.85,3 15,15 0 0 1 3.78,4.09 l -0.9,-2.47 1.31,4.27 -0.59,-3.19 0.31,4.36 0.05,-2.26 -0.51,3.83 0.45,-2 q -8,12.36 -15.5,7.63 a 21.56,21.56 0 0 0 -3.45,-1.59 40.88,40.88 0 0 0 -6.67,-1.9 23.16,23.16 0 0 0 -3.07,-0.52 c -3.18,-0.23 -6.36,1.19 -9.19,2.44 -0.8,0.36 1.13,1.35 1.64,1.16 a 26.46,26.46 0 0 1 6,-1.82 18,18 0 0 1 5.39,0.26 39.14,39.14 0 0 1 9.33,3 l -1,-0.62 c 2.33,2.52 7.16,2 10,0.81 2.48,-1 5.79,-3.58 6.72,-6.15 a 10,10 0 0 0 0.37,-6.08 9.67,9.67 0 0 0 -4.4,-5.56 27.77,27.77 0 0 0 -9.91,-4.35 51.7,51.7 0 0 0 -9.38,-1.16 31.34,31.34 0 0 0 -14.51,3.46 c -0.77,0.38 1,0.86 1,0.85 0.74,0.21 2.43,0.84 3.21,0.51 z"
     id="path424"
     style="opacity:0.11;fill:#999797" />
  <path
     class="cls-2"
     d="m 378.13999,20.769103 c 4.25,-2.12 8.91,-3.46 13.72,-2.68 a 47.16,47.16 0 0 1 6.32,1.56 c 4.35,1.35 13.3,4.94 12.26,10.28 -1.04,5.34 -9.66,8.72 -13.33,8.72 l 1.68,0.18 -3.16,-0.74 1.62,0.6 a 33.68,33.68 0 0 0 -10.47,-3.94 46.39,46.39 0 0 0 -4.8,-1 c -3.08,-0.36 -6.39,1.26 -9.1,2.47 -0.86,0.38 1.64,1.88 2.21,1.67 3.06,-1.1 6.1,-2.39 9.4,-1.8 a 73.37,73.37 0 0 1 11.29,2.68 l -1.44,-0.81 c 2.54,3 8,1.65 10.9,0.07 a 6.67,6.67 0 0 0 1.62,-1.09 10.92,10.92 0 0 0 1.35,-1.37 8.23,8.23 0 0 0 1.15,-0.81 6.37,6.37 0 0 0 2.27,-5.38 c -0.62,-4.54 -5.7,-7.63 -9.45,-9.23 a 44.71,44.71 0 0 0 -10.63,-3 c -5,-0.76 -9.78,0.61 -14.2,2.82 -0.57,0.28 0.24,1.07 0.79,0.8 z"
     id="path426"
     style="opacity:0.11;fill:#999797" />
  <path
     class="cls-57"
     d="m 339.69999,10.499103 c 0.26,1.15 0.55,2.34 0.88,3.56 q 0.72,2.66 1.51,5 l 38.34,-9.4100001 -2.23,-9 z"
     id="path428"
     style="fill:#723935" />
  <path
     class="cls-57"
     d="m 337.65999,17.649103 c 0.09,1.19 0.21,2.43 0.36,3.7 q 0.35,2.76 0.81,5.25 l 43.08,-4.3 -0.92,-9.41 z"
     id="path430"
     style="fill:#723935" />
  <path
     class="cls-58"
     d="m 343.30999,22.829103 c 12.3,-0.08 24.59,-0.31 36.89,-0.4 0.8,0 -0.51,-1.06 -0.46,-1 a 5,5 0 0 0 -2.41,-1.19 c -12.17,-0.15 -24.35,0.3 -36.52,0.12 -0.77,0 0.29,1 0.31,1 0.49,0.49 1.45,1.48 2.19,1.47 z"
     id="path432"
     style="opacity:0.11;fill:#db766d" />
  <path
     class="cls-58"
     d="m 341.39999,21.469103 c 12.27,-0.06 24.55,-0.32 36.82,-0.38 0.83,0 -0.56,-1.09 -0.49,-1 a 5.35,5.35 0 0 0 -2.53,-1.28 c -12.16,-0.18 -24.32,0.3 -36.48,0.11 -0.8,0 0.36,1.08 0.36,1.08 0.52,0.43 1.54,1.47 2.32,1.47 z"
     id="path434"
     style="opacity:0.11;fill:#db766d" />
  <path
     class="cls-58"
     d="m 342.43999,19.869103 c 12.25,-0.41 24.51,-0.53 36.77,-0.69 0.74,0 0.57,-1.12 0,-1.11 -12.25,0.16 -24.49,0.25 -36.73,0.73 -0.7,0.03 -0.65,1.09 -0.04,1.07 z"
     id="path436"
     style="opacity:0.11;fill:#db766d" />
  <path
     class="cls-58"
     d="m 342.85999,20.649103 c 12.27,-0.08 24.55,-0.31 36.83,-0.38 1,0 -0.72,-1.44 -0.68,-1.4 -0.67,-0.61 -1.37,-1.19 -2.09,-1.75 a 3.13,3.13 0 0 0 -1.22,-0.74 c -6.1,-0.12 -12.19,0.11 -18.29,0.08 -6.1,-0.03 -12,0 -18.06,-0.09 -0.92,0 0.48,1.42 0.51,1.46 0.6,0.67 1.22,1.33 1.87,2 a 2.89,2.89 0 0 0 1.13,0.82 z"
     id="path438"
     style="opacity:0.11;fill:#db766d" />
  <path
     class="cls-58"
     d="m 343.71999,19.379103 c 12.23,-0.07 24.45,-0.27 36.68,-0.43 0.95,0 0.37,-1.34 -0.2,-1.33 -12.3,0.15 -24.61,0.4 -36.91,0.41 -0.81,0 -0.13,1.35 0.43,1.35 z"
     id="path440"
     style="opacity:0.11;fill:#db766d" />
  <path
     class="cls-58"
     d="m 341.17999,21.459103 c 12.25,-0.35 24.51,-0.47 36.76,-0.63 0.76,0 0.33,-1.13 -0.28,-1.12 -12.24,0.16 -24.49,0.26 -36.73,0.66 -0.72,0.03 -0.36,1.11 0.25,1.09 z"
     id="path442"
     style="opacity:0.11;fill:#db766d" />
  <path
     class="cls-58"
     d="m 342.15999,23.259103 c 12.28,-0.08 24.55,-0.32 36.83,-0.4 0.47,0 0.43,-0.34 0.3,-0.65 a 3.27,3.27 0 0 0 -1.82,-0.86 c -12.18,0 -24.36,0.32 -36.54,0.3 -1.25,0 0.66,1.61 1.23,1.61 z"
     id="path444"
     style="opacity:0.11;fill:#db766d" />
  <path
     class="cls-58"
     d="m 344.07999,20.589103 c 12.28,0 24.55,-0.3 36.82,-0.37 0.83,0 -0.29,-1.16 -0.34,-1.21 -0.48,-0.52 -1.65,-2 -2.46,-2.06 -12.09,-0.22 -24.17,0.28 -36.26,0 -0.78,0 0,1.07 0.15,1.24 0.31,0.51 1.39,2.46 2.09,2.4 z"
     id="path446"
     style="opacity:0.11;fill:#db766d" />
  <path
     class="cls-58"
     d="m 341.44999,20.309103 c 12.28,0 24.57,-0.27 36.85,-0.42 1,0 0,-1.35 -0.55,-1.34 -12.24,0.14 -24.48,0.39 -36.71,0.4 -1,0 -0.17,1.37 0.41,1.36 z"
     id="path448"
     style="opacity:0.11;fill:#db766d" />
  <path
     class="cls-58"
     d="m 342.31999,19.409103 c 12.27,0 24.55,-0.29 36.82,-0.34 0.73,0 -0.14,-1 -0.21,-1 -0.43,-0.45 -1.31,-1.52 -2,-1.52 -12.16,-0.15 -24.31,0.32 -36.47,0.13 -0.86,-0.03 1.13,2.73 1.86,2.73 z"
     id="path450"
     style="opacity:0.11;fill:#db766d" />
  <path
     class="cls-58"
     d="m 343.91999,21.769103 c 12.29,-0.07 24.57,-0.31 36.86,-0.39 0.87,0 -0.51,-1.22 -0.49,-1.21 -0.6,-0.54 -1.85,-1.88 -2.74,-1.89 -12.12,-0.23 -24.23,0.27 -36.35,0 -0.83,0 0.25,1.18 0.31,1.25 0.42,0.52 1.64,2.25 2.41,2.24 z"
     id="path452"
     style="opacity:0.11;fill:#db766d" />
  <path
     class="cls-58"
     d="m 341.05999,22.179103 c 12.29,-0.07 24.59,-0.28 36.89,-0.43 0.91,0 -0.08,-1.22 -0.67,-1.22 -12.26,0.15 -24.52,0.39 -36.78,0.41 -0.9,0.01 -0.04,1.24 0.56,1.24 z"
     id="path454"
     style="opacity:0.11;fill:#db766d" />
  <line
     class="cls-55"
     x1="372.10001"
     y1="23.619104"
     x2="376.97"
     y2="34.939102"
     id="line456"
     style="fill:none;stroke:#5a4e51;stroke-width:6.39px;stroke-miterlimit:10" />
</svg>
