<?xml version="1.0" encoding="UTF-8" standalone="no"?>
<svg
   id="Layer_1"
   data-name="Layer 1"
   viewBox="0 0 601.19999 172.08001"
   version="1.1"
   sodipodi:docname="big_pool.svg"
   width="601.20001"
   height="172.08"
   inkscape:version="1.2 (1:1.2+202206011326+fc4e4096c5)"
   xmlns:inkscape="http://www.inkscape.org/namespaces/inkscape"
   xmlns:sodipodi="http://sodipodi.sourceforge.net/DTD/sodipodi-0.dtd"
   xmlns="http://www.w3.org/2000/svg"
   xmlns:svg="http://www.w3.org/2000/svg"
   xmlns:rdf="http://www.w3.org/1999/02/22-rdf-syntax-ns#"
   xmlns:cc="http://creativecommons.org/ns#"
   xmlns:dc="http://purl.org/dc/elements/1.1/">
  <sodipodi:namedview
     id="namedview61"
     pagecolor="#ffffff"
     bordercolor="#000000"
     borderopacity="0.25"
     inkscape:showpageshadow="2"
     inkscape:pageopacity="0.0"
     inkscape:pagecheckerboard="0"
     inkscape:deskcolor="#d1d1d1"
     showgrid="false"
     inkscape:zoom="1.8512208"
     inkscape:cx="259.01826"
     inkscape:cy="79.947242"
     inkscape:window-width="1920"
     inkscape:window-height="1007"
     inkscape:window-x="0"
     inkscape:window-y="0"
     inkscape:window-maximized="1"
     inkscape:current-layer="Layer_1" />
  <defs
     id="defs4">
    <style
       id="style2">.cls-1{fill:#99c45a;}.cls-2{fill:#cfa97e;}.cls-17,.cls-3{fill:#94cbe7;}.cls-4{fill:#4a90b8;}.cls-5{fill:#69b9e3;}.cls-6,.cls-7,.cls-8{fill:none;stroke-miterlimit:10;}.cls-6{stroke:#3b5368;}.cls-7{stroke:#2e4451;}.cls-8{stroke:#201600;}.cls-9{fill:#979695;}.cls-10{fill:#7f7e7c;}.cls-11{fill:#6b6966;}.cls-12{opacity:0.72;}.cls-13{fill:#bfe0e7;}.cls-14{opacity:0.56;}.cls-15{opacity:0.67;}.cls-16{fill:#b39471;}.cls-17{opacity:0.6;}</style>
  </defs>
  <title
     id="title6">mecz loghavazan</title>
  <polygon
     class="cls-1"
     points="648.96,298.08 47.76,294.51 146.98,129.07 539.79,126 "
     id="polygon8"
     style="fill:#99c45a"
     transform="translate(-47.76,-126)" />
  <polygon
     class="cls-2"
     points="531.07,140.34 593.63,255.63 602.4,255.6 537.91,140.09 "
     id="polygon10"
     style="fill:#cfa97e"
     transform="translate(-47.76,-126)" />
  <polygon
     class="cls-3"
     points="114.24,253.62 228.57,253.62 175.21,145.3 167.6,145.3 "
     id="polygon12"
     style="fill:#94cbe7"
     transform="translate(-47.76,-126)" />
  <polygon
     class="cls-4"
     points="467.24,254.64 593.3,254.64 534.03,144.35 526.51,144.35 "
     id="polygon14"
     style="fill:#4a90b8"
     transform="translate(-47.76,-126)" />
  <polygon
     class="cls-2"
     points="536.12,146.3 163.95,146.3 168.6,139.99 531.46,139.99 "
     id="polygon16"
     style="fill:#cfa97e"
     transform="translate(-47.76,-126)" />
  <polygon
     class="cls-2"
     points="170.61,140.24 110.44,254.33 102.87,253.64 163.32,140.28 "
     id="polygon18"
     style="fill:#cfa97e"
     transform="translate(-47.76,-126)" />
  <polygon
     class="cls-5"
     points="534.61,254.54 110,253.17 167.03,144.7 532.98,143.61 "
     id="polygon20"
     style="fill:#69b9e3"
     transform="translate(-47.76,-126)" />
  <line
     class="cls-6"
     x1="118.63"
     y1="18.710014"
     x2="118.8"
     y2="128.28"
     id="line22"
     style="fill:none;stroke:#3b5368;stroke-miterlimit:10" />
  <line
     class="cls-7"
     x1="485.83005"
     y1="17.600014"
     x2="485.76004"
     y2="128.53999"
     id="line24"
     style="fill:none;stroke:#2e4451;stroke-miterlimit:10" />
  <polygon
     class="cls-8"
     points="593.3,254.54 110,253.17 166.08,144.71 533.21,143.6 "
     id="polygon26"
     style="fill:none;stroke:#201600;stroke-miterlimit:10"
     transform="translate(-47.76,-126)" />
  <path
     class="cls-9"
     d="M 107.36001,53.12 97.240005,65.36 c -1,1.23 0.74,3 1.75999,1.76 L 109.07999,54.88 c 1,-1.23 -0.74,-3 -1.75999,-1.76 z"
     id="path28"
     style="fill:#979695" />
  <path
     class="cls-9"
     d="m 102.01,78.16 8.23,-10.08 c 1,-1.23 -0.75,-3 -1.75999,-1.76 L 100.24,76.4 c -0.999995,1.23 0.75999,3 1.77,1.76 z"
     id="path30"
     style="fill:#979695" />
  <path
     class="cls-9"
     d="m 100.66,96.05 a 49.63,49.63 0 0 0 9.65,-12.62 c 0.75,-1.42 -1.41,-2.69 -2.16,-1.26 a 47.68,47.68 0 0 1 -9.250005,12.11 c -1.15999,1.12 0.6,2.89 1.760005,1.77 z"
     id="path32"
     style="fill:#979695" />
  <path
     class="cls-9"
     d="m 100.42001,110.8 a 88.93,88.93 0 0 0 9.69,-12.12 C 111,97.34 108.83999,96.08 107.95,97.42 a 85.88,85.88 0 0 1 -9.300005,11.61 c -1.11,1.16 0.66,2.94 1.770015,1.77 z"
     id="path34"
     style="fill:#979695" />
  <path
     class="cls-10"
     d="m 89.779995,55.06 a 14,14 0 0 1 0.44,-7.49 c 1.12,-3.11 4,-6.8 7.69,-6.58 4.109995,0.25 7.199995,8.29 8.209995,11.41 2.62001,8.17 2.66,17 2.35,25.52 -0.56,15.91 -1.83,31.81 -2.6,47.72 -0.08,1.61 2.42,1.6 2.5,0 q 0.84,-17.46 1.9,-34.92 c 0.63,-10.39 1.51,-20.93 0,-31.28 -1,-6.57 -4.3,-20.61 -12.999995,-21.05 -8.14,-0.4 -11.08,11.23 -9.85999,17.33 0.31,1.58 2.71999,0.91 2.40999,-0.66 z"
     id="path36"
     style="fill:#7f7e7c" />
  <path
     class="cls-11"
     d="m 79.459995,65 c -0.89,-4.37 1.38,-12.65 7.34001,-12.6 3.87,0 6.74,4.46 8.27999,7.55 3.17,6.36 3.42,13.89 3.45,20.86 0.05,14.88 -1,29.82 -1.82,44.68 -0.08,1.61 2.42,1.6 2.5,0 Q 100.04,109.62 100.68999,93.74 c 0.41,-9.91 1.27,-20.56 -1.569995,-30.22 -1.59,-5.37 -5.71,-13.6 -12.31999,-13.62 -7.59001,0 -11,9.59 -9.75,15.76 0.31999,1.58 2.72999,0.91 2.40999,-0.66 z"
     id="path38"
     style="fill:#6b6966" />
  <g
     class="cls-12"
     id="g42"
     style="opacity:0.72"
     transform="translate(-47.76,-126)">
    <path
       class="cls-13"
       d="m 152.19,228.08 a 26.14,26.14 0 0 1 9.22,-9.35 37.51,37.51 0 0 1 12.42,-4.58 64.15,64.15 0 0 1 26.42,1 c 8.63,2 17,4.77 25.65,6.51 a 72.24,72.24 0 0 0 13,1.56 48.27,48.27 0 0 0 12.94,-1.45 c 8.49,-2 16.59,-5.81 25.41,-7.53 a 44.12,44.12 0 0 1 6.7,-0.82 c 0.56,0 1.12,-0.06 1.69,0 l 1.69,0.07 c 0.56,0 1.13,0 1.69,0.07 l 1.68,0.22 a 61.14,61.14 0 0 1 13,3.35 c 8.37,3 16.25,7.1 24.65,9.43 a 45.28,45.28 0 0 0 12.79,1.77 51.25,51.25 0 0 0 12.79,-2.09 c 8.4,-2.35 16.38,-6.16 24.59,-9.47 a 102.28,102.28 0 0 1 12.64,-4.32 52.51,52.51 0 0 1 6.61,-1.29 41.37,41.37 0 0 1 6.77,-0.26 33.93,33.93 0 0 1 6.71,1.1 15.34,15.34 0 0 1 1.63,0.5 c 0.54,0.19 1.08,0.34 1.61,0.56 1.06,0.41 2.08,0.89 3.09,1.39 a 115,115 0 0 1 11.35,7 55.77,55.77 0 0 0 11.39,6.28 18.76,18.76 0 0 0 6.2,1.21 15.59,15.59 0 0 0 6.13,-1.21 33.91,33.91 0 0 0 5.59,-3.24 60,60 0 0 1 5.7,-3.51 50.65,50.65 0 0 1 12.53,-4.69 51.25,51.25 0 0 1 13.27,-1.29 53.18,53.18 0 0 1 6.66,0.61 53.91,53.91 0 0 1 6.51,1.52 c 8.53,2.62 16.21,7.17 24.63,9.74 a 38.1,38.1 0 0 0 13,1.72 21.69,21.69 0 0 0 12.28,-4.25 21.84,21.84 0 0 1 -12.26,4.55 38.26,38.26 0 0 1 -13.16,-1.52 c -8.55,-2.45 -16.34,-6.87 -24.76,-9.3 a 58.31,58.31 0 0 0 -6.39,-1.42 52.9,52.9 0 0 0 -6.53,-0.53 50.17,50.17 0 0 0 -13,1.44 48.89,48.89 0 0 0 -12.15,4.7 57.59,57.59 0 0 0 -5.54,3.48 35.28,35.28 0 0 1 -5.81,3.44 17,17 0 0 1 -6.75,1.41 20.53,20.53 0 0 1 -6.75,-1.24 57.24,57.24 0 0 1 -11.72,-6.44 111.57,111.57 0 0 0 -11.19,-6.86 31,31 0 0 0 -12.35,-3.32 38.57,38.57 0 0 0 -6.46,0.27 51.6,51.6 0 0 0 -6.37,1.26 101.44,101.44 0 0 0 -12.39,4.29 c -8.14,3.3 -16.15,7.18 -24.77,9.62 a 53.14,53.14 0 0 1 -13.29,2.12 47.2,47.2 0 0 1 -13.34,-1.88 c -8.65,-2.44 -16.54,-6.56 -24.76,-9.56 a 59.31,59.31 0 0 0 -12.59,-3.3 38.78,38.78 0 0 0 -12.89,0.43 c -8.55,1.66 -16.68,5.32 -25.39,7.33 a 49.77,49.77 0 0 1 -13.32,1.35 74.3,74.3 0 0 1 -13.23,-1.72 c -8.69,-1.86 -17.07,-4.71 -25.62,-6.79 a 63.35,63.35 0 0 0 -26.1,-1.48 37.24,37.24 0 0 0 -12.38,4.33 25.92,25.92 0 0 0 -9.37,9.08 z"
       id="path40"
       style="fill:#bfe0e7" />
  </g>
  <g
     class="cls-14"
     id="g46"
     style="opacity:0.56"
     transform="translate(-47.76,-126)">
    <path
       class="cls-13"
       d="m 165.34,170.09 c 14.09,-7.58 29.61,-13 45.78,-14.31 a 91.06,91.06 0 0 1 12.14,-0.2 l 3,0.19 3,0.33 c 2,0.17 4,0.56 6,0.9 a 76,76 0 0 1 11.77,3.25 c 3.83,1.38 7.53,3 11.2,4.56 a 75.86,75.86 0 0 0 11.1,3.89 58.77,58.77 0 0 0 11.67,1.61 59.8,59.8 0 0 0 22.9,-3.52 c 3.64,-1.37 7.18,-3.09 10.85,-4.79 a 83.7,83.7 0 0 1 11.46,-4.45 69.51,69.51 0 0 1 12.17,-2.25 c 2.05,-0.16 4.1,-0.25 6.15,-0.33 2.05,-0.08 4.11,0 6.17,0.14 a 48.88,48.88 0 0 1 6.21,0.81 c 1,0.2 2.05,0.45 3.07,0.74 1.02,0.29 2,0.58 2.94,0.89 a 88.16,88.16 0 0 1 11.41,4.57 l 2.71,1.36 c 0.86,0.4 1.7,0.87 2.6,1.2 0.9,0.33 1.76,0.73 2.68,1 l 1.37,0.45 1.39,0.39 a 63.68,63.68 0 0 0 11.48,1.89 c 7.81,0.61 15.78,0.15 23.76,-0.31 a 115,115 0 0 0 11.68,-1.28 88.62,88.62 0 0 0 11.48,-2.71 c 3.78,-1.14 7.54,-2.55 11.44,-3.72 a 61.88,61.88 0 0 1 12,-2.45 70.07,70.07 0 0 1 24.24,1.92 100.44,100.44 0 0 1 22.4,9.09 c 1.74,1 3.51,2 5.21,3 1.7,1 3.43,2.11 5.08,3.25 1.65,1.14 3.3,2.28 4.91,3.48 l 4.79,3.64 -5,-3.39 c -1.67,-1.11 -3.39,-2.15 -5.07,-3.22 -1.68,-1.07 -3.45,-2 -5.17,-3 -1.72,-1 -3.53,-1.87 -5.28,-2.81 a 98.71,98.71 0 0 0 -22.36,-8.12 68.32,68.32 0 0 0 -23.49,-1.23 62.85,62.85 0 0 0 -11.45,2.61 c -3.75,1.2 -7.48,2.68 -11.35,3.94 a 92,92 0 0 1 -11.83,3 118.06,118.06 0 0 1 -12.11,1.48 c -8,0.55 -16.08,1.12 -24.26,0.58 A 63.73,63.73 0 0 1 384,170.26 l -1.51,-0.41 -1.49,-0.49 c -1,-0.3 -2,-0.71 -2.94,-1.1 -0.94,-0.39 -1.91,-0.86 -2.86,-1.3 l -2.66,-1.33 a 84.7,84.7 0 0 0 -10.91,-4.31 c -0.93,-0.3 -1.88,-0.58 -2.81,-0.84 -0.93,-0.26 -1.83,-0.48 -2.77,-0.66 a 49,49 0 0 0 -5.71,-0.73 c -1.92,-0.14 -3.87,-0.17 -5.83,-0.15 -1.96,0.02 -3.91,0.15 -5.85,0.3 a 65,65 0 0 0 -11.45,2.06 78.84,78.84 0 0 0 -10.93,4.21 c -3.61,1.65 -7.27,3.43 -11.16,4.83 a 54.82,54.82 0 0 1 -12,2.92 73.38,73.38 0 0 1 -12.3,0.54 60.79,60.79 0 0 1 -12.22,-1.87 79.21,79.21 0 0 1 -11.49,-4.26 c -3.68,-1.64 -7.28,-3.31 -11,-4.72 a 78.4,78.4 0 0 0 -11.29,-3.4 c -1.94,-0.37 -3.86,-0.8 -5.83,-1 l -2.93,-0.4 -3,-0.27 a 94,94 0 0 0 -11.87,-0.14 106.84,106.84 0 0 0 -11.78,1.26 c -3.93,0.65 -7.81,1.57 -11.66,2.61 -1.91,0.59 -3.84,1.1 -5.72,1.77 l -2.84,1 -2.8,1.05 c -1.89,0.67 -3.71,1.49 -5.57,2.23 -1.86,0.74 -3.65,1.61 -5.48,2.43 z"
       id="path44"
       style="fill:#bfe0e7" />
  </g>
  <g
     class="cls-15"
     id="g50"
     style="opacity:0.67"
     transform="translate(-47.76,-126)">
    <path
       class="cls-13"
       d="m 142.7,199.09 a 24.65,24.65 0 0 1 8.15,-9.82 28.7,28.7 0 0 1 12,-4.74 42.66,42.66 0 0 1 13,-0.19 79.92,79.92 0 0 1 12.6,3 c 8.19,2.49 16.25,5.52 24.56,6.19 1,0.12 2.07,0.1 3.1,0.14 1.03,0.04 2.06,-0.06 3.08,-0.12 a 55.75,55.75 0 0 0 6.15,-1 63.7,63.7 0 0 0 11.94,-3.87 81.32,81.32 0 0 1 12.4,-4 c 1.05,-0.26 2.12,-0.5 3.18,-0.71 1.06,-0.21 2.13,-0.41 3.21,-0.58 1.08,-0.17 2.16,-0.39 3.25,-0.5 l 3.28,-0.32 a 51,51 0 0 1 13.22,0.84 c 4.34,0.83 8.44,2.11 12.53,3.05 a 85.41,85.41 0 0 0 24.92,2 101.86,101.86 0 0 0 12.43,-1.46 c 4.12,-0.74 8.15,-1.85 12.29,-3 2.07,-0.57 4.2,-1.1 6.37,-1.54 a 41.52,41.52 0 0 1 6.68,-0.75 53.44,53.44 0 0 1 13.22,1.45 c 4.3,1 8.4,2.46 12.39,3.54 a 54.19,54.19 0 0 0 12.24,1.81 83,83 0 0 0 12.54,-0.57 c 4.28,-0.42 8.56,-0.74 12.89,-1 8.57,-0.4 17.13,-0.56 25.77,-0.27 a 147,147 0 0 1 25.63,3.46 c 8.4,1.85 16.62,4.15 25,5.57 a 164.71,164.71 0 0 0 25.4,2.39 210.28,210.28 0 0 0 25.57,-1.22 173.74,173.74 0 0 1 -51.27,0.76 c -8.54,-1.19 -16.88,-3.33 -25.22,-4.93 A 147.89,147.89 0 0 0 440,189.79 c -4.22,-0.08 -8.49,0 -12.74,0.11 -4.25,0.11 -8.5,0.27 -12.77,0.54 -4.27,0.27 -8.46,0.63 -12.68,1.09 a 87.93,87.93 0 0 1 -13.05,0.73 55.89,55.89 0 0 1 -13.09,-1.87 c -4.26,-1.14 -8.22,-2.56 -12.28,-3.46 a 49.19,49.19 0 0 0 -12.2,-1.31 38.68,38.68 0 0 0 -6.05,0.7 c -2,0.42 -4,0.93 -6.09,1.5 -4.1,1.12 -8.33,2.27 -12.63,3 a 105.34,105.34 0 0 1 -13,1.45 c -2.17,0.09 -4.34,0.13 -6.52,0.14 -2.18,0.01 -4.36,-0.08 -6.55,-0.31 a 76.29,76.29 0 0 1 -12.93,-2.11 c -4.23,-1 -8.3,-2.33 -12.36,-3.16 a 47.79,47.79 0 0 0 -12.29,-0.91 l -3.1,0.27 c -1,0.09 -2.06,0.3 -3.1,0.44 -1.04,0.14 -2.06,0.31 -3.09,0.53 -1.03,0.22 -2.07,0.4 -3.09,0.64 a 77.94,77.94 0 0 0 -12,3.68 65.27,65.27 0 0 1 -12.5,3.8 57.16,57.16 0 0 1 -6.52,0.92 39.48,39.48 0 0 1 -6.62,-0.17 66.23,66.23 0 0 1 -12.75,-2.74 c -4.12,-1.29 -8.15,-2.74 -12.18,-4.12 a 80.21,80.21 0 0 0 -12.22,-3.35 41.79,41.79 0 0 0 -12.58,-0.25 33.28,33.28 0 0 0 -6.15,1.43 c -1,0.38 -2,0.75 -2.92,1.21 a 24.89,24.89 0 0 0 -2.75,1.56 24.34,24.34 0 0 0 -8.5,9.32 z"
       id="path48"
       style="fill:#bfe0e7" />
  </g>
  <rect
     class="cls-16"
     x="55.56385"
     y="127.44242"
     width="499.79999"
     height="13.66"
     transform="rotate(0.21)"
     id="rect52"
     style="fill:#b39471" />
  <path
     class="cls-17"
     d="M 71.519995,126.45 118.44,126.6 118.49,27.36 93.669995,73.22 Z"
     id="path54"
     style="opacity:0.6;fill:#94cbe7" />
  <path
     class="cls-17"
     d="m 319.68,51.12 c 26.22,1 47.37,9.42 47,11.62 -0.49001,2.82 -35.11001,-11.25 -65.46999,4.7 -7.62,4 -13.95,9.36 -27.36001,13.2 -11.51999,3.3 -19.76999,3.05 -27.36,3.36 -31,1.27 -34.63,11.22 -62.40001,13.92 a 125,125 0 0 1 -56.16,-7.44 c 0,0.19 15.63,6.12 33.18001,1.47 10.86001,-2.87 21.69,-9.6 20.82,-13.23 -0.76,-3.19 -10.19,-2.36 -32.87999,-4.32 -24.49001,-2.11 -36.94,-3.27 -37.92001,-7.68 -1.16,-5.26 14.23,-14.14 28.08,-19 34,-11.82 65.25,-1.56 66,-5.28 0.44,-2.17 -10,-6.55 -16.8,-8.64 -8.67,-2.68 -14,-2.43 -14,-3.18 0,-1.27 15,-4.35 31.72,-0.66 9.9,2.18 9,4.21 18,6.24 14.10001,3.17 19.46,-1.1 38.4,-1 12.88,0.09 27.54,2.19 27.6,4.32 0.10001,3.86 -48.13,6.63 -48,9.84 0.08,2.14 21.75,3.55 40.32,3.36 20.51,-0.13 23.38,-2.14 37.23,-1.6 z"
     id="path56"
     style="opacity:0.6;fill:#94cbe7" />
  <path
     class="cls-17"
     d="m 471.97999,63 c 26.22,0.68 47.37001,6.38 47,7.88 -0.49,1.91 -35.11,-7.63 -65.47,3.19 -5.32,1.9 -10,4.24 -16.94,6.38 -6.94,2.14 -10.39999,1.91 -10.42,2.58 -0.08,2.75 60,3.52 60.15,7.7 0.15,3.74 -47.56,15.88 -98.21,4.29 -18.34,-4.2 -17.8,-7.1 -30.24,-7.92 -23,-1.52 -56.57,6.28 -74.35,3.4 -1.91,-0.31 -3.24,-0.9 -3.26999,-0.8 -0.03,0.1 15.63,4.16 33.18,1 10.86,-1.95 21.69,-6.52 20.82,-9 -0.76,-2.16 -10.19,-1.6 -32.88,-2.93 -15.9,-0.93 -38,-3.42 -37.92001,-5.21 0.08,-1.79 21.4,-1.56 55.53001,-6.56 15.35,-2.27 38.58,-5.71 38.54,-9.81 0,-2.6 -9.42,-4.58 -16.8,-5.86 -52.81,-9.18 -98,0.48 -98.54,-1.85 -0.77,-3.52 105.5,-12.52 111.38,-4.92 a 13.43,13.43 0 0 0 4.92,4.16 14.77,14.77 0 0 0 6.63,1.33 59,59 0 0 0 12.15,-1.05 c 5.33999,-1.11 5.68,-0.5 18,-1.44 21.81999,-1.67 66.19999,-7.08 66.34999,-6.07 0.15,1.01 -47.06999,7.54 -46.76999,10.82 0.23,2.48 27.54,1.48 27.6,2.93 0.10001,2.62 -48.13,4.5 -48,6.68 0.08,1.45 21.75,2.4 40.32001,2.28 20.5,-0.2 23.39,-1.55 37.23998,-1.2 z"
     id="path58"
     style="opacity:0.6;fill:#94cbe7" />
  <metadata
     id="metadata496">
    <rdf:RDF>
      <cc:Work
         rdf:about="">
        <dc:title>mecz loghavazan</dc:title>
      </cc:Work>
    </rdf:RDF>
  </metadata>
</svg>
