<?xml version="1.0" encoding="UTF-8" standalone="no"?>
<svg
   id="Layer_1"
   data-name="Layer 1"
   viewBox="0 0 468.01241 240.16001"
   version="1.1"
   sodipodi:docname="small_pool.svg"
   width="468.01239"
   height="240.16"
   inkscape:version="1.2 (1:1.2+202206011326+fc4e4096c5)"
   xmlns:inkscape="http://www.inkscape.org/namespaces/inkscape"
   xmlns:sodipodi="http://sodipodi.sourceforge.net/DTD/sodipodi-0.dtd"
   xmlns="http://www.w3.org/2000/svg"
   xmlns:svg="http://www.w3.org/2000/svg"
   xmlns:rdf="http://www.w3.org/1999/02/22-rdf-syntax-ns#"
   xmlns:cc="http://creativecommons.org/ns#"
   xmlns:dc="http://purl.org/dc/elements/1.1/">
  <sodipodi:namedview
     id="namedview47"
     pagecolor="#ffffff"
     bordercolor="#000000"
     borderopacity="0.25"
     inkscape:showpageshadow="2"
     inkscape:pageopacity="0.0"
     inkscape:pagecheckerboard="0"
     inkscape:deskcolor="#d1d1d1"
     showgrid="false"
     inkscape:zoom="1.9336888"
     inkscape:cx="208.66853"
     inkscape:cy="46.02602"
     inkscape:window-width="1920"
     inkscape:window-height="1007"
     inkscape:window-x="0"
     inkscape:window-y="0"
     inkscape:window-maximized="1"
     inkscape:current-layer="Layer_1" />
  <defs
     id="defs4">
    <style
       id="style2">.cls-1{fill:#d65988;}.cls-2{fill:#589255;}.cls-3{fill:#e18c44;}.cls-4{fill:#fff343;}.cls-5{fill:#68a99b;}.cls-6{fill:#88bed9;}.cls-6,.cls-8{opacity:0.6;}.cls-11,.cls-7{fill:#fff;}.cls-7{opacity:0.64;}.cls-8{fill:#aedaf3;}.cls-9{fill:#3b4167;opacity:0.18;}.cls-10{opacity:0.83;}.cls-12{opacity:0.77;}.cls-13{fill:#d24a43;}</style>
  </defs>
  <title
     id="title6">փոքր լողավազան</title>
  <ellipse
     class="cls-1"
     cx="234.00642"
     cy="180.16"
     rx="234"
     ry="60"
     id="ellipse8"
     style="fill:#d65988" />
  <ellipse
     class="cls-2"
     cx="234.00642"
     cy="141.16"
     rx="234"
     ry="60"
     id="ellipse10"
     style="fill:#589255" />
  <ellipse
     class="cls-3"
     cx="234.00642"
     cy="99.660011"
     rx="234"
     ry="67.5"
     id="ellipse12"
     style="fill:#e18c44" />
  <path
     class="cls-4"
     d="m 468.00641,64.159997 c 1,32.8 -123.42,71.840003 -235.42,71.540003 C 122.17641,135.4 -1.0235854,96.800007 0.00641465,64.159997 1.0064146,30.859997 131.39641,4.1599972 234.00641,4.1599972 c 102.61,0 232.95,26.6799998 234,59.9999998 z"
     id="path14"
     style="fill:#fff343" />
  <path
     class="cls-5"
     d="m 431.36641,59.839997 c 0.25,19.2 -103.93,45.240003 -207.36,43.200003 -99,-1.95 -190.999996,-29.520003 -190.079996,-43.920003 0.39,-5.87 16.44,-12.82 27.36,-15.12 9.32,-2 13.12,-0.17 24.48,-2.16 11.58,-2 17.129996,-5.55 25.199996,-8.64 14.68,-5.62 17.65,-2.13 61.2,-5 24.46,-1.63 25.19,-2.84 40.32,-2.88 18.27,0 20.13,1.72 38.88,2.16 30.07,0.71 30.18,-3.7 51.84,-2.16 22.62,1.61 21.05,6.31 49,9.36 24.33,2.66 29.64,-0.47 45.36,4.32 2.92,0.84 33.66,10.45 33.8,20.84 z"
     id="path16"
     style="fill:#68a99b" />
  <ellipse
     class="cls-6"
     cx="201.03642"
     cy="60.660011"
     rx="157.25999"
     ry="28.5"
     id="ellipse18"
     style="opacity:0.6;fill:#88bed9" />
  <path
     class="cls-7"
     d="m 389.39641,49.199997 c -0.09,-0.58999 -13.78,3.35001 -38.45,2.83001 -22,-0.47 -25,-3.87 -40.54,-3.71001 -29.6,0.31 -55.44,13.13 -54.72,16.56 0.4,1.93001 9.12,0.53001 28.08,0.72001 31.07,0.3 61.19,4.56 61.12,6.58999 -0.05,1.81 -24,-1.5 -65.44,2.77001 -23.86,2.46 -36.65,5.69 -48.24,-2.16 -4.12,-2.79 -9.52,-8 -18.72,-9.36001 -2.85,-0.44 -3.44,-0.11 -16.56,0 -5.39,0.05 -4,0 -15.12,0 -18.69,0 -18.16,0.21001 -19.9,0 -11.1,-1.34999 -11.55,-6 -22.58,-9.36 -11.03,-3.36 -13.63,0.27001 -41.759996,0.72001 -13.94,0.21999 -20.83,-0.54001 -20.88,0 -0.07,0.87 17.55,4.63 38.159996,4.32 12.66,-0.19 15.12,-1.74001 40.32,-5 23.53,-3.08001 35.3,-4.63 44.64,-4.32 27,0.88 29.73,8.31 47,4.24 8.18,-1.92 15.07,-5.34001 26.43,-4.24 a 51.23,51.23 0 0 1 17.28,4.93 c 29.13,13.26999 100.1,-4.2 99.88,-5.53001 z"
     id="path20"
     style="opacity:0.64;fill:#ffffff" />
  <path
     class="cls-8"
     d="m 270.08641,54.729997 c 0.6,6.73 -50.68,22.77 -108.09,22.57 -56.82,-0.2 -108.759996,-16.26 -108.089996,-22.57 0.72,-6.66999 60.789996,-7.12 63.539996,-7.13 26.13,-0.13 31.56,2.51 47.52,-1.44 15.96,-3.95 21.37,-9.34 36,-9.07 8.85,0.16 11.14,2.19 30.94,7.63 29.44,8.12 37.94,7.29 38.18,10.01 z"
     id="path22"
     style="opacity:0.6;fill:#aedaf3" />
  <g
     class="cls-10"
     id="g28"
     style="opacity:0.83"
     transform="translate(-64.713585,-120.16)">
    <path
       class="cls-11"
       d="m 123.12,151.2 a 164.92,164.92 0 0 0 -26.21,14.89 49.84,49.84 0 0 0 -10.87,10 14.81,14.81 0 0 0 -2.89,6.34 7.78,7.78 0 0 0 0,1.67 c 0,0.27 0,0.55 0.08,0.81 0.08,0.26 0.12,0.54 0.19,0.8 a 7.72,7.72 0 0 0 1.58,2.88 22.47,22.47 0 0 0 5.67,4.33 c 2.13,1.23 4.36,2.33 6.62,3.39 4.54,2.1 9.21,4 13.88,5.83 q 14,5.56 28.45,9.9 a 235.5,235.5 0 0 0 29.19,7.1 c 9.91,1.53 19.93,2.62 30,3.41 10.07,0.79 20.09,1.2 30.16,1.28 10.07,0.08 20.16,-0.15 30.24,-0.63 a 365.41,365.41 0 0 1 -60.55,1.69 q -7.59,-0.4 -15.14,-1.16 c -5,-0.49 -10.06,-1.07 -15.09,-1.78 -5.03,-0.71 -10,-1.86 -14.95,-3 -4.95,-1.14 -9.82,-2.55 -14.67,-4 -9.7,-3 -19.27,-6.31 -28.65,-10.14 -4.67,-2 -9.35,-3.88 -13.94,-6.09 -2.29,-1.11 -4.57,-2.27 -6.78,-3.61 a 24.66,24.66 0 0 1 -6.18,-5 9.9,9.9 0 0 1 -2,-3.71 c -0.09,-0.35 -0.16,-0.7 -0.23,-1 -0.07,-0.3 -0.06,-0.71 -0.09,-1.06 a 10.62,10.62 0 0 1 0.09,-2.11 16.39,16.39 0 0 1 3.45,-7.23 51.08,51.08 0 0 1 11.59,-10.07 129.73,129.73 0 0 1 13.21,-7.52 q 6.78,-3.41 13.84,-6.21 z"
       id="path26"
       style="fill:#ffffff" />
  </g>
  <g
     class="cls-12"
     id="g32"
     style="opacity:0.77"
     transform="translate(-64.713585,-120.16)">
    <path
       class="cls-11"
       d="m 72.72,215.28 a 88.37,88.37 0 0 0 21.82,22 133,133 0 0 0 27.52,14.25 193.37,193.37 0 0 0 29.85,8.8 275.83,275.83 0 0 0 31,4.6 165.53,165.53 0 0 1 -31.41,-2.3 c -5.2,-0.86 -10.35,-2 -15.45,-3.37 -5.1,-1.37 -10.11,-3.06 -15.05,-4.94 A 145.39,145.39 0 0 1 106.58,247.7 100.45,100.45 0 0 1 93.19,239.16 74,74 0 0 1 72.72,215.28 Z"
       id="path30"
       style="fill:#ffffff" />
  </g>
  <path
     class="cls-11"
     d="m 6.9264146,141.2 a 318.61,318.61 0 0 0 29.3599994,14.51 q 7.52,3.22001 15.17,6 l 7.7,2.7 c 2.6,0.81 5.17,1.68 7.79,2.44 2.62,0.76 5.2,1.58 7.84,2.24 l 3.94,1 4,1 c 2.63,0.68 5.3,1.23 8,1.82 1.33,0.3 2.67,0.53 4,0.8 1.33,0.27 2.67,0.57 4,0.79 2.679996,0.48001 5.369996,1 8.059996,1.37001 2.69,0.37 5.4,0.81 8.1,1.19999 5.41,0.73001 10.85,1.32 16.3,1.88 -5.48,0.10001 -11,-0.09 -16.45,-0.41 -5.45,-0.32 -11.01,-0.89 -16.449996,-1.7 a 223.63,223.63 0 0 1 -32.21,-7.1 211.21,211.21 0 0 1 -30.79,-11.9 A 187,187 0 0 1 6.9264146,141.2 Z"
     id="path34"
     style="fill:#ffffff" />
  <path
     class="cls-11"
     d="m 10.166414,174.68 a 252.46,252.46 0 0 0 26.18,17.41 c 4.55,2.55 9.15,5.13 13.79,7.5 a 148.56,148.56 0 0 0 14.15,6.52 125.38,125.38 0 0 0 30.08,7.89 146.35,146.35 0 0 0 31.329996,0.64 109.25,109.25 0 0 1 -31.589996,1.69 111.78,111.78 0 0 1 -15.72,-2.59 116.81,116.81 0 0 1 -15.2,-4.85 141.21,141.21 0 0 1 -14.4,-6.79 c -2.33,-1.27 -4.63,-2.58 -6.9,-3.91 -2.27,-1.33 -4.54,-2.68 -6.78,-4.11 a 157.69,157.69 0 0 1 -24.94,-19.4 z"
     id="path36"
     style="fill:#ffffff" />
  <ellipse
     class="cls-11"
     cx="131.12642"
     cy="38.400002"
     rx="41.23"
     ry="38.400002"
     id="ellipse38"
     style="fill:#ffffff" />
  <path
     class="cls-5"
     d="m 157.12641,68.189997 a 40.93,40.93 0 0 1 -15.67,7.39 43.63,43.63 0 0 1 -20.71,-0.21 132.29,132.29 0 0 1 -11,-22.92 128.46,128.46 0 0 1 -7.21,-32 181.7,181.7 0 0 0 35.12,20.18 188,188 0 0 0 30.47,10.21 14.35,14.35 0 0 1 -0.29,5 c -1.38,5.74 -6.17,8.93 -10.71,12.35 z"
     id="path40"
     style="fill:#68a99b" />
  <path
     class="cls-13"
     d="m 151.67641,5.1200072 a 43.43,43.43 0 0 0 -14.77,-4.73000995 44.1,44.1 0 0 0 -11.47,0 60.32,60.32 0 0 0 -10.15,6.36999995 57,57 0 0 0 -12.71,13.7699998 87.37,87.37 0 0 1 64.3,-1.28 40.27,40.27 0 0 0 -11.2,-11.6999998 38.8,38.8 0 0 0 -4,-2.42999 z"
     id="path42"
     style="fill:#d24a43" />
  <path
     class="cls-4"
     d="m 90.706414,45.969997 c 0.31,1.23 0.63,2.45 0.94,3.67 a 48.68,48.68 0 0 1 2.86,-14.33 50.61,50.61 0 0 1 8.639996,-15.06 28,28 0 0 0 -6.739996,2.81 25.87,25.87 0 0 0 -4.28,3.1 35.13,35.13 0 0 0 -1.42,19.81 z"
     id="path44"
     style="fill:#fff343" />
  <metadata
     id="metadata311">
    <rdf:RDF>
      <cc:Work
         rdf:about="">
        <dc:title>փոքր լողավազան</dc:title>
      </cc:Work>
    </rdf:RDF>
  </metadata>
</svg>
